<?xml version="1.0" encoding="utf-8" standalone="no"?>
<!DOCTYPE svg PUBLIC "-//W3C//DTD SVG 1.1//EN"
  "http://www.w3.org/Graphics/SVG/1.1/DTD/svg11.dtd">
<svg xmlns:xlink="http://www.w3.org/1999/xlink" width="576pt" height="360pt" viewBox="0 0 576 360" xmlns="http://www.w3.org/2000/svg" version="1.1">
 <metadata>
  <rdf:RDF xmlns:dc="http://purl.org/dc/elements/1.1/" xmlns:cc="http://creativecommons.org/ns#" xmlns:rdf="http://www.w3.org/1999/02/22-rdf-syntax-ns#">
   <cc:Work>
    <dc:type rdf:resource="http://purl.org/dc/dcmitype/StillImage"/>
    <dc:date>2026-04-16T11:54:18.985491</dc:date>
    <dc:format>image/svg+xml</dc:format>
    <dc:creator>
     <cc:Agent>
      <dc:title>Matplotlib v3.10.3, https://matplotlib.org/</dc:title>
     </cc:Agent>
    </dc:creator>
   </cc:Work>
  </rdf:RDF>
 </metadata>
 <defs>
  <style type="text/css">*{stroke-linejoin: round; stroke-linecap: butt}</style>
 </defs>
 <g id="figure_1">
  <g id="patch_1">
   <path d="M 0 360 
L 576 360 
L 576 0 
L 0 0 
z
" style="fill: #ffffff"/>
  </g>
  <g id="axes_1">
   <g id="patch_2">
    <path d="M 54.02 314.728 
L 565.2 314.728 
L 565.2 26.88 
L 54.02 26.88 
z
" style="fill: #ffffff"/>
   </g>
   <g id="line2d_1">
    <path d="M -1 301.643536 
L 77.255455 301.644 
L 123.892668 237.828916 
L 151.173689 221.944101 
L 170.529881 209.704658 
L 185.54371 199.74573 
L 197.810902 191.304808 
L 208.182665 183.972932 
L 225.091923 171.647908 
L 238.593705 161.494039 
L 259.461945 145.438429 
L 282.100899 128.046389 
L 293.831966 119.293142 
L 303.818151 112.080816 
L 312.511939 106.039022 
L 322.00417 99.744936 
L 330.321322 94.512246 
L 337.722542 90.095552 
L 345.647371 85.629285 
L 353.848517 81.28973 
L 362.140013 77.189027 
L 370.389099 73.375812 
L 378.505345 69.864363 
L 387.106393 66.385945 
L 396.510035 62.836147 
L 406.294167 59.381654 
L 417.456239 55.698548 
L 428.860812 52.171248 
L 438.609578 49.371628 
L 444.307333 47.924634 
L 449.825447 46.804265 
L 456.861448 45.603753 
L 465.366991 44.38675 
L 474.403965 43.318512 
L 484.301343 42.366944 
L 494.854218 41.572116 
L 505.612445 40.966322 
L 518.225567 40.474243 
L 534.417502 40.085937 
L 541.964545 39.971286 
L 541.964545 39.971286 
" clip-path="url(#p9c0c23cb7a)" style="fill: none; stroke: #000000; stroke-width: 1.5; stroke-linecap: square"/>
    <defs>
     <path id="m64145e2436" d="M 0 3 
C 0.795609 3 1.55874 2.683901 2.12132 2.12132 
C 2.683901 1.55874 3 0.795609 3 0 
C 3 -0.795609 2.683901 -1.55874 2.12132 -2.12132 
C 1.55874 -2.683901 0.795609 -3 0 -3 
C -0.795609 -3 -1.55874 -2.683901 -2.12132 -2.12132 
C -2.683901 -1.55874 -3 -0.795609 -3 0 
C -3 0.795609 -2.683901 1.55874 -2.12132 2.12132 
C -1.55874 2.683901 -0.795609 3 0 3 
z
" style="stroke: #000000"/>
    </defs>
    <g clip-path="url(#p9c0c23cb7a)">
     <use xlink:href="#m64145e2436" x="-1" y="301.643536" style="stroke: #000000"/>
     <use xlink:href="#m64145e2436" x="77.255455" y="301.644" style="stroke: #000000"/>
     <use xlink:href="#m64145e2436" x="123.892668" y="237.828916" style="stroke: #000000"/>
     <use xlink:href="#m64145e2436" x="170.529881" y="209.704658" style="stroke: #000000"/>
     <use xlink:href="#m64145e2436" x="217.167095" y="177.481666" style="stroke: #000000"/>
     <use xlink:href="#m64145e2436" x="259.461945" y="145.438429" style="stroke: #000000"/>
     <use xlink:href="#m64145e2436" x="306.099158" y="110.472158" style="stroke: #000000"/>
     <use xlink:href="#m64145e2436" x="357.078735" y="79.658575" style="stroke: #000000"/>
     <use xlink:href="#m64145e2436" x="411.640777" y="57.588492" style="stroke: #000000"/>
     <use xlink:href="#m64145e2436" x="468.649753" y="43.974469" style="stroke: #000000"/>
     <use xlink:href="#m64145e2436" x="527.186031" y="40.231256" style="stroke: #000000"/>
    </g>
   </g>
   <g id="line2d_2">
    <path d="M -1 301.643536 
L 77.255455 301.644 
L 123.892668 237.828916 
L 151.173689 221.944101 
L 170.529881 208.074021 
L 185.54371 194.518455 
L 197.810902 182.708892 
L 238.593705 142.860727 
L 249.833651 132.23644 
L 259.461945 123.465964 
L 267.883331 116.11073 
L 275.366956 109.858439 
L 282.100899 104.494163 
L 288.221779 99.850431 
L 296.470865 93.947754 
L 303.818151 89.046463 
L 310.441521 84.916716 
L 316.470921 81.386265 
L 323.751885 77.396225 
L 330.321322 74.030883 
L 337.722542 70.498561 
L 345.647371 67.002274 
L 353.848517 63.648894 
L 362.140013 60.486616 
L 371.246222 57.265707 
L 382.223599 53.661414 
L 392.904711 50.355539 
L 398.242747 48.817031 
L 403.188233 47.662251 
L 407.794971 46.774974 
L 419.148989 45.015927 
L 427.766751 43.874488 
L 439.232575 42.654334 
L 452.423579 41.706261 
L 466.822945 40.89504 
L 471.39639 40.729341 
L 507.773886 40.187148 
L 515.08642 40.190053 
L 520.487403 40.159483 
L 526.341814 40.190447 
L 530.460803 40.250652 
L 541.829709 40.332616 
L 541.964545 40.335569 
L 541.964545 40.335569 
" clip-path="url(#p9c0c23cb7a)" style="fill: none; stroke: #4b0082; stroke-width: 1.5; stroke-linecap: square"/>
    <defs>
     <path id="me4db7d5369" d="M -3 3 
L 3 3 
L 3 -3 
L -3 -3 
z
" style="stroke: #4b0082; stroke-linejoin: miter"/>
    </defs>
    <g clip-path="url(#p9c0c23cb7a)">
     <use xlink:href="#me4db7d5369" x="-1" y="301.643536" style="fill: #4b0082; stroke: #4b0082; stroke-linejoin: miter"/>
     <use xlink:href="#me4db7d5369" x="77.255455" y="301.644" style="fill: #4b0082; stroke: #4b0082; stroke-linejoin: miter"/>
     <use xlink:href="#me4db7d5369" x="123.892668" y="237.828916" style="fill: #4b0082; stroke: #4b0082; stroke-linejoin: miter"/>
     <use xlink:href="#me4db7d5369" x="170.529881" y="208.074021" style="fill: #4b0082; stroke: #4b0082; stroke-linejoin: miter"/>
     <use xlink:href="#me4db7d5369" x="208.182665" y="172.566592" style="fill: #4b0082; stroke: #4b0082; stroke-linejoin: miter"/>
     <use xlink:href="#me4db7d5369" x="249.833651" y="132.23644" style="fill: #4b0082; stroke: #4b0082; stroke-linejoin: miter"/>
     <use xlink:href="#me4db7d5369" x="293.831966" y="95.791178" style="fill: #4b0082; stroke: #4b0082; stroke-linejoin: miter"/>
     <use xlink:href="#me4db7d5369" x="346.881961" y="66.482677" style="fill: #4b0082; stroke: #4b0082; stroke-linejoin: miter"/>
     <use xlink:href="#me4db7d5369" x="402.120222" y="47.890027" style="fill: #4b0082; stroke: #4b0082; stroke-linejoin: miter"/>
     <use xlink:href="#me4db7d5369" x="460.121483" y="41.314164" style="fill: #4b0082; stroke: #4b0082; stroke-linejoin: miter"/>
     <use xlink:href="#me4db7d5369" x="518.798194" y="40.152689" style="fill: #4b0082; stroke: #4b0082; stroke-linejoin: miter"/>
    </g>
   </g>
   <g id="line2d_3">
    <path d="M -1 301.643536 
L 77.255455 301.644 
L 123.892668 237.828916 
L 151.173689 220.596374 
L 170.529881 194.198107 
L 185.54371 179.411829 
L 197.810902 168.017574 
L 217.167095 150.660929 
L 232.180924 137.645365 
L 244.448116 127.404314 
L 254.819878 119.096872 
L 263.804308 112.199356 
L 271.729136 106.380562 
L 278.818137 101.40927 
L 285.230918 97.111115 
L 293.831966 91.647154 
L 301.457092 87.112806 
L 308.305365 83.282313 
L 316.470921 79.011824 
L 323.751885 75.460943 
L 331.868132 71.761691 
L 339.109875 68.671777 
L 348.094305 65.095495 
L 358.121907 61.378914 
L 366.847056 58.345218 
L 380.017392 54.073892 
L 394.128077 49.848151 
L 399.931955 48.329383 
L 405.274704 47.221468 
L 413.02811 45.868646 
L 422.411848 44.527737 
L 433.743606 43.207356 
L 447.398131 42.047851 
L 458.043961 41.339024 
L 464.520649 41.012596 
L 477.983707 40.524849 
L 485.714579 40.343692 
L 488.455001 40.272607 
L 492.507692 40.197289 
L 536.494769 40.012292 
L 538.296785 40.023615 
L 541.964545 40.050591 
L 541.964545 40.050591 
" clip-path="url(#p9c0c23cb7a)" style="fill: none; stroke: #1f77b4; stroke-width: 1.5; stroke-linecap: square"/>
    <defs>
     <path id="mf12f6ad8e2" d="M -0 3 
L 3 -3 
L -3 -3 
z
" style="stroke: #1f77b4; stroke-linejoin: miter"/>
    </defs>
    <g clip-path="url(#p9c0c23cb7a)">
     <use xlink:href="#mf12f6ad8e2" x="-1" y="301.643536" style="fill: #1f77b4; stroke: #1f77b4; stroke-linejoin: miter"/>
     <use xlink:href="#mf12f6ad8e2" x="77.255455" y="301.644" style="fill: #1f77b4; stroke: #1f77b4; stroke-linejoin: miter"/>
     <use xlink:href="#mf12f6ad8e2" x="123.892668" y="237.828916" style="fill: #1f77b4; stroke: #1f77b4; stroke-linejoin: miter"/>
     <use xlink:href="#mf12f6ad8e2" x="151.173689" y="220.596374" style="fill: #1f77b4; stroke: #1f77b4; stroke-linejoin: miter"/>
     <use xlink:href="#mf12f6ad8e2" x="197.810902" y="168.017574" style="fill: #1f77b4; stroke: #1f77b4; stroke-linejoin: miter"/>
     <use xlink:href="#mf12f6ad8e2" x="244.448116" y="127.404314" style="fill: #1f77b4; stroke: #1f77b4; stroke-linejoin: miter"/>
     <use xlink:href="#mf12f6ad8e2" x="291.085329" y="93.353971" style="fill: #1f77b4; stroke: #1f77b4; stroke-linejoin: miter"/>
     <use xlink:href="#mf12f6ad8e2" x="344.389703" y="66.53924" style="fill: #1f77b4; stroke: #1f77b4; stroke-linejoin: miter"/>
     <use xlink:href="#mf12f6ad8e2" x="400.48573" y="48.203557" style="fill: #1f77b4; stroke: #1f77b4; stroke-linejoin: miter"/>
     <use xlink:href="#mf12f6ad8e2" x="458.511208" y="41.312835" style="fill: #1f77b4; stroke: #1f77b4; stroke-linejoin: miter"/>
     <use xlink:href="#mf12f6ad8e2" x="517.162924" y="40.006926" style="fill: #1f77b4; stroke: #1f77b4; stroke-linejoin: miter"/>
    </g>
   </g>
   <g id="line2d_4">
    <path d="M -1 301.643536 
L 77.255455 301.644 
L 123.892668 237.828916 
L 151.173689 221.944101 
L 170.529881 206.611224 
L 185.54371 172.31819 
L 197.810902 160.190445 
L 208.182665 148.586431 
L 217.167095 135.722734 
L 225.091923 126.519154 
L 232.180924 118.058565 
L 238.593705 110.85441 
L 244.448116 104.613884 
L 249.833651 98.686397 
L 254.819878 93.593463 
L 259.461945 89.043067 
L 263.804308 85.269727 
L 267.883331 81.915067 
L 271.729136 78.547608 
L 278.818137 72.715819 
L 285.230918 67.988203 
L 291.085329 64.214026 
L 296.470865 61.051354 
L 306.099158 56.207167 
L 308.305365 55.228967 
L 320.209843 50.885178 
L 323.751885 49.864396 
L 336.306 46.848422 
L 337.722542 46.597411 
L 340.46918 46.330154 
L 343.108078 45.87795 
L 344.389703 45.658445 
L 345.647371 45.584997 
L 348.094305 45.232528 
L 354.942578 44.400829 
L 366.847056 42.800441 
L 370.389099 42.570943 
L 393.519174 42.324805 
L 445.729865 41.618685 
L 541.964545 40.133589 
L 541.964545 40.133589 
" clip-path="url(#p9c0c23cb7a)" style="fill: none; stroke: #ff7f0e; stroke-width: 1.5; stroke-linecap: square"/>
    <defs>
     <path id="mfe0a31ee5e" d="M -0 3 
L 3 -3 
L -3 -3 
z
" style="stroke: #ff7f0e; stroke-linejoin: miter"/>
    </defs>
    <g clip-path="url(#p9c0c23cb7a)">
     <use xlink:href="#mfe0a31ee5e" x="-1" y="301.643536" style="fill: #ff7f0e; stroke: #ff7f0e; stroke-linejoin: miter"/>
     <use xlink:href="#mfe0a31ee5e" x="77.255455" y="301.644" style="fill: #ff7f0e; stroke: #ff7f0e; stroke-linejoin: miter"/>
     <use xlink:href="#mfe0a31ee5e" x="123.892668" y="237.828916" style="fill: #ff7f0e; stroke: #ff7f0e; stroke-linejoin: miter"/>
     <use xlink:href="#mfe0a31ee5e" x="170.529881" y="206.611224" style="fill: #ff7f0e; stroke: #ff7f0e; stroke-linejoin: miter"/>
     <use xlink:href="#mfe0a31ee5e" x="197.810902" y="160.190445" style="fill: #ff7f0e; stroke: #ff7f0e; stroke-linejoin: miter"/>
     <use xlink:href="#mfe0a31ee5e" x="232.180924" y="118.058565" style="fill: #ff7f0e; stroke: #ff7f0e; stroke-linejoin: miter"/>
     <use xlink:href="#mfe0a31ee5e" x="275.366956" y="75.533997" style="fill: #ff7f0e; stroke: #ff7f0e; stroke-linejoin: miter"/>
     <use xlink:href="#mfe0a31ee5e" x="325.455351" y="49.447439" style="fill: #ff7f0e; stroke: #ff7f0e; stroke-linejoin: miter"/>
     <use xlink:href="#mfe0a31ee5e" x="382.943213" y="42.439161" style="fill: #ff7f0e; stroke: #ff7f0e; stroke-linejoin: miter"/>
     <use xlink:href="#mfe0a31ee5e" x="441.668435" y="41.682484" style="fill: #ff7f0e; stroke: #ff7f0e; stroke-linejoin: miter"/>
     <use xlink:href="#mfe0a31ee5e" x="500.32318" y="40.706302" style="fill: #ff7f0e; stroke: #ff7f0e; stroke-linejoin: miter"/>
    </g>
   </g>
   <g id="line2d_5">
    <path d="M -1 301.643536 
L 77.255455 301.644 
L 123.892668 237.828916 
L 151.173689 221.944101 
L 170.529881 206.611224 
L 185.54371 172.31819 
L 197.810902 159.889024 
L 208.182665 148.459522 
L 217.167095 136.02888 
L 225.091923 126.676879 
L 232.180924 117.941945 
L 238.593705 110.585086 
L 244.448116 104.481955 
L 249.833651 98.659961 
L 259.461945 89.21876 
L 275.366956 75.809917 
L 278.818137 72.95984 
L 285.230918 68.346875 
L 293.831966 63.062102 
L 296.470865 61.553918 
L 306.099158 56.826696 
L 308.305365 55.786912 
L 323.751885 50.382467 
L 330.321322 48.691402 
L 333.380179 47.953285 
L 334.858992 47.532537 
L 339.109875 46.841185 
L 341.801565 46.486846 
L 345.647371 45.823505 
L 351.605533 45.124966 
L 369.520915 42.446791 
L 374.569529 41.90962 
L 378.505345 41.730875 
L 408.777226 41.537312 
L 464.093452 41.039769 
L 541.964545 40.170805 
L 541.964545 40.170805 
" clip-path="url(#p9c0c23cb7a)" style="fill: none; stroke: #2ca02c; stroke-width: 1.5; stroke-linecap: square"/>
    <defs>
     <path id="m34827362ec" d="M -0 3 
L 3 -3 
L -3 -3 
z
" style="stroke: #2ca02c; stroke-linejoin: miter"/>
    </defs>
    <g clip-path="url(#p9c0c23cb7a)">
     <use xlink:href="#m34827362ec" x="-1" y="301.643536" style="fill: #2ca02c; stroke: #2ca02c; stroke-linejoin: miter"/>
     <use xlink:href="#m34827362ec" x="77.255455" y="301.644" style="fill: #2ca02c; stroke: #2ca02c; stroke-linejoin: miter"/>
     <use xlink:href="#m34827362ec" x="123.892668" y="237.828916" style="fill: #2ca02c; stroke: #2ca02c; stroke-linejoin: miter"/>
     <use xlink:href="#m34827362ec" x="170.529881" y="206.611224" style="fill: #2ca02c; stroke: #2ca02c; stroke-linejoin: miter"/>
     <use xlink:href="#m34827362ec" x="197.810902" y="159.889024" style="fill: #2ca02c; stroke: #2ca02c; stroke-linejoin: miter"/>
     <use xlink:href="#m34827362ec" x="232.180924" y="117.941945" style="fill: #2ca02c; stroke: #2ca02c; stroke-linejoin: miter"/>
     <use xlink:href="#m34827362ec" x="275.366956" y="75.809917" style="fill: #2ca02c; stroke: #2ca02c; stroke-linejoin: miter"/>
     <use xlink:href="#m34827362ec" x="325.455351" y="49.924651" style="fill: #2ca02c; stroke: #2ca02c; stroke-linejoin: miter"/>
     <use xlink:href="#m34827362ec" x="382.943213" y="41.70247" style="fill: #2ca02c; stroke: #2ca02c; stroke-linejoin: miter"/>
     <use xlink:href="#m34827362ec" x="441.966809" y="41.264345" style="fill: #2ca02c; stroke: #2ca02c; stroke-linejoin: miter"/>
     <use xlink:href="#m34827362ec" x="500.448126" y="40.623304" style="fill: #2ca02c; stroke: #2ca02c; stroke-linejoin: miter"/>
    </g>
   </g>
   <g id="line2d_6">
    <path d="M -1 301.643536 
L 77.255455 301.644 
L 123.892668 237.828916 
L 151.173689 221.944101 
L 170.529881 206.611224 
L 185.54371 172.31819 
L 197.810902 159.889024 
L 208.182665 147.588737 
L 225.091923 126.296547 
L 232.180924 117.827934 
L 238.593705 110.471666 
L 249.833651 98.59636 
L 254.819878 93.573723 
L 259.461945 89.193309 
L 263.804308 85.325157 
L 267.883331 82.078306 
L 271.729136 78.709271 
L 282.100899 70.615132 
L 288.221779 66.502565 
L 299.010157 60.411593 
L 308.305365 55.950298 
L 310.441521 55.207553 
L 314.520544 53.671063 
L 316.470921 52.915568 
L 325.455351 50.083065 
L 337.722542 47.103814 
L 341.801565 46.62355 
L 345.647371 45.904287 
L 346.881961 45.823603 
L 348.094305 45.555854 
L 349.285191 45.509925 
L 350.455364 45.256748 
L 351.605533 45.259308 
L 358.121907 44.230895 
L 372.092564 42.160976 
L 377.736385 41.603031 
L 382.943213 41.308453 
L 389.095206 41.251251 
L 451.137053 40.929254 
L 522.765321 40.342215 
L 541.964545 40.179961 
L 541.964545 40.179961 
" clip-path="url(#p9c0c23cb7a)" style="fill: none; stroke: #d62728; stroke-width: 1.5; stroke-linecap: square"/>
    <defs>
     <path id="m23ad7738bf" d="M -0 3 
L 3 -3 
L -3 -3 
z
" style="stroke: #d62728; stroke-linejoin: miter"/>
    </defs>
    <g clip-path="url(#p9c0c23cb7a)">
     <use xlink:href="#m23ad7738bf" x="-1" y="301.643536" style="fill: #d62728; stroke: #d62728; stroke-linejoin: miter"/>
     <use xlink:href="#m23ad7738bf" x="77.255455" y="301.644" style="fill: #d62728; stroke: #d62728; stroke-linejoin: miter"/>
     <use xlink:href="#m23ad7738bf" x="123.892668" y="237.828916" style="fill: #d62728; stroke: #d62728; stroke-linejoin: miter"/>
     <use xlink:href="#m23ad7738bf" x="170.529881" y="206.611224" style="fill: #d62728; stroke: #d62728; stroke-linejoin: miter"/>
     <use xlink:href="#m23ad7738bf" x="197.810902" y="159.889024" style="fill: #d62728; stroke: #d62728; stroke-linejoin: miter"/>
     <use xlink:href="#m23ad7738bf" x="232.180924" y="117.827934" style="fill: #d62728; stroke: #d62728; stroke-linejoin: miter"/>
     <use xlink:href="#m23ad7738bf" x="275.366956" y="75.828476" style="fill: #d62728; stroke: #d62728; stroke-linejoin: miter"/>
     <use xlink:href="#m23ad7738bf" x="325.455351" y="50.083065" style="fill: #d62728; stroke: #d62728; stroke-linejoin: miter"/>
     <use xlink:href="#m23ad7738bf" x="382.943213" y="41.308453" style="fill: #d62728; stroke: #d62728; stroke-linejoin: miter"/>
     <use xlink:href="#m23ad7738bf" x="441.966809" y="40.989311" style="fill: #d62728; stroke: #d62728; stroke-linejoin: miter"/>
     <use xlink:href="#m23ad7738bf" x="500.57284" y="40.536959" style="fill: #d62728; stroke: #d62728; stroke-linejoin: miter"/>
    </g>
   </g>
   <g id="line2d_7">
    <path d="M -1 301.643536 
L 77.255455 301.644 
L 123.892668 283.29414 
L 151.173689 276.122476 
L 170.529881 267.738115 
L 185.54371 259.594699 
L 197.810902 252.080091 
L 208.182665 245.282408 
L 217.167095 239.15358 
L 232.180924 228.503079 
L 238.593705 223.779672 
L 244.448116 202.671298 
L 249.833651 196.895751 
L 254.819878 194.163008 
L 259.461945 190.321832 
L 263.804308 178.884996 
L 267.883331 176.588334 
L 275.366956 172.675976 
L 278.818137 157.613629 
L 282.100899 158.849683 
L 285.230918 151.754075 
L 288.221779 151.864985 
L 291.085329 147.088979 
L 293.831966 145.23438 
L 296.470865 136.436927 
L 299.010157 137.468096 
L 301.457092 147.15775 
L 303.818151 147.782595 
L 306.099158 143.203548 
L 308.305365 143.88018 
L 310.441521 142.764684 
L 312.511939 141.94603 
L 314.520544 139.928243 
L 316.470921 136.39981 
L 318.36635 134.503023 
L 320.209843 134.040285 
L 322.00417 134.261907 
L 325.455351 133.359615 
L 327.11675 131.4137 
L 328.738113 128.31271 
L 330.321322 128.938047 
L 331.868132 128.612309 
L 333.380179 128.431447 
L 334.858992 126.550856 
L 336.306 127.234331 
L 337.722542 126.856264 
L 339.109875 126.023383 
L 340.46918 123.456856 
L 341.801565 126.382695 
L 343.108078 126.266567 
L 344.389703 126.008369 
L 345.647371 118.594357 
L 346.881961 126.210989 
L 348.094305 102.977266 
L 349.285191 122.910628 
L 350.455364 100.259512 
L 351.605533 100.870179 
L 352.736371 107.183463 
L 353.848517 110.883159 
L 354.942578 64.09204 
L 356.019134 104.39748 
L 357.078735 108.985782 
L 358.121907 97.60792 
L 359.149153 114.372062 
L 360.16095 108.740432 
L 361.157758 106.64265 
L 362.140013 112.688087 
L 363.108134 112.213336 
L 364.062523 88.493835 
L 365.003563 110.250831 
L 365.931623 110.487173 
L 366.847056 108.822248 
L 367.750201 109.275043 
L 368.641383 97.814626 
L 369.520915 100.158595 
L 370.389099 100.611292 
L 371.246222 99.933429 
L 372.092564 100.090661 
L 373.753964 100.747061 
L 374.569529 99.249461 
L 375.375326 99.897739 
L 376.171587 99.58539 
L 376.958535 95.587326 
L 377.736385 99.638457 
L 378.505345 97.143901 
L 379.265616 99.464536 
L 380.017392 98.484958 
L 380.760862 99.01563 
L 381.496205 87.739029 
L 382.223599 98.019462 
L 382.943213 98.002282 
L 383.655212 97.619488 
L 384.359756 95.459335 
L 385.056998 98.210071 
L 385.747089 91.968216 
L 386.430174 98.045257 
L 387.106393 94.716491 
L 387.775884 97.867004 
L 388.438779 97.828508 
L 389.095206 97.348392 
L 389.745291 91.075179 
L 390.389155 97.329095 
L 391.026916 97.401853 
L 391.658689 89.680514 
L 392.284584 96.476769 
L 392.904711 96.226694 
L 393.519174 94.740613 
L 394.128077 97.64484 
L 395.329596 96.987062 
L 395.922404 96.849323 
L 396.510035 96.507143 
L 397.092577 96.654973 
L 397.67012 92.63072 
L 398.242747 94.811402 
L 398.810542 80.043239 
L 399.373585 98.685954 
L 399.931955 66.622287 
L 400.48573 99.335363 
L 401.034985 97.744329 
L 401.579792 98.619595 
L 402.120222 103.513649 
L 402.656347 76.7542 
L 403.188233 60.938229 
L 403.715948 57.236712 
L 404.239556 60.805561 
L 404.75912 60.827467 
L 405.274704 61.675658 
L 405.786366 57.926784 
L 406.294167 57.018142 
L 406.798164 56.888526 
L 407.298413 56.910186 
L 407.794971 59.040064 
L 408.287891 60.350058 
L 408.777226 57.164988 
L 409.263028 51.725148 
L 410.224234 57.89006 
L 410.699736 58.079586 
L 411.171902 58.635611 
L 411.640777 57.640033 
L 412.106407 60.187066 
L 412.568836 59.59161 
L 413.02811 53.757113 
L 413.484269 58.703988 
L 413.937357 59.238254 
L 414.387414 58.50442 
L 414.834481 52.532233 
L 415.278596 59.095445 
L 415.7198 58.904049 
L 416.158129 58.533858 
L 416.593621 59.355318 
L 417.026312 60.419568 
L 417.456239 60.859662 
L 417.883436 64.492753 
L 418.307937 66.235949 
L 418.729777 50.348254 
L 419.148989 64.300765 
L 419.565605 63.810951 
L 419.979657 64.683017 
L 420.391177 64.959479 
L 421.610847 67.734091 
L 422.012539 66.866603 
L 422.411848 67.727396 
L 422.8088 68.97108 
L 423.203425 69.42161 
L 423.595748 70.229287 
L 423.985797 69.987678 
L 424.373598 70.103904 
L 424.759177 70.413152 
L 425.142558 67.863559 
L 425.523768 69.872338 
L 425.902829 70.457062 
L 426.279768 70.211811 
L 426.654606 68.907675 
L 427.027367 70.736527 
L 427.398075 69.114726 
L 427.766751 70.231403 
L 428.133419 70.044831 
L 428.498099 71.092492 
L 428.860812 70.363826 
L 429.221582 71.110213 
L 429.580427 69.617044 
L 429.937368 70.071217 
L 430.292426 68.157103 
L 430.645619 68.973 
L 430.996969 66.009453 
L 431.346493 68.133818 
L 431.694211 67.935087 
L 432.040141 69.167203 
L 432.384302 68.437552 
L 432.726711 69.588886 
L 433.067387 68.862681 
L 433.406346 68.485795 
L 433.743606 66.357295 
L 434.079185 68.876465 
L 434.413097 69.325321 
L 434.745361 69.221501 
L 435.075992 69.64663 
L 435.405006 70.596327 
L 435.73242 68.699344 
L 436.058247 67.923715 
L 436.382505 69.194721 
L 436.705207 69.220171 
L 437.026369 69.116695 
L 437.346005 69.909258 
L 437.66413 68.4026 
L 437.980757 69.497224 
L 438.295902 65.733877 
L 438.609578 68.736708 
L 438.921797 68.51986 
L 439.232575 58.544491 
L 439.541924 68.415695 
L 439.849857 68.017444 
L 440.156388 60.268636 
L 440.461528 68.140316 
L 440.76529 68.118213 
L 441.067687 65.045775 
L 441.368732 68.262204 
L 441.668435 67.451032 
L 441.966809 50.736216 
L 442.263866 68.238771 
L 442.854074 67.828903 
L 443.147248 65.598649 
L 443.43915 68.125942 
L 443.729791 68.144648 
L 444.019182 68.578294 
L 444.307333 67.50026 
L 444.87996 69.192407 
L 445.164456 68.079274 
L 445.447755 68.885572 
L 445.729865 71.164659 
L 446.010798 66.265436 
L 446.290563 68.438586 
L 446.569169 68.964927 
L 446.846626 68.818869 
L 447.398131 67.943947 
L 447.945153 68.358 
L 448.217005 68.291691 
L 448.487763 68.992051 
L 448.757436 68.656122 
L 449.026032 67.356909 
L 449.29356 64.221706 
L 449.560029 64.503336 
L 449.825447 65.779905 
L 450.089821 65.857241 
L 450.876769 68.355244 
L 451.137053 70.225152 
L 451.396334 69.842752 
L 451.654619 70.364072 
L 451.911917 71.203943 
L 452.168235 75.958732 
L 452.423579 76.168934 
L 452.677959 78.573207 
L 452.93138 79.399146 
L 453.18385 79.595269 
L 454.184364 84.555435 
L 454.432185 79.471264 
L 454.679096 81.409402 
L 454.925104 81.567422 
L 455.170217 81.857225 
L 455.657779 83.489856 
L 455.900242 83.606624 
L 456.141833 83.24618 
L 456.382561 83.690606 
L 456.62243 84.755791 
L 456.861448 84.134835 
L 457.099619 84.720101 
L 457.33695 84.4653 
L 457.573446 85.013941 
L 457.809115 84.256181 
L 458.043961 84.758105 
L 458.511208 85.016254 
L 458.74362 84.733344 
L 459.20605 85.481996 
L 459.436078 77.462633 
L 459.665323 84.945563 
L 459.893789 85.277062 
L 460.121483 85.998442 
L 460.348408 84.689876 
L 460.57457 86.453354 
L 461.024627 88.181043 
L 461.694118 91.567898 
L 462.357013 91.987317 
L 462.576535 91.475596 
L 462.795342 92.201702 
L 463.447528 92.424408 
L 463.663525 91.646416 
L 463.878832 92.338555 
L 464.093452 92.337521 
L 464.30739 92.574995 
L 464.520649 92.509178 
L 464.733234 92.70082 
L 464.94515 92.580115 
L 465.156401 92.828221 
L 465.366991 92.689941 
L 465.576923 92.87607 
L 465.786202 93.215347 
L 465.994833 92.242512 
L 466.202818 92.678176 
L 466.410163 92.462658 
L 466.616871 92.935587 
L 467.23321 93.005096 
L 467.437409 87.246114 
L 467.640989 92.917323 
L 467.843955 93.033992 
L 468.046311 92.979744 
L 468.449206 93.281508 
L 468.649753 93.155486 
L 469.049061 93.616945 
L 469.840638 94.396561 
L 470.037086 94.831733 
L 470.232962 94.968881 
L 470.428269 94.852261 
L 470.623011 95.045085 
L 471.203877 95.023179 
L 472.160981 95.440136 
L 472.540043 95.692673 
L 472.916981 96.278333 
L 473.291819 96.155707 
L 473.478458 96.648918 
L 473.664581 96.615197 
L 473.85019 96.882503 
L 474.035288 96.254901 
L 474.219879 96.807086 
L 474.953219 97.065137 
L 475.498026 97.185498 
L 475.678652 97.240239 
L 475.858795 96.874971 
L 476.038457 97.186631 
L 476.752344 97.23 
L 476.929639 97.093984 
L 477.106468 97.257469 
L 477.282833 97.091129 
L 477.634182 97.464865 
L 477.809171 97.246393 
L 477.983707 97.46516 
L 478.331425 97.512911 
L 478.504612 90.153148 
L 478.677355 92.428198 
L 479.021515 92.813158 
L 479.192938 93.089078 
L 479.534478 94.230812 
L 479.7046 93.468868 
L 479.874293 93.938795 
L 480.04356 94.079241 
L 480.212401 94.756464 
L 480.38082 94.692517 
L 480.548818 94.402518 
L 480.883561 94.690007 
L 481.050311 94.934225 
L 481.216648 94.57698 
L 481.382574 94.86762 
L 481.548093 94.886375 
L 481.877914 95.29329 
L 482.04222 95.965246 
L 482.206125 94.973853 
L 482.369633 95.059312 
L 482.532744 95.290189 
L 482.695461 95.292995 
L 483.019718 96.856018 
L 483.34242 96.633805 
L 484.142468 96.974361 
L 484.301343 97.124702 
L 484.459843 96.954178 
L 484.617971 95.649944 
L 484.775727 97.109343 
L 484.933115 97.01335 
L 485.559011 97.76402 
L 485.714579 97.567258 
L 486.024641 97.783711 
L 488.155964 98.580557 
L 489.049118 98.754281 
L 489.638034 99.040933 
L 489.784461 98.966797 
L 490.367004 99.178426 
L 490.511855 98.431595 
L 490.800625 98.931451 
L 491.231469 99.095674 
L 491.80167 99.338465 
L 492.367079 99.565108 
L 492.648012 99.57835 
L 492.788039 99.655884 
L 492.927776 99.548863 
L 493.067223 99.693395 
L 493.206382 99.644906 
L 493.345254 98.923476 
L 493.483839 99.634125 
L 493.897892 99.817055 
L 495.259948 100.104297 
L 495.663245 100.210284 
L 495.797142 99.829608 
L 496.06414 100.160023 
L 496.330082 100.223871 
L 496.46266 100.122561 
L 496.727035 100.217816 
L 496.990375 100.057088 
L 497.252688 100.343888 
L 497.383462 100.273689 
L 498.033547 100.452631 
L 501.069398 100.861663 
L 501.192967 100.281566 
L 501.316309 100.877071 
L 503.019774 101.144721 
L 503.139816 101.181642 
L 503.259644 99.75808 
L 503.379258 101.135516 
L 503.855602 101.194835 
L 505.612445 101.364572 
L 505.727953 100.919505 
L 505.843263 101.322581 
L 506.531003 101.386626 
L 507.098797 101.461747 
L 507.885745 101.532881 
L 508.773986 101.661758 
L 509.541693 101.746479 
L 509.976481 101.772028 
L 510.084741 100.94023 
L 510.300739 101.808358 
L 511.051317 101.891995 
L 511.476489 101.9204 
L 512.214136 101.980605 
L 513.56296 101.950773 
L 513.665604 101.867628 
L 513.870424 102.054692 
L 515.486916 102.226447 
L 515.586669 102.024713 
L 515.785732 102.270851 
L 516.870175 102.340557 
L 516.967899 100.293823 
L 517.065482 102.337505 
L 517.162924 102.282222 
L 517.551284 102.329136 
L 518.033604 102.364678 
L 518.129654 101.927636 
L 518.321344 102.355965 
L 520.76486 102.518465 
L 521.041178 102.533233 
L 521.133032 102.236785 
L 521.316366 102.385846 
L 524.18373 102.671415 
L 524.968638 102.730291 
L 525.055287 102.48371 
L 525.228252 102.728568 
L 527.269874 102.863206 
L 527.353611 102.513788 
L 527.520775 102.85971 
L 537.149068 103.244965 
L 538.296785 103.27652 
L 540.190239 103.325501 
L 540.259353 103.130117 
L 540.39737 103.314622 
L 540.672558 103.319446 
L 540.741179 102.718526 
L 540.878213 103.316345 
L 541.964545 103.351395 
L 541.964545 103.351395 
" clip-path="url(#p9c0c23cb7a)" style="fill: none; stroke: #ff0000; stroke-width: 1.5; stroke-linecap: square"/>
   </g>
   <g id="matplotlib.axis_1">
    <g id="xtick_1">
     <g id="line2d_8">
      <path d="M 77.255455 314.728 
L 77.255455 26.88 
" clip-path="url(#p9c0c23cb7a)" style="fill: none; stroke: #b0b0b0; stroke-opacity: 0.3; stroke-width: 0.8; stroke-linecap: square"/>
     </g>
     <g id="line2d_9">
      <defs>
       <path id="m4cffd075f8" d="M 0 0 
L 0 3.5 
" style="stroke: #000000; stroke-width: 0.8"/>
      </defs>
      <g>
       <use xlink:href="#m4cffd075f8" x="77.255455" y="314.728" style="stroke: #000000; stroke-width: 0.8"/>
      </g>
     </g>
     <g id="text_1">
      <!-- $\mathdefault{10^{0}}$ -->
      <g transform="translate(68.455455 329.326437) scale(0.1 -0.1)">
       <defs>
        <path id="DejaVuSans-31" d="M 794 531 
L 1825 531 
L 1825 4091 
L 703 3866 
L 703 4441 
L 1819 4666 
L 2450 4666 
L 2450 531 
L 3481 531 
L 3481 0 
L 794 0 
L 794 531 
z
" transform="scale(0.015625)"/>
        <path id="DejaVuSans-30" d="M 2034 4250 
Q 1547 4250 1301 3770 
Q 1056 3291 1056 2328 
Q 1056 1369 1301 889 
Q 1547 409 2034 409 
Q 2525 409 2770 889 
Q 3016 1369 3016 2328 
Q 3016 3291 2770 3770 
Q 2525 4250 2034 4250 
z
M 2034 4750 
Q 2819 4750 3233 4129 
Q 3647 3509 3647 2328 
Q 3647 1150 3233 529 
Q 2819 -91 2034 -91 
Q 1250 -91 836 529 
Q 422 1150 422 2328 
Q 422 3509 836 4129 
Q 1250 4750 2034 4750 
z
" transform="scale(0.015625)"/>
       </defs>
       <use xlink:href="#DejaVuSans-31" transform="translate(0 0.765625)"/>
       <use xlink:href="#DejaVuSans-30" transform="translate(63.623047 0.765625)"/>
       <use xlink:href="#DejaVuSans-30" transform="translate(128.203125 39.046875) scale(0.7)"/>
      </g>
     </g>
    </g>
    <g id="xtick_2">
     <g id="line2d_10">
      <path d="M 232.180924 314.728 
L 232.180924 26.88 
" clip-path="url(#p9c0c23cb7a)" style="fill: none; stroke: #b0b0b0; stroke-opacity: 0.3; stroke-width: 0.8; stroke-linecap: square"/>
     </g>
     <g id="line2d_11">
      <g>
       <use xlink:href="#m4cffd075f8" x="232.180924" y="314.728" style="stroke: #000000; stroke-width: 0.8"/>
      </g>
     </g>
     <g id="text_2">
      <!-- $\mathdefault{10^{1}}$ -->
      <g transform="translate(223.380924 329.326437) scale(0.1 -0.1)">
       <use xlink:href="#DejaVuSans-31" transform="translate(0 0.684375)"/>
       <use xlink:href="#DejaVuSans-30" transform="translate(63.623047 0.684375)"/>
       <use xlink:href="#DejaVuSans-31" transform="translate(128.203125 38.965625) scale(0.7)"/>
      </g>
     </g>
    </g>
    <g id="xtick_3">
     <g id="line2d_12">
      <path d="M 387.106393 314.728 
L 387.106393 26.88 
" clip-path="url(#p9c0c23cb7a)" style="fill: none; stroke: #b0b0b0; stroke-opacity: 0.3; stroke-width: 0.8; stroke-linecap: square"/>
     </g>
     <g id="line2d_13">
      <g>
       <use xlink:href="#m4cffd075f8" x="387.106393" y="314.728" style="stroke: #000000; stroke-width: 0.8"/>
      </g>
     </g>
     <g id="text_3">
      <!-- $\mathdefault{10^{2}}$ -->
      <g transform="translate(378.306393 329.326437) scale(0.1 -0.1)">
       <defs>
        <path id="DejaVuSans-32" d="M 1228 531 
L 3431 531 
L 3431 0 
L 469 0 
L 469 531 
Q 828 903 1448 1529 
Q 2069 2156 2228 2338 
Q 2531 2678 2651 2914 
Q 2772 3150 2772 3378 
Q 2772 3750 2511 3984 
Q 2250 4219 1831 4219 
Q 1534 4219 1204 4116 
Q 875 4013 500 3803 
L 500 4441 
Q 881 4594 1212 4672 
Q 1544 4750 1819 4750 
Q 2544 4750 2975 4387 
Q 3406 4025 3406 3419 
Q 3406 3131 3298 2873 
Q 3191 2616 2906 2266 
Q 2828 2175 2409 1742 
Q 1991 1309 1228 531 
z
" transform="scale(0.015625)"/>
       </defs>
       <use xlink:href="#DejaVuSans-31" transform="translate(0 0.765625)"/>
       <use xlink:href="#DejaVuSans-30" transform="translate(63.623047 0.765625)"/>
       <use xlink:href="#DejaVuSans-32" transform="translate(128.203125 39.046875) scale(0.7)"/>
      </g>
     </g>
    </g>
    <g id="xtick_4">
     <g id="line2d_14">
      <path d="M 542.031862 314.728 
L 542.031862 26.88 
" clip-path="url(#p9c0c23cb7a)" style="fill: none; stroke: #b0b0b0; stroke-opacity: 0.3; stroke-width: 0.8; stroke-linecap: square"/>
     </g>
     <g id="line2d_15">
      <g>
       <use xlink:href="#m4cffd075f8" x="542.031862" y="314.728" style="stroke: #000000; stroke-width: 0.8"/>
      </g>
     </g>
     <g id="text_4">
      <!-- $\mathdefault{10^{3}}$ -->
      <g transform="translate(533.231862 329.326437) scale(0.1 -0.1)">
       <defs>
        <path id="DejaVuSans-33" d="M 2597 2516 
Q 3050 2419 3304 2112 
Q 3559 1806 3559 1356 
Q 3559 666 3084 287 
Q 2609 -91 1734 -91 
Q 1441 -91 1130 -33 
Q 819 25 488 141 
L 488 750 
Q 750 597 1062 519 
Q 1375 441 1716 441 
Q 2309 441 2620 675 
Q 2931 909 2931 1356 
Q 2931 1769 2642 2001 
Q 2353 2234 1838 2234 
L 1294 2234 
L 1294 2753 
L 1863 2753 
Q 2328 2753 2575 2939 
Q 2822 3125 2822 3475 
Q 2822 3834 2567 4026 
Q 2313 4219 1838 4219 
Q 1578 4219 1281 4162 
Q 984 4106 628 3988 
L 628 4550 
Q 988 4650 1302 4700 
Q 1616 4750 1894 4750 
Q 2613 4750 3031 4423 
Q 3450 4097 3450 3541 
Q 3450 3153 3228 2886 
Q 3006 2619 2597 2516 
z
" transform="scale(0.015625)"/>
       </defs>
       <use xlink:href="#DejaVuSans-31" transform="translate(0 0.765625)"/>
       <use xlink:href="#DejaVuSans-30" transform="translate(63.623047 0.765625)"/>
       <use xlink:href="#DejaVuSans-33" transform="translate(128.203125 39.046875) scale(0.7)"/>
      </g>
     </g>
    </g>
    <g id="xtick_5">
     <g id="line2d_16">
      <path d="M 62.241625 314.728 
L 62.241625 26.88 
" clip-path="url(#p9c0c23cb7a)" style="fill: none; stroke: #b0b0b0; stroke-opacity: 0.3; stroke-width: 0.8; stroke-linecap: square"/>
     </g>
     <g id="line2d_17">
      <defs>
       <path id="m67c99e7a31" d="M 0 0 
L 0 2 
" style="stroke: #000000; stroke-width: 0.6"/>
      </defs>
      <g>
       <use xlink:href="#m67c99e7a31" x="62.241625" y="314.728" style="stroke: #000000; stroke-width: 0.6"/>
      </g>
     </g>
    </g>
    <g id="xtick_6">
     <g id="line2d_18">
      <path d="M 70.166454 314.728 
L 70.166454 26.88 
" clip-path="url(#p9c0c23cb7a)" style="fill: none; stroke: #b0b0b0; stroke-opacity: 0.3; stroke-width: 0.8; stroke-linecap: square"/>
     </g>
     <g id="line2d_19">
      <g>
       <use xlink:href="#m67c99e7a31" x="70.166454" y="314.728" style="stroke: #000000; stroke-width: 0.6"/>
      </g>
     </g>
    </g>
    <g id="xtick_7">
     <g id="line2d_20">
      <path d="M 123.892668 314.728 
L 123.892668 26.88 
" clip-path="url(#p9c0c23cb7a)" style="fill: none; stroke: #b0b0b0; stroke-opacity: 0.3; stroke-width: 0.8; stroke-linecap: square"/>
     </g>
     <g id="line2d_21">
      <g>
       <use xlink:href="#m67c99e7a31" x="123.892668" y="314.728" style="stroke: #000000; stroke-width: 0.6"/>
      </g>
     </g>
    </g>
    <g id="xtick_8">
     <g id="line2d_22">
      <path d="M 151.173689 314.728 
L 151.173689 26.88 
" clip-path="url(#p9c0c23cb7a)" style="fill: none; stroke: #b0b0b0; stroke-opacity: 0.3; stroke-width: 0.8; stroke-linecap: square"/>
     </g>
     <g id="line2d_23">
      <g>
       <use xlink:href="#m67c99e7a31" x="151.173689" y="314.728" style="stroke: #000000; stroke-width: 0.6"/>
      </g>
     </g>
    </g>
    <g id="xtick_9">
     <g id="line2d_24">
      <path d="M 170.529881 314.728 
L 170.529881 26.88 
" clip-path="url(#p9c0c23cb7a)" style="fill: none; stroke: #b0b0b0; stroke-opacity: 0.3; stroke-width: 0.8; stroke-linecap: square"/>
     </g>
     <g id="line2d_25">
      <g>
       <use xlink:href="#m67c99e7a31" x="170.529881" y="314.728" style="stroke: #000000; stroke-width: 0.6"/>
      </g>
     </g>
    </g>
    <g id="xtick_10">
     <g id="line2d_26">
      <path d="M 185.54371 314.728 
L 185.54371 26.88 
" clip-path="url(#p9c0c23cb7a)" style="fill: none; stroke: #b0b0b0; stroke-opacity: 0.3; stroke-width: 0.8; stroke-linecap: square"/>
     </g>
     <g id="line2d_27">
      <g>
       <use xlink:href="#m67c99e7a31" x="185.54371" y="314.728" style="stroke: #000000; stroke-width: 0.6"/>
      </g>
     </g>
    </g>
    <g id="xtick_11">
     <g id="line2d_28">
      <path d="M 197.810902 314.728 
L 197.810902 26.88 
" clip-path="url(#p9c0c23cb7a)" style="fill: none; stroke: #b0b0b0; stroke-opacity: 0.3; stroke-width: 0.8; stroke-linecap: square"/>
     </g>
     <g id="line2d_29">
      <g>
       <use xlink:href="#m67c99e7a31" x="197.810902" y="314.728" style="stroke: #000000; stroke-width: 0.6"/>
      </g>
     </g>
    </g>
    <g id="xtick_12">
     <g id="line2d_30">
      <path d="M 208.182665 314.728 
L 208.182665 26.88 
" clip-path="url(#p9c0c23cb7a)" style="fill: none; stroke: #b0b0b0; stroke-opacity: 0.3; stroke-width: 0.8; stroke-linecap: square"/>
     </g>
     <g id="line2d_31">
      <g>
       <use xlink:href="#m67c99e7a31" x="208.182665" y="314.728" style="stroke: #000000; stroke-width: 0.6"/>
      </g>
     </g>
    </g>
    <g id="xtick_13">
     <g id="line2d_32">
      <path d="M 217.167095 314.728 
L 217.167095 26.88 
" clip-path="url(#p9c0c23cb7a)" style="fill: none; stroke: #b0b0b0; stroke-opacity: 0.3; stroke-width: 0.8; stroke-linecap: square"/>
     </g>
     <g id="line2d_33">
      <g>
       <use xlink:href="#m67c99e7a31" x="217.167095" y="314.728" style="stroke: #000000; stroke-width: 0.6"/>
      </g>
     </g>
    </g>
    <g id="xtick_14">
     <g id="line2d_34">
      <path d="M 225.091923 314.728 
L 225.091923 26.88 
" clip-path="url(#p9c0c23cb7a)" style="fill: none; stroke: #b0b0b0; stroke-opacity: 0.3; stroke-width: 0.8; stroke-linecap: square"/>
     </g>
     <g id="line2d_35">
      <g>
       <use xlink:href="#m67c99e7a31" x="225.091923" y="314.728" style="stroke: #000000; stroke-width: 0.6"/>
      </g>
     </g>
    </g>
    <g id="xtick_15">
     <g id="line2d_36">
      <path d="M 278.818137 314.728 
L 278.818137 26.88 
" clip-path="url(#p9c0c23cb7a)" style="fill: none; stroke: #b0b0b0; stroke-opacity: 0.3; stroke-width: 0.8; stroke-linecap: square"/>
     </g>
     <g id="line2d_37">
      <g>
       <use xlink:href="#m67c99e7a31" x="278.818137" y="314.728" style="stroke: #000000; stroke-width: 0.6"/>
      </g>
     </g>
    </g>
    <g id="xtick_16">
     <g id="line2d_38">
      <path d="M 306.099158 314.728 
L 306.099158 26.88 
" clip-path="url(#p9c0c23cb7a)" style="fill: none; stroke: #b0b0b0; stroke-opacity: 0.3; stroke-width: 0.8; stroke-linecap: square"/>
     </g>
     <g id="line2d_39">
      <g>
       <use xlink:href="#m67c99e7a31" x="306.099158" y="314.728" style="stroke: #000000; stroke-width: 0.6"/>
      </g>
     </g>
    </g>
    <g id="xtick_17">
     <g id="line2d_40">
      <path d="M 325.455351 314.728 
L 325.455351 26.88 
" clip-path="url(#p9c0c23cb7a)" style="fill: none; stroke: #b0b0b0; stroke-opacity: 0.3; stroke-width: 0.8; stroke-linecap: square"/>
     </g>
     <g id="line2d_41">
      <g>
       <use xlink:href="#m67c99e7a31" x="325.455351" y="314.728" style="stroke: #000000; stroke-width: 0.6"/>
      </g>
     </g>
    </g>
    <g id="xtick_18">
     <g id="line2d_42">
      <path d="M 340.46918 314.728 
L 340.46918 26.88 
" clip-path="url(#p9c0c23cb7a)" style="fill: none; stroke: #b0b0b0; stroke-opacity: 0.3; stroke-width: 0.8; stroke-linecap: square"/>
     </g>
     <g id="line2d_43">
      <g>
       <use xlink:href="#m67c99e7a31" x="340.46918" y="314.728" style="stroke: #000000; stroke-width: 0.6"/>
      </g>
     </g>
    </g>
    <g id="xtick_19">
     <g id="line2d_44">
      <path d="M 352.736371 314.728 
L 352.736371 26.88 
" clip-path="url(#p9c0c23cb7a)" style="fill: none; stroke: #b0b0b0; stroke-opacity: 0.3; stroke-width: 0.8; stroke-linecap: square"/>
     </g>
     <g id="line2d_45">
      <g>
       <use xlink:href="#m67c99e7a31" x="352.736371" y="314.728" style="stroke: #000000; stroke-width: 0.6"/>
      </g>
     </g>
    </g>
    <g id="xtick_20">
     <g id="line2d_46">
      <path d="M 363.108134 314.728 
L 363.108134 26.88 
" clip-path="url(#p9c0c23cb7a)" style="fill: none; stroke: #b0b0b0; stroke-opacity: 0.3; stroke-width: 0.8; stroke-linecap: square"/>
     </g>
     <g id="line2d_47">
      <g>
       <use xlink:href="#m67c99e7a31" x="363.108134" y="314.728" style="stroke: #000000; stroke-width: 0.6"/>
      </g>
     </g>
    </g>
    <g id="xtick_21">
     <g id="line2d_48">
      <path d="M 372.092564 314.728 
L 372.092564 26.88 
" clip-path="url(#p9c0c23cb7a)" style="fill: none; stroke: #b0b0b0; stroke-opacity: 0.3; stroke-width: 0.8; stroke-linecap: square"/>
     </g>
     <g id="line2d_49">
      <g>
       <use xlink:href="#m67c99e7a31" x="372.092564" y="314.728" style="stroke: #000000; stroke-width: 0.6"/>
      </g>
     </g>
    </g>
    <g id="xtick_22">
     <g id="line2d_50">
      <path d="M 380.017392 314.728 
L 380.017392 26.88 
" clip-path="url(#p9c0c23cb7a)" style="fill: none; stroke: #b0b0b0; stroke-opacity: 0.3; stroke-width: 0.8; stroke-linecap: square"/>
     </g>
     <g id="line2d_51">
      <g>
       <use xlink:href="#m67c99e7a31" x="380.017392" y="314.728" style="stroke: #000000; stroke-width: 0.6"/>
      </g>
     </g>
    </g>
    <g id="xtick_23">
     <g id="line2d_52">
      <path d="M 433.743606 314.728 
L 433.743606 26.88 
" clip-path="url(#p9c0c23cb7a)" style="fill: none; stroke: #b0b0b0; stroke-opacity: 0.3; stroke-width: 0.8; stroke-linecap: square"/>
     </g>
     <g id="line2d_53">
      <g>
       <use xlink:href="#m67c99e7a31" x="433.743606" y="314.728" style="stroke: #000000; stroke-width: 0.6"/>
      </g>
     </g>
    </g>
    <g id="xtick_24">
     <g id="line2d_54">
      <path d="M 461.024627 314.728 
L 461.024627 26.88 
" clip-path="url(#p9c0c23cb7a)" style="fill: none; stroke: #b0b0b0; stroke-opacity: 0.3; stroke-width: 0.8; stroke-linecap: square"/>
     </g>
     <g id="line2d_55">
      <g>
       <use xlink:href="#m67c99e7a31" x="461.024627" y="314.728" style="stroke: #000000; stroke-width: 0.6"/>
      </g>
     </g>
    </g>
    <g id="xtick_25">
     <g id="line2d_56">
      <path d="M 480.38082 314.728 
L 480.38082 26.88 
" clip-path="url(#p9c0c23cb7a)" style="fill: none; stroke: #b0b0b0; stroke-opacity: 0.3; stroke-width: 0.8; stroke-linecap: square"/>
     </g>
     <g id="line2d_57">
      <g>
       <use xlink:href="#m67c99e7a31" x="480.38082" y="314.728" style="stroke: #000000; stroke-width: 0.6"/>
      </g>
     </g>
    </g>
    <g id="xtick_26">
     <g id="line2d_58">
      <path d="M 495.394649 314.728 
L 495.394649 26.88 
" clip-path="url(#p9c0c23cb7a)" style="fill: none; stroke: #b0b0b0; stroke-opacity: 0.3; stroke-width: 0.8; stroke-linecap: square"/>
     </g>
     <g id="line2d_59">
      <g>
       <use xlink:href="#m67c99e7a31" x="495.394649" y="314.728" style="stroke: #000000; stroke-width: 0.6"/>
      </g>
     </g>
    </g>
    <g id="xtick_27">
     <g id="line2d_60">
      <path d="M 507.661841 314.728 
L 507.661841 26.88 
" clip-path="url(#p9c0c23cb7a)" style="fill: none; stroke: #b0b0b0; stroke-opacity: 0.3; stroke-width: 0.8; stroke-linecap: square"/>
     </g>
     <g id="line2d_61">
      <g>
       <use xlink:href="#m67c99e7a31" x="507.661841" y="314.728" style="stroke: #000000; stroke-width: 0.6"/>
      </g>
     </g>
    </g>
    <g id="xtick_28">
     <g id="line2d_62">
      <path d="M 518.033604 314.728 
L 518.033604 26.88 
" clip-path="url(#p9c0c23cb7a)" style="fill: none; stroke: #b0b0b0; stroke-opacity: 0.3; stroke-width: 0.8; stroke-linecap: square"/>
     </g>
     <g id="line2d_63">
      <g>
       <use xlink:href="#m67c99e7a31" x="518.033604" y="314.728" style="stroke: #000000; stroke-width: 0.6"/>
      </g>
     </g>
    </g>
    <g id="xtick_29">
     <g id="line2d_64">
      <path d="M 527.018033 314.728 
L 527.018033 26.88 
" clip-path="url(#p9c0c23cb7a)" style="fill: none; stroke: #b0b0b0; stroke-opacity: 0.3; stroke-width: 0.8; stroke-linecap: square"/>
     </g>
     <g id="line2d_65">
      <g>
       <use xlink:href="#m67c99e7a31" x="527.018033" y="314.728" style="stroke: #000000; stroke-width: 0.6"/>
      </g>
     </g>
    </g>
    <g id="xtick_30">
     <g id="line2d_66">
      <path d="M 534.942862 314.728 
L 534.942862 26.88 
" clip-path="url(#p9c0c23cb7a)" style="fill: none; stroke: #b0b0b0; stroke-opacity: 0.3; stroke-width: 0.8; stroke-linecap: square"/>
     </g>
     <g id="line2d_67">
      <g>
       <use xlink:href="#m67c99e7a31" x="534.942862" y="314.728" style="stroke: #000000; stroke-width: 0.6"/>
      </g>
     </g>
    </g>
    <g id="text_5">
     <!-- Iteration (Log Scale) -->
     <g transform="translate(258.936563 343.004562) scale(0.1 -0.1)">
      <defs>
       <path id="DejaVuSans-49" d="M 628 4666 
L 1259 4666 
L 1259 0 
L 628 0 
L 628 4666 
z
" transform="scale(0.015625)"/>
       <path id="DejaVuSans-74" d="M 1172 4494 
L 1172 3500 
L 2356 3500 
L 2356 3053 
L 1172 3053 
L 1172 1153 
Q 1172 725 1289 603 
Q 1406 481 1766 481 
L 2356 481 
L 2356 0 
L 1766 0 
Q 1100 0 847 248 
Q 594 497 594 1153 
L 594 3053 
L 172 3053 
L 172 3500 
L 594 3500 
L 594 4494 
L 1172 4494 
z
" transform="scale(0.015625)"/>
       <path id="DejaVuSans-65" d="M 3597 1894 
L 3597 1613 
L 953 1613 
Q 991 1019 1311 708 
Q 1631 397 2203 397 
Q 2534 397 2845 478 
Q 3156 559 3463 722 
L 3463 178 
Q 3153 47 2828 -22 
Q 2503 -91 2169 -91 
Q 1331 -91 842 396 
Q 353 884 353 1716 
Q 353 2575 817 3079 
Q 1281 3584 2069 3584 
Q 2775 3584 3186 3129 
Q 3597 2675 3597 1894 
z
M 3022 2063 
Q 3016 2534 2758 2815 
Q 2500 3097 2075 3097 
Q 1594 3097 1305 2825 
Q 1016 2553 972 2059 
L 3022 2063 
z
" transform="scale(0.015625)"/>
       <path id="DejaVuSans-72" d="M 2631 2963 
Q 2534 3019 2420 3045 
Q 2306 3072 2169 3072 
Q 1681 3072 1420 2755 
Q 1159 2438 1159 1844 
L 1159 0 
L 581 0 
L 581 3500 
L 1159 3500 
L 1159 2956 
Q 1341 3275 1631 3429 
Q 1922 3584 2338 3584 
Q 2397 3584 2469 3576 
Q 2541 3569 2628 3553 
L 2631 2963 
z
" transform="scale(0.015625)"/>
       <path id="DejaVuSans-61" d="M 2194 1759 
Q 1497 1759 1228 1600 
Q 959 1441 959 1056 
Q 959 750 1161 570 
Q 1363 391 1709 391 
Q 2188 391 2477 730 
Q 2766 1069 2766 1631 
L 2766 1759 
L 2194 1759 
z
M 3341 1997 
L 3341 0 
L 2766 0 
L 2766 531 
Q 2569 213 2275 61 
Q 1981 -91 1556 -91 
Q 1019 -91 701 211 
Q 384 513 384 1019 
Q 384 1609 779 1909 
Q 1175 2209 1959 2209 
L 2766 2209 
L 2766 2266 
Q 2766 2663 2505 2880 
Q 2244 3097 1772 3097 
Q 1472 3097 1187 3025 
Q 903 2953 641 2809 
L 641 3341 
Q 956 3463 1253 3523 
Q 1550 3584 1831 3584 
Q 2591 3584 2966 3190 
Q 3341 2797 3341 1997 
z
" transform="scale(0.015625)"/>
       <path id="DejaVuSans-69" d="M 603 3500 
L 1178 3500 
L 1178 0 
L 603 0 
L 603 3500 
z
M 603 4863 
L 1178 4863 
L 1178 4134 
L 603 4134 
L 603 4863 
z
" transform="scale(0.015625)"/>
       <path id="DejaVuSans-6f" d="M 1959 3097 
Q 1497 3097 1228 2736 
Q 959 2375 959 1747 
Q 959 1119 1226 758 
Q 1494 397 1959 397 
Q 2419 397 2687 759 
Q 2956 1122 2956 1747 
Q 2956 2369 2687 2733 
Q 2419 3097 1959 3097 
z
M 1959 3584 
Q 2709 3584 3137 3096 
Q 3566 2609 3566 1747 
Q 3566 888 3137 398 
Q 2709 -91 1959 -91 
Q 1206 -91 779 398 
Q 353 888 353 1747 
Q 353 2609 779 3096 
Q 1206 3584 1959 3584 
z
" transform="scale(0.015625)"/>
       <path id="DejaVuSans-6e" d="M 3513 2113 
L 3513 0 
L 2938 0 
L 2938 2094 
Q 2938 2591 2744 2837 
Q 2550 3084 2163 3084 
Q 1697 3084 1428 2787 
Q 1159 2491 1159 1978 
L 1159 0 
L 581 0 
L 581 3500 
L 1159 3500 
L 1159 2956 
Q 1366 3272 1645 3428 
Q 1925 3584 2291 3584 
Q 2894 3584 3203 3211 
Q 3513 2838 3513 2113 
z
" transform="scale(0.015625)"/>
       <path id="DejaVuSans-20" transform="scale(0.015625)"/>
       <path id="DejaVuSans-28" d="M 1984 4856 
Q 1566 4138 1362 3434 
Q 1159 2731 1159 2009 
Q 1159 1288 1364 580 
Q 1569 -128 1984 -844 
L 1484 -844 
Q 1016 -109 783 600 
Q 550 1309 550 2009 
Q 550 2706 781 3412 
Q 1013 4119 1484 4856 
L 1984 4856 
z
" transform="scale(0.015625)"/>
       <path id="DejaVuSans-4c" d="M 628 4666 
L 1259 4666 
L 1259 531 
L 3531 531 
L 3531 0 
L 628 0 
L 628 4666 
z
" transform="scale(0.015625)"/>
       <path id="DejaVuSans-67" d="M 2906 1791 
Q 2906 2416 2648 2759 
Q 2391 3103 1925 3103 
Q 1463 3103 1205 2759 
Q 947 2416 947 1791 
Q 947 1169 1205 825 
Q 1463 481 1925 481 
Q 2391 481 2648 825 
Q 2906 1169 2906 1791 
z
M 3481 434 
Q 3481 -459 3084 -895 
Q 2688 -1331 1869 -1331 
Q 1566 -1331 1297 -1286 
Q 1028 -1241 775 -1147 
L 775 -588 
Q 1028 -725 1275 -790 
Q 1522 -856 1778 -856 
Q 2344 -856 2625 -561 
Q 2906 -266 2906 331 
L 2906 616 
Q 2728 306 2450 153 
Q 2172 0 1784 0 
Q 1141 0 747 490 
Q 353 981 353 1791 
Q 353 2603 747 3093 
Q 1141 3584 1784 3584 
Q 2172 3584 2450 3431 
Q 2728 3278 2906 2969 
L 2906 3500 
L 3481 3500 
L 3481 434 
z
" transform="scale(0.015625)"/>
       <path id="DejaVuSans-53" d="M 3425 4513 
L 3425 3897 
Q 3066 4069 2747 4153 
Q 2428 4238 2131 4238 
Q 1616 4238 1336 4038 
Q 1056 3838 1056 3469 
Q 1056 3159 1242 3001 
Q 1428 2844 1947 2747 
L 2328 2669 
Q 3034 2534 3370 2195 
Q 3706 1856 3706 1288 
Q 3706 609 3251 259 
Q 2797 -91 1919 -91 
Q 1588 -91 1214 -16 
Q 841 59 441 206 
L 441 856 
Q 825 641 1194 531 
Q 1563 422 1919 422 
Q 2459 422 2753 634 
Q 3047 847 3047 1241 
Q 3047 1584 2836 1778 
Q 2625 1972 2144 2069 
L 1759 2144 
Q 1053 2284 737 2584 
Q 422 2884 422 3419 
Q 422 4038 858 4394 
Q 1294 4750 2059 4750 
Q 2388 4750 2728 4690 
Q 3069 4631 3425 4513 
z
" transform="scale(0.015625)"/>
       <path id="DejaVuSans-63" d="M 3122 3366 
L 3122 2828 
Q 2878 2963 2633 3030 
Q 2388 3097 2138 3097 
Q 1578 3097 1268 2742 
Q 959 2388 959 1747 
Q 959 1106 1268 751 
Q 1578 397 2138 397 
Q 2388 397 2633 464 
Q 2878 531 3122 666 
L 3122 134 
Q 2881 22 2623 -34 
Q 2366 -91 2075 -91 
Q 1284 -91 818 406 
Q 353 903 353 1747 
Q 353 2603 823 3093 
Q 1294 3584 2113 3584 
Q 2378 3584 2631 3529 
Q 2884 3475 3122 3366 
z
" transform="scale(0.015625)"/>
       <path id="DejaVuSans-6c" d="M 603 4863 
L 1178 4863 
L 1178 0 
L 603 0 
L 603 4863 
z
" transform="scale(0.015625)"/>
       <path id="DejaVuSans-29" d="M 513 4856 
L 1013 4856 
Q 1481 4119 1714 3412 
Q 1947 2706 1947 2009 
Q 1947 1309 1714 600 
Q 1481 -109 1013 -844 
L 513 -844 
Q 928 -128 1133 580 
Q 1338 1288 1338 2009 
Q 1338 2731 1133 3434 
Q 928 4138 513 4856 
z
" transform="scale(0.015625)"/>
      </defs>
      <use xlink:href="#DejaVuSans-49"/>
      <use xlink:href="#DejaVuSans-74" transform="translate(29.492188 0)"/>
      <use xlink:href="#DejaVuSans-65" transform="translate(68.701172 0)"/>
      <use xlink:href="#DejaVuSans-72" transform="translate(130.224609 0)"/>
      <use xlink:href="#DejaVuSans-61" transform="translate(171.337891 0)"/>
      <use xlink:href="#DejaVuSans-74" transform="translate(232.617188 0)"/>
      <use xlink:href="#DejaVuSans-69" transform="translate(271.826172 0)"/>
      <use xlink:href="#DejaVuSans-6f" transform="translate(299.609375 0)"/>
      <use xlink:href="#DejaVuSans-6e" transform="translate(360.791016 0)"/>
      <use xlink:href="#DejaVuSans-20" transform="translate(424.169922 0)"/>
      <use xlink:href="#DejaVuSans-28" transform="translate(455.957031 0)"/>
      <use xlink:href="#DejaVuSans-4c" transform="translate(494.970703 0)"/>
      <use xlink:href="#DejaVuSans-6f" transform="translate(548.933594 0)"/>
      <use xlink:href="#DejaVuSans-67" transform="translate(610.115234 0)"/>
      <use xlink:href="#DejaVuSans-20" transform="translate(673.591797 0)"/>
      <use xlink:href="#DejaVuSans-53" transform="translate(705.378906 0)"/>
      <use xlink:href="#DejaVuSans-63" transform="translate(768.855469 0)"/>
      <use xlink:href="#DejaVuSans-61" transform="translate(823.835938 0)"/>
      <use xlink:href="#DejaVuSans-6c" transform="translate(885.115234 0)"/>
      <use xlink:href="#DejaVuSans-65" transform="translate(912.898438 0)"/>
      <use xlink:href="#DejaVuSans-29" transform="translate(974.421875 0)"/>
     </g>
    </g>
   </g>
   <g id="matplotlib.axis_2">
    <g id="ytick_1">
     <g id="line2d_68">
      <path d="M 54.02 307.403888 
L 565.2 307.403888 
" clip-path="url(#p9c0c23cb7a)" style="fill: none; stroke: #b0b0b0; stroke-opacity: 0.3; stroke-width: 0.8; stroke-linecap: square"/>
     </g>
     <g id="line2d_69">
      <defs>
       <path id="m086ef67499" d="M 0 0 
L -3.5 0 
" style="stroke: #000000; stroke-width: 0.8"/>
      </defs>
      <g>
       <use xlink:href="#m086ef67499" x="54.02" y="307.403888" style="stroke: #000000; stroke-width: 0.8"/>
      </g>
     </g>
     <g id="text_6">
      <!-- 0.35 -->
      <g transform="translate(24.754375 311.203106) scale(0.1 -0.1)">
       <defs>
        <path id="DejaVuSans-2e" d="M 684 794 
L 1344 794 
L 1344 0 
L 684 0 
L 684 794 
z
" transform="scale(0.015625)"/>
        <path id="DejaVuSans-35" d="M 691 4666 
L 3169 4666 
L 3169 4134 
L 1269 4134 
L 1269 2991 
Q 1406 3038 1543 3061 
Q 1681 3084 1819 3084 
Q 2600 3084 3056 2656 
Q 3513 2228 3513 1497 
Q 3513 744 3044 326 
Q 2575 -91 1722 -91 
Q 1428 -91 1123 -41 
Q 819 9 494 109 
L 494 744 
Q 775 591 1075 516 
Q 1375 441 1709 441 
Q 2250 441 2565 725 
Q 2881 1009 2881 1497 
Q 2881 1984 2565 2268 
Q 2250 2553 1709 2553 
Q 1456 2553 1204 2497 
Q 953 2441 691 2322 
L 691 4666 
z
" transform="scale(0.015625)"/>
       </defs>
       <use xlink:href="#DejaVuSans-30"/>
       <use xlink:href="#DejaVuSans-2e" transform="translate(63.623047 0)"/>
       <use xlink:href="#DejaVuSans-33" transform="translate(95.410156 0)"/>
       <use xlink:href="#DejaVuSans-35" transform="translate(159.033203 0)"/>
      </g>
     </g>
    </g>
    <g id="ytick_2">
     <g id="line2d_70">
      <path d="M 54.02 266.108837 
L 565.2 266.108837 
" clip-path="url(#p9c0c23cb7a)" style="fill: none; stroke: #b0b0b0; stroke-opacity: 0.3; stroke-width: 0.8; stroke-linecap: square"/>
     </g>
     <g id="line2d_71">
      <g>
       <use xlink:href="#m086ef67499" x="54.02" y="266.108837" style="stroke: #000000; stroke-width: 0.8"/>
      </g>
     </g>
     <g id="text_7">
      <!-- 0.40 -->
      <g transform="translate(24.754375 269.908055) scale(0.1 -0.1)">
       <defs>
        <path id="DejaVuSans-34" d="M 2419 4116 
L 825 1625 
L 2419 1625 
L 2419 4116 
z
M 2253 4666 
L 3047 4666 
L 3047 1625 
L 3713 1625 
L 3713 1100 
L 3047 1100 
L 3047 0 
L 2419 0 
L 2419 1100 
L 313 1100 
L 313 1709 
L 2253 4666 
z
" transform="scale(0.015625)"/>
       </defs>
       <use xlink:href="#DejaVuSans-30"/>
       <use xlink:href="#DejaVuSans-2e" transform="translate(63.623047 0)"/>
       <use xlink:href="#DejaVuSans-34" transform="translate(95.410156 0)"/>
       <use xlink:href="#DejaVuSans-30" transform="translate(159.033203 0)"/>
      </g>
     </g>
    </g>
    <g id="ytick_3">
     <g id="line2d_72">
      <path d="M 54.02 224.813785 
L 565.2 224.813785 
" clip-path="url(#p9c0c23cb7a)" style="fill: none; stroke: #b0b0b0; stroke-opacity: 0.3; stroke-width: 0.8; stroke-linecap: square"/>
     </g>
     <g id="line2d_73">
      <g>
       <use xlink:href="#m086ef67499" x="54.02" y="224.813785" style="stroke: #000000; stroke-width: 0.8"/>
      </g>
     </g>
     <g id="text_8">
      <!-- 0.45 -->
      <g transform="translate(24.754375 228.613004) scale(0.1 -0.1)">
       <use xlink:href="#DejaVuSans-30"/>
       <use xlink:href="#DejaVuSans-2e" transform="translate(63.623047 0)"/>
       <use xlink:href="#DejaVuSans-34" transform="translate(95.410156 0)"/>
       <use xlink:href="#DejaVuSans-35" transform="translate(159.033203 0)"/>
      </g>
     </g>
    </g>
    <g id="ytick_4">
     <g id="line2d_74">
      <path d="M 54.02 183.518734 
L 565.2 183.518734 
" clip-path="url(#p9c0c23cb7a)" style="fill: none; stroke: #b0b0b0; stroke-opacity: 0.3; stroke-width: 0.8; stroke-linecap: square"/>
     </g>
     <g id="line2d_75">
      <g>
       <use xlink:href="#m086ef67499" x="54.02" y="183.518734" style="stroke: #000000; stroke-width: 0.8"/>
      </g>
     </g>
     <g id="text_9">
      <!-- 0.50 -->
      <g transform="translate(24.754375 187.317953) scale(0.1 -0.1)">
       <use xlink:href="#DejaVuSans-30"/>
       <use xlink:href="#DejaVuSans-2e" transform="translate(63.623047 0)"/>
       <use xlink:href="#DejaVuSans-35" transform="translate(95.410156 0)"/>
       <use xlink:href="#DejaVuSans-30" transform="translate(159.033203 0)"/>
      </g>
     </g>
    </g>
    <g id="ytick_5">
     <g id="line2d_76">
      <path d="M 54.02 142.223683 
L 565.2 142.223683 
" clip-path="url(#p9c0c23cb7a)" style="fill: none; stroke: #b0b0b0; stroke-opacity: 0.3; stroke-width: 0.8; stroke-linecap: square"/>
     </g>
     <g id="line2d_77">
      <g>
       <use xlink:href="#m086ef67499" x="54.02" y="142.223683" style="stroke: #000000; stroke-width: 0.8"/>
      </g>
     </g>
     <g id="text_10">
      <!-- 0.55 -->
      <g transform="translate(24.754375 146.022902) scale(0.1 -0.1)">
       <use xlink:href="#DejaVuSans-30"/>
       <use xlink:href="#DejaVuSans-2e" transform="translate(63.623047 0)"/>
       <use xlink:href="#DejaVuSans-35" transform="translate(95.410156 0)"/>
       <use xlink:href="#DejaVuSans-35" transform="translate(159.033203 0)"/>
      </g>
     </g>
    </g>
    <g id="ytick_6">
     <g id="line2d_78">
      <path d="M 54.02 100.928632 
L 565.2 100.928632 
" clip-path="url(#p9c0c23cb7a)" style="fill: none; stroke: #b0b0b0; stroke-opacity: 0.3; stroke-width: 0.8; stroke-linecap: square"/>
     </g>
     <g id="line2d_79">
      <g>
       <use xlink:href="#m086ef67499" x="54.02" y="100.928632" style="stroke: #000000; stroke-width: 0.8"/>
      </g>
     </g>
     <g id="text_11">
      <!-- 0.60 -->
      <g transform="translate(24.754375 104.727851) scale(0.1 -0.1)">
       <defs>
        <path id="DejaVuSans-36" d="M 2113 2584 
Q 1688 2584 1439 2293 
Q 1191 2003 1191 1497 
Q 1191 994 1439 701 
Q 1688 409 2113 409 
Q 2538 409 2786 701 
Q 3034 994 3034 1497 
Q 3034 2003 2786 2293 
Q 2538 2584 2113 2584 
z
M 3366 4563 
L 3366 3988 
Q 3128 4100 2886 4159 
Q 2644 4219 2406 4219 
Q 1781 4219 1451 3797 
Q 1122 3375 1075 2522 
Q 1259 2794 1537 2939 
Q 1816 3084 2150 3084 
Q 2853 3084 3261 2657 
Q 3669 2231 3669 1497 
Q 3669 778 3244 343 
Q 2819 -91 2113 -91 
Q 1303 -91 875 529 
Q 447 1150 447 2328 
Q 447 3434 972 4092 
Q 1497 4750 2381 4750 
Q 2619 4750 2861 4703 
Q 3103 4656 3366 4563 
z
" transform="scale(0.015625)"/>
       </defs>
       <use xlink:href="#DejaVuSans-30"/>
       <use xlink:href="#DejaVuSans-2e" transform="translate(63.623047 0)"/>
       <use xlink:href="#DejaVuSans-36" transform="translate(95.410156 0)"/>
       <use xlink:href="#DejaVuSans-30" transform="translate(159.033203 0)"/>
      </g>
     </g>
    </g>
    <g id="ytick_7">
     <g id="line2d_80">
      <path d="M 54.02 59.633581 
L 565.2 59.633581 
" clip-path="url(#p9c0c23cb7a)" style="fill: none; stroke: #b0b0b0; stroke-opacity: 0.3; stroke-width: 0.8; stroke-linecap: square"/>
     </g>
     <g id="line2d_81">
      <g>
       <use xlink:href="#m086ef67499" x="54.02" y="59.633581" style="stroke: #000000; stroke-width: 0.8"/>
      </g>
     </g>
     <g id="text_12">
      <!-- 0.65 -->
      <g transform="translate(24.754375 63.4328) scale(0.1 -0.1)">
       <use xlink:href="#DejaVuSans-30"/>
       <use xlink:href="#DejaVuSans-2e" transform="translate(63.623047 0)"/>
       <use xlink:href="#DejaVuSans-36" transform="translate(95.410156 0)"/>
       <use xlink:href="#DejaVuSans-35" transform="translate(159.033203 0)"/>
      </g>
     </g>
    </g>
    <g id="text_13">
     <!-- SSIM Index -->
     <g transform="translate(18.674688 198.296969) rotate(-90) scale(0.1 -0.1)">
      <defs>
       <path id="DejaVuSans-4d" d="M 628 4666 
L 1569 4666 
L 2759 1491 
L 3956 4666 
L 4897 4666 
L 4897 0 
L 4281 0 
L 4281 4097 
L 3078 897 
L 2444 897 
L 1241 4097 
L 1241 0 
L 628 0 
L 628 4666 
z
" transform="scale(0.015625)"/>
       <path id="DejaVuSans-64" d="M 2906 2969 
L 2906 4863 
L 3481 4863 
L 3481 0 
L 2906 0 
L 2906 525 
Q 2725 213 2448 61 
Q 2172 -91 1784 -91 
Q 1150 -91 751 415 
Q 353 922 353 1747 
Q 353 2572 751 3078 
Q 1150 3584 1784 3584 
Q 2172 3584 2448 3432 
Q 2725 3281 2906 2969 
z
M 947 1747 
Q 947 1113 1208 752 
Q 1469 391 1925 391 
Q 2381 391 2643 752 
Q 2906 1113 2906 1747 
Q 2906 2381 2643 2742 
Q 2381 3103 1925 3103 
Q 1469 3103 1208 2742 
Q 947 2381 947 1747 
z
" transform="scale(0.015625)"/>
       <path id="DejaVuSans-78" d="M 3513 3500 
L 2247 1797 
L 3578 0 
L 2900 0 
L 1881 1375 
L 863 0 
L 184 0 
L 1544 1831 
L 300 3500 
L 978 3500 
L 1906 2253 
L 2834 3500 
L 3513 3500 
z
" transform="scale(0.015625)"/>
      </defs>
      <use xlink:href="#DejaVuSans-53"/>
      <use xlink:href="#DejaVuSans-53" transform="translate(63.476562 0)"/>
      <use xlink:href="#DejaVuSans-49" transform="translate(126.953125 0)"/>
      <use xlink:href="#DejaVuSans-4d" transform="translate(156.445312 0)"/>
      <use xlink:href="#DejaVuSans-20" transform="translate(242.724609 0)"/>
      <use xlink:href="#DejaVuSans-49" transform="translate(274.511719 0)"/>
      <use xlink:href="#DejaVuSans-6e" transform="translate(304.003906 0)"/>
      <use xlink:href="#DejaVuSans-64" transform="translate(367.382812 0)"/>
      <use xlink:href="#DejaVuSans-65" transform="translate(430.859375 0)"/>
      <use xlink:href="#DejaVuSans-78" transform="translate(490.632812 0)"/>
     </g>
    </g>
   </g>
   <g id="patch_3">
    <path d="M 54.02 314.728 
L 54.02 26.88 
" style="fill: none; stroke: #000000; stroke-width: 0.8; stroke-linejoin: miter; stroke-linecap: square"/>
   </g>
   <g id="patch_4">
    <path d="M 565.2 314.728 
L 565.2 26.88 
" style="fill: none; stroke: #000000; stroke-width: 0.8; stroke-linejoin: miter; stroke-linecap: square"/>
   </g>
   <g id="patch_5">
    <path d="M 54.02 314.728 
L 565.2 314.728 
" style="fill: none; stroke: #000000; stroke-width: 0.8; stroke-linejoin: miter; stroke-linecap: square"/>
   </g>
   <g id="patch_6">
    <path d="M 54.02 26.88 
L 565.2 26.88 
" style="fill: none; stroke: #000000; stroke-width: 0.8; stroke-linejoin: miter; stroke-linecap: square"/>
   </g>
   <g id="text_14">
    <!-- SSIM Convergence - Image 4 -->
    <g transform="translate(223.080625 20.88) scale(0.12 -0.12)">
     <defs>
      <path id="DejaVuSans-43" d="M 4122 4306 
L 4122 3641 
Q 3803 3938 3442 4084 
Q 3081 4231 2675 4231 
Q 1875 4231 1450 3742 
Q 1025 3253 1025 2328 
Q 1025 1406 1450 917 
Q 1875 428 2675 428 
Q 3081 428 3442 575 
Q 3803 722 4122 1019 
L 4122 359 
Q 3791 134 3420 21 
Q 3050 -91 2638 -91 
Q 1578 -91 968 557 
Q 359 1206 359 2328 
Q 359 3453 968 4101 
Q 1578 4750 2638 4750 
Q 3056 4750 3426 4639 
Q 3797 4528 4122 4306 
z
" transform="scale(0.015625)"/>
      <path id="DejaVuSans-76" d="M 191 3500 
L 800 3500 
L 1894 563 
L 2988 3500 
L 3597 3500 
L 2284 0 
L 1503 0 
L 191 3500 
z
" transform="scale(0.015625)"/>
      <path id="DejaVuSans-2d" d="M 313 2009 
L 1997 2009 
L 1997 1497 
L 313 1497 
L 313 2009 
z
" transform="scale(0.015625)"/>
      <path id="DejaVuSans-6d" d="M 3328 2828 
Q 3544 3216 3844 3400 
Q 4144 3584 4550 3584 
Q 5097 3584 5394 3201 
Q 5691 2819 5691 2113 
L 5691 0 
L 5113 0 
L 5113 2094 
Q 5113 2597 4934 2840 
Q 4756 3084 4391 3084 
Q 3944 3084 3684 2787 
Q 3425 2491 3425 1978 
L 3425 0 
L 2847 0 
L 2847 2094 
Q 2847 2600 2669 2842 
Q 2491 3084 2119 3084 
Q 1678 3084 1418 2786 
Q 1159 2488 1159 1978 
L 1159 0 
L 581 0 
L 581 3500 
L 1159 3500 
L 1159 2956 
Q 1356 3278 1631 3431 
Q 1906 3584 2284 3584 
Q 2666 3584 2933 3390 
Q 3200 3197 3328 2828 
z
" transform="scale(0.015625)"/>
     </defs>
     <use xlink:href="#DejaVuSans-53"/>
     <use xlink:href="#DejaVuSans-53" transform="translate(63.476562 0)"/>
     <use xlink:href="#DejaVuSans-49" transform="translate(126.953125 0)"/>
     <use xlink:href="#DejaVuSans-4d" transform="translate(156.445312 0)"/>
     <use xlink:href="#DejaVuSans-20" transform="translate(242.724609 0)"/>
     <use xlink:href="#DejaVuSans-43" transform="translate(274.511719 0)"/>
     <use xlink:href="#DejaVuSans-6f" transform="translate(344.335938 0)"/>
     <use xlink:href="#DejaVuSans-6e" transform="translate(405.517578 0)"/>
     <use xlink:href="#DejaVuSans-76" transform="translate(468.896484 0)"/>
     <use xlink:href="#DejaVuSans-65" transform="translate(528.076172 0)"/>
     <use xlink:href="#DejaVuSans-72" transform="translate(589.599609 0)"/>
     <use xlink:href="#DejaVuSans-67" transform="translate(628.962891 0)"/>
     <use xlink:href="#DejaVuSans-65" transform="translate(692.439453 0)"/>
     <use xlink:href="#DejaVuSans-6e" transform="translate(753.962891 0)"/>
     <use xlink:href="#DejaVuSans-63" transform="translate(817.341797 0)"/>
     <use xlink:href="#DejaVuSans-65" transform="translate(872.322266 0)"/>
     <use xlink:href="#DejaVuSans-20" transform="translate(933.845703 0)"/>
     <use xlink:href="#DejaVuSans-2d" transform="translate(965.632812 0)"/>
     <use xlink:href="#DejaVuSans-20" transform="translate(1001.716797 0)"/>
     <use xlink:href="#DejaVuSans-49" transform="translate(1033.503906 0)"/>
     <use xlink:href="#DejaVuSans-6d" transform="translate(1062.996094 0)"/>
     <use xlink:href="#DejaVuSans-61" transform="translate(1160.408203 0)"/>
     <use xlink:href="#DejaVuSans-67" transform="translate(1221.6875 0)"/>
     <use xlink:href="#DejaVuSans-65" transform="translate(1285.164062 0)"/>
     <use xlink:href="#DejaVuSans-20" transform="translate(1346.6875 0)"/>
     <use xlink:href="#DejaVuSans-34" transform="translate(1378.474609 0)"/>
    </g>
   </g>
   <g id="legend_1">
    <g id="patch_7">
     <path d="M 483.914317 312.563 
L 561.369 312.563 
Q 563.035 312.563 563.035 310.897 
L 563.035 225.446819 
Q 563.035 223.780819 561.369 223.780819 
L 483.914317 223.780819 
Q 482.248317 223.780819 482.248317 225.446819 
L 482.248317 310.897 
Q 482.248317 312.563 483.914317 312.563 
z
" style="fill: #4d4d4d; opacity: 0.5; stroke: #4d4d4d; stroke-linejoin: miter"/>
    </g>
    <g id="patch_8">
     <path d="M 481.914317 310.563 
L 559.369 310.563 
Q 561.035 310.563 561.035 308.897 
L 561.035 223.446819 
Q 561.035 221.780819 559.369 221.780819 
L 481.914317 221.780819 
Q 480.248317 221.780819 480.248317 223.446819 
L 480.248317 308.897 
Q 480.248317 310.563 481.914317 310.563 
z
" style="fill: #ffffff; stroke: #cccccc; stroke-linejoin: miter"/>
    </g>
    <g id="line2d_82">
     <path d="M 483.580317 228.526817 
L 491.910317 228.526817 
L 500.240317 228.526817 
" style="fill: none; stroke: #000000; stroke-width: 1.5; stroke-linecap: square"/>
     <g>
      <use xlink:href="#m64145e2436" x="491.910317" y="228.526817" style="stroke: #000000"/>
     </g>
    </g>
    <g id="text_15">
     <!-- ADMM -->
     <g transform="translate(506.904317 231.442317) scale(0.0833 -0.0833)">
      <defs>
       <path id="DejaVuSans-41" d="M 2188 4044 
L 1331 1722 
L 3047 1722 
L 2188 4044 
z
M 1831 4666 
L 2547 4666 
L 4325 0 
L 3669 0 
L 3244 1197 
L 1141 1197 
L 716 0 
L 50 0 
L 1831 4666 
z
" transform="scale(0.015625)"/>
       <path id="DejaVuSans-44" d="M 1259 4147 
L 1259 519 
L 2022 519 
Q 2988 519 3436 956 
Q 3884 1394 3884 2338 
Q 3884 3275 3436 3711 
Q 2988 4147 2022 4147 
L 1259 4147 
z
M 628 4666 
L 1925 4666 
Q 3281 4666 3915 4102 
Q 4550 3538 4550 2338 
Q 4550 1131 3912 565 
Q 3275 0 1925 0 
L 628 0 
L 628 4666 
z
" transform="scale(0.015625)"/>
      </defs>
      <use xlink:href="#DejaVuSans-41"/>
      <use xlink:href="#DejaVuSans-44" transform="translate(68.408203 0)"/>
      <use xlink:href="#DejaVuSans-4d" transform="translate(145.410156 0)"/>
      <use xlink:href="#DejaVuSans-4d" transform="translate(231.689453 0)"/>
     </g>
    </g>
    <g id="line2d_83">
     <path d="M 483.580317 240.753695 
L 491.910317 240.753695 
L 500.240317 240.753695 
" style="fill: none; stroke: #4b0082; stroke-width: 1.5; stroke-linecap: square"/>
     <g>
      <use xlink:href="#me4db7d5369" x="491.910317" y="240.753695" style="fill: #4b0082; stroke: #4b0082; stroke-linejoin: miter"/>
     </g>
    </g>
    <g id="text_16">
     <!-- FISTA -->
     <g transform="translate(506.904317 243.669195) scale(0.0833 -0.0833)">
      <defs>
       <path id="DejaVuSans-46" d="M 628 4666 
L 3309 4666 
L 3309 4134 
L 1259 4134 
L 1259 2759 
L 3109 2759 
L 3109 2228 
L 1259 2228 
L 1259 0 
L 628 0 
L 628 4666 
z
" transform="scale(0.015625)"/>
       <path id="DejaVuSans-54" d="M -19 4666 
L 3928 4666 
L 3928 4134 
L 2272 4134 
L 2272 0 
L 1638 0 
L 1638 4134 
L -19 4134 
L -19 4666 
z
" transform="scale(0.015625)"/>
      </defs>
      <use xlink:href="#DejaVuSans-46"/>
      <use xlink:href="#DejaVuSans-49" transform="translate(57.519531 0)"/>
      <use xlink:href="#DejaVuSans-53" transform="translate(87.011719 0)"/>
      <use xlink:href="#DejaVuSans-54" transform="translate(150.488281 0)"/>
      <use xlink:href="#DejaVuSans-41" transform="translate(203.822266 0)"/>
     </g>
    </g>
    <g id="line2d_84">
     <path d="M 483.580317 252.980573 
L 491.910317 252.980573 
L 500.240317 252.980573 
" style="fill: none; stroke: #1f77b4; stroke-width: 1.5; stroke-linecap: square"/>
     <g>
      <use xlink:href="#mf12f6ad8e2" x="491.910317" y="252.980573" style="fill: #1f77b4; stroke: #1f77b4; stroke-linejoin: miter"/>
     </g>
    </g>
    <g id="text_17">
     <!-- MOMENTUM -->
     <g transform="translate(506.904317 255.896073) scale(0.0833 -0.0833)">
      <defs>
       <path id="DejaVuSans-4f" d="M 2522 4238 
Q 1834 4238 1429 3725 
Q 1025 3213 1025 2328 
Q 1025 1447 1429 934 
Q 1834 422 2522 422 
Q 3209 422 3611 934 
Q 4013 1447 4013 2328 
Q 4013 3213 3611 3725 
Q 3209 4238 2522 4238 
z
M 2522 4750 
Q 3503 4750 4090 4092 
Q 4678 3434 4678 2328 
Q 4678 1225 4090 567 
Q 3503 -91 2522 -91 
Q 1538 -91 948 565 
Q 359 1222 359 2328 
Q 359 3434 948 4092 
Q 1538 4750 2522 4750 
z
" transform="scale(0.015625)"/>
       <path id="DejaVuSans-45" d="M 628 4666 
L 3578 4666 
L 3578 4134 
L 1259 4134 
L 1259 2753 
L 3481 2753 
L 3481 2222 
L 1259 2222 
L 1259 531 
L 3634 531 
L 3634 0 
L 628 0 
L 628 4666 
z
" transform="scale(0.015625)"/>
       <path id="DejaVuSans-4e" d="M 628 4666 
L 1478 4666 
L 3547 763 
L 3547 4666 
L 4159 4666 
L 4159 0 
L 3309 0 
L 1241 3903 
L 1241 0 
L 628 0 
L 628 4666 
z
" transform="scale(0.015625)"/>
       <path id="DejaVuSans-55" d="M 556 4666 
L 1191 4666 
L 1191 1831 
Q 1191 1081 1462 751 
Q 1734 422 2344 422 
Q 2950 422 3222 751 
Q 3494 1081 3494 1831 
L 3494 4666 
L 4128 4666 
L 4128 1753 
Q 4128 841 3676 375 
Q 3225 -91 2344 -91 
Q 1459 -91 1007 375 
Q 556 841 556 1753 
L 556 4666 
z
" transform="scale(0.015625)"/>
      </defs>
      <use xlink:href="#DejaVuSans-4d"/>
      <use xlink:href="#DejaVuSans-4f" transform="translate(86.279297 0)"/>
      <use xlink:href="#DejaVuSans-4d" transform="translate(164.990234 0)"/>
      <use xlink:href="#DejaVuSans-45" transform="translate(251.269531 0)"/>
      <use xlink:href="#DejaVuSans-4e" transform="translate(314.453125 0)"/>
      <use xlink:href="#DejaVuSans-54" transform="translate(389.257812 0)"/>
      <use xlink:href="#DejaVuSans-55" transform="translate(450.341797 0)"/>
      <use xlink:href="#DejaVuSans-4d" transform="translate(523.535156 0)"/>
     </g>
    </g>
    <g id="line2d_85">
     <path d="M 483.580317 265.207452 
L 491.910317 265.207452 
L 500.240317 265.207452 
" style="fill: none; stroke: #ff7f0e; stroke-width: 1.5; stroke-linecap: square"/>
     <g>
      <use xlink:href="#mfe0a31ee5e" x="491.910317" y="265.207452" style="fill: #ff7f0e; stroke: #ff7f0e; stroke-linejoin: miter"/>
     </g>
    </g>
    <g id="text_18">
     <!-- AA_M3 -->
     <g transform="translate(506.904317 268.122952) scale(0.0833 -0.0833)">
      <defs>
       <path id="DejaVuSans-5f" d="M 3263 -1063 
L 3263 -1509 
L -63 -1509 
L -63 -1063 
L 3263 -1063 
z
" transform="scale(0.015625)"/>
      </defs>
      <use xlink:href="#DejaVuSans-41"/>
      <use xlink:href="#DejaVuSans-41" transform="translate(71.158203 0)"/>
      <use xlink:href="#DejaVuSans-5f" transform="translate(139.566406 0)"/>
      <use xlink:href="#DejaVuSans-4d" transform="translate(189.566406 0)"/>
      <use xlink:href="#DejaVuSans-33" transform="translate(275.845703 0)"/>
     </g>
    </g>
    <g id="line2d_86">
     <path d="M 483.580317 277.666008 
L 491.910317 277.666008 
L 500.240317 277.666008 
" style="fill: none; stroke: #2ca02c; stroke-width: 1.5; stroke-linecap: square"/>
     <g>
      <use xlink:href="#m34827362ec" x="491.910317" y="277.666008" style="fill: #2ca02c; stroke: #2ca02c; stroke-linejoin: miter"/>
     </g>
    </g>
    <g id="text_19">
     <!-- AA_M4 -->
     <g transform="translate(506.904317 280.581508) scale(0.0833 -0.0833)">
      <use xlink:href="#DejaVuSans-41"/>
      <use xlink:href="#DejaVuSans-41" transform="translate(71.158203 0)"/>
      <use xlink:href="#DejaVuSans-5f" transform="translate(139.566406 0)"/>
      <use xlink:href="#DejaVuSans-4d" transform="translate(189.566406 0)"/>
      <use xlink:href="#DejaVuSans-34" transform="translate(275.845703 0)"/>
     </g>
    </g>
    <g id="line2d_87">
     <path d="M 483.580317 290.124564 
L 491.910317 290.124564 
L 500.240317 290.124564 
" style="fill: none; stroke: #d62728; stroke-width: 1.5; stroke-linecap: square"/>
     <g>
      <use xlink:href="#m23ad7738bf" x="491.910317" y="290.124564" style="fill: #d62728; stroke: #d62728; stroke-linejoin: miter"/>
     </g>
    </g>
    <g id="text_20">
     <!-- AA_M5 -->
     <g transform="translate(506.904317 293.040064) scale(0.0833 -0.0833)">
      <use xlink:href="#DejaVuSans-41"/>
      <use xlink:href="#DejaVuSans-41" transform="translate(71.158203 0)"/>
      <use xlink:href="#DejaVuSans-5f" transform="translate(139.566406 0)"/>
      <use xlink:href="#DejaVuSans-4d" transform="translate(189.566406 0)"/>
      <use xlink:href="#DejaVuSans-35" transform="translate(275.845703 0)"/>
     </g>
    </g>
    <g id="line2d_88">
     <path d="M 483.580317 302.58312 
L 491.910317 302.58312 
L 500.240317 302.58312 
" style="fill: none; stroke: #ff0000; stroke-width: 1.5; stroke-linecap: square"/>
    </g>
    <g id="text_21">
     <!-- RL Agent -->
     <g transform="translate(506.904317 305.49862) scale(0.0833 -0.0833)">
      <defs>
       <path id="DejaVuSans-52" d="M 2841 2188 
Q 3044 2119 3236 1894 
Q 3428 1669 3622 1275 
L 4263 0 
L 3584 0 
L 2988 1197 
Q 2756 1666 2539 1819 
Q 2322 1972 1947 1972 
L 1259 1972 
L 1259 0 
L 628 0 
L 628 4666 
L 2053 4666 
Q 2853 4666 3247 4331 
Q 3641 3997 3641 3322 
Q 3641 2881 3436 2590 
Q 3231 2300 2841 2188 
z
M 1259 4147 
L 1259 2491 
L 2053 2491 
Q 2509 2491 2742 2702 
Q 2975 2913 2975 3322 
Q 2975 3731 2742 3939 
Q 2509 4147 2053 4147 
L 1259 4147 
z
" transform="scale(0.015625)"/>
      </defs>
      <use xlink:href="#DejaVuSans-52"/>
      <use xlink:href="#DejaVuSans-4c" transform="translate(69.482422 0)"/>
      <use xlink:href="#DejaVuSans-20" transform="translate(125.195312 0)"/>
      <use xlink:href="#DejaVuSans-41" transform="translate(156.982422 0)"/>
      <use xlink:href="#DejaVuSans-67" transform="translate(225.390625 0)"/>
      <use xlink:href="#DejaVuSans-65" transform="translate(288.867188 0)"/>
      <use xlink:href="#DejaVuSans-6e" transform="translate(350.390625 0)"/>
      <use xlink:href="#DejaVuSans-74" transform="translate(413.769531 0)"/>
     </g>
    </g>
   </g>
  </g>
 </g>
 <defs>
  <clipPath id="p9c0c23cb7a">
   <rect x="54.02" y="26.88" width="511.18" height="287.848"/>
  </clipPath>
 </defs>
</svg>
