<?xml version="1.0" encoding="utf-8" standalone="no"?>
<!DOCTYPE svg PUBLIC "-//W3C//DTD SVG 1.1//EN"
  "http://www.w3.org/Graphics/SVG/1.1/DTD/svg11.dtd">
<svg xmlns:xlink="http://www.w3.org/1999/xlink" width="576pt" height="360pt" viewBox="0 0 576 360" xmlns="http://www.w3.org/2000/svg" version="1.1">
 <metadata>
  <rdf:RDF xmlns:dc="http://purl.org/dc/elements/1.1/" xmlns:cc="http://creativecommons.org/ns#" xmlns:rdf="http://www.w3.org/1999/02/22-rdf-syntax-ns#">
   <cc:Work>
    <dc:type rdf:resource="http://purl.org/dc/dcmitype/StillImage"/>
    <dc:date>2026-04-16T11:25:30.674023</dc:date>
    <dc:format>image/svg+xml</dc:format>
    <dc:creator>
     <cc:Agent>
      <dc:title>Matplotlib v3.10.3, https://matplotlib.org/</dc:title>
     </cc:Agent>
    </dc:creator>
   </cc:Work>
  </rdf:RDF>
 </metadata>
 <defs>
  <style type="text/css">*{stroke-linejoin: round; stroke-linecap: butt}</style>
 </defs>
 <g id="figure_1">
  <g id="patch_1">
   <path d="M 0 360 
L 576 360 
L 576 0 
L 0 0 
z
" style="fill: #ffffff"/>
  </g>
  <g id="axes_1">
   <g id="patch_2">
    <path d="M 54.11 314.728 
L 565.2 314.728 
L 565.2 26.88 
L 54.11 26.88 
z
" style="fill: #ffffff"/>
   </g>
   <g id="line2d_1">
    <path d="M -1 100.894674 
L 77.341364 100.867997 
L 123.970366 89.177914 
L 151.246584 80.80669 
L 185.610554 69.663235 
L 197.875586 65.826 
L 208.245523 62.72231 
L 225.151804 58.020129 
L 238.651208 54.657743 
L 249.889176 52.158334 
L 259.515774 50.254334 
L 267.935678 48.76704 
L 278.868558 47.101534 
L 288.270544 45.889524 
L 299.057024 44.73681 
L 310.486375 43.753931 
L 322.046987 42.974231 
L 336.3463 42.258917 
L 353.885728 41.67254 
L 372.962244 41.283101 
L 402.148935 40.99057 
L 452.951146 40.851285 
L 479.208081 40.842908 
L 541.968636 40.842087 
L 541.968636 40.842087 
" clip-path="url(#p0eac3d589e)" style="fill: none; stroke: #000000; stroke-width: 1.5; stroke-linecap: square"/>
    <defs>
     <path id="m3b84cdc9af" d="M 0 3 
C 0.795609 3 1.55874 2.683901 2.12132 2.12132 
C 2.683901 1.55874 3 0.795609 3 0 
C 3 -0.795609 2.683901 -1.55874 2.12132 -2.12132 
C 1.55874 -2.683901 0.795609 -3 0 -3 
C -0.795609 -3 -1.55874 -2.683901 -2.12132 -2.12132 
C -2.683901 -1.55874 -3 -0.795609 -3 0 
C -3 0.795609 -2.683901 1.55874 -2.12132 2.12132 
C -1.55874 2.683901 -0.795609 3 0 3 
z
" style="stroke: #000000"/>
    </defs>
    <g clip-path="url(#p0eac3d589e)">
     <use xlink:href="#m3b84cdc9af" x="-1" y="100.894674" style="stroke: #000000"/>
     <use xlink:href="#m3b84cdc9af" x="77.341364" y="100.867997" style="stroke: #000000"/>
     <use xlink:href="#m3b84cdc9af" x="151.246584" y="80.80669" style="stroke: #000000"/>
     <use xlink:href="#m3b84cdc9af" x="208.245523" y="62.72231" style="stroke: #000000"/>
     <use xlink:href="#m3b84cdc9af" x="263.857373" y="49.464122" style="stroke: #000000"/>
     <use xlink:href="#m3b84cdc9af" x="320.252976" y="43.081158" style="stroke: #000000"/>
     <use xlink:href="#m3b84cdc9af" x="379.298352" y="41.19884" style="stroke: #000000"/>
     <use xlink:href="#m3b84cdc9af" x="438.003156" y="40.867053" style="stroke: #000000"/>
     <use xlink:href="#m3b84cdc9af" x="496.474762" y="40.84143" style="stroke: #000000"/>
    </g>
   </g>
   <g id="line2d_2">
    <path d="M -1 100.894674 
L 77.341364 100.867997 
L 123.970366 89.177914 
L 151.246584 80.80669 
L 185.610554 66.668937 
L 197.875586 61.891364 
L 208.245523 58.186022 
L 217.22837 55.269907 
L 225.151804 52.961522 
L 232.239556 51.107126 
L 238.651208 49.608663 
L 244.504588 48.390084 
L 254.874525 46.559341 
L 263.857373 45.282945 
L 271.780806 44.365274 
L 282.150743 43.411303 
L 293.879744 42.613371 
L 306.144776 42.020753 
L 320.252976 41.562164 
L 341.840898 41.166647 
L 365.966707 40.956405 
L 405.814433 40.838473 
L 454.94452 40.823855 
L 469.857427 40.821391 
L 479.036688 40.819256 
L 541.968636 40.817942 
L 541.968636 40.817942 
" clip-path="url(#p0eac3d589e)" style="fill: none; stroke: #4b0082; stroke-width: 1.5; stroke-linecap: square"/>
    <defs>
     <path id="m430ec6a6dd" d="M -3 3 
L 3 3 
L 3 -3 
L -3 -3 
z
" style="stroke: #4b0082; stroke-linejoin: miter"/>
    </defs>
    <g clip-path="url(#p0eac3d589e)">
     <use xlink:href="#m430ec6a6dd" x="-1" y="100.894674" style="fill: #4b0082; stroke: #4b0082; stroke-linejoin: miter"/>
     <use xlink:href="#m430ec6a6dd" x="77.341364" y="100.867997" style="fill: #4b0082; stroke: #4b0082; stroke-linejoin: miter"/>
     <use xlink:href="#m430ec6a6dd" x="151.246584" y="80.80669" style="fill: #4b0082; stroke: #4b0082; stroke-linejoin: miter"/>
     <use xlink:href="#m430ec6a6dd" x="208.245523" y="58.186022" style="fill: #4b0082; stroke: #4b0082; stroke-linejoin: miter"/>
     <use xlink:href="#m430ec6a6dd" x="259.515774" y="45.864887" style="fill: #4b0082; stroke: #4b0082; stroke-linejoin: miter"/>
     <use xlink:href="#m430ec6a6dd" x="318.409808" y="41.612425" style="fill: #4b0082; stroke: #4b0082; stroke-linejoin: miter"/>
     <use xlink:href="#m430ec6a6dd" x="377.76939" y="40.897275" style="fill: #4b0082; stroke: #4b0082; stroke-linejoin: miter"/>
     <use xlink:href="#m430ec6a6dd" x="436.72783" y="40.826647" style="fill: #4b0082; stroke: #4b0082; stroke-linejoin: miter"/>
     <use xlink:href="#m430ec6a6dd" x="495.272262" y="40.818763" style="fill: #4b0082; stroke: #4b0082; stroke-linejoin: miter"/>
    </g>
   </g>
   <g id="line2d_3">
    <path d="M -1 100.894674 
L 77.341364 100.867997 
L 123.970366 89.177914 
L 151.246584 74.358519 
L 170.599368 66.345855 
L 185.610554 60.50919 
L 197.875586 56.750796 
L 208.245523 53.711821 
L 225.151804 49.811185 
L 238.651208 47.393408 
L 249.889176 45.806413 
L 263.857373 44.300559 
L 275.417985 43.35053 
L 288.270544 42.566067 
L 303.86417 41.911033 
L 320.252976 41.470512 
L 341.840898 41.133304 
L 370.423398 40.924212 
L 427.422337 40.836831 
L 447.965797 40.835845 
L 471.027395 40.833874 
L 483.997517 40.835024 
L 496.076312 40.833874 
L 510.954155 40.834531 
L 524.975721 40.834203 
L 527.777334 40.835845 
L 531.340071 40.834203 
L 539.986907 40.833053 
L 541.833824 40.838473 
L 541.968636 40.837652 
L 541.968636 40.837652 
" clip-path="url(#p0eac3d589e)" style="fill: none; stroke: #1f77b4; stroke-width: 1.5; stroke-linecap: square"/>
    <defs>
     <path id="m19d6a97005" d="M -0 3 
L 3 -3 
L -3 -3 
z
" style="stroke: #1f77b4; stroke-linejoin: miter"/>
    </defs>
    <g clip-path="url(#p0eac3d589e)">
     <use xlink:href="#m19d6a97005" x="-1" y="100.894674" style="fill: #1f77b4; stroke: #1f77b4; stroke-linejoin: miter"/>
     <use xlink:href="#m19d6a97005" x="77.341364" y="100.867997" style="fill: #1f77b4; stroke: #1f77b4; stroke-linejoin: miter"/>
     <use xlink:href="#m19d6a97005" x="151.246584" y="74.358519" style="fill: #1f77b4; stroke: #1f77b4; stroke-linejoin: miter"/>
     <use xlink:href="#m19d6a97005" x="197.875586" y="56.750796" style="fill: #1f77b4; stroke: #1f77b4; stroke-linejoin: miter"/>
     <use xlink:href="#m19d6a97005" x="259.515774" y="44.71595" style="fill: #1f77b4; stroke: #1f77b4; stroke-linejoin: miter"/>
     <use xlink:href="#m19d6a97005" x="318.409808" y="41.509603" style="fill: #1f77b4; stroke: #1f77b4; stroke-linejoin: miter"/>
     <use xlink:href="#m19d6a97005" x="376.991677" y="40.898918" style="fill: #1f77b4; stroke: #1f77b4; stroke-linejoin: miter"/>
     <use xlink:href="#m19d6a97005" x="435.427858" y="40.836502" style="fill: #1f77b4; stroke: #1f77b4; stroke-linejoin: miter"/>
     <use xlink:href="#m19d6a97005" x="494.185023" y="40.834367" style="fill: #1f77b4; stroke: #1f77b4; stroke-linejoin: miter"/>
    </g>
   </g>
   <g id="line2d_4">
    <path d="M -1 100.894674 
L 77.341364 100.867997 
L 123.970366 89.177914 
L 151.246584 80.80669 
L 170.599368 68.984221 
L 185.610554 64.754426 
L 197.875586 58.1558 
L 208.245523 56.368419 
L 217.22837 52.152092 
L 225.151804 50.454228 
L 232.239556 48.083263 
L 238.651208 46.499717 
L 244.504588 45.433399 
L 249.889176 44.311071 
L 259.515774 43.028598 
L 267.935678 42.206192 
L 275.417985 41.670241 
L 282.150743 41.357835 
L 293.879744 41.097333 
L 310.486375 41.028676 
L 541.968636 40.842908 
L 541.968636 40.842908 
" clip-path="url(#p0eac3d589e)" style="fill: none; stroke: #ff7f0e; stroke-width: 1.5; stroke-linecap: square"/>
    <defs>
     <path id="m9571c834a6" d="M -0 3 
L 3 -3 
L -3 -3 
z
" style="stroke: #ff7f0e; stroke-linejoin: miter"/>
    </defs>
    <g clip-path="url(#p0eac3d589e)">
     <use xlink:href="#m9571c834a6" x="-1" y="100.894674" style="fill: #ff7f0e; stroke: #ff7f0e; stroke-linejoin: miter"/>
     <use xlink:href="#m9571c834a6" x="77.341364" y="100.867997" style="fill: #ff7f0e; stroke: #ff7f0e; stroke-linejoin: miter"/>
     <use xlink:href="#m9571c834a6" x="151.246584" y="80.80669" style="fill: #ff7f0e; stroke: #ff7f0e; stroke-linejoin: miter"/>
     <use xlink:href="#m9571c834a6" x="197.875586" y="58.1558" style="fill: #ff7f0e; stroke: #ff7f0e; stroke-linejoin: miter"/>
     <use xlink:href="#m9571c834a6" x="259.515774" y="43.028598" style="fill: #ff7f0e; stroke: #ff7f0e; stroke-linejoin: miter"/>
     <use xlink:href="#m9571c834a6" x="318.409808" y="41.021449" style="fill: #ff7f0e; stroke: #ff7f0e; stroke-linejoin: miter"/>
     <use xlink:href="#m9571c834a6" x="376.204868" y="40.963632" style="fill: #ff7f0e; stroke: #ff7f0e; stroke-linejoin: miter"/>
     <use xlink:href="#m9571c834a6" x="434.768329" y="40.883642" style="fill: #ff7f0e; stroke: #ff7f0e; stroke-linejoin: miter"/>
     <use xlink:href="#m9571c834a6" x="493.496466" y="40.845043" style="fill: #ff7f0e; stroke: #ff7f0e; stroke-linejoin: miter"/>
    </g>
   </g>
   <g id="line2d_5">
    <path d="M -1 100.894674 
L 77.341364 100.867997 
L 123.970366 89.177914 
L 151.246584 80.80669 
L 170.599368 68.984221 
L 185.610554 64.754426 
L 197.875586 58.359143 
L 208.245523 56.604448 
L 217.22837 51.738836 
L 225.151804 50.503996 
L 232.239556 48.029388 
L 249.889176 44.271158 
L 259.515774 42.947458 
L 267.935678 42.173506 
L 278.868558 41.553294 
L 293.879744 41.138067 
L 308.350595 41.017178 
L 541.968636 40.841758 
L 541.968636 40.841758 
" clip-path="url(#p0eac3d589e)" style="fill: none; stroke: #2ca02c; stroke-width: 1.5; stroke-linecap: square"/>
    <defs>
     <path id="maeae49baeb" d="M -0 3 
L 3 -3 
L -3 -3 
z
" style="stroke: #2ca02c; stroke-linejoin: miter"/>
    </defs>
    <g clip-path="url(#p0eac3d589e)">
     <use xlink:href="#maeae49baeb" x="-1" y="100.894674" style="fill: #2ca02c; stroke: #2ca02c; stroke-linejoin: miter"/>
     <use xlink:href="#maeae49baeb" x="77.341364" y="100.867997" style="fill: #2ca02c; stroke: #2ca02c; stroke-linejoin: miter"/>
     <use xlink:href="#maeae49baeb" x="151.246584" y="80.80669" style="fill: #2ca02c; stroke: #2ca02c; stroke-linejoin: miter"/>
     <use xlink:href="#maeae49baeb" x="197.875586" y="58.359143" style="fill: #2ca02c; stroke: #2ca02c; stroke-linejoin: miter"/>
     <use xlink:href="#maeae49baeb" x="259.515774" y="42.947458" style="fill: #2ca02c; stroke: #2ca02c; stroke-linejoin: miter"/>
     <use xlink:href="#maeae49baeb" x="316.514713" y="41.011265" style="fill: #2ca02c; stroke: #2ca02c; stroke-linejoin: miter"/>
     <use xlink:href="#maeae49baeb" x="376.204868" y="40.959855" style="fill: #2ca02c; stroke: #2ca02c; stroke-linejoin: miter"/>
     <use xlink:href="#maeae49baeb" x="434.768329" y="40.892676" style="fill: #2ca02c; stroke: #2ca02c; stroke-linejoin: miter"/>
     <use xlink:href="#maeae49baeb" x="493.357905" y="40.848328" style="fill: #2ca02c; stroke: #2ca02c; stroke-linejoin: miter"/>
    </g>
   </g>
   <g id="line2d_6">
    <path d="M -1 100.894674 
L 77.341364 100.867997 
L 123.970366 89.177914 
L 151.246584 80.80669 
L 170.599368 68.984221 
L 185.610554 64.754426 
L 197.875586 58.359143 
L 208.245523 56.393385 
L 217.22837 52.001638 
L 225.151804 50.382615 
L 238.651208 46.503659 
L 244.504588 45.539341 
L 249.889176 44.473022 
L 254.874525 43.870221 
L 259.515774 43.127477 
L 278.868558 41.579246 
L 288.270544 41.277845 
L 306.144776 41.032618 
L 328.779745 40.987449 
L 541.968636 40.843729 
L 541.968636 40.843729 
" clip-path="url(#p0eac3d589e)" style="fill: none; stroke: #d62728; stroke-width: 1.5; stroke-linecap: square"/>
    <defs>
     <path id="mc78e0a920b" d="M -0 3 
L 3 -3 
L -3 -3 
z
" style="stroke: #d62728; stroke-linejoin: miter"/>
    </defs>
    <g clip-path="url(#p0eac3d589e)">
     <use xlink:href="#mc78e0a920b" x="-1" y="100.894674" style="fill: #d62728; stroke: #d62728; stroke-linejoin: miter"/>
     <use xlink:href="#mc78e0a920b" x="77.341364" y="100.867997" style="fill: #d62728; stroke: #d62728; stroke-linejoin: miter"/>
     <use xlink:href="#mc78e0a920b" x="151.246584" y="80.80669" style="fill: #d62728; stroke: #d62728; stroke-linejoin: miter"/>
     <use xlink:href="#mc78e0a920b" x="197.875586" y="58.359143" style="fill: #d62728; stroke: #d62728; stroke-linejoin: miter"/>
     <use xlink:href="#mc78e0a920b" x="259.515774" y="43.127477" style="fill: #d62728; stroke: #d62728; stroke-linejoin: miter"/>
     <use xlink:href="#mc78e0a920b" x="318.409808" y="40.993855" style="fill: #d62728; stroke: #d62728; stroke-linejoin: miter"/>
     <use xlink:href="#mc78e0a920b" x="376.204868" y="40.953285" style="fill: #d62728; stroke: #d62728; stroke-linejoin: miter"/>
     <use xlink:href="#mc78e0a920b" x="434.768329" y="40.896782" style="fill: #d62728; stroke: #d62728; stroke-linejoin: miter"/>
     <use xlink:href="#mc78e0a920b" x="493.634742" y="40.852599" style="fill: #d62728; stroke: #d62728; stroke-linejoin: miter"/>
    </g>
   </g>
   <g id="line2d_7">
    <path d="M -1 100.894674 
L 77.341364 100.867997 
L 123.970366 89.068851 
L 151.246584 115.369731 
L 170.599368 102.140943 
L 185.610554 94.279062 
L 197.875586 70.814636 
L 208.245523 65.359527 
L 217.22837 83.615056 
L 225.151804 92.398551 
L 232.239556 84.92266 
L 238.651208 74.276065 
L 244.504588 63.378165 
L 249.889176 80.235753 
L 254.874525 62.344533 
L 259.515774 88.308697 
L 263.857373 54.837106 
L 267.935678 78.064353 
L 271.780806 77.676392 
L 275.417985 122.976365 
L 278.868558 70.542965 
L 282.150743 57.62494 
L 285.280211 67.337768 
L 288.270544 95.115593 
L 291.13359 57.065172 
L 293.879744 199.676395 
L 296.518178 51.809464 
L 299.057024 50.978682 
L 301.503527 57.444593 
L 303.86417 54.503347 
L 306.144776 76.095803 
L 308.350595 49.980528 
L 310.486375 67.873391 
L 312.556428 89.883044 
L 314.56468 72.514964 
L 316.514713 69.893023 
L 318.409808 77.993889 
L 320.252976 78.276401 
L 322.046987 52.399619 
L 323.794396 70.509129 
L 325.497561 47.791553 
L 327.158668 63.866812 
L 328.779745 70.86539 
L 330.362675 53.998275 
L 331.909213 69.758173 
L 333.420994 74.356219 
L 334.899547 54.404632 
L 336.3463 70.604394 
L 337.762593 57.380206 
L 339.149682 48.113321 
L 340.508747 57.99467 
L 341.840898 53.521618 
L 343.14718 63.971605 
L 344.428579 103.605735 
L 345.686026 60.915055 
L 346.920399 70.46938 
L 348.132529 46.460133 
L 349.323205 55.484255 
L 350.493173 46.27765 
L 351.64314 44.224511 
L 352.773778 45.315795 
L 353.885728 70.084375 
L 354.979597 113.260417 
L 356.055963 52.950024 
L 357.115377 62.9406 
L 358.158366 62.359972 
L 359.185431 72.995563 
L 360.19705 52.164411 
L 361.193682 78.956237 
L 362.175764 97.43909 
L 363.143715 62.772243 
L 364.097936 78.162904 
L 365.03881 68.467487 
L 365.966707 49.024422 
L 366.881979 61.177364 
L 367.784964 68.270221 
L 368.67599 72.96649 
L 369.555367 62.269634 
L 370.423398 87.277364 
L 372.126563 43.847554 
L 372.962244 44.429332 
L 373.78767 60.247538 
L 374.603092 47.793524 
L 375.408747 51.94415 
L 376.204868 47.65391 
L 376.991677 66.86341 
L 377.76939 64.688397 
L 378.538215 70.257496 
L 379.298352 74.661398 
L 380.049996 53.180633 
L 380.793335 43.110723 
L 381.528549 62.192108 
L 382.255815 66.943729 
L 382.975302 62.057586 
L 383.687176 61.535924 
L 384.391595 62.122465 
L 385.778684 54.758429 
L 386.461648 43.538762 
L 387.137749 62.186852 
L 387.807122 44.45052 
L 388.4699 51.795339 
L 389.126212 67.754309 
L 389.776182 67.734927 
L 390.419933 42.657062 
L 391.057582 58.642312 
L 392.315028 75.010596 
L 392.935046 44.592269 
L 393.549401 61.9569 
L 394.158196 42.350898 
L 394.761532 60.935915 
L 395.359504 64.191044 
L 395.952207 43.895351 
L 396.539735 61.323219 
L 397.122175 68.137507 
L 397.699616 42.67053 
L 398.272142 43.748675 
L 398.839837 73.096577 
L 399.402781 41.882946 
L 399.961053 42.455361 
L 400.514731 41.330405 
L 401.063888 61.142543 
L 401.608599 41.425507 
L 402.148935 41.76485 
L 402.684965 43.526607 
L 403.216758 41.363913 
L 403.744379 48.845388 
L 404.267895 62.330243 
L 404.787368 173.250849 
L 405.302861 42.655584 
L 405.814433 81.675743 
L 406.322144 78.795928 
L 406.826052 49.893639 
L 407.326214 65.270831 
L 407.822684 71.536027 
L 408.315518 73.400935 
L 408.804767 64.315218 
L 409.290483 71.515331 
L 409.772717 69.699699 
L 410.25152 52.328005 
L 410.726938 65.859015 
L 411.19902 70.725612 
L 411.667813 56.147337 
L 412.133361 57.205443 
L 412.595709 69.65338 
L 413.054902 44.454955 
L 413.510981 61.555635 
L 413.963989 49.746141 
L 414.413967 51.759203 
L 414.860955 74.890692 
L 415.304992 59.478843 
L 415.746118 78.052363 
L 416.18437 43.864308 
L 416.619785 41.681081 
L 417.0524 56.384516 
L 417.482251 48.959543 
L 418.333799 59.402466 
L 418.755565 41.988231 
L 419.174703 51.00332 
L 419.591246 63.563933 
L 420.005225 143.221798 
L 420.416673 43.68166 
L 420.825619 62.436185 
L 421.232094 61.853422 
L 421.636128 71.102075 
L 422.037749 70.21282 
L 422.436988 111.170157 
L 422.83387 43.115323 
L 423.228425 59.61665 
L 423.62068 50.581851 
L 424.01066 48.473852 
L 424.398393 96.467544 
L 424.783903 51.53845 
L 425.167217 66.786705 
L 425.54836 46.454548 
L 425.927355 62.156137 
L 426.304226 49.40105 
L 426.678999 65.727449 
L 427.051694 45.942085 
L 427.422337 63.466861 
L 427.790948 47.404248 
L 428.157551 92.649034 
L 428.522167 42.326424 
L 428.884817 41.854202 
L 429.245522 59.07035 
L 429.604304 62.677306 
L 429.961183 70.463796 
L 430.316178 51.055387 
L 430.669309 43.51281 
L 431.020597 59.362553 
L 431.717717 73.777727 
L 432.063586 48.775089 
L 432.407686 43.408675 
L 432.750035 50.515329 
L 433.090651 259.003909 
L 433.42955 43.136675 
L 433.766751 41.241053 
L 434.10227 56.35955 
L 434.436124 43.235062 
L 435.098902 41.336318 
L 435.427858 43.074095 
L 435.755214 55.643907 
L 436.080984 41.794908 
L 436.405185 41.204425 
L 436.72783 68.979786 
L 437.048935 41.256821 
L 437.368515 83.316448 
L 437.686584 46.638181 
L 438.003156 45.503863 
L 438.318245 94.02398 
L 438.631865 41.267333 
L 439.254754 44.836346 
L 439.564048 41.503855 
L 439.871927 41.640676 
L 440.48349 58.408583 
L 440.787199 179.027398 
L 441.089543 48.950345 
L 441.390534 41.451787 
L 441.690184 61.782137 
L 441.988506 41.499748 
L 442.285511 57.056467 
L 442.58121 64.453846 
L 442.875615 43.00626 
L 443.168737 77.333764 
L 443.460587 41.332212 
L 443.751177 41.358492 
L 444.040517 48.709388 
L 444.328618 50.160054 
L 444.61549 151.093698 
L 444.901144 48.577659 
L 445.18559 42.91198 
L 445.468839 43.986511 
L 445.7509 43.660965 
L 446.031783 42.579207 
L 446.590055 65.467604 
L 446.867464 41.277352 
L 447.143733 41.145951 
L 447.418872 43.890916 
L 447.69289 97.258578 
L 447.965797 41.23826 
L 448.237601 45.596993 
L 448.508312 77.770344 
L 448.777937 53.930275 
L 449.046486 55.794854 
L 449.313967 43.780211 
L 449.580389 57.109027 
L 449.84576 41.996444 
L 450.373382 66.376077 
L 450.635649 41.527507 
L 450.896897 48.29334 
L 451.157135 43.635999 
L 451.41637 42.187304 
L 451.67461 57.201665 
L 451.931863 56.388786 
L 452.188135 58.34009 
L 452.443435 52.461541 
L 452.69777 67.54341 
L 452.951146 48.255726 
L 453.203572 41.391014 
L 453.455055 49.200828 
L 453.7056 40.989584 
L 453.955216 45.256665 
L 454.203909 42.424482 
L 454.451687 45.29165 
L 454.698555 41.243024 
L 454.94452 44.998955 
L 455.189589 41.238917 
L 455.433769 50.595977 
L 455.677065 52.669647 
L 455.919485 42.439429 
L 456.161035 54.51698 
L 456.40172 52.207938 
L 456.641547 44.107728 
L 456.880522 52.486179 
L 457.118651 55.844951 
L 457.35594 54.703898 
L 457.592396 41.014879 
L 458.062827 63.26861 
L 458.296815 130.231503 
L 458.529992 40.961169 
L 458.762363 48.272316 
L 458.993934 47.180867 
L 459.224711 63.888494 
L 459.454699 48.985002 
L 459.683904 41.736434 
L 459.91233 51.103184 
L 460.139983 40.870502 
L 460.592991 64.298793 
L 460.818356 40.865739 
L 461.042969 53.846835 
L 461.489957 62.382968 
L 461.712342 54.807376 
L 461.933994 56.302226 
L 462.154919 48.616586 
L 462.37512 45.095206 
L 462.594603 45.656945 
L 462.813372 58.081394 
L 463.031432 51.463551 
L 463.248787 40.595217 
L 463.465442 52.245058 
L 463.681402 44.936868 
L 463.896671 57.011791 
L 464.111253 44.543158 
L 464.325153 54.042951 
L 464.538375 200.170955 
L 464.750923 62.87375 
L 464.962802 64.567508 
L 465.174015 45.937321 
L 465.384567 41.969671 
L 465.594463 44.419148 
L 465.803705 44.585699 
L 466.012299 45.415003 
L 466.220248 42.932182 
L 466.427556 45.637235 
L 466.634228 44.666018 
L 466.840266 40.177526 
L 467.045675 44.242742 
L 467.250459 40.487633 
L 467.454621 41.24056 
L 467.658166 41.326299 
L 467.861096 54.544739 
L 468.063416 43.387487 
L 468.26513 40.626589 
L 468.46624 43.250665 
L 468.666752 55.943009 
L 468.866667 39.964 
L 469.06599 52.492092 
L 469.264724 43.269062 
L 469.462873 40.941951 
L 469.857427 47.241476 
L 470.053841 54.675482 
L 470.249682 42.258096 
L 470.444955 44.054511 
L 470.833808 40.718898 
L 471.027395 46.437466 
L 471.220426 40.180155 
L 471.412906 45.897244 
L 471.604836 85.414263 
L 471.79622 44.108221 
L 471.987061 44.926027 
L 472.177362 42.504637 
L 472.367126 53.506014 
L 472.556357 40.946879 
L 472.745057 235.398392 
L 472.933229 43.103825 
L 473.120876 40.810879 
L 473.308001 49.604557 
L 473.494607 41.12542 
L 473.866273 46.317234 
L 474.051339 43.869071 
L 474.235897 46.767611 
L 474.419951 42.935632 
L 474.603502 52.564691 
L 474.786553 40.732531 
L 474.969108 48.265253 
L 475.151169 50.960286 
L 475.332738 61.666504 
L 475.513819 57.068129 
L 475.694414 59.14065 
L 475.874525 55.091366 
L 476.054155 42.476057 
L 476.233306 57.257675 
L 476.411982 58.09437 
L 476.767917 61.602118 
L 476.94518 63.094832 
L 477.298312 44.700346 
L 477.474185 57.233037 
L 477.649599 301.644 
L 477.824558 77.603629 
L 477.999062 44.228288 
L 478.173115 102.523813 
L 478.346719 45.252723 
L 478.519876 41.988724 
L 478.692588 55.623376 
L 479.036688 42.057874 
L 479.208081 42.358453 
L 479.549561 43.267912 
L 479.719653 56.264284 
L 479.889316 60.339683 
L 480.227364 44.490597 
L 480.395753 41.098975 
L 480.731272 47.752461 
L 480.898406 45.09422 
L 481.065126 51.44959 
L 481.397332 43.440704 
L 481.727904 53.334043 
L 481.892584 41.308231 
L 482.220738 62.765837 
L 482.384216 44.350655 
L 482.547299 63.91116 
L 482.872282 45.721003 
L 483.034187 48.439195 
L 483.195703 41.498106 
L 483.356832 42.046705 
L 483.517576 48.397968 
L 483.677937 43.546646 
L 483.837917 48.590799 
L 483.997517 49.617861 
L 484.15674 54.590893 
L 484.315586 40.762918 
L 484.474058 52.242102 
L 484.632158 42.526646 
L 484.789887 47.643398 
L 484.947247 211.469627 
L 485.10424 56.518216 
L 485.260868 48.507523 
L 485.417131 50.343687 
L 485.573033 43.785467 
L 485.728574 45.716568 
L 485.883756 146.8414 
L 486.038581 48.327011 
L 486.19305 42.21227 
L 486.347166 115.781344 
L 486.500929 44.749293 
L 486.654342 40.871323 
L 486.807405 148.034028 
L 486.960122 42.949757 
L 487.112492 40.979072 
L 487.264518 42.818521 
L 487.416201 41.250908 
L 487.567543 40.94228 
L 487.869209 51.27302 
L 488.019536 50.023397 
L 488.169528 41.045922 
L 488.617508 49.580412 
L 488.766175 48.540374 
L 488.914513 43.648153 
L 489.062525 45.882954 
L 489.210212 49.861117 
L 489.357576 59.410679 
L 489.504617 42.44025 
L 489.651338 55.157231 
L 489.797739 52.030382 
L 489.943823 41.443903 
L 490.08959 46.575437 
L 490.235041 47.152944 
L 490.380179 45.602742 
L 490.525005 48.033987 
L 490.669519 153.091649 
L 490.813724 54.76697 
L 490.95762 43.361042 
L 491.101209 47.596258 
L 491.387471 41.246144 
L 491.530146 43.584588 
L 491.67252 50.625706 
L 491.814593 41.132483 
L 492.239019 53.90498 
L 492.379902 40.708879 
L 492.52049 50.585793 
L 492.660785 50.362904 
L 492.800788 51.389146 
L 492.940501 46.30935 
L 493.079923 52.824044 
L 493.219058 52.618237 
L 493.357905 42.359767 
L 493.496466 44.053197 
L 493.634742 50.285378 
L 493.772735 49.762402 
L 493.910445 53.296594 
L 494.047874 178.373021 
L 494.185023 55.163473 
L 494.321893 46.842181 
L 494.458484 54.309695 
L 494.594799 52.144044 
L 494.730839 64.79516 
L 494.866604 54.180922 
L 495.002095 55.350719 
L 495.137314 67.757758 
L 495.272262 68.8814 
L 495.406939 50.402982 
L 495.541348 62.692252 
L 495.675488 53.607357 
L 495.809362 55.315569 
L 495.942969 55.138671 
L 496.209391 56.649124 
L 496.342208 43.155071 
L 496.474762 65.77229 
L 496.607056 58.958495 
L 496.73909 63.359769 
L 496.870866 41.54114 
L 497.002384 52.034817 
L 497.133645 51.35646 
L 497.264651 43.003303 
L 497.395402 56.144709 
L 497.5259 40.504058 
L 497.656144 55.20355 
L 497.786138 168.824774 
L 497.91588 61.987451 
L 498.045373 58.351259 
L 498.174617 43.780868 
L 498.303613 59.192882 
L 498.432362 57.357375 
L 498.560865 101.133591 
L 498.689123 52.742575 
L 498.817138 49.849948 
L 498.944909 58.182409 
L 499.072437 57.084061 
L 499.199725 50.266817 
L 499.326772 56.776583 
L 499.45358 50.241523 
L 499.580149 58.176167 
L 499.70648 53.241898 
L 499.832575 58.051172 
L 499.958433 41.309545 
L 500.084057 56.753424 
L 500.209446 54.273888 
L 500.334603 58.104225 
L 500.459526 54.690758 
L 500.584219 64.405228 
L 500.70868 56.048129 
L 500.956914 69.318801 
L 501.080689 50.747252 
L 501.204236 69.358057 
L 501.327557 63.07545 
L 501.573522 69.43312 
L 501.696168 44.498646 
L 501.818591 71.935814 
L 501.940792 66.773072 
L 502.062771 69.091641 
L 502.184529 156.148034 
L 502.427387 56.589337 
L 502.548487 57.504051 
L 502.669371 66.894618 
L 502.910487 63.610745 
L 503.030722 70.346192 
L 503.150742 63.005808 
L 503.390143 75.545233 
L 503.628694 72.214877 
L 503.747653 144.894039 
L 503.984943 72.410172 
L 504.221398 73.771485 
L 504.339314 43.237033 
L 504.457025 75.309369 
L 504.57453 66.031971 
L 504.808925 73.509176 
L 504.925817 70.798868 
L 505.042507 56.837028 
L 505.27528 74.236973 
L 505.391365 73.163427 
L 505.507251 73.66078 
L 505.622937 73.14306 
L 505.853714 75.682054 
L 505.968806 75.057572 
L 506.083702 69.703805 
L 506.198401 76.254962 
L 506.312906 76.329861 
L 506.427216 76.155098 
L 506.768985 77.767059 
L 506.995871 78.00358 
L 507.221993 78.089812 
L 507.33477 76.354499 
L 507.559759 78.085706 
L 507.783997 77.26215 
L 508.00749 78.0793 
L 508.118959 77.884991 
L 508.341344 78.231725 
L 508.452262 78.213493 
L 508.562996 43.727979 
L 508.673549 80.045058 
L 508.783921 75.124915 
L 508.894112 77.702672 
L 509.004122 76.852508 
L 509.113953 77.741107 
L 509.223605 44.143206 
L 509.333078 79.628024 
L 509.551492 76.530904 
L 509.660434 77.389938 
L 509.769199 77.035977 
L 509.877789 69.520665 
L 509.986204 76.049156 
L 510.094445 74.616393 
L 510.310405 75.685175 
L 510.418125 71.730172 
L 510.525673 60.545161 
L 510.63305 73.476162 
L 510.740255 66.078947 
L 510.84729 68.758212 
L 511.060851 41.850753 
L 511.485948 71.936143 
L 511.591804 56.327685 
L 511.803017 67.603526 
L 511.908376 75.729687 
L 512.01357 54.685995 
L 512.118599 73.819775 
L 512.223465 73.217959 
L 512.328168 72.930191 
L 512.641301 76.181871 
L 512.84925 78.007029 
L 512.952984 78.092276 
L 513.056559 73.935408 
L 513.159974 78.750759 
L 513.26323 71.269612 
L 513.469268 78.341445 
L 513.572051 52.366111 
L 513.879461 74.359833 
L 513.98162 75.926953 
L 514.083623 75.313475 
L 514.185472 52.372846 
L 514.287168 70.071728 
L 514.38871 67.407739 
L 514.490098 72.312278 
L 514.591335 66.23827 
L 514.692419 74.059253 
L 514.793351 70.514056 
L 515.195573 77.084759 
L 515.595404 78.211522 
L 515.694992 69.543496 
L 515.794432 78.537068 
L 515.893726 77.944778 
L 516.091875 78.055648 
L 516.190731 43.919168 
L 516.289442 79.340749 
L 516.388008 74.859156 
L 516.584708 77.885319 
L 516.682843 67.690908 
L 516.780835 76.077243 
L 516.878684 74.670103 
L 517.073957 76.730305 
L 517.171381 77.440527 
L 517.268664 76.17875 
L 517.46281 77.101184 
L 517.559673 74.593726 
L 517.752982 77.679184 
L 517.849429 77.208769 
L 517.945737 77.621203 
L 518.041908 74.846345 
L 518.137941 49.735301 
L 518.233838 78.967077 
L 518.329598 75.488074 
L 518.425222 77.826353 
L 518.52071 76.312122 
L 518.711281 77.233571 
L 518.806364 74.1762 
L 518.996129 77.530865 
L 519.185359 77.668508 
L 519.279775 75.629987 
L 519.374059 77.422952 
L 519.468211 53.36558 
L 519.562231 80.805376 
L 519.65612 78.261126 
L 519.749878 73.453495 
L 519.937003 78.114942 
L 520.123609 78.136624 
L 520.216718 72.665418 
L 520.309699 78.130054 
L 520.402551 77.877764 
L 520.495275 77.037783 
L 520.680341 77.827667 
L 520.8649 78.018363 
L 520.956989 62.253538 
L 521.140791 77.884662 
L 521.232504 60.528901 
L 521.324092 64.663266 
L 521.415555 83.903481 
L 521.506895 83.756477 
L 521.871017 75.236605 
L 521.961741 78.23386 
L 522.052342 78.076179 
L 522.142821 78.23616 
L 522.233179 78.178672 
L 522.503527 78.292662 
L 522.593402 78.165532 
L 522.772792 78.378894 
L 523.219187 78.399754 
L 523.308112 78.13843 
L 523.396919 75.338277 
L 523.574182 78.355735 
L 523.662639 78.144343 
L 523.839205 52.206623 
L 524.015308 69.041545 
L 524.103187 72.652935 
L 524.190952 71.286365 
L 524.278602 77.985841 
L 524.366138 74.718721 
L 524.45356 75.937465 
L 524.540869 75.549997 
L 524.628064 76.890614 
L 524.715147 72.146056 
L 524.888975 76.918373 
L 524.975721 77.105126 
L 525.062355 75.444219 
L 525.32159 77.589175 
L 525.407781 78.048585 
L 525.493861 77.889261 
L 525.57983 78.13531 
L 525.665691 78.097203 
L 526.00804 78.374459 
L 526.093355 78.315986 
L 526.178563 76.086769 
L 526.348655 78.362633 
L 526.518318 78.402053 
L 526.60299 56.874313 
L 526.687555 80.42612 
L 526.772014 78.522614 
L 526.856366 78.345223 
L 527.024756 78.462334 
L 527.443894 78.492063 
L 527.61082 78.489107 
L 527.694129 78.344566 
L 527.777334 78.476623 
L 527.860436 78.211194 
L 527.943436 74.181784 
L 528.109129 78.555793 
L 528.191823 74.081263 
L 528.274416 79.139213 
L 528.356907 77.78759 
L 528.439297 78.729899 
L 528.521586 78.463812 
L 528.603775 67.181729 
L 528.685863 79.941251 
L 528.767851 77.738972 
L 528.84974 79.21214 
L 528.931529 78.348179 
L 529.013218 78.51243 
L 529.257694 78.446566 
L 529.663189 78.450508 
L 529.743996 77.27989 
L 529.824705 78.514401 
L 529.905318 78.447715 
L 530.30694 78.33159 
L 530.386977 69.211709 
L 530.466919 76.656885 
L 530.546767 76.476209 
L 530.62652 76.343658 
L 530.706178 72.969775 
L 530.865212 75.775842 
L 530.944588 75.758924 
L 531.023871 77.29073 
L 531.103061 74.438345 
L 531.26116 76.503146 
L 531.340071 76.682672 
L 531.57625 77.920141 
L 531.811602 78.20331 
L 531.968047 78.251435 
L 532.046133 75.228721 
L 532.124129 78.819251 
L 532.202035 78.175715 
L 532.357576 78.28215 
L 532.435212 78.021484 
L 532.590215 78.246836 
L 532.667583 77.955783 
L 532.822052 78.231725 
L 533.129931 78.307938 
L 533.589124 78.43359 
L 533.665352 74.552664 
L 533.741494 78.652208 
L 533.81755 78.462991 
L 533.89352 78.301367 
L 533.969404 78.370517 
L 534.120917 78.384643 
L 534.196545 78.160933 
L 534.272088 76.825242 
L 534.347547 78.348672 
L 534.422921 78.323213 
L 534.573417 78.403367 
L 534.648538 78.408295 
L 534.723576 78.219406 
L 534.873401 78.360005 
L 536.35358 78.496498 
L 536.426741 78.503068 
L 536.499823 77.948063 
L 536.572825 78.599155 
L 536.645748 76.81473 
L 536.718592 78.254063 
L 536.791357 77.984199 
L 537.081633 78.320256 
L 537.298522 78.381522 
L 537.370663 76.960914 
L 537.442726 63.514822 
L 537.514713 77.935909 
L 537.586622 76.094325 
L 537.730211 78.205609 
L 538.016473 78.421599 
L 538.159149 78.430962 
L 538.230373 78.184256 
L 538.301522 78.26244 
L 538.372596 78.503889 
L 538.443595 78.447058 
L 538.79747 78.47958 
L 539.499683 78.495841 
L 539.84806 78.50159 
L 539.917519 76.115349 
L 539.986907 78.907618 
L 540.056223 78.483358 
L 540.125468 78.454614 
L 540.194642 76.894885 
L 540.263745 78.223184 
L 540.332776 77.998324 
L 540.470628 78.225648 
L 540.539448 77.709242 
L 540.676876 78.165203 
L 540.745486 78.193619 
L 540.814025 75.205726 
L 540.882495 78.336024 
L 540.950895 78.286749 
L 541.155679 78.358527 
L 541.427758 78.454285 
L 541.968636 78.489271 
L 541.968636 78.489271 
" clip-path="url(#p0eac3d589e)" style="fill: none; stroke: #ff0000; stroke-width: 1.5; stroke-linecap: square"/>
   </g>
   <g id="matplotlib.axis_1">
    <g id="xtick_1">
     <g id="line2d_8">
      <path d="M 77.341364 314.728 
L 77.341364 26.88 
" clip-path="url(#p0eac3d589e)" style="fill: none; stroke: #b0b0b0; stroke-opacity: 0.3; stroke-width: 0.8; stroke-linecap: square"/>
     </g>
     <g id="line2d_9">
      <defs>
       <path id="m30da0b7f8b" d="M 0 0 
L 0 3.5 
" style="stroke: #000000; stroke-width: 0.8"/>
      </defs>
      <g>
       <use xlink:href="#m30da0b7f8b" x="77.341364" y="314.728" style="stroke: #000000; stroke-width: 0.8"/>
      </g>
     </g>
     <g id="text_1">
      <!-- $\mathdefault{10^{0}}$ -->
      <g transform="translate(68.541364 329.326437) scale(0.1 -0.1)">
       <defs>
        <path id="DejaVuSans-31" d="M 794 531 
L 1825 531 
L 1825 4091 
L 703 3866 
L 703 4441 
L 1819 4666 
L 2450 4666 
L 2450 531 
L 3481 531 
L 3481 0 
L 794 0 
L 794 531 
z
" transform="scale(0.015625)"/>
        <path id="DejaVuSans-30" d="M 2034 4250 
Q 1547 4250 1301 3770 
Q 1056 3291 1056 2328 
Q 1056 1369 1301 889 
Q 1547 409 2034 409 
Q 2525 409 2770 889 
Q 3016 1369 3016 2328 
Q 3016 3291 2770 3770 
Q 2525 4250 2034 4250 
z
M 2034 4750 
Q 2819 4750 3233 4129 
Q 3647 3509 3647 2328 
Q 3647 1150 3233 529 
Q 2819 -91 2034 -91 
Q 1250 -91 836 529 
Q 422 1150 422 2328 
Q 422 3509 836 4129 
Q 1250 4750 2034 4750 
z
" transform="scale(0.015625)"/>
       </defs>
       <use xlink:href="#DejaVuSans-31" transform="translate(0 0.765625)"/>
       <use xlink:href="#DejaVuSans-30" transform="translate(63.623047 0.765625)"/>
       <use xlink:href="#DejaVuSans-30" transform="translate(128.203125 39.046875) scale(0.7)"/>
      </g>
     </g>
    </g>
    <g id="xtick_2">
     <g id="line2d_10">
      <path d="M 232.239556 314.728 
L 232.239556 26.88 
" clip-path="url(#p0eac3d589e)" style="fill: none; stroke: #b0b0b0; stroke-opacity: 0.3; stroke-width: 0.8; stroke-linecap: square"/>
     </g>
     <g id="line2d_11">
      <g>
       <use xlink:href="#m30da0b7f8b" x="232.239556" y="314.728" style="stroke: #000000; stroke-width: 0.8"/>
      </g>
     </g>
     <g id="text_2">
      <!-- $\mathdefault{10^{1}}$ -->
      <g transform="translate(223.439556 329.326437) scale(0.1 -0.1)">
       <use xlink:href="#DejaVuSans-31" transform="translate(0 0.684375)"/>
       <use xlink:href="#DejaVuSans-30" transform="translate(63.623047 0.684375)"/>
       <use xlink:href="#DejaVuSans-31" transform="translate(128.203125 38.965625) scale(0.7)"/>
      </g>
     </g>
    </g>
    <g id="xtick_3">
     <g id="line2d_12">
      <path d="M 387.137749 314.728 
L 387.137749 26.88 
" clip-path="url(#p0eac3d589e)" style="fill: none; stroke: #b0b0b0; stroke-opacity: 0.3; stroke-width: 0.8; stroke-linecap: square"/>
     </g>
     <g id="line2d_13">
      <g>
       <use xlink:href="#m30da0b7f8b" x="387.137749" y="314.728" style="stroke: #000000; stroke-width: 0.8"/>
      </g>
     </g>
     <g id="text_3">
      <!-- $\mathdefault{10^{2}}$ -->
      <g transform="translate(378.337749 329.326437) scale(0.1 -0.1)">
       <defs>
        <path id="DejaVuSans-32" d="M 1228 531 
L 3431 531 
L 3431 0 
L 469 0 
L 469 531 
Q 828 903 1448 1529 
Q 2069 2156 2228 2338 
Q 2531 2678 2651 2914 
Q 2772 3150 2772 3378 
Q 2772 3750 2511 3984 
Q 2250 4219 1831 4219 
Q 1534 4219 1204 4116 
Q 875 4013 500 3803 
L 500 4441 
Q 881 4594 1212 4672 
Q 1544 4750 1819 4750 
Q 2544 4750 2975 4387 
Q 3406 4025 3406 3419 
Q 3406 3131 3298 2873 
Q 3191 2616 2906 2266 
Q 2828 2175 2409 1742 
Q 1991 1309 1228 531 
z
" transform="scale(0.015625)"/>
       </defs>
       <use xlink:href="#DejaVuSans-31" transform="translate(0 0.765625)"/>
       <use xlink:href="#DejaVuSans-30" transform="translate(63.623047 0.765625)"/>
       <use xlink:href="#DejaVuSans-32" transform="translate(128.203125 39.046875) scale(0.7)"/>
      </g>
     </g>
    </g>
    <g id="xtick_4">
     <g id="line2d_14">
      <path d="M 542.035941 314.728 
L 542.035941 26.88 
" clip-path="url(#p0eac3d589e)" style="fill: none; stroke: #b0b0b0; stroke-opacity: 0.3; stroke-width: 0.8; stroke-linecap: square"/>
     </g>
     <g id="line2d_15">
      <g>
       <use xlink:href="#m30da0b7f8b" x="542.035941" y="314.728" style="stroke: #000000; stroke-width: 0.8"/>
      </g>
     </g>
     <g id="text_4">
      <!-- $\mathdefault{10^{3}}$ -->
      <g transform="translate(533.235941 329.326437) scale(0.1 -0.1)">
       <defs>
        <path id="DejaVuSans-33" d="M 2597 2516 
Q 3050 2419 3304 2112 
Q 3559 1806 3559 1356 
Q 3559 666 3084 287 
Q 2609 -91 1734 -91 
Q 1441 -91 1130 -33 
Q 819 25 488 141 
L 488 750 
Q 750 597 1062 519 
Q 1375 441 1716 441 
Q 2309 441 2620 675 
Q 2931 909 2931 1356 
Q 2931 1769 2642 2001 
Q 2353 2234 1838 2234 
L 1294 2234 
L 1294 2753 
L 1863 2753 
Q 2328 2753 2575 2939 
Q 2822 3125 2822 3475 
Q 2822 3834 2567 4026 
Q 2313 4219 1838 4219 
Q 1578 4219 1281 4162 
Q 984 4106 628 3988 
L 628 4550 
Q 988 4650 1302 4700 
Q 1616 4750 1894 4750 
Q 2613 4750 3031 4423 
Q 3450 4097 3450 3541 
Q 3450 3153 3228 2886 
Q 3006 2619 2597 2516 
z
" transform="scale(0.015625)"/>
       </defs>
       <use xlink:href="#DejaVuSans-31" transform="translate(0 0.765625)"/>
       <use xlink:href="#DejaVuSans-30" transform="translate(63.623047 0.765625)"/>
       <use xlink:href="#DejaVuSans-33" transform="translate(128.203125 39.046875) scale(0.7)"/>
      </g>
     </g>
    </g>
    <g id="xtick_5">
     <g id="line2d_16">
      <path d="M 62.330178 314.728 
L 62.330178 26.88 
" clip-path="url(#p0eac3d589e)" style="fill: none; stroke: #b0b0b0; stroke-opacity: 0.3; stroke-width: 0.8; stroke-linecap: square"/>
     </g>
     <g id="line2d_17">
      <defs>
       <path id="me6af45d07f" d="M 0 0 
L 0 2 
" style="stroke: #000000; stroke-width: 0.6"/>
      </defs>
      <g>
       <use xlink:href="#me6af45d07f" x="62.330178" y="314.728" style="stroke: #000000; stroke-width: 0.6"/>
      </g>
     </g>
    </g>
    <g id="xtick_6">
     <g id="line2d_18">
      <path d="M 70.253611 314.728 
L 70.253611 26.88 
" clip-path="url(#p0eac3d589e)" style="fill: none; stroke: #b0b0b0; stroke-opacity: 0.3; stroke-width: 0.8; stroke-linecap: square"/>
     </g>
     <g id="line2d_19">
      <g>
       <use xlink:href="#me6af45d07f" x="70.253611" y="314.728" style="stroke: #000000; stroke-width: 0.6"/>
      </g>
     </g>
    </g>
    <g id="xtick_7">
     <g id="line2d_20">
      <path d="M 123.970366 314.728 
L 123.970366 26.88 
" clip-path="url(#p0eac3d589e)" style="fill: none; stroke: #b0b0b0; stroke-opacity: 0.3; stroke-width: 0.8; stroke-linecap: square"/>
     </g>
     <g id="line2d_21">
      <g>
       <use xlink:href="#me6af45d07f" x="123.970366" y="314.728" style="stroke: #000000; stroke-width: 0.6"/>
      </g>
     </g>
    </g>
    <g id="xtick_8">
     <g id="line2d_22">
      <path d="M 151.246584 314.728 
L 151.246584 26.88 
" clip-path="url(#p0eac3d589e)" style="fill: none; stroke: #b0b0b0; stroke-opacity: 0.3; stroke-width: 0.8; stroke-linecap: square"/>
     </g>
     <g id="line2d_23">
      <g>
       <use xlink:href="#me6af45d07f" x="151.246584" y="314.728" style="stroke: #000000; stroke-width: 0.6"/>
      </g>
     </g>
    </g>
    <g id="xtick_9">
     <g id="line2d_24">
      <path d="M 170.599368 314.728 
L 170.599368 26.88 
" clip-path="url(#p0eac3d589e)" style="fill: none; stroke: #b0b0b0; stroke-opacity: 0.3; stroke-width: 0.8; stroke-linecap: square"/>
     </g>
     <g id="line2d_25">
      <g>
       <use xlink:href="#me6af45d07f" x="170.599368" y="314.728" style="stroke: #000000; stroke-width: 0.6"/>
      </g>
     </g>
    </g>
    <g id="xtick_10">
     <g id="line2d_26">
      <path d="M 185.610554 314.728 
L 185.610554 26.88 
" clip-path="url(#p0eac3d589e)" style="fill: none; stroke: #b0b0b0; stroke-opacity: 0.3; stroke-width: 0.8; stroke-linecap: square"/>
     </g>
     <g id="line2d_27">
      <g>
       <use xlink:href="#me6af45d07f" x="185.610554" y="314.728" style="stroke: #000000; stroke-width: 0.6"/>
      </g>
     </g>
    </g>
    <g id="xtick_11">
     <g id="line2d_28">
      <path d="M 197.875586 314.728 
L 197.875586 26.88 
" clip-path="url(#p0eac3d589e)" style="fill: none; stroke: #b0b0b0; stroke-opacity: 0.3; stroke-width: 0.8; stroke-linecap: square"/>
     </g>
     <g id="line2d_29">
      <g>
       <use xlink:href="#me6af45d07f" x="197.875586" y="314.728" style="stroke: #000000; stroke-width: 0.6"/>
      </g>
     </g>
    </g>
    <g id="xtick_12">
     <g id="line2d_30">
      <path d="M 208.245523 314.728 
L 208.245523 26.88 
" clip-path="url(#p0eac3d589e)" style="fill: none; stroke: #b0b0b0; stroke-opacity: 0.3; stroke-width: 0.8; stroke-linecap: square"/>
     </g>
     <g id="line2d_31">
      <g>
       <use xlink:href="#me6af45d07f" x="208.245523" y="314.728" style="stroke: #000000; stroke-width: 0.6"/>
      </g>
     </g>
    </g>
    <g id="xtick_13">
     <g id="line2d_32">
      <path d="M 217.22837 314.728 
L 217.22837 26.88 
" clip-path="url(#p0eac3d589e)" style="fill: none; stroke: #b0b0b0; stroke-opacity: 0.3; stroke-width: 0.8; stroke-linecap: square"/>
     </g>
     <g id="line2d_33">
      <g>
       <use xlink:href="#me6af45d07f" x="217.22837" y="314.728" style="stroke: #000000; stroke-width: 0.6"/>
      </g>
     </g>
    </g>
    <g id="xtick_14">
     <g id="line2d_34">
      <path d="M 225.151804 314.728 
L 225.151804 26.88 
" clip-path="url(#p0eac3d589e)" style="fill: none; stroke: #b0b0b0; stroke-opacity: 0.3; stroke-width: 0.8; stroke-linecap: square"/>
     </g>
     <g id="line2d_35">
      <g>
       <use xlink:href="#me6af45d07f" x="225.151804" y="314.728" style="stroke: #000000; stroke-width: 0.6"/>
      </g>
     </g>
    </g>
    <g id="xtick_15">
     <g id="line2d_36">
      <path d="M 278.868558 314.728 
L 278.868558 26.88 
" clip-path="url(#p0eac3d589e)" style="fill: none; stroke: #b0b0b0; stroke-opacity: 0.3; stroke-width: 0.8; stroke-linecap: square"/>
     </g>
     <g id="line2d_37">
      <g>
       <use xlink:href="#me6af45d07f" x="278.868558" y="314.728" style="stroke: #000000; stroke-width: 0.6"/>
      </g>
     </g>
    </g>
    <g id="xtick_16">
     <g id="line2d_38">
      <path d="M 306.144776 314.728 
L 306.144776 26.88 
" clip-path="url(#p0eac3d589e)" style="fill: none; stroke: #b0b0b0; stroke-opacity: 0.3; stroke-width: 0.8; stroke-linecap: square"/>
     </g>
     <g id="line2d_39">
      <g>
       <use xlink:href="#me6af45d07f" x="306.144776" y="314.728" style="stroke: #000000; stroke-width: 0.6"/>
      </g>
     </g>
    </g>
    <g id="xtick_17">
     <g id="line2d_40">
      <path d="M 325.497561 314.728 
L 325.497561 26.88 
" clip-path="url(#p0eac3d589e)" style="fill: none; stroke: #b0b0b0; stroke-opacity: 0.3; stroke-width: 0.8; stroke-linecap: square"/>
     </g>
     <g id="line2d_41">
      <g>
       <use xlink:href="#me6af45d07f" x="325.497561" y="314.728" style="stroke: #000000; stroke-width: 0.6"/>
      </g>
     </g>
    </g>
    <g id="xtick_18">
     <g id="line2d_42">
      <path d="M 340.508747 314.728 
L 340.508747 26.88 
" clip-path="url(#p0eac3d589e)" style="fill: none; stroke: #b0b0b0; stroke-opacity: 0.3; stroke-width: 0.8; stroke-linecap: square"/>
     </g>
     <g id="line2d_43">
      <g>
       <use xlink:href="#me6af45d07f" x="340.508747" y="314.728" style="stroke: #000000; stroke-width: 0.6"/>
      </g>
     </g>
    </g>
    <g id="xtick_19">
     <g id="line2d_44">
      <path d="M 352.773778 314.728 
L 352.773778 26.88 
" clip-path="url(#p0eac3d589e)" style="fill: none; stroke: #b0b0b0; stroke-opacity: 0.3; stroke-width: 0.8; stroke-linecap: square"/>
     </g>
     <g id="line2d_45">
      <g>
       <use xlink:href="#me6af45d07f" x="352.773778" y="314.728" style="stroke: #000000; stroke-width: 0.6"/>
      </g>
     </g>
    </g>
    <g id="xtick_20">
     <g id="line2d_46">
      <path d="M 363.143715 314.728 
L 363.143715 26.88 
" clip-path="url(#p0eac3d589e)" style="fill: none; stroke: #b0b0b0; stroke-opacity: 0.3; stroke-width: 0.8; stroke-linecap: square"/>
     </g>
     <g id="line2d_47">
      <g>
       <use xlink:href="#me6af45d07f" x="363.143715" y="314.728" style="stroke: #000000; stroke-width: 0.6"/>
      </g>
     </g>
    </g>
    <g id="xtick_21">
     <g id="line2d_48">
      <path d="M 372.126563 314.728 
L 372.126563 26.88 
" clip-path="url(#p0eac3d589e)" style="fill: none; stroke: #b0b0b0; stroke-opacity: 0.3; stroke-width: 0.8; stroke-linecap: square"/>
     </g>
     <g id="line2d_49">
      <g>
       <use xlink:href="#me6af45d07f" x="372.126563" y="314.728" style="stroke: #000000; stroke-width: 0.6"/>
      </g>
     </g>
    </g>
    <g id="xtick_22">
     <g id="line2d_50">
      <path d="M 380.049996 314.728 
L 380.049996 26.88 
" clip-path="url(#p0eac3d589e)" style="fill: none; stroke: #b0b0b0; stroke-opacity: 0.3; stroke-width: 0.8; stroke-linecap: square"/>
     </g>
     <g id="line2d_51">
      <g>
       <use xlink:href="#me6af45d07f" x="380.049996" y="314.728" style="stroke: #000000; stroke-width: 0.6"/>
      </g>
     </g>
    </g>
    <g id="xtick_23">
     <g id="line2d_52">
      <path d="M 433.766751 314.728 
L 433.766751 26.88 
" clip-path="url(#p0eac3d589e)" style="fill: none; stroke: #b0b0b0; stroke-opacity: 0.3; stroke-width: 0.8; stroke-linecap: square"/>
     </g>
     <g id="line2d_53">
      <g>
       <use xlink:href="#me6af45d07f" x="433.766751" y="314.728" style="stroke: #000000; stroke-width: 0.6"/>
      </g>
     </g>
    </g>
    <g id="xtick_24">
     <g id="line2d_54">
      <path d="M 461.042969 314.728 
L 461.042969 26.88 
" clip-path="url(#p0eac3d589e)" style="fill: none; stroke: #b0b0b0; stroke-opacity: 0.3; stroke-width: 0.8; stroke-linecap: square"/>
     </g>
     <g id="line2d_55">
      <g>
       <use xlink:href="#me6af45d07f" x="461.042969" y="314.728" style="stroke: #000000; stroke-width: 0.6"/>
      </g>
     </g>
    </g>
    <g id="xtick_25">
     <g id="line2d_56">
      <path d="M 480.395753 314.728 
L 480.395753 26.88 
" clip-path="url(#p0eac3d589e)" style="fill: none; stroke: #b0b0b0; stroke-opacity: 0.3; stroke-width: 0.8; stroke-linecap: square"/>
     </g>
     <g id="line2d_57">
      <g>
       <use xlink:href="#me6af45d07f" x="480.395753" y="314.728" style="stroke: #000000; stroke-width: 0.6"/>
      </g>
     </g>
    </g>
    <g id="xtick_26">
     <g id="line2d_58">
      <path d="M 495.406939 314.728 
L 495.406939 26.88 
" clip-path="url(#p0eac3d589e)" style="fill: none; stroke: #b0b0b0; stroke-opacity: 0.3; stroke-width: 0.8; stroke-linecap: square"/>
     </g>
     <g id="line2d_59">
      <g>
       <use xlink:href="#me6af45d07f" x="495.406939" y="314.728" style="stroke: #000000; stroke-width: 0.6"/>
      </g>
     </g>
    </g>
    <g id="xtick_27">
     <g id="line2d_60">
      <path d="M 507.671971 314.728 
L 507.671971 26.88 
" clip-path="url(#p0eac3d589e)" style="fill: none; stroke: #b0b0b0; stroke-opacity: 0.3; stroke-width: 0.8; stroke-linecap: square"/>
     </g>
     <g id="line2d_61">
      <g>
       <use xlink:href="#me6af45d07f" x="507.671971" y="314.728" style="stroke: #000000; stroke-width: 0.6"/>
      </g>
     </g>
    </g>
    <g id="xtick_28">
     <g id="line2d_62">
      <path d="M 518.041908 314.728 
L 518.041908 26.88 
" clip-path="url(#p0eac3d589e)" style="fill: none; stroke: #b0b0b0; stroke-opacity: 0.3; stroke-width: 0.8; stroke-linecap: square"/>
     </g>
     <g id="line2d_63">
      <g>
       <use xlink:href="#me6af45d07f" x="518.041908" y="314.728" style="stroke: #000000; stroke-width: 0.6"/>
      </g>
     </g>
    </g>
    <g id="xtick_29">
     <g id="line2d_64">
      <path d="M 527.024756 314.728 
L 527.024756 26.88 
" clip-path="url(#p0eac3d589e)" style="fill: none; stroke: #b0b0b0; stroke-opacity: 0.3; stroke-width: 0.8; stroke-linecap: square"/>
     </g>
     <g id="line2d_65">
      <g>
       <use xlink:href="#me6af45d07f" x="527.024756" y="314.728" style="stroke: #000000; stroke-width: 0.6"/>
      </g>
     </g>
    </g>
    <g id="xtick_30">
     <g id="line2d_66">
      <path d="M 534.948189 314.728 
L 534.948189 26.88 
" clip-path="url(#p0eac3d589e)" style="fill: none; stroke: #b0b0b0; stroke-opacity: 0.3; stroke-width: 0.8; stroke-linecap: square"/>
     </g>
     <g id="line2d_67">
      <g>
       <use xlink:href="#me6af45d07f" x="534.948189" y="314.728" style="stroke: #000000; stroke-width: 0.6"/>
      </g>
     </g>
    </g>
    <g id="text_5">
     <!-- Iteration (Log Scale) -->
     <g transform="translate(258.981562 343.004562) scale(0.1 -0.1)">
      <defs>
       <path id="DejaVuSans-49" d="M 628 4666 
L 1259 4666 
L 1259 0 
L 628 0 
L 628 4666 
z
" transform="scale(0.015625)"/>
       <path id="DejaVuSans-74" d="M 1172 4494 
L 1172 3500 
L 2356 3500 
L 2356 3053 
L 1172 3053 
L 1172 1153 
Q 1172 725 1289 603 
Q 1406 481 1766 481 
L 2356 481 
L 2356 0 
L 1766 0 
Q 1100 0 847 248 
Q 594 497 594 1153 
L 594 3053 
L 172 3053 
L 172 3500 
L 594 3500 
L 594 4494 
L 1172 4494 
z
" transform="scale(0.015625)"/>
       <path id="DejaVuSans-65" d="M 3597 1894 
L 3597 1613 
L 953 1613 
Q 991 1019 1311 708 
Q 1631 397 2203 397 
Q 2534 397 2845 478 
Q 3156 559 3463 722 
L 3463 178 
Q 3153 47 2828 -22 
Q 2503 -91 2169 -91 
Q 1331 -91 842 396 
Q 353 884 353 1716 
Q 353 2575 817 3079 
Q 1281 3584 2069 3584 
Q 2775 3584 3186 3129 
Q 3597 2675 3597 1894 
z
M 3022 2063 
Q 3016 2534 2758 2815 
Q 2500 3097 2075 3097 
Q 1594 3097 1305 2825 
Q 1016 2553 972 2059 
L 3022 2063 
z
" transform="scale(0.015625)"/>
       <path id="DejaVuSans-72" d="M 2631 2963 
Q 2534 3019 2420 3045 
Q 2306 3072 2169 3072 
Q 1681 3072 1420 2755 
Q 1159 2438 1159 1844 
L 1159 0 
L 581 0 
L 581 3500 
L 1159 3500 
L 1159 2956 
Q 1341 3275 1631 3429 
Q 1922 3584 2338 3584 
Q 2397 3584 2469 3576 
Q 2541 3569 2628 3553 
L 2631 2963 
z
" transform="scale(0.015625)"/>
       <path id="DejaVuSans-61" d="M 2194 1759 
Q 1497 1759 1228 1600 
Q 959 1441 959 1056 
Q 959 750 1161 570 
Q 1363 391 1709 391 
Q 2188 391 2477 730 
Q 2766 1069 2766 1631 
L 2766 1759 
L 2194 1759 
z
M 3341 1997 
L 3341 0 
L 2766 0 
L 2766 531 
Q 2569 213 2275 61 
Q 1981 -91 1556 -91 
Q 1019 -91 701 211 
Q 384 513 384 1019 
Q 384 1609 779 1909 
Q 1175 2209 1959 2209 
L 2766 2209 
L 2766 2266 
Q 2766 2663 2505 2880 
Q 2244 3097 1772 3097 
Q 1472 3097 1187 3025 
Q 903 2953 641 2809 
L 641 3341 
Q 956 3463 1253 3523 
Q 1550 3584 1831 3584 
Q 2591 3584 2966 3190 
Q 3341 2797 3341 1997 
z
" transform="scale(0.015625)"/>
       <path id="DejaVuSans-69" d="M 603 3500 
L 1178 3500 
L 1178 0 
L 603 0 
L 603 3500 
z
M 603 4863 
L 1178 4863 
L 1178 4134 
L 603 4134 
L 603 4863 
z
" transform="scale(0.015625)"/>
       <path id="DejaVuSans-6f" d="M 1959 3097 
Q 1497 3097 1228 2736 
Q 959 2375 959 1747 
Q 959 1119 1226 758 
Q 1494 397 1959 397 
Q 2419 397 2687 759 
Q 2956 1122 2956 1747 
Q 2956 2369 2687 2733 
Q 2419 3097 1959 3097 
z
M 1959 3584 
Q 2709 3584 3137 3096 
Q 3566 2609 3566 1747 
Q 3566 888 3137 398 
Q 2709 -91 1959 -91 
Q 1206 -91 779 398 
Q 353 888 353 1747 
Q 353 2609 779 3096 
Q 1206 3584 1959 3584 
z
" transform="scale(0.015625)"/>
       <path id="DejaVuSans-6e" d="M 3513 2113 
L 3513 0 
L 2938 0 
L 2938 2094 
Q 2938 2591 2744 2837 
Q 2550 3084 2163 3084 
Q 1697 3084 1428 2787 
Q 1159 2491 1159 1978 
L 1159 0 
L 581 0 
L 581 3500 
L 1159 3500 
L 1159 2956 
Q 1366 3272 1645 3428 
Q 1925 3584 2291 3584 
Q 2894 3584 3203 3211 
Q 3513 2838 3513 2113 
z
" transform="scale(0.015625)"/>
       <path id="DejaVuSans-20" transform="scale(0.015625)"/>
       <path id="DejaVuSans-28" d="M 1984 4856 
Q 1566 4138 1362 3434 
Q 1159 2731 1159 2009 
Q 1159 1288 1364 580 
Q 1569 -128 1984 -844 
L 1484 -844 
Q 1016 -109 783 600 
Q 550 1309 550 2009 
Q 550 2706 781 3412 
Q 1013 4119 1484 4856 
L 1984 4856 
z
" transform="scale(0.015625)"/>
       <path id="DejaVuSans-4c" d="M 628 4666 
L 1259 4666 
L 1259 531 
L 3531 531 
L 3531 0 
L 628 0 
L 628 4666 
z
" transform="scale(0.015625)"/>
       <path id="DejaVuSans-67" d="M 2906 1791 
Q 2906 2416 2648 2759 
Q 2391 3103 1925 3103 
Q 1463 3103 1205 2759 
Q 947 2416 947 1791 
Q 947 1169 1205 825 
Q 1463 481 1925 481 
Q 2391 481 2648 825 
Q 2906 1169 2906 1791 
z
M 3481 434 
Q 3481 -459 3084 -895 
Q 2688 -1331 1869 -1331 
Q 1566 -1331 1297 -1286 
Q 1028 -1241 775 -1147 
L 775 -588 
Q 1028 -725 1275 -790 
Q 1522 -856 1778 -856 
Q 2344 -856 2625 -561 
Q 2906 -266 2906 331 
L 2906 616 
Q 2728 306 2450 153 
Q 2172 0 1784 0 
Q 1141 0 747 490 
Q 353 981 353 1791 
Q 353 2603 747 3093 
Q 1141 3584 1784 3584 
Q 2172 3584 2450 3431 
Q 2728 3278 2906 2969 
L 2906 3500 
L 3481 3500 
L 3481 434 
z
" transform="scale(0.015625)"/>
       <path id="DejaVuSans-53" d="M 3425 4513 
L 3425 3897 
Q 3066 4069 2747 4153 
Q 2428 4238 2131 4238 
Q 1616 4238 1336 4038 
Q 1056 3838 1056 3469 
Q 1056 3159 1242 3001 
Q 1428 2844 1947 2747 
L 2328 2669 
Q 3034 2534 3370 2195 
Q 3706 1856 3706 1288 
Q 3706 609 3251 259 
Q 2797 -91 1919 -91 
Q 1588 -91 1214 -16 
Q 841 59 441 206 
L 441 856 
Q 825 641 1194 531 
Q 1563 422 1919 422 
Q 2459 422 2753 634 
Q 3047 847 3047 1241 
Q 3047 1584 2836 1778 
Q 2625 1972 2144 2069 
L 1759 2144 
Q 1053 2284 737 2584 
Q 422 2884 422 3419 
Q 422 4038 858 4394 
Q 1294 4750 2059 4750 
Q 2388 4750 2728 4690 
Q 3069 4631 3425 4513 
z
" transform="scale(0.015625)"/>
       <path id="DejaVuSans-63" d="M 3122 3366 
L 3122 2828 
Q 2878 2963 2633 3030 
Q 2388 3097 2138 3097 
Q 1578 3097 1268 2742 
Q 959 2388 959 1747 
Q 959 1106 1268 751 
Q 1578 397 2138 397 
Q 2388 397 2633 464 
Q 2878 531 3122 666 
L 3122 134 
Q 2881 22 2623 -34 
Q 2366 -91 2075 -91 
Q 1284 -91 818 406 
Q 353 903 353 1747 
Q 353 2603 823 3093 
Q 1294 3584 2113 3584 
Q 2378 3584 2631 3529 
Q 2884 3475 3122 3366 
z
" transform="scale(0.015625)"/>
       <path id="DejaVuSans-6c" d="M 603 4863 
L 1178 4863 
L 1178 0 
L 603 0 
L 603 4863 
z
" transform="scale(0.015625)"/>
       <path id="DejaVuSans-29" d="M 513 4856 
L 1013 4856 
Q 1481 4119 1714 3412 
Q 1947 2706 1947 2009 
Q 1947 1309 1714 600 
Q 1481 -109 1013 -844 
L 513 -844 
Q 928 -128 1133 580 
Q 1338 1288 1338 2009 
Q 1338 2731 1133 3434 
Q 928 4138 513 4856 
z
" transform="scale(0.015625)"/>
      </defs>
      <use xlink:href="#DejaVuSans-49"/>
      <use xlink:href="#DejaVuSans-74" transform="translate(29.492188 0)"/>
      <use xlink:href="#DejaVuSans-65" transform="translate(68.701172 0)"/>
      <use xlink:href="#DejaVuSans-72" transform="translate(130.224609 0)"/>
      <use xlink:href="#DejaVuSans-61" transform="translate(171.337891 0)"/>
      <use xlink:href="#DejaVuSans-74" transform="translate(232.617188 0)"/>
      <use xlink:href="#DejaVuSans-69" transform="translate(271.826172 0)"/>
      <use xlink:href="#DejaVuSans-6f" transform="translate(299.609375 0)"/>
      <use xlink:href="#DejaVuSans-6e" transform="translate(360.791016 0)"/>
      <use xlink:href="#DejaVuSans-20" transform="translate(424.169922 0)"/>
      <use xlink:href="#DejaVuSans-28" transform="translate(455.957031 0)"/>
      <use xlink:href="#DejaVuSans-4c" transform="translate(494.970703 0)"/>
      <use xlink:href="#DejaVuSans-6f" transform="translate(548.933594 0)"/>
      <use xlink:href="#DejaVuSans-67" transform="translate(610.115234 0)"/>
      <use xlink:href="#DejaVuSans-20" transform="translate(673.591797 0)"/>
      <use xlink:href="#DejaVuSans-53" transform="translate(705.378906 0)"/>
      <use xlink:href="#DejaVuSans-63" transform="translate(768.855469 0)"/>
      <use xlink:href="#DejaVuSans-61" transform="translate(823.835938 0)"/>
      <use xlink:href="#DejaVuSans-6c" transform="translate(885.115234 0)"/>
      <use xlink:href="#DejaVuSans-65" transform="translate(912.898438 0)"/>
      <use xlink:href="#DejaVuSans-29" transform="translate(974.421875 0)"/>
     </g>
    </g>
   </g>
   <g id="matplotlib.axis_2">
    <g id="ytick_1">
     <g id="line2d_68">
      <path d="M 54.11 260.839074 
L 565.2 260.839074 
" clip-path="url(#p0eac3d589e)" style="fill: none; stroke: #b0b0b0; stroke-opacity: 0.3; stroke-width: 0.8; stroke-linecap: square"/>
     </g>
     <g id="line2d_69">
      <defs>
       <path id="mfa1725c3c1" d="M 0 0 
L -3.5 0 
" style="stroke: #000000; stroke-width: 0.8"/>
      </defs>
      <g>
       <use xlink:href="#mfa1725c3c1" x="54.11" y="260.839074" style="stroke: #000000; stroke-width: 0.8"/>
      </g>
     </g>
     <g id="text_6">
      <!-- 0.88 -->
      <g transform="translate(24.844375 264.638293) scale(0.1 -0.1)">
       <defs>
        <path id="DejaVuSans-2e" d="M 684 794 
L 1344 794 
L 1344 0 
L 684 0 
L 684 794 
z
" transform="scale(0.015625)"/>
        <path id="DejaVuSans-38" d="M 2034 2216 
Q 1584 2216 1326 1975 
Q 1069 1734 1069 1313 
Q 1069 891 1326 650 
Q 1584 409 2034 409 
Q 2484 409 2743 651 
Q 3003 894 3003 1313 
Q 3003 1734 2745 1975 
Q 2488 2216 2034 2216 
z
M 1403 2484 
Q 997 2584 770 2862 
Q 544 3141 544 3541 
Q 544 4100 942 4425 
Q 1341 4750 2034 4750 
Q 2731 4750 3128 4425 
Q 3525 4100 3525 3541 
Q 3525 3141 3298 2862 
Q 3072 2584 2669 2484 
Q 3125 2378 3379 2068 
Q 3634 1759 3634 1313 
Q 3634 634 3220 271 
Q 2806 -91 2034 -91 
Q 1263 -91 848 271 
Q 434 634 434 1313 
Q 434 1759 690 2068 
Q 947 2378 1403 2484 
z
M 1172 3481 
Q 1172 3119 1398 2916 
Q 1625 2713 2034 2713 
Q 2441 2713 2670 2916 
Q 2900 3119 2900 3481 
Q 2900 3844 2670 4047 
Q 2441 4250 2034 4250 
Q 1625 4250 1398 4047 
Q 1172 3844 1172 3481 
z
" transform="scale(0.015625)"/>
       </defs>
       <use xlink:href="#DejaVuSans-30"/>
       <use xlink:href="#DejaVuSans-2e" transform="translate(63.623047 0)"/>
       <use xlink:href="#DejaVuSans-38" transform="translate(95.410156 0)"/>
       <use xlink:href="#DejaVuSans-38" transform="translate(159.033203 0)"/>
      </g>
     </g>
    </g>
    <g id="ytick_2">
     <g id="line2d_70">
      <path d="M 54.11 205.725535 
L 565.2 205.725535 
" clip-path="url(#p0eac3d589e)" style="fill: none; stroke: #b0b0b0; stroke-opacity: 0.3; stroke-width: 0.8; stroke-linecap: square"/>
     </g>
     <g id="line2d_71">
      <g>
       <use xlink:href="#mfa1725c3c1" x="54.11" y="205.725535" style="stroke: #000000; stroke-width: 0.8"/>
      </g>
     </g>
     <g id="text_7">
      <!-- 0.90 -->
      <g transform="translate(24.844375 209.524754) scale(0.1 -0.1)">
       <defs>
        <path id="DejaVuSans-39" d="M 703 97 
L 703 672 
Q 941 559 1184 500 
Q 1428 441 1663 441 
Q 2288 441 2617 861 
Q 2947 1281 2994 2138 
Q 2813 1869 2534 1725 
Q 2256 1581 1919 1581 
Q 1219 1581 811 2004 
Q 403 2428 403 3163 
Q 403 3881 828 4315 
Q 1253 4750 1959 4750 
Q 2769 4750 3195 4129 
Q 3622 3509 3622 2328 
Q 3622 1225 3098 567 
Q 2575 -91 1691 -91 
Q 1453 -91 1209 -44 
Q 966 3 703 97 
z
M 1959 2075 
Q 2384 2075 2632 2365 
Q 2881 2656 2881 3163 
Q 2881 3666 2632 3958 
Q 2384 4250 1959 4250 
Q 1534 4250 1286 3958 
Q 1038 3666 1038 3163 
Q 1038 2656 1286 2365 
Q 1534 2075 1959 2075 
z
" transform="scale(0.015625)"/>
       </defs>
       <use xlink:href="#DejaVuSans-30"/>
       <use xlink:href="#DejaVuSans-2e" transform="translate(63.623047 0)"/>
       <use xlink:href="#DejaVuSans-39" transform="translate(95.410156 0)"/>
       <use xlink:href="#DejaVuSans-30" transform="translate(159.033203 0)"/>
      </g>
     </g>
    </g>
    <g id="ytick_3">
     <g id="line2d_72">
      <path d="M 54.11 150.611995 
L 565.2 150.611995 
" clip-path="url(#p0eac3d589e)" style="fill: none; stroke: #b0b0b0; stroke-opacity: 0.3; stroke-width: 0.8; stroke-linecap: square"/>
     </g>
     <g id="line2d_73">
      <g>
       <use xlink:href="#mfa1725c3c1" x="54.11" y="150.611995" style="stroke: #000000; stroke-width: 0.8"/>
      </g>
     </g>
     <g id="text_8">
      <!-- 0.92 -->
      <g transform="translate(24.844375 154.411214) scale(0.1 -0.1)">
       <use xlink:href="#DejaVuSans-30"/>
       <use xlink:href="#DejaVuSans-2e" transform="translate(63.623047 0)"/>
       <use xlink:href="#DejaVuSans-39" transform="translate(95.410156 0)"/>
       <use xlink:href="#DejaVuSans-32" transform="translate(159.033203 0)"/>
      </g>
     </g>
    </g>
    <g id="ytick_4">
     <g id="line2d_74">
      <path d="M 54.11 95.498456 
L 565.2 95.498456 
" clip-path="url(#p0eac3d589e)" style="fill: none; stroke: #b0b0b0; stroke-opacity: 0.3; stroke-width: 0.8; stroke-linecap: square"/>
     </g>
     <g id="line2d_75">
      <g>
       <use xlink:href="#mfa1725c3c1" x="54.11" y="95.498456" style="stroke: #000000; stroke-width: 0.8"/>
      </g>
     </g>
     <g id="text_9">
      <!-- 0.94 -->
      <g transform="translate(24.844375 99.297675) scale(0.1 -0.1)">
       <defs>
        <path id="DejaVuSans-34" d="M 2419 4116 
L 825 1625 
L 2419 1625 
L 2419 4116 
z
M 2253 4666 
L 3047 4666 
L 3047 1625 
L 3713 1625 
L 3713 1100 
L 3047 1100 
L 3047 0 
L 2419 0 
L 2419 1100 
L 313 1100 
L 313 1709 
L 2253 4666 
z
" transform="scale(0.015625)"/>
       </defs>
       <use xlink:href="#DejaVuSans-30"/>
       <use xlink:href="#DejaVuSans-2e" transform="translate(63.623047 0)"/>
       <use xlink:href="#DejaVuSans-39" transform="translate(95.410156 0)"/>
       <use xlink:href="#DejaVuSans-34" transform="translate(159.033203 0)"/>
      </g>
     </g>
    </g>
    <g id="ytick_5">
     <g id="line2d_76">
      <path d="M 54.11 40.384917 
L 565.2 40.384917 
" clip-path="url(#p0eac3d589e)" style="fill: none; stroke: #b0b0b0; stroke-opacity: 0.3; stroke-width: 0.8; stroke-linecap: square"/>
     </g>
     <g id="line2d_77">
      <g>
       <use xlink:href="#mfa1725c3c1" x="54.11" y="40.384917" style="stroke: #000000; stroke-width: 0.8"/>
      </g>
     </g>
     <g id="text_10">
      <!-- 0.96 -->
      <g transform="translate(24.844375 44.184135) scale(0.1 -0.1)">
       <defs>
        <path id="DejaVuSans-36" d="M 2113 2584 
Q 1688 2584 1439 2293 
Q 1191 2003 1191 1497 
Q 1191 994 1439 701 
Q 1688 409 2113 409 
Q 2538 409 2786 701 
Q 3034 994 3034 1497 
Q 3034 2003 2786 2293 
Q 2538 2584 2113 2584 
z
M 3366 4563 
L 3366 3988 
Q 3128 4100 2886 4159 
Q 2644 4219 2406 4219 
Q 1781 4219 1451 3797 
Q 1122 3375 1075 2522 
Q 1259 2794 1537 2939 
Q 1816 3084 2150 3084 
Q 2853 3084 3261 2657 
Q 3669 2231 3669 1497 
Q 3669 778 3244 343 
Q 2819 -91 2113 -91 
Q 1303 -91 875 529 
Q 447 1150 447 2328 
Q 447 3434 972 4092 
Q 1497 4750 2381 4750 
Q 2619 4750 2861 4703 
Q 3103 4656 3366 4563 
z
" transform="scale(0.015625)"/>
       </defs>
       <use xlink:href="#DejaVuSans-30"/>
       <use xlink:href="#DejaVuSans-2e" transform="translate(63.623047 0)"/>
       <use xlink:href="#DejaVuSans-39" transform="translate(95.410156 0)"/>
       <use xlink:href="#DejaVuSans-36" transform="translate(159.033203 0)"/>
      </g>
     </g>
    </g>
    <g id="text_11">
     <!-- SSIM Index -->
     <g transform="translate(18.764688 198.296969) rotate(-90) scale(0.1 -0.1)">
      <defs>
       <path id="DejaVuSans-4d" d="M 628 4666 
L 1569 4666 
L 2759 1491 
L 3956 4666 
L 4897 4666 
L 4897 0 
L 4281 0 
L 4281 4097 
L 3078 897 
L 2444 897 
L 1241 4097 
L 1241 0 
L 628 0 
L 628 4666 
z
" transform="scale(0.015625)"/>
       <path id="DejaVuSans-64" d="M 2906 2969 
L 2906 4863 
L 3481 4863 
L 3481 0 
L 2906 0 
L 2906 525 
Q 2725 213 2448 61 
Q 2172 -91 1784 -91 
Q 1150 -91 751 415 
Q 353 922 353 1747 
Q 353 2572 751 3078 
Q 1150 3584 1784 3584 
Q 2172 3584 2448 3432 
Q 2725 3281 2906 2969 
z
M 947 1747 
Q 947 1113 1208 752 
Q 1469 391 1925 391 
Q 2381 391 2643 752 
Q 2906 1113 2906 1747 
Q 2906 2381 2643 2742 
Q 2381 3103 1925 3103 
Q 1469 3103 1208 2742 
Q 947 2381 947 1747 
z
" transform="scale(0.015625)"/>
       <path id="DejaVuSans-78" d="M 3513 3500 
L 2247 1797 
L 3578 0 
L 2900 0 
L 1881 1375 
L 863 0 
L 184 0 
L 1544 1831 
L 300 3500 
L 978 3500 
L 1906 2253 
L 2834 3500 
L 3513 3500 
z
" transform="scale(0.015625)"/>
      </defs>
      <use xlink:href="#DejaVuSans-53"/>
      <use xlink:href="#DejaVuSans-53" transform="translate(63.476562 0)"/>
      <use xlink:href="#DejaVuSans-49" transform="translate(126.953125 0)"/>
      <use xlink:href="#DejaVuSans-4d" transform="translate(156.445312 0)"/>
      <use xlink:href="#DejaVuSans-20" transform="translate(242.724609 0)"/>
      <use xlink:href="#DejaVuSans-49" transform="translate(274.511719 0)"/>
      <use xlink:href="#DejaVuSans-6e" transform="translate(304.003906 0)"/>
      <use xlink:href="#DejaVuSans-64" transform="translate(367.382812 0)"/>
      <use xlink:href="#DejaVuSans-65" transform="translate(430.859375 0)"/>
      <use xlink:href="#DejaVuSans-78" transform="translate(490.632812 0)"/>
     </g>
    </g>
   </g>
   <g id="patch_3">
    <path d="M 54.11 314.728 
L 54.11 26.88 
" style="fill: none; stroke: #000000; stroke-width: 0.8; stroke-linejoin: miter; stroke-linecap: square"/>
   </g>
   <g id="patch_4">
    <path d="M 565.2 314.728 
L 565.2 26.88 
" style="fill: none; stroke: #000000; stroke-width: 0.8; stroke-linejoin: miter; stroke-linecap: square"/>
   </g>
   <g id="patch_5">
    <path d="M 54.11 314.728 
L 565.2 314.728 
" style="fill: none; stroke: #000000; stroke-width: 0.8; stroke-linejoin: miter; stroke-linecap: square"/>
   </g>
   <g id="patch_6">
    <path d="M 54.11 26.88 
L 565.2 26.88 
" style="fill: none; stroke: #000000; stroke-width: 0.8; stroke-linejoin: miter; stroke-linecap: square"/>
   </g>
   <g id="text_12">
    <!-- SSIM Convergence - Image 1 -->
    <g transform="translate(223.125625 20.88) scale(0.12 -0.12)">
     <defs>
      <path id="DejaVuSans-43" d="M 4122 4306 
L 4122 3641 
Q 3803 3938 3442 4084 
Q 3081 4231 2675 4231 
Q 1875 4231 1450 3742 
Q 1025 3253 1025 2328 
Q 1025 1406 1450 917 
Q 1875 428 2675 428 
Q 3081 428 3442 575 
Q 3803 722 4122 1019 
L 4122 359 
Q 3791 134 3420 21 
Q 3050 -91 2638 -91 
Q 1578 -91 968 557 
Q 359 1206 359 2328 
Q 359 3453 968 4101 
Q 1578 4750 2638 4750 
Q 3056 4750 3426 4639 
Q 3797 4528 4122 4306 
z
" transform="scale(0.015625)"/>
      <path id="DejaVuSans-76" d="M 191 3500 
L 800 3500 
L 1894 563 
L 2988 3500 
L 3597 3500 
L 2284 0 
L 1503 0 
L 191 3500 
z
" transform="scale(0.015625)"/>
      <path id="DejaVuSans-2d" d="M 313 2009 
L 1997 2009 
L 1997 1497 
L 313 1497 
L 313 2009 
z
" transform="scale(0.015625)"/>
      <path id="DejaVuSans-6d" d="M 3328 2828 
Q 3544 3216 3844 3400 
Q 4144 3584 4550 3584 
Q 5097 3584 5394 3201 
Q 5691 2819 5691 2113 
L 5691 0 
L 5113 0 
L 5113 2094 
Q 5113 2597 4934 2840 
Q 4756 3084 4391 3084 
Q 3944 3084 3684 2787 
Q 3425 2491 3425 1978 
L 3425 0 
L 2847 0 
L 2847 2094 
Q 2847 2600 2669 2842 
Q 2491 3084 2119 3084 
Q 1678 3084 1418 2786 
Q 1159 2488 1159 1978 
L 1159 0 
L 581 0 
L 581 3500 
L 1159 3500 
L 1159 2956 
Q 1356 3278 1631 3431 
Q 1906 3584 2284 3584 
Q 2666 3584 2933 3390 
Q 3200 3197 3328 2828 
z
" transform="scale(0.015625)"/>
     </defs>
     <use xlink:href="#DejaVuSans-53"/>
     <use xlink:href="#DejaVuSans-53" transform="translate(63.476562 0)"/>
     <use xlink:href="#DejaVuSans-49" transform="translate(126.953125 0)"/>
     <use xlink:href="#DejaVuSans-4d" transform="translate(156.445312 0)"/>
     <use xlink:href="#DejaVuSans-20" transform="translate(242.724609 0)"/>
     <use xlink:href="#DejaVuSans-43" transform="translate(274.511719 0)"/>
     <use xlink:href="#DejaVuSans-6f" transform="translate(344.335938 0)"/>
     <use xlink:href="#DejaVuSans-6e" transform="translate(405.517578 0)"/>
     <use xlink:href="#DejaVuSans-76" transform="translate(468.896484 0)"/>
     <use xlink:href="#DejaVuSans-65" transform="translate(528.076172 0)"/>
     <use xlink:href="#DejaVuSans-72" transform="translate(589.599609 0)"/>
     <use xlink:href="#DejaVuSans-67" transform="translate(628.962891 0)"/>
     <use xlink:href="#DejaVuSans-65" transform="translate(692.439453 0)"/>
     <use xlink:href="#DejaVuSans-6e" transform="translate(753.962891 0)"/>
     <use xlink:href="#DejaVuSans-63" transform="translate(817.341797 0)"/>
     <use xlink:href="#DejaVuSans-65" transform="translate(872.322266 0)"/>
     <use xlink:href="#DejaVuSans-20" transform="translate(933.845703 0)"/>
     <use xlink:href="#DejaVuSans-2d" transform="translate(965.632812 0)"/>
     <use xlink:href="#DejaVuSans-20" transform="translate(1001.716797 0)"/>
     <use xlink:href="#DejaVuSans-49" transform="translate(1033.503906 0)"/>
     <use xlink:href="#DejaVuSans-6d" transform="translate(1062.996094 0)"/>
     <use xlink:href="#DejaVuSans-61" transform="translate(1160.408203 0)"/>
     <use xlink:href="#DejaVuSans-67" transform="translate(1221.6875 0)"/>
     <use xlink:href="#DejaVuSans-65" transform="translate(1285.164062 0)"/>
     <use xlink:href="#DejaVuSans-20" transform="translate(1346.6875 0)"/>
     <use xlink:href="#DejaVuSans-31" transform="translate(1378.474609 0)"/>
    </g>
   </g>
   <g id="legend_1">
    <g id="patch_7">
     <path d="M 483.914317 312.563 
L 561.369 312.563 
Q 563.035 312.563 563.035 310.897 
L 563.035 225.446819 
Q 563.035 223.780819 561.369 223.780819 
L 483.914317 223.780819 
Q 482.248317 223.780819 482.248317 225.446819 
L 482.248317 310.897 
Q 482.248317 312.563 483.914317 312.563 
z
" style="fill: #4d4d4d; opacity: 0.5; stroke: #4d4d4d; stroke-linejoin: miter"/>
    </g>
    <g id="patch_8">
     <path d="M 481.914317 310.563 
L 559.369 310.563 
Q 561.035 310.563 561.035 308.897 
L 561.035 223.446819 
Q 561.035 221.780819 559.369 221.780819 
L 481.914317 221.780819 
Q 480.248317 221.780819 480.248317 223.446819 
L 480.248317 308.897 
Q 480.248317 310.563 481.914317 310.563 
z
" style="fill: #ffffff; stroke: #cccccc; stroke-linejoin: miter"/>
    </g>
    <g id="line2d_78">
     <path d="M 483.580317 228.526817 
L 491.910317 228.526817 
L 500.240317 228.526817 
" style="fill: none; stroke: #000000; stroke-width: 1.5; stroke-linecap: square"/>
     <g>
      <use xlink:href="#m3b84cdc9af" x="491.910317" y="228.526817" style="stroke: #000000"/>
     </g>
    </g>
    <g id="text_13">
     <!-- ADMM -->
     <g transform="translate(506.904317 231.442317) scale(0.0833 -0.0833)">
      <defs>
       <path id="DejaVuSans-41" d="M 2188 4044 
L 1331 1722 
L 3047 1722 
L 2188 4044 
z
M 1831 4666 
L 2547 4666 
L 4325 0 
L 3669 0 
L 3244 1197 
L 1141 1197 
L 716 0 
L 50 0 
L 1831 4666 
z
" transform="scale(0.015625)"/>
       <path id="DejaVuSans-44" d="M 1259 4147 
L 1259 519 
L 2022 519 
Q 2988 519 3436 956 
Q 3884 1394 3884 2338 
Q 3884 3275 3436 3711 
Q 2988 4147 2022 4147 
L 1259 4147 
z
M 628 4666 
L 1925 4666 
Q 3281 4666 3915 4102 
Q 4550 3538 4550 2338 
Q 4550 1131 3912 565 
Q 3275 0 1925 0 
L 628 0 
L 628 4666 
z
" transform="scale(0.015625)"/>
      </defs>
      <use xlink:href="#DejaVuSans-41"/>
      <use xlink:href="#DejaVuSans-44" transform="translate(68.408203 0)"/>
      <use xlink:href="#DejaVuSans-4d" transform="translate(145.410156 0)"/>
      <use xlink:href="#DejaVuSans-4d" transform="translate(231.689453 0)"/>
     </g>
    </g>
    <g id="line2d_79">
     <path d="M 483.580317 240.753695 
L 491.910317 240.753695 
L 500.240317 240.753695 
" style="fill: none; stroke: #4b0082; stroke-width: 1.5; stroke-linecap: square"/>
     <g>
      <use xlink:href="#m430ec6a6dd" x="491.910317" y="240.753695" style="fill: #4b0082; stroke: #4b0082; stroke-linejoin: miter"/>
     </g>
    </g>
    <g id="text_14">
     <!-- FISTA -->
     <g transform="translate(506.904317 243.669195) scale(0.0833 -0.0833)">
      <defs>
       <path id="DejaVuSans-46" d="M 628 4666 
L 3309 4666 
L 3309 4134 
L 1259 4134 
L 1259 2759 
L 3109 2759 
L 3109 2228 
L 1259 2228 
L 1259 0 
L 628 0 
L 628 4666 
z
" transform="scale(0.015625)"/>
       <path id="DejaVuSans-54" d="M -19 4666 
L 3928 4666 
L 3928 4134 
L 2272 4134 
L 2272 0 
L 1638 0 
L 1638 4134 
L -19 4134 
L -19 4666 
z
" transform="scale(0.015625)"/>
      </defs>
      <use xlink:href="#DejaVuSans-46"/>
      <use xlink:href="#DejaVuSans-49" transform="translate(57.519531 0)"/>
      <use xlink:href="#DejaVuSans-53" transform="translate(87.011719 0)"/>
      <use xlink:href="#DejaVuSans-54" transform="translate(150.488281 0)"/>
      <use xlink:href="#DejaVuSans-41" transform="translate(203.822266 0)"/>
     </g>
    </g>
    <g id="line2d_80">
     <path d="M 483.580317 252.980573 
L 491.910317 252.980573 
L 500.240317 252.980573 
" style="fill: none; stroke: #1f77b4; stroke-width: 1.5; stroke-linecap: square"/>
     <g>
      <use xlink:href="#m19d6a97005" x="491.910317" y="252.980573" style="fill: #1f77b4; stroke: #1f77b4; stroke-linejoin: miter"/>
     </g>
    </g>
    <g id="text_15">
     <!-- MOMENTUM -->
     <g transform="translate(506.904317 255.896073) scale(0.0833 -0.0833)">
      <defs>
       <path id="DejaVuSans-4f" d="M 2522 4238 
Q 1834 4238 1429 3725 
Q 1025 3213 1025 2328 
Q 1025 1447 1429 934 
Q 1834 422 2522 422 
Q 3209 422 3611 934 
Q 4013 1447 4013 2328 
Q 4013 3213 3611 3725 
Q 3209 4238 2522 4238 
z
M 2522 4750 
Q 3503 4750 4090 4092 
Q 4678 3434 4678 2328 
Q 4678 1225 4090 567 
Q 3503 -91 2522 -91 
Q 1538 -91 948 565 
Q 359 1222 359 2328 
Q 359 3434 948 4092 
Q 1538 4750 2522 4750 
z
" transform="scale(0.015625)"/>
       <path id="DejaVuSans-45" d="M 628 4666 
L 3578 4666 
L 3578 4134 
L 1259 4134 
L 1259 2753 
L 3481 2753 
L 3481 2222 
L 1259 2222 
L 1259 531 
L 3634 531 
L 3634 0 
L 628 0 
L 628 4666 
z
" transform="scale(0.015625)"/>
       <path id="DejaVuSans-4e" d="M 628 4666 
L 1478 4666 
L 3547 763 
L 3547 4666 
L 4159 4666 
L 4159 0 
L 3309 0 
L 1241 3903 
L 1241 0 
L 628 0 
L 628 4666 
z
" transform="scale(0.015625)"/>
       <path id="DejaVuSans-55" d="M 556 4666 
L 1191 4666 
L 1191 1831 
Q 1191 1081 1462 751 
Q 1734 422 2344 422 
Q 2950 422 3222 751 
Q 3494 1081 3494 1831 
L 3494 4666 
L 4128 4666 
L 4128 1753 
Q 4128 841 3676 375 
Q 3225 -91 2344 -91 
Q 1459 -91 1007 375 
Q 556 841 556 1753 
L 556 4666 
z
" transform="scale(0.015625)"/>
      </defs>
      <use xlink:href="#DejaVuSans-4d"/>
      <use xlink:href="#DejaVuSans-4f" transform="translate(86.279297 0)"/>
      <use xlink:href="#DejaVuSans-4d" transform="translate(164.990234 0)"/>
      <use xlink:href="#DejaVuSans-45" transform="translate(251.269531 0)"/>
      <use xlink:href="#DejaVuSans-4e" transform="translate(314.453125 0)"/>
      <use xlink:href="#DejaVuSans-54" transform="translate(389.257812 0)"/>
      <use xlink:href="#DejaVuSans-55" transform="translate(450.341797 0)"/>
      <use xlink:href="#DejaVuSans-4d" transform="translate(523.535156 0)"/>
     </g>
    </g>
    <g id="line2d_81">
     <path d="M 483.580317 265.207452 
L 491.910317 265.207452 
L 500.240317 265.207452 
" style="fill: none; stroke: #ff7f0e; stroke-width: 1.5; stroke-linecap: square"/>
     <g>
      <use xlink:href="#m9571c834a6" x="491.910317" y="265.207452" style="fill: #ff7f0e; stroke: #ff7f0e; stroke-linejoin: miter"/>
     </g>
    </g>
    <g id="text_16">
     <!-- AA_M3 -->
     <g transform="translate(506.904317 268.122952) scale(0.0833 -0.0833)">
      <defs>
       <path id="DejaVuSans-5f" d="M 3263 -1063 
L 3263 -1509 
L -63 -1509 
L -63 -1063 
L 3263 -1063 
z
" transform="scale(0.015625)"/>
      </defs>
      <use xlink:href="#DejaVuSans-41"/>
      <use xlink:href="#DejaVuSans-41" transform="translate(71.158203 0)"/>
      <use xlink:href="#DejaVuSans-5f" transform="translate(139.566406 0)"/>
      <use xlink:href="#DejaVuSans-4d" transform="translate(189.566406 0)"/>
      <use xlink:href="#DejaVuSans-33" transform="translate(275.845703 0)"/>
     </g>
    </g>
    <g id="line2d_82">
     <path d="M 483.580317 277.666008 
L 491.910317 277.666008 
L 500.240317 277.666008 
" style="fill: none; stroke: #2ca02c; stroke-width: 1.5; stroke-linecap: square"/>
     <g>
      <use xlink:href="#maeae49baeb" x="491.910317" y="277.666008" style="fill: #2ca02c; stroke: #2ca02c; stroke-linejoin: miter"/>
     </g>
    </g>
    <g id="text_17">
     <!-- AA_M4 -->
     <g transform="translate(506.904317 280.581508) scale(0.0833 -0.0833)">
      <use xlink:href="#DejaVuSans-41"/>
      <use xlink:href="#DejaVuSans-41" transform="translate(71.158203 0)"/>
      <use xlink:href="#DejaVuSans-5f" transform="translate(139.566406 0)"/>
      <use xlink:href="#DejaVuSans-4d" transform="translate(189.566406 0)"/>
      <use xlink:href="#DejaVuSans-34" transform="translate(275.845703 0)"/>
     </g>
    </g>
    <g id="line2d_83">
     <path d="M 483.580317 290.124564 
L 491.910317 290.124564 
L 500.240317 290.124564 
" style="fill: none; stroke: #d62728; stroke-width: 1.5; stroke-linecap: square"/>
     <g>
      <use xlink:href="#mc78e0a920b" x="491.910317" y="290.124564" style="fill: #d62728; stroke: #d62728; stroke-linejoin: miter"/>
     </g>
    </g>
    <g id="text_18">
     <!-- AA_M5 -->
     <g transform="translate(506.904317 293.040064) scale(0.0833 -0.0833)">
      <defs>
       <path id="DejaVuSans-35" d="M 691 4666 
L 3169 4666 
L 3169 4134 
L 1269 4134 
L 1269 2991 
Q 1406 3038 1543 3061 
Q 1681 3084 1819 3084 
Q 2600 3084 3056 2656 
Q 3513 2228 3513 1497 
Q 3513 744 3044 326 
Q 2575 -91 1722 -91 
Q 1428 -91 1123 -41 
Q 819 9 494 109 
L 494 744 
Q 775 591 1075 516 
Q 1375 441 1709 441 
Q 2250 441 2565 725 
Q 2881 1009 2881 1497 
Q 2881 1984 2565 2268 
Q 2250 2553 1709 2553 
Q 1456 2553 1204 2497 
Q 953 2441 691 2322 
L 691 4666 
z
" transform="scale(0.015625)"/>
      </defs>
      <use xlink:href="#DejaVuSans-41"/>
      <use xlink:href="#DejaVuSans-41" transform="translate(71.158203 0)"/>
      <use xlink:href="#DejaVuSans-5f" transform="translate(139.566406 0)"/>
      <use xlink:href="#DejaVuSans-4d" transform="translate(189.566406 0)"/>
      <use xlink:href="#DejaVuSans-35" transform="translate(275.845703 0)"/>
     </g>
    </g>
    <g id="line2d_84">
     <path d="M 483.580317 302.58312 
L 491.910317 302.58312 
L 500.240317 302.58312 
" style="fill: none; stroke: #ff0000; stroke-width: 1.5; stroke-linecap: square"/>
    </g>
    <g id="text_19">
     <!-- RL Agent -->
     <g transform="translate(506.904317 305.49862) scale(0.0833 -0.0833)">
      <defs>
       <path id="DejaVuSans-52" d="M 2841 2188 
Q 3044 2119 3236 1894 
Q 3428 1669 3622 1275 
L 4263 0 
L 3584 0 
L 2988 1197 
Q 2756 1666 2539 1819 
Q 2322 1972 1947 1972 
L 1259 1972 
L 1259 0 
L 628 0 
L 628 4666 
L 2053 4666 
Q 2853 4666 3247 4331 
Q 3641 3997 3641 3322 
Q 3641 2881 3436 2590 
Q 3231 2300 2841 2188 
z
M 1259 4147 
L 1259 2491 
L 2053 2491 
Q 2509 2491 2742 2702 
Q 2975 2913 2975 3322 
Q 2975 3731 2742 3939 
Q 2509 4147 2053 4147 
L 1259 4147 
z
" transform="scale(0.015625)"/>
      </defs>
      <use xlink:href="#DejaVuSans-52"/>
      <use xlink:href="#DejaVuSans-4c" transform="translate(69.482422 0)"/>
      <use xlink:href="#DejaVuSans-20" transform="translate(125.195312 0)"/>
      <use xlink:href="#DejaVuSans-41" transform="translate(156.982422 0)"/>
      <use xlink:href="#DejaVuSans-67" transform="translate(225.390625 0)"/>
      <use xlink:href="#DejaVuSans-65" transform="translate(288.867188 0)"/>
      <use xlink:href="#DejaVuSans-6e" transform="translate(350.390625 0)"/>
      <use xlink:href="#DejaVuSans-74" transform="translate(413.769531 0)"/>
     </g>
    </g>
   </g>
  </g>
 </g>
 <defs>
  <clipPath id="p0eac3d589e">
   <rect x="54.11" y="26.88" width="511.09" height="287.848"/>
  </clipPath>
 </defs>
</svg>
