<?xml version="1.0" encoding="utf-8" standalone="no"?>
<!DOCTYPE svg PUBLIC "-//W3C//DTD SVG 1.1//EN"
  "http://www.w3.org/Graphics/SVG/1.1/DTD/svg11.dtd">
<svg xmlns:xlink="http://www.w3.org/1999/xlink" width="576pt" height="360pt" viewBox="0 0 576 360" xmlns="http://www.w3.org/2000/svg" version="1.1">
 <metadata>
  <rdf:RDF xmlns:dc="http://purl.org/dc/elements/1.1/" xmlns:cc="http://creativecommons.org/ns#" xmlns:rdf="http://www.w3.org/1999/02/22-rdf-syntax-ns#">
   <cc:Work>
    <dc:type rdf:resource="http://purl.org/dc/dcmitype/StillImage"/>
    <dc:date>2026-04-16T11:34:14.605170</dc:date>
    <dc:format>image/svg+xml</dc:format>
    <dc:creator>
     <cc:Agent>
      <dc:title>Matplotlib v3.10.3, https://matplotlib.org/</dc:title>
     </cc:Agent>
    </dc:creator>
   </cc:Work>
  </rdf:RDF>
 </metadata>
 <defs>
  <style type="text/css">*{stroke-linejoin: round; stroke-linecap: butt}</style>
 </defs>
 <g id="figure_1">
  <g id="patch_1">
   <path d="M 0 360 
L 576 360 
L 576 0 
L 0 0 
z
" style="fill: #ffffff"/>
  </g>
  <g id="axes_1">
   <g id="patch_2">
    <path d="M 73.128612 314.728 
L 565.2 314.728 
L 565.2 26.88 
L 73.128612 26.88 
z
" style="fill: #ffffff"/>
   </g>
   <g id="line2d_1">
    <path d="M -1 52.134866 
L 95.495493 52.142746 
L 140.389343 63.945 
L 166.650562 74.675223 
L 185.283193 84.589108 
L 199.735785 93.810312 
L 211.544412 102.426356 
L 221.528464 110.505853 
L 230.177043 118.103724 
L 237.805631 125.26638 
L 244.629635 132.032408 
L 250.802698 138.433924 
L 256.438262 144.498224 
L 266.422314 155.718179 
L 275.070893 165.868043 
L 286.201314 179.385794 
L 321.957767 223.476387 
L 329.367912 232.159911 
L 336.01663 239.650868 
L 342.045923 246.138058 
L 347.561435 251.779311 
L 352.643895 256.697656 
L 357.356383 260.998496 
L 362.80229 265.647013 
L 367.825592 269.618509 
L 372.487181 273.029204 
L 377.671398 276.514056 
L 382.471233 279.460262 
L 386.939773 281.966167 
L 391.790991 284.436782 
L 396.923825 286.780728 
L 401.679585 288.718163 
L 406.642976 290.515656 
L 411.745467 292.141389 
L 417.381032 293.697216 
L 422.979104 295.01774 
L 429.264578 296.261951 
L 435.675447 297.302696 
L 442.736388 298.222534 
L 450.466254 299.003751 
L 459.283282 299.662636 
L 469.502427 300.189234 
L 481.411548 300.569313 
L 496.297819 300.814625 
L 518.299152 300.936644 
L 542.833119 300.959026 
L 542.833119 300.959026 
" clip-path="url(#pbe57e319c9)" style="fill: none; stroke: #000000; stroke-width: 1.5; stroke-linecap: square"/>
    <defs>
     <path id="m6eba42feb7" d="M 0 3 
C 0.795609 3 1.55874 2.683901 2.12132 2.12132 
C 2.683901 1.55874 3 0.795609 3 0 
C 3 -0.795609 2.683901 -1.55874 2.12132 -2.12132 
C 1.55874 -2.683901 0.795609 -3 0 -3 
C -0.795609 -3 -1.55874 -2.683901 -2.12132 -2.12132 
C -2.683901 -1.55874 -3 -0.795609 -3 0 
C -3 0.795609 -2.683901 1.55874 -2.12132 2.12132 
C -1.55874 2.683901 -0.795609 3 0 3 
z
" style="stroke: #000000"/>
    </defs>
    <g clip-path="url(#pbe57e319c9)">
     <use xlink:href="#m6eba42feb7" x="-1" y="52.134866" style="stroke: #000000"/>
     <use xlink:href="#m6eba42feb7" x="95.495493" y="52.142746" style="stroke: #000000"/>
     <use xlink:href="#m6eba42feb7" x="140.389343" y="63.945" style="stroke: #000000"/>
     <use xlink:href="#m6eba42feb7" x="199.735785" y="93.810312" style="stroke: #000000"/>
     <use xlink:href="#m6eba42feb7" x="244.629635" y="132.032408" style="stroke: #000000"/>
     <use xlink:href="#m6eba42feb7" x="282.699481" y="175.087732" style="stroke: #000000"/>
     <use xlink:href="#m6eba42feb7" x="315.784704" y="216.04108" style="stroke: #000000"/>
     <use xlink:href="#m6eba42feb7" x="355.04299" y="258.918764" style="stroke: #000000"/>
     <use xlink:href="#m6eba42feb7" x="403.376664" y="289.357798" style="stroke: #000000"/>
     <use xlink:href="#m6eba42feb7" x="459.047332" y="299.647654" style="stroke: #000000"/>
     <use xlink:href="#m6eba42feb7" x="516.083818" y="300.931189" style="stroke: #000000"/>
    </g>
   </g>
   <g id="line2d_2">
    <path d="M -1 52.134866 
L 95.495493 52.142746 
L 140.389343 63.945 
L 166.650562 74.675223 
L 185.283193 87.179627 
L 199.735785 99.964877 
L 211.544412 112.354938 
L 221.528464 124.121615 
L 230.177043 135.18394 
L 237.805631 145.5253 
L 244.629635 155.161613 
L 256.438262 172.462952 
L 282.699481 211.531952 
L 289.523485 221.246841 
L 295.696548 229.722003 
L 301.332112 237.135464 
L 306.516329 243.631423 
L 311.316164 249.334672 
L 315.784704 254.352999 
L 319.964744 258.772749 
L 323.891287 262.676666 
L 327.593331 266.134747 
L 332.777548 270.610938 
L 337.577383 274.37734 
L 342.045923 277.567982 
L 346.225962 280.289561 
L 350.152506 282.621898 
L 355.04299 285.238348 
L 359.589988 287.401084 
L 363.838602 289.202774 
L 368.785137 291.054328 
L 374.261762 292.821205 
L 379.311185 294.213076 
L 384.744033 295.483584 
L 390.441606 296.593479 
L 396.923825 297.615955 
L 403.932617 298.481389 
L 411.745467 299.213318 
L 420.455351 299.803504 
L 431.109949 300.284835 
L 442.736388 300.596853 
L 462.049601 300.820866 
L 495.629411 300.885865 
L 542.833119 300.857975 
L 542.833119 300.857975 
" clip-path="url(#pbe57e319c9)" style="fill: none; stroke: #4b0082; stroke-width: 1.5; stroke-linecap: square"/>
    <defs>
     <path id="md393eebfba" d="M -3 3 
L 3 3 
L 3 -3 
L -3 -3 
z
" style="stroke: #4b0082; stroke-linejoin: miter"/>
    </defs>
    <g clip-path="url(#pbe57e319c9)">
     <use xlink:href="#md393eebfba" x="-1" y="52.134866" style="fill: #4b0082; stroke: #4b0082; stroke-linejoin: miter"/>
     <use xlink:href="#md393eebfba" x="95.495493" y="52.142746" style="fill: #4b0082; stroke: #4b0082; stroke-linejoin: miter"/>
     <use xlink:href="#md393eebfba" x="140.389343" y="63.945" style="fill: #4b0082; stroke: #4b0082; stroke-linejoin: miter"/>
     <use xlink:href="#md393eebfba" x="199.735785" y="99.964877" style="fill: #4b0082; stroke: #4b0082; stroke-linejoin: miter"/>
     <use xlink:href="#md393eebfba" x="237.805631" y="145.5253" style="fill: #4b0082; stroke: #4b0082; stroke-linejoin: miter"/>
     <use xlink:href="#md393eebfba" x="266.422314" y="187.421494" style="fill: #4b0082; stroke: #4b0082; stroke-linejoin: miter"/>
     <use xlink:href="#md393eebfba" x="298.575605" y="233.551983" style="fill: #4b0082; stroke: #4b0082; stroke-linejoin: miter"/>
     <use xlink:href="#md393eebfba" x="339.10141" y="275.498901" style="fill: #4b0082; stroke: #4b0082; stroke-linejoin: miter"/>
     <use xlink:href="#md393eebfba" x="390.441606" y="296.593479" style="fill: #4b0082; stroke: #4b0082; stroke-linejoin: miter"/>
     <use xlink:href="#md393eebfba" x="447.427533" y="300.677117" style="fill: #4b0082; stroke: #4b0082; stroke-linejoin: miter"/>
     <use xlink:href="#md393eebfba" x="504.529452" y="300.868322" style="fill: #4b0082; stroke: #4b0082; stroke-linejoin: miter"/>
    </g>
   </g>
   <g id="line2d_3">
    <path d="M -1 52.134866 
L 95.495493 52.142746 
L 140.389343 63.945 
L 166.650562 83.072694 
L 185.283193 100.489919 
L 199.735785 115.549354 
L 211.544412 129.097733 
L 221.528464 141.237602 
L 230.177043 152.253532 
L 237.805631 162.232871 
L 250.802698 179.678006 
L 270.890854 206.770096 
L 278.997437 217.382023 
L 286.201314 226.517722 
L 292.683533 234.432143 
L 298.575605 241.314842 
L 303.976077 247.320165 
L 308.9607 252.578975 
L 313.588964 257.194181 
L 317.90844 261.255815 
L 321.957767 264.844236 
L 327.593331 269.477912 
L 332.777548 273.368168 
L 337.577383 276.657075 
L 342.045923 279.45972 
L 346.225962 281.860543 
L 351.410179 284.553532 
L 356.210015 286.780234 
L 360.678554 288.636459 
L 365.862771 290.546438 
L 371.581319 292.372787 
L 376.835669 293.815679 
L 382.471233 295.138747 
L 388.363306 296.300899 
L 395.046356 297.379835 
L 402.250233 298.302592 
L 410.256479 299.087614 
L 418.716504 299.699 
L 428.511452 300.193615 
L 439.940207 300.55813 
L 453.626302 300.790505 
L 470.69818 300.909483 
L 542.833119 300.950141 
L 542.833119 300.950141 
" clip-path="url(#pbe57e319c9)" style="fill: none; stroke: #1f77b4; stroke-width: 1.5; stroke-linecap: square"/>
    <defs>
     <path id="m220def27f2" d="M -0 3 
L 3 -3 
L -3 -3 
z
" style="stroke: #1f77b4; stroke-linejoin: miter"/>
    </defs>
    <g clip-path="url(#pbe57e319c9)">
     <use xlink:href="#m220def27f2" x="-1" y="52.134866" style="fill: #1f77b4; stroke: #1f77b4; stroke-linejoin: miter"/>
     <use xlink:href="#m220def27f2" x="95.495493" y="52.142746" style="fill: #1f77b4; stroke: #1f77b4; stroke-linejoin: miter"/>
     <use xlink:href="#m220def27f2" x="140.389343" y="63.945" style="fill: #1f77b4; stroke: #1f77b4; stroke-linejoin: miter"/>
     <use xlink:href="#m220def27f2" x="185.283193" y="100.489919" style="fill: #1f77b4; stroke: #1f77b4; stroke-linejoin: miter"/>
     <use xlink:href="#m220def27f2" x="230.177043" y="152.253532" style="fill: #1f77b4; stroke: #1f77b4; stroke-linejoin: miter"/>
     <use xlink:href="#m220def27f2" x="261.622479" y="194.343549" style="fill: #1f77b4; stroke: #1f77b4; stroke-linejoin: miter"/>
     <use xlink:href="#m220def27f2" x="298.575605" y="241.314842" style="fill: #1f77b4; stroke: #1f77b4; stroke-linejoin: miter"/>
     <use xlink:href="#m220def27f2" x="339.10141" y="277.640776" style="fill: #1f77b4; stroke: #1f77b4; stroke-linejoin: miter"/>
     <use xlink:href="#m220def27f2" x="393.112836" y="297.091507" style="fill: #1f77b4; stroke: #1f77b4; stroke-linejoin: miter"/>
     <use xlink:href="#m220def27f2" x="449.924259" y="300.74463" style="fill: #1f77b4; stroke: #1f77b4; stroke-linejoin: miter"/>
     <use xlink:href="#m220def27f2" x="506.943451" y="300.950366" style="fill: #1f77b4; stroke: #1f77b4; stroke-linejoin: miter"/>
    </g>
   </g>
   <g id="line2d_4">
    <path d="M -1 52.134866 
L 95.495493 52.142746 
L 140.389343 63.945 
L 166.650562 74.675223 
L 185.283193 92.445816 
L 199.735785 104.638274 
L 211.544412 125.006385 
L 221.528464 127.579887 
L 230.177043 141.91647 
L 237.805631 152.293258 
L 244.629635 167.521879 
L 250.802698 177.606696 
L 256.438262 190.233786 
L 261.622479 200.332026 
L 270.890854 221.430387 
L 278.997437 238.567763 
L 289.523485 258.94838 
L 292.683533 264.826925 
L 295.696548 269.810863 
L 298.575605 274.005602 
L 303.976077 280.741394 
L 306.516329 283.62897 
L 308.9607 286.150811 
L 311.316164 288.337122 
L 313.588964 290.27205 
L 315.784704 291.852033 
L 317.90844 293.145722 
L 319.964744 294.1781 
L 323.891287 295.695152 
L 327.593331 296.761043 
L 331.095164 297.497296 
L 334.417335 297.942584 
L 337.577383 298.129333 
L 352.643895 298.311494 
L 399.93684 298.975837 
L 454.392798 299.997966 
L 493.024627 300.614445 
L 522.868616 300.863598 
L 542.833119 300.930795 
L 542.833119 300.930795 
" clip-path="url(#pbe57e319c9)" style="fill: none; stroke: #ff7f0e; stroke-width: 1.5; stroke-linecap: square"/>
    <defs>
     <path id="m4cead2a226" d="M -0 3 
L 3 -3 
L -3 -3 
z
" style="stroke: #ff7f0e; stroke-linejoin: miter"/>
    </defs>
    <g clip-path="url(#pbe57e319c9)">
     <use xlink:href="#m4cead2a226" x="-1" y="52.134866" style="fill: #ff7f0e; stroke: #ff7f0e; stroke-linejoin: miter"/>
     <use xlink:href="#m4cead2a226" x="95.495493" y="52.142746" style="fill: #ff7f0e; stroke: #ff7f0e; stroke-linejoin: miter"/>
     <use xlink:href="#m4cead2a226" x="140.389343" y="63.945" style="fill: #ff7f0e; stroke: #ff7f0e; stroke-linejoin: miter"/>
     <use xlink:href="#m4cead2a226" x="199.735785" y="104.638274" style="fill: #ff7f0e; stroke: #ff7f0e; stroke-linejoin: miter"/>
     <use xlink:href="#m4cead2a226" x="230.177043" y="141.91647" style="fill: #ff7f0e; stroke: #ff7f0e; stroke-linejoin: miter"/>
     <use xlink:href="#m4cead2a226" x="256.438262" y="190.233786" style="fill: #ff7f0e; stroke: #ff7f0e; stroke-linejoin: miter"/>
     <use xlink:href="#m4cead2a226" x="282.699481" y="245.741533" style="fill: #ff7f0e; stroke: #ff7f0e; stroke-linejoin: miter"/>
     <use xlink:href="#m4cead2a226" x="313.588964" y="290.27205" style="fill: #ff7f0e; stroke: #ff7f0e; stroke-linejoin: miter"/>
     <use xlink:href="#m4cead2a226" x="368.785137" y="298.51152" style="fill: #ff7f0e; stroke: #ff7f0e; stroke-linejoin: miter"/>
     <use xlink:href="#m4cead2a226" x="425.408193" y="299.435747" style="fill: #ff7f0e; stroke: #ff7f0e; stroke-linejoin: miter"/>
     <use xlink:href="#m4cead2a226" x="482.242986" y="300.471925" style="fill: #ff7f0e; stroke: #ff7f0e; stroke-linejoin: miter"/>
     <use xlink:href="#m4cead2a226" x="539.302465" y="300.923035" style="fill: #ff7f0e; stroke: #ff7f0e; stroke-linejoin: miter"/>
    </g>
   </g>
   <g id="line2d_5">
    <path d="M -1 52.134866 
L 95.495493 52.142746 
L 140.389343 63.945 
L 166.650562 74.675223 
L 185.283193 92.445816 
L 199.735785 104.638274 
L 211.544412 124.453794 
L 221.528464 122.694289 
L 230.177043 147.599903 
L 237.805631 151.393882 
L 244.629635 164.003018 
L 250.802698 175.895005 
L 256.438262 186.294072 
L 261.622479 200.397894 
L 266.422314 206.433222 
L 270.890854 218.033628 
L 275.070893 223.31636 
L 278.997437 234.324384 
L 282.699481 238.926299 
L 286.201314 247.125614 
L 289.523485 252.611028 
L 292.683533 259.430726 
L 298.575605 269.547166 
L 303.976077 277.122271 
L 308.9607 282.980265 
L 311.316164 285.343036 
L 315.784704 288.932088 
L 317.90844 290.301715 
L 321.957767 292.564014 
L 327.593331 295.11764 
L 331.095164 296.442036 
L 334.417335 297.328128 
L 337.577383 297.878072 
L 340.590398 298.162805 
L 344.862372 298.281093 
L 394.408241 298.863465 
L 444.535618 299.673803 
L 503.704369 300.609442 
L 533.952578 300.857301 
L 542.833119 300.895706 
L 542.833119 300.895706 
" clip-path="url(#pbe57e319c9)" style="fill: none; stroke: #2ca02c; stroke-width: 1.5; stroke-linecap: square"/>
    <defs>
     <path id="m50612b6736" d="M -0 3 
L 3 -3 
L -3 -3 
z
" style="stroke: #2ca02c; stroke-linejoin: miter"/>
    </defs>
    <g clip-path="url(#pbe57e319c9)">
     <use xlink:href="#m50612b6736" x="-1" y="52.134866" style="fill: #2ca02c; stroke: #2ca02c; stroke-linejoin: miter"/>
     <use xlink:href="#m50612b6736" x="95.495493" y="52.142746" style="fill: #2ca02c; stroke: #2ca02c; stroke-linejoin: miter"/>
     <use xlink:href="#m50612b6736" x="140.389343" y="63.945" style="fill: #2ca02c; stroke: #2ca02c; stroke-linejoin: miter"/>
     <use xlink:href="#m50612b6736" x="199.735785" y="104.638274" style="fill: #2ca02c; stroke: #2ca02c; stroke-linejoin: miter"/>
     <use xlink:href="#m50612b6736" x="230.177043" y="147.599903" style="fill: #2ca02c; stroke: #2ca02c; stroke-linejoin: miter"/>
     <use xlink:href="#m50612b6736" x="256.438262" y="186.294072" style="fill: #2ca02c; stroke: #2ca02c; stroke-linejoin: miter"/>
     <use xlink:href="#m50612b6736" x="282.699481" y="238.926299" style="fill: #2ca02c; stroke: #2ca02c; stroke-linejoin: miter"/>
     <use xlink:href="#m50612b6736" x="311.316164" y="285.343036" style="fill: #2ca02c; stroke: #2ca02c; stroke-linejoin: miter"/>
     <use xlink:href="#m50612b6736" x="363.838602" y="298.480941" style="fill: #2ca02c; stroke: #2ca02c; stroke-linejoin: miter"/>
     <use xlink:href="#m50612b6736" x="421.307575" y="299.273936" style="fill: #2ca02c; stroke: #2ca02c; stroke-linejoin: miter"/>
     <use xlink:href="#m50612b6736" x="478.326768" y="300.257367" style="fill: #2ca02c; stroke: #2ca02c; stroke-linejoin: miter"/>
     <use xlink:href="#m50612b6736" x="535.350241" y="300.864273" style="fill: #2ca02c; stroke: #2ca02c; stroke-linejoin: miter"/>
    </g>
   </g>
   <g id="line2d_6">
    <path d="M -1 52.134866 
L 95.495493 52.142746 
L 140.389343 63.945 
L 166.650562 74.675223 
L 185.283193 92.445816 
L 199.735785 104.638274 
L 211.544412 124.453794 
L 221.528464 122.893666 
L 230.177043 142.760424 
L 237.805631 153.325356 
L 244.629635 157.044326 
L 250.802698 177.958686 
L 256.438262 177.807422 
L 261.622479 192.228921 
L 266.422314 199.564063 
L 275.070893 221.360043 
L 278.997437 227.07535 
L 282.699481 236.374312 
L 286.201314 240.123872 
L 289.523485 248.78186 
L 292.683533 253.276685 
L 295.696548 259.824685 
L 301.332112 269.810703 
L 303.976077 273.78239 
L 306.516329 277.10941 
L 308.9607 280.631584 
L 313.588964 286.019982 
L 317.90844 289.81715 
L 319.964744 291.195393 
L 321.957767 292.393908 
L 323.891287 293.308324 
L 327.593331 294.637113 
L 332.777548 296.255311 
L 336.01663 297.097933 
L 339.10141 297.716627 
L 343.469456 298.284844 
L 347.561435 298.534932 
L 355.04299 298.624274 
L 412.234285 299.206981 
L 470.302044 300.049624 
L 519.052279 300.683975 
L 542.833119 300.854152 
L 542.833119 300.854152 
" clip-path="url(#pbe57e319c9)" style="fill: none; stroke: #d62728; stroke-width: 1.5; stroke-linecap: square"/>
    <defs>
     <path id="mce4aa5575c" d="M -0 3 
L 3 -3 
L -3 -3 
z
" style="stroke: #d62728; stroke-linejoin: miter"/>
    </defs>
    <g clip-path="url(#pbe57e319c9)">
     <use xlink:href="#mce4aa5575c" x="-1" y="52.134866" style="fill: #d62728; stroke: #d62728; stroke-linejoin: miter"/>
     <use xlink:href="#mce4aa5575c" x="95.495493" y="52.142746" style="fill: #d62728; stroke: #d62728; stroke-linejoin: miter"/>
     <use xlink:href="#mce4aa5575c" x="140.389343" y="63.945" style="fill: #d62728; stroke: #d62728; stroke-linejoin: miter"/>
     <use xlink:href="#mce4aa5575c" x="199.735785" y="104.638274" style="fill: #d62728; stroke: #d62728; stroke-linejoin: miter"/>
     <use xlink:href="#mce4aa5575c" x="230.177043" y="142.760424" style="fill: #d62728; stroke: #d62728; stroke-linejoin: miter"/>
     <use xlink:href="#mce4aa5575c" x="256.438262" y="177.807422" style="fill: #d62728; stroke: #d62728; stroke-linejoin: miter"/>
     <use xlink:href="#mce4aa5575c" x="282.699481" y="236.374312" style="fill: #d62728; stroke: #d62728; stroke-linejoin: miter"/>
     <use xlink:href="#mce4aa5575c" x="311.316164" y="283.435229" style="fill: #d62728; stroke: #d62728; stroke-linejoin: miter"/>
     <use xlink:href="#mce4aa5575c" x="362.80229" y="298.689259" style="fill: #d62728; stroke: #d62728; stroke-linejoin: miter"/>
     <use xlink:href="#mce4aa5575c" x="419.155612" y="299.2962" style="fill: #d62728; stroke: #d62728; stroke-linejoin: miter"/>
     <use xlink:href="#mce4aa5575c" x="476.366647" y="300.141664" style="fill: #d62728; stroke: #d62728; stroke-linejoin: miter"/>
     <use xlink:href="#mce4aa5575c" x="533.279851" y="300.798377" style="fill: #d62728; stroke: #d62728; stroke-linejoin: miter"/>
    </g>
   </g>
   <g id="line2d_7">
    <path d="M -1 52.134866 
L 95.495493 52.142746 
L 140.389343 63.253221 
L 166.650562 75.060421 
L 185.283193 84.860569 
L 199.735785 96.565145 
L 211.544412 109.22349 
L 221.528464 124.073052 
L 230.177043 130.714176 
L 237.805631 131.621774 
L 244.629635 132.181079 
L 250.802698 138.448705 
L 256.438262 145.400362 
L 261.622479 156.911478 
L 266.422314 163.361714 
L 270.890854 175.96024 
L 275.070893 184.128047 
L 278.997437 190.34958 
L 282.699481 193.890707 
L 286.201314 203.92353 
L 289.523485 207.661724 
L 292.683533 212.467576 
L 295.696548 207.766655 
L 298.575605 213.30248 
L 301.332112 213.271497 
L 303.976077 212.271976 
L 306.516329 216.038592 
L 308.9607 217.454002 
L 311.316164 217.452486 
L 313.588964 221.610641 
L 315.784704 223.729999 
L 317.90844 229.435899 
L 319.964744 227.771252 
L 321.957767 231.199266 
L 323.891287 228.588472 
L 325.768756 233.549973 
L 327.593331 233.372611 
L 329.367912 236.878726 
L 331.095164 235.82302 
L 332.777548 237.043185 
L 334.417335 238.872315 
L 336.01663 238.176938 
L 337.577383 239.9805 
L 339.10141 240.801433 
L 340.590398 241.050909 
L 342.045923 243.050734 
L 343.469456 245.803218 
L 344.862372 245.050975 
L 346.225962 247.883254 
L 347.561435 249.173601 
L 348.869927 249.553215 
L 350.152506 251.026598 
L 351.410179 252.100728 
L 352.643895 252.155454 
L 353.85455 253.022104 
L 355.04299 253.050651 
L 356.210015 253.216093 
L 357.356383 255.013258 
L 358.482814 250.475062 
L 359.589988 249.501874 
L 360.678554 253.437879 
L 362.80229 259.002794 
L 363.838602 259.184837 
L 365.862771 260.610439 
L 366.851617 262.09815 
L 367.825592 262.995979 
L 368.785137 264.8841 
L 369.730674 265.19167 
L 370.662606 266.955465 
L 371.581319 265.082403 
L 372.487181 265.542592 
L 373.380549 260.512991 
L 374.261762 267.360904 
L 375.131146 267.786781 
L 375.989014 264.854983 
L 376.835669 270.131822 
L 377.671398 270.712774 
L 378.496481 270.148379 
L 379.311185 272.468945 
L 380.115769 268.428882 
L 380.91048 272.508196 
L 381.695558 274.069576 
L 382.471233 273.96163 
L 383.237729 273.347494 
L 383.99526 274.515758 
L 384.744033 275.453149 
L 385.484248 275.233598 
L 386.216099 276.161056 
L 386.939773 275.879173 
L 387.65545 274.837964 
L 388.363306 276.525393 
L 389.063509 277.112166 
L 389.756223 275.8335 
L 390.441606 276.99913 
L 391.790991 278.666948 
L 393.112836 278.175322 
L 393.763777 279.439539 
L 394.408241 276.189328 
L 395.046356 278.152478 
L 395.678246 279.336097 
L 396.30403 279.774833 
L 396.923825 279.198888 
L 397.537746 279.640725 
L 398.145902 281.024058 
L 398.7484 281.821926 
L 399.345346 281.63623 
L 399.93684 283.65869 
L 400.522981 284.560152 
L 401.679585 284.87304 
L 402.250233 279.305724 
L 402.815897 284.641574 
L 403.376664 285.367636 
L 404.483839 286.018282 
L 405.030408 285.703807 
L 405.572404 285.528354 
L 406.109902 286.348453 
L 406.642976 286.818074 
L 407.171699 282.197907 
L 407.69614 285.675795 
L 408.732452 287.246731 
L 409.244456 287.464474 
L 409.752444 286.425179 
L 410.256479 280.223723 
L 410.756621 285.714223 
L 411.252931 287.697642 
L 411.745467 288.564021 
L 412.234285 288.353035 
L 412.719442 287.76585 
L 413.200992 288.733811 
L 414.153482 289.30088 
L 414.624525 287.893541 
L 415.092167 289.36017 
L 415.556456 289.830564 
L 416.017441 290.715466 
L 416.475169 290.674725 
L 416.929684 288.982412 
L 417.381032 290.917223 
L 417.829256 291.511445 
L 418.274399 291.556727 
L 418.716504 290.84788 
L 419.155612 291.625045 
L 419.591763 290.914347 
L 420.024996 291.850482 
L 420.455351 291.956059 
L 420.882865 291.712751 
L 421.307575 292.032733 
L 421.729519 284.439408 
L 422.148732 290.984362 
L 422.979104 292.501632 
L 423.390331 290.799168 
L 423.798964 290.229074 
L 424.205036 292.779321 
L 425.009619 291.074961 
L 425.408193 291.808943 
L 425.80433 293.124796 
L 426.198059 293.447645 
L 426.589408 292.695507 
L 426.978407 293.623384 
L 427.365084 293.479745 
L 427.749465 293.127294 
L 428.131579 294.631048 
L 428.511452 285.114619 
L 428.88911 290.66378 
L 429.264578 293.098265 
L 429.637883 292.786643 
L 430.009048 292.711315 
L 430.378098 291.239767 
L 430.745057 293.593443 
L 431.109949 294.100317 
L 431.472797 294.363009 
L 431.833623 292.377776 
L 432.19245 292.690904 
L 432.5493 294.187053 
L 432.904195 294.096092 
L 433.257156 294.699161 
L 433.608204 294.800901 
L 433.957359 294.711794 
L 434.304642 293.32909 
L 434.650073 294.815373 
L 434.993671 293.286004 
L 435.335456 294.353276 
L 435.675447 293.267794 
L 436.013663 295.166873 
L 436.350121 295.360723 
L 436.684841 295.381338 
L 437.01784 293.39389 
L 437.349136 295.006882 
L 437.678745 295.629266 
L 438.006686 295.147101 
L 438.657627 296.188303 
L 438.980661 296.314905 
L 439.302092 296.656122 
L 439.940207 295.02225 
L 440.256922 296.361669 
L 440.885744 296.800861 
L 441.19788 296.890001 
L 441.508519 296.390857 
L 441.817675 295.302339 
L 442.125363 295.823099 
L 442.431596 288.197611 
L 442.736388 295.772419 
L 443.039752 291.900332 
L 443.341702 296.547869 
L 443.64225 295.322784 
L 443.941411 296.686664 
L 444.239196 292.5715 
L 444.535618 295.554581 
L 444.83069 296.9043 
L 445.124423 297.378549 
L 445.416831 290.464705 
L 445.707924 296.503658 
L 445.997715 297.93033 
L 446.573435 298.095695 
L 447.144083 286.144338 
L 447.427533 293.76039 
L 447.709748 297.682564 
L 448.270514 297.982593 
L 448.549087 297.721549 
L 448.826467 296.628763 
L 449.102664 297.486058 
L 449.377689 296.160297 
L 449.65155 297.644365 
L 450.195823 298.7965 
L 450.735561 299.024211 
L 451.003752 298.218783 
L 451.270838 298.942936 
L 451.536827 299.125008 
L 451.801727 292.440255 
L 452.065549 297.882939 
L 452.3283 296.516162 
L 452.58999 299.079877 
L 452.850627 297.289225 
L 453.110219 291.920883 
L 453.368775 297.962392 
L 453.626302 298.658054 
L 453.88281 293.423599 
L 454.138306 294.609903 
L 454.392798 298.344808 
L 454.646294 298.883416 
L 454.898802 294.293099 
L 455.150329 298.811461 
L 455.400883 299.053081 
L 455.650471 299.001229 
L 455.899102 298.239104 
L 456.146781 298.974324 
L 456.393517 289.823609 
L 456.639317 297.748677 
L 456.884187 292.572387 
L 457.128135 291.257473 
L 457.371168 298.193033 
L 457.613292 293.22005 
L 457.854515 298.502671 
L 458.094842 292.688851 
L 458.334281 291.228867 
L 458.572838 291.371301 
L 458.810519 295.038955 
L 459.047332 290.356961 
L 459.518375 298.476796 
L 459.752618 291.043598 
L 459.986017 297.383189 
L 460.218578 292.202292 
L 460.450307 297.355798 
L 460.681209 299.298836 
L 461.14056 299.664881 
L 461.369019 300.094997 
L 461.596675 299.747377 
L 461.823534 298.527259 
L 462.049601 300.059675 
L 462.274882 300.289835 
L 462.499381 299.39609 
L 462.94606 299.871536 
L 463.168249 298.902358 
L 463.389679 300.022896 
L 463.83028 300.765881 
L 464.267905 300.999406 
L 464.485613 297.838574 
L 464.702592 300.695667 
L 465.134381 301.275109 
L 465.349201 299.691032 
L 465.56331 300.211701 
L 465.776715 299.705061 
L 465.989418 298.606853 
L 466.201425 296.517669 
L 466.412741 298.421298 
L 466.623369 297.279332 
L 466.833315 299.079429 
L 467.042582 294.894864 
L 467.251175 300.021885 
L 467.459099 301.222164 
L 467.666357 299.356379 
L 467.872954 301.006605 
L 468.078894 298.523674 
L 468.284182 300.833742 
L 468.48882 300.796577 
L 468.692815 298.956948 
L 468.896168 299.641874 
L 469.098886 293.545173 
L 469.300971 300.066919 
L 469.502427 297.743979 
L 469.903469 300.91983 
L 470.103063 297.5479 
L 470.302044 300.748059 
L 470.500415 297.651915 
L 470.69818 300.444729 
L 470.895344 298.263793 
L 471.091909 298.351359 
L 471.287879 300.583814 
L 471.483258 300.783253 
L 471.67805 300.815862 
L 471.872257 298.148868 
L 472.065884 290.971033 
L 472.258934 300.1388 
L 472.45141 299.056669 
L 472.643315 299.523766 
L 472.834654 296.96435 
L 473.025429 296.071991 
L 473.215644 300.599888 
L 473.405302 295.178458 
L 473.78296 301.191052 
L 473.970966 299.873388 
L 474.158429 301.266613 
L 474.34535 298.646962 
L 474.531733 298.742653 
L 474.717581 300.990408 
L 474.902898 296.125263 
L 475.087686 295.287298 
L 475.271948 296.966305 
L 475.455688 300.998675 
L 475.638908 301.281749 
L 475.821611 298.532467 
L 476.003799 301.066506 
L 476.185477 296.097093 
L 476.366647 301.049069 
L 476.547312 298.516113 
L 476.727473 297.70997 
L 476.907135 290.88808 
L 477.0863 296.874696 
L 477.264971 298.506984 
L 477.443151 296.24789 
L 477.620841 297.189743 
L 477.798045 294.827897 
L 477.974766 289.47132 
L 478.151006 299.971802 
L 478.326768 294.777969 
L 478.502054 293.252915 
L 478.676867 299.985895 
L 478.851209 294.711126 
L 479.025083 300.360676 
L 479.198492 288.908003 
L 479.543923 299.645633 
L 479.887521 296.390131 
L 480.229306 297.944374 
L 480.399525 297.97599 
L 480.569297 300.102971 
L 480.738626 299.369671 
L 480.907513 300.007624 
L 481.075961 300.15138 
L 481.243972 300.962175 
L 481.411548 297.012561 
L 481.745405 300.814681 
L 481.91169 291.412976 
L 482.242986 300.712194 
L 482.408 300.625573 
L 482.736773 301.435606 
L 482.900536 292.029242 
L 483.063886 300.706404 
L 483.389354 296.533634 
L 483.551477 298.721082 
L 483.874511 292.628731 
L 484.035426 285.35098 
L 484.195942 292.787476 
L 484.356061 289.110584 
L 484.515785 296.728375 
L 484.834057 293.994305 
L 484.992608 299.869066 
L 485.150772 301.345054 
L 485.308551 301.0651 
L 485.465946 301.644 
L 485.62296 299.786497 
L 485.779594 299.901232 
L 486.09173 301.002106 
L 486.247236 299.887984 
L 486.402369 299.709775 
L 486.557132 296.397386 
L 486.711525 301.170348 
L 486.865552 299.950074 
L 487.17251 301.562818 
L 487.325446 291.069042 
L 487.630238 289.08605 
L 487.782097 287.746982 
L 487.933602 299.798845 
L 488.084753 285.861764 
L 488.235552 288.238844 
L 488.386 299.375505 
L 488.536101 293.779837 
L 488.685854 298.370285 
L 488.835261 288.871904 
L 489.133046 289.63734 
L 489.281427 299.2653 
L 489.577172 290.126619 
L 489.72454 290.422047 
L 489.871573 289.330441 
L 490.164642 282.120469 
L 490.310681 284.269521 
L 490.456391 293.945113 
L 490.601774 282.79879 
L 490.746832 282.606845 
L 490.891565 296.660309 
L 491.035976 284.947606 
L 491.180065 282.818812 
L 491.467286 296.934631 
L 491.61042 283.306031 
L 491.753238 293.466638 
L 491.895742 286.738058 
L 492.037934 297.466042 
L 492.321383 282.668693 
L 492.462644 281.988013 
L 492.603598 282.267724 
L 492.744245 281.2957 
L 492.884588 288.285696 
L 493.024627 280.424358 
L 493.164364 281.666068 
L 493.303801 280.438269 
L 493.581776 285.009094 
L 493.858563 279.766311 
L 493.996515 281.758206 
L 494.134173 293.668271 
L 494.271539 281.034229 
L 494.408614 296.215641 
L 494.5454 296.84448 
L 494.681898 289.809312 
L 494.818109 291.960324 
L 494.954033 278.038488 
L 495.089674 296.145737 
L 495.22503 273.806787 
L 495.360105 294.782533 
L 495.494898 291.011684 
L 495.629411 290.829468 
L 495.763646 290.221341 
L 495.897603 284.382354 
L 496.031283 288.011683 
L 496.164688 295.210762 
L 496.430677 290.107897 
L 496.563262 292.773496 
L 496.695577 279.764357 
L 496.827623 287.177264 
L 497.222151 279.82184 
L 497.353128 291.223998 
L 497.48384 280.489241 
L 497.744477 293.235428 
L 497.874403 297.158058 
L 498.004069 282.019394 
L 498.133476 283.032491 
L 498.262625 271.028548 
L 498.520153 295.533348 
L 498.648533 294.26418 
L 498.77666 296.164704 
L 498.904534 296.06474 
L 499.032156 299.048652 
L 499.159527 295.892743 
L 499.286648 295.830013 
L 499.41352 297.746216 
L 499.540144 297.747894 
L 499.666521 296.159349 
L 499.792652 296.121191 
L 500.044179 298.634246 
L 500.169577 296.442985 
L 500.294733 296.77573 
L 500.419648 296.531401 
L 500.544322 298.15189 
L 500.668756 295.848915 
L 500.792952 288.17416 
L 500.91691 289.446606 
L 501.287368 280.043409 
L 501.410384 290.026169 
L 501.655718 278.873781 
L 501.900126 294.798118 
L 502.021986 284.589206 
L 502.386194 297.35004 
L 502.507142 289.954003 
L 502.627866 291.983924 
L 502.748365 291.537518 
L 502.988692 287.977124 
L 503.108522 286.548412 
L 503.347519 292.201627 
L 503.585638 285.696461 
L 503.704369 292.601778 
L 503.822884 293.027281 
L 504.059264 294.805465 
L 504.177132 286.66821 
L 504.294785 294.441439 
L 504.412225 293.261909 
L 504.529452 298.803616 
L 504.646468 289.054957 
L 504.879867 298.820147 
L 504.996252 298.78972 
L 505.112428 296.501425 
L 505.344157 286.240406 
L 505.459711 293.56678 
L 505.690203 287.327805 
L 505.805142 285.590505 
L 506.03441 298.502223 
L 506.14874 284.531154 
L 506.262869 289.50718 
L 506.376797 285.00444 
L 506.490525 285.863025 
L 506.604054 290.58087 
L 506.717384 285.011777 
L 506.830516 285.536684 
L 506.943451 287.89002 
L 507.168732 281.798779 
L 507.281079 277.045325 
L 507.393232 278.090609 
L 507.50519 294.498015 
L 507.616956 287.192322 
L 507.83991 295.031159 
L 507.9511 296.587003 
L 508.0621 291.271804 
L 508.172909 296.187522 
L 508.393961 292.150422 
L 508.504205 294.252001 
L 508.833814 281.590604 
L 509.052626 297.518711 
L 509.2707 284.593256 
L 509.379463 289.011076 
L 509.488043 280.494566 
L 509.596442 283.065565 
L 509.704659 296.243427 
L 509.920553 280.367795 
L 510.13573 281.647936 
L 510.243051 280.305696 
L 510.350194 291.525394 
L 510.457161 290.810558 
L 510.563951 279.92086 
L 510.777004 285.140359 
L 510.989359 280.421369 
L 511.095276 295.915717 
L 511.201019 287.55905 
L 511.306591 288.749955 
L 511.517219 282.772878 
L 511.622277 288.603076 
L 511.727165 284.150312 
L 511.831883 285.969194 
L 512.145025 284.013415 
L 512.24907 285.95839 
L 512.456661 284.606333 
L 512.560207 284.676323 
L 512.663588 283.70808 
L 512.766804 284.663737 
L 512.869856 295.445413 
L 512.972744 288.123409 
L 513.178032 296.714415 
L 513.38267 287.889249 
L 513.586665 293.983855 
L 513.688422 284.630301 
L 513.790019 291.712142 
L 513.992736 284.01992 
L 514.093857 291.878398 
L 514.194821 286.51756 
L 514.396277 293.841297 
L 514.597109 281.265663 
L 514.797319 277.331057 
L 514.897193 285.243551 
L 514.996913 279.211469 
L 515.09648 284.204227 
L 515.195894 280.74047 
L 515.394265 289.137324 
L 515.493223 286.501092 
L 515.59203 287.099727 
L 515.690687 291.708099 
L 515.789194 289.207571 
L 515.985759 277.311002 
L 516.181729 292.329216 
L 516.279492 281.725041 
L 516.377108 292.092128 
L 516.474577 280.723127 
L 516.5719 282.30359 
L 516.669076 279.28083 
L 516.766107 280.272667 
L 516.862993 295.42541 
L 517.056331 285.534876 
L 517.152784 284.607045 
L 517.249093 295.844008 
L 517.441284 281.106522 
L 517.537166 282.022336 
L 517.632906 296.069035 
L 517.823962 283.293145 
L 517.91928 294.028325 
L 518.014457 283.54217 
L 518.109495 285.237088 
L 518.204393 282.491512 
L 518.393774 290.865962 
L 518.582602 279.954902 
L 518.67681 277.822854 
L 518.770882 290.283485 
L 518.864817 278.489054 
L 518.958616 291.793935 
L 519.145807 279.358715 
L 519.2392 281.847689 
L 519.332459 278.909823 
L 519.425583 282.399315 
L 519.611432 279.251111 
L 519.796748 285.755559 
L 519.981536 277.34176 
L 520.073733 281.956306 
L 520.165799 277.588262 
L 520.257733 287.116651 
L 520.349538 287.076429 
L 520.441213 279.624663 
L 520.532758 290.616244 
L 520.624174 267.756404 
L 520.806619 279.361318 
L 520.89765 277.831565 
L 520.988552 279.937256 
L 521.079328 276.350725 
L 521.169976 278.547064 
L 521.350892 275.779311 
L 521.531305 274.238415 
L 521.711217 276.417758 
L 521.800986 275.997391 
L 521.89063 272.882974 
L 521.980151 273.162104 
L 522.069548 273.141491 
L 522.247972 290.20455 
L 522.337001 279.26917 
L 522.425907 294.862576 
L 522.603354 279.834271 
L 522.691896 282.336623 
L 522.780316 280.076372 
L 522.868616 282.361808 
L 523.220618 273.245745 
L 523.395904 272.351424 
L 523.483369 272.126526 
L 523.570717 272.475916 
L 523.657947 277.504605 
L 523.745059 272.268176 
L 523.832055 275.421464 
L 524.005696 272.568202 
L 524.178873 277.308786 
L 524.265288 273.474181 
L 524.351588 273.754179 
L 524.437773 283.248103 
L 524.523844 272.905778 
L 524.6098 273.02051 
L 524.695643 276.528254 
L 524.866987 273.016217 
L 524.952489 272.916402 
L 525.037879 273.571993 
L 525.123157 273.510328 
L 525.208322 273.123777 
L 525.293375 289.95566 
L 525.463148 273.232377 
L 525.547867 273.367094 
L 525.632476 274.341946 
L 525.716975 273.062588 
L 525.801363 273.093235 
L 525.885642 273.130809 
L 525.969811 273.034196 
L 526.053871 273.256859 
L 526.137822 273.068223 
L 526.305398 275.269906 
L 526.389024 273.193884 
L 526.472542 276.934842 
L 526.555952 272.97425 
L 526.639255 273.455813 
L 526.722451 272.883993 
L 526.80554 285.800243 
L 526.9714 273.016968 
L 527.136836 272.140727 
L 527.219396 273.167311 
L 527.30185 272.416508 
L 527.3842 273.634041 
L 527.466445 277.002588 
L 527.630623 271.602555 
L 527.712556 274.374865 
L 527.794386 272.420422 
L 527.876112 282.807846 
L 527.957736 271.251375 
L 528.039256 272.029217 
L 528.120675 271.957104 
L 528.201991 273.908524 
L 528.283205 282.00561 
L 528.364317 271.649031 
L 528.445328 272.18017 
L 528.526237 271.502442 
L 528.607046 272.005107 
L 528.768361 271.608338 
L 528.848869 271.577927 
L 528.929276 277.2129 
L 529.009584 271.11494 
L 529.089792 271.733746 
L 529.169901 271.635538 
L 529.249911 274.084791 
L 529.409635 271.451909 
L 529.568967 271.227777 
L 529.648485 281.703368 
L 529.727907 281.326882 
L 529.807231 277.014096 
L 529.965588 283.812992 
L 530.044622 279.194984 
L 530.123559 292.825809 
L 530.281146 280.689476 
L 530.359796 281.527888 
L 530.51681 279.913856 
L 530.595174 282.313184 
L 530.8297 275.376688 
L 530.907687 276.911721 
L 530.98558 274.279556 
L 531.06338 282.853292 
L 531.218699 276.267134 
L 531.296219 281.346473 
L 531.373647 272.106752 
L 531.450982 279.575989 
L 531.528225 276.529928 
L 531.605376 278.276831 
L 531.682435 272.774598 
L 531.759402 286.498512 
L 531.913063 275.830211 
L 531.989757 285.073436 
L 532.066361 274.121352 
L 532.142874 274.312794 
L 532.219296 274.454588 
L 532.295629 274.111566 
L 532.371871 275.186951 
L 532.448024 274.20303 
L 532.524088 276.950886 
L 532.751744 272.808396 
L 532.903072 272.254347 
L 532.978603 273.11272 
L 533.054046 272.375388 
L 533.129402 277.323543 
L 533.279851 272.63567 
L 533.429951 272.153535 
L 533.50487 272.903095 
L 533.579704 278.184795 
L 533.654451 272.420315 
L 533.729111 272.64393 
L 533.803686 272.087568 
L 533.878175 272.203483 
L 533.952578 272.014055 
L 534.026896 272.706417 
L 534.175277 271.980033 
L 534.24934 271.842415 
L 534.323318 272.442619 
L 534.397213 271.696688 
L 534.471022 271.9188 
L 534.544748 271.902783 
L 534.61839 271.722339 
L 534.691949 287.518304 
L 534.838815 271.861216 
L 534.912124 271.644319 
L 534.985349 271.688335 
L 535.131553 271.393781 
L 535.204531 271.314466 
L 535.277427 280.400396 
L 535.422974 271.386823 
L 535.568194 271.281555 
L 535.640682 272.22117 
L 535.713089 271.400685 
L 535.785415 272.320118 
L 535.857661 271.088887 
L 535.929826 271.210762 
L 536.073915 271.143188 
L 536.14584 271.458333 
L 536.217685 288.837185 
L 536.361136 271.142225 
L 536.432742 271.375048 
L 536.50427 272.189978 
L 536.575718 280.068661 
L 536.71838 272.197856 
L 536.860727 283.309689 
L 536.931784 269.968357 
L 537.002763 270.408601 
L 537.073664 271.173469 
L 537.144487 270.732074 
L 537.215233 275.206611 
L 537.285902 270.812595 
L 537.356494 271.127619 
L 537.42701 270.851041 
L 537.497448 271.086962 
L 537.56781 270.970621 
L 537.778438 270.789175 
L 537.848496 272.353676 
L 537.918477 270.767842 
L 537.988384 270.791688 
L 538.12797 270.765543 
L 538.197651 271.286799 
L 538.336788 270.757844 
L 538.406244 272.614539 
L 538.475626 270.750519 
L 538.544934 271.298251 
L 538.614168 270.899437 
L 538.683327 270.925321 
L 539.028023 270.633602 
L 539.233963 270.557167 
L 539.302465 284.88596 
L 539.370894 269.082817 
L 539.439251 270.950725 
L 539.507535 270.699462 
L 539.575748 270.735121 
L 539.643889 271.116171 
L 539.711959 270.619544 
L 539.779957 270.713041 
L 539.847884 270.672305 
L 539.915739 271.081612 
L 540.051237 270.690908 
L 540.186453 270.571064 
L 540.253955 270.713789 
L 540.321386 270.6088 
L 540.590413 270.472138 
L 540.925133 270.396151 
L 540.99187 270.492766 
L 541.058538 270.416991 
L 541.655484 270.369221 
L 541.721473 271.245167 
L 541.787395 270.335668 
L 541.853249 270.541614 
L 541.919037 270.318357 
L 541.984758 273.957652 
L 542.116001 270.335347 
L 542.181522 270.35565 
L 542.246978 277.353166 
L 542.37769 270.364306 
L 542.573266 270.361795 
L 542.638327 272.76698 
L 542.768253 270.681927 
L 542.833119 270.619437 
L 542.833119 270.619437 
" clip-path="url(#pbe57e319c9)" style="fill: none; stroke: #ff0000; stroke-width: 1.5; stroke-linecap: square"/>
   </g>
   <g id="matplotlib.axis_1">
    <g id="xtick_1">
     <g id="line2d_8">
      <path d="M 95.495493 314.728 
L 95.495493 26.88 
" clip-path="url(#pbe57e319c9)" style="fill: none; stroke: #b0b0b0; stroke-opacity: 0.3; stroke-width: 0.8; stroke-linecap: square"/>
     </g>
     <g id="line2d_9">
      <defs>
       <path id="m27ded90330" d="M 0 0 
L 0 3.5 
" style="stroke: #000000; stroke-width: 0.8"/>
      </defs>
      <g>
       <use xlink:href="#m27ded90330" x="95.495493" y="314.728" style="stroke: #000000; stroke-width: 0.8"/>
      </g>
     </g>
     <g id="text_1">
      <!-- $\mathdefault{10^{0}}$ -->
      <g transform="translate(86.695493 329.326437) scale(0.1 -0.1)">
       <defs>
        <path id="DejaVuSans-31" d="M 794 531 
L 1825 531 
L 1825 4091 
L 703 3866 
L 703 4441 
L 1819 4666 
L 2450 4666 
L 2450 531 
L 3481 531 
L 3481 0 
L 794 0 
L 794 531 
z
" transform="scale(0.015625)"/>
        <path id="DejaVuSans-30" d="M 2034 4250 
Q 1547 4250 1301 3770 
Q 1056 3291 1056 2328 
Q 1056 1369 1301 889 
Q 1547 409 2034 409 
Q 2525 409 2770 889 
Q 3016 1369 3016 2328 
Q 3016 3291 2770 3770 
Q 2525 4250 2034 4250 
z
M 2034 4750 
Q 2819 4750 3233 4129 
Q 3647 3509 3647 2328 
Q 3647 1150 3233 529 
Q 2819 -91 2034 -91 
Q 1250 -91 836 529 
Q 422 1150 422 2328 
Q 422 3509 836 4129 
Q 1250 4750 2034 4750 
z
" transform="scale(0.015625)"/>
       </defs>
       <use xlink:href="#DejaVuSans-31" transform="translate(0 0.765625)"/>
       <use xlink:href="#DejaVuSans-30" transform="translate(63.623047 0.765625)"/>
       <use xlink:href="#DejaVuSans-30" transform="translate(128.203125 39.046875) scale(0.7)"/>
      </g>
     </g>
    </g>
    <g id="xtick_2">
     <g id="line2d_10">
      <path d="M 244.629635 314.728 
L 244.629635 26.88 
" clip-path="url(#pbe57e319c9)" style="fill: none; stroke: #b0b0b0; stroke-opacity: 0.3; stroke-width: 0.8; stroke-linecap: square"/>
     </g>
     <g id="line2d_11">
      <g>
       <use xlink:href="#m27ded90330" x="244.629635" y="314.728" style="stroke: #000000; stroke-width: 0.8"/>
      </g>
     </g>
     <g id="text_2">
      <!-- $\mathdefault{10^{1}}$ -->
      <g transform="translate(235.829635 329.326437) scale(0.1 -0.1)">
       <use xlink:href="#DejaVuSans-31" transform="translate(0 0.684375)"/>
       <use xlink:href="#DejaVuSans-30" transform="translate(63.623047 0.684375)"/>
       <use xlink:href="#DejaVuSans-31" transform="translate(128.203125 38.965625) scale(0.7)"/>
      </g>
     </g>
    </g>
    <g id="xtick_3">
     <g id="line2d_12">
      <path d="M 393.763777 314.728 
L 393.763777 26.88 
" clip-path="url(#pbe57e319c9)" style="fill: none; stroke: #b0b0b0; stroke-opacity: 0.3; stroke-width: 0.8; stroke-linecap: square"/>
     </g>
     <g id="line2d_13">
      <g>
       <use xlink:href="#m27ded90330" x="393.763777" y="314.728" style="stroke: #000000; stroke-width: 0.8"/>
      </g>
     </g>
     <g id="text_3">
      <!-- $\mathdefault{10^{2}}$ -->
      <g transform="translate(384.963777 329.326437) scale(0.1 -0.1)">
       <defs>
        <path id="DejaVuSans-32" d="M 1228 531 
L 3431 531 
L 3431 0 
L 469 0 
L 469 531 
Q 828 903 1448 1529 
Q 2069 2156 2228 2338 
Q 2531 2678 2651 2914 
Q 2772 3150 2772 3378 
Q 2772 3750 2511 3984 
Q 2250 4219 1831 4219 
Q 1534 4219 1204 4116 
Q 875 4013 500 3803 
L 500 4441 
Q 881 4594 1212 4672 
Q 1544 4750 1819 4750 
Q 2544 4750 2975 4387 
Q 3406 4025 3406 3419 
Q 3406 3131 3298 2873 
Q 3191 2616 2906 2266 
Q 2828 2175 2409 1742 
Q 1991 1309 1228 531 
z
" transform="scale(0.015625)"/>
       </defs>
       <use xlink:href="#DejaVuSans-31" transform="translate(0 0.765625)"/>
       <use xlink:href="#DejaVuSans-30" transform="translate(63.623047 0.765625)"/>
       <use xlink:href="#DejaVuSans-32" transform="translate(128.203125 39.046875) scale(0.7)"/>
      </g>
     </g>
    </g>
    <g id="xtick_4">
     <g id="line2d_14">
      <path d="M 542.897919 314.728 
L 542.897919 26.88 
" clip-path="url(#pbe57e319c9)" style="fill: none; stroke: #b0b0b0; stroke-opacity: 0.3; stroke-width: 0.8; stroke-linecap: square"/>
     </g>
     <g id="line2d_15">
      <g>
       <use xlink:href="#m27ded90330" x="542.897919" y="314.728" style="stroke: #000000; stroke-width: 0.8"/>
      </g>
     </g>
     <g id="text_4">
      <!-- $\mathdefault{10^{3}}$ -->
      <g transform="translate(534.097919 329.326437) scale(0.1 -0.1)">
       <defs>
        <path id="DejaVuSans-33" d="M 2597 2516 
Q 3050 2419 3304 2112 
Q 3559 1806 3559 1356 
Q 3559 666 3084 287 
Q 2609 -91 1734 -91 
Q 1441 -91 1130 -33 
Q 819 25 488 141 
L 488 750 
Q 750 597 1062 519 
Q 1375 441 1716 441 
Q 2309 441 2620 675 
Q 2931 909 2931 1356 
Q 2931 1769 2642 2001 
Q 2353 2234 1838 2234 
L 1294 2234 
L 1294 2753 
L 1863 2753 
Q 2328 2753 2575 2939 
Q 2822 3125 2822 3475 
Q 2822 3834 2567 4026 
Q 2313 4219 1838 4219 
Q 1578 4219 1281 4162 
Q 984 4106 628 3988 
L 628 4550 
Q 988 4650 1302 4700 
Q 1616 4750 1894 4750 
Q 2613 4750 3031 4423 
Q 3450 4097 3450 3541 
Q 3450 3153 3228 2886 
Q 3006 2619 2597 2516 
z
" transform="scale(0.015625)"/>
       </defs>
       <use xlink:href="#DejaVuSans-31" transform="translate(0 0.765625)"/>
       <use xlink:href="#DejaVuSans-30" transform="translate(63.623047 0.765625)"/>
       <use xlink:href="#DejaVuSans-33" transform="translate(128.203125 39.046875) scale(0.7)"/>
      </g>
     </g>
    </g>
    <g id="xtick_5">
     <g id="line2d_16">
      <path d="M 81.042901 314.728 
L 81.042901 26.88 
" clip-path="url(#pbe57e319c9)" style="fill: none; stroke: #b0b0b0; stroke-opacity: 0.3; stroke-width: 0.8; stroke-linecap: square"/>
     </g>
     <g id="line2d_17">
      <defs>
       <path id="m8d2d0f7d89" d="M 0 0 
L 0 2 
" style="stroke: #000000; stroke-width: 0.6"/>
      </defs>
      <g>
       <use xlink:href="#m8d2d0f7d89" x="81.042901" y="314.728" style="stroke: #000000; stroke-width: 0.6"/>
      </g>
     </g>
    </g>
    <g id="xtick_6">
     <g id="line2d_18">
      <path d="M 88.671489 314.728 
L 88.671489 26.88 
" clip-path="url(#pbe57e319c9)" style="fill: none; stroke: #b0b0b0; stroke-opacity: 0.3; stroke-width: 0.8; stroke-linecap: square"/>
     </g>
     <g id="line2d_19">
      <g>
       <use xlink:href="#m8d2d0f7d89" x="88.671489" y="314.728" style="stroke: #000000; stroke-width: 0.6"/>
      </g>
     </g>
    </g>
    <g id="xtick_7">
     <g id="line2d_20">
      <path d="M 140.389343 314.728 
L 140.389343 26.88 
" clip-path="url(#pbe57e319c9)" style="fill: none; stroke: #b0b0b0; stroke-opacity: 0.3; stroke-width: 0.8; stroke-linecap: square"/>
     </g>
     <g id="line2d_21">
      <g>
       <use xlink:href="#m8d2d0f7d89" x="140.389343" y="314.728" style="stroke: #000000; stroke-width: 0.6"/>
      </g>
     </g>
    </g>
    <g id="xtick_8">
     <g id="line2d_22">
      <path d="M 166.650562 314.728 
L 166.650562 26.88 
" clip-path="url(#pbe57e319c9)" style="fill: none; stroke: #b0b0b0; stroke-opacity: 0.3; stroke-width: 0.8; stroke-linecap: square"/>
     </g>
     <g id="line2d_23">
      <g>
       <use xlink:href="#m8d2d0f7d89" x="166.650562" y="314.728" style="stroke: #000000; stroke-width: 0.6"/>
      </g>
     </g>
    </g>
    <g id="xtick_9">
     <g id="line2d_24">
      <path d="M 185.283193 314.728 
L 185.283193 26.88 
" clip-path="url(#pbe57e319c9)" style="fill: none; stroke: #b0b0b0; stroke-opacity: 0.3; stroke-width: 0.8; stroke-linecap: square"/>
     </g>
     <g id="line2d_25">
      <g>
       <use xlink:href="#m8d2d0f7d89" x="185.283193" y="314.728" style="stroke: #000000; stroke-width: 0.6"/>
      </g>
     </g>
    </g>
    <g id="xtick_10">
     <g id="line2d_26">
      <path d="M 199.735785 314.728 
L 199.735785 26.88 
" clip-path="url(#pbe57e319c9)" style="fill: none; stroke: #b0b0b0; stroke-opacity: 0.3; stroke-width: 0.8; stroke-linecap: square"/>
     </g>
     <g id="line2d_27">
      <g>
       <use xlink:href="#m8d2d0f7d89" x="199.735785" y="314.728" style="stroke: #000000; stroke-width: 0.6"/>
      </g>
     </g>
    </g>
    <g id="xtick_11">
     <g id="line2d_28">
      <path d="M 211.544412 314.728 
L 211.544412 26.88 
" clip-path="url(#pbe57e319c9)" style="fill: none; stroke: #b0b0b0; stroke-opacity: 0.3; stroke-width: 0.8; stroke-linecap: square"/>
     </g>
     <g id="line2d_29">
      <g>
       <use xlink:href="#m8d2d0f7d89" x="211.544412" y="314.728" style="stroke: #000000; stroke-width: 0.6"/>
      </g>
     </g>
    </g>
    <g id="xtick_12">
     <g id="line2d_30">
      <path d="M 221.528464 314.728 
L 221.528464 26.88 
" clip-path="url(#pbe57e319c9)" style="fill: none; stroke: #b0b0b0; stroke-opacity: 0.3; stroke-width: 0.8; stroke-linecap: square"/>
     </g>
     <g id="line2d_31">
      <g>
       <use xlink:href="#m8d2d0f7d89" x="221.528464" y="314.728" style="stroke: #000000; stroke-width: 0.6"/>
      </g>
     </g>
    </g>
    <g id="xtick_13">
     <g id="line2d_32">
      <path d="M 230.177043 314.728 
L 230.177043 26.88 
" clip-path="url(#pbe57e319c9)" style="fill: none; stroke: #b0b0b0; stroke-opacity: 0.3; stroke-width: 0.8; stroke-linecap: square"/>
     </g>
     <g id="line2d_33">
      <g>
       <use xlink:href="#m8d2d0f7d89" x="230.177043" y="314.728" style="stroke: #000000; stroke-width: 0.6"/>
      </g>
     </g>
    </g>
    <g id="xtick_14">
     <g id="line2d_34">
      <path d="M 237.805631 314.728 
L 237.805631 26.88 
" clip-path="url(#pbe57e319c9)" style="fill: none; stroke: #b0b0b0; stroke-opacity: 0.3; stroke-width: 0.8; stroke-linecap: square"/>
     </g>
     <g id="line2d_35">
      <g>
       <use xlink:href="#m8d2d0f7d89" x="237.805631" y="314.728" style="stroke: #000000; stroke-width: 0.6"/>
      </g>
     </g>
    </g>
    <g id="xtick_15">
     <g id="line2d_36">
      <path d="M 289.523485 314.728 
L 289.523485 26.88 
" clip-path="url(#pbe57e319c9)" style="fill: none; stroke: #b0b0b0; stroke-opacity: 0.3; stroke-width: 0.8; stroke-linecap: square"/>
     </g>
     <g id="line2d_37">
      <g>
       <use xlink:href="#m8d2d0f7d89" x="289.523485" y="314.728" style="stroke: #000000; stroke-width: 0.6"/>
      </g>
     </g>
    </g>
    <g id="xtick_16">
     <g id="line2d_38">
      <path d="M 315.784704 314.728 
L 315.784704 26.88 
" clip-path="url(#pbe57e319c9)" style="fill: none; stroke: #b0b0b0; stroke-opacity: 0.3; stroke-width: 0.8; stroke-linecap: square"/>
     </g>
     <g id="line2d_39">
      <g>
       <use xlink:href="#m8d2d0f7d89" x="315.784704" y="314.728" style="stroke: #000000; stroke-width: 0.6"/>
      </g>
     </g>
    </g>
    <g id="xtick_17">
     <g id="line2d_40">
      <path d="M 334.417335 314.728 
L 334.417335 26.88 
" clip-path="url(#pbe57e319c9)" style="fill: none; stroke: #b0b0b0; stroke-opacity: 0.3; stroke-width: 0.8; stroke-linecap: square"/>
     </g>
     <g id="line2d_41">
      <g>
       <use xlink:href="#m8d2d0f7d89" x="334.417335" y="314.728" style="stroke: #000000; stroke-width: 0.6"/>
      </g>
     </g>
    </g>
    <g id="xtick_18">
     <g id="line2d_42">
      <path d="M 348.869927 314.728 
L 348.869927 26.88 
" clip-path="url(#pbe57e319c9)" style="fill: none; stroke: #b0b0b0; stroke-opacity: 0.3; stroke-width: 0.8; stroke-linecap: square"/>
     </g>
     <g id="line2d_43">
      <g>
       <use xlink:href="#m8d2d0f7d89" x="348.869927" y="314.728" style="stroke: #000000; stroke-width: 0.6"/>
      </g>
     </g>
    </g>
    <g id="xtick_19">
     <g id="line2d_44">
      <path d="M 360.678554 314.728 
L 360.678554 26.88 
" clip-path="url(#pbe57e319c9)" style="fill: none; stroke: #b0b0b0; stroke-opacity: 0.3; stroke-width: 0.8; stroke-linecap: square"/>
     </g>
     <g id="line2d_45">
      <g>
       <use xlink:href="#m8d2d0f7d89" x="360.678554" y="314.728" style="stroke: #000000; stroke-width: 0.6"/>
      </g>
     </g>
    </g>
    <g id="xtick_20">
     <g id="line2d_46">
      <path d="M 370.662606 314.728 
L 370.662606 26.88 
" clip-path="url(#pbe57e319c9)" style="fill: none; stroke: #b0b0b0; stroke-opacity: 0.3; stroke-width: 0.8; stroke-linecap: square"/>
     </g>
     <g id="line2d_47">
      <g>
       <use xlink:href="#m8d2d0f7d89" x="370.662606" y="314.728" style="stroke: #000000; stroke-width: 0.6"/>
      </g>
     </g>
    </g>
    <g id="xtick_21">
     <g id="line2d_48">
      <path d="M 379.311185 314.728 
L 379.311185 26.88 
" clip-path="url(#pbe57e319c9)" style="fill: none; stroke: #b0b0b0; stroke-opacity: 0.3; stroke-width: 0.8; stroke-linecap: square"/>
     </g>
     <g id="line2d_49">
      <g>
       <use xlink:href="#m8d2d0f7d89" x="379.311185" y="314.728" style="stroke: #000000; stroke-width: 0.6"/>
      </g>
     </g>
    </g>
    <g id="xtick_22">
     <g id="line2d_50">
      <path d="M 386.939773 314.728 
L 386.939773 26.88 
" clip-path="url(#pbe57e319c9)" style="fill: none; stroke: #b0b0b0; stroke-opacity: 0.3; stroke-width: 0.8; stroke-linecap: square"/>
     </g>
     <g id="line2d_51">
      <g>
       <use xlink:href="#m8d2d0f7d89" x="386.939773" y="314.728" style="stroke: #000000; stroke-width: 0.6"/>
      </g>
     </g>
    </g>
    <g id="xtick_23">
     <g id="line2d_52">
      <path d="M 438.657627 314.728 
L 438.657627 26.88 
" clip-path="url(#pbe57e319c9)" style="fill: none; stroke: #b0b0b0; stroke-opacity: 0.3; stroke-width: 0.8; stroke-linecap: square"/>
     </g>
     <g id="line2d_53">
      <g>
       <use xlink:href="#m8d2d0f7d89" x="438.657627" y="314.728" style="stroke: #000000; stroke-width: 0.6"/>
      </g>
     </g>
    </g>
    <g id="xtick_24">
     <g id="line2d_54">
      <path d="M 464.918846 314.728 
L 464.918846 26.88 
" clip-path="url(#pbe57e319c9)" style="fill: none; stroke: #b0b0b0; stroke-opacity: 0.3; stroke-width: 0.8; stroke-linecap: square"/>
     </g>
     <g id="line2d_55">
      <g>
       <use xlink:href="#m8d2d0f7d89" x="464.918846" y="314.728" style="stroke: #000000; stroke-width: 0.6"/>
      </g>
     </g>
    </g>
    <g id="xtick_25">
     <g id="line2d_56">
      <path d="M 483.551477 314.728 
L 483.551477 26.88 
" clip-path="url(#pbe57e319c9)" style="fill: none; stroke: #b0b0b0; stroke-opacity: 0.3; stroke-width: 0.8; stroke-linecap: square"/>
     </g>
     <g id="line2d_57">
      <g>
       <use xlink:href="#m8d2d0f7d89" x="483.551477" y="314.728" style="stroke: #000000; stroke-width: 0.6"/>
      </g>
     </g>
    </g>
    <g id="xtick_26">
     <g id="line2d_58">
      <path d="M 498.004069 314.728 
L 498.004069 26.88 
" clip-path="url(#pbe57e319c9)" style="fill: none; stroke: #b0b0b0; stroke-opacity: 0.3; stroke-width: 0.8; stroke-linecap: square"/>
     </g>
     <g id="line2d_59">
      <g>
       <use xlink:href="#m8d2d0f7d89" x="498.004069" y="314.728" style="stroke: #000000; stroke-width: 0.6"/>
      </g>
     </g>
    </g>
    <g id="xtick_27">
     <g id="line2d_60">
      <path d="M 509.812696 314.728 
L 509.812696 26.88 
" clip-path="url(#pbe57e319c9)" style="fill: none; stroke: #b0b0b0; stroke-opacity: 0.3; stroke-width: 0.8; stroke-linecap: square"/>
     </g>
     <g id="line2d_61">
      <g>
       <use xlink:href="#m8d2d0f7d89" x="509.812696" y="314.728" style="stroke: #000000; stroke-width: 0.6"/>
      </g>
     </g>
    </g>
    <g id="xtick_28">
     <g id="line2d_62">
      <path d="M 519.796748 314.728 
L 519.796748 26.88 
" clip-path="url(#pbe57e319c9)" style="fill: none; stroke: #b0b0b0; stroke-opacity: 0.3; stroke-width: 0.8; stroke-linecap: square"/>
     </g>
     <g id="line2d_63">
      <g>
       <use xlink:href="#m8d2d0f7d89" x="519.796748" y="314.728" style="stroke: #000000; stroke-width: 0.6"/>
      </g>
     </g>
    </g>
    <g id="xtick_29">
     <g id="line2d_64">
      <path d="M 528.445328 314.728 
L 528.445328 26.88 
" clip-path="url(#pbe57e319c9)" style="fill: none; stroke: #b0b0b0; stroke-opacity: 0.3; stroke-width: 0.8; stroke-linecap: square"/>
     </g>
     <g id="line2d_65">
      <g>
       <use xlink:href="#m8d2d0f7d89" x="528.445328" y="314.728" style="stroke: #000000; stroke-width: 0.6"/>
      </g>
     </g>
    </g>
    <g id="xtick_30">
     <g id="line2d_66">
      <path d="M 536.073915 314.728 
L 536.073915 26.88 
" clip-path="url(#pbe57e319c9)" style="fill: none; stroke: #b0b0b0; stroke-opacity: 0.3; stroke-width: 0.8; stroke-linecap: square"/>
     </g>
     <g id="line2d_67">
      <g>
       <use xlink:href="#m8d2d0f7d89" x="536.073915" y="314.728" style="stroke: #000000; stroke-width: 0.6"/>
      </g>
     </g>
    </g>
    <g id="text_5">
     <!-- Iteration (Log Scale) -->
     <g transform="translate(268.490868 343.004562) scale(0.1 -0.1)">
      <defs>
       <path id="DejaVuSans-49" d="M 628 4666 
L 1259 4666 
L 1259 0 
L 628 0 
L 628 4666 
z
" transform="scale(0.015625)"/>
       <path id="DejaVuSans-74" d="M 1172 4494 
L 1172 3500 
L 2356 3500 
L 2356 3053 
L 1172 3053 
L 1172 1153 
Q 1172 725 1289 603 
Q 1406 481 1766 481 
L 2356 481 
L 2356 0 
L 1766 0 
Q 1100 0 847 248 
Q 594 497 594 1153 
L 594 3053 
L 172 3053 
L 172 3500 
L 594 3500 
L 594 4494 
L 1172 4494 
z
" transform="scale(0.015625)"/>
       <path id="DejaVuSans-65" d="M 3597 1894 
L 3597 1613 
L 953 1613 
Q 991 1019 1311 708 
Q 1631 397 2203 397 
Q 2534 397 2845 478 
Q 3156 559 3463 722 
L 3463 178 
Q 3153 47 2828 -22 
Q 2503 -91 2169 -91 
Q 1331 -91 842 396 
Q 353 884 353 1716 
Q 353 2575 817 3079 
Q 1281 3584 2069 3584 
Q 2775 3584 3186 3129 
Q 3597 2675 3597 1894 
z
M 3022 2063 
Q 3016 2534 2758 2815 
Q 2500 3097 2075 3097 
Q 1594 3097 1305 2825 
Q 1016 2553 972 2059 
L 3022 2063 
z
" transform="scale(0.015625)"/>
       <path id="DejaVuSans-72" d="M 2631 2963 
Q 2534 3019 2420 3045 
Q 2306 3072 2169 3072 
Q 1681 3072 1420 2755 
Q 1159 2438 1159 1844 
L 1159 0 
L 581 0 
L 581 3500 
L 1159 3500 
L 1159 2956 
Q 1341 3275 1631 3429 
Q 1922 3584 2338 3584 
Q 2397 3584 2469 3576 
Q 2541 3569 2628 3553 
L 2631 2963 
z
" transform="scale(0.015625)"/>
       <path id="DejaVuSans-61" d="M 2194 1759 
Q 1497 1759 1228 1600 
Q 959 1441 959 1056 
Q 959 750 1161 570 
Q 1363 391 1709 391 
Q 2188 391 2477 730 
Q 2766 1069 2766 1631 
L 2766 1759 
L 2194 1759 
z
M 3341 1997 
L 3341 0 
L 2766 0 
L 2766 531 
Q 2569 213 2275 61 
Q 1981 -91 1556 -91 
Q 1019 -91 701 211 
Q 384 513 384 1019 
Q 384 1609 779 1909 
Q 1175 2209 1959 2209 
L 2766 2209 
L 2766 2266 
Q 2766 2663 2505 2880 
Q 2244 3097 1772 3097 
Q 1472 3097 1187 3025 
Q 903 2953 641 2809 
L 641 3341 
Q 956 3463 1253 3523 
Q 1550 3584 1831 3584 
Q 2591 3584 2966 3190 
Q 3341 2797 3341 1997 
z
" transform="scale(0.015625)"/>
       <path id="DejaVuSans-69" d="M 603 3500 
L 1178 3500 
L 1178 0 
L 603 0 
L 603 3500 
z
M 603 4863 
L 1178 4863 
L 1178 4134 
L 603 4134 
L 603 4863 
z
" transform="scale(0.015625)"/>
       <path id="DejaVuSans-6f" d="M 1959 3097 
Q 1497 3097 1228 2736 
Q 959 2375 959 1747 
Q 959 1119 1226 758 
Q 1494 397 1959 397 
Q 2419 397 2687 759 
Q 2956 1122 2956 1747 
Q 2956 2369 2687 2733 
Q 2419 3097 1959 3097 
z
M 1959 3584 
Q 2709 3584 3137 3096 
Q 3566 2609 3566 1747 
Q 3566 888 3137 398 
Q 2709 -91 1959 -91 
Q 1206 -91 779 398 
Q 353 888 353 1747 
Q 353 2609 779 3096 
Q 1206 3584 1959 3584 
z
" transform="scale(0.015625)"/>
       <path id="DejaVuSans-6e" d="M 3513 2113 
L 3513 0 
L 2938 0 
L 2938 2094 
Q 2938 2591 2744 2837 
Q 2550 3084 2163 3084 
Q 1697 3084 1428 2787 
Q 1159 2491 1159 1978 
L 1159 0 
L 581 0 
L 581 3500 
L 1159 3500 
L 1159 2956 
Q 1366 3272 1645 3428 
Q 1925 3584 2291 3584 
Q 2894 3584 3203 3211 
Q 3513 2838 3513 2113 
z
" transform="scale(0.015625)"/>
       <path id="DejaVuSans-20" transform="scale(0.015625)"/>
       <path id="DejaVuSans-28" d="M 1984 4856 
Q 1566 4138 1362 3434 
Q 1159 2731 1159 2009 
Q 1159 1288 1364 580 
Q 1569 -128 1984 -844 
L 1484 -844 
Q 1016 -109 783 600 
Q 550 1309 550 2009 
Q 550 2706 781 3412 
Q 1013 4119 1484 4856 
L 1984 4856 
z
" transform="scale(0.015625)"/>
       <path id="DejaVuSans-4c" d="M 628 4666 
L 1259 4666 
L 1259 531 
L 3531 531 
L 3531 0 
L 628 0 
L 628 4666 
z
" transform="scale(0.015625)"/>
       <path id="DejaVuSans-67" d="M 2906 1791 
Q 2906 2416 2648 2759 
Q 2391 3103 1925 3103 
Q 1463 3103 1205 2759 
Q 947 2416 947 1791 
Q 947 1169 1205 825 
Q 1463 481 1925 481 
Q 2391 481 2648 825 
Q 2906 1169 2906 1791 
z
M 3481 434 
Q 3481 -459 3084 -895 
Q 2688 -1331 1869 -1331 
Q 1566 -1331 1297 -1286 
Q 1028 -1241 775 -1147 
L 775 -588 
Q 1028 -725 1275 -790 
Q 1522 -856 1778 -856 
Q 2344 -856 2625 -561 
Q 2906 -266 2906 331 
L 2906 616 
Q 2728 306 2450 153 
Q 2172 0 1784 0 
Q 1141 0 747 490 
Q 353 981 353 1791 
Q 353 2603 747 3093 
Q 1141 3584 1784 3584 
Q 2172 3584 2450 3431 
Q 2728 3278 2906 2969 
L 2906 3500 
L 3481 3500 
L 3481 434 
z
" transform="scale(0.015625)"/>
       <path id="DejaVuSans-53" d="M 3425 4513 
L 3425 3897 
Q 3066 4069 2747 4153 
Q 2428 4238 2131 4238 
Q 1616 4238 1336 4038 
Q 1056 3838 1056 3469 
Q 1056 3159 1242 3001 
Q 1428 2844 1947 2747 
L 2328 2669 
Q 3034 2534 3370 2195 
Q 3706 1856 3706 1288 
Q 3706 609 3251 259 
Q 2797 -91 1919 -91 
Q 1588 -91 1214 -16 
Q 841 59 441 206 
L 441 856 
Q 825 641 1194 531 
Q 1563 422 1919 422 
Q 2459 422 2753 634 
Q 3047 847 3047 1241 
Q 3047 1584 2836 1778 
Q 2625 1972 2144 2069 
L 1759 2144 
Q 1053 2284 737 2584 
Q 422 2884 422 3419 
Q 422 4038 858 4394 
Q 1294 4750 2059 4750 
Q 2388 4750 2728 4690 
Q 3069 4631 3425 4513 
z
" transform="scale(0.015625)"/>
       <path id="DejaVuSans-63" d="M 3122 3366 
L 3122 2828 
Q 2878 2963 2633 3030 
Q 2388 3097 2138 3097 
Q 1578 3097 1268 2742 
Q 959 2388 959 1747 
Q 959 1106 1268 751 
Q 1578 397 2138 397 
Q 2388 397 2633 464 
Q 2878 531 3122 666 
L 3122 134 
Q 2881 22 2623 -34 
Q 2366 -91 2075 -91 
Q 1284 -91 818 406 
Q 353 903 353 1747 
Q 353 2603 823 3093 
Q 1294 3584 2113 3584 
Q 2378 3584 2631 3529 
Q 2884 3475 3122 3366 
z
" transform="scale(0.015625)"/>
       <path id="DejaVuSans-6c" d="M 603 4863 
L 1178 4863 
L 1178 0 
L 603 0 
L 603 4863 
z
" transform="scale(0.015625)"/>
       <path id="DejaVuSans-29" d="M 513 4856 
L 1013 4856 
Q 1481 4119 1714 3412 
Q 1947 2706 1947 2009 
Q 1947 1309 1714 600 
Q 1481 -109 1013 -844 
L 513 -844 
Q 928 -128 1133 580 
Q 1338 1288 1338 2009 
Q 1338 2731 1133 3434 
Q 928 4138 513 4856 
z
" transform="scale(0.015625)"/>
      </defs>
      <use xlink:href="#DejaVuSans-49"/>
      <use xlink:href="#DejaVuSans-74" transform="translate(29.492188 0)"/>
      <use xlink:href="#DejaVuSans-65" transform="translate(68.701172 0)"/>
      <use xlink:href="#DejaVuSans-72" transform="translate(130.224609 0)"/>
      <use xlink:href="#DejaVuSans-61" transform="translate(171.337891 0)"/>
      <use xlink:href="#DejaVuSans-74" transform="translate(232.617188 0)"/>
      <use xlink:href="#DejaVuSans-69" transform="translate(271.826172 0)"/>
      <use xlink:href="#DejaVuSans-6f" transform="translate(299.609375 0)"/>
      <use xlink:href="#DejaVuSans-6e" transform="translate(360.791016 0)"/>
      <use xlink:href="#DejaVuSans-20" transform="translate(424.169922 0)"/>
      <use xlink:href="#DejaVuSans-28" transform="translate(455.957031 0)"/>
      <use xlink:href="#DejaVuSans-4c" transform="translate(494.970703 0)"/>
      <use xlink:href="#DejaVuSans-6f" transform="translate(548.933594 0)"/>
      <use xlink:href="#DejaVuSans-67" transform="translate(610.115234 0)"/>
      <use xlink:href="#DejaVuSans-20" transform="translate(673.591797 0)"/>
      <use xlink:href="#DejaVuSans-53" transform="translate(705.378906 0)"/>
      <use xlink:href="#DejaVuSans-63" transform="translate(768.855469 0)"/>
      <use xlink:href="#DejaVuSans-61" transform="translate(823.835938 0)"/>
      <use xlink:href="#DejaVuSans-6c" transform="translate(885.115234 0)"/>
      <use xlink:href="#DejaVuSans-65" transform="translate(912.898438 0)"/>
      <use xlink:href="#DejaVuSans-29" transform="translate(974.421875 0)"/>
     </g>
    </g>
   </g>
   <g id="matplotlib.axis_2">
    <g id="ytick_1">
     <g id="line2d_68">
      <path d="M 73.128612 190.292942 
L 565.2 190.292942 
" clip-path="url(#pbe57e319c9)" style="fill: none; stroke: #b0b0b0; stroke-opacity: 0.3; stroke-width: 0.8; stroke-linecap: square"/>
     </g>
     <g id="line2d_69">
      <defs>
       <path id="m983c4d3fa9" d="M 0 0 
L -2 0 
" style="stroke: #000000; stroke-width: 0.6"/>
      </defs>
      <g>
       <use xlink:href="#m983c4d3fa9" x="73.128612" y="190.292942" style="stroke: #000000; stroke-width: 0.6"/>
      </g>
     </g>
     <g id="text_6">
      <!-- $\mathdefault{5\times10^{-2}}$ -->
      <g transform="translate(25.628612 194.09216) scale(0.1 -0.1)">
       <defs>
        <path id="DejaVuSans-35" d="M 691 4666 
L 3169 4666 
L 3169 4134 
L 1269 4134 
L 1269 2991 
Q 1406 3038 1543 3061 
Q 1681 3084 1819 3084 
Q 2600 3084 3056 2656 
Q 3513 2228 3513 1497 
Q 3513 744 3044 326 
Q 2575 -91 1722 -91 
Q 1428 -91 1123 -41 
Q 819 9 494 109 
L 494 744 
Q 775 591 1075 516 
Q 1375 441 1709 441 
Q 2250 441 2565 725 
Q 2881 1009 2881 1497 
Q 2881 1984 2565 2268 
Q 2250 2553 1709 2553 
Q 1456 2553 1204 2497 
Q 953 2441 691 2322 
L 691 4666 
z
" transform="scale(0.015625)"/>
        <path id="DejaVuSans-d7" d="M 4488 3438 
L 3059 2003 
L 4488 575 
L 4116 197 
L 2681 1631 
L 1247 197 
L 878 575 
L 2303 2003 
L 878 3438 
L 1247 3816 
L 2681 2381 
L 4116 3816 
L 4488 3438 
z
" transform="scale(0.015625)"/>
        <path id="DejaVuSans-2212" d="M 678 2272 
L 4684 2272 
L 4684 1741 
L 678 1741 
L 678 2272 
z
" transform="scale(0.015625)"/>
       </defs>
       <use xlink:href="#DejaVuSans-35" transform="translate(0 0.765625)"/>
       <use xlink:href="#DejaVuSans-d7" transform="translate(83.105469 0.765625)"/>
       <use xlink:href="#DejaVuSans-31" transform="translate(186.376953 0.765625)"/>
       <use xlink:href="#DejaVuSans-30" transform="translate(250 0.765625)"/>
       <use xlink:href="#DejaVuSans-2212" transform="translate(314.580078 39.046875) scale(0.7)"/>
       <use xlink:href="#DejaVuSans-32" transform="translate(373.232422 39.046875) scale(0.7)"/>
      </g>
     </g>
    </g>
    <g id="ytick_2">
     <g id="line2d_70">
      <path d="M 73.128612 81.361519 
L 565.2 81.361519 
" clip-path="url(#pbe57e319c9)" style="fill: none; stroke: #b0b0b0; stroke-opacity: 0.3; stroke-width: 0.8; stroke-linecap: square"/>
     </g>
     <g id="line2d_71">
      <g>
       <use xlink:href="#m983c4d3fa9" x="73.128612" y="81.361519" style="stroke: #000000; stroke-width: 0.6"/>
      </g>
     </g>
     <g id="text_7">
      <!-- $\mathdefault{6\times10^{-2}}$ -->
      <g transform="translate(25.628612 85.160737) scale(0.1 -0.1)">
       <defs>
        <path id="DejaVuSans-36" d="M 2113 2584 
Q 1688 2584 1439 2293 
Q 1191 2003 1191 1497 
Q 1191 994 1439 701 
Q 1688 409 2113 409 
Q 2538 409 2786 701 
Q 3034 994 3034 1497 
Q 3034 2003 2786 2293 
Q 2538 2584 2113 2584 
z
M 3366 4563 
L 3366 3988 
Q 3128 4100 2886 4159 
Q 2644 4219 2406 4219 
Q 1781 4219 1451 3797 
Q 1122 3375 1075 2522 
Q 1259 2794 1537 2939 
Q 1816 3084 2150 3084 
Q 2853 3084 3261 2657 
Q 3669 2231 3669 1497 
Q 3669 778 3244 343 
Q 2819 -91 2113 -91 
Q 1303 -91 875 529 
Q 447 1150 447 2328 
Q 447 3434 972 4092 
Q 1497 4750 2381 4750 
Q 2619 4750 2861 4703 
Q 3103 4656 3366 4563 
z
" transform="scale(0.015625)"/>
       </defs>
       <use xlink:href="#DejaVuSans-36" transform="translate(0 0.765625)"/>
       <use xlink:href="#DejaVuSans-d7" transform="translate(83.105469 0.765625)"/>
       <use xlink:href="#DejaVuSans-31" transform="translate(186.376953 0.765625)"/>
       <use xlink:href="#DejaVuSans-30" transform="translate(250 0.765625)"/>
       <use xlink:href="#DejaVuSans-2212" transform="translate(314.580078 39.046875) scale(0.7)"/>
       <use xlink:href="#DejaVuSans-32" transform="translate(373.232422 39.046875) scale(0.7)"/>
      </g>
     </g>
    </g>
    <g id="text_8">
     <!-- ||x_k - x_GT|| / ||x_GT|| (Log Scale) -->
     <g transform="translate(19.270799 256.355563) rotate(-90) scale(0.1 -0.1)">
      <defs>
       <path id="DejaVuSans-7c" d="M 1344 4891 
L 1344 -1509 
L 813 -1509 
L 813 4891 
L 1344 4891 
z
" transform="scale(0.015625)"/>
       <path id="DejaVuSans-78" d="M 3513 3500 
L 2247 1797 
L 3578 0 
L 2900 0 
L 1881 1375 
L 863 0 
L 184 0 
L 1544 1831 
L 300 3500 
L 978 3500 
L 1906 2253 
L 2834 3500 
L 3513 3500 
z
" transform="scale(0.015625)"/>
       <path id="DejaVuSans-5f" d="M 3263 -1063 
L 3263 -1509 
L -63 -1509 
L -63 -1063 
L 3263 -1063 
z
" transform="scale(0.015625)"/>
       <path id="DejaVuSans-6b" d="M 581 4863 
L 1159 4863 
L 1159 1991 
L 2875 3500 
L 3609 3500 
L 1753 1863 
L 3688 0 
L 2938 0 
L 1159 1709 
L 1159 0 
L 581 0 
L 581 4863 
z
" transform="scale(0.015625)"/>
       <path id="DejaVuSans-2d" d="M 313 2009 
L 1997 2009 
L 1997 1497 
L 313 1497 
L 313 2009 
z
" transform="scale(0.015625)"/>
       <path id="DejaVuSans-47" d="M 3809 666 
L 3809 1919 
L 2778 1919 
L 2778 2438 
L 4434 2438 
L 4434 434 
Q 4069 175 3628 42 
Q 3188 -91 2688 -91 
Q 1594 -91 976 548 
Q 359 1188 359 2328 
Q 359 3472 976 4111 
Q 1594 4750 2688 4750 
Q 3144 4750 3555 4637 
Q 3966 4525 4313 4306 
L 4313 3634 
Q 3963 3931 3569 4081 
Q 3175 4231 2741 4231 
Q 1884 4231 1454 3753 
Q 1025 3275 1025 2328 
Q 1025 1384 1454 906 
Q 1884 428 2741 428 
Q 3075 428 3337 486 
Q 3600 544 3809 666 
z
" transform="scale(0.015625)"/>
       <path id="DejaVuSans-54" d="M -19 4666 
L 3928 4666 
L 3928 4134 
L 2272 4134 
L 2272 0 
L 1638 0 
L 1638 4134 
L -19 4134 
L -19 4666 
z
" transform="scale(0.015625)"/>
       <path id="DejaVuSans-2f" d="M 1625 4666 
L 2156 4666 
L 531 -594 
L 0 -594 
L 1625 4666 
z
" transform="scale(0.015625)"/>
      </defs>
      <use xlink:href="#DejaVuSans-7c"/>
      <use xlink:href="#DejaVuSans-7c" transform="translate(33.691406 0)"/>
      <use xlink:href="#DejaVuSans-78" transform="translate(67.382812 0)"/>
      <use xlink:href="#DejaVuSans-5f" transform="translate(126.5625 0)"/>
      <use xlink:href="#DejaVuSans-6b" transform="translate(176.5625 0)"/>
      <use xlink:href="#DejaVuSans-20" transform="translate(234.472656 0)"/>
      <use xlink:href="#DejaVuSans-2d" transform="translate(266.259766 0)"/>
      <use xlink:href="#DejaVuSans-20" transform="translate(302.34375 0)"/>
      <use xlink:href="#DejaVuSans-78" transform="translate(334.130859 0)"/>
      <use xlink:href="#DejaVuSans-5f" transform="translate(393.310547 0)"/>
      <use xlink:href="#DejaVuSans-47" transform="translate(443.310547 0)"/>
      <use xlink:href="#DejaVuSans-54" transform="translate(517.175781 0)"/>
      <use xlink:href="#DejaVuSans-7c" transform="translate(578.259766 0)"/>
      <use xlink:href="#DejaVuSans-7c" transform="translate(611.951172 0)"/>
      <use xlink:href="#DejaVuSans-20" transform="translate(645.642578 0)"/>
      <use xlink:href="#DejaVuSans-2f" transform="translate(677.429688 0)"/>
      <use xlink:href="#DejaVuSans-20" transform="translate(711.121094 0)"/>
      <use xlink:href="#DejaVuSans-7c" transform="translate(742.908203 0)"/>
      <use xlink:href="#DejaVuSans-7c" transform="translate(776.599609 0)"/>
      <use xlink:href="#DejaVuSans-78" transform="translate(810.291016 0)"/>
      <use xlink:href="#DejaVuSans-5f" transform="translate(869.470703 0)"/>
      <use xlink:href="#DejaVuSans-47" transform="translate(919.470703 0)"/>
      <use xlink:href="#DejaVuSans-54" transform="translate(993.335938 0)"/>
      <use xlink:href="#DejaVuSans-7c" transform="translate(1054.419922 0)"/>
      <use xlink:href="#DejaVuSans-7c" transform="translate(1088.111328 0)"/>
      <use xlink:href="#DejaVuSans-20" transform="translate(1121.802734 0)"/>
      <use xlink:href="#DejaVuSans-28" transform="translate(1153.589844 0)"/>
      <use xlink:href="#DejaVuSans-4c" transform="translate(1192.603516 0)"/>
      <use xlink:href="#DejaVuSans-6f" transform="translate(1246.566406 0)"/>
      <use xlink:href="#DejaVuSans-67" transform="translate(1307.748047 0)"/>
      <use xlink:href="#DejaVuSans-20" transform="translate(1371.224609 0)"/>
      <use xlink:href="#DejaVuSans-53" transform="translate(1403.011719 0)"/>
      <use xlink:href="#DejaVuSans-63" transform="translate(1466.488281 0)"/>
      <use xlink:href="#DejaVuSans-61" transform="translate(1521.46875 0)"/>
      <use xlink:href="#DejaVuSans-6c" transform="translate(1582.748047 0)"/>
      <use xlink:href="#DejaVuSans-65" transform="translate(1610.53125 0)"/>
      <use xlink:href="#DejaVuSans-29" transform="translate(1672.054688 0)"/>
     </g>
    </g>
   </g>
   <g id="patch_3">
    <path d="M 73.128612 314.728 
L 73.128612 26.88 
" style="fill: none; stroke: #000000; stroke-width: 0.8; stroke-linejoin: miter; stroke-linecap: square"/>
   </g>
   <g id="patch_4">
    <path d="M 565.2 314.728 
L 565.2 26.88 
" style="fill: none; stroke: #000000; stroke-width: 0.8; stroke-linejoin: miter; stroke-linecap: square"/>
   </g>
   <g id="patch_5">
    <path d="M 73.128612 314.728 
L 565.2 314.728 
" style="fill: none; stroke: #000000; stroke-width: 0.8; stroke-linejoin: miter; stroke-linecap: square"/>
   </g>
   <g id="patch_6">
    <path d="M 73.128612 26.88 
L 565.2 26.88 
" style="fill: none; stroke: #000000; stroke-width: 0.8; stroke-linejoin: miter; stroke-linecap: square"/>
   </g>
   <g id="text_9">
    <!-- Error Relative to GT - Image 3 -->
    <g transform="translate(230.009931 20.88) scale(0.12 -0.12)">
     <defs>
      <path id="DejaVuSans-45" d="M 628 4666 
L 3578 4666 
L 3578 4134 
L 1259 4134 
L 1259 2753 
L 3481 2753 
L 3481 2222 
L 1259 2222 
L 1259 531 
L 3634 531 
L 3634 0 
L 628 0 
L 628 4666 
z
" transform="scale(0.015625)"/>
      <path id="DejaVuSans-52" d="M 2841 2188 
Q 3044 2119 3236 1894 
Q 3428 1669 3622 1275 
L 4263 0 
L 3584 0 
L 2988 1197 
Q 2756 1666 2539 1819 
Q 2322 1972 1947 1972 
L 1259 1972 
L 1259 0 
L 628 0 
L 628 4666 
L 2053 4666 
Q 2853 4666 3247 4331 
Q 3641 3997 3641 3322 
Q 3641 2881 3436 2590 
Q 3231 2300 2841 2188 
z
M 1259 4147 
L 1259 2491 
L 2053 2491 
Q 2509 2491 2742 2702 
Q 2975 2913 2975 3322 
Q 2975 3731 2742 3939 
Q 2509 4147 2053 4147 
L 1259 4147 
z
" transform="scale(0.015625)"/>
      <path id="DejaVuSans-76" d="M 191 3500 
L 800 3500 
L 1894 563 
L 2988 3500 
L 3597 3500 
L 2284 0 
L 1503 0 
L 191 3500 
z
" transform="scale(0.015625)"/>
      <path id="DejaVuSans-6d" d="M 3328 2828 
Q 3544 3216 3844 3400 
Q 4144 3584 4550 3584 
Q 5097 3584 5394 3201 
Q 5691 2819 5691 2113 
L 5691 0 
L 5113 0 
L 5113 2094 
Q 5113 2597 4934 2840 
Q 4756 3084 4391 3084 
Q 3944 3084 3684 2787 
Q 3425 2491 3425 1978 
L 3425 0 
L 2847 0 
L 2847 2094 
Q 2847 2600 2669 2842 
Q 2491 3084 2119 3084 
Q 1678 3084 1418 2786 
Q 1159 2488 1159 1978 
L 1159 0 
L 581 0 
L 581 3500 
L 1159 3500 
L 1159 2956 
Q 1356 3278 1631 3431 
Q 1906 3584 2284 3584 
Q 2666 3584 2933 3390 
Q 3200 3197 3328 2828 
z
" transform="scale(0.015625)"/>
     </defs>
     <use xlink:href="#DejaVuSans-45"/>
     <use xlink:href="#DejaVuSans-72" transform="translate(63.183594 0)"/>
     <use xlink:href="#DejaVuSans-72" transform="translate(102.546875 0)"/>
     <use xlink:href="#DejaVuSans-6f" transform="translate(141.410156 0)"/>
     <use xlink:href="#DejaVuSans-72" transform="translate(202.591797 0)"/>
     <use xlink:href="#DejaVuSans-20" transform="translate(243.705078 0)"/>
     <use xlink:href="#DejaVuSans-52" transform="translate(275.492188 0)"/>
     <use xlink:href="#DejaVuSans-65" transform="translate(340.474609 0)"/>
     <use xlink:href="#DejaVuSans-6c" transform="translate(401.998047 0)"/>
     <use xlink:href="#DejaVuSans-61" transform="translate(429.78125 0)"/>
     <use xlink:href="#DejaVuSans-74" transform="translate(491.060547 0)"/>
     <use xlink:href="#DejaVuSans-69" transform="translate(530.269531 0)"/>
     <use xlink:href="#DejaVuSans-76" transform="translate(558.052734 0)"/>
     <use xlink:href="#DejaVuSans-65" transform="translate(617.232422 0)"/>
     <use xlink:href="#DejaVuSans-20" transform="translate(678.755859 0)"/>
     <use xlink:href="#DejaVuSans-74" transform="translate(710.542969 0)"/>
     <use xlink:href="#DejaVuSans-6f" transform="translate(749.751953 0)"/>
     <use xlink:href="#DejaVuSans-20" transform="translate(810.933594 0)"/>
     <use xlink:href="#DejaVuSans-47" transform="translate(842.720703 0)"/>
     <use xlink:href="#DejaVuSans-54" transform="translate(916.585938 0)"/>
     <use xlink:href="#DejaVuSans-20" transform="translate(977.669922 0)"/>
     <use xlink:href="#DejaVuSans-2d" transform="translate(1009.457031 0)"/>
     <use xlink:href="#DejaVuSans-20" transform="translate(1045.541016 0)"/>
     <use xlink:href="#DejaVuSans-49" transform="translate(1077.328125 0)"/>
     <use xlink:href="#DejaVuSans-6d" transform="translate(1106.820312 0)"/>
     <use xlink:href="#DejaVuSans-61" transform="translate(1204.232422 0)"/>
     <use xlink:href="#DejaVuSans-67" transform="translate(1265.511719 0)"/>
     <use xlink:href="#DejaVuSans-65" transform="translate(1328.988281 0)"/>
     <use xlink:href="#DejaVuSans-20" transform="translate(1390.511719 0)"/>
     <use xlink:href="#DejaVuSans-33" transform="translate(1422.298828 0)"/>
    </g>
   </g>
   <g id="legend_1">
    <g id="patch_7">
     <path d="M 483.914317 121.827181 
L 561.369 121.827181 
Q 563.035 121.827181 563.035 120.161181 
L 563.035 34.711 
Q 563.035 33.045 561.369 33.045 
L 483.914317 33.045 
Q 482.248317 33.045 482.248317 34.711 
L 482.248317 120.161181 
Q 482.248317 121.827181 483.914317 121.827181 
z
" style="fill: #4d4d4d; opacity: 0.5; stroke: #4d4d4d; stroke-linejoin: miter"/>
    </g>
    <g id="patch_8">
     <path d="M 481.914317 119.827181 
L 559.369 119.827181 
Q 561.035 119.827181 561.035 118.161181 
L 561.035 32.711 
Q 561.035 31.045 559.369 31.045 
L 481.914317 31.045 
Q 480.248317 31.045 480.248317 32.711 
L 480.248317 118.161181 
Q 480.248317 119.827181 481.914317 119.827181 
z
" style="fill: #ffffff; stroke: #cccccc; stroke-linejoin: miter"/>
    </g>
    <g id="line2d_72">
     <path d="M 483.580317 37.790998 
L 491.910317 37.790998 
L 500.240317 37.790998 
" style="fill: none; stroke: #000000; stroke-width: 1.5; stroke-linecap: square"/>
     <g>
      <use xlink:href="#m6eba42feb7" x="491.910317" y="37.790998" style="stroke: #000000"/>
     </g>
    </g>
    <g id="text_10">
     <!-- ADMM -->
     <g transform="translate(506.904317 40.706498) scale(0.0833 -0.0833)">
      <defs>
       <path id="DejaVuSans-41" d="M 2188 4044 
L 1331 1722 
L 3047 1722 
L 2188 4044 
z
M 1831 4666 
L 2547 4666 
L 4325 0 
L 3669 0 
L 3244 1197 
L 1141 1197 
L 716 0 
L 50 0 
L 1831 4666 
z
" transform="scale(0.015625)"/>
       <path id="DejaVuSans-44" d="M 1259 4147 
L 1259 519 
L 2022 519 
Q 2988 519 3436 956 
Q 3884 1394 3884 2338 
Q 3884 3275 3436 3711 
Q 2988 4147 2022 4147 
L 1259 4147 
z
M 628 4666 
L 1925 4666 
Q 3281 4666 3915 4102 
Q 4550 3538 4550 2338 
Q 4550 1131 3912 565 
Q 3275 0 1925 0 
L 628 0 
L 628 4666 
z
" transform="scale(0.015625)"/>
       <path id="DejaVuSans-4d" d="M 628 4666 
L 1569 4666 
L 2759 1491 
L 3956 4666 
L 4897 4666 
L 4897 0 
L 4281 0 
L 4281 4097 
L 3078 897 
L 2444 897 
L 1241 4097 
L 1241 0 
L 628 0 
L 628 4666 
z
" transform="scale(0.015625)"/>
      </defs>
      <use xlink:href="#DejaVuSans-41"/>
      <use xlink:href="#DejaVuSans-44" transform="translate(68.408203 0)"/>
      <use xlink:href="#DejaVuSans-4d" transform="translate(145.410156 0)"/>
      <use xlink:href="#DejaVuSans-4d" transform="translate(231.689453 0)"/>
     </g>
    </g>
    <g id="line2d_73">
     <path d="M 483.580317 50.017877 
L 491.910317 50.017877 
L 500.240317 50.017877 
" style="fill: none; stroke: #4b0082; stroke-width: 1.5; stroke-linecap: square"/>
     <g>
      <use xlink:href="#md393eebfba" x="491.910317" y="50.017877" style="fill: #4b0082; stroke: #4b0082; stroke-linejoin: miter"/>
     </g>
    </g>
    <g id="text_11">
     <!-- FISTA -->
     <g transform="translate(506.904317 52.933377) scale(0.0833 -0.0833)">
      <defs>
       <path id="DejaVuSans-46" d="M 628 4666 
L 3309 4666 
L 3309 4134 
L 1259 4134 
L 1259 2759 
L 3109 2759 
L 3109 2228 
L 1259 2228 
L 1259 0 
L 628 0 
L 628 4666 
z
" transform="scale(0.015625)"/>
      </defs>
      <use xlink:href="#DejaVuSans-46"/>
      <use xlink:href="#DejaVuSans-49" transform="translate(57.519531 0)"/>
      <use xlink:href="#DejaVuSans-53" transform="translate(87.011719 0)"/>
      <use xlink:href="#DejaVuSans-54" transform="translate(150.488281 0)"/>
      <use xlink:href="#DejaVuSans-41" transform="translate(203.822266 0)"/>
     </g>
    </g>
    <g id="line2d_74">
     <path d="M 483.580317 62.244755 
L 491.910317 62.244755 
L 500.240317 62.244755 
" style="fill: none; stroke: #1f77b4; stroke-width: 1.5; stroke-linecap: square"/>
     <g>
      <use xlink:href="#m220def27f2" x="491.910317" y="62.244755" style="fill: #1f77b4; stroke: #1f77b4; stroke-linejoin: miter"/>
     </g>
    </g>
    <g id="text_12">
     <!-- MOMENTUM -->
     <g transform="translate(506.904317 65.160255) scale(0.0833 -0.0833)">
      <defs>
       <path id="DejaVuSans-4f" d="M 2522 4238 
Q 1834 4238 1429 3725 
Q 1025 3213 1025 2328 
Q 1025 1447 1429 934 
Q 1834 422 2522 422 
Q 3209 422 3611 934 
Q 4013 1447 4013 2328 
Q 4013 3213 3611 3725 
Q 3209 4238 2522 4238 
z
M 2522 4750 
Q 3503 4750 4090 4092 
Q 4678 3434 4678 2328 
Q 4678 1225 4090 567 
Q 3503 -91 2522 -91 
Q 1538 -91 948 565 
Q 359 1222 359 2328 
Q 359 3434 948 4092 
Q 1538 4750 2522 4750 
z
" transform="scale(0.015625)"/>
       <path id="DejaVuSans-4e" d="M 628 4666 
L 1478 4666 
L 3547 763 
L 3547 4666 
L 4159 4666 
L 4159 0 
L 3309 0 
L 1241 3903 
L 1241 0 
L 628 0 
L 628 4666 
z
" transform="scale(0.015625)"/>
       <path id="DejaVuSans-55" d="M 556 4666 
L 1191 4666 
L 1191 1831 
Q 1191 1081 1462 751 
Q 1734 422 2344 422 
Q 2950 422 3222 751 
Q 3494 1081 3494 1831 
L 3494 4666 
L 4128 4666 
L 4128 1753 
Q 4128 841 3676 375 
Q 3225 -91 2344 -91 
Q 1459 -91 1007 375 
Q 556 841 556 1753 
L 556 4666 
z
" transform="scale(0.015625)"/>
      </defs>
      <use xlink:href="#DejaVuSans-4d"/>
      <use xlink:href="#DejaVuSans-4f" transform="translate(86.279297 0)"/>
      <use xlink:href="#DejaVuSans-4d" transform="translate(164.990234 0)"/>
      <use xlink:href="#DejaVuSans-45" transform="translate(251.269531 0)"/>
      <use xlink:href="#DejaVuSans-4e" transform="translate(314.453125 0)"/>
      <use xlink:href="#DejaVuSans-54" transform="translate(389.257812 0)"/>
      <use xlink:href="#DejaVuSans-55" transform="translate(450.341797 0)"/>
      <use xlink:href="#DejaVuSans-4d" transform="translate(523.535156 0)"/>
     </g>
    </g>
    <g id="line2d_75">
     <path d="M 483.580317 74.471633 
L 491.910317 74.471633 
L 500.240317 74.471633 
" style="fill: none; stroke: #ff7f0e; stroke-width: 1.5; stroke-linecap: square"/>
     <g>
      <use xlink:href="#m4cead2a226" x="491.910317" y="74.471633" style="fill: #ff7f0e; stroke: #ff7f0e; stroke-linejoin: miter"/>
     </g>
    </g>
    <g id="text_13">
     <!-- AA_M3 -->
     <g transform="translate(506.904317 77.387133) scale(0.0833 -0.0833)">
      <use xlink:href="#DejaVuSans-41"/>
      <use xlink:href="#DejaVuSans-41" transform="translate(71.158203 0)"/>
      <use xlink:href="#DejaVuSans-5f" transform="translate(139.566406 0)"/>
      <use xlink:href="#DejaVuSans-4d" transform="translate(189.566406 0)"/>
      <use xlink:href="#DejaVuSans-33" transform="translate(275.845703 0)"/>
     </g>
    </g>
    <g id="line2d_76">
     <path d="M 483.580317 86.930189 
L 491.910317 86.930189 
L 500.240317 86.930189 
" style="fill: none; stroke: #2ca02c; stroke-width: 1.5; stroke-linecap: square"/>
     <g>
      <use xlink:href="#m50612b6736" x="491.910317" y="86.930189" style="fill: #2ca02c; stroke: #2ca02c; stroke-linejoin: miter"/>
     </g>
    </g>
    <g id="text_14">
     <!-- AA_M4 -->
     <g transform="translate(506.904317 89.845689) scale(0.0833 -0.0833)">
      <defs>
       <path id="DejaVuSans-34" d="M 2419 4116 
L 825 1625 
L 2419 1625 
L 2419 4116 
z
M 2253 4666 
L 3047 4666 
L 3047 1625 
L 3713 1625 
L 3713 1100 
L 3047 1100 
L 3047 0 
L 2419 0 
L 2419 1100 
L 313 1100 
L 313 1709 
L 2253 4666 
z
" transform="scale(0.015625)"/>
      </defs>
      <use xlink:href="#DejaVuSans-41"/>
      <use xlink:href="#DejaVuSans-41" transform="translate(71.158203 0)"/>
      <use xlink:href="#DejaVuSans-5f" transform="translate(139.566406 0)"/>
      <use xlink:href="#DejaVuSans-4d" transform="translate(189.566406 0)"/>
      <use xlink:href="#DejaVuSans-34" transform="translate(275.845703 0)"/>
     </g>
    </g>
    <g id="line2d_77">
     <path d="M 483.580317 99.388745 
L 491.910317 99.388745 
L 500.240317 99.388745 
" style="fill: none; stroke: #d62728; stroke-width: 1.5; stroke-linecap: square"/>
     <g>
      <use xlink:href="#mce4aa5575c" x="491.910317" y="99.388745" style="fill: #d62728; stroke: #d62728; stroke-linejoin: miter"/>
     </g>
    </g>
    <g id="text_15">
     <!-- AA_M5 -->
     <g transform="translate(506.904317 102.304245) scale(0.0833 -0.0833)">
      <use xlink:href="#DejaVuSans-41"/>
      <use xlink:href="#DejaVuSans-41" transform="translate(71.158203 0)"/>
      <use xlink:href="#DejaVuSans-5f" transform="translate(139.566406 0)"/>
      <use xlink:href="#DejaVuSans-4d" transform="translate(189.566406 0)"/>
      <use xlink:href="#DejaVuSans-35" transform="translate(275.845703 0)"/>
     </g>
    </g>
    <g id="line2d_78">
     <path d="M 483.580317 111.847302 
L 491.910317 111.847302 
L 500.240317 111.847302 
" style="fill: none; stroke: #ff0000; stroke-width: 1.5; stroke-linecap: square"/>
    </g>
    <g id="text_16">
     <!-- RL Agent -->
     <g transform="translate(506.904317 114.762802) scale(0.0833 -0.0833)">
      <use xlink:href="#DejaVuSans-52"/>
      <use xlink:href="#DejaVuSans-4c" transform="translate(69.482422 0)"/>
      <use xlink:href="#DejaVuSans-20" transform="translate(125.195312 0)"/>
      <use xlink:href="#DejaVuSans-41" transform="translate(156.982422 0)"/>
      <use xlink:href="#DejaVuSans-67" transform="translate(225.390625 0)"/>
      <use xlink:href="#DejaVuSans-65" transform="translate(288.867188 0)"/>
      <use xlink:href="#DejaVuSans-6e" transform="translate(350.390625 0)"/>
      <use xlink:href="#DejaVuSans-74" transform="translate(413.769531 0)"/>
     </g>
    </g>
   </g>
  </g>
 </g>
 <defs>
  <clipPath id="pbe57e319c9">
   <rect x="73.128612" y="26.88" width="492.071388" height="287.848"/>
  </clipPath>
 </defs>
</svg>
