<?xml version="1.0" encoding="utf-8" standalone="no"?>
<!DOCTYPE svg PUBLIC "-//W3C//DTD SVG 1.1//EN"
  "http://www.w3.org/Graphics/SVG/1.1/DTD/svg11.dtd">
<svg xmlns:xlink="http://www.w3.org/1999/xlink" width="576pt" height="360pt" viewBox="0 0 576 360" xmlns="http://www.w3.org/2000/svg" version="1.1">
 <metadata>
  <rdf:RDF xmlns:dc="http://purl.org/dc/elements/1.1/" xmlns:cc="http://creativecommons.org/ns#" xmlns:rdf="http://www.w3.org/1999/02/22-rdf-syntax-ns#">
   <cc:Work>
    <dc:type rdf:resource="http://purl.org/dc/dcmitype/StillImage"/>
    <dc:date>2026-04-16T13:54:58.465155</dc:date>
    <dc:format>image/svg+xml</dc:format>
    <dc:creator>
     <cc:Agent>
      <dc:title>Matplotlib v3.10.3, https://matplotlib.org/</dc:title>
     </cc:Agent>
    </dc:creator>
   </cc:Work>
  </rdf:RDF>
 </metadata>
 <defs>
  <style type="text/css">*{stroke-linejoin: round; stroke-linecap: butt}</style>
 </defs>
 <g id="figure_1">
  <g id="patch_1">
   <path d="M 0 360 
L 576 360 
L 576 0 
L 0 0 
z
" style="fill: #ffffff"/>
  </g>
  <g id="axes_1">
   <g id="patch_2">
    <path d="M 54.02 314.728 
L 565.2 314.728 
L 565.2 26.88 
L 54.02 26.88 
z
" style="fill: #ffffff"/>
   </g>
   <g id="line2d_1">
    <path d="M -1 296.32642 
L 77.255455 296.323732 
L 123.892668 292.854917 
L 151.173689 289.755656 
L 170.529881 286.897252 
L 185.54371 284.218663 
L 197.810902 281.682979 
L 208.182665 279.269828 
L 217.167095 276.963424 
L 225.091923 274.749559 
L 232.180924 272.617257 
L 244.448116 268.562238 
L 254.819878 264.738904 
L 263.804308 261.111924 
L 271.729136 257.655061 
L 278.818137 254.346667 
L 285.230918 251.16915 
L 293.831966 246.61588 
L 301.457092 242.282417 
L 308.305365 238.143354 
L 316.470921 232.901417 
L 323.751885 227.952883 
L 331.868132 222.137972 
L 339.109875 216.693818 
L 346.881961 210.593022 
L 354.942578 203.996906 
L 363.108134 197.048527 
L 372.092564 189.104772 
L 380.760862 181.146284 
L 389.745291 172.5837 
L 398.810542 163.622319 
L 407.794971 154.43459 
L 417.456239 144.243744 
L 429.937368 130.717891 
L 450.353161 108.576683 
L 457.573446 101.099832 
L 463.878832 94.86004 
L 469.643615 89.436709 
L 475.678652 84.079306 
L 481.548093 79.190911 
L 486.946344 74.976147 
L 492.367079 71.015396 
L 497.904032 67.254832 
L 503.498661 63.750234 
L 508.553023 60.83763 
L 513.460159 58.238574 
L 518.89316 55.619974 
L 523.831921 53.470157 
L 528.432823 51.654862 
L 534.568024 49.506248 
L 540.328397 47.755678 
L 541.964545 47.304861 
L 541.964545 47.304861 
" clip-path="url(#p1a0cada735)" style="fill: none; stroke: #000000; stroke-width: 1.5; stroke-linecap: square"/>
    <defs>
     <path id="m7369e962a3" d="M 0 3 
C 0.795609 3 1.55874 2.683901 2.12132 2.12132 
C 2.683901 1.55874 3 0.795609 3 0 
C 3 -0.795609 2.683901 -1.55874 2.12132 -2.12132 
C 1.55874 -2.683901 0.795609 -3 0 -3 
C -0.795609 -3 -1.55874 -2.683901 -2.12132 -2.12132 
C -2.683901 -1.55874 -3 -0.795609 -3 0 
C -3 0.795609 -2.683901 1.55874 -2.12132 2.12132 
C -1.55874 2.683901 -0.795609 3 0 3 
z
" style="stroke: #000000"/>
    </defs>
    <g clip-path="url(#p1a0cada735)">
     <use xlink:href="#m7369e962a3" x="-1" y="296.32642" style="stroke: #000000"/>
     <use xlink:href="#m7369e962a3" x="77.255455" y="296.323732" style="stroke: #000000"/>
     <use xlink:href="#m7369e962a3" x="151.173689" y="289.755656" style="stroke: #000000"/>
     <use xlink:href="#m7369e962a3" x="197.810902" y="281.682979" style="stroke: #000000"/>
     <use xlink:href="#m7369e962a3" x="259.461945" y="262.903012" style="stroke: #000000"/>
     <use xlink:href="#m7369e962a3" x="310.441521" y="236.804209" style="stroke: #000000"/>
     <use xlink:href="#m7369e962a3" x="358.121907" y="201.322602" style="stroke: #000000"/>
     <use xlink:href="#m7369e962a3" x="401.034985" y="161.375377" style="stroke: #000000"/>
     <use xlink:href="#m7369e962a3" x="441.067687" y="118.54464" style="stroke: #000000"/>
     <use xlink:href="#m7369e962a3" x="483.181262" y="77.887399" style="stroke: #000000"/>
     <use xlink:href="#m7369e962a3" x="534.266642" y="49.604951" style="stroke: #000000"/>
    </g>
   </g>
   <g id="line2d_2">
    <path d="M -1 296.32642 
L 77.255455 296.323732 
L 123.892668 292.854917 
L 151.173689 289.755656 
L 170.529881 286.11086 
L 185.54371 282.40848 
L 197.810902 278.740756 
L 208.182665 275.159406 
L 217.167095 271.683074 
L 225.091923 268.314014 
L 232.180924 265.045913 
L 238.593705 261.875162 
L 244.448116 258.799355 
L 249.833651 255.812404 
L 259.461945 250.081763 
L 267.883331 244.64039 
L 275.366956 239.45303 
L 282.100899 234.50194 
L 288.221779 229.780355 
L 296.470865 223.099594 
L 303.818151 216.864538 
L 312.511939 209.166827 
L 322.00417 200.39774 
L 331.868132 190.916759 
L 341.801565 181.003153 
L 351.605533 170.853201 
L 361.157758 160.62785 
L 371.246222 149.494927 
L 382.943213 136.230604 
L 405.274704 110.864519 
L 413.484269 101.980868 
L 419.148989 96.123409 
L 425.142558 90.238061 
L 430.645619 85.158725 
L 435.73242 80.732197 
L 441.067687 76.371597 
L 446.290563 72.374687 
L 451.654619 68.525042 
L 456.141833 65.525611 
L 460.348408 62.920843 
L 464.94515 60.304798 
L 470.037086 57.618542 
L 475.858795 54.8523 
L 481.382574 52.520788 
L 487.704901 50.180781 
L 492.648012 48.599352 
L 498.677411 46.908997 
L 505.148421 45.430932 
L 513.665604 43.855968 
L 520.857092 42.843528 
L 534.793177 41.577829 
L 541.964545 41.238344 
L 541.964545 41.238344 
" clip-path="url(#p1a0cada735)" style="fill: none; stroke: #4b0082; stroke-width: 1.5; stroke-linecap: square"/>
    <defs>
     <path id="m2483d92280" d="M -3 3 
L 3 3 
L 3 -3 
L -3 -3 
z
" style="stroke: #4b0082; stroke-linejoin: miter"/>
    </defs>
    <g clip-path="url(#p1a0cada735)">
     <use xlink:href="#m2483d92280" x="-1" y="296.32642" style="fill: #4b0082; stroke: #4b0082; stroke-linejoin: miter"/>
     <use xlink:href="#m2483d92280" x="77.255455" y="296.323732" style="fill: #4b0082; stroke: #4b0082; stroke-linejoin: miter"/>
     <use xlink:href="#m2483d92280" x="151.173689" y="289.755656" style="fill: #4b0082; stroke: #4b0082; stroke-linejoin: miter"/>
     <use xlink:href="#m2483d92280" x="197.810902" y="278.740756" style="fill: #4b0082; stroke: #4b0082; stroke-linejoin: miter"/>
     <use xlink:href="#m2483d92280" x="254.819878" y="252.908444" style="fill: #4b0082; stroke: #4b0082; stroke-linejoin: miter"/>
     <use xlink:href="#m2483d92280" x="301.457092" y="218.896182" style="fill: #4b0082; stroke: #4b0082; stroke-linejoin: miter"/>
     <use xlink:href="#m2483d92280" x="345.647371" y="177.064127" style="fill: #4b0082; stroke: #4b0082; stroke-linejoin: miter"/>
     <use xlink:href="#m2483d92280" x="384.359756" y="134.611363" style="fill: #4b0082; stroke: #4b0082; stroke-linejoin: miter"/>
     <use xlink:href="#m2483d92280" x="424.373598" y="90.973109" style="fill: #4b0082; stroke: #4b0082; stroke-linejoin: miter"/>
     <use xlink:href="#m2483d92280" x="471.588354" y="56.845155" style="fill: #4b0082; stroke: #4b0082; stroke-linejoin: miter"/>
     <use xlink:href="#m2483d92280" x="528.102598" y="42.102917" style="fill: #4b0082; stroke: #4b0082; stroke-linejoin: miter"/>
    </g>
   </g>
   <g id="line2d_3">
    <path d="M -1 296.32642 
L 77.255455 296.323732 
L 123.892668 292.854917 
L 151.173689 287.100371 
L 170.529881 282.306244 
L 185.54371 277.813864 
L 197.810902 273.661871 
L 208.182665 269.770881 
L 217.167095 266.098871 
L 225.091923 262.603971 
L 232.180924 259.268815 
L 238.593705 256.0704 
L 244.448116 252.996397 
L 254.819878 247.16352 
L 263.804308 241.685688 
L 271.729136 236.512084 
L 278.818137 231.616398 
L 285.230918 226.977354 
L 293.831966 220.453405 
L 301.457092 214.394481 
L 310.441521 206.942362 
L 320.209843 198.475399 
L 328.738113 190.791745 
L 337.722542 182.404992 
L 346.881961 173.534722 
L 356.019134 164.371725 
L 365.003563 155.066425 
L 376.171587 143.125159 
L 389.095206 128.939958 
L 404.75912 111.754651 
L 412.106407 103.973046 
L 419.148989 96.831846 
L 425.523768 90.707596 
L 430.996969 85.747034 
L 437.980757 79.808312 
L 443.147248 75.710294 
L 448.487763 71.728644 
L 454.432185 67.612057 
L 459.665323 64.280134 
L 465.366991 60.930018 
L 470.428269 58.220157 
L 476.038457 55.495637 
L 481.713205 53.032796 
L 488.305648 50.528385 
L 493.760157 48.722487 
L 498.033547 47.465508 
L 504.79829 45.75275 
L 510.408478 44.569742 
L 514.582423 43.819283 
L 523.920046 42.4851 
L 535.092214 41.439058 
L 540.603867 41.107993 
L 541.964545 41.042592 
L 541.964545 41.042592 
" clip-path="url(#p1a0cada735)" style="fill: none; stroke: #1f77b4; stroke-width: 1.5; stroke-linecap: square"/>
    <defs>
     <path id="mf0f7ed6386" d="M -0 3 
L 3 -3 
L -3 -3 
z
" style="stroke: #1f77b4; stroke-linejoin: miter"/>
    </defs>
    <g clip-path="url(#p1a0cada735)">
     <use xlink:href="#mf0f7ed6386" x="-1" y="296.32642" style="fill: #1f77b4; stroke: #1f77b4; stroke-linejoin: miter"/>
     <use xlink:href="#mf0f7ed6386" x="77.255455" y="296.323732" style="fill: #1f77b4; stroke: #1f77b4; stroke-linejoin: miter"/>
     <use xlink:href="#mf0f7ed6386" x="151.173689" y="287.100371" style="fill: #1f77b4; stroke: #1f77b4; stroke-linejoin: miter"/>
     <use xlink:href="#mf0f7ed6386" x="197.810902" y="273.661871" style="fill: #1f77b4; stroke: #1f77b4; stroke-linejoin: miter"/>
     <use xlink:href="#mf0f7ed6386" x="254.819878" y="247.16352" style="fill: #1f77b4; stroke: #1f77b4; stroke-linejoin: miter"/>
     <use xlink:href="#mf0f7ed6386" x="301.457092" y="214.394481" style="fill: #1f77b4; stroke: #1f77b4; stroke-linejoin: miter"/>
     <use xlink:href="#mf0f7ed6386" x="345.647371" y="174.74998" style="fill: #1f77b4; stroke: #1f77b4; stroke-linejoin: miter"/>
     <use xlink:href="#mf0f7ed6386" x="386.430174" y="131.882783" style="fill: #1f77b4; stroke: #1f77b4; stroke-linejoin: miter"/>
     <use xlink:href="#mf0f7ed6386" x="426.654606" y="89.659223" style="fill: #1f77b4; stroke: #1f77b4; stroke-linejoin: miter"/>
     <use xlink:href="#mf0f7ed6386" x="474.587548" y="56.16814" style="fill: #1f77b4; stroke: #1f77b4; stroke-linejoin: miter"/>
     <use xlink:href="#mf0f7ed6386" x="531.176167" y="41.749526" style="fill: #1f77b4; stroke: #1f77b4; stroke-linejoin: miter"/>
    </g>
   </g>
   <g id="line2d_4">
    <path d="M -1 296.32642 
L 77.255455 296.323732 
L 123.892668 292.854917 
L 151.173689 289.755656 
L 170.529881 284.281508 
L 185.54371 281.193749 
L 197.810902 275.183311 
L 208.182665 273.719604 
L 217.167095 267.82531 
L 225.091923 264.747323 
L 232.180924 259.717752 
L 238.593705 254.838303 
L 244.448116 249.934949 
L 249.833651 244.612952 
L 254.819878 239.454007 
L 259.461945 234.28559 
L 263.804308 229.100109 
L 271.729136 218.936099 
L 275.366956 213.300403 
L 278.818137 208.759461 
L 282.100899 203.444981 
L 285.230918 199.341249 
L 288.221779 194.137726 
L 291.085329 190.137358 
L 293.831966 185.465689 
L 296.470865 181.428561 
L 306.099158 164.895611 
L 316.470921 145.142971 
L 322.00417 134.265939 
L 327.11675 123.962483 
L 340.46918 98.678713 
L 343.108078 94.384341 
L 345.647371 90.287224 
L 348.094305 86.889975 
L 350.455364 83.534221 
L 354.942578 77.380127 
L 359.149153 71.991301 
L 363.108134 67.221981 
L 368.641383 61.330919 
L 372.092564 58.569339 
L 374.569529 56.78682 
L 376.171587 55.935854 
L 377.736385 55.419486 
L 379.265616 55.228018 
L 424.373598 53.652829 
L 445.164456 52.643847 
L 463.878832 51.540298 
L 483.019718 50.210249 
L 509.213748 48.088171 
L 541.964545 45.195638 
L 541.964545 45.195638 
" clip-path="url(#p1a0cada735)" style="fill: none; stroke: #ff7f0e; stroke-width: 1.5; stroke-linecap: square"/>
    <defs>
     <path id="m9fd972d0b3" d="M -0 3 
L 3 -3 
L -3 -3 
z
" style="stroke: #ff7f0e; stroke-linejoin: miter"/>
    </defs>
    <g clip-path="url(#p1a0cada735)">
     <use xlink:href="#m9fd972d0b3" x="-1" y="296.32642" style="fill: #ff7f0e; stroke: #ff7f0e; stroke-linejoin: miter"/>
     <use xlink:href="#m9fd972d0b3" x="77.255455" y="296.323732" style="fill: #ff7f0e; stroke: #ff7f0e; stroke-linejoin: miter"/>
     <use xlink:href="#m9fd972d0b3" x="151.173689" y="289.755656" style="fill: #ff7f0e; stroke: #ff7f0e; stroke-linejoin: miter"/>
     <use xlink:href="#m9fd972d0b3" x="197.810902" y="275.183311" style="fill: #ff7f0e; stroke: #ff7f0e; stroke-linejoin: miter"/>
     <use xlink:href="#m9fd972d0b3" x="249.833651" y="244.612952" style="fill: #ff7f0e; stroke: #ff7f0e; stroke-linejoin: miter"/>
     <use xlink:href="#m9fd972d0b3" x="285.230918" y="199.341249" style="fill: #ff7f0e; stroke: #ff7f0e; stroke-linejoin: miter"/>
     <use xlink:href="#m9fd972d0b3" x="314.520544" y="149.090643" style="fill: #ff7f0e; stroke: #ff7f0e; stroke-linejoin: miter"/>
     <use xlink:href="#m9fd972d0b3" x="343.108078" y="94.384341" style="fill: #ff7f0e; stroke: #ff7f0e; stroke-linejoin: miter"/>
     <use xlink:href="#m9fd972d0b3" x="382.223599" y="55.141869" style="fill: #ff7f0e; stroke: #ff7f0e; stroke-linejoin: miter"/>
     <use xlink:href="#m9fd972d0b3" x="441.067687" y="52.859972" style="fill: #ff7f0e; stroke: #ff7f0e; stroke-linejoin: miter"/>
     <use xlink:href="#m9fd972d0b3" x="499.694947" y="48.894033" style="fill: #ff7f0e; stroke: #ff7f0e; stroke-linejoin: miter"/>
    </g>
   </g>
   <g id="line2d_5">
    <path d="M -1 296.32642 
L 77.255455 296.323732 
L 123.892668 292.854917 
L 151.173689 289.755656 
L 170.529881 284.281508 
L 185.54371 281.193749 
L 197.810902 275.481225 
L 208.182665 274.711371 
L 217.167095 267.268875 
L 225.091923 266.625388 
L 232.180924 260.196609 
L 238.593705 258.019804 
L 244.448116 251.297246 
L 249.833651 249.47233 
L 254.819878 242.257008 
L 259.461945 240.878323 
L 263.804308 233.347798 
L 267.883331 231.921979 
L 271.729136 224.602467 
L 275.366956 222.982624 
L 278.818137 215.492543 
L 282.100899 213.829475 
L 285.230918 206.65565 
L 288.221779 205.152326 
L 291.085329 198.158767 
L 293.831966 196.767001 
L 296.470865 190.134051 
L 299.010157 188.537963 
L 301.457092 182.527751 
L 303.818151 180.626082 
L 306.099158 175.074129 
L 308.305365 172.777121 
L 310.441521 167.494816 
L 312.511939 165.18721 
L 314.520544 160.039992 
L 316.470921 157.620301 
L 318.36635 152.622453 
L 320.209843 150.281394 
L 322.00417 145.594239 
L 323.751885 143.113432 
L 325.455351 138.850482 
L 327.11675 136.132502 
L 328.738113 132.178441 
L 330.321322 129.365893 
L 331.868132 125.64036 
L 333.380179 122.962973 
L 334.858992 119.569934 
L 336.306 116.950807 
L 337.722542 113.791031 
L 339.109875 111.33661 
L 340.46918 108.127746 
L 341.801565 105.771426 
L 343.108078 102.911669 
L 344.389703 100.70502 
L 345.647371 98.109122 
L 346.881961 96.170167 
L 348.094305 93.848353 
L 349.285191 92.039899 
L 350.455364 89.936163 
L 351.605533 88.570633 
L 352.736371 86.621605 
L 353.848517 85.174812 
L 354.942578 83.306896 
L 356.019134 81.849955 
L 357.078735 80.123891 
L 358.121907 78.821357 
L 359.149153 77.252707 
L 364.062523 70.738907 
L 365.931623 68.320118 
L 372.092564 61.256873 
L 377.736385 56.133936 
L 380.760862 53.96292 
L 383.655212 52.154767 
L 385.747089 51.138269 
L 387.775884 50.450204 
L 389.095206 50.201304 
L 391.026916 50.102826 
L 416.158129 49.682229 
L 441.368732 49.120607 
L 473.291819 48.130043 
L 496.197242 47.180223 
L 517.84109 46.089754 
L 541.964545 44.702649 
L 541.964545 44.702649 
" clip-path="url(#p1a0cada735)" style="fill: none; stroke: #2ca02c; stroke-width: 1.5; stroke-linecap: square"/>
    <defs>
     <path id="m52341c75f7" d="M -0 3 
L 3 -3 
L -3 -3 
z
" style="stroke: #2ca02c; stroke-linejoin: miter"/>
    </defs>
    <g clip-path="url(#p1a0cada735)">
     <use xlink:href="#m52341c75f7" x="-1" y="296.32642" style="fill: #2ca02c; stroke: #2ca02c; stroke-linejoin: miter"/>
     <use xlink:href="#m52341c75f7" x="77.255455" y="296.323732" style="fill: #2ca02c; stroke: #2ca02c; stroke-linejoin: miter"/>
     <use xlink:href="#m52341c75f7" x="151.173689" y="289.755656" style="fill: #2ca02c; stroke: #2ca02c; stroke-linejoin: miter"/>
     <use xlink:href="#m52341c75f7" x="197.810902" y="275.481225" style="fill: #2ca02c; stroke: #2ca02c; stroke-linejoin: miter"/>
     <use xlink:href="#m52341c75f7" x="249.833651" y="249.47233" style="fill: #2ca02c; stroke: #2ca02c; stroke-linejoin: miter"/>
     <use xlink:href="#m52341c75f7" x="285.230918" y="206.65565" style="fill: #2ca02c; stroke: #2ca02c; stroke-linejoin: miter"/>
     <use xlink:href="#m52341c75f7" x="316.470921" y="157.620301" style="fill: #2ca02c; stroke: #2ca02c; stroke-linejoin: miter"/>
     <use xlink:href="#m52341c75f7" x="341.801565" y="105.771426" style="fill: #2ca02c; stroke: #2ca02c; stroke-linejoin: miter"/>
     <use xlink:href="#m52341c75f7" x="376.171587" y="57.457971" style="fill: #2ca02c; stroke: #2ca02c; stroke-linejoin: miter"/>
     <use xlink:href="#m52341c75f7" x="432.384302" y="49.340415" style="fill: #2ca02c; stroke: #2ca02c; stroke-linejoin: miter"/>
     <use xlink:href="#m52341c75f7" x="490.944546" y="47.417171" style="fill: #2ca02c; stroke: #2ca02c; stroke-linejoin: miter"/>
    </g>
   </g>
   <g id="line2d_6">
    <path d="M -1 296.32642 
L 77.255455 296.323732 
L 123.892668 292.854917 
L 151.173689 289.755656 
L 170.529881 284.281508 
L 185.54371 281.193749 
L 197.810902 275.481225 
L 208.182665 274.80391 
L 217.167095 268.351752 
L 225.091923 265.765626 
L 232.180924 261.583263 
L 238.593705 255.532382 
L 244.448116 257.118847 
L 249.833651 249.071353 
L 254.819878 247.451886 
L 259.461945 239.884 
L 263.804308 237.961508 
L 267.883331 231.078304 
L 271.729136 228.569082 
L 275.366956 221.926885 
L 278.818137 218.946999 
L 282.100899 212.446354 
L 285.230918 209.373705 
L 288.221779 203.166463 
L 291.085329 200.561619 
L 293.831966 194.380988 
L 296.470865 192.181105 
L 299.010157 186.304176 
L 301.457092 184.191645 
L 303.818151 178.739072 
L 306.099158 176.262475 
L 308.305365 170.901538 
L 310.441521 168.274067 
L 312.511939 163.295238 
L 314.520544 160.47006 
L 316.470921 155.643684 
L 318.36635 153.005463 
L 320.209843 148.384235 
L 322.00417 145.913051 
L 323.751885 141.427286 
L 325.455351 139.00519 
L 327.11675 134.858534 
L 328.738113 132.238655 
L 330.321322 128.316844 
L 331.868132 125.67945 
L 333.380179 122.10449 
L 334.858992 119.593989 
L 336.306 116.198168 
L 337.722542 113.752166 
L 339.109875 110.718682 
L 344.389703 100.438981 
L 348.094305 93.947807 
L 350.455364 90.115528 
L 351.605533 88.600627 
L 353.848517 85.202927 
L 357.078735 80.428044 
L 361.157758 74.910897 
L 365.931623 68.682606 
L 371.246222 62.39801 
L 376.958535 57.103076 
L 380.017392 54.788929 
L 382.943213 52.774349 
L 385.747089 51.122933 
L 388.438779 49.74718 
L 391.026916 48.693545 
L 392.904711 48.149588 
L 394.731518 47.830476 
L 396.510035 47.732525 
L 432.726711 47.33651 
L 463.663525 46.816608 
L 495.394649 46.029765 
L 521.68154 45.139558 
L 541.964545 44.308513 
L 541.964545 44.308513 
" clip-path="url(#p1a0cada735)" style="fill: none; stroke: #d62728; stroke-width: 1.5; stroke-linecap: square"/>
    <defs>
     <path id="m1cfbe03f86" d="M -0 3 
L 3 -3 
L -3 -3 
z
" style="stroke: #d62728; stroke-linejoin: miter"/>
    </defs>
    <g clip-path="url(#p1a0cada735)">
     <use xlink:href="#m1cfbe03f86" x="-1" y="296.32642" style="fill: #d62728; stroke: #d62728; stroke-linejoin: miter"/>
     <use xlink:href="#m1cfbe03f86" x="77.255455" y="296.323732" style="fill: #d62728; stroke: #d62728; stroke-linejoin: miter"/>
     <use xlink:href="#m1cfbe03f86" x="151.173689" y="289.755656" style="fill: #d62728; stroke: #d62728; stroke-linejoin: miter"/>
     <use xlink:href="#m1cfbe03f86" x="197.810902" y="275.481225" style="fill: #d62728; stroke: #d62728; stroke-linejoin: miter"/>
     <use xlink:href="#m1cfbe03f86" x="249.833651" y="249.071353" style="fill: #d62728; stroke: #d62728; stroke-linejoin: miter"/>
     <use xlink:href="#m1cfbe03f86" x="285.230918" y="209.373705" style="fill: #d62728; stroke: #d62728; stroke-linejoin: miter"/>
     <use xlink:href="#m1cfbe03f86" x="316.470921" y="155.643684" style="fill: #d62728; stroke: #d62728; stroke-linejoin: miter"/>
     <use xlink:href="#m1cfbe03f86" x="341.801565" y="105.342109" style="fill: #d62728; stroke: #d62728; stroke-linejoin: miter"/>
     <use xlink:href="#m1cfbe03f86" x="376.171587" y="57.794599" style="fill: #d62728; stroke: #d62728; stroke-linejoin: miter"/>
     <use xlink:href="#m1cfbe03f86" x="432.726711" y="47.33651" style="fill: #d62728; stroke: #d62728; stroke-linejoin: miter"/>
     <use xlink:href="#m1cfbe03f86" x="491.231469" y="46.149667" style="fill: #d62728; stroke: #d62728; stroke-linejoin: miter"/>
    </g>
   </g>
   <g id="line2d_7">
    <path d="M -1 296.32642 
L 77.255455 296.323732 
L 123.892668 292.263225 
L 151.173689 288.722319 
L 170.529881 284.647754 
L 185.54371 279.213147 
L 197.810902 274.465628 
L 208.182665 271.148063 
L 217.167095 268.009411 
L 225.091923 264.837231 
L 232.180924 261.692866 
L 238.593705 253.625225 
L 244.448116 252.482435 
L 249.833651 244.591076 
L 259.461945 241.513691 
L 263.804308 233.292846 
L 271.729136 228.859628 
L 275.366956 226.664406 
L 278.818137 225.410659 
L 282.100899 206.864257 
L 285.230918 205.163752 
L 288.221779 206.995961 
L 291.085329 199.968273 
L 293.831966 197.547079 
L 296.470865 196.005417 
L 299.010157 195.14355 
L 301.457092 193.624215 
L 303.818151 180.608642 
L 306.099158 179.327607 
L 308.305365 174.792528 
L 310.441521 171.552542 
L 316.470921 168.067114 
L 318.36635 158.927647 
L 320.209843 157.869427 
L 322.00417 151.197461 
L 328.738113 147.368564 
L 330.321322 146.430772 
L 331.868132 138.649317 
L 334.858992 136.965803 
L 336.306 120.944109 
L 343.108078 117.788994 
L 344.389703 115.024406 
L 346.881961 113.784641 
L 348.094305 111.369837 
L 349.285191 110.78694 
L 350.455364 102.694868 
L 351.605533 102.21744 
L 352.736371 95.674021 
L 353.848517 99.2356 
L 354.942578 98.786362 
L 356.019134 98.077023 
L 360.16095 96.332242 
L 361.157758 93.42099 
L 363.108134 92.614752 
L 364.062523 91.731988 
L 365.931623 90.963412 
L 366.847056 85.112568 
L 369.520915 84.181542 
L 370.389099 83.723509 
L 372.928392 82.795264 
L 373.753964 82.279572 
L 374.569529 79.528817 
L 375.375326 73.742622 
L 380.017392 72.479704 
L 381.496205 72.319509 
L 383.655212 71.673466 
L 384.359756 71.3094 
L 386.430174 70.684256 
L 387.106393 69.688655 
L 387.775884 68.183452 
L 388.438779 64.047922 
L 389.095206 63.890283 
L 389.745291 59.185613 
L 394.128077 58.441844 
L 395.922404 58.34284 
L 396.510035 58.228576 
L 398.242747 58.161596 
L 398.810542 58.048986 
L 399.931955 58.030418 
L 401.034985 57.807002 
L 402.656347 57.742729 
L 403.715948 57.607341 
L 406.294167 57.146 
L 407.794971 57.000764 
L 408.287891 56.894093 
L 408.777226 56.911533 
L 409.745348 56.701122 
L 410.224234 56.719389 
L 412.106407 56.305558 
L 412.568836 56.324351 
L 413.484269 56.120931 
L 414.834481 56.082818 
L 416.158129 55.892178 
L 417.456239 55.81738 
L 418.307937 55.690412 
L 420.391177 55.204564 
L 420.800195 55.236438 
L 422.012539 55.044444 
L 422.411848 55.067147 
L 425.142558 54.462449 
L 425.523768 54.48876 
L 426.279768 54.397725 
L 427.398075 54.253617 
L 429.221582 53.922702 
L 431.346493 53.62103 
L 432.384302 53.36574 
L 433.067387 53.360553 
L 434.079185 53.209379 
L 435.405006 52.960629 
L 437.026369 52.653319 
L 437.66413 52.664746 
L 439.849857 52.216109 
L 440.461528 52.238736 
L 442.263866 52.062755 
L 442.854074 52.039376 
L 445.447755 51.466026 
L 446.010798 51.39401 
L 447.122944 51.215397 
L 447.672198 51.176081 
L 450.353161 50.573113 
L 451.137053 50.544246 
L 454.432185 50.199124 
L 455.657779 49.963304 
L 457.33695 49.816565 
L 458.511208 49.613446 
L 459.20605 49.590518 
L 460.348408 49.348383 
L 461.024627 49.323801 
L 461.471694 49.276893 
L 463.01344 49.133762 
L 463.663525 49.024986 
L 464.520649 48.993263 
L 465.786202 48.738048 
L 466.410163 48.702791 
L 467.640989 48.589881 
L 468.449206 48.4578 
L 469.049061 48.425025 
L 469.840638 48.315572 
L 471.203877 48.032242 
L 471.588354 48.030288 
L 472.916981 47.746657 
L 473.291819 47.70907 
L 475.135312 47.277047 
L 475.498026 47.248632 
L 476.21764 47.164287 
L 477.458737 47.050323 
L 478.15779 46.933879 
L 478.677355 46.918018 
L 480.716398 46.463217 
L 481.382574 46.430291 
L 482.695461 46.204619 
L 484.142468 45.930386 
L 484.617971 45.92595 
L 485.559011 45.760192 
L 485.869789 45.75493 
L 486.946344 45.552863 
L 487.250794 45.530913 
L 488.155964 45.402967 
L 488.901079 45.33501 
L 489.638034 45.235555 
L 490.656395 45.161208 
L 491.517174 45.021235 
L 492.367079 44.91742 
L 493.62214 44.813004 
L 494.446027 44.715053 
L 494.989733 44.681149 
L 496.330082 44.431723 
L 496.858834 44.40015 
L 497.774266 44.262883 
L 498.420604 44.238151 
L 499.315172 44.060666 
L 500.07259 43.987897 
L 502.779047 43.604963 
L 503.498661 43.53009 
L 504.092515 43.467695 
L 504.79829 43.395905 
L 505.612445 43.26623 
L 506.531003 43.128061 
L 506.872254 43.087617 
L 507.549608 43.008535 
L 507.997419 43.003423 
L 510.730665 42.664014 
L 512.004204 42.475854 
L 512.527812 42.416166 
L 513.3572 42.334452 
L 514.885274 42.166664 
L 515.885044 42.056009 
L 516.477852 42.01534 
L 529.494998 40.766254 
L 530.859166 40.651539 
L 531.884004 40.595609 
L 532.661854 40.545093 
L 534.417502 40.390686 
L 536.348501 40.255073 
L 538.225624 40.143214 
L 539.913067 40.066236 
L 541.964545 39.964 
L 541.964545 39.964 
" clip-path="url(#p1a0cada735)" style="fill: none; stroke: #ff0000; stroke-width: 1.5; stroke-linecap: square"/>
   </g>
   <g id="matplotlib.axis_1">
    <g id="xtick_1">
     <g id="line2d_8">
      <path d="M 77.255455 314.728 
L 77.255455 26.88 
" clip-path="url(#p1a0cada735)" style="fill: none; stroke: #b0b0b0; stroke-opacity: 0.3; stroke-width: 0.8; stroke-linecap: square"/>
     </g>
     <g id="line2d_9">
      <defs>
       <path id="m00ad012f7f" d="M 0 0 
L 0 3.5 
" style="stroke: #000000; stroke-width: 0.8"/>
      </defs>
      <g>
       <use xlink:href="#m00ad012f7f" x="77.255455" y="314.728" style="stroke: #000000; stroke-width: 0.8"/>
      </g>
     </g>
     <g id="text_1">
      <!-- $\mathdefault{10^{0}}$ -->
      <g transform="translate(68.455455 329.326437) scale(0.1 -0.1)">
       <defs>
        <path id="DejaVuSans-31" d="M 794 531 
L 1825 531 
L 1825 4091 
L 703 3866 
L 703 4441 
L 1819 4666 
L 2450 4666 
L 2450 531 
L 3481 531 
L 3481 0 
L 794 0 
L 794 531 
z
" transform="scale(0.015625)"/>
        <path id="DejaVuSans-30" d="M 2034 4250 
Q 1547 4250 1301 3770 
Q 1056 3291 1056 2328 
Q 1056 1369 1301 889 
Q 1547 409 2034 409 
Q 2525 409 2770 889 
Q 3016 1369 3016 2328 
Q 3016 3291 2770 3770 
Q 2525 4250 2034 4250 
z
M 2034 4750 
Q 2819 4750 3233 4129 
Q 3647 3509 3647 2328 
Q 3647 1150 3233 529 
Q 2819 -91 2034 -91 
Q 1250 -91 836 529 
Q 422 1150 422 2328 
Q 422 3509 836 4129 
Q 1250 4750 2034 4750 
z
" transform="scale(0.015625)"/>
       </defs>
       <use xlink:href="#DejaVuSans-31" transform="translate(0 0.765625)"/>
       <use xlink:href="#DejaVuSans-30" transform="translate(63.623047 0.765625)"/>
       <use xlink:href="#DejaVuSans-30" transform="translate(128.203125 39.046875) scale(0.7)"/>
      </g>
     </g>
    </g>
    <g id="xtick_2">
     <g id="line2d_10">
      <path d="M 232.180924 314.728 
L 232.180924 26.88 
" clip-path="url(#p1a0cada735)" style="fill: none; stroke: #b0b0b0; stroke-opacity: 0.3; stroke-width: 0.8; stroke-linecap: square"/>
     </g>
     <g id="line2d_11">
      <g>
       <use xlink:href="#m00ad012f7f" x="232.180924" y="314.728" style="stroke: #000000; stroke-width: 0.8"/>
      </g>
     </g>
     <g id="text_2">
      <!-- $\mathdefault{10^{1}}$ -->
      <g transform="translate(223.380924 329.326437) scale(0.1 -0.1)">
       <use xlink:href="#DejaVuSans-31" transform="translate(0 0.684375)"/>
       <use xlink:href="#DejaVuSans-30" transform="translate(63.623047 0.684375)"/>
       <use xlink:href="#DejaVuSans-31" transform="translate(128.203125 38.965625) scale(0.7)"/>
      </g>
     </g>
    </g>
    <g id="xtick_3">
     <g id="line2d_12">
      <path d="M 387.106393 314.728 
L 387.106393 26.88 
" clip-path="url(#p1a0cada735)" style="fill: none; stroke: #b0b0b0; stroke-opacity: 0.3; stroke-width: 0.8; stroke-linecap: square"/>
     </g>
     <g id="line2d_13">
      <g>
       <use xlink:href="#m00ad012f7f" x="387.106393" y="314.728" style="stroke: #000000; stroke-width: 0.8"/>
      </g>
     </g>
     <g id="text_3">
      <!-- $\mathdefault{10^{2}}$ -->
      <g transform="translate(378.306393 329.326437) scale(0.1 -0.1)">
       <defs>
        <path id="DejaVuSans-32" d="M 1228 531 
L 3431 531 
L 3431 0 
L 469 0 
L 469 531 
Q 828 903 1448 1529 
Q 2069 2156 2228 2338 
Q 2531 2678 2651 2914 
Q 2772 3150 2772 3378 
Q 2772 3750 2511 3984 
Q 2250 4219 1831 4219 
Q 1534 4219 1204 4116 
Q 875 4013 500 3803 
L 500 4441 
Q 881 4594 1212 4672 
Q 1544 4750 1819 4750 
Q 2544 4750 2975 4387 
Q 3406 4025 3406 3419 
Q 3406 3131 3298 2873 
Q 3191 2616 2906 2266 
Q 2828 2175 2409 1742 
Q 1991 1309 1228 531 
z
" transform="scale(0.015625)"/>
       </defs>
       <use xlink:href="#DejaVuSans-31" transform="translate(0 0.765625)"/>
       <use xlink:href="#DejaVuSans-30" transform="translate(63.623047 0.765625)"/>
       <use xlink:href="#DejaVuSans-32" transform="translate(128.203125 39.046875) scale(0.7)"/>
      </g>
     </g>
    </g>
    <g id="xtick_4">
     <g id="line2d_14">
      <path d="M 542.031862 314.728 
L 542.031862 26.88 
" clip-path="url(#p1a0cada735)" style="fill: none; stroke: #b0b0b0; stroke-opacity: 0.3; stroke-width: 0.8; stroke-linecap: square"/>
     </g>
     <g id="line2d_15">
      <g>
       <use xlink:href="#m00ad012f7f" x="542.031862" y="314.728" style="stroke: #000000; stroke-width: 0.8"/>
      </g>
     </g>
     <g id="text_4">
      <!-- $\mathdefault{10^{3}}$ -->
      <g transform="translate(533.231862 329.326437) scale(0.1 -0.1)">
       <defs>
        <path id="DejaVuSans-33" d="M 2597 2516 
Q 3050 2419 3304 2112 
Q 3559 1806 3559 1356 
Q 3559 666 3084 287 
Q 2609 -91 1734 -91 
Q 1441 -91 1130 -33 
Q 819 25 488 141 
L 488 750 
Q 750 597 1062 519 
Q 1375 441 1716 441 
Q 2309 441 2620 675 
Q 2931 909 2931 1356 
Q 2931 1769 2642 2001 
Q 2353 2234 1838 2234 
L 1294 2234 
L 1294 2753 
L 1863 2753 
Q 2328 2753 2575 2939 
Q 2822 3125 2822 3475 
Q 2822 3834 2567 4026 
Q 2313 4219 1838 4219 
Q 1578 4219 1281 4162 
Q 984 4106 628 3988 
L 628 4550 
Q 988 4650 1302 4700 
Q 1616 4750 1894 4750 
Q 2613 4750 3031 4423 
Q 3450 4097 3450 3541 
Q 3450 3153 3228 2886 
Q 3006 2619 2597 2516 
z
" transform="scale(0.015625)"/>
       </defs>
       <use xlink:href="#DejaVuSans-31" transform="translate(0 0.765625)"/>
       <use xlink:href="#DejaVuSans-30" transform="translate(63.623047 0.765625)"/>
       <use xlink:href="#DejaVuSans-33" transform="translate(128.203125 39.046875) scale(0.7)"/>
      </g>
     </g>
    </g>
    <g id="xtick_5">
     <g id="line2d_16">
      <path d="M 62.241625 314.728 
L 62.241625 26.88 
" clip-path="url(#p1a0cada735)" style="fill: none; stroke: #b0b0b0; stroke-opacity: 0.3; stroke-width: 0.8; stroke-linecap: square"/>
     </g>
     <g id="line2d_17">
      <defs>
       <path id="ma37db27231" d="M 0 0 
L 0 2 
" style="stroke: #000000; stroke-width: 0.6"/>
      </defs>
      <g>
       <use xlink:href="#ma37db27231" x="62.241625" y="314.728" style="stroke: #000000; stroke-width: 0.6"/>
      </g>
     </g>
    </g>
    <g id="xtick_6">
     <g id="line2d_18">
      <path d="M 70.166454 314.728 
L 70.166454 26.88 
" clip-path="url(#p1a0cada735)" style="fill: none; stroke: #b0b0b0; stroke-opacity: 0.3; stroke-width: 0.8; stroke-linecap: square"/>
     </g>
     <g id="line2d_19">
      <g>
       <use xlink:href="#ma37db27231" x="70.166454" y="314.728" style="stroke: #000000; stroke-width: 0.6"/>
      </g>
     </g>
    </g>
    <g id="xtick_7">
     <g id="line2d_20">
      <path d="M 123.892668 314.728 
L 123.892668 26.88 
" clip-path="url(#p1a0cada735)" style="fill: none; stroke: #b0b0b0; stroke-opacity: 0.3; stroke-width: 0.8; stroke-linecap: square"/>
     </g>
     <g id="line2d_21">
      <g>
       <use xlink:href="#ma37db27231" x="123.892668" y="314.728" style="stroke: #000000; stroke-width: 0.6"/>
      </g>
     </g>
    </g>
    <g id="xtick_8">
     <g id="line2d_22">
      <path d="M 151.173689 314.728 
L 151.173689 26.88 
" clip-path="url(#p1a0cada735)" style="fill: none; stroke: #b0b0b0; stroke-opacity: 0.3; stroke-width: 0.8; stroke-linecap: square"/>
     </g>
     <g id="line2d_23">
      <g>
       <use xlink:href="#ma37db27231" x="151.173689" y="314.728" style="stroke: #000000; stroke-width: 0.6"/>
      </g>
     </g>
    </g>
    <g id="xtick_9">
     <g id="line2d_24">
      <path d="M 170.529881 314.728 
L 170.529881 26.88 
" clip-path="url(#p1a0cada735)" style="fill: none; stroke: #b0b0b0; stroke-opacity: 0.3; stroke-width: 0.8; stroke-linecap: square"/>
     </g>
     <g id="line2d_25">
      <g>
       <use xlink:href="#ma37db27231" x="170.529881" y="314.728" style="stroke: #000000; stroke-width: 0.6"/>
      </g>
     </g>
    </g>
    <g id="xtick_10">
     <g id="line2d_26">
      <path d="M 185.54371 314.728 
L 185.54371 26.88 
" clip-path="url(#p1a0cada735)" style="fill: none; stroke: #b0b0b0; stroke-opacity: 0.3; stroke-width: 0.8; stroke-linecap: square"/>
     </g>
     <g id="line2d_27">
      <g>
       <use xlink:href="#ma37db27231" x="185.54371" y="314.728" style="stroke: #000000; stroke-width: 0.6"/>
      </g>
     </g>
    </g>
    <g id="xtick_11">
     <g id="line2d_28">
      <path d="M 197.810902 314.728 
L 197.810902 26.88 
" clip-path="url(#p1a0cada735)" style="fill: none; stroke: #b0b0b0; stroke-opacity: 0.3; stroke-width: 0.8; stroke-linecap: square"/>
     </g>
     <g id="line2d_29">
      <g>
       <use xlink:href="#ma37db27231" x="197.810902" y="314.728" style="stroke: #000000; stroke-width: 0.6"/>
      </g>
     </g>
    </g>
    <g id="xtick_12">
     <g id="line2d_30">
      <path d="M 208.182665 314.728 
L 208.182665 26.88 
" clip-path="url(#p1a0cada735)" style="fill: none; stroke: #b0b0b0; stroke-opacity: 0.3; stroke-width: 0.8; stroke-linecap: square"/>
     </g>
     <g id="line2d_31">
      <g>
       <use xlink:href="#ma37db27231" x="208.182665" y="314.728" style="stroke: #000000; stroke-width: 0.6"/>
      </g>
     </g>
    </g>
    <g id="xtick_13">
     <g id="line2d_32">
      <path d="M 217.167095 314.728 
L 217.167095 26.88 
" clip-path="url(#p1a0cada735)" style="fill: none; stroke: #b0b0b0; stroke-opacity: 0.3; stroke-width: 0.8; stroke-linecap: square"/>
     </g>
     <g id="line2d_33">
      <g>
       <use xlink:href="#ma37db27231" x="217.167095" y="314.728" style="stroke: #000000; stroke-width: 0.6"/>
      </g>
     </g>
    </g>
    <g id="xtick_14">
     <g id="line2d_34">
      <path d="M 225.091923 314.728 
L 225.091923 26.88 
" clip-path="url(#p1a0cada735)" style="fill: none; stroke: #b0b0b0; stroke-opacity: 0.3; stroke-width: 0.8; stroke-linecap: square"/>
     </g>
     <g id="line2d_35">
      <g>
       <use xlink:href="#ma37db27231" x="225.091923" y="314.728" style="stroke: #000000; stroke-width: 0.6"/>
      </g>
     </g>
    </g>
    <g id="xtick_15">
     <g id="line2d_36">
      <path d="M 278.818137 314.728 
L 278.818137 26.88 
" clip-path="url(#p1a0cada735)" style="fill: none; stroke: #b0b0b0; stroke-opacity: 0.3; stroke-width: 0.8; stroke-linecap: square"/>
     </g>
     <g id="line2d_37">
      <g>
       <use xlink:href="#ma37db27231" x="278.818137" y="314.728" style="stroke: #000000; stroke-width: 0.6"/>
      </g>
     </g>
    </g>
    <g id="xtick_16">
     <g id="line2d_38">
      <path d="M 306.099158 314.728 
L 306.099158 26.88 
" clip-path="url(#p1a0cada735)" style="fill: none; stroke: #b0b0b0; stroke-opacity: 0.3; stroke-width: 0.8; stroke-linecap: square"/>
     </g>
     <g id="line2d_39">
      <g>
       <use xlink:href="#ma37db27231" x="306.099158" y="314.728" style="stroke: #000000; stroke-width: 0.6"/>
      </g>
     </g>
    </g>
    <g id="xtick_17">
     <g id="line2d_40">
      <path d="M 325.455351 314.728 
L 325.455351 26.88 
" clip-path="url(#p1a0cada735)" style="fill: none; stroke: #b0b0b0; stroke-opacity: 0.3; stroke-width: 0.8; stroke-linecap: square"/>
     </g>
     <g id="line2d_41">
      <g>
       <use xlink:href="#ma37db27231" x="325.455351" y="314.728" style="stroke: #000000; stroke-width: 0.6"/>
      </g>
     </g>
    </g>
    <g id="xtick_18">
     <g id="line2d_42">
      <path d="M 340.46918 314.728 
L 340.46918 26.88 
" clip-path="url(#p1a0cada735)" style="fill: none; stroke: #b0b0b0; stroke-opacity: 0.3; stroke-width: 0.8; stroke-linecap: square"/>
     </g>
     <g id="line2d_43">
      <g>
       <use xlink:href="#ma37db27231" x="340.46918" y="314.728" style="stroke: #000000; stroke-width: 0.6"/>
      </g>
     </g>
    </g>
    <g id="xtick_19">
     <g id="line2d_44">
      <path d="M 352.736371 314.728 
L 352.736371 26.88 
" clip-path="url(#p1a0cada735)" style="fill: none; stroke: #b0b0b0; stroke-opacity: 0.3; stroke-width: 0.8; stroke-linecap: square"/>
     </g>
     <g id="line2d_45">
      <g>
       <use xlink:href="#ma37db27231" x="352.736371" y="314.728" style="stroke: #000000; stroke-width: 0.6"/>
      </g>
     </g>
    </g>
    <g id="xtick_20">
     <g id="line2d_46">
      <path d="M 363.108134 314.728 
L 363.108134 26.88 
" clip-path="url(#p1a0cada735)" style="fill: none; stroke: #b0b0b0; stroke-opacity: 0.3; stroke-width: 0.8; stroke-linecap: square"/>
     </g>
     <g id="line2d_47">
      <g>
       <use xlink:href="#ma37db27231" x="363.108134" y="314.728" style="stroke: #000000; stroke-width: 0.6"/>
      </g>
     </g>
    </g>
    <g id="xtick_21">
     <g id="line2d_48">
      <path d="M 372.092564 314.728 
L 372.092564 26.88 
" clip-path="url(#p1a0cada735)" style="fill: none; stroke: #b0b0b0; stroke-opacity: 0.3; stroke-width: 0.8; stroke-linecap: square"/>
     </g>
     <g id="line2d_49">
      <g>
       <use xlink:href="#ma37db27231" x="372.092564" y="314.728" style="stroke: #000000; stroke-width: 0.6"/>
      </g>
     </g>
    </g>
    <g id="xtick_22">
     <g id="line2d_50">
      <path d="M 380.017392 314.728 
L 380.017392 26.88 
" clip-path="url(#p1a0cada735)" style="fill: none; stroke: #b0b0b0; stroke-opacity: 0.3; stroke-width: 0.8; stroke-linecap: square"/>
     </g>
     <g id="line2d_51">
      <g>
       <use xlink:href="#ma37db27231" x="380.017392" y="314.728" style="stroke: #000000; stroke-width: 0.6"/>
      </g>
     </g>
    </g>
    <g id="xtick_23">
     <g id="line2d_52">
      <path d="M 433.743606 314.728 
L 433.743606 26.88 
" clip-path="url(#p1a0cada735)" style="fill: none; stroke: #b0b0b0; stroke-opacity: 0.3; stroke-width: 0.8; stroke-linecap: square"/>
     </g>
     <g id="line2d_53">
      <g>
       <use xlink:href="#ma37db27231" x="433.743606" y="314.728" style="stroke: #000000; stroke-width: 0.6"/>
      </g>
     </g>
    </g>
    <g id="xtick_24">
     <g id="line2d_54">
      <path d="M 461.024627 314.728 
L 461.024627 26.88 
" clip-path="url(#p1a0cada735)" style="fill: none; stroke: #b0b0b0; stroke-opacity: 0.3; stroke-width: 0.8; stroke-linecap: square"/>
     </g>
     <g id="line2d_55">
      <g>
       <use xlink:href="#ma37db27231" x="461.024627" y="314.728" style="stroke: #000000; stroke-width: 0.6"/>
      </g>
     </g>
    </g>
    <g id="xtick_25">
     <g id="line2d_56">
      <path d="M 480.38082 314.728 
L 480.38082 26.88 
" clip-path="url(#p1a0cada735)" style="fill: none; stroke: #b0b0b0; stroke-opacity: 0.3; stroke-width: 0.8; stroke-linecap: square"/>
     </g>
     <g id="line2d_57">
      <g>
       <use xlink:href="#ma37db27231" x="480.38082" y="314.728" style="stroke: #000000; stroke-width: 0.6"/>
      </g>
     </g>
    </g>
    <g id="xtick_26">
     <g id="line2d_58">
      <path d="M 495.394649 314.728 
L 495.394649 26.88 
" clip-path="url(#p1a0cada735)" style="fill: none; stroke: #b0b0b0; stroke-opacity: 0.3; stroke-width: 0.8; stroke-linecap: square"/>
     </g>
     <g id="line2d_59">
      <g>
       <use xlink:href="#ma37db27231" x="495.394649" y="314.728" style="stroke: #000000; stroke-width: 0.6"/>
      </g>
     </g>
    </g>
    <g id="xtick_27">
     <g id="line2d_60">
      <path d="M 507.661841 314.728 
L 507.661841 26.88 
" clip-path="url(#p1a0cada735)" style="fill: none; stroke: #b0b0b0; stroke-opacity: 0.3; stroke-width: 0.8; stroke-linecap: square"/>
     </g>
     <g id="line2d_61">
      <g>
       <use xlink:href="#ma37db27231" x="507.661841" y="314.728" style="stroke: #000000; stroke-width: 0.6"/>
      </g>
     </g>
    </g>
    <g id="xtick_28">
     <g id="line2d_62">
      <path d="M 518.033604 314.728 
L 518.033604 26.88 
" clip-path="url(#p1a0cada735)" style="fill: none; stroke: #b0b0b0; stroke-opacity: 0.3; stroke-width: 0.8; stroke-linecap: square"/>
     </g>
     <g id="line2d_63">
      <g>
       <use xlink:href="#ma37db27231" x="518.033604" y="314.728" style="stroke: #000000; stroke-width: 0.6"/>
      </g>
     </g>
    </g>
    <g id="xtick_29">
     <g id="line2d_64">
      <path d="M 527.018033 314.728 
L 527.018033 26.88 
" clip-path="url(#p1a0cada735)" style="fill: none; stroke: #b0b0b0; stroke-opacity: 0.3; stroke-width: 0.8; stroke-linecap: square"/>
     </g>
     <g id="line2d_65">
      <g>
       <use xlink:href="#ma37db27231" x="527.018033" y="314.728" style="stroke: #000000; stroke-width: 0.6"/>
      </g>
     </g>
    </g>
    <g id="xtick_30">
     <g id="line2d_66">
      <path d="M 534.942862 314.728 
L 534.942862 26.88 
" clip-path="url(#p1a0cada735)" style="fill: none; stroke: #b0b0b0; stroke-opacity: 0.3; stroke-width: 0.8; stroke-linecap: square"/>
     </g>
     <g id="line2d_67">
      <g>
       <use xlink:href="#ma37db27231" x="534.942862" y="314.728" style="stroke: #000000; stroke-width: 0.6"/>
      </g>
     </g>
    </g>
    <g id="text_5">
     <!-- Iteration (Log Scale) -->
     <g transform="translate(258.936563 343.004562) scale(0.1 -0.1)">
      <defs>
       <path id="DejaVuSans-49" d="M 628 4666 
L 1259 4666 
L 1259 0 
L 628 0 
L 628 4666 
z
" transform="scale(0.015625)"/>
       <path id="DejaVuSans-74" d="M 1172 4494 
L 1172 3500 
L 2356 3500 
L 2356 3053 
L 1172 3053 
L 1172 1153 
Q 1172 725 1289 603 
Q 1406 481 1766 481 
L 2356 481 
L 2356 0 
L 1766 0 
Q 1100 0 847 248 
Q 594 497 594 1153 
L 594 3053 
L 172 3053 
L 172 3500 
L 594 3500 
L 594 4494 
L 1172 4494 
z
" transform="scale(0.015625)"/>
       <path id="DejaVuSans-65" d="M 3597 1894 
L 3597 1613 
L 953 1613 
Q 991 1019 1311 708 
Q 1631 397 2203 397 
Q 2534 397 2845 478 
Q 3156 559 3463 722 
L 3463 178 
Q 3153 47 2828 -22 
Q 2503 -91 2169 -91 
Q 1331 -91 842 396 
Q 353 884 353 1716 
Q 353 2575 817 3079 
Q 1281 3584 2069 3584 
Q 2775 3584 3186 3129 
Q 3597 2675 3597 1894 
z
M 3022 2063 
Q 3016 2534 2758 2815 
Q 2500 3097 2075 3097 
Q 1594 3097 1305 2825 
Q 1016 2553 972 2059 
L 3022 2063 
z
" transform="scale(0.015625)"/>
       <path id="DejaVuSans-72" d="M 2631 2963 
Q 2534 3019 2420 3045 
Q 2306 3072 2169 3072 
Q 1681 3072 1420 2755 
Q 1159 2438 1159 1844 
L 1159 0 
L 581 0 
L 581 3500 
L 1159 3500 
L 1159 2956 
Q 1341 3275 1631 3429 
Q 1922 3584 2338 3584 
Q 2397 3584 2469 3576 
Q 2541 3569 2628 3553 
L 2631 2963 
z
" transform="scale(0.015625)"/>
       <path id="DejaVuSans-61" d="M 2194 1759 
Q 1497 1759 1228 1600 
Q 959 1441 959 1056 
Q 959 750 1161 570 
Q 1363 391 1709 391 
Q 2188 391 2477 730 
Q 2766 1069 2766 1631 
L 2766 1759 
L 2194 1759 
z
M 3341 1997 
L 3341 0 
L 2766 0 
L 2766 531 
Q 2569 213 2275 61 
Q 1981 -91 1556 -91 
Q 1019 -91 701 211 
Q 384 513 384 1019 
Q 384 1609 779 1909 
Q 1175 2209 1959 2209 
L 2766 2209 
L 2766 2266 
Q 2766 2663 2505 2880 
Q 2244 3097 1772 3097 
Q 1472 3097 1187 3025 
Q 903 2953 641 2809 
L 641 3341 
Q 956 3463 1253 3523 
Q 1550 3584 1831 3584 
Q 2591 3584 2966 3190 
Q 3341 2797 3341 1997 
z
" transform="scale(0.015625)"/>
       <path id="DejaVuSans-69" d="M 603 3500 
L 1178 3500 
L 1178 0 
L 603 0 
L 603 3500 
z
M 603 4863 
L 1178 4863 
L 1178 4134 
L 603 4134 
L 603 4863 
z
" transform="scale(0.015625)"/>
       <path id="DejaVuSans-6f" d="M 1959 3097 
Q 1497 3097 1228 2736 
Q 959 2375 959 1747 
Q 959 1119 1226 758 
Q 1494 397 1959 397 
Q 2419 397 2687 759 
Q 2956 1122 2956 1747 
Q 2956 2369 2687 2733 
Q 2419 3097 1959 3097 
z
M 1959 3584 
Q 2709 3584 3137 3096 
Q 3566 2609 3566 1747 
Q 3566 888 3137 398 
Q 2709 -91 1959 -91 
Q 1206 -91 779 398 
Q 353 888 353 1747 
Q 353 2609 779 3096 
Q 1206 3584 1959 3584 
z
" transform="scale(0.015625)"/>
       <path id="DejaVuSans-6e" d="M 3513 2113 
L 3513 0 
L 2938 0 
L 2938 2094 
Q 2938 2591 2744 2837 
Q 2550 3084 2163 3084 
Q 1697 3084 1428 2787 
Q 1159 2491 1159 1978 
L 1159 0 
L 581 0 
L 581 3500 
L 1159 3500 
L 1159 2956 
Q 1366 3272 1645 3428 
Q 1925 3584 2291 3584 
Q 2894 3584 3203 3211 
Q 3513 2838 3513 2113 
z
" transform="scale(0.015625)"/>
       <path id="DejaVuSans-20" transform="scale(0.015625)"/>
       <path id="DejaVuSans-28" d="M 1984 4856 
Q 1566 4138 1362 3434 
Q 1159 2731 1159 2009 
Q 1159 1288 1364 580 
Q 1569 -128 1984 -844 
L 1484 -844 
Q 1016 -109 783 600 
Q 550 1309 550 2009 
Q 550 2706 781 3412 
Q 1013 4119 1484 4856 
L 1984 4856 
z
" transform="scale(0.015625)"/>
       <path id="DejaVuSans-4c" d="M 628 4666 
L 1259 4666 
L 1259 531 
L 3531 531 
L 3531 0 
L 628 0 
L 628 4666 
z
" transform="scale(0.015625)"/>
       <path id="DejaVuSans-67" d="M 2906 1791 
Q 2906 2416 2648 2759 
Q 2391 3103 1925 3103 
Q 1463 3103 1205 2759 
Q 947 2416 947 1791 
Q 947 1169 1205 825 
Q 1463 481 1925 481 
Q 2391 481 2648 825 
Q 2906 1169 2906 1791 
z
M 3481 434 
Q 3481 -459 3084 -895 
Q 2688 -1331 1869 -1331 
Q 1566 -1331 1297 -1286 
Q 1028 -1241 775 -1147 
L 775 -588 
Q 1028 -725 1275 -790 
Q 1522 -856 1778 -856 
Q 2344 -856 2625 -561 
Q 2906 -266 2906 331 
L 2906 616 
Q 2728 306 2450 153 
Q 2172 0 1784 0 
Q 1141 0 747 490 
Q 353 981 353 1791 
Q 353 2603 747 3093 
Q 1141 3584 1784 3584 
Q 2172 3584 2450 3431 
Q 2728 3278 2906 2969 
L 2906 3500 
L 3481 3500 
L 3481 434 
z
" transform="scale(0.015625)"/>
       <path id="DejaVuSans-53" d="M 3425 4513 
L 3425 3897 
Q 3066 4069 2747 4153 
Q 2428 4238 2131 4238 
Q 1616 4238 1336 4038 
Q 1056 3838 1056 3469 
Q 1056 3159 1242 3001 
Q 1428 2844 1947 2747 
L 2328 2669 
Q 3034 2534 3370 2195 
Q 3706 1856 3706 1288 
Q 3706 609 3251 259 
Q 2797 -91 1919 -91 
Q 1588 -91 1214 -16 
Q 841 59 441 206 
L 441 856 
Q 825 641 1194 531 
Q 1563 422 1919 422 
Q 2459 422 2753 634 
Q 3047 847 3047 1241 
Q 3047 1584 2836 1778 
Q 2625 1972 2144 2069 
L 1759 2144 
Q 1053 2284 737 2584 
Q 422 2884 422 3419 
Q 422 4038 858 4394 
Q 1294 4750 2059 4750 
Q 2388 4750 2728 4690 
Q 3069 4631 3425 4513 
z
" transform="scale(0.015625)"/>
       <path id="DejaVuSans-63" d="M 3122 3366 
L 3122 2828 
Q 2878 2963 2633 3030 
Q 2388 3097 2138 3097 
Q 1578 3097 1268 2742 
Q 959 2388 959 1747 
Q 959 1106 1268 751 
Q 1578 397 2138 397 
Q 2388 397 2633 464 
Q 2878 531 3122 666 
L 3122 134 
Q 2881 22 2623 -34 
Q 2366 -91 2075 -91 
Q 1284 -91 818 406 
Q 353 903 353 1747 
Q 353 2603 823 3093 
Q 1294 3584 2113 3584 
Q 2378 3584 2631 3529 
Q 2884 3475 3122 3366 
z
" transform="scale(0.015625)"/>
       <path id="DejaVuSans-6c" d="M 603 4863 
L 1178 4863 
L 1178 0 
L 603 0 
L 603 4863 
z
" transform="scale(0.015625)"/>
       <path id="DejaVuSans-29" d="M 513 4856 
L 1013 4856 
Q 1481 4119 1714 3412 
Q 1947 2706 1947 2009 
Q 1947 1309 1714 600 
Q 1481 -109 1013 -844 
L 513 -844 
Q 928 -128 1133 580 
Q 1338 1288 1338 2009 
Q 1338 2731 1133 3434 
Q 928 4138 513 4856 
z
" transform="scale(0.015625)"/>
      </defs>
      <use xlink:href="#DejaVuSans-49"/>
      <use xlink:href="#DejaVuSans-74" transform="translate(29.492188 0)"/>
      <use xlink:href="#DejaVuSans-65" transform="translate(68.701172 0)"/>
      <use xlink:href="#DejaVuSans-72" transform="translate(130.224609 0)"/>
      <use xlink:href="#DejaVuSans-61" transform="translate(171.337891 0)"/>
      <use xlink:href="#DejaVuSans-74" transform="translate(232.617188 0)"/>
      <use xlink:href="#DejaVuSans-69" transform="translate(271.826172 0)"/>
      <use xlink:href="#DejaVuSans-6f" transform="translate(299.609375 0)"/>
      <use xlink:href="#DejaVuSans-6e" transform="translate(360.791016 0)"/>
      <use xlink:href="#DejaVuSans-20" transform="translate(424.169922 0)"/>
      <use xlink:href="#DejaVuSans-28" transform="translate(455.957031 0)"/>
      <use xlink:href="#DejaVuSans-4c" transform="translate(494.970703 0)"/>
      <use xlink:href="#DejaVuSans-6f" transform="translate(548.933594 0)"/>
      <use xlink:href="#DejaVuSans-67" transform="translate(610.115234 0)"/>
      <use xlink:href="#DejaVuSans-20" transform="translate(673.591797 0)"/>
      <use xlink:href="#DejaVuSans-53" transform="translate(705.378906 0)"/>
      <use xlink:href="#DejaVuSans-63" transform="translate(768.855469 0)"/>
      <use xlink:href="#DejaVuSans-61" transform="translate(823.835938 0)"/>
      <use xlink:href="#DejaVuSans-6c" transform="translate(885.115234 0)"/>
      <use xlink:href="#DejaVuSans-65" transform="translate(912.898438 0)"/>
      <use xlink:href="#DejaVuSans-29" transform="translate(974.421875 0)"/>
     </g>
    </g>
   </g>
   <g id="matplotlib.axis_2">
    <g id="ytick_1">
     <g id="line2d_68">
      <path d="M 54.02 297.073064 
L 565.2 297.073064 
" clip-path="url(#p1a0cada735)" style="fill: none; stroke: #b0b0b0; stroke-opacity: 0.3; stroke-width: 0.8; stroke-linecap: square"/>
     </g>
     <g id="line2d_69">
      <defs>
       <path id="m34d9f7dda6" d="M 0 0 
L -3.5 0 
" style="stroke: #000000; stroke-width: 0.8"/>
      </defs>
      <g>
       <use xlink:href="#m34d9f7dda6" x="54.02" y="297.073064" style="stroke: #000000; stroke-width: 0.8"/>
      </g>
     </g>
     <g id="text_6">
      <!-- 0.50 -->
      <g transform="translate(24.754375 300.872282) scale(0.1 -0.1)">
       <defs>
        <path id="DejaVuSans-2e" d="M 684 794 
L 1344 794 
L 1344 0 
L 684 0 
L 684 794 
z
" transform="scale(0.015625)"/>
        <path id="DejaVuSans-35" d="M 691 4666 
L 3169 4666 
L 3169 4134 
L 1269 4134 
L 1269 2991 
Q 1406 3038 1543 3061 
Q 1681 3084 1819 3084 
Q 2600 3084 3056 2656 
Q 3513 2228 3513 1497 
Q 3513 744 3044 326 
Q 2575 -91 1722 -91 
Q 1428 -91 1123 -41 
Q 819 9 494 109 
L 494 744 
Q 775 591 1075 516 
Q 1375 441 1709 441 
Q 2250 441 2565 725 
Q 2881 1009 2881 1497 
Q 2881 1984 2565 2268 
Q 2250 2553 1709 2553 
Q 1456 2553 1204 2497 
Q 953 2441 691 2322 
L 691 4666 
z
" transform="scale(0.015625)"/>
       </defs>
       <use xlink:href="#DejaVuSans-30"/>
       <use xlink:href="#DejaVuSans-2e" transform="translate(63.623047 0)"/>
       <use xlink:href="#DejaVuSans-35" transform="translate(95.410156 0)"/>
       <use xlink:href="#DejaVuSans-30" transform="translate(159.033203 0)"/>
      </g>
     </g>
    </g>
    <g id="ytick_2">
     <g id="line2d_70">
      <path d="M 54.02 234.0128 
L 565.2 234.0128 
" clip-path="url(#p1a0cada735)" style="fill: none; stroke: #b0b0b0; stroke-opacity: 0.3; stroke-width: 0.8; stroke-linecap: square"/>
     </g>
     <g id="line2d_71">
      <g>
       <use xlink:href="#m34d9f7dda6" x="54.02" y="234.0128" style="stroke: #000000; stroke-width: 0.8"/>
      </g>
     </g>
     <g id="text_7">
      <!-- 0.55 -->
      <g transform="translate(24.754375 237.812018) scale(0.1 -0.1)">
       <use xlink:href="#DejaVuSans-30"/>
       <use xlink:href="#DejaVuSans-2e" transform="translate(63.623047 0)"/>
       <use xlink:href="#DejaVuSans-35" transform="translate(95.410156 0)"/>
       <use xlink:href="#DejaVuSans-35" transform="translate(159.033203 0)"/>
      </g>
     </g>
    </g>
    <g id="ytick_3">
     <g id="line2d_72">
      <path d="M 54.02 170.952536 
L 565.2 170.952536 
" clip-path="url(#p1a0cada735)" style="fill: none; stroke: #b0b0b0; stroke-opacity: 0.3; stroke-width: 0.8; stroke-linecap: square"/>
     </g>
     <g id="line2d_73">
      <g>
       <use xlink:href="#m34d9f7dda6" x="54.02" y="170.952536" style="stroke: #000000; stroke-width: 0.8"/>
      </g>
     </g>
     <g id="text_8">
      <!-- 0.60 -->
      <g transform="translate(24.754375 174.751754) scale(0.1 -0.1)">
       <defs>
        <path id="DejaVuSans-36" d="M 2113 2584 
Q 1688 2584 1439 2293 
Q 1191 2003 1191 1497 
Q 1191 994 1439 701 
Q 1688 409 2113 409 
Q 2538 409 2786 701 
Q 3034 994 3034 1497 
Q 3034 2003 2786 2293 
Q 2538 2584 2113 2584 
z
M 3366 4563 
L 3366 3988 
Q 3128 4100 2886 4159 
Q 2644 4219 2406 4219 
Q 1781 4219 1451 3797 
Q 1122 3375 1075 2522 
Q 1259 2794 1537 2939 
Q 1816 3084 2150 3084 
Q 2853 3084 3261 2657 
Q 3669 2231 3669 1497 
Q 3669 778 3244 343 
Q 2819 -91 2113 -91 
Q 1303 -91 875 529 
Q 447 1150 447 2328 
Q 447 3434 972 4092 
Q 1497 4750 2381 4750 
Q 2619 4750 2861 4703 
Q 3103 4656 3366 4563 
z
" transform="scale(0.015625)"/>
       </defs>
       <use xlink:href="#DejaVuSans-30"/>
       <use xlink:href="#DejaVuSans-2e" transform="translate(63.623047 0)"/>
       <use xlink:href="#DejaVuSans-36" transform="translate(95.410156 0)"/>
       <use xlink:href="#DejaVuSans-30" transform="translate(159.033203 0)"/>
      </g>
     </g>
    </g>
    <g id="ytick_4">
     <g id="line2d_74">
      <path d="M 54.02 107.892272 
L 565.2 107.892272 
" clip-path="url(#p1a0cada735)" style="fill: none; stroke: #b0b0b0; stroke-opacity: 0.3; stroke-width: 0.8; stroke-linecap: square"/>
     </g>
     <g id="line2d_75">
      <g>
       <use xlink:href="#m34d9f7dda6" x="54.02" y="107.892272" style="stroke: #000000; stroke-width: 0.8"/>
      </g>
     </g>
     <g id="text_9">
      <!-- 0.65 -->
      <g transform="translate(24.754375 111.69149) scale(0.1 -0.1)">
       <use xlink:href="#DejaVuSans-30"/>
       <use xlink:href="#DejaVuSans-2e" transform="translate(63.623047 0)"/>
       <use xlink:href="#DejaVuSans-36" transform="translate(95.410156 0)"/>
       <use xlink:href="#DejaVuSans-35" transform="translate(159.033203 0)"/>
      </g>
     </g>
    </g>
    <g id="ytick_5">
     <g id="line2d_76">
      <path d="M 54.02 44.832008 
L 565.2 44.832008 
" clip-path="url(#p1a0cada735)" style="fill: none; stroke: #b0b0b0; stroke-opacity: 0.3; stroke-width: 0.8; stroke-linecap: square"/>
     </g>
     <g id="line2d_77">
      <g>
       <use xlink:href="#m34d9f7dda6" x="54.02" y="44.832008" style="stroke: #000000; stroke-width: 0.8"/>
      </g>
     </g>
     <g id="text_10">
      <!-- 0.70 -->
      <g transform="translate(24.754375 48.631227) scale(0.1 -0.1)">
       <defs>
        <path id="DejaVuSans-37" d="M 525 4666 
L 3525 4666 
L 3525 4397 
L 1831 0 
L 1172 0 
L 2766 4134 
L 525 4134 
L 525 4666 
z
" transform="scale(0.015625)"/>
       </defs>
       <use xlink:href="#DejaVuSans-30"/>
       <use xlink:href="#DejaVuSans-2e" transform="translate(63.623047 0)"/>
       <use xlink:href="#DejaVuSans-37" transform="translate(95.410156 0)"/>
       <use xlink:href="#DejaVuSans-30" transform="translate(159.033203 0)"/>
      </g>
     </g>
    </g>
    <g id="text_11">
     <!-- SSIM Index -->
     <g transform="translate(18.674688 198.296969) rotate(-90) scale(0.1 -0.1)">
      <defs>
       <path id="DejaVuSans-4d" d="M 628 4666 
L 1569 4666 
L 2759 1491 
L 3956 4666 
L 4897 4666 
L 4897 0 
L 4281 0 
L 4281 4097 
L 3078 897 
L 2444 897 
L 1241 4097 
L 1241 0 
L 628 0 
L 628 4666 
z
" transform="scale(0.015625)"/>
       <path id="DejaVuSans-64" d="M 2906 2969 
L 2906 4863 
L 3481 4863 
L 3481 0 
L 2906 0 
L 2906 525 
Q 2725 213 2448 61 
Q 2172 -91 1784 -91 
Q 1150 -91 751 415 
Q 353 922 353 1747 
Q 353 2572 751 3078 
Q 1150 3584 1784 3584 
Q 2172 3584 2448 3432 
Q 2725 3281 2906 2969 
z
M 947 1747 
Q 947 1113 1208 752 
Q 1469 391 1925 391 
Q 2381 391 2643 752 
Q 2906 1113 2906 1747 
Q 2906 2381 2643 2742 
Q 2381 3103 1925 3103 
Q 1469 3103 1208 2742 
Q 947 2381 947 1747 
z
" transform="scale(0.015625)"/>
       <path id="DejaVuSans-78" d="M 3513 3500 
L 2247 1797 
L 3578 0 
L 2900 0 
L 1881 1375 
L 863 0 
L 184 0 
L 1544 1831 
L 300 3500 
L 978 3500 
L 1906 2253 
L 2834 3500 
L 3513 3500 
z
" transform="scale(0.015625)"/>
      </defs>
      <use xlink:href="#DejaVuSans-53"/>
      <use xlink:href="#DejaVuSans-53" transform="translate(63.476562 0)"/>
      <use xlink:href="#DejaVuSans-49" transform="translate(126.953125 0)"/>
      <use xlink:href="#DejaVuSans-4d" transform="translate(156.445312 0)"/>
      <use xlink:href="#DejaVuSans-20" transform="translate(242.724609 0)"/>
      <use xlink:href="#DejaVuSans-49" transform="translate(274.511719 0)"/>
      <use xlink:href="#DejaVuSans-6e" transform="translate(304.003906 0)"/>
      <use xlink:href="#DejaVuSans-64" transform="translate(367.382812 0)"/>
      <use xlink:href="#DejaVuSans-65" transform="translate(430.859375 0)"/>
      <use xlink:href="#DejaVuSans-78" transform="translate(490.632812 0)"/>
     </g>
    </g>
   </g>
   <g id="patch_3">
    <path d="M 54.02 314.728 
L 54.02 26.88 
" style="fill: none; stroke: #000000; stroke-width: 0.8; stroke-linejoin: miter; stroke-linecap: square"/>
   </g>
   <g id="patch_4">
    <path d="M 565.2 314.728 
L 565.2 26.88 
" style="fill: none; stroke: #000000; stroke-width: 0.8; stroke-linejoin: miter; stroke-linecap: square"/>
   </g>
   <g id="patch_5">
    <path d="M 54.02 314.728 
L 565.2 314.728 
" style="fill: none; stroke: #000000; stroke-width: 0.8; stroke-linejoin: miter; stroke-linecap: square"/>
   </g>
   <g id="patch_6">
    <path d="M 54.02 26.88 
L 565.2 26.88 
" style="fill: none; stroke: #000000; stroke-width: 0.8; stroke-linejoin: miter; stroke-linecap: square"/>
   </g>
   <g id="text_12">
    <!-- SSIM Convergence - Image 2 -->
    <g transform="translate(223.080625 20.88) scale(0.12 -0.12)">
     <defs>
      <path id="DejaVuSans-43" d="M 4122 4306 
L 4122 3641 
Q 3803 3938 3442 4084 
Q 3081 4231 2675 4231 
Q 1875 4231 1450 3742 
Q 1025 3253 1025 2328 
Q 1025 1406 1450 917 
Q 1875 428 2675 428 
Q 3081 428 3442 575 
Q 3803 722 4122 1019 
L 4122 359 
Q 3791 134 3420 21 
Q 3050 -91 2638 -91 
Q 1578 -91 968 557 
Q 359 1206 359 2328 
Q 359 3453 968 4101 
Q 1578 4750 2638 4750 
Q 3056 4750 3426 4639 
Q 3797 4528 4122 4306 
z
" transform="scale(0.015625)"/>
      <path id="DejaVuSans-76" d="M 191 3500 
L 800 3500 
L 1894 563 
L 2988 3500 
L 3597 3500 
L 2284 0 
L 1503 0 
L 191 3500 
z
" transform="scale(0.015625)"/>
      <path id="DejaVuSans-2d" d="M 313 2009 
L 1997 2009 
L 1997 1497 
L 313 1497 
L 313 2009 
z
" transform="scale(0.015625)"/>
      <path id="DejaVuSans-6d" d="M 3328 2828 
Q 3544 3216 3844 3400 
Q 4144 3584 4550 3584 
Q 5097 3584 5394 3201 
Q 5691 2819 5691 2113 
L 5691 0 
L 5113 0 
L 5113 2094 
Q 5113 2597 4934 2840 
Q 4756 3084 4391 3084 
Q 3944 3084 3684 2787 
Q 3425 2491 3425 1978 
L 3425 0 
L 2847 0 
L 2847 2094 
Q 2847 2600 2669 2842 
Q 2491 3084 2119 3084 
Q 1678 3084 1418 2786 
Q 1159 2488 1159 1978 
L 1159 0 
L 581 0 
L 581 3500 
L 1159 3500 
L 1159 2956 
Q 1356 3278 1631 3431 
Q 1906 3584 2284 3584 
Q 2666 3584 2933 3390 
Q 3200 3197 3328 2828 
z
" transform="scale(0.015625)"/>
     </defs>
     <use xlink:href="#DejaVuSans-53"/>
     <use xlink:href="#DejaVuSans-53" transform="translate(63.476562 0)"/>
     <use xlink:href="#DejaVuSans-49" transform="translate(126.953125 0)"/>
     <use xlink:href="#DejaVuSans-4d" transform="translate(156.445312 0)"/>
     <use xlink:href="#DejaVuSans-20" transform="translate(242.724609 0)"/>
     <use xlink:href="#DejaVuSans-43" transform="translate(274.511719 0)"/>
     <use xlink:href="#DejaVuSans-6f" transform="translate(344.335938 0)"/>
     <use xlink:href="#DejaVuSans-6e" transform="translate(405.517578 0)"/>
     <use xlink:href="#DejaVuSans-76" transform="translate(468.896484 0)"/>
     <use xlink:href="#DejaVuSans-65" transform="translate(528.076172 0)"/>
     <use xlink:href="#DejaVuSans-72" transform="translate(589.599609 0)"/>
     <use xlink:href="#DejaVuSans-67" transform="translate(628.962891 0)"/>
     <use xlink:href="#DejaVuSans-65" transform="translate(692.439453 0)"/>
     <use xlink:href="#DejaVuSans-6e" transform="translate(753.962891 0)"/>
     <use xlink:href="#DejaVuSans-63" transform="translate(817.341797 0)"/>
     <use xlink:href="#DejaVuSans-65" transform="translate(872.322266 0)"/>
     <use xlink:href="#DejaVuSans-20" transform="translate(933.845703 0)"/>
     <use xlink:href="#DejaVuSans-2d" transform="translate(965.632812 0)"/>
     <use xlink:href="#DejaVuSans-20" transform="translate(1001.716797 0)"/>
     <use xlink:href="#DejaVuSans-49" transform="translate(1033.503906 0)"/>
     <use xlink:href="#DejaVuSans-6d" transform="translate(1062.996094 0)"/>
     <use xlink:href="#DejaVuSans-61" transform="translate(1160.408203 0)"/>
     <use xlink:href="#DejaVuSans-67" transform="translate(1221.6875 0)"/>
     <use xlink:href="#DejaVuSans-65" transform="translate(1285.164062 0)"/>
     <use xlink:href="#DejaVuSans-20" transform="translate(1346.6875 0)"/>
     <use xlink:href="#DejaVuSans-32" transform="translate(1378.474609 0)"/>
    </g>
   </g>
   <g id="legend_1">
    <g id="patch_7">
     <path d="M 483.914317 312.563 
L 561.369 312.563 
Q 563.035 312.563 563.035 310.897 
L 563.035 225.446819 
Q 563.035 223.780819 561.369 223.780819 
L 483.914317 223.780819 
Q 482.248317 223.780819 482.248317 225.446819 
L 482.248317 310.897 
Q 482.248317 312.563 483.914317 312.563 
z
" style="fill: #4d4d4d; opacity: 0.5; stroke: #4d4d4d; stroke-linejoin: miter"/>
    </g>
    <g id="patch_8">
     <path d="M 481.914317 310.563 
L 559.369 310.563 
Q 561.035 310.563 561.035 308.897 
L 561.035 223.446819 
Q 561.035 221.780819 559.369 221.780819 
L 481.914317 221.780819 
Q 480.248317 221.780819 480.248317 223.446819 
L 480.248317 308.897 
Q 480.248317 310.563 481.914317 310.563 
z
" style="fill: #ffffff; stroke: #cccccc; stroke-linejoin: miter"/>
    </g>
    <g id="line2d_78">
     <path d="M 483.580317 228.526817 
L 491.910317 228.526817 
L 500.240317 228.526817 
" style="fill: none; stroke: #000000; stroke-width: 1.5; stroke-linecap: square"/>
     <g>
      <use xlink:href="#m7369e962a3" x="491.910317" y="228.526817" style="stroke: #000000"/>
     </g>
    </g>
    <g id="text_13">
     <!-- ADMM -->
     <g transform="translate(506.904317 231.442317) scale(0.0833 -0.0833)">
      <defs>
       <path id="DejaVuSans-41" d="M 2188 4044 
L 1331 1722 
L 3047 1722 
L 2188 4044 
z
M 1831 4666 
L 2547 4666 
L 4325 0 
L 3669 0 
L 3244 1197 
L 1141 1197 
L 716 0 
L 50 0 
L 1831 4666 
z
" transform="scale(0.015625)"/>
       <path id="DejaVuSans-44" d="M 1259 4147 
L 1259 519 
L 2022 519 
Q 2988 519 3436 956 
Q 3884 1394 3884 2338 
Q 3884 3275 3436 3711 
Q 2988 4147 2022 4147 
L 1259 4147 
z
M 628 4666 
L 1925 4666 
Q 3281 4666 3915 4102 
Q 4550 3538 4550 2338 
Q 4550 1131 3912 565 
Q 3275 0 1925 0 
L 628 0 
L 628 4666 
z
" transform="scale(0.015625)"/>
      </defs>
      <use xlink:href="#DejaVuSans-41"/>
      <use xlink:href="#DejaVuSans-44" transform="translate(68.408203 0)"/>
      <use xlink:href="#DejaVuSans-4d" transform="translate(145.410156 0)"/>
      <use xlink:href="#DejaVuSans-4d" transform="translate(231.689453 0)"/>
     </g>
    </g>
    <g id="line2d_79">
     <path d="M 483.580317 240.753695 
L 491.910317 240.753695 
L 500.240317 240.753695 
" style="fill: none; stroke: #4b0082; stroke-width: 1.5; stroke-linecap: square"/>
     <g>
      <use xlink:href="#m2483d92280" x="491.910317" y="240.753695" style="fill: #4b0082; stroke: #4b0082; stroke-linejoin: miter"/>
     </g>
    </g>
    <g id="text_14">
     <!-- FISTA -->
     <g transform="translate(506.904317 243.669195) scale(0.0833 -0.0833)">
      <defs>
       <path id="DejaVuSans-46" d="M 628 4666 
L 3309 4666 
L 3309 4134 
L 1259 4134 
L 1259 2759 
L 3109 2759 
L 3109 2228 
L 1259 2228 
L 1259 0 
L 628 0 
L 628 4666 
z
" transform="scale(0.015625)"/>
       <path id="DejaVuSans-54" d="M -19 4666 
L 3928 4666 
L 3928 4134 
L 2272 4134 
L 2272 0 
L 1638 0 
L 1638 4134 
L -19 4134 
L -19 4666 
z
" transform="scale(0.015625)"/>
      </defs>
      <use xlink:href="#DejaVuSans-46"/>
      <use xlink:href="#DejaVuSans-49" transform="translate(57.519531 0)"/>
      <use xlink:href="#DejaVuSans-53" transform="translate(87.011719 0)"/>
      <use xlink:href="#DejaVuSans-54" transform="translate(150.488281 0)"/>
      <use xlink:href="#DejaVuSans-41" transform="translate(203.822266 0)"/>
     </g>
    </g>
    <g id="line2d_80">
     <path d="M 483.580317 252.980573 
L 491.910317 252.980573 
L 500.240317 252.980573 
" style="fill: none; stroke: #1f77b4; stroke-width: 1.5; stroke-linecap: square"/>
     <g>
      <use xlink:href="#mf0f7ed6386" x="491.910317" y="252.980573" style="fill: #1f77b4; stroke: #1f77b4; stroke-linejoin: miter"/>
     </g>
    </g>
    <g id="text_15">
     <!-- MOMENTUM -->
     <g transform="translate(506.904317 255.896073) scale(0.0833 -0.0833)">
      <defs>
       <path id="DejaVuSans-4f" d="M 2522 4238 
Q 1834 4238 1429 3725 
Q 1025 3213 1025 2328 
Q 1025 1447 1429 934 
Q 1834 422 2522 422 
Q 3209 422 3611 934 
Q 4013 1447 4013 2328 
Q 4013 3213 3611 3725 
Q 3209 4238 2522 4238 
z
M 2522 4750 
Q 3503 4750 4090 4092 
Q 4678 3434 4678 2328 
Q 4678 1225 4090 567 
Q 3503 -91 2522 -91 
Q 1538 -91 948 565 
Q 359 1222 359 2328 
Q 359 3434 948 4092 
Q 1538 4750 2522 4750 
z
" transform="scale(0.015625)"/>
       <path id="DejaVuSans-45" d="M 628 4666 
L 3578 4666 
L 3578 4134 
L 1259 4134 
L 1259 2753 
L 3481 2753 
L 3481 2222 
L 1259 2222 
L 1259 531 
L 3634 531 
L 3634 0 
L 628 0 
L 628 4666 
z
" transform="scale(0.015625)"/>
       <path id="DejaVuSans-4e" d="M 628 4666 
L 1478 4666 
L 3547 763 
L 3547 4666 
L 4159 4666 
L 4159 0 
L 3309 0 
L 1241 3903 
L 1241 0 
L 628 0 
L 628 4666 
z
" transform="scale(0.015625)"/>
       <path id="DejaVuSans-55" d="M 556 4666 
L 1191 4666 
L 1191 1831 
Q 1191 1081 1462 751 
Q 1734 422 2344 422 
Q 2950 422 3222 751 
Q 3494 1081 3494 1831 
L 3494 4666 
L 4128 4666 
L 4128 1753 
Q 4128 841 3676 375 
Q 3225 -91 2344 -91 
Q 1459 -91 1007 375 
Q 556 841 556 1753 
L 556 4666 
z
" transform="scale(0.015625)"/>
      </defs>
      <use xlink:href="#DejaVuSans-4d"/>
      <use xlink:href="#DejaVuSans-4f" transform="translate(86.279297 0)"/>
      <use xlink:href="#DejaVuSans-4d" transform="translate(164.990234 0)"/>
      <use xlink:href="#DejaVuSans-45" transform="translate(251.269531 0)"/>
      <use xlink:href="#DejaVuSans-4e" transform="translate(314.453125 0)"/>
      <use xlink:href="#DejaVuSans-54" transform="translate(389.257812 0)"/>
      <use xlink:href="#DejaVuSans-55" transform="translate(450.341797 0)"/>
      <use xlink:href="#DejaVuSans-4d" transform="translate(523.535156 0)"/>
     </g>
    </g>
    <g id="line2d_81">
     <path d="M 483.580317 265.207452 
L 491.910317 265.207452 
L 500.240317 265.207452 
" style="fill: none; stroke: #ff7f0e; stroke-width: 1.5; stroke-linecap: square"/>
     <g>
      <use xlink:href="#m9fd972d0b3" x="491.910317" y="265.207452" style="fill: #ff7f0e; stroke: #ff7f0e; stroke-linejoin: miter"/>
     </g>
    </g>
    <g id="text_16">
     <!-- AA_M3 -->
     <g transform="translate(506.904317 268.122952) scale(0.0833 -0.0833)">
      <defs>
       <path id="DejaVuSans-5f" d="M 3263 -1063 
L 3263 -1509 
L -63 -1509 
L -63 -1063 
L 3263 -1063 
z
" transform="scale(0.015625)"/>
      </defs>
      <use xlink:href="#DejaVuSans-41"/>
      <use xlink:href="#DejaVuSans-41" transform="translate(71.158203 0)"/>
      <use xlink:href="#DejaVuSans-5f" transform="translate(139.566406 0)"/>
      <use xlink:href="#DejaVuSans-4d" transform="translate(189.566406 0)"/>
      <use xlink:href="#DejaVuSans-33" transform="translate(275.845703 0)"/>
     </g>
    </g>
    <g id="line2d_82">
     <path d="M 483.580317 277.666008 
L 491.910317 277.666008 
L 500.240317 277.666008 
" style="fill: none; stroke: #2ca02c; stroke-width: 1.5; stroke-linecap: square"/>
     <g>
      <use xlink:href="#m52341c75f7" x="491.910317" y="277.666008" style="fill: #2ca02c; stroke: #2ca02c; stroke-linejoin: miter"/>
     </g>
    </g>
    <g id="text_17">
     <!-- AA_M4 -->
     <g transform="translate(506.904317 280.581508) scale(0.0833 -0.0833)">
      <defs>
       <path id="DejaVuSans-34" d="M 2419 4116 
L 825 1625 
L 2419 1625 
L 2419 4116 
z
M 2253 4666 
L 3047 4666 
L 3047 1625 
L 3713 1625 
L 3713 1100 
L 3047 1100 
L 3047 0 
L 2419 0 
L 2419 1100 
L 313 1100 
L 313 1709 
L 2253 4666 
z
" transform="scale(0.015625)"/>
      </defs>
      <use xlink:href="#DejaVuSans-41"/>
      <use xlink:href="#DejaVuSans-41" transform="translate(71.158203 0)"/>
      <use xlink:href="#DejaVuSans-5f" transform="translate(139.566406 0)"/>
      <use xlink:href="#DejaVuSans-4d" transform="translate(189.566406 0)"/>
      <use xlink:href="#DejaVuSans-34" transform="translate(275.845703 0)"/>
     </g>
    </g>
    <g id="line2d_83">
     <path d="M 483.580317 290.124564 
L 491.910317 290.124564 
L 500.240317 290.124564 
" style="fill: none; stroke: #d62728; stroke-width: 1.5; stroke-linecap: square"/>
     <g>
      <use xlink:href="#m1cfbe03f86" x="491.910317" y="290.124564" style="fill: #d62728; stroke: #d62728; stroke-linejoin: miter"/>
     </g>
    </g>
    <g id="text_18">
     <!-- AA_M5 -->
     <g transform="translate(506.904317 293.040064) scale(0.0833 -0.0833)">
      <use xlink:href="#DejaVuSans-41"/>
      <use xlink:href="#DejaVuSans-41" transform="translate(71.158203 0)"/>
      <use xlink:href="#DejaVuSans-5f" transform="translate(139.566406 0)"/>
      <use xlink:href="#DejaVuSans-4d" transform="translate(189.566406 0)"/>
      <use xlink:href="#DejaVuSans-35" transform="translate(275.845703 0)"/>
     </g>
    </g>
    <g id="line2d_84">
     <path d="M 483.580317 302.58312 
L 491.910317 302.58312 
L 500.240317 302.58312 
" style="fill: none; stroke: #ff0000; stroke-width: 1.5; stroke-linecap: square"/>
    </g>
    <g id="text_19">
     <!-- RL Agent -->
     <g transform="translate(506.904317 305.49862) scale(0.0833 -0.0833)">
      <defs>
       <path id="DejaVuSans-52" d="M 2841 2188 
Q 3044 2119 3236 1894 
Q 3428 1669 3622 1275 
L 4263 0 
L 3584 0 
L 2988 1197 
Q 2756 1666 2539 1819 
Q 2322 1972 1947 1972 
L 1259 1972 
L 1259 0 
L 628 0 
L 628 4666 
L 2053 4666 
Q 2853 4666 3247 4331 
Q 3641 3997 3641 3322 
Q 3641 2881 3436 2590 
Q 3231 2300 2841 2188 
z
M 1259 4147 
L 1259 2491 
L 2053 2491 
Q 2509 2491 2742 2702 
Q 2975 2913 2975 3322 
Q 2975 3731 2742 3939 
Q 2509 4147 2053 4147 
L 1259 4147 
z
" transform="scale(0.015625)"/>
      </defs>
      <use xlink:href="#DejaVuSans-52"/>
      <use xlink:href="#DejaVuSans-4c" transform="translate(69.482422 0)"/>
      <use xlink:href="#DejaVuSans-20" transform="translate(125.195312 0)"/>
      <use xlink:href="#DejaVuSans-41" transform="translate(156.982422 0)"/>
      <use xlink:href="#DejaVuSans-67" transform="translate(225.390625 0)"/>
      <use xlink:href="#DejaVuSans-65" transform="translate(288.867188 0)"/>
      <use xlink:href="#DejaVuSans-6e" transform="translate(350.390625 0)"/>
      <use xlink:href="#DejaVuSans-74" transform="translate(413.769531 0)"/>
     </g>
    </g>
   </g>
  </g>
 </g>
 <defs>
  <clipPath id="p1a0cada735">
   <rect x="54.02" y="26.88" width="511.18" height="287.848"/>
  </clipPath>
 </defs>
</svg>
