<?xml version="1.0" encoding="utf-8" standalone="no"?>
<!DOCTYPE svg PUBLIC "-//W3C//DTD SVG 1.1//EN"
  "http://www.w3.org/Graphics/SVG/1.1/DTD/svg11.dtd">
<svg xmlns:xlink="http://www.w3.org/1999/xlink" width="576pt" height="360pt" viewBox="0 0 576 360" xmlns="http://www.w3.org/2000/svg" version="1.1">
 <metadata>
  <rdf:RDF xmlns:dc="http://purl.org/dc/elements/1.1/" xmlns:cc="http://creativecommons.org/ns#" xmlns:rdf="http://www.w3.org/1999/02/22-rdf-syntax-ns#">
   <cc:Work>
    <dc:type rdf:resource="http://purl.org/dc/dcmitype/StillImage"/>
    <dc:date>2026-04-14T21:48:49.030165</dc:date>
    <dc:format>image/svg+xml</dc:format>
    <dc:creator>
     <cc:Agent>
      <dc:title>Matplotlib v3.10.3, https://matplotlib.org/</dc:title>
     </cc:Agent>
    </dc:creator>
   </cc:Work>
  </rdf:RDF>
 </metadata>
 <defs>
  <style type="text/css">*{stroke-linejoin: round; stroke-linecap: butt}</style>
 </defs>
 <g id="figure_1">
  <g id="patch_1">
   <path d="M 0 360 
L 576 360 
L 576 0 
L 0 0 
z
" style="fill: #ffffff"/>
  </g>
  <g id="axes_1">
   <g id="patch_2">
    <path d="M 54.11 314.728 
L 565.2 314.728 
L 565.2 26.88 
L 54.11 26.88 
z
" style="fill: #ffffff"/>
   </g>
   <g id="line2d_1">
    <path d="M -1 284.532322 
L 77.341364 284.523663 
L 123.970366 272.322999 
L 151.246584 262.50517 
L 170.599368 253.847329 
L 185.610554 245.868484 
L 197.875586 238.361564 
L 208.245523 231.237237 
L 217.22837 224.456942 
L 225.151804 217.996984 
L 232.239556 211.842618 
L 238.651208 205.973776 
L 244.504588 200.375227 
L 249.889176 195.024729 
L 259.515774 185.011312 
L 267.935678 175.848907 
L 278.868558 163.559999 
L 310.486375 127.604488 
L 318.409808 118.965262 
L 325.497561 111.511047 
L 331.909213 105.038518 
L 337.762593 99.39899 
L 343.14718 94.48113 
L 348.132529 90.180979 
L 353.885728 85.531599 
L 359.185431 81.551545 
L 364.097936 78.114979 
L 369.555367 74.580376 
L 374.603092 71.568591 
L 380.049996 68.591861 
L 385.088714 66.079199 
L 390.419933 63.660341 
L 395.952207 61.398389 
L 401.608599 59.32308 
L 407.326214 57.459193 
L 413.510981 55.679441 
L 419.591246 54.150279 
L 426.304226 52.690986 
L 433.090651 51.431874 
L 441.390534 50.160917 
L 449.046486 49.219001 
L 457.118651 48.42843 
L 467.454621 47.672914 
L 476.94518 47.179714 
L 488.914513 46.765933 
L 501.204236 46.514377 
L 520.030371 46.329911 
L 541.968636 46.264151 
L 541.968636 46.264151 
" clip-path="url(#pcfeb579848)" style="fill: none; stroke: #000000; stroke-width: 1.5; stroke-linecap: square"/>
    <defs>
     <path id="mcb7ed6e05d" d="M 0 3 
C 0.795609 3 1.55874 2.683901 2.12132 2.12132 
C 2.683901 1.55874 3 0.795609 3 0 
C 3 -0.795609 2.683901 -1.55874 2.12132 -2.12132 
C 1.55874 -2.683901 0.795609 -3 0 -3 
C -0.795609 -3 -1.55874 -2.683901 -2.12132 -2.12132 
C -2.683901 -1.55874 -3 -0.795609 -3 0 
C -3 0.795609 -2.683901 1.55874 -2.12132 2.12132 
C -1.55874 2.683901 -0.795609 3 0 3 
z
" style="stroke: #000000"/>
    </defs>
    <g clip-path="url(#pcfeb579848)">
     <use xlink:href="#mcb7ed6e05d" x="-1" y="284.532322" style="stroke: #000000"/>
     <use xlink:href="#mcb7ed6e05d" x="77.341364" y="284.523663" style="stroke: #000000"/>
     <use xlink:href="#mcb7ed6e05d" x="151.246584" y="262.50517" style="stroke: #000000"/>
     <use xlink:href="#mcb7ed6e05d" x="197.875586" y="238.361564" style="stroke: #000000"/>
     <use xlink:href="#mcb7ed6e05d" x="244.504588" y="200.375227" style="stroke: #000000"/>
     <use xlink:href="#mcb7ed6e05d" x="285.280211" y="156.234041" style="stroke: #000000"/>
     <use xlink:href="#mcb7ed6e05d" x="325.497561" y="111.511047" style="stroke: #000000"/>
     <use xlink:href="#mcb7ed6e05d" x="369.555367" y="74.580376" style="stroke: #000000"/>
     <use xlink:href="#mcb7ed6e05d" x="424.01066" y="53.16412" style="stroke: #000000"/>
     <use xlink:href="#mcb7ed6e05d" x="482.220738" y="46.971917" style="stroke: #000000"/>
     <use xlink:href="#mcb7ed6e05d" x="540.882495" y="46.265601" style="stroke: #000000"/>
    </g>
   </g>
   <g id="line2d_2">
    <path d="M -1 284.532322 
L 77.341364 284.523663 
L 123.970366 272.322999 
L 151.246584 260.041224 
L 170.599368 248.259901 
L 185.610554 236.834094 
L 197.875586 225.801033 
L 208.245523 215.262019 
L 217.22837 205.304692 
L 225.151804 195.931468 
L 232.239556 187.121557 
L 244.504588 171.148636 
L 271.780806 134.871697 
L 278.868558 125.80624 
L 285.280211 117.895452 
L 291.13359 110.961394 
L 296.518178 104.861183 
L 301.503527 99.486992 
L 306.144776 94.752269 
L 310.486375 90.578683 
L 314.56468 86.889713 
L 320.252976 82.114978 
L 325.497561 78.099747 
L 330.362675 74.695698 
L 334.899547 71.772278 
L 340.508747 68.496847 
L 348.132529 64.590652 
L 357.115377 60.72459 
L 360.19705 59.63544 
L 361.193682 59.217307 
L 362.175764 58.94786 
L 363.143715 58.550641 
L 364.097936 58.312019 
L 365.03881 57.934624 
L 365.966707 57.722717 
L 366.881979 57.364542 
L 367.784964 57.174394 
L 368.67599 56.83677 
L 369.555367 56.661974 
L 370.423398 56.347075 
L 371.28037 56.183279 
L 372.962244 55.731542 
L 375.408747 55.086996 
L 386.461648 52.753845 
L 387.137749 52.720965 
L 387.807122 52.512684 
L 388.4699 52.492497 
L 389.126212 52.287359 
L 389.776182 52.273821 
L 390.419933 52.071826 
L 391.057582 52.065903 
L 391.689243 51.86826 
L 392.315028 51.867535 
L 392.935046 51.675694 
L 393.549401 51.674727 
L 394.158196 51.493887 
L 394.761532 51.489898 
L 395.359504 51.322597 
L 395.952207 51.310267 
L 396.539735 51.157834 
L 397.122175 51.14079 
L 398.272142 50.974576 
L 399.961053 50.720723 
L 404.267895 50.232962 
L 405.814433 50.018034 
L 406.322144 50.025045 
L 406.826052 49.903195 
L 407.326214 49.928581 
L 407.822684 49.794885 
L 408.315518 49.83393 
L 408.804767 49.692618 
L 409.290483 49.743993 
L 409.772717 49.592165 
L 410.25152 49.656353 
L 410.726938 49.498723 
L 411.19902 49.572219 
L 411.667813 49.408786 
L 412.133361 49.49147 
L 412.595709 49.32296 
L 413.054902 49.411929 
L 413.510981 49.242089 
L 413.963989 49.337224 
L 414.413967 49.165208 
L 414.860955 49.263969 
L 415.304992 49.093162 
L 415.746118 49.193374 
L 416.18437 49.023655 
L 416.619785 49.127372 
L 417.0524 48.956807 
L 417.482251 49.063304 
L 417.909373 48.893585 
L 418.333799 49.000929 
L 418.755565 48.835562 
L 419.174703 48.939883 
L 419.591246 48.775604 
L 420.005225 48.883673 
L 420.416673 48.722778 
L 420.825619 48.829276 
L 421.232094 48.67092 
L 421.636128 48.775967 
L 422.037749 48.623171 
L 422.436988 48.726042 
L 422.83387 48.578686 
L 423.228425 48.677206 
L 423.62068 48.534806 
L 424.01066 48.630545 
L 424.398393 48.493102 
L 424.783903 48.584126 
L 425.167217 48.456474 
L 425.54836 48.541938 
L 425.927355 48.421418 
L 426.304226 48.501926 
L 426.678999 48.385275 
L 427.051694 48.463002 
L 427.422337 48.354208 
L 427.790948 48.42432 
L 428.157551 48.321811 
L 428.522167 48.387692 
L 428.884817 48.292437 
L 429.245522 48.352032 
L 429.604304 48.264755 
L 429.961183 48.317943 
L 430.316178 48.235864 
L 430.669309 48.283371 
L 431.020597 48.208665 
L 431.37006 48.251699 
L 432.407686 48.156444 
L 433.42955 48.15318 
L 434.436124 48.090442 
L 436.405185 48.027463 
L 444.328618 47.808424 
L 445.18559 47.735048 
L 446.031783 47.766356 
L 446.311498 47.698662 
L 446.590055 47.751004 
L 446.867464 47.682101 
L 447.143733 47.733476 
L 447.418872 47.665782 
L 447.69289 47.719454 
L 447.965797 47.649947 
L 448.237601 47.706036 
L 448.508312 47.636771 
L 448.777937 47.695157 
L 449.046486 47.625166 
L 449.313967 47.684761 
L 449.580389 47.614045 
L 449.84576 47.673519 
L 450.110088 47.602923 
L 450.373382 47.665178 
L 450.635649 47.593857 
L 450.896897 47.65454 
L 451.157135 47.585879 
L 451.41637 47.646078 
L 451.67461 47.578747 
L 451.931863 47.635803 
L 452.188135 47.573549 
L 452.69777 47.567263 
L 453.455055 47.602923 
L 454.203909 47.552032 
L 455.189589 47.540669 
L 457.118651 47.523262 
L 458.296815 47.473337 
L 458.993934 47.512624 
L 459.224711 47.45315 
L 459.454699 47.512624 
L 459.683904 47.44493 
L 459.91233 47.514558 
L 460.139983 47.436589 
L 460.366868 47.519635 
L 460.592991 47.431754 
L 460.818356 47.520723 
L 461.042969 47.424017 
L 461.266834 47.525196 
L 461.489957 47.417611 
L 461.712342 47.52713 
L 461.933994 47.411083 
L 462.154919 47.525438 
L 462.37512 47.404072 
L 462.594603 47.523504 
L 462.813372 47.399962 
L 463.031432 47.52157 
L 463.248787 47.394039 
L 463.465442 47.519394 
L 463.681402 47.389687 
L 463.896671 47.516251 
L 464.111253 47.387874 
L 464.325153 47.516493 
L 464.538375 47.386302 
L 464.750923 47.513954 
L 464.962802 47.387632 
L 465.174015 47.512624 
L 465.384567 47.388236 
L 465.594463 47.509602 
L 465.803705 47.389324 
L 466.012299 47.504888 
L 466.220248 47.391258 
L 466.427556 47.498481 
L 466.634228 47.392104 
L 466.840266 47.493646 
L 467.045675 47.391258 
L 467.250459 47.488206 
L 467.454621 47.389566 
L 467.658166 47.481678 
L 467.861096 47.384489 
L 468.063416 47.476601 
L 468.26513 47.38328 
L 468.46624 47.469348 
L 468.666752 47.380862 
L 468.866667 47.462821 
L 469.06599 47.378445 
L 469.264724 47.455568 
L 469.462873 47.377236 
L 469.660439 47.450491 
L 469.857427 47.376269 
L 470.053841 47.448073 
L 470.249682 47.379533 
L 470.444955 47.443359 
L 470.639662 47.380862 
L 471.027395 47.3805 
L 471.604836 47.430303 
L 472.177362 47.37917 
L 472.745057 47.418336 
L 473.308001 47.369016 
L 473.866273 47.412534 
L 474.419951 47.359829 
L 474.969108 47.404676 
L 475.513819 47.34629 
L 476.054155 47.392709 
L 476.590185 47.341213 
L 477.121978 47.387269 
L 477.649599 47.337949 
L 478.173115 47.383038 
L 478.692588 47.336619 
L 479.208081 47.379895 
L 479.719653 47.329729 
L 480.227364 47.370467 
L 480.731272 47.321509 
L 481.231434 47.357169 
L 481.727904 47.318971 
L 482.220738 47.351488 
L 482.709987 47.322114 
L 483.517576 47.339521 
L 484.315586 47.312443 
L 485.10424 47.335652 
L 485.573033 47.303739 
L 486.038581 47.340488 
L 486.500929 47.305915 
L 486.960122 47.351851 
L 487.416201 47.308575 
L 487.869209 47.370225 
L 488.019536 47.308333 
L 488.169528 47.377236 
L 488.319187 47.305915 
L 488.468513 47.380862 
L 488.617508 47.305674 
L 488.766175 47.385698 
L 488.914513 47.304465 
L 489.062525 47.389566 
L 489.210212 47.301684 
L 489.357576 47.3915 
L 489.504617 47.297333 
L 489.651338 47.395006 
L 489.797739 47.290684 
L 489.943823 47.39694 
L 490.08959 47.286091 
L 490.235041 47.398995 
L 490.380179 47.284761 
L 490.525005 47.399237 
L 490.669519 47.28186 
L 490.813724 47.400445 
L 490.95762 47.280893 
L 491.101209 47.399237 
L 491.244492 47.28331 
L 491.387471 47.398874 
L 491.530146 47.28186 
L 491.67252 47.397544 
L 491.814593 47.28053 
L 491.956366 47.398269 
L 492.097841 47.279442 
L 492.239019 47.399357 
L 492.379902 47.282222 
L 492.52049 47.400204 
L 492.660785 47.282464 
L 492.800788 47.403105 
L 492.940501 47.284156 
L 493.079923 47.40661 
L 493.219058 47.286332 
L 493.357905 47.411446 
L 493.496466 47.289596 
L 493.634742 47.415193 
L 493.772735 47.29286 
L 493.910445 47.415677 
L 494.047874 47.292014 
L 494.185023 47.413259 
L 494.321893 47.295399 
L 494.458484 47.41205 
L 494.594799 47.294311 
L 494.730839 47.407698 
L 494.866604 47.296366 
L 495.002095 47.402863 
L 495.137314 47.295761 
L 495.272262 47.398269 
L 495.406939 47.299146 
L 495.541348 47.395973 
L 495.675488 47.302168 
L 495.809362 47.39017 
L 495.942969 47.307003 
L 496.076312 47.388115 
L 496.209391 47.312201 
L 496.342208 47.383038 
L 496.474762 47.316311 
L 496.73909 47.320542 
L 497.133645 47.378203 
L 497.5259 47.32985 
L 497.91588 47.366961 
L 498.432362 47.356928 
L 499.45358 47.339037 
L 500.084057 47.364422 
L 500.459526 47.324773 
L 500.832912 47.363697 
L 501.204236 47.320905 
L 501.573522 47.365389 
L 501.940792 47.330575 
L 502.427387 47.337466 
L 503.390143 47.347015 
L 506.541332 47.329608 
L 506.882524 47.380137 
L 507.221993 47.331663 
L 507.559759 47.380621 
L 507.895836 47.33396 
L 508.230243 47.37917 
L 508.562996 47.329246 
L 508.894112 47.37917 
L 509.223605 47.333114 
L 509.551492 47.379412 
L 509.877789 47.342301 
L 510.202511 47.38195 
L 510.525673 47.351125 
L 511.060851 47.377599 
L 511.591804 47.346169 
L 511.908376 47.380862 
L 512.223465 47.344598 
L 512.537085 47.387874 
L 512.84925 47.337345 
L 513.159974 47.384731 
L 513.469268 47.336378 
L 513.777147 47.382434 
L 514.083623 47.335652 
L 514.38871 47.384005 
L 514.692419 47.340488 
L 514.994763 47.390775 
L 515.295754 47.345202 
L 515.595404 47.391017 
L 515.893726 47.34907 
L 516.190731 47.379533 
L 516.584708 47.372884 
L 517.365807 47.349917 
L 517.849429 47.373609 
L 518.137941 47.34085 
L 518.425222 47.381104 
L 518.711281 47.341455 
L 518.996129 47.395006 
L 519.279775 47.340246 
L 519.562231 47.405281 
L 519.843506 47.339883 
L 519.937003 47.409512 
L 520.030371 47.340004 
L 520.123609 47.410962 
L 520.216718 47.339883 
L 520.309699 47.41338 
L 520.402551 47.340367 
L 520.495275 47.414468 
L 520.587872 47.340488 
L 520.680341 47.416644 
L 520.772684 47.339279 
L 520.8649 47.417611 
L 520.956989 47.339279 
L 521.048953 47.417611 
L 521.140791 47.340367 
L 521.232504 47.415314 
L 521.324092 47.340004 
L 521.415555 47.411446 
L 521.506895 47.339883 
L 521.59811 47.410116 
L 521.780171 47.40661 
L 522.052342 47.335048 
L 522.323416 47.402863 
L 522.593402 47.331542 
L 522.862309 47.395006 
L 523.130145 47.332509 
L 523.396919 47.389687 
L 523.662639 47.344114 
L 523.927314 47.387269 
L 524.190952 47.358257 
L 524.540869 47.360796 
L 524.975721 47.385698 
L 525.23529 47.350642 
L 525.493861 47.398511 
L 525.751441 47.334081 
L 525.837083 47.409995 
L 525.922616 47.331784 
L 526.00804 47.414709 
L 526.093355 47.329246 
L 526.178563 47.419545 
L 526.263663 47.328762 
L 526.348655 47.42305 
L 526.43354 47.328158 
L 526.518318 47.425589 
L 526.60299 47.32441 
L 526.687555 47.427886 
L 526.772014 47.323081 
L 526.856366 47.430424 
L 526.940614 47.322476 
L 527.024756 47.431875 
L 527.108792 47.322114 
L 527.192724 47.433567 
L 527.276552 47.321509 
L 527.360275 47.434655 
L 527.443894 47.320905 
L 527.527409 47.434292 
L 527.61082 47.321872 
L 527.694129 47.436106 
L 527.777334 47.322355 
L 527.860436 47.436227 
L 527.943436 47.323443 
L 528.026334 47.432842 
L 528.109129 47.324773 
L 528.191823 47.43115 
L 528.274416 47.32441 
L 528.356907 47.426314 
L 528.439297 47.327795 
L 528.521586 47.422083 
L 528.603775 47.328883 
L 528.685863 47.416764 
L 528.767851 47.330092 
L 528.84974 47.41338 
L 528.931529 47.333114 
L 529.094809 47.339279 
L 529.338989 47.405764 
L 529.582285 47.358378 
L 529.824705 47.402742 
L 530.066255 47.369016 
L 530.30694 47.397423 
L 530.706178 47.37506 
L 531.654792 47.392467 
L 532.046133 47.36273 
L 532.435212 47.387148 
L 532.667583 47.352455 
L 532.899154 47.383038 
L 533.129931 47.34907 
L 533.512809 47.368895 
L 533.89352 47.337345 
L 534.272088 47.364422 
L 534.723576 47.369258 
L 538.656143 47.310871 
L 538.868022 47.400929 
L 538.9385 47.305432 
L 539.008904 47.405281 
L 539.079235 47.302772 
L 539.149492 47.413017 
L 539.219677 47.302168 
L 539.289787 47.422083 
L 539.359825 47.303981 
L 539.429791 47.428248 
L 539.499683 47.303498 
L 539.569503 47.435622 
L 539.63925 47.302531 
L 539.708925 47.440941 
L 539.778529 47.298662 
L 539.84806 47.446622 
L 539.917519 47.296003 
L 539.986907 47.449161 
L 540.056223 47.293464 
L 540.125468 47.450732 
L 540.194642 47.29153 
L 540.263745 47.453029 
L 540.332776 47.289475 
L 540.401737 47.452062 
L 540.470628 47.288629 
L 540.539448 47.450128 
L 540.608197 47.285728 
L 540.676876 47.450491 
L 540.745486 47.284156 
L 540.814025 47.4517 
L 540.882495 47.283915 
L 540.950895 47.450732 
L 541.019225 47.285124 
L 541.087487 47.451579 
L 541.155679 47.286211 
L 541.223802 47.453634 
L 541.291856 47.288025 
L 541.359841 47.454601 
L 541.427758 47.292135 
L 541.495606 47.458711 
L 541.563386 47.297212 
L 541.631097 47.458711 
L 541.698741 47.298783 
L 541.766316 47.457985 
L 541.833824 47.301564 
L 541.901264 47.454963 
L 541.968636 47.302168 
L 541.968636 47.302168 
" clip-path="url(#pcfeb579848)" style="fill: none; stroke: #4b0082; stroke-width: 1.5; stroke-linecap: square"/>
    <defs>
     <path id="m48ae561590" d="M -3 3 
L 3 3 
L 3 -3 
L -3 -3 
z
" style="stroke: #4b0082; stroke-linejoin: miter"/>
    </defs>
    <g clip-path="url(#pcfeb579848)">
     <use xlink:href="#m48ae561590" x="-1" y="284.532322" style="fill: #4b0082; stroke: #4b0082; stroke-linejoin: miter"/>
     <use xlink:href="#m48ae561590" x="77.341364" y="284.523663" style="fill: #4b0082; stroke: #4b0082; stroke-linejoin: miter"/>
     <use xlink:href="#m48ae561590" x="151.246584" y="260.041224" style="fill: #4b0082; stroke: #4b0082; stroke-linejoin: miter"/>
     <use xlink:href="#m48ae561590" x="197.875586" y="225.801033" style="fill: #4b0082; stroke: #4b0082; stroke-linejoin: miter"/>
     <use xlink:href="#m48ae561590" x="232.239556" y="187.121557" style="fill: #4b0082; stroke: #4b0082; stroke-linejoin: miter"/>
     <use xlink:href="#m48ae561590" x="271.780806" y="134.871697" style="fill: #4b0082; stroke: #4b0082; stroke-linejoin: miter"/>
     <use xlink:href="#m48ae561590" x="308.350595" y="92.600804" style="fill: #4b0082; stroke: #4b0082; stroke-linejoin: miter"/>
     <use xlink:href="#m48ae561590" x="357.115377" y="60.72459" style="fill: #4b0082; stroke: #4b0082; stroke-linejoin: miter"/>
     <use xlink:href="#m48ae561590" x="413.963989" y="49.337224" style="fill: #4b0082; stroke: #4b0082; stroke-linejoin: miter"/>
     <use xlink:href="#m48ae561590" x="470.444955" y="47.443359" style="fill: #4b0082; stroke: #4b0082; stroke-linejoin: miter"/>
     <use xlink:href="#m48ae561590" x="523.927314" y="47.387269" style="fill: #4b0082; stroke: #4b0082; stroke-linejoin: miter"/>
    </g>
   </g>
   <g id="line2d_3">
    <path d="M -1 284.532322 
L 77.341364 284.523663 
L 123.970366 264.052707 
L 151.246584 248.152799 
L 170.599368 234.150262 
L 185.610554 221.379638 
L 197.875586 209.691757 
L 208.245523 199.02763 
L 217.22837 189.212702 
L 225.151804 180.193543 
L 238.651208 164.251205 
L 259.515774 139.282093 
L 267.935678 129.435131 
L 275.417985 120.937821 
L 282.150743 113.567378 
L 288.270544 107.131114 
L 293.879744 101.487113 
L 299.057024 96.53601 
L 303.86417 92.183397 
L 308.350595 88.347072 
L 312.556428 84.950155 
L 318.409808 80.546166 
L 323.794396 76.820811 
L 328.779745 73.660945 
L 333.420994 70.92876 
L 339.149682 67.857016 
L 346.920399 64.175542 
L 356.055963 60.49854 
L 361.193682 58.752514 
L 364.097936 57.780378 
L 366.881979 56.990532 
L 369.555367 56.178444 
L 370.423398 56.002439 
L 371.28037 55.71208 
L 372.126563 55.556504 
L 372.962244 55.273276 
L 373.78767 55.136437 
L 374.603092 54.860342 
L 375.408747 54.741635 
L 376.204868 54.473881 
L 376.991677 54.371735 
L 377.76939 54.108211 
L 378.538215 54.020693 
L 379.298352 53.764422 
L 380.049996 53.690563 
L 380.793335 53.442028 
L 381.528549 53.375785 
L 382.255815 53.137042 
L 382.975302 53.076359 
L 383.687176 52.852122 
L 384.391595 52.792285 
L 385.088714 52.5834 
L 385.778684 52.522717 
L 386.461648 52.330031 
L 387.137749 52.267414 
L 388.4699 52.02577 
L 390.419933 51.647045 
L 392.315028 51.378324 
L 394.158196 51.065359 
L 397.122175 50.653633 
L 401.063888 50.120058 
L 414.860955 48.655689 
L 416.18437 48.597061 
L 417.482251 48.449584 
L 418.755565 48.402682 
L 420.005225 48.265359 
L 421.232094 48.226072 
L 422.436988 48.103739 
L 423.62068 48.066991 
L 424.783903 47.967626 
L 426.678999 47.87237 
L 431.717717 47.598693 
L 433.42955 47.552274 
L 434.436124 47.47092 
L 435.427858 47.472975 
L 436.405185 47.385335 
L 437.368515 47.397786 
L 438.318245 47.308937 
L 439.254754 47.327311 
L 440.178403 47.249584 
L 441.089543 47.261551 
L 441.988506 47.197363 
L 442.875615 47.201231 
L 443.751177 47.145867 
L 445.18559 47.132812 
L 446.590055 47.072975 
L 447.965797 47.064392 
L 449.313967 47.005885 
L 450.635649 47.001896 
L 451.41637 46.94762 
L 452.188135 46.973005 
L 452.951146 46.905069 
L 453.203572 46.95729 
L 453.455055 46.893464 
L 453.7056 46.948708 
L 453.955216 46.88331 
L 454.203909 46.940488 
L 454.451687 46.870497 
L 454.698555 46.931784 
L 454.94452 46.860584 
L 455.189589 46.921751 
L 455.433769 46.851881 
L 455.677065 46.913531 
L 455.919485 46.84221 
L 456.161035 46.906278 
L 456.40172 46.836408 
L 456.641547 46.8983 
L 456.880522 46.830847 
L 457.118651 46.892256 
L 457.35594 46.826375 
L 457.592396 46.884277 
L 457.828023 46.822023 
L 458.062827 46.878475 
L 458.762363 46.813199 
L 459.454699 46.860584 
L 460.139983 46.799781 
L 460.818356 46.835441 
L 461.489957 46.789022 
L 462.154919 46.808968 
L 463.248787 46.779593 
L 474.603502 46.679019 
L 475.874525 46.655205 
L 476.767917 46.678777 
L 477.298312 46.646018 
L 477.824558 46.671524 
L 478.519876 46.665238 
L 479.379037 46.640337 
L 480.731272 46.646139 
L 483.837917 46.620754 
L 484.632158 46.648073 
L 485.10424 46.614105 
L 485.573033 46.639853 
L 486.347166 46.613984 
L 487.416201 46.623655 
L 499.45358 46.629457 
L 499.832575 46.58594 
L 500.209446 46.632479 
L 500.584219 46.580137 
L 500.956914 46.634293 
L 501.327557 46.574093 
L 501.450652 46.638161 
L 501.573522 46.575544 
L 501.696168 46.640095 
L 501.818591 46.577236 
L 501.940792 46.641787 
L 502.062771 46.578445 
L 502.184529 46.645535 
L 502.306068 46.580742 
L 502.427387 46.647831 
L 502.548487 46.581104 
L 502.669371 46.648798 
L 502.790037 46.582555 
L 502.910487 46.648919 
L 503.030722 46.584489 
L 503.150742 46.648798 
L 503.270549 46.585093 
L 503.509524 46.58739 
L 503.866403 46.643963 
L 504.221398 46.595731 
L 504.57453 46.637194 
L 504.925817 46.600566 
L 505.27528 46.630666 
L 505.622937 46.599962 
L 506.198401 46.620028 
L 506.882524 46.614589 
L 508.118959 46.607336 
L 509.986204 46.622325 
L 510.525673 46.590775 
L 510.84729 46.61749 
L 511.379925 46.589082 
L 511.908376 46.615677 
L 512.432708 46.596577 
L 513.159974 46.608182 
L 514.591335 46.581104 
L 514.894132 46.613984 
L 515.195573 46.574939 
L 515.495669 46.616885 
L 515.794432 46.569258 
L 516.091875 46.618094 
L 516.388008 46.569137 
L 516.682843 46.617853 
L 516.976391 46.572401 
L 517.268664 46.61205 
L 517.559673 46.57772 
L 517.945737 46.583038 
L 518.711281 46.592225 
L 519.937003 46.572642 
L 520.216718 46.614226 
L 520.495275 46.573489 
L 520.772684 46.620391 
L 521.048953 46.579775 
L 521.324092 46.618578 
L 521.59811 46.580137 
L 521.871017 46.610116 
L 522.323416 46.587632 
L 523.219187 46.587148 
L 541.968636 46.605764 
L 541.968636 46.605764 
" clip-path="url(#pcfeb579848)" style="fill: none; stroke: #1f77b4; stroke-width: 1.5; stroke-linecap: square"/>
    <defs>
     <path id="m2939bdc6a7" d="M -0 3 
L 3 -3 
L -3 -3 
z
" style="stroke: #1f77b4; stroke-linejoin: miter"/>
    </defs>
    <g clip-path="url(#pcfeb579848)">
     <use xlink:href="#m2939bdc6a7" x="-1" y="284.532322" style="fill: #1f77b4; stroke: #1f77b4; stroke-linejoin: miter"/>
     <use xlink:href="#m2939bdc6a7" x="77.341364" y="284.523663" style="fill: #1f77b4; stroke: #1f77b4; stroke-linejoin: miter"/>
     <use xlink:href="#m2939bdc6a7" x="151.246584" y="248.152799" style="fill: #1f77b4; stroke: #1f77b4; stroke-linejoin: miter"/>
     <use xlink:href="#m2939bdc6a7" x="185.610554" y="221.379638" style="fill: #1f77b4; stroke: #1f77b4; stroke-linejoin: miter"/>
     <use xlink:href="#m2939bdc6a7" x="232.239556" y="171.879128" style="fill: #1f77b4; stroke: #1f77b4; stroke-linejoin: miter"/>
     <use xlink:href="#m2939bdc6a7" x="267.935678" y="129.435131" style="fill: #1f77b4; stroke: #1f77b4; stroke-linejoin: miter"/>
     <use xlink:href="#m2939bdc6a7" x="310.486375" y="86.59476" style="fill: #1f77b4; stroke: #1f77b4; stroke-linejoin: miter"/>
     <use xlink:href="#m2939bdc6a7" x="361.193682" y="58.752514" style="fill: #1f77b4; stroke: #1f77b4; stroke-linejoin: miter"/>
     <use xlink:href="#m2939bdc6a7" x="418.333799" y="48.385275" style="fill: #1f77b4; stroke: #1f77b4; stroke-linejoin: miter"/>
     <use xlink:href="#m2939bdc6a7" x="476.411982" y="46.678052" style="fill: #1f77b4; stroke: #1f77b4; stroke-linejoin: miter"/>
     <use xlink:href="#m2939bdc6a7" x="533.053094" y="46.570104" style="fill: #1f77b4; stroke: #1f77b4; stroke-linejoin: miter"/>
    </g>
   </g>
   <g id="line2d_4">
    <path d="M -1 284.532322 
L 77.341364 284.523663 
L 123.970366 272.322999 
L 151.246584 256.11194 
L 170.599368 246.431917 
L 185.610554 228.988824 
L 197.875586 225.607017 
L 208.245523 206.859361 
L 217.22837 200.568881 
L 225.151804 185.222252 
L 232.239556 177.492183 
L 238.651208 164.007506 
L 244.504588 155.77916 
L 249.889176 142.781277 
L 254.874525 139.649213 
L 259.515774 126.834708 
L 263.857373 123.314974 
L 267.935678 112.784664 
L 271.780806 108.02371 
L 275.417985 100.230661 
L 278.868558 94.801831 
L 282.150743 88.383458 
L 285.280211 83.951424 
L 288.270544 78.63429 
L 291.13359 75.095819 
L 293.879744 71.075269 
L 296.518178 67.84384 
L 299.057024 65.118909 
L 301.503527 62.950278 
L 303.86417 61.165086 
L 306.144776 59.718244 
L 310.486375 57.400203 
L 318.409808 53.665782 
L 323.794396 50.933114 
L 327.158668 49.528339 
L 330.362675 48.604434 
L 333.420994 48.007517 
L 337.762593 47.468865 
L 341.840898 47.194462 
L 346.920399 47.10102 
L 432.407686 46.862156 
L 541.968636 46.302228 
L 541.968636 46.302228 
" clip-path="url(#pcfeb579848)" style="fill: none; stroke: #ff7f0e; stroke-width: 1.5; stroke-linecap: square"/>
    <defs>
     <path id="m3d50571549" d="M -0 3 
L 3 -3 
L -3 -3 
z
" style="stroke: #ff7f0e; stroke-linejoin: miter"/>
    </defs>
    <g clip-path="url(#pcfeb579848)">
     <use xlink:href="#m3d50571549" x="-1" y="284.532322" style="fill: #ff7f0e; stroke: #ff7f0e; stroke-linejoin: miter"/>
     <use xlink:href="#m3d50571549" x="77.341364" y="284.523663" style="fill: #ff7f0e; stroke: #ff7f0e; stroke-linejoin: miter"/>
     <use xlink:href="#m3d50571549" x="151.246584" y="256.11194" style="fill: #ff7f0e; stroke: #ff7f0e; stroke-linejoin: miter"/>
     <use xlink:href="#m3d50571549" x="197.875586" y="225.607017" style="fill: #ff7f0e; stroke: #ff7f0e; stroke-linejoin: miter"/>
     <use xlink:href="#m3d50571549" x="225.151804" y="185.222252" style="fill: #ff7f0e; stroke: #ff7f0e; stroke-linejoin: miter"/>
     <use xlink:href="#m3d50571549" x="259.515774" y="126.834708" style="fill: #ff7f0e; stroke: #ff7f0e; stroke-linejoin: miter"/>
     <use xlink:href="#m3d50571549" x="285.280211" y="83.951424" style="fill: #ff7f0e; stroke: #ff7f0e; stroke-linejoin: miter"/>
     <use xlink:href="#m3d50571549" x="331.909213" y="48.273096" style="fill: #ff7f0e; stroke: #ff7f0e; stroke-linejoin: miter"/>
     <use xlink:href="#m3d50571549" x="391.057582" y="47.017369" style="fill: #ff7f0e; stroke: #ff7f0e; stroke-linejoin: miter"/>
     <use xlink:href="#m3d50571549" x="449.84576" y="46.768351" style="fill: #ff7f0e; stroke: #ff7f0e; stroke-linejoin: miter"/>
     <use xlink:href="#m3d50571549" x="508.452262" y="46.424924" style="fill: #ff7f0e; stroke: #ff7f0e; stroke-linejoin: miter"/>
    </g>
   </g>
   <g id="line2d_5">
    <path d="M -1 284.532322 
L 77.341364 284.523663 
L 123.970366 272.322999 
L 151.246584 256.11194 
L 170.599368 246.431917 
L 185.610554 228.843765 
L 197.875586 227.676524 
L 208.245523 205.633129 
L 217.22837 204.408107 
L 225.151804 186.006658 
L 232.239556 181.551778 
L 238.651208 164.887893 
L 244.504588 165.718234 
L 249.889176 146.981458 
L 254.874525 148.491763 
L 259.515774 131.583937 
L 263.857373 131.635191 
L 267.935678 118.231506 
L 271.780806 118.006906 
L 275.417985 104.886327 
L 278.868558 105.546103 
L 282.150743 94.395424 
L 285.280211 94.010051 
L 288.270544 85.190711 
L 291.13359 84.336676 
L 293.879744 77.398629 
L 296.518178 76.302951 
L 299.057024 71.4274 
L 301.503527 69.285847 
L 303.86417 66.115705 
L 306.144776 63.795729 
L 310.486375 59.744959 
L 312.556428 58.114255 
L 314.56468 56.720964 
L 316.514713 55.541514 
L 320.252976 53.730575 
L 323.794396 52.482705 
L 328.779745 51.148526 
L 341.840898 47.875634 
L 345.686026 47.313773 
L 349.323205 46.993313 
L 353.885728 46.851035 
L 401.063888 46.773791 
L 466.012299 46.590775 
L 541.968636 46.32024 
L 541.968636 46.32024 
" clip-path="url(#pcfeb579848)" style="fill: none; stroke: #2ca02c; stroke-width: 1.5; stroke-linecap: square"/>
    <defs>
     <path id="mdce37f4ccc" d="M -0 3 
L 3 -3 
L -3 -3 
z
" style="stroke: #2ca02c; stroke-linejoin: miter"/>
    </defs>
    <g clip-path="url(#pcfeb579848)">
     <use xlink:href="#mdce37f4ccc" x="-1" y="284.532322" style="fill: #2ca02c; stroke: #2ca02c; stroke-linejoin: miter"/>
     <use xlink:href="#mdce37f4ccc" x="77.341364" y="284.523663" style="fill: #2ca02c; stroke: #2ca02c; stroke-linejoin: miter"/>
     <use xlink:href="#mdce37f4ccc" x="151.246584" y="256.11194" style="fill: #2ca02c; stroke: #2ca02c; stroke-linejoin: miter"/>
     <use xlink:href="#mdce37f4ccc" x="197.875586" y="227.676524" style="fill: #2ca02c; stroke: #2ca02c; stroke-linejoin: miter"/>
     <use xlink:href="#mdce37f4ccc" x="225.151804" y="186.006658" style="fill: #2ca02c; stroke: #2ca02c; stroke-linejoin: miter"/>
     <use xlink:href="#mdce37f4ccc" x="254.874525" y="148.491763" style="fill: #2ca02c; stroke: #2ca02c; stroke-linejoin: miter"/>
     <use xlink:href="#mdce37f4ccc" x="278.868558" y="105.546103" style="fill: #2ca02c; stroke: #2ca02c; stroke-linejoin: miter"/>
     <use xlink:href="#mdce37f4ccc" x="314.56468" y="56.720964" style="fill: #2ca02c; stroke: #2ca02c; stroke-linejoin: miter"/>
     <use xlink:href="#mdce37f4ccc" x="371.28037" y="46.825045" style="fill: #2ca02c; stroke: #2ca02c; stroke-linejoin: miter"/>
     <use xlink:href="#mdce37f4ccc" x="429.604304" y="46.706822" style="fill: #2ca02c; stroke: #2ca02c; stroke-linejoin: miter"/>
     <use xlink:href="#mdce37f4ccc" x="488.468513" y="46.504707" style="fill: #2ca02c; stroke: #2ca02c; stroke-linejoin: miter"/>
    </g>
   </g>
   <g id="line2d_6">
    <path d="M -1 284.532322 
L 77.341364 284.523663 
L 123.970366 272.322999 
L 151.246584 256.11194 
L 170.599368 246.431917 
L 185.610554 228.843765 
L 197.875586 228.191967 
L 208.245523 208.546396 
L 217.22837 203.126995 
L 225.151804 183.88916 
L 232.239556 181.890732 
L 238.651208 161.454832 
L 244.504588 164.139872 
L 249.889176 148.438333 
L 254.874525 143.09267 
L 259.515774 134.033499 
L 263.857373 122.598988 
L 267.935678 127.119991 
L 271.780806 110.823347 
L 275.417985 111.040572 
L 278.868558 99.437914 
L 282.150743 98.919933 
L 285.280211 89.498961 
L 288.270544 88.225827 
L 291.13359 80.917154 
L 293.879744 79.723803 
L 296.518178 74.115946 
L 299.057024 72.101803 
L 301.503527 68.006548 
L 303.86417 65.97669 
L 306.144776 63.181888 
L 308.350595 61.316793 
L 310.486375 59.361399 
L 314.56468 56.347075 
L 318.409808 54.038704 
L 322.046987 52.244809 
L 325.497561 50.956323 
L 328.779745 50.061189 
L 331.909213 49.457864 
L 337.762593 48.666689 
L 345.686026 47.762609 
L 352.773778 47.188055 
L 358.158366 46.954994 
L 365.966707 46.910146 
L 483.997517 46.549796 
L 541.968636 46.343933 
L 541.968636 46.343933 
" clip-path="url(#pcfeb579848)" style="fill: none; stroke: #d62728; stroke-width: 1.5; stroke-linecap: square"/>
    <defs>
     <path id="m2d455c52ce" d="M -0 3 
L 3 -3 
L -3 -3 
z
" style="stroke: #d62728; stroke-linejoin: miter"/>
    </defs>
    <g clip-path="url(#pcfeb579848)">
     <use xlink:href="#m2d455c52ce" x="-1" y="284.532322" style="fill: #d62728; stroke: #d62728; stroke-linejoin: miter"/>
     <use xlink:href="#m2d455c52ce" x="77.341364" y="284.523663" style="fill: #d62728; stroke: #d62728; stroke-linejoin: miter"/>
     <use xlink:href="#m2d455c52ce" x="151.246584" y="256.11194" style="fill: #d62728; stroke: #d62728; stroke-linejoin: miter"/>
     <use xlink:href="#m2d455c52ce" x="197.875586" y="228.191967" style="fill: #d62728; stroke: #d62728; stroke-linejoin: miter"/>
     <use xlink:href="#m2d455c52ce" x="225.151804" y="183.88916" style="fill: #d62728; stroke: #d62728; stroke-linejoin: miter"/>
     <use xlink:href="#m2d455c52ce" x="254.874525" y="143.09267" style="fill: #d62728; stroke: #d62728; stroke-linejoin: miter"/>
     <use xlink:href="#m2d455c52ce" x="278.868558" y="99.437914" style="fill: #d62728; stroke: #d62728; stroke-linejoin: miter"/>
     <use xlink:href="#m2d455c52ce" x="312.556428" y="57.83405" style="fill: #d62728; stroke: #d62728; stroke-linejoin: miter"/>
     <use xlink:href="#m2d455c52ce" x="369.555367" y="46.90241" style="fill: #d62728; stroke: #d62728; stroke-linejoin: miter"/>
     <use xlink:href="#m2d455c52ce" x="428.522167" y="46.748647" style="fill: #d62728; stroke: #d62728; stroke-linejoin: miter"/>
     <use xlink:href="#m2d455c52ce" x="487.264518" y="46.53662" style="fill: #d62728; stroke: #d62728; stroke-linejoin: miter"/>
    </g>
   </g>
   <g id="line2d_7">
    <path d="M -1 284.53208 
L 77.341364 284.523421 
L 123.970366 274.265701 
L 151.246584 260.848597 
L 170.599368 251.674588 
L 185.610554 238.130437 
L 197.875586 232.411489 
L 208.245523 215.995413 
L 217.22837 209.495444 
L 225.151804 188.896111 
L 232.239556 183.049874 
L 238.651208 178.95341 
L 244.504588 151.454833 
L 249.889176 152.741505 
L 254.874525 148.425519 
L 259.515774 144.02552 
L 263.857373 119.164476 
L 267.935678 117.297326 
L 271.780806 114.408478 
L 275.417985 112.652177 
L 278.868558 97.419057 
L 282.150743 95.370946 
L 285.280211 83.43308 
L 288.270544 84.005579 
L 291.13359 77.62335 
L 293.879744 75.346529 
L 296.518178 71.479258 
L 299.057024 67.310507 
L 301.503527 64.168773 
L 303.86417 61.423049 
L 308.350595 56.798329 
L 310.486375 54.947619 
L 312.556428 54.650248 
L 314.56468 52.789868 
L 316.514713 51.142965 
L 322.046987 48.397967 
L 323.794396 48.303679 
L 327.158668 46.361703 
L 328.779745 46.376813 
L 331.909213 44.835562 
L 333.420994 44.318427 
L 334.899547 45.038161 
L 343.14718 44.667294 
L 344.428579 44.494432 
L 345.686026 44.000627 
L 346.920399 43.946109 
L 348.132529 43.574033 
L 352.773778 42.908333 
L 358.158366 42.771374 
L 371.28037 42.545686 
L 372.126563 42.38044 
L 372.962244 42.495762 
L 387.137749 42.210963 
L 394.158196 42.092256 
L 394.761532 41.206792 
L 395.359504 42.077267 
L 401.608599 41.961099 
L 410.726938 41.807941 
L 413.510981 41.732268 
L 462.594603 40.739823 
L 462.813372 40.594644 
L 463.031432 40.733417 
L 464.111253 40.71746 
L 464.538375 40.705251 
L 464.750923 40.556928 
L 464.962802 40.681075 
L 467.250459 40.65303 
L 480.395753 40.450914 
L 483.356832 40.408364 
L 483.517576 40.123686 
L 483.837917 40.331724 
L 483.997517 40.383462 
L 484.315586 40.328823 
L 489.357576 40.325801 
L 501.573522 40.201413 
L 501.696168 39.964 
L 501.818591 40.182072 
L 503.150742 40.187149 
L 513.98162 40.101081 
L 531.26116 40.007276 
L 541.968636 39.977297 
L 541.968636 39.977297 
" clip-path="url(#pcfeb579848)" style="fill: none; stroke: #ff0000; stroke-width: 1.5; stroke-linecap: square"/>
   </g>
   <g id="matplotlib.axis_1">
    <g id="xtick_1">
     <g id="line2d_8">
      <path d="M 77.341364 314.728 
L 77.341364 26.88 
" clip-path="url(#pcfeb579848)" style="fill: none; stroke: #b0b0b0; stroke-opacity: 0.3; stroke-width: 0.8; stroke-linecap: square"/>
     </g>
     <g id="line2d_9">
      <defs>
       <path id="m3affadabac" d="M 0 0 
L 0 3.5 
" style="stroke: #000000; stroke-width: 0.8"/>
      </defs>
      <g>
       <use xlink:href="#m3affadabac" x="77.341364" y="314.728" style="stroke: #000000; stroke-width: 0.8"/>
      </g>
     </g>
     <g id="text_1">
      <!-- $\mathdefault{10^{0}}$ -->
      <g transform="translate(68.541364 329.326437) scale(0.1 -0.1)">
       <defs>
        <path id="DejaVuSans-31" d="M 794 531 
L 1825 531 
L 1825 4091 
L 703 3866 
L 703 4441 
L 1819 4666 
L 2450 4666 
L 2450 531 
L 3481 531 
L 3481 0 
L 794 0 
L 794 531 
z
" transform="scale(0.015625)"/>
        <path id="DejaVuSans-30" d="M 2034 4250 
Q 1547 4250 1301 3770 
Q 1056 3291 1056 2328 
Q 1056 1369 1301 889 
Q 1547 409 2034 409 
Q 2525 409 2770 889 
Q 3016 1369 3016 2328 
Q 3016 3291 2770 3770 
Q 2525 4250 2034 4250 
z
M 2034 4750 
Q 2819 4750 3233 4129 
Q 3647 3509 3647 2328 
Q 3647 1150 3233 529 
Q 2819 -91 2034 -91 
Q 1250 -91 836 529 
Q 422 1150 422 2328 
Q 422 3509 836 4129 
Q 1250 4750 2034 4750 
z
" transform="scale(0.015625)"/>
       </defs>
       <use xlink:href="#DejaVuSans-31" transform="translate(0 0.765625)"/>
       <use xlink:href="#DejaVuSans-30" transform="translate(63.623047 0.765625)"/>
       <use xlink:href="#DejaVuSans-30" transform="translate(128.203125 39.046875) scale(0.7)"/>
      </g>
     </g>
    </g>
    <g id="xtick_2">
     <g id="line2d_10">
      <path d="M 232.239556 314.728 
L 232.239556 26.88 
" clip-path="url(#pcfeb579848)" style="fill: none; stroke: #b0b0b0; stroke-opacity: 0.3; stroke-width: 0.8; stroke-linecap: square"/>
     </g>
     <g id="line2d_11">
      <g>
       <use xlink:href="#m3affadabac" x="232.239556" y="314.728" style="stroke: #000000; stroke-width: 0.8"/>
      </g>
     </g>
     <g id="text_2">
      <!-- $\mathdefault{10^{1}}$ -->
      <g transform="translate(223.439556 329.326437) scale(0.1 -0.1)">
       <use xlink:href="#DejaVuSans-31" transform="translate(0 0.684375)"/>
       <use xlink:href="#DejaVuSans-30" transform="translate(63.623047 0.684375)"/>
       <use xlink:href="#DejaVuSans-31" transform="translate(128.203125 38.965625) scale(0.7)"/>
      </g>
     </g>
    </g>
    <g id="xtick_3">
     <g id="line2d_12">
      <path d="M 387.137749 314.728 
L 387.137749 26.88 
" clip-path="url(#pcfeb579848)" style="fill: none; stroke: #b0b0b0; stroke-opacity: 0.3; stroke-width: 0.8; stroke-linecap: square"/>
     </g>
     <g id="line2d_13">
      <g>
       <use xlink:href="#m3affadabac" x="387.137749" y="314.728" style="stroke: #000000; stroke-width: 0.8"/>
      </g>
     </g>
     <g id="text_3">
      <!-- $\mathdefault{10^{2}}$ -->
      <g transform="translate(378.337749 329.326437) scale(0.1 -0.1)">
       <defs>
        <path id="DejaVuSans-32" d="M 1228 531 
L 3431 531 
L 3431 0 
L 469 0 
L 469 531 
Q 828 903 1448 1529 
Q 2069 2156 2228 2338 
Q 2531 2678 2651 2914 
Q 2772 3150 2772 3378 
Q 2772 3750 2511 3984 
Q 2250 4219 1831 4219 
Q 1534 4219 1204 4116 
Q 875 4013 500 3803 
L 500 4441 
Q 881 4594 1212 4672 
Q 1544 4750 1819 4750 
Q 2544 4750 2975 4387 
Q 3406 4025 3406 3419 
Q 3406 3131 3298 2873 
Q 3191 2616 2906 2266 
Q 2828 2175 2409 1742 
Q 1991 1309 1228 531 
z
" transform="scale(0.015625)"/>
       </defs>
       <use xlink:href="#DejaVuSans-31" transform="translate(0 0.765625)"/>
       <use xlink:href="#DejaVuSans-30" transform="translate(63.623047 0.765625)"/>
       <use xlink:href="#DejaVuSans-32" transform="translate(128.203125 39.046875) scale(0.7)"/>
      </g>
     </g>
    </g>
    <g id="xtick_4">
     <g id="line2d_14">
      <path d="M 542.035941 314.728 
L 542.035941 26.88 
" clip-path="url(#pcfeb579848)" style="fill: none; stroke: #b0b0b0; stroke-opacity: 0.3; stroke-width: 0.8; stroke-linecap: square"/>
     </g>
     <g id="line2d_15">
      <g>
       <use xlink:href="#m3affadabac" x="542.035941" y="314.728" style="stroke: #000000; stroke-width: 0.8"/>
      </g>
     </g>
     <g id="text_4">
      <!-- $\mathdefault{10^{3}}$ -->
      <g transform="translate(533.235941 329.326437) scale(0.1 -0.1)">
       <defs>
        <path id="DejaVuSans-33" d="M 2597 2516 
Q 3050 2419 3304 2112 
Q 3559 1806 3559 1356 
Q 3559 666 3084 287 
Q 2609 -91 1734 -91 
Q 1441 -91 1130 -33 
Q 819 25 488 141 
L 488 750 
Q 750 597 1062 519 
Q 1375 441 1716 441 
Q 2309 441 2620 675 
Q 2931 909 2931 1356 
Q 2931 1769 2642 2001 
Q 2353 2234 1838 2234 
L 1294 2234 
L 1294 2753 
L 1863 2753 
Q 2328 2753 2575 2939 
Q 2822 3125 2822 3475 
Q 2822 3834 2567 4026 
Q 2313 4219 1838 4219 
Q 1578 4219 1281 4162 
Q 984 4106 628 3988 
L 628 4550 
Q 988 4650 1302 4700 
Q 1616 4750 1894 4750 
Q 2613 4750 3031 4423 
Q 3450 4097 3450 3541 
Q 3450 3153 3228 2886 
Q 3006 2619 2597 2516 
z
" transform="scale(0.015625)"/>
       </defs>
       <use xlink:href="#DejaVuSans-31" transform="translate(0 0.765625)"/>
       <use xlink:href="#DejaVuSans-30" transform="translate(63.623047 0.765625)"/>
       <use xlink:href="#DejaVuSans-33" transform="translate(128.203125 39.046875) scale(0.7)"/>
      </g>
     </g>
    </g>
    <g id="xtick_5">
     <g id="line2d_16">
      <path d="M 62.330178 314.728 
L 62.330178 26.88 
" clip-path="url(#pcfeb579848)" style="fill: none; stroke: #b0b0b0; stroke-opacity: 0.3; stroke-width: 0.8; stroke-linecap: square"/>
     </g>
     <g id="line2d_17">
      <defs>
       <path id="m50f3f5ffb5" d="M 0 0 
L 0 2 
" style="stroke: #000000; stroke-width: 0.6"/>
      </defs>
      <g>
       <use xlink:href="#m50f3f5ffb5" x="62.330178" y="314.728" style="stroke: #000000; stroke-width: 0.6"/>
      </g>
     </g>
    </g>
    <g id="xtick_6">
     <g id="line2d_18">
      <path d="M 70.253611 314.728 
L 70.253611 26.88 
" clip-path="url(#pcfeb579848)" style="fill: none; stroke: #b0b0b0; stroke-opacity: 0.3; stroke-width: 0.8; stroke-linecap: square"/>
     </g>
     <g id="line2d_19">
      <g>
       <use xlink:href="#m50f3f5ffb5" x="70.253611" y="314.728" style="stroke: #000000; stroke-width: 0.6"/>
      </g>
     </g>
    </g>
    <g id="xtick_7">
     <g id="line2d_20">
      <path d="M 123.970366 314.728 
L 123.970366 26.88 
" clip-path="url(#pcfeb579848)" style="fill: none; stroke: #b0b0b0; stroke-opacity: 0.3; stroke-width: 0.8; stroke-linecap: square"/>
     </g>
     <g id="line2d_21">
      <g>
       <use xlink:href="#m50f3f5ffb5" x="123.970366" y="314.728" style="stroke: #000000; stroke-width: 0.6"/>
      </g>
     </g>
    </g>
    <g id="xtick_8">
     <g id="line2d_22">
      <path d="M 151.246584 314.728 
L 151.246584 26.88 
" clip-path="url(#pcfeb579848)" style="fill: none; stroke: #b0b0b0; stroke-opacity: 0.3; stroke-width: 0.8; stroke-linecap: square"/>
     </g>
     <g id="line2d_23">
      <g>
       <use xlink:href="#m50f3f5ffb5" x="151.246584" y="314.728" style="stroke: #000000; stroke-width: 0.6"/>
      </g>
     </g>
    </g>
    <g id="xtick_9">
     <g id="line2d_24">
      <path d="M 170.599368 314.728 
L 170.599368 26.88 
" clip-path="url(#pcfeb579848)" style="fill: none; stroke: #b0b0b0; stroke-opacity: 0.3; stroke-width: 0.8; stroke-linecap: square"/>
     </g>
     <g id="line2d_25">
      <g>
       <use xlink:href="#m50f3f5ffb5" x="170.599368" y="314.728" style="stroke: #000000; stroke-width: 0.6"/>
      </g>
     </g>
    </g>
    <g id="xtick_10">
     <g id="line2d_26">
      <path d="M 185.610554 314.728 
L 185.610554 26.88 
" clip-path="url(#pcfeb579848)" style="fill: none; stroke: #b0b0b0; stroke-opacity: 0.3; stroke-width: 0.8; stroke-linecap: square"/>
     </g>
     <g id="line2d_27">
      <g>
       <use xlink:href="#m50f3f5ffb5" x="185.610554" y="314.728" style="stroke: #000000; stroke-width: 0.6"/>
      </g>
     </g>
    </g>
    <g id="xtick_11">
     <g id="line2d_28">
      <path d="M 197.875586 314.728 
L 197.875586 26.88 
" clip-path="url(#pcfeb579848)" style="fill: none; stroke: #b0b0b0; stroke-opacity: 0.3; stroke-width: 0.8; stroke-linecap: square"/>
     </g>
     <g id="line2d_29">
      <g>
       <use xlink:href="#m50f3f5ffb5" x="197.875586" y="314.728" style="stroke: #000000; stroke-width: 0.6"/>
      </g>
     </g>
    </g>
    <g id="xtick_12">
     <g id="line2d_30">
      <path d="M 208.245523 314.728 
L 208.245523 26.88 
" clip-path="url(#pcfeb579848)" style="fill: none; stroke: #b0b0b0; stroke-opacity: 0.3; stroke-width: 0.8; stroke-linecap: square"/>
     </g>
     <g id="line2d_31">
      <g>
       <use xlink:href="#m50f3f5ffb5" x="208.245523" y="314.728" style="stroke: #000000; stroke-width: 0.6"/>
      </g>
     </g>
    </g>
    <g id="xtick_13">
     <g id="line2d_32">
      <path d="M 217.22837 314.728 
L 217.22837 26.88 
" clip-path="url(#pcfeb579848)" style="fill: none; stroke: #b0b0b0; stroke-opacity: 0.3; stroke-width: 0.8; stroke-linecap: square"/>
     </g>
     <g id="line2d_33">
      <g>
       <use xlink:href="#m50f3f5ffb5" x="217.22837" y="314.728" style="stroke: #000000; stroke-width: 0.6"/>
      </g>
     </g>
    </g>
    <g id="xtick_14">
     <g id="line2d_34">
      <path d="M 225.151804 314.728 
L 225.151804 26.88 
" clip-path="url(#pcfeb579848)" style="fill: none; stroke: #b0b0b0; stroke-opacity: 0.3; stroke-width: 0.8; stroke-linecap: square"/>
     </g>
     <g id="line2d_35">
      <g>
       <use xlink:href="#m50f3f5ffb5" x="225.151804" y="314.728" style="stroke: #000000; stroke-width: 0.6"/>
      </g>
     </g>
    </g>
    <g id="xtick_15">
     <g id="line2d_36">
      <path d="M 278.868558 314.728 
L 278.868558 26.88 
" clip-path="url(#pcfeb579848)" style="fill: none; stroke: #b0b0b0; stroke-opacity: 0.3; stroke-width: 0.8; stroke-linecap: square"/>
     </g>
     <g id="line2d_37">
      <g>
       <use xlink:href="#m50f3f5ffb5" x="278.868558" y="314.728" style="stroke: #000000; stroke-width: 0.6"/>
      </g>
     </g>
    </g>
    <g id="xtick_16">
     <g id="line2d_38">
      <path d="M 306.144776 314.728 
L 306.144776 26.88 
" clip-path="url(#pcfeb579848)" style="fill: none; stroke: #b0b0b0; stroke-opacity: 0.3; stroke-width: 0.8; stroke-linecap: square"/>
     </g>
     <g id="line2d_39">
      <g>
       <use xlink:href="#m50f3f5ffb5" x="306.144776" y="314.728" style="stroke: #000000; stroke-width: 0.6"/>
      </g>
     </g>
    </g>
    <g id="xtick_17">
     <g id="line2d_40">
      <path d="M 325.497561 314.728 
L 325.497561 26.88 
" clip-path="url(#pcfeb579848)" style="fill: none; stroke: #b0b0b0; stroke-opacity: 0.3; stroke-width: 0.8; stroke-linecap: square"/>
     </g>
     <g id="line2d_41">
      <g>
       <use xlink:href="#m50f3f5ffb5" x="325.497561" y="314.728" style="stroke: #000000; stroke-width: 0.6"/>
      </g>
     </g>
    </g>
    <g id="xtick_18">
     <g id="line2d_42">
      <path d="M 340.508747 314.728 
L 340.508747 26.88 
" clip-path="url(#pcfeb579848)" style="fill: none; stroke: #b0b0b0; stroke-opacity: 0.3; stroke-width: 0.8; stroke-linecap: square"/>
     </g>
     <g id="line2d_43">
      <g>
       <use xlink:href="#m50f3f5ffb5" x="340.508747" y="314.728" style="stroke: #000000; stroke-width: 0.6"/>
      </g>
     </g>
    </g>
    <g id="xtick_19">
     <g id="line2d_44">
      <path d="M 352.773778 314.728 
L 352.773778 26.88 
" clip-path="url(#pcfeb579848)" style="fill: none; stroke: #b0b0b0; stroke-opacity: 0.3; stroke-width: 0.8; stroke-linecap: square"/>
     </g>
     <g id="line2d_45">
      <g>
       <use xlink:href="#m50f3f5ffb5" x="352.773778" y="314.728" style="stroke: #000000; stroke-width: 0.6"/>
      </g>
     </g>
    </g>
    <g id="xtick_20">
     <g id="line2d_46">
      <path d="M 363.143715 314.728 
L 363.143715 26.88 
" clip-path="url(#pcfeb579848)" style="fill: none; stroke: #b0b0b0; stroke-opacity: 0.3; stroke-width: 0.8; stroke-linecap: square"/>
     </g>
     <g id="line2d_47">
      <g>
       <use xlink:href="#m50f3f5ffb5" x="363.143715" y="314.728" style="stroke: #000000; stroke-width: 0.6"/>
      </g>
     </g>
    </g>
    <g id="xtick_21">
     <g id="line2d_48">
      <path d="M 372.126563 314.728 
L 372.126563 26.88 
" clip-path="url(#pcfeb579848)" style="fill: none; stroke: #b0b0b0; stroke-opacity: 0.3; stroke-width: 0.8; stroke-linecap: square"/>
     </g>
     <g id="line2d_49">
      <g>
       <use xlink:href="#m50f3f5ffb5" x="372.126563" y="314.728" style="stroke: #000000; stroke-width: 0.6"/>
      </g>
     </g>
    </g>
    <g id="xtick_22">
     <g id="line2d_50">
      <path d="M 380.049996 314.728 
L 380.049996 26.88 
" clip-path="url(#pcfeb579848)" style="fill: none; stroke: #b0b0b0; stroke-opacity: 0.3; stroke-width: 0.8; stroke-linecap: square"/>
     </g>
     <g id="line2d_51">
      <g>
       <use xlink:href="#m50f3f5ffb5" x="380.049996" y="314.728" style="stroke: #000000; stroke-width: 0.6"/>
      </g>
     </g>
    </g>
    <g id="xtick_23">
     <g id="line2d_52">
      <path d="M 433.766751 314.728 
L 433.766751 26.88 
" clip-path="url(#pcfeb579848)" style="fill: none; stroke: #b0b0b0; stroke-opacity: 0.3; stroke-width: 0.8; stroke-linecap: square"/>
     </g>
     <g id="line2d_53">
      <g>
       <use xlink:href="#m50f3f5ffb5" x="433.766751" y="314.728" style="stroke: #000000; stroke-width: 0.6"/>
      </g>
     </g>
    </g>
    <g id="xtick_24">
     <g id="line2d_54">
      <path d="M 461.042969 314.728 
L 461.042969 26.88 
" clip-path="url(#pcfeb579848)" style="fill: none; stroke: #b0b0b0; stroke-opacity: 0.3; stroke-width: 0.8; stroke-linecap: square"/>
     </g>
     <g id="line2d_55">
      <g>
       <use xlink:href="#m50f3f5ffb5" x="461.042969" y="314.728" style="stroke: #000000; stroke-width: 0.6"/>
      </g>
     </g>
    </g>
    <g id="xtick_25">
     <g id="line2d_56">
      <path d="M 480.395753 314.728 
L 480.395753 26.88 
" clip-path="url(#pcfeb579848)" style="fill: none; stroke: #b0b0b0; stroke-opacity: 0.3; stroke-width: 0.8; stroke-linecap: square"/>
     </g>
     <g id="line2d_57">
      <g>
       <use xlink:href="#m50f3f5ffb5" x="480.395753" y="314.728" style="stroke: #000000; stroke-width: 0.6"/>
      </g>
     </g>
    </g>
    <g id="xtick_26">
     <g id="line2d_58">
      <path d="M 495.406939 314.728 
L 495.406939 26.88 
" clip-path="url(#pcfeb579848)" style="fill: none; stroke: #b0b0b0; stroke-opacity: 0.3; stroke-width: 0.8; stroke-linecap: square"/>
     </g>
     <g id="line2d_59">
      <g>
       <use xlink:href="#m50f3f5ffb5" x="495.406939" y="314.728" style="stroke: #000000; stroke-width: 0.6"/>
      </g>
     </g>
    </g>
    <g id="xtick_27">
     <g id="line2d_60">
      <path d="M 507.671971 314.728 
L 507.671971 26.88 
" clip-path="url(#pcfeb579848)" style="fill: none; stroke: #b0b0b0; stroke-opacity: 0.3; stroke-width: 0.8; stroke-linecap: square"/>
     </g>
     <g id="line2d_61">
      <g>
       <use xlink:href="#m50f3f5ffb5" x="507.671971" y="314.728" style="stroke: #000000; stroke-width: 0.6"/>
      </g>
     </g>
    </g>
    <g id="xtick_28">
     <g id="line2d_62">
      <path d="M 518.041908 314.728 
L 518.041908 26.88 
" clip-path="url(#pcfeb579848)" style="fill: none; stroke: #b0b0b0; stroke-opacity: 0.3; stroke-width: 0.8; stroke-linecap: square"/>
     </g>
     <g id="line2d_63">
      <g>
       <use xlink:href="#m50f3f5ffb5" x="518.041908" y="314.728" style="stroke: #000000; stroke-width: 0.6"/>
      </g>
     </g>
    </g>
    <g id="xtick_29">
     <g id="line2d_64">
      <path d="M 527.024756 314.728 
L 527.024756 26.88 
" clip-path="url(#pcfeb579848)" style="fill: none; stroke: #b0b0b0; stroke-opacity: 0.3; stroke-width: 0.8; stroke-linecap: square"/>
     </g>
     <g id="line2d_65">
      <g>
       <use xlink:href="#m50f3f5ffb5" x="527.024756" y="314.728" style="stroke: #000000; stroke-width: 0.6"/>
      </g>
     </g>
    </g>
    <g id="xtick_30">
     <g id="line2d_66">
      <path d="M 534.948189 314.728 
L 534.948189 26.88 
" clip-path="url(#pcfeb579848)" style="fill: none; stroke: #b0b0b0; stroke-opacity: 0.3; stroke-width: 0.8; stroke-linecap: square"/>
     </g>
     <g id="line2d_67">
      <g>
       <use xlink:href="#m50f3f5ffb5" x="534.948189" y="314.728" style="stroke: #000000; stroke-width: 0.6"/>
      </g>
     </g>
    </g>
    <g id="text_5">
     <!-- Iteration (Log Scale) -->
     <g transform="translate(258.981562 343.004562) scale(0.1 -0.1)">
      <defs>
       <path id="DejaVuSans-49" d="M 628 4666 
L 1259 4666 
L 1259 0 
L 628 0 
L 628 4666 
z
" transform="scale(0.015625)"/>
       <path id="DejaVuSans-74" d="M 1172 4494 
L 1172 3500 
L 2356 3500 
L 2356 3053 
L 1172 3053 
L 1172 1153 
Q 1172 725 1289 603 
Q 1406 481 1766 481 
L 2356 481 
L 2356 0 
L 1766 0 
Q 1100 0 847 248 
Q 594 497 594 1153 
L 594 3053 
L 172 3053 
L 172 3500 
L 594 3500 
L 594 4494 
L 1172 4494 
z
" transform="scale(0.015625)"/>
       <path id="DejaVuSans-65" d="M 3597 1894 
L 3597 1613 
L 953 1613 
Q 991 1019 1311 708 
Q 1631 397 2203 397 
Q 2534 397 2845 478 
Q 3156 559 3463 722 
L 3463 178 
Q 3153 47 2828 -22 
Q 2503 -91 2169 -91 
Q 1331 -91 842 396 
Q 353 884 353 1716 
Q 353 2575 817 3079 
Q 1281 3584 2069 3584 
Q 2775 3584 3186 3129 
Q 3597 2675 3597 1894 
z
M 3022 2063 
Q 3016 2534 2758 2815 
Q 2500 3097 2075 3097 
Q 1594 3097 1305 2825 
Q 1016 2553 972 2059 
L 3022 2063 
z
" transform="scale(0.015625)"/>
       <path id="DejaVuSans-72" d="M 2631 2963 
Q 2534 3019 2420 3045 
Q 2306 3072 2169 3072 
Q 1681 3072 1420 2755 
Q 1159 2438 1159 1844 
L 1159 0 
L 581 0 
L 581 3500 
L 1159 3500 
L 1159 2956 
Q 1341 3275 1631 3429 
Q 1922 3584 2338 3584 
Q 2397 3584 2469 3576 
Q 2541 3569 2628 3553 
L 2631 2963 
z
" transform="scale(0.015625)"/>
       <path id="DejaVuSans-61" d="M 2194 1759 
Q 1497 1759 1228 1600 
Q 959 1441 959 1056 
Q 959 750 1161 570 
Q 1363 391 1709 391 
Q 2188 391 2477 730 
Q 2766 1069 2766 1631 
L 2766 1759 
L 2194 1759 
z
M 3341 1997 
L 3341 0 
L 2766 0 
L 2766 531 
Q 2569 213 2275 61 
Q 1981 -91 1556 -91 
Q 1019 -91 701 211 
Q 384 513 384 1019 
Q 384 1609 779 1909 
Q 1175 2209 1959 2209 
L 2766 2209 
L 2766 2266 
Q 2766 2663 2505 2880 
Q 2244 3097 1772 3097 
Q 1472 3097 1187 3025 
Q 903 2953 641 2809 
L 641 3341 
Q 956 3463 1253 3523 
Q 1550 3584 1831 3584 
Q 2591 3584 2966 3190 
Q 3341 2797 3341 1997 
z
" transform="scale(0.015625)"/>
       <path id="DejaVuSans-69" d="M 603 3500 
L 1178 3500 
L 1178 0 
L 603 0 
L 603 3500 
z
M 603 4863 
L 1178 4863 
L 1178 4134 
L 603 4134 
L 603 4863 
z
" transform="scale(0.015625)"/>
       <path id="DejaVuSans-6f" d="M 1959 3097 
Q 1497 3097 1228 2736 
Q 959 2375 959 1747 
Q 959 1119 1226 758 
Q 1494 397 1959 397 
Q 2419 397 2687 759 
Q 2956 1122 2956 1747 
Q 2956 2369 2687 2733 
Q 2419 3097 1959 3097 
z
M 1959 3584 
Q 2709 3584 3137 3096 
Q 3566 2609 3566 1747 
Q 3566 888 3137 398 
Q 2709 -91 1959 -91 
Q 1206 -91 779 398 
Q 353 888 353 1747 
Q 353 2609 779 3096 
Q 1206 3584 1959 3584 
z
" transform="scale(0.015625)"/>
       <path id="DejaVuSans-6e" d="M 3513 2113 
L 3513 0 
L 2938 0 
L 2938 2094 
Q 2938 2591 2744 2837 
Q 2550 3084 2163 3084 
Q 1697 3084 1428 2787 
Q 1159 2491 1159 1978 
L 1159 0 
L 581 0 
L 581 3500 
L 1159 3500 
L 1159 2956 
Q 1366 3272 1645 3428 
Q 1925 3584 2291 3584 
Q 2894 3584 3203 3211 
Q 3513 2838 3513 2113 
z
" transform="scale(0.015625)"/>
       <path id="DejaVuSans-20" transform="scale(0.015625)"/>
       <path id="DejaVuSans-28" d="M 1984 4856 
Q 1566 4138 1362 3434 
Q 1159 2731 1159 2009 
Q 1159 1288 1364 580 
Q 1569 -128 1984 -844 
L 1484 -844 
Q 1016 -109 783 600 
Q 550 1309 550 2009 
Q 550 2706 781 3412 
Q 1013 4119 1484 4856 
L 1984 4856 
z
" transform="scale(0.015625)"/>
       <path id="DejaVuSans-4c" d="M 628 4666 
L 1259 4666 
L 1259 531 
L 3531 531 
L 3531 0 
L 628 0 
L 628 4666 
z
" transform="scale(0.015625)"/>
       <path id="DejaVuSans-67" d="M 2906 1791 
Q 2906 2416 2648 2759 
Q 2391 3103 1925 3103 
Q 1463 3103 1205 2759 
Q 947 2416 947 1791 
Q 947 1169 1205 825 
Q 1463 481 1925 481 
Q 2391 481 2648 825 
Q 2906 1169 2906 1791 
z
M 3481 434 
Q 3481 -459 3084 -895 
Q 2688 -1331 1869 -1331 
Q 1566 -1331 1297 -1286 
Q 1028 -1241 775 -1147 
L 775 -588 
Q 1028 -725 1275 -790 
Q 1522 -856 1778 -856 
Q 2344 -856 2625 -561 
Q 2906 -266 2906 331 
L 2906 616 
Q 2728 306 2450 153 
Q 2172 0 1784 0 
Q 1141 0 747 490 
Q 353 981 353 1791 
Q 353 2603 747 3093 
Q 1141 3584 1784 3584 
Q 2172 3584 2450 3431 
Q 2728 3278 2906 2969 
L 2906 3500 
L 3481 3500 
L 3481 434 
z
" transform="scale(0.015625)"/>
       <path id="DejaVuSans-53" d="M 3425 4513 
L 3425 3897 
Q 3066 4069 2747 4153 
Q 2428 4238 2131 4238 
Q 1616 4238 1336 4038 
Q 1056 3838 1056 3469 
Q 1056 3159 1242 3001 
Q 1428 2844 1947 2747 
L 2328 2669 
Q 3034 2534 3370 2195 
Q 3706 1856 3706 1288 
Q 3706 609 3251 259 
Q 2797 -91 1919 -91 
Q 1588 -91 1214 -16 
Q 841 59 441 206 
L 441 856 
Q 825 641 1194 531 
Q 1563 422 1919 422 
Q 2459 422 2753 634 
Q 3047 847 3047 1241 
Q 3047 1584 2836 1778 
Q 2625 1972 2144 2069 
L 1759 2144 
Q 1053 2284 737 2584 
Q 422 2884 422 3419 
Q 422 4038 858 4394 
Q 1294 4750 2059 4750 
Q 2388 4750 2728 4690 
Q 3069 4631 3425 4513 
z
" transform="scale(0.015625)"/>
       <path id="DejaVuSans-63" d="M 3122 3366 
L 3122 2828 
Q 2878 2963 2633 3030 
Q 2388 3097 2138 3097 
Q 1578 3097 1268 2742 
Q 959 2388 959 1747 
Q 959 1106 1268 751 
Q 1578 397 2138 397 
Q 2388 397 2633 464 
Q 2878 531 3122 666 
L 3122 134 
Q 2881 22 2623 -34 
Q 2366 -91 2075 -91 
Q 1284 -91 818 406 
Q 353 903 353 1747 
Q 353 2603 823 3093 
Q 1294 3584 2113 3584 
Q 2378 3584 2631 3529 
Q 2884 3475 3122 3366 
z
" transform="scale(0.015625)"/>
       <path id="DejaVuSans-6c" d="M 603 4863 
L 1178 4863 
L 1178 0 
L 603 0 
L 603 4863 
z
" transform="scale(0.015625)"/>
       <path id="DejaVuSans-29" d="M 513 4856 
L 1013 4856 
Q 1481 4119 1714 3412 
Q 1947 2706 1947 2009 
Q 1947 1309 1714 600 
Q 1481 -109 1013 -844 
L 513 -844 
Q 928 -128 1133 580 
Q 1338 1288 1338 2009 
Q 1338 2731 1133 3434 
Q 928 4138 513 4856 
z
" transform="scale(0.015625)"/>
      </defs>
      <use xlink:href="#DejaVuSans-49"/>
      <use xlink:href="#DejaVuSans-74" transform="translate(29.492188 0)"/>
      <use xlink:href="#DejaVuSans-65" transform="translate(68.701172 0)"/>
      <use xlink:href="#DejaVuSans-72" transform="translate(130.224609 0)"/>
      <use xlink:href="#DejaVuSans-61" transform="translate(171.337891 0)"/>
      <use xlink:href="#DejaVuSans-74" transform="translate(232.617188 0)"/>
      <use xlink:href="#DejaVuSans-69" transform="translate(271.826172 0)"/>
      <use xlink:href="#DejaVuSans-6f" transform="translate(299.609375 0)"/>
      <use xlink:href="#DejaVuSans-6e" transform="translate(360.791016 0)"/>
      <use xlink:href="#DejaVuSans-20" transform="translate(424.169922 0)"/>
      <use xlink:href="#DejaVuSans-28" transform="translate(455.957031 0)"/>
      <use xlink:href="#DejaVuSans-4c" transform="translate(494.970703 0)"/>
      <use xlink:href="#DejaVuSans-6f" transform="translate(548.933594 0)"/>
      <use xlink:href="#DejaVuSans-67" transform="translate(610.115234 0)"/>
      <use xlink:href="#DejaVuSans-20" transform="translate(673.591797 0)"/>
      <use xlink:href="#DejaVuSans-53" transform="translate(705.378906 0)"/>
      <use xlink:href="#DejaVuSans-63" transform="translate(768.855469 0)"/>
      <use xlink:href="#DejaVuSans-61" transform="translate(823.835938 0)"/>
      <use xlink:href="#DejaVuSans-6c" transform="translate(885.115234 0)"/>
      <use xlink:href="#DejaVuSans-65" transform="translate(912.898438 0)"/>
      <use xlink:href="#DejaVuSans-29" transform="translate(974.421875 0)"/>
     </g>
    </g>
   </g>
   <g id="matplotlib.axis_2">
    <g id="ytick_1">
     <g id="line2d_68">
      <path d="M 54.11 286.572727 
L 565.2 286.572727 
" clip-path="url(#pcfeb579848)" style="fill: none; stroke: #b0b0b0; stroke-opacity: 0.3; stroke-width: 0.8; stroke-linecap: square"/>
     </g>
     <g id="line2d_69">
      <defs>
       <path id="m1170083324" d="M 0 0 
L -3.5 0 
" style="stroke: #000000; stroke-width: 0.8"/>
      </defs>
      <g>
       <use xlink:href="#m1170083324" x="54.11" y="286.572727" style="stroke: #000000; stroke-width: 0.8"/>
      </g>
     </g>
     <g id="text_6">
      <!-- 0.82 -->
      <g transform="translate(24.844375 290.371945) scale(0.1 -0.1)">
       <defs>
        <path id="DejaVuSans-2e" d="M 684 794 
L 1344 794 
L 1344 0 
L 684 0 
L 684 794 
z
" transform="scale(0.015625)"/>
        <path id="DejaVuSans-38" d="M 2034 2216 
Q 1584 2216 1326 1975 
Q 1069 1734 1069 1313 
Q 1069 891 1326 650 
Q 1584 409 2034 409 
Q 2484 409 2743 651 
Q 3003 894 3003 1313 
Q 3003 1734 2745 1975 
Q 2488 2216 2034 2216 
z
M 1403 2484 
Q 997 2584 770 2862 
Q 544 3141 544 3541 
Q 544 4100 942 4425 
Q 1341 4750 2034 4750 
Q 2731 4750 3128 4425 
Q 3525 4100 3525 3541 
Q 3525 3141 3298 2862 
Q 3072 2584 2669 2484 
Q 3125 2378 3379 2068 
Q 3634 1759 3634 1313 
Q 3634 634 3220 271 
Q 2806 -91 2034 -91 
Q 1263 -91 848 271 
Q 434 634 434 1313 
Q 434 1759 690 2068 
Q 947 2378 1403 2484 
z
M 1172 3481 
Q 1172 3119 1398 2916 
Q 1625 2713 2034 2713 
Q 2441 2713 2670 2916 
Q 2900 3119 2900 3481 
Q 2900 3844 2670 4047 
Q 2441 4250 2034 4250 
Q 1625 4250 1398 4047 
Q 1172 3844 1172 3481 
z
" transform="scale(0.015625)"/>
       </defs>
       <use xlink:href="#DejaVuSans-30"/>
       <use xlink:href="#DejaVuSans-2e" transform="translate(63.623047 0)"/>
       <use xlink:href="#DejaVuSans-38" transform="translate(95.410156 0)"/>
       <use xlink:href="#DejaVuSans-32" transform="translate(159.033203 0)"/>
      </g>
     </g>
    </g>
    <g id="ytick_2">
     <g id="line2d_70">
      <path d="M 54.11 246.011314 
L 565.2 246.011314 
" clip-path="url(#pcfeb579848)" style="fill: none; stroke: #b0b0b0; stroke-opacity: 0.3; stroke-width: 0.8; stroke-linecap: square"/>
     </g>
     <g id="line2d_71">
      <g>
       <use xlink:href="#m1170083324" x="54.11" y="246.011314" style="stroke: #000000; stroke-width: 0.8"/>
      </g>
     </g>
     <g id="text_7">
      <!-- 0.84 -->
      <g transform="translate(24.844375 249.810532) scale(0.1 -0.1)">
       <defs>
        <path id="DejaVuSans-34" d="M 2419 4116 
L 825 1625 
L 2419 1625 
L 2419 4116 
z
M 2253 4666 
L 3047 4666 
L 3047 1625 
L 3713 1625 
L 3713 1100 
L 3047 1100 
L 3047 0 
L 2419 0 
L 2419 1100 
L 313 1100 
L 313 1709 
L 2253 4666 
z
" transform="scale(0.015625)"/>
       </defs>
       <use xlink:href="#DejaVuSans-30"/>
       <use xlink:href="#DejaVuSans-2e" transform="translate(63.623047 0)"/>
       <use xlink:href="#DejaVuSans-38" transform="translate(95.410156 0)"/>
       <use xlink:href="#DejaVuSans-34" transform="translate(159.033203 0)"/>
      </g>
     </g>
    </g>
    <g id="ytick_3">
     <g id="line2d_72">
      <path d="M 54.11 205.449901 
L 565.2 205.449901 
" clip-path="url(#pcfeb579848)" style="fill: none; stroke: #b0b0b0; stroke-opacity: 0.3; stroke-width: 0.8; stroke-linecap: square"/>
     </g>
     <g id="line2d_73">
      <g>
       <use xlink:href="#m1170083324" x="54.11" y="205.449901" style="stroke: #000000; stroke-width: 0.8"/>
      </g>
     </g>
     <g id="text_8">
      <!-- 0.86 -->
      <g transform="translate(24.844375 209.249119) scale(0.1 -0.1)">
       <defs>
        <path id="DejaVuSans-36" d="M 2113 2584 
Q 1688 2584 1439 2293 
Q 1191 2003 1191 1497 
Q 1191 994 1439 701 
Q 1688 409 2113 409 
Q 2538 409 2786 701 
Q 3034 994 3034 1497 
Q 3034 2003 2786 2293 
Q 2538 2584 2113 2584 
z
M 3366 4563 
L 3366 3988 
Q 3128 4100 2886 4159 
Q 2644 4219 2406 4219 
Q 1781 4219 1451 3797 
Q 1122 3375 1075 2522 
Q 1259 2794 1537 2939 
Q 1816 3084 2150 3084 
Q 2853 3084 3261 2657 
Q 3669 2231 3669 1497 
Q 3669 778 3244 343 
Q 2819 -91 2113 -91 
Q 1303 -91 875 529 
Q 447 1150 447 2328 
Q 447 3434 972 4092 
Q 1497 4750 2381 4750 
Q 2619 4750 2861 4703 
Q 3103 4656 3366 4563 
z
" transform="scale(0.015625)"/>
       </defs>
       <use xlink:href="#DejaVuSans-30"/>
       <use xlink:href="#DejaVuSans-2e" transform="translate(63.623047 0)"/>
       <use xlink:href="#DejaVuSans-38" transform="translate(95.410156 0)"/>
       <use xlink:href="#DejaVuSans-36" transform="translate(159.033203 0)"/>
      </g>
     </g>
    </g>
    <g id="ytick_4">
     <g id="line2d_74">
      <path d="M 54.11 164.888488 
L 565.2 164.888488 
" clip-path="url(#pcfeb579848)" style="fill: none; stroke: #b0b0b0; stroke-opacity: 0.3; stroke-width: 0.8; stroke-linecap: square"/>
     </g>
     <g id="line2d_75">
      <g>
       <use xlink:href="#m1170083324" x="54.11" y="164.888488" style="stroke: #000000; stroke-width: 0.8"/>
      </g>
     </g>
     <g id="text_9">
      <!-- 0.88 -->
      <g transform="translate(24.844375 168.687706) scale(0.1 -0.1)">
       <use xlink:href="#DejaVuSans-30"/>
       <use xlink:href="#DejaVuSans-2e" transform="translate(63.623047 0)"/>
       <use xlink:href="#DejaVuSans-38" transform="translate(95.410156 0)"/>
       <use xlink:href="#DejaVuSans-38" transform="translate(159.033203 0)"/>
      </g>
     </g>
    </g>
    <g id="ytick_5">
     <g id="line2d_76">
      <path d="M 54.11 124.327075 
L 565.2 124.327075 
" clip-path="url(#pcfeb579848)" style="fill: none; stroke: #b0b0b0; stroke-opacity: 0.3; stroke-width: 0.8; stroke-linecap: square"/>
     </g>
     <g id="line2d_77">
      <g>
       <use xlink:href="#m1170083324" x="54.11" y="124.327075" style="stroke: #000000; stroke-width: 0.8"/>
      </g>
     </g>
     <g id="text_10">
      <!-- 0.90 -->
      <g transform="translate(24.844375 128.126293) scale(0.1 -0.1)">
       <defs>
        <path id="DejaVuSans-39" d="M 703 97 
L 703 672 
Q 941 559 1184 500 
Q 1428 441 1663 441 
Q 2288 441 2617 861 
Q 2947 1281 2994 2138 
Q 2813 1869 2534 1725 
Q 2256 1581 1919 1581 
Q 1219 1581 811 2004 
Q 403 2428 403 3163 
Q 403 3881 828 4315 
Q 1253 4750 1959 4750 
Q 2769 4750 3195 4129 
Q 3622 3509 3622 2328 
Q 3622 1225 3098 567 
Q 2575 -91 1691 -91 
Q 1453 -91 1209 -44 
Q 966 3 703 97 
z
M 1959 2075 
Q 2384 2075 2632 2365 
Q 2881 2656 2881 3163 
Q 2881 3666 2632 3958 
Q 2384 4250 1959 4250 
Q 1534 4250 1286 3958 
Q 1038 3666 1038 3163 
Q 1038 2656 1286 2365 
Q 1534 2075 1959 2075 
z
" transform="scale(0.015625)"/>
       </defs>
       <use xlink:href="#DejaVuSans-30"/>
       <use xlink:href="#DejaVuSans-2e" transform="translate(63.623047 0)"/>
       <use xlink:href="#DejaVuSans-39" transform="translate(95.410156 0)"/>
       <use xlink:href="#DejaVuSans-30" transform="translate(159.033203 0)"/>
      </g>
     </g>
    </g>
    <g id="ytick_6">
     <g id="line2d_78">
      <path d="M 54.11 83.765662 
L 565.2 83.765662 
" clip-path="url(#pcfeb579848)" style="fill: none; stroke: #b0b0b0; stroke-opacity: 0.3; stroke-width: 0.8; stroke-linecap: square"/>
     </g>
     <g id="line2d_79">
      <g>
       <use xlink:href="#m1170083324" x="54.11" y="83.765662" style="stroke: #000000; stroke-width: 0.8"/>
      </g>
     </g>
     <g id="text_11">
      <!-- 0.92 -->
      <g transform="translate(24.844375 87.56488) scale(0.1 -0.1)">
       <use xlink:href="#DejaVuSans-30"/>
       <use xlink:href="#DejaVuSans-2e" transform="translate(63.623047 0)"/>
       <use xlink:href="#DejaVuSans-39" transform="translate(95.410156 0)"/>
       <use xlink:href="#DejaVuSans-32" transform="translate(159.033203 0)"/>
      </g>
     </g>
    </g>
    <g id="ytick_7">
     <g id="line2d_80">
      <path d="M 54.11 43.204249 
L 565.2 43.204249 
" clip-path="url(#pcfeb579848)" style="fill: none; stroke: #b0b0b0; stroke-opacity: 0.3; stroke-width: 0.8; stroke-linecap: square"/>
     </g>
     <g id="line2d_81">
      <g>
       <use xlink:href="#m1170083324" x="54.11" y="43.204249" style="stroke: #000000; stroke-width: 0.8"/>
      </g>
     </g>
     <g id="text_12">
      <!-- 0.94 -->
      <g transform="translate(24.844375 47.003467) scale(0.1 -0.1)">
       <use xlink:href="#DejaVuSans-30"/>
       <use xlink:href="#DejaVuSans-2e" transform="translate(63.623047 0)"/>
       <use xlink:href="#DejaVuSans-39" transform="translate(95.410156 0)"/>
       <use xlink:href="#DejaVuSans-34" transform="translate(159.033203 0)"/>
      </g>
     </g>
    </g>
    <g id="text_13">
     <!-- SSIM Index -->
     <g transform="translate(18.764688 198.296969) rotate(-90) scale(0.1 -0.1)">
      <defs>
       <path id="DejaVuSans-4d" d="M 628 4666 
L 1569 4666 
L 2759 1491 
L 3956 4666 
L 4897 4666 
L 4897 0 
L 4281 0 
L 4281 4097 
L 3078 897 
L 2444 897 
L 1241 4097 
L 1241 0 
L 628 0 
L 628 4666 
z
" transform="scale(0.015625)"/>
       <path id="DejaVuSans-64" d="M 2906 2969 
L 2906 4863 
L 3481 4863 
L 3481 0 
L 2906 0 
L 2906 525 
Q 2725 213 2448 61 
Q 2172 -91 1784 -91 
Q 1150 -91 751 415 
Q 353 922 353 1747 
Q 353 2572 751 3078 
Q 1150 3584 1784 3584 
Q 2172 3584 2448 3432 
Q 2725 3281 2906 2969 
z
M 947 1747 
Q 947 1113 1208 752 
Q 1469 391 1925 391 
Q 2381 391 2643 752 
Q 2906 1113 2906 1747 
Q 2906 2381 2643 2742 
Q 2381 3103 1925 3103 
Q 1469 3103 1208 2742 
Q 947 2381 947 1747 
z
" transform="scale(0.015625)"/>
       <path id="DejaVuSans-78" d="M 3513 3500 
L 2247 1797 
L 3578 0 
L 2900 0 
L 1881 1375 
L 863 0 
L 184 0 
L 1544 1831 
L 300 3500 
L 978 3500 
L 1906 2253 
L 2834 3500 
L 3513 3500 
z
" transform="scale(0.015625)"/>
      </defs>
      <use xlink:href="#DejaVuSans-53"/>
      <use xlink:href="#DejaVuSans-53" transform="translate(63.476562 0)"/>
      <use xlink:href="#DejaVuSans-49" transform="translate(126.953125 0)"/>
      <use xlink:href="#DejaVuSans-4d" transform="translate(156.445312 0)"/>
      <use xlink:href="#DejaVuSans-20" transform="translate(242.724609 0)"/>
      <use xlink:href="#DejaVuSans-49" transform="translate(274.511719 0)"/>
      <use xlink:href="#DejaVuSans-6e" transform="translate(304.003906 0)"/>
      <use xlink:href="#DejaVuSans-64" transform="translate(367.382812 0)"/>
      <use xlink:href="#DejaVuSans-65" transform="translate(430.859375 0)"/>
      <use xlink:href="#DejaVuSans-78" transform="translate(490.632812 0)"/>
     </g>
    </g>
   </g>
   <g id="patch_3">
    <path d="M 54.11 314.728 
L 54.11 26.88 
" style="fill: none; stroke: #000000; stroke-width: 0.8; stroke-linejoin: miter; stroke-linecap: square"/>
   </g>
   <g id="patch_4">
    <path d="M 565.2 314.728 
L 565.2 26.88 
" style="fill: none; stroke: #000000; stroke-width: 0.8; stroke-linejoin: miter; stroke-linecap: square"/>
   </g>
   <g id="patch_5">
    <path d="M 54.11 314.728 
L 565.2 314.728 
" style="fill: none; stroke: #000000; stroke-width: 0.8; stroke-linejoin: miter; stroke-linecap: square"/>
   </g>
   <g id="patch_6">
    <path d="M 54.11 26.88 
L 565.2 26.88 
" style="fill: none; stroke: #000000; stroke-width: 0.8; stroke-linejoin: miter; stroke-linecap: square"/>
   </g>
   <g id="text_14">
    <!-- SSIM Convergence - Image 2 -->
    <g transform="translate(223.125625 20.88) scale(0.12 -0.12)">
     <defs>
      <path id="DejaVuSans-43" d="M 4122 4306 
L 4122 3641 
Q 3803 3938 3442 4084 
Q 3081 4231 2675 4231 
Q 1875 4231 1450 3742 
Q 1025 3253 1025 2328 
Q 1025 1406 1450 917 
Q 1875 428 2675 428 
Q 3081 428 3442 575 
Q 3803 722 4122 1019 
L 4122 359 
Q 3791 134 3420 21 
Q 3050 -91 2638 -91 
Q 1578 -91 968 557 
Q 359 1206 359 2328 
Q 359 3453 968 4101 
Q 1578 4750 2638 4750 
Q 3056 4750 3426 4639 
Q 3797 4528 4122 4306 
z
" transform="scale(0.015625)"/>
      <path id="DejaVuSans-76" d="M 191 3500 
L 800 3500 
L 1894 563 
L 2988 3500 
L 3597 3500 
L 2284 0 
L 1503 0 
L 191 3500 
z
" transform="scale(0.015625)"/>
      <path id="DejaVuSans-2d" d="M 313 2009 
L 1997 2009 
L 1997 1497 
L 313 1497 
L 313 2009 
z
" transform="scale(0.015625)"/>
      <path id="DejaVuSans-6d" d="M 3328 2828 
Q 3544 3216 3844 3400 
Q 4144 3584 4550 3584 
Q 5097 3584 5394 3201 
Q 5691 2819 5691 2113 
L 5691 0 
L 5113 0 
L 5113 2094 
Q 5113 2597 4934 2840 
Q 4756 3084 4391 3084 
Q 3944 3084 3684 2787 
Q 3425 2491 3425 1978 
L 3425 0 
L 2847 0 
L 2847 2094 
Q 2847 2600 2669 2842 
Q 2491 3084 2119 3084 
Q 1678 3084 1418 2786 
Q 1159 2488 1159 1978 
L 1159 0 
L 581 0 
L 581 3500 
L 1159 3500 
L 1159 2956 
Q 1356 3278 1631 3431 
Q 1906 3584 2284 3584 
Q 2666 3584 2933 3390 
Q 3200 3197 3328 2828 
z
" transform="scale(0.015625)"/>
     </defs>
     <use xlink:href="#DejaVuSans-53"/>
     <use xlink:href="#DejaVuSans-53" transform="translate(63.476562 0)"/>
     <use xlink:href="#DejaVuSans-49" transform="translate(126.953125 0)"/>
     <use xlink:href="#DejaVuSans-4d" transform="translate(156.445312 0)"/>
     <use xlink:href="#DejaVuSans-20" transform="translate(242.724609 0)"/>
     <use xlink:href="#DejaVuSans-43" transform="translate(274.511719 0)"/>
     <use xlink:href="#DejaVuSans-6f" transform="translate(344.335938 0)"/>
     <use xlink:href="#DejaVuSans-6e" transform="translate(405.517578 0)"/>
     <use xlink:href="#DejaVuSans-76" transform="translate(468.896484 0)"/>
     <use xlink:href="#DejaVuSans-65" transform="translate(528.076172 0)"/>
     <use xlink:href="#DejaVuSans-72" transform="translate(589.599609 0)"/>
     <use xlink:href="#DejaVuSans-67" transform="translate(628.962891 0)"/>
     <use xlink:href="#DejaVuSans-65" transform="translate(692.439453 0)"/>
     <use xlink:href="#DejaVuSans-6e" transform="translate(753.962891 0)"/>
     <use xlink:href="#DejaVuSans-63" transform="translate(817.341797 0)"/>
     <use xlink:href="#DejaVuSans-65" transform="translate(872.322266 0)"/>
     <use xlink:href="#DejaVuSans-20" transform="translate(933.845703 0)"/>
     <use xlink:href="#DejaVuSans-2d" transform="translate(965.632812 0)"/>
     <use xlink:href="#DejaVuSans-20" transform="translate(1001.716797 0)"/>
     <use xlink:href="#DejaVuSans-49" transform="translate(1033.503906 0)"/>
     <use xlink:href="#DejaVuSans-6d" transform="translate(1062.996094 0)"/>
     <use xlink:href="#DejaVuSans-61" transform="translate(1160.408203 0)"/>
     <use xlink:href="#DejaVuSans-67" transform="translate(1221.6875 0)"/>
     <use xlink:href="#DejaVuSans-65" transform="translate(1285.164062 0)"/>
     <use xlink:href="#DejaVuSans-20" transform="translate(1346.6875 0)"/>
     <use xlink:href="#DejaVuSans-32" transform="translate(1378.474609 0)"/>
    </g>
   </g>
   <g id="legend_1">
    <g id="patch_7">
     <path d="M 483.914317 312.563 
L 561.369 312.563 
Q 563.035 312.563 563.035 310.897 
L 563.035 225.446819 
Q 563.035 223.780819 561.369 223.780819 
L 483.914317 223.780819 
Q 482.248317 223.780819 482.248317 225.446819 
L 482.248317 310.897 
Q 482.248317 312.563 483.914317 312.563 
z
" style="fill: #4d4d4d; opacity: 0.5; stroke: #4d4d4d; stroke-linejoin: miter"/>
    </g>
    <g id="patch_8">
     <path d="M 481.914317 310.563 
L 559.369 310.563 
Q 561.035 310.563 561.035 308.897 
L 561.035 223.446819 
Q 561.035 221.780819 559.369 221.780819 
L 481.914317 221.780819 
Q 480.248317 221.780819 480.248317 223.446819 
L 480.248317 308.897 
Q 480.248317 310.563 481.914317 310.563 
z
" style="fill: #ffffff; stroke: #cccccc; stroke-linejoin: miter"/>
    </g>
    <g id="line2d_82">
     <path d="M 483.580317 228.526817 
L 491.910317 228.526817 
L 500.240317 228.526817 
" style="fill: none; stroke: #000000; stroke-width: 1.5; stroke-linecap: square"/>
     <g>
      <use xlink:href="#mcb7ed6e05d" x="491.910317" y="228.526817" style="stroke: #000000"/>
     </g>
    </g>
    <g id="text_15">
     <!-- PGD -->
     <g transform="translate(506.904317 231.442317) scale(0.0833 -0.0833)">
      <defs>
       <path id="DejaVuSans-50" d="M 1259 4147 
L 1259 2394 
L 2053 2394 
Q 2494 2394 2734 2622 
Q 2975 2850 2975 3272 
Q 2975 3691 2734 3919 
Q 2494 4147 2053 4147 
L 1259 4147 
z
M 628 4666 
L 2053 4666 
Q 2838 4666 3239 4311 
Q 3641 3956 3641 3272 
Q 3641 2581 3239 2228 
Q 2838 1875 2053 1875 
L 1259 1875 
L 1259 0 
L 628 0 
L 628 4666 
z
" transform="scale(0.015625)"/>
       <path id="DejaVuSans-47" d="M 3809 666 
L 3809 1919 
L 2778 1919 
L 2778 2438 
L 4434 2438 
L 4434 434 
Q 4069 175 3628 42 
Q 3188 -91 2688 -91 
Q 1594 -91 976 548 
Q 359 1188 359 2328 
Q 359 3472 976 4111 
Q 1594 4750 2688 4750 
Q 3144 4750 3555 4637 
Q 3966 4525 4313 4306 
L 4313 3634 
Q 3963 3931 3569 4081 
Q 3175 4231 2741 4231 
Q 1884 4231 1454 3753 
Q 1025 3275 1025 2328 
Q 1025 1384 1454 906 
Q 1884 428 2741 428 
Q 3075 428 3337 486 
Q 3600 544 3809 666 
z
" transform="scale(0.015625)"/>
       <path id="DejaVuSans-44" d="M 1259 4147 
L 1259 519 
L 2022 519 
Q 2988 519 3436 956 
Q 3884 1394 3884 2338 
Q 3884 3275 3436 3711 
Q 2988 4147 2022 4147 
L 1259 4147 
z
M 628 4666 
L 1925 4666 
Q 3281 4666 3915 4102 
Q 4550 3538 4550 2338 
Q 4550 1131 3912 565 
Q 3275 0 1925 0 
L 628 0 
L 628 4666 
z
" transform="scale(0.015625)"/>
      </defs>
      <use xlink:href="#DejaVuSans-50"/>
      <use xlink:href="#DejaVuSans-47" transform="translate(60.302734 0)"/>
      <use xlink:href="#DejaVuSans-44" transform="translate(137.792969 0)"/>
     </g>
    </g>
    <g id="line2d_83">
     <path d="M 483.580317 240.753695 
L 491.910317 240.753695 
L 500.240317 240.753695 
" style="fill: none; stroke: #4b0082; stroke-width: 1.5; stroke-linecap: square"/>
     <g>
      <use xlink:href="#m48ae561590" x="491.910317" y="240.753695" style="fill: #4b0082; stroke: #4b0082; stroke-linejoin: miter"/>
     </g>
    </g>
    <g id="text_16">
     <!-- FISTA -->
     <g transform="translate(506.904317 243.669195) scale(0.0833 -0.0833)">
      <defs>
       <path id="DejaVuSans-46" d="M 628 4666 
L 3309 4666 
L 3309 4134 
L 1259 4134 
L 1259 2759 
L 3109 2759 
L 3109 2228 
L 1259 2228 
L 1259 0 
L 628 0 
L 628 4666 
z
" transform="scale(0.015625)"/>
       <path id="DejaVuSans-54" d="M -19 4666 
L 3928 4666 
L 3928 4134 
L 2272 4134 
L 2272 0 
L 1638 0 
L 1638 4134 
L -19 4134 
L -19 4666 
z
" transform="scale(0.015625)"/>
       <path id="DejaVuSans-41" d="M 2188 4044 
L 1331 1722 
L 3047 1722 
L 2188 4044 
z
M 1831 4666 
L 2547 4666 
L 4325 0 
L 3669 0 
L 3244 1197 
L 1141 1197 
L 716 0 
L 50 0 
L 1831 4666 
z
" transform="scale(0.015625)"/>
      </defs>
      <use xlink:href="#DejaVuSans-46"/>
      <use xlink:href="#DejaVuSans-49" transform="translate(57.519531 0)"/>
      <use xlink:href="#DejaVuSans-53" transform="translate(87.011719 0)"/>
      <use xlink:href="#DejaVuSans-54" transform="translate(150.488281 0)"/>
      <use xlink:href="#DejaVuSans-41" transform="translate(203.822266 0)"/>
     </g>
    </g>
    <g id="line2d_84">
     <path d="M 483.580317 252.980573 
L 491.910317 252.980573 
L 500.240317 252.980573 
" style="fill: none; stroke: #1f77b4; stroke-width: 1.5; stroke-linecap: square"/>
     <g>
      <use xlink:href="#m2939bdc6a7" x="491.910317" y="252.980573" style="fill: #1f77b4; stroke: #1f77b4; stroke-linejoin: miter"/>
     </g>
    </g>
    <g id="text_17">
     <!-- MOMENTUM -->
     <g transform="translate(506.904317 255.896073) scale(0.0833 -0.0833)">
      <defs>
       <path id="DejaVuSans-4f" d="M 2522 4238 
Q 1834 4238 1429 3725 
Q 1025 3213 1025 2328 
Q 1025 1447 1429 934 
Q 1834 422 2522 422 
Q 3209 422 3611 934 
Q 4013 1447 4013 2328 
Q 4013 3213 3611 3725 
Q 3209 4238 2522 4238 
z
M 2522 4750 
Q 3503 4750 4090 4092 
Q 4678 3434 4678 2328 
Q 4678 1225 4090 567 
Q 3503 -91 2522 -91 
Q 1538 -91 948 565 
Q 359 1222 359 2328 
Q 359 3434 948 4092 
Q 1538 4750 2522 4750 
z
" transform="scale(0.015625)"/>
       <path id="DejaVuSans-45" d="M 628 4666 
L 3578 4666 
L 3578 4134 
L 1259 4134 
L 1259 2753 
L 3481 2753 
L 3481 2222 
L 1259 2222 
L 1259 531 
L 3634 531 
L 3634 0 
L 628 0 
L 628 4666 
z
" transform="scale(0.015625)"/>
       <path id="DejaVuSans-4e" d="M 628 4666 
L 1478 4666 
L 3547 763 
L 3547 4666 
L 4159 4666 
L 4159 0 
L 3309 0 
L 1241 3903 
L 1241 0 
L 628 0 
L 628 4666 
z
" transform="scale(0.015625)"/>
       <path id="DejaVuSans-55" d="M 556 4666 
L 1191 4666 
L 1191 1831 
Q 1191 1081 1462 751 
Q 1734 422 2344 422 
Q 2950 422 3222 751 
Q 3494 1081 3494 1831 
L 3494 4666 
L 4128 4666 
L 4128 1753 
Q 4128 841 3676 375 
Q 3225 -91 2344 -91 
Q 1459 -91 1007 375 
Q 556 841 556 1753 
L 556 4666 
z
" transform="scale(0.015625)"/>
      </defs>
      <use xlink:href="#DejaVuSans-4d"/>
      <use xlink:href="#DejaVuSans-4f" transform="translate(86.279297 0)"/>
      <use xlink:href="#DejaVuSans-4d" transform="translate(164.990234 0)"/>
      <use xlink:href="#DejaVuSans-45" transform="translate(251.269531 0)"/>
      <use xlink:href="#DejaVuSans-4e" transform="translate(314.453125 0)"/>
      <use xlink:href="#DejaVuSans-54" transform="translate(389.257812 0)"/>
      <use xlink:href="#DejaVuSans-55" transform="translate(450.341797 0)"/>
      <use xlink:href="#DejaVuSans-4d" transform="translate(523.535156 0)"/>
     </g>
    </g>
    <g id="line2d_85">
     <path d="M 483.580317 265.207452 
L 491.910317 265.207452 
L 500.240317 265.207452 
" style="fill: none; stroke: #ff7f0e; stroke-width: 1.5; stroke-linecap: square"/>
     <g>
      <use xlink:href="#m3d50571549" x="491.910317" y="265.207452" style="fill: #ff7f0e; stroke: #ff7f0e; stroke-linejoin: miter"/>
     </g>
    </g>
    <g id="text_18">
     <!-- AA_M3 -->
     <g transform="translate(506.904317 268.122952) scale(0.0833 -0.0833)">
      <defs>
       <path id="DejaVuSans-5f" d="M 3263 -1063 
L 3263 -1509 
L -63 -1509 
L -63 -1063 
L 3263 -1063 
z
" transform="scale(0.015625)"/>
      </defs>
      <use xlink:href="#DejaVuSans-41"/>
      <use xlink:href="#DejaVuSans-41" transform="translate(71.158203 0)"/>
      <use xlink:href="#DejaVuSans-5f" transform="translate(139.566406 0)"/>
      <use xlink:href="#DejaVuSans-4d" transform="translate(189.566406 0)"/>
      <use xlink:href="#DejaVuSans-33" transform="translate(275.845703 0)"/>
     </g>
    </g>
    <g id="line2d_86">
     <path d="M 483.580317 277.666008 
L 491.910317 277.666008 
L 500.240317 277.666008 
" style="fill: none; stroke: #2ca02c; stroke-width: 1.5; stroke-linecap: square"/>
     <g>
      <use xlink:href="#mdce37f4ccc" x="491.910317" y="277.666008" style="fill: #2ca02c; stroke: #2ca02c; stroke-linejoin: miter"/>
     </g>
    </g>
    <g id="text_19">
     <!-- AA_M4 -->
     <g transform="translate(506.904317 280.581508) scale(0.0833 -0.0833)">
      <use xlink:href="#DejaVuSans-41"/>
      <use xlink:href="#DejaVuSans-41" transform="translate(71.158203 0)"/>
      <use xlink:href="#DejaVuSans-5f" transform="translate(139.566406 0)"/>
      <use xlink:href="#DejaVuSans-4d" transform="translate(189.566406 0)"/>
      <use xlink:href="#DejaVuSans-34" transform="translate(275.845703 0)"/>
     </g>
    </g>
    <g id="line2d_87">
     <path d="M 483.580317 290.124564 
L 491.910317 290.124564 
L 500.240317 290.124564 
" style="fill: none; stroke: #d62728; stroke-width: 1.5; stroke-linecap: square"/>
     <g>
      <use xlink:href="#m2d455c52ce" x="491.910317" y="290.124564" style="fill: #d62728; stroke: #d62728; stroke-linejoin: miter"/>
     </g>
    </g>
    <g id="text_20">
     <!-- AA_M5 -->
     <g transform="translate(506.904317 293.040064) scale(0.0833 -0.0833)">
      <defs>
       <path id="DejaVuSans-35" d="M 691 4666 
L 3169 4666 
L 3169 4134 
L 1269 4134 
L 1269 2991 
Q 1406 3038 1543 3061 
Q 1681 3084 1819 3084 
Q 2600 3084 3056 2656 
Q 3513 2228 3513 1497 
Q 3513 744 3044 326 
Q 2575 -91 1722 -91 
Q 1428 -91 1123 -41 
Q 819 9 494 109 
L 494 744 
Q 775 591 1075 516 
Q 1375 441 1709 441 
Q 2250 441 2565 725 
Q 2881 1009 2881 1497 
Q 2881 1984 2565 2268 
Q 2250 2553 1709 2553 
Q 1456 2553 1204 2497 
Q 953 2441 691 2322 
L 691 4666 
z
" transform="scale(0.015625)"/>
      </defs>
      <use xlink:href="#DejaVuSans-41"/>
      <use xlink:href="#DejaVuSans-41" transform="translate(71.158203 0)"/>
      <use xlink:href="#DejaVuSans-5f" transform="translate(139.566406 0)"/>
      <use xlink:href="#DejaVuSans-4d" transform="translate(189.566406 0)"/>
      <use xlink:href="#DejaVuSans-35" transform="translate(275.845703 0)"/>
     </g>
    </g>
    <g id="line2d_88">
     <path d="M 483.580317 302.58312 
L 491.910317 302.58312 
L 500.240317 302.58312 
" style="fill: none; stroke: #ff0000; stroke-width: 1.5; stroke-linecap: square"/>
    </g>
    <g id="text_21">
     <!-- RL AGENT -->
     <g transform="translate(506.904317 305.49862) scale(0.0833 -0.0833)">
      <defs>
       <path id="DejaVuSans-52" d="M 2841 2188 
Q 3044 2119 3236 1894 
Q 3428 1669 3622 1275 
L 4263 0 
L 3584 0 
L 2988 1197 
Q 2756 1666 2539 1819 
Q 2322 1972 1947 1972 
L 1259 1972 
L 1259 0 
L 628 0 
L 628 4666 
L 2053 4666 
Q 2853 4666 3247 4331 
Q 3641 3997 3641 3322 
Q 3641 2881 3436 2590 
Q 3231 2300 2841 2188 
z
M 1259 4147 
L 1259 2491 
L 2053 2491 
Q 2509 2491 2742 2702 
Q 2975 2913 2975 3322 
Q 2975 3731 2742 3939 
Q 2509 4147 2053 4147 
L 1259 4147 
z
" transform="scale(0.015625)"/>
      </defs>
      <use xlink:href="#DejaVuSans-52"/>
      <use xlink:href="#DejaVuSans-4c" transform="translate(69.482422 0)"/>
      <use xlink:href="#DejaVuSans-20" transform="translate(125.195312 0)"/>
      <use xlink:href="#DejaVuSans-41" transform="translate(156.982422 0)"/>
      <use xlink:href="#DejaVuSans-47" transform="translate(223.640625 0)"/>
      <use xlink:href="#DejaVuSans-45" transform="translate(301.130859 0)"/>
      <use xlink:href="#DejaVuSans-4e" transform="translate(364.314453 0)"/>
      <use xlink:href="#DejaVuSans-54" transform="translate(439.119141 0)"/>
     </g>
    </g>
   </g>
  </g>
 </g>
 <defs>
  <clipPath id="pcfeb579848">
   <rect x="54.11" y="26.88" width="511.09" height="287.848"/>
  </clipPath>
 </defs>
</svg>
