<?xml version="1.0" encoding="utf-8" standalone="no"?>
<!DOCTYPE svg PUBLIC "-//W3C//DTD SVG 1.1//EN"
  "http://www.w3.org/Graphics/SVG/1.1/DTD/svg11.dtd">
<svg xmlns:xlink="http://www.w3.org/1999/xlink" width="576pt" height="360pt" viewBox="0 0 576 360" xmlns="http://www.w3.org/2000/svg" version="1.1">
 <metadata>
  <rdf:RDF xmlns:dc="http://purl.org/dc/elements/1.1/" xmlns:cc="http://creativecommons.org/ns#" xmlns:rdf="http://www.w3.org/1999/02/22-rdf-syntax-ns#">
   <cc:Work>
    <dc:type rdf:resource="http://purl.org/dc/dcmitype/StillImage"/>
    <dc:date>2026-04-16T12:19:47.283175</dc:date>
    <dc:format>image/svg+xml</dc:format>
    <dc:creator>
     <cc:Agent>
      <dc:title>Matplotlib v3.10.3, https://matplotlib.org/</dc:title>
     </cc:Agent>
    </dc:creator>
   </cc:Work>
  </rdf:RDF>
 </metadata>
 <defs>
  <style type="text/css">*{stroke-linejoin: round; stroke-linecap: butt}</style>
 </defs>
 <g id="figure_1">
  <g id="patch_1">
   <path d="M 0 360 
L 576 360 
L 576 0 
L 0 0 
z
" style="fill: #ffffff"/>
  </g>
  <g id="axes_1">
   <g id="patch_2">
    <path d="M 44.66 314.728 
L 565.2 314.728 
L 565.2 26.88 
L 44.66 26.88 
z
" style="fill: #ffffff"/>
   </g>
   <g id="line2d_1">
    <path d="M -1 296.765688 
L 68.320909 296.763544 
L 115.812077 292.190513 
L 143.592629 287.901209 
L 163.303244 283.873931 
L 178.591985 280.088406 
L 191.083796 276.525597 
L 201.645472 273.168279 
L 210.794412 269.999794 
L 218.864349 267.005771 
L 226.083153 264.173456 
L 238.574964 258.946932 
L 249.13664 254.234465 
L 262.439292 247.973829 
L 276.917192 240.840979 
L 294.136068 232.079343 
L 321.065488 218.091468 
L 344.118975 205.898846 
L 359.407716 197.561801 
L 371.899527 190.49805 
L 382.461203 184.279387 
L 392.219171 178.279635 
L 401.292278 172.437592 
L 409.303175 167.020235 
L 417.739644 161.039613 
L 425.623651 155.173396 
L 433.361794 149.128814 
L 444.679508 140.330535 
L 449.575538 136.752974 
L 459.345121 129.981611 
L 463.752767 127.135019 
L 468.692944 124.25797 
L 474.770301 120.972797 
L 481.51495 117.584451 
L 488.403559 114.363903 
L 495.875106 111.127937 
L 504.167278 107.799268 
L 513.552478 104.267678 
L 521.714074 101.408903 
L 530.068391 98.710694 
L 539.52072 95.895512 
L 541.539091 95.321587 
L 541.539091 95.321587 
" clip-path="url(#p3a36d8b935)" style="fill: none; stroke: #000000; stroke-width: 1.5; stroke-linecap: square"/>
    <defs>
     <path id="m37c57f4294" d="M 0 3 
C 0.795609 3 1.55874 2.683901 2.12132 2.12132 
C 2.683901 1.55874 3 0.795609 3 0 
C 3 -0.795609 2.683901 -1.55874 2.12132 -2.12132 
C 1.55874 -2.683901 0.795609 -3 0 -3 
C -0.795609 -3 -1.55874 -2.683901 -2.12132 -2.12132 
C -2.683901 -1.55874 -3 -0.795609 -3 0 
C -3 0.795609 -2.683901 1.55874 -2.12132 2.12132 
C -1.55874 2.683901 -0.795609 3 0 3 
z
" style="stroke: #000000"/>
    </defs>
    <g clip-path="url(#p3a36d8b935)">
     <use xlink:href="#m37c57f4294" x="-1" y="296.765688" style="stroke: #000000"/>
     <use xlink:href="#m37c57f4294" x="68.320909" y="296.763544" style="stroke: #000000"/>
     <use xlink:href="#m37c57f4294" x="115.812077" y="292.190513" style="stroke: #000000"/>
     <use xlink:href="#m37c57f4294" x="178.591985" y="280.088406" style="stroke: #000000"/>
     <use xlink:href="#m37c57f4294" x="226.083153" y="264.173456" style="stroke: #000000"/>
     <use xlink:href="#m37c57f4294" x="283.150148" y="237.695908" style="stroke: #000000"/>
     <use xlink:href="#m37c57f4294" x="334.970035" y="210.775115" style="stroke: #000000"/>
     <use xlink:href="#m37c57f4294" x="386.532614" y="181.808179" style="stroke: #000000"/>
     <use xlink:href="#m37c57f4294" x="435.328874" y="147.581501" style="stroke: #000000"/>
     <use xlink:href="#m37c57f4294" x="485.513475" y="115.687262" style="stroke: #000000"/>
     <use xlink:href="#m37c57f4294" x="541.33303" y="95.379931" style="stroke: #000000"/>
    </g>
   </g>
   <g id="line2d_2">
    <path d="M -1 296.765688 
L 68.320909 296.763544 
L 115.812077 292.190513 
L 143.592629 286.710053 
L 163.303244 281.066553 
L 178.591985 275.559538 
L 191.083796 270.318737 
L 201.645472 265.394118 
L 210.794412 260.800529 
L 218.864349 256.530356 
L 232.613356 248.883733 
L 249.13664 239.298044 
L 327.595691 193.028555 
L 344.118975 182.705424 
L 359.407716 172.519541 
L 373.511725 162.336417 
L 387.837707 150.948432 
L 390.995651 148.301525 
L 394.014434 145.854396 
L 397.469717 143.041497 
L 401.292278 139.950107 
L 410.706267 132.953267 
L 418.570143 127.38096 
L 425.623651 123.046541 
L 427.460631 122.028895 
L 428.539634 121.391867 
L 429.601908 120.837834 
L 430.647963 120.232881 
L 431.678287 119.70921 
L 433.028385 118.988711 
L 434.679436 118.095939 
L 436.291634 117.283402 
L 438.794753 116.01182 
L 448.517366 111.398624 
L 448.783445 111.35351 
L 449.048495 111.162011 
L 449.312523 111.120609 
L 449.575538 110.928729 
L 449.837547 110.890563 
L 450.098558 110.698588 
L 450.358578 110.663182 
L 450.617615 110.471778 
L 450.875677 110.438561 
L 451.13277 110.247824 
L 451.388902 110.21651 
L 451.644081 110.02663 
L 451.898312 109.997124 
L 452.151603 109.8081 
L 452.403962 109.780784 
L 452.655395 109.59157 
L 452.905908 109.566633 
L 453.155508 109.377228 
L 453.404203 109.355052 
L 453.651998 109.164695 
L 453.8989 109.14604 
L 454.144916 108.954446 
L 454.390051 108.939218 
L 454.634313 108.746577 
L 454.877706 108.734965 
L 455.120238 108.541373 
L 455.361915 108.533378 
L 455.602742 108.338928 
L 455.842726 108.33436 
L 456.081872 108.138959 
L 456.320186 108.137436 
L 456.557675 107.941559 
L 456.794342 107.942606 
L 457.030195 107.746539 
L 457.26524 107.749394 
L 457.49948 107.553803 
L 457.732922 107.557991 
L 457.965572 107.363066 
L 458.197434 107.3683 
L 458.428515 107.174613 
L 458.658819 107.180228 
L 458.888351 106.988254 
L 459.117116 106.993203 
L 459.345121 106.803417 
L 459.572369 106.80751 
L 459.798866 106.620485 
L 460.024617 106.622959 
L 460.249626 106.43936 
L 460.473899 106.439646 
L 460.69744 106.259854 
L 460.920254 106.257284 
L 461.142346 106.081966 
L 461.36372 106.075779 
L 461.584381 105.905696 
L 461.804334 105.895702 
L 462.023583 105.730663 
L 462.242133 105.716672 
L 462.459988 105.557343 
L 462.677152 105.538403 
L 463.324545 105.214416 
L 463.752767 105.045094 
L 464.390123 104.836939 
L 465.021605 104.544266 
L 465.647319 104.326212 
L 466.677644 103.895626 
L 468.294598 103.274778 
L 477.618099 99.896616 
L 478.13913 99.743284 
L 478.656229 99.52761 
L 479.169455 99.387697 
L 479.678864 99.171357 
L 480.184514 99.040582 
L 480.68646 98.827669 
L 481.184755 98.701272 
L 481.679452 98.495592 
L 482.170603 98.367386 
L 482.658258 98.172652 
L 483.303113 97.963164 
L 484.100738 97.719984 
L 485.357935 97.308433 
L 487.049756 96.760111 
L 495.607467 94.259492 
L 496.274613 94.042391 
L 496.935324 93.87145 
L 497.849746 93.594101 
L 499.38948 93.164752 
L 501.758761 92.474709 
L 503.09391 92.10161 
L 503.6923 91.901355 
L 504.048842 91.823785 
L 504.403538 91.682921 
L 504.756407 91.611918 
L 505.107468 91.462393 
L 505.45674 91.398624 
L 505.80424 91.241199 
L 506.149986 91.184853 
L 506.493997 91.018577 
L 506.608284 91.040182 
L 506.950007 90.869242 
L 507.063537 90.892085 
L 507.403002 90.720574 
L 507.515784 90.742655 
L 507.853022 90.572286 
L 508.076928 90.497952 
L 508.411421 90.437323 
L 508.74429 90.27552 
L 509.075549 90.206421 
L 509.405214 90.052898 
L 509.733301 89.979135 
L 510.059823 89.83237 
L 510.384798 89.755276 
L 510.708238 89.612603 
L 511.030158 89.537317 
L 511.350573 89.397501 
L 511.669497 89.326688 
L 511.986943 89.192962 
L 512.302924 89.125291 
L 512.826344 88.9356 
L 513.345795 88.811488 
L 513.861337 88.641785 
L 514.168811 88.591245 
L 514.678221 88.435248 
L 514.982058 88.39632 
L 515.284554 88.297716 
L 515.585721 88.269257 
L 515.885569 88.169986 
L 516.184111 88.152474 
L 516.481358 88.0493 
L 516.777321 88.044161 
L 517.072011 87.936609 
L 517.365438 87.939369 
L 517.657615 87.833436 
L 517.948551 87.837624 
L 518.238256 87.743397 
L 518.526742 87.742541 
L 518.814018 87.666398 
L 519.100095 87.656975 
L 519.574251 87.577026 
L 520.41955 87.481752 
L 526.233202 86.876799 
L 526.489974 86.771722 
L 526.575351 86.834254 
L 526.830846 86.732604 
L 526.9158 86.792091 
L 527.170032 86.694913 
L 527.423323 86.730605 
L 527.675682 86.641138 
L 527.927114 86.669882 
L 528.177627 86.59155 
L 528.427228 86.611823 
L 528.675922 86.547958 
L 528.923718 86.557857 
L 529.334728 86.49561 
L 529.743288 86.476003 
L 530.391958 86.41804 
L 531.591906 86.338566 
L 532.458701 86.307728 
L 533.004642 86.259378 
L 533.546268 86.242055 
L 534.083645 86.192848 
L 534.692674 86.160773 
L 535.894727 86.09767 
L 536.856101 86.032282 
L 537.222298 86.034852 
L 537.586548 85.984693 
L 537.804172 86.011343 
L 538.021107 85.958614 
L 538.237358 85.996971 
L 538.452927 85.939008 
L 538.667821 85.986026 
L 538.882043 85.927586 
L 539.095598 85.980696 
L 539.308488 85.918449 
L 539.52072 85.977365 
L 539.732295 85.906933 
L 539.94322 85.972035 
L 540.153497 85.893703 
L 540.363131 85.964991 
L 540.572125 85.882186 
L 540.780484 85.955759 
L 540.988211 85.874001 
L 541.195311 85.94034 
L 541.401786 85.866863 
L 541.539091 85.864102 
L 541.539091 85.864102 
" clip-path="url(#p3a36d8b935)" style="fill: none; stroke: #4b0082; stroke-width: 1.5; stroke-linecap: square"/>
    <defs>
     <path id="m9daa769970" d="M -3 3 
L 3 3 
L 3 -3 
L -3 -3 
z
" style="stroke: #4b0082; stroke-linejoin: miter"/>
    </defs>
    <g clip-path="url(#p3a36d8b935)">
     <use xlink:href="#m9daa769970" x="-1" y="296.765688" style="fill: #4b0082; stroke: #4b0082; stroke-linejoin: miter"/>
     <use xlink:href="#m9daa769970" x="68.320909" y="296.763544" style="fill: #4b0082; stroke: #4b0082; stroke-linejoin: miter"/>
     <use xlink:href="#m9daa769970" x="115.812077" y="292.190513" style="fill: #4b0082; stroke: #4b0082; stroke-linejoin: miter"/>
     <use xlink:href="#m9daa769970" x="178.591985" y="275.559538" style="fill: #4b0082; stroke: #4b0082; stroke-linejoin: miter"/>
     <use xlink:href="#m9daa769970" x="226.083153" y="252.565705" style="fill: #4b0082; stroke: #4b0082; stroke-linejoin: miter"/>
     <use xlink:href="#m9daa769970" x="276.917192" y="222.931093" style="fill: #4b0082; stroke: #4b0082; stroke-linejoin: miter"/>
     <use xlink:href="#m9daa769970" x="327.595691" y="193.028555" style="fill: #4b0082; stroke: #4b0082; stroke-linejoin: miter"/>
     <use xlink:href="#m9daa769970" x="376.626592" y="159.961624" style="fill: #4b0082; stroke: #4b0082; stroke-linejoin: miter"/>
     <use xlink:href="#m9daa769970" x="424.11776" y="123.927416" style="fill: #4b0082; stroke: #4b0082; stroke-linejoin: miter"/>
     <use xlink:href="#m9daa769970" x="477.443538" y="99.98418" style="fill: #4b0082; stroke: #4b0082; stroke-linejoin: miter"/>
     <use xlink:href="#m9daa769970" x="531.829394" y="86.338376" style="fill: #4b0082; stroke: #4b0082; stroke-linejoin: miter"/>
    </g>
   </g>
   <g id="line2d_3">
    <path d="M -1 296.765688 
L 68.320909 296.763544 
L 115.812077 288.164758 
L 143.592629 280.566201 
L 163.303244 273.824628 
L 178.591985 267.810409 
L 191.083796 262.417132 
L 201.645472 257.558852 
L 218.864349 249.156514 
L 232.613356 242.133119 
L 258.285579 228.64731 
L 299.032099 206.959894 
L 315.723932 197.82554 
L 326.020558 192.009767 
L 333.557299 187.646319 
L 348.84604 178.349686 
L 358.421868 172.188511 
L 366.821999 166.493804 
L 375.086858 160.595892 
L 383.845397 153.966535 
L 395.763855 144.51362 
L 398.583811 142.334228 
L 401.292278 140.208421 
L 404.912794 137.547808 
L 407.386539 135.746464 
L 409.774072 134.079416 
L 412.081201 132.432071 
L 415.185984 130.280471 
L 418.156152 128.240895 
L 424.497347 124.332685 
L 429.95237 121.250527 
L 441.800291 115.1871 
L 452.655395 110.148743 
L 462.459988 105.984408 
L 463.965879 105.393066 
L 465.854627 104.633162 
L 478.484296 99.949059 
L 479.339679 99.673899 
L 480.519553 99.248452 
L 481.679452 98.874591 
L 482.658258 98.546702 
L 483.623278 98.225856 
L 484.73222 97.842193 
L 485.823499 97.503548 
L 486.897669 97.139396 
L 487.955257 96.815219 
L 489.291459 96.38035 
L 491.033466 95.834883 
L 501.266728 92.748061 
L 501.881219 92.589114 
L 502.973602 92.268268 
L 511.563354 89.768886 
L 512.092432 89.582717 
L 512.407929 89.517711 
L 512.93055 89.326307 
L 513.242219 89.26092 
L 513.552478 89.128622 
L 513.861337 89.06333 
L 514.168811 88.929319 
L 514.474911 88.863265 
L 514.982058 88.671576 
L 515.284554 88.606759 
L 515.785766 88.432678 
L 516.283337 88.31361 
L 516.973922 88.121065 
L 517.851709 87.934515 
L 518.814018 87.743302 
L 519.857178 87.547711 
L 520.512831 87.454055 
L 521.16227 87.327278 
L 521.622414 87.279689 
L 522.079489 87.18175 
L 522.533535 87.141871 
L 522.984592 87.049072 
L 523.432699 87.01062 
L 523.877894 86.933525 
L 524.672027 86.841678 
L 528.841219 86.382253 
L 529.088418 86.397767 
L 529.334728 86.33552 
L 529.580156 86.357031 
L 529.824708 86.292309 
L 530.068391 86.314867 
L 530.311209 86.251097 
L 530.553171 86.273464 
L 530.79428 86.211408 
L 531.034545 86.229682 
L 531.273969 86.171814 
L 531.51256 86.183616 
L 531.829394 86.152588 
L 532.223388 86.092816 
L 532.615128 86.0793 
L 533.15983 86.016863 
L 533.700235 85.987834 
L 534.388836 85.920829 
L 535.371422 85.84935 
L 537.222298 85.702394 
L 538.596265 85.631867 
L 541.539091 85.437037 
L 541.539091 85.437037 
" clip-path="url(#p3a36d8b935)" style="fill: none; stroke: #1f77b4; stroke-width: 1.5; stroke-linecap: square"/>
    <defs>
     <path id="m390a2e75e2" d="M -0 3 
L 3 -3 
L -3 -3 
z
" style="stroke: #1f77b4; stroke-linejoin: miter"/>
    </defs>
    <g clip-path="url(#p3a36d8b935)">
     <use xlink:href="#m390a2e75e2" x="-1" y="296.765688" style="fill: #1f77b4; stroke: #1f77b4; stroke-linejoin: miter"/>
     <use xlink:href="#m390a2e75e2" x="68.320909" y="296.763544" style="fill: #1f77b4; stroke: #1f77b4; stroke-linejoin: miter"/>
     <use xlink:href="#m390a2e75e2" x="115.812077" y="288.164758" style="fill: #1f77b4; stroke: #1f77b4; stroke-linejoin: miter"/>
     <use xlink:href="#m390a2e75e2" x="163.303244" y="273.824628" style="fill: #1f77b4; stroke: #1f77b4; stroke-linejoin: miter"/>
     <use xlink:href="#m390a2e75e2" x="226.083153" y="245.495387" style="fill: #1f77b4; stroke: #1f77b4; stroke-linejoin: miter"/>
     <use xlink:href="#m390a2e75e2" x="276.917192" y="218.768757" style="fill: #1f77b4; stroke: #1f77b4; stroke-linejoin: miter"/>
     <use xlink:href="#m390a2e75e2" x="329.135425" y="190.214609" style="fill: #1f77b4; stroke: #1f77b4; stroke-linejoin: miter"/>
     <use xlink:href="#m390a2e75e2" x="378.132483" y="158.339216" style="fill: #1f77b4; stroke: #1f77b4; stroke-linejoin: miter"/>
     <use xlink:href="#m390a2e75e2" x="426.364363" y="123.252317" style="fill: #1f77b4; stroke: #1f77b4; stroke-linejoin: miter"/>
     <use xlink:href="#m390a2e75e2" x="480.68646" y="99.21" style="fill: #1f77b4; stroke: #1f77b4; stroke-linejoin: miter"/>
     <use xlink:href="#m390a2e75e2" x="537.149215" y="85.714672" style="fill: #1f77b4; stroke: #1f77b4; stroke-linejoin: miter"/>
    </g>
   </g>
   <g id="line2d_4">
    <path d="M -1 296.765688 
L 68.320909 296.763544 
L 115.812077 292.190513 
L 143.592629 248.757241 
L 163.303244 243.78865 
L 178.591985 237.038226 
L 191.083796 232.084959 
L 201.645472 226.736892 
L 218.864349 215.760457 
L 226.083153 211.386635 
L 238.574964 204.50182 
L 244.059112 201.585081 
L 253.863705 195.801764 
L 262.439292 190.49272 
L 276.917192 181.183333 
L 280.104523 179.183162 
L 294.136068 168.738584 
L 301.354873 162.583786 
L 303.601476 160.520511 
L 309.930459 155.286277 
L 313.846684 152.828298 
L 315.723932 151.5156 
L 319.330832 149.53494 
L 322.757309 147.916148 
L 324.408359 147.240763 
L 333.557299 144.425104 
L 341.627236 141.065311 
L 342.884432 140.624826 
L 345.331666 140.111434 
L 348.84604 139.760131 
L 357.421627 138.891344 
L 360.37958 138.365008 
L 361.337851 138.063959 
L 362.282904 137.565511 
L 363.215099 136.838444 
L 364.134781 136.410047 
L 365.042282 135.66423 
L 365.937919 135.43228 
L 366.821999 134.686273 
L 367.694817 134.517617 
L 370.248477 132.453771 
L 371.899527 130.969752 
L 372.710368 130.342337 
L 373.511725 129.941065 
L 375.086858 129.551215 
L 378.873196 129.141948 
L 403.384509 126.703195 
L 405.913035 126.246435 
L 406.898883 125.809091 
L 407.870748 124.819617 
L 408.351558 124.806197 
L 408.829019 124.214188 
L 409.303175 124.110539 
L 409.774072 123.676241 
L 410.706267 123.045494 
L 412.081201 122.01005 
L 412.982731 121.16658 
L 415.618259 118.195781 
L 418.570143 115.762548 
L 419.390695 115.34424 
L 420.201536 115.16007 
L 436.291634 113.524336 
L 452.403962 111.707478 
L 468.49406 109.696075 
L 485.045792 107.423313 
L 499.89513 105.167779 
L 517.948551 102.202309 
L 541.539091 98.057676 
L 541.539091 98.057676 
" clip-path="url(#p3a36d8b935)" style="fill: none; stroke: #ff7f0e; stroke-width: 1.5; stroke-linecap: square"/>
    <defs>
     <path id="m3a555e1cc1" d="M -0 3 
L 3 -3 
L -3 -3 
z
" style="stroke: #ff7f0e; stroke-linejoin: miter"/>
    </defs>
    <g clip-path="url(#p3a36d8b935)">
     <use xlink:href="#m3a555e1cc1" x="-1" y="296.765688" style="fill: #ff7f0e; stroke: #ff7f0e; stroke-linejoin: miter"/>
     <use xlink:href="#m3a555e1cc1" x="68.320909" y="296.763544" style="fill: #ff7f0e; stroke: #ff7f0e; stroke-linejoin: miter"/>
     <use xlink:href="#m3a555e1cc1" x="115.812077" y="292.190513" style="fill: #ff7f0e; stroke: #ff7f0e; stroke-linejoin: miter"/>
     <use xlink:href="#m3a555e1cc1" x="143.592629" y="248.757241" style="fill: #ff7f0e; stroke: #ff7f0e; stroke-linejoin: miter"/>
     <use xlink:href="#m3a555e1cc1" x="201.645472" y="226.736892" style="fill: #ff7f0e; stroke: #ff7f0e; stroke-linejoin: miter"/>
     <use xlink:href="#m3a555e1cc1" x="253.863705" y="195.801764" style="fill: #ff7f0e; stroke: #ff7f0e; stroke-linejoin: miter"/>
     <use xlink:href="#m3a555e1cc1" x="303.601476" y="160.520511" style="fill: #ff7f0e; stroke: #ff7f0e; stroke-linejoin: miter"/>
     <use xlink:href="#m3a555e1cc1" x="357.421627" y="138.891344" style="fill: #ff7f0e; stroke: #ff7f0e; stroke-linejoin: miter"/>
     <use xlink:href="#m3a555e1cc1" x="412.533449" y="121.615917" style="fill: #ff7f0e; stroke: #ff7f0e; stroke-linejoin: miter"/>
     <use xlink:href="#m3a555e1cc1" x="468.891252" y="109.644013" style="fill: #ff7f0e; stroke: #ff7f0e; stroke-linejoin: miter"/>
     <use xlink:href="#m3a555e1cc1" x="527.759595" y="100.498333" style="fill: #ff7f0e; stroke: #ff7f0e; stroke-linejoin: miter"/>
    </g>
   </g>
   <g id="line2d_5">
    <path d="M -1 296.765688 
L 68.320909 296.763544 
L 115.812077 292.190513 
L 143.592629 248.757241 
L 163.303244 243.78865 
L 178.591985 236.800757 
L 191.083796 232.536294 
L 201.645472 226.831975 
L 218.864349 216.089203 
L 226.083153 211.789049 
L 238.574964 205.213277 
L 244.059112 202.635469 
L 253.863705 197.071442 
L 258.285579 194.500867 
L 266.355516 189.413303 
L 276.917192 182.435784 
L 280.104523 180.061753 
L 283.150148 177.613196 
L 286.066131 175.509376 
L 288.863062 173.235281 
L 291.550279 171.197705 
L 299.032099 164.63364 
L 301.354873 162.729028 
L 303.601476 160.513087 
L 307.885075 156.770011 
L 309.930459 155.47435 
L 311.916548 153.938934 
L 313.846684 153.011326 
L 315.723932 151.522928 
L 317.551114 150.794339 
L 319.330832 149.70588 
L 326.020558 147.050977 
L 330.641315 145.867721 
L 334.970035 144.467934 
L 344.118975 140.800715 
L 346.523266 140.37622 
L 349.97855 140.092494 
L 356.406567 139.538461 
L 359.407716 139.171168 
L 361.337851 138.714408 
L 362.282904 138.312946 
L 364.134781 137.051929 
L 365.042282 136.658462 
L 365.937919 135.693735 
L 366.821999 135.887613 
L 367.694817 134.71968 
L 368.556656 134.79173 
L 373.511725 130.593512 
L 375.086858 129.975519 
L 377.383675 129.547788 
L 382.461203 129.149277 
L 407.870748 127.126072 
L 410.241755 126.765347 
L 411.167651 126.3695 
L 411.625949 125.872955 
L 412.081201 125.214036 
L 412.533449 125.313973 
L 412.982731 124.660384 
L 413.429086 124.715492 
L 413.872552 124.10283 
L 414.313167 124.0363 
L 414.750965 123.53709 
L 415.185984 123.311327 
L 416.898955 121.763919 
L 418.570143 119.761558 
L 419.390695 118.684807 
L 423.352218 114.680371 
L 426.364363 112.751108 
L 427.460631 112.376296 
L 428.895558 112.155577 
L 466.06131 108.937219 
L 485.668662 106.870899 
L 499.516242 105.185006 
L 519.574251 102.46405 
L 537.002815 99.823233 
L 541.539091 99.105018 
L 541.539091 99.105018 
" clip-path="url(#p3a36d8b935)" style="fill: none; stroke: #2ca02c; stroke-width: 1.5; stroke-linecap: square"/>
    <defs>
     <path id="m52e0ff5566" d="M -0 3 
L 3 -3 
L -3 -3 
z
" style="stroke: #2ca02c; stroke-linejoin: miter"/>
    </defs>
    <g clip-path="url(#p3a36d8b935)">
     <use xlink:href="#m52e0ff5566" x="-1" y="296.765688" style="fill: #2ca02c; stroke: #2ca02c; stroke-linejoin: miter"/>
     <use xlink:href="#m52e0ff5566" x="68.320909" y="296.763544" style="fill: #2ca02c; stroke: #2ca02c; stroke-linejoin: miter"/>
     <use xlink:href="#m52e0ff5566" x="115.812077" y="292.190513" style="fill: #2ca02c; stroke: #2ca02c; stroke-linejoin: miter"/>
     <use xlink:href="#m52e0ff5566" x="143.592629" y="248.757241" style="fill: #2ca02c; stroke: #2ca02c; stroke-linejoin: miter"/>
     <use xlink:href="#m52e0ff5566" x="201.645472" y="226.831975" style="fill: #2ca02c; stroke: #2ca02c; stroke-linejoin: miter"/>
     <use xlink:href="#m52e0ff5566" x="253.863705" y="197.071442" style="fill: #2ca02c; stroke: #2ca02c; stroke-linejoin: miter"/>
     <use xlink:href="#m52e0ff5566" x="303.601476" y="160.513087" style="fill: #2ca02c; stroke: #2ca02c; stroke-linejoin: miter"/>
     <use xlink:href="#m52e0ff5566" x="357.421627" y="139.425675" style="fill: #2ca02c; stroke: #2ca02c; stroke-linejoin: miter"/>
     <use xlink:href="#m52e0ff5566" x="412.533449" y="125.313973" style="fill: #2ca02c; stroke: #2ca02c; stroke-linejoin: miter"/>
     <use xlink:href="#m52e0ff5566" x="466.677644" y="108.875639" style="fill: #2ca02c; stroke: #2ca02c; stroke-linejoin: miter"/>
     <use xlink:href="#m52e0ff5566" x="525.716752" y="101.564234" style="fill: #2ca02c; stroke: #2ca02c; stroke-linejoin: miter"/>
    </g>
   </g>
   <g id="line2d_6">
    <path d="M -1 296.765688 
L 68.320909 296.763544 
L 115.812077 292.190513 
L 143.592629 248.757241 
L 163.303244 243.78865 
L 178.591985 236.800757 
L 191.083796 232.507741 
L 201.645472 227.183183 
L 210.794412 221.648471 
L 218.864349 216.615825 
L 226.083153 212.270936 
L 238.574964 205.29218 
L 244.059112 202.518875 
L 249.13664 199.240555 
L 253.863705 196.502847 
L 280.104523 180.061943 
L 283.150148 177.504693 
L 286.066131 175.694402 
L 288.863062 173.273067 
L 291.550279 171.62496 
L 294.136068 169.059144 
L 296.627807 167.742067 
L 299.032099 165.046048 
L 301.354873 163.950641 
L 303.601476 161.243771 
L 305.776747 160.033008 
L 307.885075 157.528582 
L 309.930459 156.59574 
L 311.916548 154.802296 
L 313.846684 153.877449 
L 315.723932 152.458531 
L 317.551114 151.512459 
L 319.330832 150.423619 
L 324.408359 148.175413 
L 326.020558 147.589782 
L 329.135425 146.76963 
L 333.557299 145.721813 
L 336.354229 144.873203 
L 339.041447 143.768659 
L 342.884432 142.009289 
L 344.118975 141.690347 
L 345.331666 141.11547 
L 346.523266 140.970894 
L 348.84604 140.535168 
L 353.267914 140.20804 
L 357.421627 139.827042 
L 360.37958 139.40426 
L 361.337851 139.164601 
L 362.282904 138.802543 
L 363.215099 138.302857 
L 364.134781 137.604058 
L 365.937919 136.540346 
L 366.821999 135.675365 
L 367.694817 136.018578 
L 368.556656 134.767174 
L 369.407788 134.616983 
L 370.248477 134.020977 
L 371.899527 132.38886 
L 372.710368 131.569375 
L 374.303818 130.447033 
L 375.861051 129.89576 
L 378.873196 129.447185 
L 396.905802 128.362533 
L 410.241755 127.449393 
L 414.750965 127.0071 
L 416.047823 126.684064 
L 416.474711 126.372832 
L 417.320589 125.288846 
L 417.739644 125.319208 
L 418.156152 124.515332 
L 418.570143 124.839605 
L 418.981647 124.138617 
L 419.390695 123.945976 
L 419.797315 123.507394 
L 420.201536 123.26193 
L 422.578026 120.533073 
L 423.352218 119.522851 
L 424.497347 118.046827 
L 428.181851 114.272913 
L 429.249643 113.477508 
L 430.301049 112.664971 
L 432.018314 111.63676 
L 433.028385 111.041515 
L 435.328874 110.064415 
L 436.926039 109.605466 
L 438.177495 109.481258 
L 451.644081 108.627033 
L 471.227226 107.196884 
L 490.167999 105.539926 
L 504.638986 104.052194 
L 528.510226 101.231681 
L 541.539091 99.454037 
L 541.539091 99.454037 
" clip-path="url(#p3a36d8b935)" style="fill: none; stroke: #d62728; stroke-width: 1.5; stroke-linecap: square"/>
    <defs>
     <path id="m8e81d84bd2" d="M -0 3 
L 3 -3 
L -3 -3 
z
" style="stroke: #d62728; stroke-linejoin: miter"/>
    </defs>
    <g clip-path="url(#p3a36d8b935)">
     <use xlink:href="#m8e81d84bd2" x="-1" y="296.765688" style="fill: #d62728; stroke: #d62728; stroke-linejoin: miter"/>
     <use xlink:href="#m8e81d84bd2" x="68.320909" y="296.763544" style="fill: #d62728; stroke: #d62728; stroke-linejoin: miter"/>
     <use xlink:href="#m8e81d84bd2" x="115.812077" y="292.190513" style="fill: #d62728; stroke: #d62728; stroke-linejoin: miter"/>
     <use xlink:href="#m8e81d84bd2" x="143.592629" y="248.757241" style="fill: #d62728; stroke: #d62728; stroke-linejoin: miter"/>
     <use xlink:href="#m8e81d84bd2" x="201.645472" y="227.183183" style="fill: #d62728; stroke: #d62728; stroke-linejoin: miter"/>
     <use xlink:href="#m8e81d84bd2" x="253.863705" y="196.502847" style="fill: #d62728; stroke: #d62728; stroke-linejoin: miter"/>
     <use xlink:href="#m8e81d84bd2" x="303.601476" y="161.243771" style="fill: #d62728; stroke: #d62728; stroke-linejoin: miter"/>
     <use xlink:href="#m8e81d84bd2" x="357.421627" y="139.827042" style="fill: #d62728; stroke: #d62728; stroke-linejoin: miter"/>
     <use xlink:href="#m8e81d84bd2" x="413.429086" y="127.170425" style="fill: #d62728; stroke: #d62728; stroke-linejoin: miter"/>
     <use xlink:href="#m8e81d84bd2" x="465.230812" y="107.666589" style="fill: #d62728; stroke: #d62728; stroke-linejoin: miter"/>
     <use xlink:href="#m8e81d84bd2" x="524.496346" y="101.744121" style="fill: #d62728; stroke: #d62728; stroke-linejoin: miter"/>
    </g>
   </g>
   <g id="line2d_7">
    <path d="M -1 278.059959 
L 68.320909 278.049592 
L 115.812077 261.378451 
L 143.592629 225.532506 
L 163.303244 208.157807 
L 178.591985 201.118898 
L 191.083796 200.931397 
L 201.645472 200.018923 
L 210.794412 198.648356 
L 218.864349 195.702017 
L 226.083153 191.823598 
L 232.613356 188.687474 
L 238.574964 194.549218 
L 244.059112 194.379325 
L 249.13664 195.220796 
L 253.863705 192.877792 
L 258.285579 190.262198 
L 262.439292 188.284013 
L 266.355516 195.970134 
L 270.059946 193.759143 
L 273.57432 190.68498 
L 276.917192 188.712886 
L 280.104523 188.535474 
L 283.150148 183.913617 
L 286.066131 182.228581 
L 288.863062 188.69328 
L 291.550279 167.561229 
L 294.136068 168.988903 
L 296.627807 171.183809 
L 299.032099 172.752823 
L 301.354873 177.74321 
L 303.601476 170.768165 
L 305.776747 172.512973 
L 307.885075 175.392973 
L 309.930459 173.898864 
L 311.916548 171.049512 
L 313.846684 169.536749 
L 315.723932 171.192946 
L 317.551114 168.694612 
L 319.330832 171.86519 
L 321.065488 170.402966 
L 322.757309 162.804695 
L 324.408359 146.670645 
L 326.020558 146.647802 
L 327.595691 148.152285 
L 329.135425 151.096435 
L 330.641315 160.888946 
L 332.114819 154.187825 
L 333.557299 155.37327 
L 334.970035 146.928102 
L 336.354229 142.745398 
L 339.041447 141.619439 
L 340.346539 140.590752 
L 341.627236 140.802238 
L 342.884432 136.142025 
L 344.118975 135.439228 
L 345.331666 132.448727 
L 346.523266 132.515352 
L 347.694496 130.429425 
L 348.84604 131.025145 
L 349.97855 129.841699 
L 351.092644 130.68593 
L 352.188912 130.348618 
L 353.267914 130.492242 
L 354.330188 130.147792 
L 355.376243 129.366569 
L 356.406567 128.137627 
L 357.421627 128.171415 
L 358.421868 124.093883 
L 359.407716 124.094644 
L 360.37958 121.526164 
L 362.282904 120.835931 
L 363.215099 120.323872 
L 364.134781 120.131611 
L 365.042282 119.2021 
L 365.937919 118.455617 
L 366.821999 117.348504 
L 367.694817 115.552014 
L 368.556656 125.900462 
L 369.407788 117.10104 
L 370.248477 116.117182 
L 371.078975 118.435725 
L 371.899527 116.427178 
L 372.710368 115.640244 
L 374.303818 113.335312 
L 375.086858 113.191402 
L 375.861051 112.105418 
L 376.626592 112.188414 
L 377.383675 112.416651 
L 378.132483 112.024421 
L 378.873196 111.876705 
L 379.605987 110.588848 
L 380.331023 109.987416 
L 381.048467 110.118762 
L 385.870626 109.178972 
L 386.532614 108.842897 
L 387.188268 108.303046 
L 387.837707 108.248509 
L 388.481047 107.63775 
L 389.118403 107.250565 
L 389.749885 106.140501 
L 390.3756 105.641862 
L 390.995651 103.836044 
L 391.610142 102.900728 
L 392.219171 108.257265 
L 392.822834 108.492165 
L 393.421224 106.3004 
L 394.014434 105.814325 
L 394.602551 106.206269 
L 395.185663 106.152303 
L 395.763855 105.857536 
L 396.337208 105.366797 
L 396.905802 105.301314 
L 397.469717 104.877199 
L 398.029029 105.010164 
L 398.583811 104.66381 
L 399.134138 104.488587 
L 399.680079 103.848893 
L 400.221705 103.407457 
L 400.759082 102.527248 
L 401.292278 101.867758 
L 401.821356 102.527438 
L 402.346379 102.5736 
L 403.384509 101.385109 
L 403.897735 101.207506 
L 404.407144 101.410045 
L 404.912794 101.232157 
L 405.41474 100.912073 
L 405.913035 99.86416 
L 406.407732 101.125843 
L 406.898883 100.415242 
L 407.386539 100.753791 
L 407.870748 99.974662 
L 408.351558 101.023717 
L 408.829019 100.177963 
L 409.303175 94.614507 
L 409.774072 99.088743 
L 410.241755 97.024611 
L 411.167651 98.02246 
L 411.625949 97.529247 
L 412.081201 97.681722 
L 412.533449 97.484418 
L 412.982731 94.894331 
L 413.429086 94.214949 
L 413.872552 96.39396 
L 414.313167 96.610205 
L 414.750965 95.6707 
L 415.185984 96.479049 
L 415.618259 95.286275 
L 416.047823 94.890905 
L 416.474711 94.91232 
L 416.898955 94.251497 
L 417.320589 93.144764 
L 417.739644 96.235108 
L 418.156152 97.622902 
L 418.981647 92.271218 
L 419.390695 92.024897 
L 419.797315 91.21788 
L 420.201536 92.901298 
L 420.603386 95.828792 
L 421.400084 93.755333 
L 421.794986 94.712731 
L 422.578026 93.899433 
L 422.966216 95.273046 
L 423.352218 94.296421 
L 423.736058 86.478668 
L 424.11776 89.535414 
L 424.497347 89.488015 
L 425.250269 87.868176 
L 425.623651 88.553174 
L 425.995008 87.306053 
L 426.364363 87.050119 
L 426.731738 86.165437 
L 427.097154 86.059123 
L 427.460631 85.657946 
L 427.82219 84.766221 
L 428.181851 84.490204 
L 428.539634 86.082156 
L 429.601908 84.380844 
L 429.95237 84.819902 
L 430.301049 82.512495 
L 430.647963 83.589437 
L 430.993129 83.776748 
L 431.336564 83.172937 
L 431.678287 82.967256 
L 432.018314 82.044979 
L 432.356662 82.094377 
L 432.693347 80.839165 
L 433.028385 80.8523 
L 433.361794 81.653891 
L 433.693587 80.772921 
L 434.023782 81.021527 
L 434.352393 80.201947 
L 434.679436 79.865587 
L 435.004924 82.004148 
L 435.328874 81.766107 
L 435.6513 80.516702 
L 435.972215 81.392246 
L 436.609571 80.047092 
L 436.926039 76.177334 
L 437.241053 78.284771 
L 437.554624 77.500217 
L 437.866767 77.060398 
L 438.486819 75.906076 
L 438.794753 73.884584 
L 439.10131 80.417621 
L 439.710339 73.978525 
L 440.314001 70.604265 
L 440.912392 72.561035 
L 441.209638 72.380768 
L 441.505601 71.750973 
L 441.800291 73.731728 
L 442.093719 70.473395 
L 442.385895 69.92593 
L 442.676831 68.453617 
L 443.255022 69.958481 
L 443.542299 69.141661 
L 443.828375 69.0343 
L 444.113262 68.114877 
L 444.679508 67.287588 
L 444.960885 67.753866 
L 445.241111 67.634893 
L 445.520196 67.793651 
L 445.798149 67.631372 
L 446.074979 67.329181 
L 446.350695 67.403705 
L 446.625305 67.205639 
L 446.89882 67.2222 
L 447.171247 68.640737 
L 447.442595 67.947459 
L 448.517366 67.735782 
L 449.048495 67.516111 
L 449.312523 67.313476 
L 449.575538 67.455292 
L 449.837547 67.083811 
L 450.358578 67.286827 
L 450.617615 66.945232 
L 450.875677 66.817027 
L 451.13277 66.90678 
L 451.388902 66.750402 
L 451.644081 66.817122 
L 451.898312 66.439645 
L 452.151603 66.555857 
L 452.403962 66.178761 
L 452.655395 67.130163 
L 452.905908 66.679589 
L 453.155508 66.824926 
L 453.651998 66.321814 
L 453.8989 63.555362 
L 454.144916 62.885878 
L 454.390051 62.789558 
L 454.634313 62.433972 
L 454.877706 63.2684 
L 455.120238 62.320139 
L 455.361915 60.135893 
L 455.602742 61.767914 
L 455.842726 60.804901 
L 456.320186 61.337042 
L 456.794342 61.038849 
L 457.030195 61.115372 
L 457.49948 61.00192 
L 457.732922 60.778441 
L 457.965572 60.903029 
L 458.428515 60.77768 
L 458.658819 60.875618 
L 458.888351 60.77273 
L 459.345121 60.044712 
L 459.798866 59.755655 
L 460.024617 60.293127 
L 460.249626 60.020346 
L 460.473899 60.069363 
L 461.142346 59.887097 
L 461.804334 59.786779 
L 462.677152 59.648199 
L 462.89363 59.620502 
L 463.109426 59.32583 
L 463.324545 60.720953 
L 463.538991 58.93617 
L 463.965879 58.384137 
L 464.178329 56.680065 
L 464.390123 56.421751 
L 464.811757 57.644125 
L 465.021605 57.59073 
L 465.230812 57.724361 
L 465.439382 57.53172 
L 466.06131 57.794983 
L 468.094553 56.685966 
L 468.294598 56.45078 
L 468.49406 57.375818 
L 469.088987 56.754304 
L 469.286153 55.937769 
L 469.482754 56.464771 
L 469.678792 56.541676 
L 469.874271 56.317245 
L 470.069194 56.265944 
L 470.263563 56.3734 
L 470.650656 56.294022 
L 470.843386 55.99935 
L 471.035575 56.263945 
L 471.608927 56.176096 
L 471.798984 56.41585 
L 471.988514 56.125746 
L 472.177522 56.158393 
L 472.36601 55.838308 
L 472.553981 56.045035 
L 472.928382 56.003823 
L 474.039465 55.972509 
L 474.588322 55.297886 
L 475.132817 55.227168 
L 475.313358 54.888239 
L 475.493424 54.83827 
L 475.673019 55.06765 
L 476.030802 54.883956 
L 477.093075 54.737667 
L 477.443538 54.714824 
L 477.618099 54.67561 
L 477.965893 54.148323 
L 478.13913 54.478972 
L 478.311931 54.281953 
L 478.484296 54.402353 
L 478.656229 54.314694 
L 478.827732 54.483731 
L 479.169455 54.34715 
L 479.509481 54.230557 
L 479.678864 54.083601 
L 479.847829 54.249592 
L 480.352238 54.083792 
L 480.519553 54.13357 
L 480.68646 53.920466 
L 480.852961 54.005079 
L 481.184755 53.982617 
L 481.350051 53.957776 
L 481.51495 53.810821 
L 481.679452 54.077986 
L 482.007277 53.770465 
L 482.333541 53.72516 
L 482.658258 53.668053 
L 482.820042 53.485787 
L 482.981444 53.656441 
L 483.941954 53.413451 
L 484.259155 53.419257 
L 484.417207 53.223571 
L 484.574894 53.319891 
L 484.73222 53.238894 
L 485.045792 53.761899 
L 485.202041 53.500159 
L 485.357935 53.556219 
L 485.513475 53.347969 
L 485.668662 53.525476 
L 485.823499 53.520622 
L 485.977987 53.338356 
L 486.132127 53.434581 
L 486.439371 53.323603 
L 487.654751 53.264878 
L 487.955257 52.948315 
L 488.105017 53.138291 
L 488.403559 53.004851 
L 488.552344 53.281344 
L 488.700806 53.080422 
L 488.848947 52.435304 
L 489.144272 52.757387 
L 489.43833 52.932135 
L 489.584886 53.24984 
L 489.73113 52.707419 
L 491.746431 52.419029 
L 491.888138 52.322803 
L 492.029552 52.510209 
L 493.566146 51.185994 
L 494.526336 50.91131 
L 496.008534 50.415241 
L 496.274613 50.184148 
L 496.539662 50.248964 
L 498.237935 49.914888 
L 499.516242 49.501148 
L 499.769067 49.485539 
L 500.020961 49.448515 
L 501.636083 49.155651 
L 503.453571 48.820338 
L 504.28551 48.696511 
L 505.572769 48.503109 
L 505.80424 48.447906 
L 506.264848 48.135055 
L 506.722381 47.996856 
L 507.063537 47.864748 
L 507.176879 47.770046 
L 507.290034 47.863511 
L 507.515784 47.773282 
L 507.740794 47.725122 
L 507.853022 48.022459 
L 508.74429 47.415412 
L 508.854888 47.500025 
L 509.295502 47.095993 
L 510.16832 46.794945 
L 510.384798 46.79523 
L 510.815713 46.519879 
L 510.923019 46.519308 
L 511.030158 46.832826 
L 511.243935 46.545958 
L 511.986943 46.409758 
L 512.407929 46.332283 
L 512.826344 46.147447 
L 513.242219 46.102142 
L 513.449214 46.072922 
L 513.552478 46.446687 
L 513.861337 46.146685 
L 514.168811 45.937103 
L 514.678221 45.76207 
L 515.183871 45.414003 
L 517.754731 44.962572 
L 517.851709 45.640718 
L 518.045255 44.941538 
L 518.90951 44.817045 
L 520.138941 44.508096 
L 520.41955 44.499721 
L 520.884692 44.445659 
L 521.16227 44.316978 
L 521.622414 44.25654 
L 521.897025 44.168786 
L 525.196381 43.428013 
L 525.716752 43.33036 
L 525.889335 43.190829 
L 525.975464 43.312372 
L 526.233202 43.150854 
L 526.40449 43.084896 
L 527.591665 42.700756 
L 528.675922 42.456433 
L 528.841219 42.439016 
L 529.743288 42.327372 
L 530.068391 42.210493 
L 530.230365 42.19022 
L 530.95455 42.080479 
L 531.591906 41.937331 
L 531.908374 41.902496 
L 533.237292 41.634093 
L 534.007134 41.449828 
L 534.616841 41.362645 
L 534.692674 41.569372 
L 534.768423 41.47229 
L 536.561728 40.941195 
L 537.222298 40.833263 
L 537.295303 40.936151 
L 537.513853 40.818511 
L 540.013384 40.264287 
L 540.153497 40.253723 
L 540.641649 40.154642 
L 540.919039 40.076025 
L 541.539091 39.973518 
L 541.539091 39.973518 
" clip-path="url(#p3a36d8b935)" style="fill: none; stroke: #ff0000; stroke-width: 1.5; stroke-linecap: square"/>
   </g>
   <g id="matplotlib.axis_1">
    <g id="xtick_1">
     <g id="line2d_8">
      <path d="M 68.320909 314.728 
L 68.320909 26.88 
" clip-path="url(#p3a36d8b935)" style="fill: none; stroke: #b0b0b0; stroke-opacity: 0.3; stroke-width: 0.8; stroke-linecap: square"/>
     </g>
     <g id="line2d_9">
      <defs>
       <path id="me598a30b4e" d="M 0 0 
L 0 3.5 
" style="stroke: #000000; stroke-width: 0.8"/>
      </defs>
      <g>
       <use xlink:href="#me598a30b4e" x="68.320909" y="314.728" style="stroke: #000000; stroke-width: 0.8"/>
      </g>
     </g>
     <g id="text_1">
      <!-- $\mathdefault{10^{0}}$ -->
      <g transform="translate(59.520909 329.326437) scale(0.1 -0.1)">
       <defs>
        <path id="DejaVuSans-31" d="M 794 531 
L 1825 531 
L 1825 4091 
L 703 3866 
L 703 4441 
L 1819 4666 
L 2450 4666 
L 2450 531 
L 3481 531 
L 3481 0 
L 794 0 
L 794 531 
z
" transform="scale(0.015625)"/>
        <path id="DejaVuSans-30" d="M 2034 4250 
Q 1547 4250 1301 3770 
Q 1056 3291 1056 2328 
Q 1056 1369 1301 889 
Q 1547 409 2034 409 
Q 2525 409 2770 889 
Q 3016 1369 3016 2328 
Q 3016 3291 2770 3770 
Q 2525 4250 2034 4250 
z
M 2034 4750 
Q 2819 4750 3233 4129 
Q 3647 3509 3647 2328 
Q 3647 1150 3233 529 
Q 2819 -91 2034 -91 
Q 1250 -91 836 529 
Q 422 1150 422 2328 
Q 422 3509 836 4129 
Q 1250 4750 2034 4750 
z
" transform="scale(0.015625)"/>
       </defs>
       <use xlink:href="#DejaVuSans-31" transform="translate(0 0.765625)"/>
       <use xlink:href="#DejaVuSans-30" transform="translate(63.623047 0.765625)"/>
       <use xlink:href="#DejaVuSans-30" transform="translate(128.203125 39.046875) scale(0.7)"/>
      </g>
     </g>
    </g>
    <g id="xtick_2">
     <g id="line2d_10">
      <path d="M 226.083153 314.728 
L 226.083153 26.88 
" clip-path="url(#p3a36d8b935)" style="fill: none; stroke: #b0b0b0; stroke-opacity: 0.3; stroke-width: 0.8; stroke-linecap: square"/>
     </g>
     <g id="line2d_11">
      <g>
       <use xlink:href="#me598a30b4e" x="226.083153" y="314.728" style="stroke: #000000; stroke-width: 0.8"/>
      </g>
     </g>
     <g id="text_2">
      <!-- $\mathdefault{10^{1}}$ -->
      <g transform="translate(217.283153 329.326437) scale(0.1 -0.1)">
       <use xlink:href="#DejaVuSans-31" transform="translate(0 0.684375)"/>
       <use xlink:href="#DejaVuSans-30" transform="translate(63.623047 0.684375)"/>
       <use xlink:href="#DejaVuSans-31" transform="translate(128.203125 38.965625) scale(0.7)"/>
      </g>
     </g>
    </g>
    <g id="xtick_3">
     <g id="line2d_12">
      <path d="M 383.845397 314.728 
L 383.845397 26.88 
" clip-path="url(#p3a36d8b935)" style="fill: none; stroke: #b0b0b0; stroke-opacity: 0.3; stroke-width: 0.8; stroke-linecap: square"/>
     </g>
     <g id="line2d_13">
      <g>
       <use xlink:href="#me598a30b4e" x="383.845397" y="314.728" style="stroke: #000000; stroke-width: 0.8"/>
      </g>
     </g>
     <g id="text_3">
      <!-- $\mathdefault{10^{2}}$ -->
      <g transform="translate(375.045397 329.326437) scale(0.1 -0.1)">
       <defs>
        <path id="DejaVuSans-32" d="M 1228 531 
L 3431 531 
L 3431 0 
L 469 0 
L 469 531 
Q 828 903 1448 1529 
Q 2069 2156 2228 2338 
Q 2531 2678 2651 2914 
Q 2772 3150 2772 3378 
Q 2772 3750 2511 3984 
Q 2250 4219 1831 4219 
Q 1534 4219 1204 4116 
Q 875 4013 500 3803 
L 500 4441 
Q 881 4594 1212 4672 
Q 1544 4750 1819 4750 
Q 2544 4750 2975 4387 
Q 3406 4025 3406 3419 
Q 3406 3131 3298 2873 
Q 3191 2616 2906 2266 
Q 2828 2175 2409 1742 
Q 1991 1309 1228 531 
z
" transform="scale(0.015625)"/>
       </defs>
       <use xlink:href="#DejaVuSans-31" transform="translate(0 0.765625)"/>
       <use xlink:href="#DejaVuSans-30" transform="translate(63.623047 0.765625)"/>
       <use xlink:href="#DejaVuSans-32" transform="translate(128.203125 39.046875) scale(0.7)"/>
      </g>
     </g>
    </g>
    <g id="xtick_4">
     <g id="line2d_14">
      <path d="M 541.60764 314.728 
L 541.60764 26.88 
" clip-path="url(#p3a36d8b935)" style="fill: none; stroke: #b0b0b0; stroke-opacity: 0.3; stroke-width: 0.8; stroke-linecap: square"/>
     </g>
     <g id="line2d_15">
      <g>
       <use xlink:href="#me598a30b4e" x="541.60764" y="314.728" style="stroke: #000000; stroke-width: 0.8"/>
      </g>
     </g>
     <g id="text_4">
      <!-- $\mathdefault{10^{3}}$ -->
      <g transform="translate(532.80764 329.326437) scale(0.1 -0.1)">
       <defs>
        <path id="DejaVuSans-33" d="M 2597 2516 
Q 3050 2419 3304 2112 
Q 3559 1806 3559 1356 
Q 3559 666 3084 287 
Q 2609 -91 1734 -91 
Q 1441 -91 1130 -33 
Q 819 25 488 141 
L 488 750 
Q 750 597 1062 519 
Q 1375 441 1716 441 
Q 2309 441 2620 675 
Q 2931 909 2931 1356 
Q 2931 1769 2642 2001 
Q 2353 2234 1838 2234 
L 1294 2234 
L 1294 2753 
L 1863 2753 
Q 2328 2753 2575 2939 
Q 2822 3125 2822 3475 
Q 2822 3834 2567 4026 
Q 2313 4219 1838 4219 
Q 1578 4219 1281 4162 
Q 984 4106 628 3988 
L 628 4550 
Q 988 4650 1302 4700 
Q 1616 4750 1894 4750 
Q 2613 4750 3031 4423 
Q 3450 4097 3450 3541 
Q 3450 3153 3228 2886 
Q 3006 2619 2597 2516 
z
" transform="scale(0.015625)"/>
       </defs>
       <use xlink:href="#DejaVuSans-31" transform="translate(0 0.765625)"/>
       <use xlink:href="#DejaVuSans-30" transform="translate(63.623047 0.765625)"/>
       <use xlink:href="#DejaVuSans-33" transform="translate(128.203125 39.046875) scale(0.7)"/>
      </g>
     </g>
    </g>
    <g id="xtick_5">
     <g id="line2d_16">
      <path d="M 53.032168 314.728 
L 53.032168 26.88 
" clip-path="url(#p3a36d8b935)" style="fill: none; stroke: #b0b0b0; stroke-opacity: 0.3; stroke-width: 0.8; stroke-linecap: square"/>
     </g>
     <g id="line2d_17">
      <defs>
       <path id="m2e89c8f00c" d="M 0 0 
L 0 2 
" style="stroke: #000000; stroke-width: 0.6"/>
      </defs>
      <g>
       <use xlink:href="#m2e89c8f00c" x="53.032168" y="314.728" style="stroke: #000000; stroke-width: 0.6"/>
      </g>
     </g>
    </g>
    <g id="xtick_6">
     <g id="line2d_18">
      <path d="M 61.102105 314.728 
L 61.102105 26.88 
" clip-path="url(#p3a36d8b935)" style="fill: none; stroke: #b0b0b0; stroke-opacity: 0.3; stroke-width: 0.8; stroke-linecap: square"/>
     </g>
     <g id="line2d_19">
      <g>
       <use xlink:href="#m2e89c8f00c" x="61.102105" y="314.728" style="stroke: #000000; stroke-width: 0.6"/>
      </g>
     </g>
    </g>
    <g id="xtick_7">
     <g id="line2d_20">
      <path d="M 115.812077 314.728 
L 115.812077 26.88 
" clip-path="url(#p3a36d8b935)" style="fill: none; stroke: #b0b0b0; stroke-opacity: 0.3; stroke-width: 0.8; stroke-linecap: square"/>
     </g>
     <g id="line2d_21">
      <g>
       <use xlink:href="#m2e89c8f00c" x="115.812077" y="314.728" style="stroke: #000000; stroke-width: 0.6"/>
      </g>
     </g>
    </g>
    <g id="xtick_8">
     <g id="line2d_22">
      <path d="M 143.592629 314.728 
L 143.592629 26.88 
" clip-path="url(#p3a36d8b935)" style="fill: none; stroke: #b0b0b0; stroke-opacity: 0.3; stroke-width: 0.8; stroke-linecap: square"/>
     </g>
     <g id="line2d_23">
      <g>
       <use xlink:href="#m2e89c8f00c" x="143.592629" y="314.728" style="stroke: #000000; stroke-width: 0.6"/>
      </g>
     </g>
    </g>
    <g id="xtick_9">
     <g id="line2d_24">
      <path d="M 163.303244 314.728 
L 163.303244 26.88 
" clip-path="url(#p3a36d8b935)" style="fill: none; stroke: #b0b0b0; stroke-opacity: 0.3; stroke-width: 0.8; stroke-linecap: square"/>
     </g>
     <g id="line2d_25">
      <g>
       <use xlink:href="#m2e89c8f00c" x="163.303244" y="314.728" style="stroke: #000000; stroke-width: 0.6"/>
      </g>
     </g>
    </g>
    <g id="xtick_10">
     <g id="line2d_26">
      <path d="M 178.591985 314.728 
L 178.591985 26.88 
" clip-path="url(#p3a36d8b935)" style="fill: none; stroke: #b0b0b0; stroke-opacity: 0.3; stroke-width: 0.8; stroke-linecap: square"/>
     </g>
     <g id="line2d_27">
      <g>
       <use xlink:href="#m2e89c8f00c" x="178.591985" y="314.728" style="stroke: #000000; stroke-width: 0.6"/>
      </g>
     </g>
    </g>
    <g id="xtick_11">
     <g id="line2d_28">
      <path d="M 191.083796 314.728 
L 191.083796 26.88 
" clip-path="url(#p3a36d8b935)" style="fill: none; stroke: #b0b0b0; stroke-opacity: 0.3; stroke-width: 0.8; stroke-linecap: square"/>
     </g>
     <g id="line2d_29">
      <g>
       <use xlink:href="#m2e89c8f00c" x="191.083796" y="314.728" style="stroke: #000000; stroke-width: 0.6"/>
      </g>
     </g>
    </g>
    <g id="xtick_12">
     <g id="line2d_30">
      <path d="M 201.645472 314.728 
L 201.645472 26.88 
" clip-path="url(#p3a36d8b935)" style="fill: none; stroke: #b0b0b0; stroke-opacity: 0.3; stroke-width: 0.8; stroke-linecap: square"/>
     </g>
     <g id="line2d_31">
      <g>
       <use xlink:href="#m2e89c8f00c" x="201.645472" y="314.728" style="stroke: #000000; stroke-width: 0.6"/>
      </g>
     </g>
    </g>
    <g id="xtick_13">
     <g id="line2d_32">
      <path d="M 210.794412 314.728 
L 210.794412 26.88 
" clip-path="url(#p3a36d8b935)" style="fill: none; stroke: #b0b0b0; stroke-opacity: 0.3; stroke-width: 0.8; stroke-linecap: square"/>
     </g>
     <g id="line2d_33">
      <g>
       <use xlink:href="#m2e89c8f00c" x="210.794412" y="314.728" style="stroke: #000000; stroke-width: 0.6"/>
      </g>
     </g>
    </g>
    <g id="xtick_14">
     <g id="line2d_34">
      <path d="M 218.864349 314.728 
L 218.864349 26.88 
" clip-path="url(#p3a36d8b935)" style="fill: none; stroke: #b0b0b0; stroke-opacity: 0.3; stroke-width: 0.8; stroke-linecap: square"/>
     </g>
     <g id="line2d_35">
      <g>
       <use xlink:href="#m2e89c8f00c" x="218.864349" y="314.728" style="stroke: #000000; stroke-width: 0.6"/>
      </g>
     </g>
    </g>
    <g id="xtick_15">
     <g id="line2d_36">
      <path d="M 273.57432 314.728 
L 273.57432 26.88 
" clip-path="url(#p3a36d8b935)" style="fill: none; stroke: #b0b0b0; stroke-opacity: 0.3; stroke-width: 0.8; stroke-linecap: square"/>
     </g>
     <g id="line2d_37">
      <g>
       <use xlink:href="#m2e89c8f00c" x="273.57432" y="314.728" style="stroke: #000000; stroke-width: 0.6"/>
      </g>
     </g>
    </g>
    <g id="xtick_16">
     <g id="line2d_38">
      <path d="M 301.354873 314.728 
L 301.354873 26.88 
" clip-path="url(#p3a36d8b935)" style="fill: none; stroke: #b0b0b0; stroke-opacity: 0.3; stroke-width: 0.8; stroke-linecap: square"/>
     </g>
     <g id="line2d_39">
      <g>
       <use xlink:href="#m2e89c8f00c" x="301.354873" y="314.728" style="stroke: #000000; stroke-width: 0.6"/>
      </g>
     </g>
    </g>
    <g id="xtick_17">
     <g id="line2d_40">
      <path d="M 321.065488 314.728 
L 321.065488 26.88 
" clip-path="url(#p3a36d8b935)" style="fill: none; stroke: #b0b0b0; stroke-opacity: 0.3; stroke-width: 0.8; stroke-linecap: square"/>
     </g>
     <g id="line2d_41">
      <g>
       <use xlink:href="#m2e89c8f00c" x="321.065488" y="314.728" style="stroke: #000000; stroke-width: 0.6"/>
      </g>
     </g>
    </g>
    <g id="xtick_18">
     <g id="line2d_42">
      <path d="M 336.354229 314.728 
L 336.354229 26.88 
" clip-path="url(#p3a36d8b935)" style="fill: none; stroke: #b0b0b0; stroke-opacity: 0.3; stroke-width: 0.8; stroke-linecap: square"/>
     </g>
     <g id="line2d_43">
      <g>
       <use xlink:href="#m2e89c8f00c" x="336.354229" y="314.728" style="stroke: #000000; stroke-width: 0.6"/>
      </g>
     </g>
    </g>
    <g id="xtick_19">
     <g id="line2d_44">
      <path d="M 348.84604 314.728 
L 348.84604 26.88 
" clip-path="url(#p3a36d8b935)" style="fill: none; stroke: #b0b0b0; stroke-opacity: 0.3; stroke-width: 0.8; stroke-linecap: square"/>
     </g>
     <g id="line2d_45">
      <g>
       <use xlink:href="#m2e89c8f00c" x="348.84604" y="314.728" style="stroke: #000000; stroke-width: 0.6"/>
      </g>
     </g>
    </g>
    <g id="xtick_20">
     <g id="line2d_46">
      <path d="M 359.407716 314.728 
L 359.407716 26.88 
" clip-path="url(#p3a36d8b935)" style="fill: none; stroke: #b0b0b0; stroke-opacity: 0.3; stroke-width: 0.8; stroke-linecap: square"/>
     </g>
     <g id="line2d_47">
      <g>
       <use xlink:href="#m2e89c8f00c" x="359.407716" y="314.728" style="stroke: #000000; stroke-width: 0.6"/>
      </g>
     </g>
    </g>
    <g id="xtick_21">
     <g id="line2d_48">
      <path d="M 368.556656 314.728 
L 368.556656 26.88 
" clip-path="url(#p3a36d8b935)" style="fill: none; stroke: #b0b0b0; stroke-opacity: 0.3; stroke-width: 0.8; stroke-linecap: square"/>
     </g>
     <g id="line2d_49">
      <g>
       <use xlink:href="#m2e89c8f00c" x="368.556656" y="314.728" style="stroke: #000000; stroke-width: 0.6"/>
      </g>
     </g>
    </g>
    <g id="xtick_22">
     <g id="line2d_50">
      <path d="M 376.626592 314.728 
L 376.626592 26.88 
" clip-path="url(#p3a36d8b935)" style="fill: none; stroke: #b0b0b0; stroke-opacity: 0.3; stroke-width: 0.8; stroke-linecap: square"/>
     </g>
     <g id="line2d_51">
      <g>
       <use xlink:href="#m2e89c8f00c" x="376.626592" y="314.728" style="stroke: #000000; stroke-width: 0.6"/>
      </g>
     </g>
    </g>
    <g id="xtick_23">
     <g id="line2d_52">
      <path d="M 431.336564 314.728 
L 431.336564 26.88 
" clip-path="url(#p3a36d8b935)" style="fill: none; stroke: #b0b0b0; stroke-opacity: 0.3; stroke-width: 0.8; stroke-linecap: square"/>
     </g>
     <g id="line2d_53">
      <g>
       <use xlink:href="#m2e89c8f00c" x="431.336564" y="314.728" style="stroke: #000000; stroke-width: 0.6"/>
      </g>
     </g>
    </g>
    <g id="xtick_24">
     <g id="line2d_54">
      <path d="M 459.117116 314.728 
L 459.117116 26.88 
" clip-path="url(#p3a36d8b935)" style="fill: none; stroke: #b0b0b0; stroke-opacity: 0.3; stroke-width: 0.8; stroke-linecap: square"/>
     </g>
     <g id="line2d_55">
      <g>
       <use xlink:href="#m2e89c8f00c" x="459.117116" y="314.728" style="stroke: #000000; stroke-width: 0.6"/>
      </g>
     </g>
    </g>
    <g id="xtick_25">
     <g id="line2d_56">
      <path d="M 478.827732 314.728 
L 478.827732 26.88 
" clip-path="url(#p3a36d8b935)" style="fill: none; stroke: #b0b0b0; stroke-opacity: 0.3; stroke-width: 0.8; stroke-linecap: square"/>
     </g>
     <g id="line2d_57">
      <g>
       <use xlink:href="#m2e89c8f00c" x="478.827732" y="314.728" style="stroke: #000000; stroke-width: 0.6"/>
      </g>
     </g>
    </g>
    <g id="xtick_26">
     <g id="line2d_58">
      <path d="M 494.116473 314.728 
L 494.116473 26.88 
" clip-path="url(#p3a36d8b935)" style="fill: none; stroke: #b0b0b0; stroke-opacity: 0.3; stroke-width: 0.8; stroke-linecap: square"/>
     </g>
     <g id="line2d_59">
      <g>
       <use xlink:href="#m2e89c8f00c" x="494.116473" y="314.728" style="stroke: #000000; stroke-width: 0.6"/>
      </g>
     </g>
    </g>
    <g id="xtick_27">
     <g id="line2d_60">
      <path d="M 506.608284 314.728 
L 506.608284 26.88 
" clip-path="url(#p3a36d8b935)" style="fill: none; stroke: #b0b0b0; stroke-opacity: 0.3; stroke-width: 0.8; stroke-linecap: square"/>
     </g>
     <g id="line2d_61">
      <g>
       <use xlink:href="#m2e89c8f00c" x="506.608284" y="314.728" style="stroke: #000000; stroke-width: 0.6"/>
      </g>
     </g>
    </g>
    <g id="xtick_28">
     <g id="line2d_62">
      <path d="M 517.16996 314.728 
L 517.16996 26.88 
" clip-path="url(#p3a36d8b935)" style="fill: none; stroke: #b0b0b0; stroke-opacity: 0.3; stroke-width: 0.8; stroke-linecap: square"/>
     </g>
     <g id="line2d_63">
      <g>
       <use xlink:href="#m2e89c8f00c" x="517.16996" y="314.728" style="stroke: #000000; stroke-width: 0.6"/>
      </g>
     </g>
    </g>
    <g id="xtick_29">
     <g id="line2d_64">
      <path d="M 526.318899 314.728 
L 526.318899 26.88 
" clip-path="url(#p3a36d8b935)" style="fill: none; stroke: #b0b0b0; stroke-opacity: 0.3; stroke-width: 0.8; stroke-linecap: square"/>
     </g>
     <g id="line2d_65">
      <g>
       <use xlink:href="#m2e89c8f00c" x="526.318899" y="314.728" style="stroke: #000000; stroke-width: 0.6"/>
      </g>
     </g>
    </g>
    <g id="xtick_30">
     <g id="line2d_66">
      <path d="M 534.388836 314.728 
L 534.388836 26.88 
" clip-path="url(#p3a36d8b935)" style="fill: none; stroke: #b0b0b0; stroke-opacity: 0.3; stroke-width: 0.8; stroke-linecap: square"/>
     </g>
     <g id="line2d_67">
      <g>
       <use xlink:href="#m2e89c8f00c" x="534.388836" y="314.728" style="stroke: #000000; stroke-width: 0.6"/>
      </g>
     </g>
    </g>
    <g id="text_5">
     <!-- Iteration (Log Scale) -->
     <g transform="translate(254.256563 343.004562) scale(0.1 -0.1)">
      <defs>
       <path id="DejaVuSans-49" d="M 628 4666 
L 1259 4666 
L 1259 0 
L 628 0 
L 628 4666 
z
" transform="scale(0.015625)"/>
       <path id="DejaVuSans-74" d="M 1172 4494 
L 1172 3500 
L 2356 3500 
L 2356 3053 
L 1172 3053 
L 1172 1153 
Q 1172 725 1289 603 
Q 1406 481 1766 481 
L 2356 481 
L 2356 0 
L 1766 0 
Q 1100 0 847 248 
Q 594 497 594 1153 
L 594 3053 
L 172 3053 
L 172 3500 
L 594 3500 
L 594 4494 
L 1172 4494 
z
" transform="scale(0.015625)"/>
       <path id="DejaVuSans-65" d="M 3597 1894 
L 3597 1613 
L 953 1613 
Q 991 1019 1311 708 
Q 1631 397 2203 397 
Q 2534 397 2845 478 
Q 3156 559 3463 722 
L 3463 178 
Q 3153 47 2828 -22 
Q 2503 -91 2169 -91 
Q 1331 -91 842 396 
Q 353 884 353 1716 
Q 353 2575 817 3079 
Q 1281 3584 2069 3584 
Q 2775 3584 3186 3129 
Q 3597 2675 3597 1894 
z
M 3022 2063 
Q 3016 2534 2758 2815 
Q 2500 3097 2075 3097 
Q 1594 3097 1305 2825 
Q 1016 2553 972 2059 
L 3022 2063 
z
" transform="scale(0.015625)"/>
       <path id="DejaVuSans-72" d="M 2631 2963 
Q 2534 3019 2420 3045 
Q 2306 3072 2169 3072 
Q 1681 3072 1420 2755 
Q 1159 2438 1159 1844 
L 1159 0 
L 581 0 
L 581 3500 
L 1159 3500 
L 1159 2956 
Q 1341 3275 1631 3429 
Q 1922 3584 2338 3584 
Q 2397 3584 2469 3576 
Q 2541 3569 2628 3553 
L 2631 2963 
z
" transform="scale(0.015625)"/>
       <path id="DejaVuSans-61" d="M 2194 1759 
Q 1497 1759 1228 1600 
Q 959 1441 959 1056 
Q 959 750 1161 570 
Q 1363 391 1709 391 
Q 2188 391 2477 730 
Q 2766 1069 2766 1631 
L 2766 1759 
L 2194 1759 
z
M 3341 1997 
L 3341 0 
L 2766 0 
L 2766 531 
Q 2569 213 2275 61 
Q 1981 -91 1556 -91 
Q 1019 -91 701 211 
Q 384 513 384 1019 
Q 384 1609 779 1909 
Q 1175 2209 1959 2209 
L 2766 2209 
L 2766 2266 
Q 2766 2663 2505 2880 
Q 2244 3097 1772 3097 
Q 1472 3097 1187 3025 
Q 903 2953 641 2809 
L 641 3341 
Q 956 3463 1253 3523 
Q 1550 3584 1831 3584 
Q 2591 3584 2966 3190 
Q 3341 2797 3341 1997 
z
" transform="scale(0.015625)"/>
       <path id="DejaVuSans-69" d="M 603 3500 
L 1178 3500 
L 1178 0 
L 603 0 
L 603 3500 
z
M 603 4863 
L 1178 4863 
L 1178 4134 
L 603 4134 
L 603 4863 
z
" transform="scale(0.015625)"/>
       <path id="DejaVuSans-6f" d="M 1959 3097 
Q 1497 3097 1228 2736 
Q 959 2375 959 1747 
Q 959 1119 1226 758 
Q 1494 397 1959 397 
Q 2419 397 2687 759 
Q 2956 1122 2956 1747 
Q 2956 2369 2687 2733 
Q 2419 3097 1959 3097 
z
M 1959 3584 
Q 2709 3584 3137 3096 
Q 3566 2609 3566 1747 
Q 3566 888 3137 398 
Q 2709 -91 1959 -91 
Q 1206 -91 779 398 
Q 353 888 353 1747 
Q 353 2609 779 3096 
Q 1206 3584 1959 3584 
z
" transform="scale(0.015625)"/>
       <path id="DejaVuSans-6e" d="M 3513 2113 
L 3513 0 
L 2938 0 
L 2938 2094 
Q 2938 2591 2744 2837 
Q 2550 3084 2163 3084 
Q 1697 3084 1428 2787 
Q 1159 2491 1159 1978 
L 1159 0 
L 581 0 
L 581 3500 
L 1159 3500 
L 1159 2956 
Q 1366 3272 1645 3428 
Q 1925 3584 2291 3584 
Q 2894 3584 3203 3211 
Q 3513 2838 3513 2113 
z
" transform="scale(0.015625)"/>
       <path id="DejaVuSans-20" transform="scale(0.015625)"/>
       <path id="DejaVuSans-28" d="M 1984 4856 
Q 1566 4138 1362 3434 
Q 1159 2731 1159 2009 
Q 1159 1288 1364 580 
Q 1569 -128 1984 -844 
L 1484 -844 
Q 1016 -109 783 600 
Q 550 1309 550 2009 
Q 550 2706 781 3412 
Q 1013 4119 1484 4856 
L 1984 4856 
z
" transform="scale(0.015625)"/>
       <path id="DejaVuSans-4c" d="M 628 4666 
L 1259 4666 
L 1259 531 
L 3531 531 
L 3531 0 
L 628 0 
L 628 4666 
z
" transform="scale(0.015625)"/>
       <path id="DejaVuSans-67" d="M 2906 1791 
Q 2906 2416 2648 2759 
Q 2391 3103 1925 3103 
Q 1463 3103 1205 2759 
Q 947 2416 947 1791 
Q 947 1169 1205 825 
Q 1463 481 1925 481 
Q 2391 481 2648 825 
Q 2906 1169 2906 1791 
z
M 3481 434 
Q 3481 -459 3084 -895 
Q 2688 -1331 1869 -1331 
Q 1566 -1331 1297 -1286 
Q 1028 -1241 775 -1147 
L 775 -588 
Q 1028 -725 1275 -790 
Q 1522 -856 1778 -856 
Q 2344 -856 2625 -561 
Q 2906 -266 2906 331 
L 2906 616 
Q 2728 306 2450 153 
Q 2172 0 1784 0 
Q 1141 0 747 490 
Q 353 981 353 1791 
Q 353 2603 747 3093 
Q 1141 3584 1784 3584 
Q 2172 3584 2450 3431 
Q 2728 3278 2906 2969 
L 2906 3500 
L 3481 3500 
L 3481 434 
z
" transform="scale(0.015625)"/>
       <path id="DejaVuSans-53" d="M 3425 4513 
L 3425 3897 
Q 3066 4069 2747 4153 
Q 2428 4238 2131 4238 
Q 1616 4238 1336 4038 
Q 1056 3838 1056 3469 
Q 1056 3159 1242 3001 
Q 1428 2844 1947 2747 
L 2328 2669 
Q 3034 2534 3370 2195 
Q 3706 1856 3706 1288 
Q 3706 609 3251 259 
Q 2797 -91 1919 -91 
Q 1588 -91 1214 -16 
Q 841 59 441 206 
L 441 856 
Q 825 641 1194 531 
Q 1563 422 1919 422 
Q 2459 422 2753 634 
Q 3047 847 3047 1241 
Q 3047 1584 2836 1778 
Q 2625 1972 2144 2069 
L 1759 2144 
Q 1053 2284 737 2584 
Q 422 2884 422 3419 
Q 422 4038 858 4394 
Q 1294 4750 2059 4750 
Q 2388 4750 2728 4690 
Q 3069 4631 3425 4513 
z
" transform="scale(0.015625)"/>
       <path id="DejaVuSans-63" d="M 3122 3366 
L 3122 2828 
Q 2878 2963 2633 3030 
Q 2388 3097 2138 3097 
Q 1578 3097 1268 2742 
Q 959 2388 959 1747 
Q 959 1106 1268 751 
Q 1578 397 2138 397 
Q 2388 397 2633 464 
Q 2878 531 3122 666 
L 3122 134 
Q 2881 22 2623 -34 
Q 2366 -91 2075 -91 
Q 1284 -91 818 406 
Q 353 903 353 1747 
Q 353 2603 823 3093 
Q 1294 3584 2113 3584 
Q 2378 3584 2631 3529 
Q 2884 3475 3122 3366 
z
" transform="scale(0.015625)"/>
       <path id="DejaVuSans-6c" d="M 603 4863 
L 1178 4863 
L 1178 0 
L 603 0 
L 603 4863 
z
" transform="scale(0.015625)"/>
       <path id="DejaVuSans-29" d="M 513 4856 
L 1013 4856 
Q 1481 4119 1714 3412 
Q 1947 2706 1947 2009 
Q 1947 1309 1714 600 
Q 1481 -109 1013 -844 
L 513 -844 
Q 928 -128 1133 580 
Q 1338 1288 1338 2009 
Q 1338 2731 1133 3434 
Q 928 4138 513 4856 
z
" transform="scale(0.015625)"/>
      </defs>
      <use xlink:href="#DejaVuSans-49"/>
      <use xlink:href="#DejaVuSans-74" transform="translate(29.492188 0)"/>
      <use xlink:href="#DejaVuSans-65" transform="translate(68.701172 0)"/>
      <use xlink:href="#DejaVuSans-72" transform="translate(130.224609 0)"/>
      <use xlink:href="#DejaVuSans-61" transform="translate(171.337891 0)"/>
      <use xlink:href="#DejaVuSans-74" transform="translate(232.617188 0)"/>
      <use xlink:href="#DejaVuSans-69" transform="translate(271.826172 0)"/>
      <use xlink:href="#DejaVuSans-6f" transform="translate(299.609375 0)"/>
      <use xlink:href="#DejaVuSans-6e" transform="translate(360.791016 0)"/>
      <use xlink:href="#DejaVuSans-20" transform="translate(424.169922 0)"/>
      <use xlink:href="#DejaVuSans-28" transform="translate(455.957031 0)"/>
      <use xlink:href="#DejaVuSans-4c" transform="translate(494.970703 0)"/>
      <use xlink:href="#DejaVuSans-6f" transform="translate(548.933594 0)"/>
      <use xlink:href="#DejaVuSans-67" transform="translate(610.115234 0)"/>
      <use xlink:href="#DejaVuSans-20" transform="translate(673.591797 0)"/>
      <use xlink:href="#DejaVuSans-53" transform="translate(705.378906 0)"/>
      <use xlink:href="#DejaVuSans-63" transform="translate(768.855469 0)"/>
      <use xlink:href="#DejaVuSans-61" transform="translate(823.835938 0)"/>
      <use xlink:href="#DejaVuSans-6c" transform="translate(885.115234 0)"/>
      <use xlink:href="#DejaVuSans-65" transform="translate(912.898438 0)"/>
      <use xlink:href="#DejaVuSans-29" transform="translate(974.421875 0)"/>
     </g>
    </g>
   </g>
   <g id="matplotlib.axis_2">
    <g id="ytick_1">
     <g id="line2d_68">
      <path d="M 44.66 268.551467 
L 565.2 268.551467 
" clip-path="url(#p3a36d8b935)" style="fill: none; stroke: #b0b0b0; stroke-opacity: 0.3; stroke-width: 0.8; stroke-linecap: square"/>
     </g>
     <g id="line2d_69">
      <defs>
       <path id="m24f41720f7" d="M 0 0 
L -3.5 0 
" style="stroke: #000000; stroke-width: 0.8"/>
      </defs>
      <g>
       <use xlink:href="#m24f41720f7" x="44.66" y="268.551467" style="stroke: #000000; stroke-width: 0.8"/>
      </g>
     </g>
     <g id="text_6">
      <!-- 19 -->
      <g transform="translate(24.935 272.350685) scale(0.1 -0.1)">
       <defs>
        <path id="DejaVuSans-39" d="M 703 97 
L 703 672 
Q 941 559 1184 500 
Q 1428 441 1663 441 
Q 2288 441 2617 861 
Q 2947 1281 2994 2138 
Q 2813 1869 2534 1725 
Q 2256 1581 1919 1581 
Q 1219 1581 811 2004 
Q 403 2428 403 3163 
Q 403 3881 828 4315 
Q 1253 4750 1959 4750 
Q 2769 4750 3195 4129 
Q 3622 3509 3622 2328 
Q 3622 1225 3098 567 
Q 2575 -91 1691 -91 
Q 1453 -91 1209 -44 
Q 966 3 703 97 
z
M 1959 2075 
Q 2384 2075 2632 2365 
Q 2881 2656 2881 3163 
Q 2881 3666 2632 3958 
Q 2384 4250 1959 4250 
Q 1534 4250 1286 3958 
Q 1038 3666 1038 3163 
Q 1038 2656 1286 2365 
Q 1534 2075 1959 2075 
z
" transform="scale(0.015625)"/>
       </defs>
       <use xlink:href="#DejaVuSans-31"/>
       <use xlink:href="#DejaVuSans-39" transform="translate(63.623047 0)"/>
      </g>
     </g>
    </g>
    <g id="ytick_2">
     <g id="line2d_70">
      <path d="M 44.66 218.650641 
L 565.2 218.650641 
" clip-path="url(#p3a36d8b935)" style="fill: none; stroke: #b0b0b0; stroke-opacity: 0.3; stroke-width: 0.8; stroke-linecap: square"/>
     </g>
     <g id="line2d_71">
      <g>
       <use xlink:href="#m24f41720f7" x="44.66" y="218.650641" style="stroke: #000000; stroke-width: 0.8"/>
      </g>
     </g>
     <g id="text_7">
      <!-- 20 -->
      <g transform="translate(24.935 222.44986) scale(0.1 -0.1)">
       <use xlink:href="#DejaVuSans-32"/>
       <use xlink:href="#DejaVuSans-30" transform="translate(63.623047 0)"/>
      </g>
     </g>
    </g>
    <g id="ytick_3">
     <g id="line2d_72">
      <path d="M 44.66 168.749815 
L 565.2 168.749815 
" clip-path="url(#p3a36d8b935)" style="fill: none; stroke: #b0b0b0; stroke-opacity: 0.3; stroke-width: 0.8; stroke-linecap: square"/>
     </g>
     <g id="line2d_73">
      <g>
       <use xlink:href="#m24f41720f7" x="44.66" y="168.749815" style="stroke: #000000; stroke-width: 0.8"/>
      </g>
     </g>
     <g id="text_8">
      <!-- 21 -->
      <g transform="translate(24.935 172.549034) scale(0.1 -0.1)">
       <use xlink:href="#DejaVuSans-32"/>
       <use xlink:href="#DejaVuSans-31" transform="translate(63.623047 0)"/>
      </g>
     </g>
    </g>
    <g id="ytick_4">
     <g id="line2d_74">
      <path d="M 44.66 118.848989 
L 565.2 118.848989 
" clip-path="url(#p3a36d8b935)" style="fill: none; stroke: #b0b0b0; stroke-opacity: 0.3; stroke-width: 0.8; stroke-linecap: square"/>
     </g>
     <g id="line2d_75">
      <g>
       <use xlink:href="#m24f41720f7" x="44.66" y="118.848989" style="stroke: #000000; stroke-width: 0.8"/>
      </g>
     </g>
     <g id="text_9">
      <!-- 22 -->
      <g transform="translate(24.935 122.648208) scale(0.1 -0.1)">
       <use xlink:href="#DejaVuSans-32"/>
       <use xlink:href="#DejaVuSans-32" transform="translate(63.623047 0)"/>
      </g>
     </g>
    </g>
    <g id="ytick_5">
     <g id="line2d_76">
      <path d="M 44.66 68.948163 
L 565.2 68.948163 
" clip-path="url(#p3a36d8b935)" style="fill: none; stroke: #b0b0b0; stroke-opacity: 0.3; stroke-width: 0.8; stroke-linecap: square"/>
     </g>
     <g id="line2d_77">
      <g>
       <use xlink:href="#m24f41720f7" x="44.66" y="68.948163" style="stroke: #000000; stroke-width: 0.8"/>
      </g>
     </g>
     <g id="text_10">
      <!-- 23 -->
      <g transform="translate(24.935 72.747382) scale(0.1 -0.1)">
       <use xlink:href="#DejaVuSans-32"/>
       <use xlink:href="#DejaVuSans-33" transform="translate(63.623047 0)"/>
      </g>
     </g>
    </g>
    <g id="text_11">
     <!-- PSNR (dB) -->
     <g transform="translate(18.855313 196.303219) rotate(-90) scale(0.1 -0.1)">
      <defs>
       <path id="DejaVuSans-50" d="M 1259 4147 
L 1259 2394 
L 2053 2394 
Q 2494 2394 2734 2622 
Q 2975 2850 2975 3272 
Q 2975 3691 2734 3919 
Q 2494 4147 2053 4147 
L 1259 4147 
z
M 628 4666 
L 2053 4666 
Q 2838 4666 3239 4311 
Q 3641 3956 3641 3272 
Q 3641 2581 3239 2228 
Q 2838 1875 2053 1875 
L 1259 1875 
L 1259 0 
L 628 0 
L 628 4666 
z
" transform="scale(0.015625)"/>
       <path id="DejaVuSans-4e" d="M 628 4666 
L 1478 4666 
L 3547 763 
L 3547 4666 
L 4159 4666 
L 4159 0 
L 3309 0 
L 1241 3903 
L 1241 0 
L 628 0 
L 628 4666 
z
" transform="scale(0.015625)"/>
       <path id="DejaVuSans-52" d="M 2841 2188 
Q 3044 2119 3236 1894 
Q 3428 1669 3622 1275 
L 4263 0 
L 3584 0 
L 2988 1197 
Q 2756 1666 2539 1819 
Q 2322 1972 1947 1972 
L 1259 1972 
L 1259 0 
L 628 0 
L 628 4666 
L 2053 4666 
Q 2853 4666 3247 4331 
Q 3641 3997 3641 3322 
Q 3641 2881 3436 2590 
Q 3231 2300 2841 2188 
z
M 1259 4147 
L 1259 2491 
L 2053 2491 
Q 2509 2491 2742 2702 
Q 2975 2913 2975 3322 
Q 2975 3731 2742 3939 
Q 2509 4147 2053 4147 
L 1259 4147 
z
" transform="scale(0.015625)"/>
       <path id="DejaVuSans-64" d="M 2906 2969 
L 2906 4863 
L 3481 4863 
L 3481 0 
L 2906 0 
L 2906 525 
Q 2725 213 2448 61 
Q 2172 -91 1784 -91 
Q 1150 -91 751 415 
Q 353 922 353 1747 
Q 353 2572 751 3078 
Q 1150 3584 1784 3584 
Q 2172 3584 2448 3432 
Q 2725 3281 2906 2969 
z
M 947 1747 
Q 947 1113 1208 752 
Q 1469 391 1925 391 
Q 2381 391 2643 752 
Q 2906 1113 2906 1747 
Q 2906 2381 2643 2742 
Q 2381 3103 1925 3103 
Q 1469 3103 1208 2742 
Q 947 2381 947 1747 
z
" transform="scale(0.015625)"/>
       <path id="DejaVuSans-42" d="M 1259 2228 
L 1259 519 
L 2272 519 
Q 2781 519 3026 730 
Q 3272 941 3272 1375 
Q 3272 1813 3026 2020 
Q 2781 2228 2272 2228 
L 1259 2228 
z
M 1259 4147 
L 1259 2741 
L 2194 2741 
Q 2656 2741 2882 2914 
Q 3109 3088 3109 3444 
Q 3109 3797 2882 3972 
Q 2656 4147 2194 4147 
L 1259 4147 
z
M 628 4666 
L 2241 4666 
Q 2963 4666 3353 4366 
Q 3744 4066 3744 3513 
Q 3744 3084 3544 2831 
Q 3344 2578 2956 2516 
Q 3422 2416 3680 2098 
Q 3938 1781 3938 1306 
Q 3938 681 3513 340 
Q 3088 0 2303 0 
L 628 0 
L 628 4666 
z
" transform="scale(0.015625)"/>
      </defs>
      <use xlink:href="#DejaVuSans-50"/>
      <use xlink:href="#DejaVuSans-53" transform="translate(60.302734 0)"/>
      <use xlink:href="#DejaVuSans-4e" transform="translate(123.779297 0)"/>
      <use xlink:href="#DejaVuSans-52" transform="translate(198.583984 0)"/>
      <use xlink:href="#DejaVuSans-20" transform="translate(268.066406 0)"/>
      <use xlink:href="#DejaVuSans-28" transform="translate(299.853516 0)"/>
      <use xlink:href="#DejaVuSans-64" transform="translate(338.867188 0)"/>
      <use xlink:href="#DejaVuSans-42" transform="translate(402.34375 0)"/>
      <use xlink:href="#DejaVuSans-29" transform="translate(470.947266 0)"/>
     </g>
    </g>
   </g>
   <g id="patch_3">
    <path d="M 44.66 314.728 
L 44.66 26.88 
" style="fill: none; stroke: #000000; stroke-width: 0.8; stroke-linejoin: miter; stroke-linecap: square"/>
   </g>
   <g id="patch_4">
    <path d="M 565.2 314.728 
L 565.2 26.88 
" style="fill: none; stroke: #000000; stroke-width: 0.8; stroke-linejoin: miter; stroke-linecap: square"/>
   </g>
   <g id="patch_5">
    <path d="M 44.66 314.728 
L 565.2 314.728 
" style="fill: none; stroke: #000000; stroke-width: 0.8; stroke-linejoin: miter; stroke-linecap: square"/>
   </g>
   <g id="patch_6">
    <path d="M 44.66 26.88 
L 565.2 26.88 
" style="fill: none; stroke: #000000; stroke-width: 0.8; stroke-linejoin: miter; stroke-linecap: square"/>
   </g>
   <g id="text_12">
    <!-- PSNR Convergence - Image 3 -->
    <g transform="translate(216.880938 20.88) scale(0.12 -0.12)">
     <defs>
      <path id="DejaVuSans-43" d="M 4122 4306 
L 4122 3641 
Q 3803 3938 3442 4084 
Q 3081 4231 2675 4231 
Q 1875 4231 1450 3742 
Q 1025 3253 1025 2328 
Q 1025 1406 1450 917 
Q 1875 428 2675 428 
Q 3081 428 3442 575 
Q 3803 722 4122 1019 
L 4122 359 
Q 3791 134 3420 21 
Q 3050 -91 2638 -91 
Q 1578 -91 968 557 
Q 359 1206 359 2328 
Q 359 3453 968 4101 
Q 1578 4750 2638 4750 
Q 3056 4750 3426 4639 
Q 3797 4528 4122 4306 
z
" transform="scale(0.015625)"/>
      <path id="DejaVuSans-76" d="M 191 3500 
L 800 3500 
L 1894 563 
L 2988 3500 
L 3597 3500 
L 2284 0 
L 1503 0 
L 191 3500 
z
" transform="scale(0.015625)"/>
      <path id="DejaVuSans-2d" d="M 313 2009 
L 1997 2009 
L 1997 1497 
L 313 1497 
L 313 2009 
z
" transform="scale(0.015625)"/>
      <path id="DejaVuSans-6d" d="M 3328 2828 
Q 3544 3216 3844 3400 
Q 4144 3584 4550 3584 
Q 5097 3584 5394 3201 
Q 5691 2819 5691 2113 
L 5691 0 
L 5113 0 
L 5113 2094 
Q 5113 2597 4934 2840 
Q 4756 3084 4391 3084 
Q 3944 3084 3684 2787 
Q 3425 2491 3425 1978 
L 3425 0 
L 2847 0 
L 2847 2094 
Q 2847 2600 2669 2842 
Q 2491 3084 2119 3084 
Q 1678 3084 1418 2786 
Q 1159 2488 1159 1978 
L 1159 0 
L 581 0 
L 581 3500 
L 1159 3500 
L 1159 2956 
Q 1356 3278 1631 3431 
Q 1906 3584 2284 3584 
Q 2666 3584 2933 3390 
Q 3200 3197 3328 2828 
z
" transform="scale(0.015625)"/>
     </defs>
     <use xlink:href="#DejaVuSans-50"/>
     <use xlink:href="#DejaVuSans-53" transform="translate(60.302734 0)"/>
     <use xlink:href="#DejaVuSans-4e" transform="translate(123.779297 0)"/>
     <use xlink:href="#DejaVuSans-52" transform="translate(198.583984 0)"/>
     <use xlink:href="#DejaVuSans-20" transform="translate(268.066406 0)"/>
     <use xlink:href="#DejaVuSans-43" transform="translate(299.853516 0)"/>
     <use xlink:href="#DejaVuSans-6f" transform="translate(369.677734 0)"/>
     <use xlink:href="#DejaVuSans-6e" transform="translate(430.859375 0)"/>
     <use xlink:href="#DejaVuSans-76" transform="translate(494.238281 0)"/>
     <use xlink:href="#DejaVuSans-65" transform="translate(553.417969 0)"/>
     <use xlink:href="#DejaVuSans-72" transform="translate(614.941406 0)"/>
     <use xlink:href="#DejaVuSans-67" transform="translate(654.304688 0)"/>
     <use xlink:href="#DejaVuSans-65" transform="translate(717.78125 0)"/>
     <use xlink:href="#DejaVuSans-6e" transform="translate(779.304688 0)"/>
     <use xlink:href="#DejaVuSans-63" transform="translate(842.683594 0)"/>
     <use xlink:href="#DejaVuSans-65" transform="translate(897.664062 0)"/>
     <use xlink:href="#DejaVuSans-20" transform="translate(959.1875 0)"/>
     <use xlink:href="#DejaVuSans-2d" transform="translate(990.974609 0)"/>
     <use xlink:href="#DejaVuSans-20" transform="translate(1027.058594 0)"/>
     <use xlink:href="#DejaVuSans-49" transform="translate(1058.845703 0)"/>
     <use xlink:href="#DejaVuSans-6d" transform="translate(1088.337891 0)"/>
     <use xlink:href="#DejaVuSans-61" transform="translate(1185.75 0)"/>
     <use xlink:href="#DejaVuSans-67" transform="translate(1247.029297 0)"/>
     <use xlink:href="#DejaVuSans-65" transform="translate(1310.505859 0)"/>
     <use xlink:href="#DejaVuSans-20" transform="translate(1372.029297 0)"/>
     <use xlink:href="#DejaVuSans-33" transform="translate(1403.816406 0)"/>
    </g>
   </g>
   <g id="legend_1">
    <g id="patch_7">
     <path d="M 483.914317 312.563 
L 561.369 312.563 
Q 563.035 312.563 563.035 310.897 
L 563.035 225.446819 
Q 563.035 223.780819 561.369 223.780819 
L 483.914317 223.780819 
Q 482.248317 223.780819 482.248317 225.446819 
L 482.248317 310.897 
Q 482.248317 312.563 483.914317 312.563 
z
" style="fill: #4d4d4d; opacity: 0.5; stroke: #4d4d4d; stroke-linejoin: miter"/>
    </g>
    <g id="patch_8">
     <path d="M 481.914317 310.563 
L 559.369 310.563 
Q 561.035 310.563 561.035 308.897 
L 561.035 223.446819 
Q 561.035 221.780819 559.369 221.780819 
L 481.914317 221.780819 
Q 480.248317 221.780819 480.248317 223.446819 
L 480.248317 308.897 
Q 480.248317 310.563 481.914317 310.563 
z
" style="fill: #ffffff; stroke: #cccccc; stroke-linejoin: miter"/>
    </g>
    <g id="line2d_78">
     <path d="M 483.580317 228.526817 
L 491.910317 228.526817 
L 500.240317 228.526817 
" style="fill: none; stroke: #000000; stroke-width: 1.5; stroke-linecap: square"/>
     <g>
      <use xlink:href="#m37c57f4294" x="491.910317" y="228.526817" style="stroke: #000000"/>
     </g>
    </g>
    <g id="text_13">
     <!-- PGD -->
     <g transform="translate(506.904317 231.442317) scale(0.0833 -0.0833)">
      <defs>
       <path id="DejaVuSans-47" d="M 3809 666 
L 3809 1919 
L 2778 1919 
L 2778 2438 
L 4434 2438 
L 4434 434 
Q 4069 175 3628 42 
Q 3188 -91 2688 -91 
Q 1594 -91 976 548 
Q 359 1188 359 2328 
Q 359 3472 976 4111 
Q 1594 4750 2688 4750 
Q 3144 4750 3555 4637 
Q 3966 4525 4313 4306 
L 4313 3634 
Q 3963 3931 3569 4081 
Q 3175 4231 2741 4231 
Q 1884 4231 1454 3753 
Q 1025 3275 1025 2328 
Q 1025 1384 1454 906 
Q 1884 428 2741 428 
Q 3075 428 3337 486 
Q 3600 544 3809 666 
z
" transform="scale(0.015625)"/>
       <path id="DejaVuSans-44" d="M 1259 4147 
L 1259 519 
L 2022 519 
Q 2988 519 3436 956 
Q 3884 1394 3884 2338 
Q 3884 3275 3436 3711 
Q 2988 4147 2022 4147 
L 1259 4147 
z
M 628 4666 
L 1925 4666 
Q 3281 4666 3915 4102 
Q 4550 3538 4550 2338 
Q 4550 1131 3912 565 
Q 3275 0 1925 0 
L 628 0 
L 628 4666 
z
" transform="scale(0.015625)"/>
      </defs>
      <use xlink:href="#DejaVuSans-50"/>
      <use xlink:href="#DejaVuSans-47" transform="translate(60.302734 0)"/>
      <use xlink:href="#DejaVuSans-44" transform="translate(137.792969 0)"/>
     </g>
    </g>
    <g id="line2d_79">
     <path d="M 483.580317 240.753695 
L 491.910317 240.753695 
L 500.240317 240.753695 
" style="fill: none; stroke: #4b0082; stroke-width: 1.5; stroke-linecap: square"/>
     <g>
      <use xlink:href="#m9daa769970" x="491.910317" y="240.753695" style="fill: #4b0082; stroke: #4b0082; stroke-linejoin: miter"/>
     </g>
    </g>
    <g id="text_14">
     <!-- FISTA -->
     <g transform="translate(506.904317 243.669195) scale(0.0833 -0.0833)">
      <defs>
       <path id="DejaVuSans-46" d="M 628 4666 
L 3309 4666 
L 3309 4134 
L 1259 4134 
L 1259 2759 
L 3109 2759 
L 3109 2228 
L 1259 2228 
L 1259 0 
L 628 0 
L 628 4666 
z
" transform="scale(0.015625)"/>
       <path id="DejaVuSans-54" d="M -19 4666 
L 3928 4666 
L 3928 4134 
L 2272 4134 
L 2272 0 
L 1638 0 
L 1638 4134 
L -19 4134 
L -19 4666 
z
" transform="scale(0.015625)"/>
       <path id="DejaVuSans-41" d="M 2188 4044 
L 1331 1722 
L 3047 1722 
L 2188 4044 
z
M 1831 4666 
L 2547 4666 
L 4325 0 
L 3669 0 
L 3244 1197 
L 1141 1197 
L 716 0 
L 50 0 
L 1831 4666 
z
" transform="scale(0.015625)"/>
      </defs>
      <use xlink:href="#DejaVuSans-46"/>
      <use xlink:href="#DejaVuSans-49" transform="translate(57.519531 0)"/>
      <use xlink:href="#DejaVuSans-53" transform="translate(87.011719 0)"/>
      <use xlink:href="#DejaVuSans-54" transform="translate(150.488281 0)"/>
      <use xlink:href="#DejaVuSans-41" transform="translate(203.822266 0)"/>
     </g>
    </g>
    <g id="line2d_80">
     <path d="M 483.580317 252.980573 
L 491.910317 252.980573 
L 500.240317 252.980573 
" style="fill: none; stroke: #1f77b4; stroke-width: 1.5; stroke-linecap: square"/>
     <g>
      <use xlink:href="#m390a2e75e2" x="491.910317" y="252.980573" style="fill: #1f77b4; stroke: #1f77b4; stroke-linejoin: miter"/>
     </g>
    </g>
    <g id="text_15">
     <!-- MOMENTUM -->
     <g transform="translate(506.904317 255.896073) scale(0.0833 -0.0833)">
      <defs>
       <path id="DejaVuSans-4d" d="M 628 4666 
L 1569 4666 
L 2759 1491 
L 3956 4666 
L 4897 4666 
L 4897 0 
L 4281 0 
L 4281 4097 
L 3078 897 
L 2444 897 
L 1241 4097 
L 1241 0 
L 628 0 
L 628 4666 
z
" transform="scale(0.015625)"/>
       <path id="DejaVuSans-4f" d="M 2522 4238 
Q 1834 4238 1429 3725 
Q 1025 3213 1025 2328 
Q 1025 1447 1429 934 
Q 1834 422 2522 422 
Q 3209 422 3611 934 
Q 4013 1447 4013 2328 
Q 4013 3213 3611 3725 
Q 3209 4238 2522 4238 
z
M 2522 4750 
Q 3503 4750 4090 4092 
Q 4678 3434 4678 2328 
Q 4678 1225 4090 567 
Q 3503 -91 2522 -91 
Q 1538 -91 948 565 
Q 359 1222 359 2328 
Q 359 3434 948 4092 
Q 1538 4750 2522 4750 
z
" transform="scale(0.015625)"/>
       <path id="DejaVuSans-45" d="M 628 4666 
L 3578 4666 
L 3578 4134 
L 1259 4134 
L 1259 2753 
L 3481 2753 
L 3481 2222 
L 1259 2222 
L 1259 531 
L 3634 531 
L 3634 0 
L 628 0 
L 628 4666 
z
" transform="scale(0.015625)"/>
       <path id="DejaVuSans-55" d="M 556 4666 
L 1191 4666 
L 1191 1831 
Q 1191 1081 1462 751 
Q 1734 422 2344 422 
Q 2950 422 3222 751 
Q 3494 1081 3494 1831 
L 3494 4666 
L 4128 4666 
L 4128 1753 
Q 4128 841 3676 375 
Q 3225 -91 2344 -91 
Q 1459 -91 1007 375 
Q 556 841 556 1753 
L 556 4666 
z
" transform="scale(0.015625)"/>
      </defs>
      <use xlink:href="#DejaVuSans-4d"/>
      <use xlink:href="#DejaVuSans-4f" transform="translate(86.279297 0)"/>
      <use xlink:href="#DejaVuSans-4d" transform="translate(164.990234 0)"/>
      <use xlink:href="#DejaVuSans-45" transform="translate(251.269531 0)"/>
      <use xlink:href="#DejaVuSans-4e" transform="translate(314.453125 0)"/>
      <use xlink:href="#DejaVuSans-54" transform="translate(389.257812 0)"/>
      <use xlink:href="#DejaVuSans-55" transform="translate(450.341797 0)"/>
      <use xlink:href="#DejaVuSans-4d" transform="translate(523.535156 0)"/>
     </g>
    </g>
    <g id="line2d_81">
     <path d="M 483.580317 265.207452 
L 491.910317 265.207452 
L 500.240317 265.207452 
" style="fill: none; stroke: #ff7f0e; stroke-width: 1.5; stroke-linecap: square"/>
     <g>
      <use xlink:href="#m3a555e1cc1" x="491.910317" y="265.207452" style="fill: #ff7f0e; stroke: #ff7f0e; stroke-linejoin: miter"/>
     </g>
    </g>
    <g id="text_16">
     <!-- AA_M3 -->
     <g transform="translate(506.904317 268.122952) scale(0.0833 -0.0833)">
      <defs>
       <path id="DejaVuSans-5f" d="M 3263 -1063 
L 3263 -1509 
L -63 -1509 
L -63 -1063 
L 3263 -1063 
z
" transform="scale(0.015625)"/>
      </defs>
      <use xlink:href="#DejaVuSans-41"/>
      <use xlink:href="#DejaVuSans-41" transform="translate(71.158203 0)"/>
      <use xlink:href="#DejaVuSans-5f" transform="translate(139.566406 0)"/>
      <use xlink:href="#DejaVuSans-4d" transform="translate(189.566406 0)"/>
      <use xlink:href="#DejaVuSans-33" transform="translate(275.845703 0)"/>
     </g>
    </g>
    <g id="line2d_82">
     <path d="M 483.580317 277.666008 
L 491.910317 277.666008 
L 500.240317 277.666008 
" style="fill: none; stroke: #2ca02c; stroke-width: 1.5; stroke-linecap: square"/>
     <g>
      <use xlink:href="#m52e0ff5566" x="491.910317" y="277.666008" style="fill: #2ca02c; stroke: #2ca02c; stroke-linejoin: miter"/>
     </g>
    </g>
    <g id="text_17">
     <!-- AA_M4 -->
     <g transform="translate(506.904317 280.581508) scale(0.0833 -0.0833)">
      <defs>
       <path id="DejaVuSans-34" d="M 2419 4116 
L 825 1625 
L 2419 1625 
L 2419 4116 
z
M 2253 4666 
L 3047 4666 
L 3047 1625 
L 3713 1625 
L 3713 1100 
L 3047 1100 
L 3047 0 
L 2419 0 
L 2419 1100 
L 313 1100 
L 313 1709 
L 2253 4666 
z
" transform="scale(0.015625)"/>
      </defs>
      <use xlink:href="#DejaVuSans-41"/>
      <use xlink:href="#DejaVuSans-41" transform="translate(71.158203 0)"/>
      <use xlink:href="#DejaVuSans-5f" transform="translate(139.566406 0)"/>
      <use xlink:href="#DejaVuSans-4d" transform="translate(189.566406 0)"/>
      <use xlink:href="#DejaVuSans-34" transform="translate(275.845703 0)"/>
     </g>
    </g>
    <g id="line2d_83">
     <path d="M 483.580317 290.124564 
L 491.910317 290.124564 
L 500.240317 290.124564 
" style="fill: none; stroke: #d62728; stroke-width: 1.5; stroke-linecap: square"/>
     <g>
      <use xlink:href="#m8e81d84bd2" x="491.910317" y="290.124564" style="fill: #d62728; stroke: #d62728; stroke-linejoin: miter"/>
     </g>
    </g>
    <g id="text_18">
     <!-- AA_M5 -->
     <g transform="translate(506.904317 293.040064) scale(0.0833 -0.0833)">
      <defs>
       <path id="DejaVuSans-35" d="M 691 4666 
L 3169 4666 
L 3169 4134 
L 1269 4134 
L 1269 2991 
Q 1406 3038 1543 3061 
Q 1681 3084 1819 3084 
Q 2600 3084 3056 2656 
Q 3513 2228 3513 1497 
Q 3513 744 3044 326 
Q 2575 -91 1722 -91 
Q 1428 -91 1123 -41 
Q 819 9 494 109 
L 494 744 
Q 775 591 1075 516 
Q 1375 441 1709 441 
Q 2250 441 2565 725 
Q 2881 1009 2881 1497 
Q 2881 1984 2565 2268 
Q 2250 2553 1709 2553 
Q 1456 2553 1204 2497 
Q 953 2441 691 2322 
L 691 4666 
z
" transform="scale(0.015625)"/>
      </defs>
      <use xlink:href="#DejaVuSans-41"/>
      <use xlink:href="#DejaVuSans-41" transform="translate(71.158203 0)"/>
      <use xlink:href="#DejaVuSans-5f" transform="translate(139.566406 0)"/>
      <use xlink:href="#DejaVuSans-4d" transform="translate(189.566406 0)"/>
      <use xlink:href="#DejaVuSans-35" transform="translate(275.845703 0)"/>
     </g>
    </g>
    <g id="line2d_84">
     <path d="M 483.580317 302.58312 
L 491.910317 302.58312 
L 500.240317 302.58312 
" style="fill: none; stroke: #ff0000; stroke-width: 1.5; stroke-linecap: square"/>
    </g>
    <g id="text_19">
     <!-- RL AGENT -->
     <g transform="translate(506.904317 305.49862) scale(0.0833 -0.0833)">
      <use xlink:href="#DejaVuSans-52"/>
      <use xlink:href="#DejaVuSans-4c" transform="translate(69.482422 0)"/>
      <use xlink:href="#DejaVuSans-20" transform="translate(125.195312 0)"/>
      <use xlink:href="#DejaVuSans-41" transform="translate(156.982422 0)"/>
      <use xlink:href="#DejaVuSans-47" transform="translate(223.640625 0)"/>
      <use xlink:href="#DejaVuSans-45" transform="translate(301.130859 0)"/>
      <use xlink:href="#DejaVuSans-4e" transform="translate(364.314453 0)"/>
      <use xlink:href="#DejaVuSans-54" transform="translate(439.119141 0)"/>
     </g>
    </g>
   </g>
  </g>
 </g>
 <defs>
  <clipPath id="p3a36d8b935">
   <rect x="44.66" y="26.88" width="520.54" height="287.848"/>
  </clipPath>
 </defs>
</svg>
