<?xml version="1.0" encoding="utf-8" standalone="no"?>
<!DOCTYPE svg PUBLIC "-//W3C//DTD SVG 1.1//EN"
  "http://www.w3.org/Graphics/SVG/1.1/DTD/svg11.dtd">
<svg xmlns:xlink="http://www.w3.org/1999/xlink" width="576pt" height="360pt" viewBox="0 0 576 360" xmlns="http://www.w3.org/2000/svg" version="1.1">
 <metadata>
  <rdf:RDF xmlns:dc="http://purl.org/dc/elements/1.1/" xmlns:cc="http://creativecommons.org/ns#" xmlns:rdf="http://www.w3.org/1999/02/22-rdf-syntax-ns#">
   <cc:Work>
    <dc:type rdf:resource="http://purl.org/dc/dcmitype/StillImage"/>
    <dc:date>2026-04-16T12:25:40.411185</dc:date>
    <dc:format>image/svg+xml</dc:format>
    <dc:creator>
     <cc:Agent>
      <dc:title>Matplotlib v3.10.3, https://matplotlib.org/</dc:title>
     </cc:Agent>
    </dc:creator>
   </cc:Work>
  </rdf:RDF>
 </metadata>
 <defs>
  <style type="text/css">*{stroke-linejoin: round; stroke-linecap: butt}</style>
 </defs>
 <g id="figure_1">
  <g id="patch_1">
   <path d="M 0 360 
L 576 360 
L 576 0 
L 0 0 
z
" style="fill: #ffffff"/>
  </g>
  <g id="axes_1">
   <g id="patch_2">
    <path d="M 53.93 314.728 
L 565.2 314.728 
L 565.2 26.88 
L 53.93 26.88 
z
" style="fill: #ffffff"/>
   </g>
   <g id="line2d_1">
    <path d="M -1 299.144788 
L 77.169545 299.143527 
L 123.81497 296.778564 
L 151.100794 294.530237 
L 170.460394 292.380621 
L 185.476867 290.318683 
L 197.746218 288.336312 
L 208.119807 286.425715 
L 217.105819 284.580219 
L 225.032043 282.794831 
L 238.536202 279.384311 
L 249.778127 276.167753 
L 259.408116 273.122022 
L 267.830985 270.229141 
L 278.767716 266.148519 
L 288.173013 262.349562 
L 296.423551 258.797515 
L 306.05354 254.384983 
L 314.476409 250.282807 
L 323.709375 245.518224 
L 333.339364 240.251468 
L 341.762233 235.390415 
L 350.417555 230.148842 
L 360.12485 223.990377 
L 369.486464 217.781815 
L 379.23288 211.052129 
L 390.358377 203.096051 
L 403.159709 193.65398 
L 419.954089 180.945959 
L 444.573022 162.278941 
L 453.666333 155.642803 
L 463.645649 148.661775 
L 472.1446 142.972898 
L 479.689548 138.201277 
L 486.319395 134.289825 
L 492.635238 130.838972 
L 498.665699 127.804444 
L 504.787656 124.987526 
L 510.075037 122.77656 
L 515.777032 120.621854 
L 521.491507 118.688753 
L 527.847286 116.789092 
L 535.235961 114.900293 
L 541.147211 113.620514 
L 541.960455 113.459552 
L 541.960455 113.459552 
" clip-path="url(#p42e7029817)" style="fill: none; stroke: #000000; stroke-width: 1.5; stroke-linecap: square"/>
    <defs>
     <path id="m6bd11eb4ad" d="M 0 3 
C 0.795609 3 1.55874 2.683901 2.12132 2.12132 
C 2.683901 1.55874 3 0.795609 3 0 
C 3 -0.795609 2.683901 -1.55874 2.12132 -2.12132 
C 1.55874 -2.683901 0.795609 -3 0 -3 
C -0.795609 -3 -1.55874 -2.683901 -2.12132 -2.12132 
C -2.683901 -1.55874 -3 -0.795609 -3 0 
C -3 0.795609 -2.683901 1.55874 -2.12132 2.12132 
C -1.55874 2.683901 -0.795609 3 0 3 
z
" style="stroke: #000000"/>
    </defs>
    <g clip-path="url(#p42e7029817)">
     <use xlink:href="#m6bd11eb4ad" x="-1" y="299.144788" style="stroke: #000000"/>
     <use xlink:href="#m6bd11eb4ad" x="77.169545" y="299.143527" style="stroke: #000000"/>
     <use xlink:href="#m6bd11eb4ad" x="151.100794" y="294.530237" style="stroke: #000000"/>
     <use xlink:href="#m6bd11eb4ad" x="197.746218" y="288.336312" style="stroke: #000000"/>
     <use xlink:href="#m6bd11eb4ad" x="254.765232" y="274.624916" style="stroke: #000000"/>
     <use xlink:href="#m6bd11eb4ad" x="308.260135" y="253.332533" style="stroke: #000000"/>
     <use xlink:href="#m6bd11eb4ad" x="359.112875" y="224.645525" style="stroke: #000000"/>
     <use xlink:href="#m6bd11eb4ad" x="407.270613" y="190.569718" style="stroke: #000000"/>
     <use xlink:href="#m6bd11eb4ad" x="454.164818" y="155.287513" style="stroke: #000000"/>
     <use xlink:href="#m6bd11eb4ad" x="504.435632" y="125.141718" style="stroke: #000000"/>
    </g>
   </g>
   <g id="line2d_2">
    <path d="M -1 299.144788 
L 77.169545 299.143527 
L 123.81497 296.778564 
L 151.100794 293.90809 
L 170.460394 290.880892 
L 185.476867 287.83443 
L 197.746218 284.829297 
L 208.119807 281.89214 
L 217.105819 279.037229 
L 225.032043 276.269996 
L 232.122291 273.592656 
L 238.536202 271.003775 
L 249.778127 266.087534 
L 259.408116 261.511654 
L 267.830985 257.244254 
L 275.315927 253.242127 
L 285.181626 247.658781 
L 293.784188 242.507271 
L 303.772131 236.197197 
L 312.46745 230.419011 
L 321.961352 223.847876 
L 334.818437 214.58574 
L 353.811306 200.351468 
L 357.042092 197.797803 
L 358.085448 197.061602 
L 359.112875 196.188453 
L 360.12485 195.479724 
L 361.121833 194.619946 
L 362.104261 193.936595 
L 363.072553 193.090796 
L 364.02711 192.433091 
L 364.968316 191.599981 
L 365.896539 190.9678 
L 366.812133 190.146429 
L 367.715437 189.537799 
L 368.606776 188.728898 
L 369.486464 188.140288 
L 370.3548 187.343273 
L 371.212074 186.773951 
L 372.058565 185.991013 
L 372.89454 185.437084 
L 373.720257 184.669684 
L 374.535966 184.129126 
L 375.341905 183.378482 
L 376.138306 182.850954 
L 376.925393 182.115557 
L 377.703379 181.601862 
L 378.472475 180.880688 
L 379.23288 180.38073 
L 379.984789 179.672658 
L 380.728389 179.185657 
L 381.463862 178.49008 
L 382.191384 178.015816 
L 382.911125 177.333609 
L 383.623249 176.871572 
L 384.327916 176.201202 
L 385.025281 175.751488 
L 385.715494 175.093052 
L 386.398699 174.654395 
L 387.075037 174.006821 
L 387.744646 173.581389 
L 388.407658 172.943947 
L 389.064201 172.5304 
L 389.7144 171.903212 
L 390.358377 171.500868 
L 390.996251 170.884493 
L 391.628134 170.492184 
L 392.25414 169.888814 
L 392.874376 169.503373 
L 393.488948 168.912912 
L 394.097957 168.534655 
L 394.701505 167.95737 
L 395.299688 167.585202 
L 395.8926 167.022286 
L 396.480334 166.653576 
L 397.06298 166.106199 
L 397.640624 165.739414 
L 398.213352 165.208524 
L 398.781246 164.844418 
L 399.902858 163.966544 
L 401.550984 162.621055 
L 403.159709 161.435115 
L 404.730873 160.188094 
L 406.770275 158.650858 
L 411.61374 155.068027 
L 416.131888 151.801761 
L 427.373813 143.880217 
L 427.742554 143.70944 
L 428.109286 143.380454 
L 428.47403 143.2126 
L 428.836808 142.891114 
L 429.197641 142.725988 
L 429.556549 142.411639 
L 429.913553 142.247705 
L 430.973341 141.479015 
L 431.322927 141.320537 
L 432.360918 140.579367 
L 432.703388 140.425517 
L 433.720462 139.708751 
L 434.056099 139.557994 
L 435.053082 138.865145 
L 436.03551 138.30839 
L 437.003802 137.645254 
L 437.958359 137.115217 
L 438.899565 136.47741 
L 439.210397 136.35225 
L 440.134372 135.727862 
L 440.439566 135.610496 
L 441.34693 135.001379 
L 441.646686 134.88635 
L 442.538025 134.295183 
L 442.832533 134.182517 
L 443.708404 133.606863 
L 443.997846 133.498581 
L 444.858776 132.936615 
L 445.143323 132.837515 
L 445.989813 132.284 
L 446.269627 132.195884 
L 446.548282 131.966485 
L 446.825788 131.882046 
L 447.102155 131.653767 
L 447.377391 131.571618 
L 447.924509 131.266499 
L 448.736934 130.750199 
L 449.005578 130.671776 
L 449.805133 130.173693 
L 450.069555 130.095562 
L 450.856641 129.614893 
L 451.634628 129.262769 
L 452.403724 128.810595 
L 453.164129 128.475569 
L 453.916037 128.041052 
L 454.659637 127.718982 
L 455.39511 127.302683 
L 456.122632 126.988066 
L 456.842373 126.599824 
L 457.554497 126.285353 
L 458.724877 125.706655 
L 461.897625 124.266157 
L 464.715546 123.049555 
L 465.768699 122.644118 
L 466.805625 122.204438 
L 467.826814 121.820726 
L 469.230937 121.264995 
L 475.119455 119.115038 
L 475.301088 119.121687 
L 475.482233 118.995138 
L 475.662891 119.007633 
L 475.843065 118.875142 
L 476.022759 118.894626 
L 476.201973 118.755583 
L 476.380712 118.782642 
L 476.558978 118.637316 
L 476.736772 118.671047 
L 476.914098 118.520387 
L 477.090958 118.559453 
L 477.267354 118.405724 
L 477.443289 118.449977 
L 477.618765 118.291548 
L 477.793785 118.341744 
L 477.968351 118.178858 
L 478.142465 118.234874 
L 478.31613 118.068506 
L 478.489348 118.128979 
L 478.662121 117.958202 
L 478.834452 118.022621 
L 479.006343 117.850091 
L 479.177795 117.916531 
L 479.348812 117.742929 
L 479.519396 117.810611 
L 479.689548 117.637277 
L 479.859271 117.704107 
L 480.028567 117.531991 
L 480.197438 117.598114 
L 480.365886 117.428068 
L 480.533914 117.492414 
L 480.701523 117.324584 
L 480.868716 117.387201 
L 481.035495 117.222025 
L 481.201861 117.283181 
L 481.367817 117.120465 
L 481.533365 117.180792 
L 481.698506 117.020147 
L 481.863244 117.078964 
L 482.027579 116.922265 
L 482.191513 116.979353 
L 482.355049 116.825137 
L 482.518189 116.879595 
L 482.680934 116.729447 
L 482.843287 116.781469 
L 483.005249 116.634438 
L 483.166822 116.684707 
L 483.328008 116.540915 
L 483.488809 116.588602 
L 483.649226 116.447636 
L 483.809262 116.493472 
L 483.968919 116.355647 
L 484.128197 116.39878 
L 484.2871 116.264243 
L 484.445628 116.306085 
L 484.603783 116.174422 
L 484.761568 116.214607 
L 484.918983 116.085502 
L 485.076032 116.12369 
L 485.232714 115.997751 
L 485.389033 116.035111 
L 485.544989 115.911096 
L 485.700585 115.948116 
L 485.855821 115.825586 
L 486.010701 115.861826 
L 486.165225 115.742 
L 486.319395 115.776218 
L 486.473212 115.659169 
L 486.626679 115.692145 
L 486.779796 115.577239 
L 486.932566 115.607439 
L 487.23707 115.523195 
L 487.691257 115.339778 
L 487.992354 115.261793 
L 488.441489 115.183127 
L 488.887646 115.0331 
L 489.62473 114.848831 
L 494.70602 113.602345 
L 494.841833 113.637538 
L 495.247634 113.483103 
L 495.382359 113.521876 
L 495.516815 113.423994 
L 495.651002 113.46491 
L 495.784923 113.365347 
L 495.918578 113.407797 
L 496.051968 113.306992 
L 496.185094 113.350758 
L 496.317957 113.250172 
L 496.450558 113.293719 
L 496.582898 113.194156 
L 496.714979 113.236753 
L 496.978365 113.180054 
L 497.371522 113.033925 
L 497.502066 113.066682 
L 497.892183 112.928443 
L 498.280053 112.907157 
L 498.665699 112.781437 
L 499.049148 112.754452 
L 499.430424 112.64315 
L 499.809553 112.610124 
L 500.186557 112.50776 
L 500.561462 112.47286 
L 501.058107 112.382089 
L 501.673803 112.250865 
L 502.526422 112.11192 
L 505.947945 111.473284 
L 506.748407 111.351217 
L 507.763776 111.176909 
L 508.764052 111.049021 
L 509.0942 110.97167 
L 509.422737 110.964656 
L 509.749677 110.880948 
L 510.075037 110.882044 
L 510.398832 110.798019 
L 510.721075 110.806519 
L 511.041783 110.724418 
L 511.36097 110.735135 
L 511.678651 110.654179 
L 511.994838 110.664871 
L 512.309547 110.58277 
L 512.622791 110.585376 
L 512.934584 110.509973 
L 513.244938 110.50101 
L 513.759036 110.403664 
L 514.065621 110.397429 
L 514.370814 110.321052 
L 514.67463 110.315207 
L 514.977081 110.239219 
L 515.278178 110.235639 
L 515.577934 110.163938 
L 515.876361 110.163086 
L 516.17347 110.095476 
L 516.469273 110.100932 
L 516.763782 110.025699 
L 517.057007 110.04343 
L 517.348961 109.957213 
L 517.639653 109.9832 
L 517.929095 109.897324 
L 518.217297 109.925771 
L 518.50427 109.842842 
L 518.790025 109.874309 
L 519.074571 109.794449 
L 519.35792 109.826963 
L 519.64008 109.745106 
L 519.921062 109.784683 
L 520.200876 109.695349 
L 520.293889 109.756163 
L 520.57216 109.665222 
L 520.664662 109.726499 
L 520.941407 109.637214 
L 521.217019 109.674891 
L 521.491507 109.595859 
L 521.764879 109.620238 
L 522.037146 109.556355 
L 522.308315 109.566633 
L 522.75785 109.511883 
L 523.64801 109.456256 
L 524.613775 109.369309 
L 525.048219 109.364974 
L 525.307546 109.313147 
L 525.565877 109.329903 
L 525.82322 109.273789 
L 526.079582 109.293297 
L 526.334972 109.236136 
L 526.589396 109.258153 
L 526.842862 109.202527 
L 527.095377 109.223861 
L 527.346948 109.170768 
L 527.597582 109.192468 
L 527.847286 109.143588 
L 528.096066 109.168235 
L 528.343931 109.115531 
L 528.590886 109.145828 
L 528.836938 109.09103 
L 529.082093 109.112657 
L 529.407584 109.084722 
L 530.053881 109.023932 
L 530.614343 109.019962 
L 530.85312 108.960804 
L 531.091052 109.00418 
L 531.328146 108.921568 
L 531.406992 108.994316 
L 531.485746 108.906931 
L 531.564408 108.987619 
L 531.642978 108.892293 
L 531.721456 108.980483 
L 531.799843 108.876901 
L 531.878138 108.971983 
L 531.956343 108.861509 
L 532.034457 108.960974 
L 532.11248 108.845873 
L 532.190413 108.950112 
L 532.268256 108.83143 
L 532.346009 108.938008 
L 532.423672 108.817134 
L 532.501246 108.926512 
L 532.57873 108.803666 
L 532.656125 108.914749 
L 532.733432 108.790246 
L 532.810649 108.903399 
L 532.887778 108.777387 
L 532.964819 108.891514 
L 533.041772 108.76516 
L 533.118637 108.880043 
L 533.195414 108.753032 
L 533.272103 108.867378 
L 533.348706 108.741341 
L 533.425221 108.854494 
L 533.501649 108.729164 
L 533.577991 108.840856 
L 533.654246 108.717936 
L 533.730415 108.827071 
L 533.806497 108.707317 
L 533.882494 108.812628 
L 533.958405 108.696894 
L 534.034231 108.799306 
L 534.109971 108.685763 
L 534.185626 108.785716 
L 534.261196 108.675388 
L 534.336681 108.772467 
L 534.412082 108.664087 
L 534.487398 108.758877 
L 534.56263 108.653956 
L 534.637778 108.746017 
L 534.712843 108.644263 
L 534.787823 108.734205 
L 534.862721 108.635592 
L 534.937535 108.723099 
L 535.012265 108.628602 
L 535.086913 108.712578 
L 535.310362 108.617009 
L 535.38468 108.691268 
L 535.458916 108.611383 
L 535.681135 108.669348 
L 535.902622 108.59509 
L 536.123382 108.638149 
L 536.343421 108.572659 
L 536.562743 108.606975 
L 536.781352 108.547914 
L 536.999253 108.5711 
L 537.216451 108.527481 
L 537.576897 108.530988 
L 538.006899 108.50768 
L 538.505121 108.467835 
L 538.99968 108.465205 
L 539.350725 108.427844 
L 539.839131 108.414668 
L 540.599536 108.372778 
L 541.960455 108.312451 
L 541.960455 108.312451 
" clip-path="url(#p42e7029817)" style="fill: none; stroke: #4b0082; stroke-width: 1.5; stroke-linecap: square"/>
    <defs>
     <path id="m289b03f2d8" d="M -3 3 
L 3 3 
L 3 -3 
L -3 -3 
z
" style="stroke: #4b0082; stroke-linejoin: miter"/>
    </defs>
    <g clip-path="url(#p42e7029817)">
     <use xlink:href="#m289b03f2d8" x="-1" y="299.144788" style="fill: #4b0082; stroke: #4b0082; stroke-linejoin: miter"/>
     <use xlink:href="#m289b03f2d8" x="77.169545" y="299.143527" style="fill: #4b0082; stroke: #4b0082; stroke-linejoin: miter"/>
     <use xlink:href="#m289b03f2d8" x="151.100794" y="293.90809" style="fill: #4b0082; stroke: #4b0082; stroke-linejoin: miter"/>
     <use xlink:href="#m289b03f2d8" x="197.746218" y="284.829297" style="fill: #4b0082; stroke: #4b0082; stroke-linejoin: miter"/>
     <use xlink:href="#m289b03f2d8" x="249.778127" y="266.087534" style="fill: #4b0082; stroke: #4b0082; stroke-linejoin: miter"/>
     <use xlink:href="#m289b03f2d8" x="303.772131" y="236.197197" style="fill: #4b0082; stroke: #4b0082; stroke-linejoin: miter"/>
     <use xlink:href="#m289b03f2d8" x="350.417555" y="202.897607" style="fill: #4b0082; stroke: #4b0082; stroke-linejoin: miter"/>
     <use xlink:href="#m289b03f2d8" x="396.480334" y="166.653576" style="fill: #4b0082; stroke: #4b0082; stroke-linejoin: miter"/>
     <use xlink:href="#m289b03f2d8" x="444.286048" y="133.270034" style="fill: #4b0082; stroke: #4b0082; stroke-linejoin: miter"/>
     <use xlink:href="#m289b03f2d8" x="496.450558" y="113.293719" style="fill: #4b0082; stroke: #4b0082; stroke-linejoin: miter"/>
    </g>
   </g>
   <g id="line2d_3">
    <path d="M -1 299.144788 
L 77.169545 299.143527 
L 123.81497 294.714507 
L 151.100794 290.669491 
L 170.460394 286.922995 
L 185.476867 283.420851 
L 197.746218 280.128866 
L 208.119807 277.017132 
L 217.105819 274.068917 
L 225.032043 271.261986 
L 232.122291 268.586595 
L 244.391643 263.594879 
L 254.765232 259.023553 
L 263.751243 254.800625 
L 271.677467 250.866278 
L 282.051056 245.404998 
L 291.037067 240.400861 
L 301.410656 234.288987 
L 312.46745 227.382729 
L 320.166709 222.377495 
L 325.41314 218.910642 
L 345.608716 204.891303 
L 363.072553 192.061361 
L 369.486464 187.221327 
L 375.341905 182.711059 
L 379.23288 179.751276 
L 382.911125 176.888864 
L 386.398699 174.24153 
L 389.7144 171.665751 
L 391.628134 170.238819 
L 393.488948 168.780737 
L 395.299688 167.442116 
L 397.06298 166.059145 
L 398.781246 164.801943 
L 400.45673 163.488408 
L 402.09151 162.298912 
L 403.687517 161.062777 
L 406.266189 159.17483 
L 409.235573 156.993114 
L 414.808007 152.97187 
L 419.539964 149.667926 
L 420.774772 148.7524 
L 421.18139 148.537906 
L 422.386708 147.636651 
L 422.783731 147.439644 
L 423.178424 147.093609 
L 423.570817 146.900742 
L 423.960935 146.558092 
L 424.348804 146.36922 
L 424.73445 146.030588 
L 425.117899 145.844614 
L 425.499176 145.510683 
L 425.878304 145.328021 
L 426.255309 144.998499 
L 426.630213 144.819076 
L 427.00304 144.49311 
L 427.373813 144.318923 
L 427.742554 143.995027 
L 428.109286 143.82727 
L 428.47403 143.506345 
L 428.836808 143.343361 
L 429.197641 143.025651 
L 429.556549 142.867344 
L 429.913553 142.553287 
L 430.268673 142.398463 
L 430.621929 142.088497 
L 430.973341 141.938057 
L 431.322927 141.631915 
L 431.670706 141.483618 
L 432.016697 141.182371 
L 432.360918 141.035949 
L 432.703388 140.739623 
L 433.044123 140.59437 
L 433.720462 140.159464 
L 434.722393 139.450759 
L 435.053082 139.307917 
L 436.03551 138.624859 
L 436.359825 138.483746 
L 437.323494 137.823459 
L 438.273559 137.296418 
L 439.210397 136.667354 
L 440.134372 136.164693 
L 441.045832 135.568508 
L 441.945112 135.086767 
L 442.832533 134.525678 
L 443.708404 134.059256 
L 444.858776 133.39914 
L 446.548282 132.446764 
L 450.856641 130.100969 
L 451.634628 129.753205 
L 452.403724 129.293676 
L 452.658148 129.232131 
L 453.415699 128.777034 
L 453.666333 128.723453 
L 453.916037 128.524352 
L 454.164818 128.474059 
L 454.412682 128.275322 
L 454.659637 128.226466 
L 454.905689 128.029751 
L 455.150845 127.981943 
L 455.39511 127.786007 
L 455.638493 127.741072 
L 455.880998 127.546379 
L 456.122632 127.503417 
L 456.363402 127.309356 
L 456.603314 127.269366 
L 456.842373 127.076133 
L 457.080586 127.038676 
L 457.317959 126.846223 
L 457.554497 126.811298 
L 457.790207 126.619697 
L 458.025095 126.587646 
L 458.259165 126.395851 
L 458.492424 126.367258 
L 458.724877 126.175682 
L 458.95653 126.149866 
L 459.187388 125.958631 
L 459.417457 125.934739 
L 459.646742 125.74421 
L 459.875249 125.722534 
L 460.102982 125.532955 
L 460.329947 125.513301 
L 460.55615 125.324599 
L 460.781594 125.306576 
L 461.006286 125.118532 
L 461.23023 125.103066 
L 461.453431 124.915338 
L 461.675895 124.901334 
L 461.897625 124.714288 
L 462.118627 124.703182 
L 462.338906 124.516672 
L 462.558466 124.507466 
L 462.777312 124.321078 
L 462.995449 124.314526 
L 463.212881 124.128406 
L 463.429613 124.1239 
L 463.645649 123.939265 
L 463.860993 123.936489 
L 464.075651 123.752122 
L 464.289626 123.749906 
L 464.502923 123.567463 
L 464.715546 123.56644 
L 464.927499 123.386213 
L 465.138787 123.384557 
L 465.349414 123.206863 
L 465.559383 123.20511 
L 465.768699 123.030193 
L 465.977366 123.027051 
L 466.185389 122.8553 
L 466.39277 122.850258 
L 466.599514 122.683427 
L 466.805625 122.675828 
L 467.011106 122.512869 
L 467.215962 122.5032 
L 467.420196 122.345234 
L 467.623812 122.333008 
L 468.029206 122.165275 
L 468.632754 121.859743 
L 468.832739 121.839236 
L 469.429155 121.549582 
L 470.020331 121.3724 
L 470.606359 121.102353 
L 471.187328 120.926583 
L 471.763324 120.6758 
L 472.334432 120.50154 
L 473.275637 120.148175 
L 475.119455 119.536135 
L 476.022759 119.211021 
L 476.558978 119.063308 
L 477.090958 118.855852 
L 477.618765 118.719148 
L 478.142465 118.516905 
L 478.662121 118.38361 
L 479.348812 118.16461 
L 480.197438 117.876199 
L 481.035495 117.635767 
L 482.191513 117.267472 
L 483.968919 116.741332 
L 486.319395 116.0629 
L 490.063137 115.045375 
L 490.498705 114.970362 
L 490.931473 114.822479 
L 491.361475 114.753286 
L 491.788747 114.607352 
L 492.213323 114.545271 
L 492.635238 114.400432 
L 493.054523 114.343247 
L 493.471213 114.199138 
L 493.885338 114.145168 
L 494.29693 113.999282 
L 494.70602 113.949646 
L 495.112639 113.8051 
L 495.516815 113.761529 
L 495.918578 113.614084 
L 496.051968 113.640631 
L 496.450558 113.492577 
L 496.582898 113.521218 
L 496.978365 113.374626 
L 497.240725 113.31878 
L 497.632356 113.284269 
L 498.021722 113.15738 
L 498.408847 113.113005 
L 498.793758 112.996394 
L 499.17648 112.951118 
L 499.557038 112.837405 
L 499.935456 112.793493 
L 500.311758 112.682824 
L 500.685967 112.637986 
L 501.305062 112.485914 
L 501.918513 112.391417 
L 502.526422 112.253373 
L 503.368374 112.108656 
L 504.435632 111.900957 
L 505.254175 111.775748 
L 505.832813 111.653876 
L 506.406517 111.577986 
L 507.539458 111.384096 
L 508.984331 111.177615 
L 509.313403 111.090035 
L 509.640874 111.087697 
L 509.966759 110.988231 
L 510.291073 111.000311 
L 510.613832 110.892565 
L 510.721075 110.94371 
L 511.041783 110.832798 
L 511.148347 110.889715 
L 511.254743 110.803791 
L 511.36097 110.864021 
L 511.46703 110.77459 
L 511.572924 110.838789 
L 511.678651 110.745997 
L 511.784212 110.814897 
L 511.889607 110.717477 
L 511.994838 110.790907 
L 512.099905 110.687983 
L 512.204807 110.767527 
L 512.309547 110.659098 
L 512.414124 110.743318 
L 512.518538 110.629726 
L 512.622791 110.718646 
L 512.726882 110.601523 
L 512.830813 110.69244 
L 512.934584 110.574855 
L 513.038194 110.665626 
L 513.141646 110.549331 
L 513.244938 110.638762 
L 513.348073 110.525682 
L 513.451049 110.611217 
L 513.553868 110.503933 
L 513.65653 110.585279 
L 513.759036 110.482525 
L 513.861386 110.55878 
L 513.963581 110.462505 
L 514.065621 110.532769 
L 514.167506 110.44268 
L 514.269237 110.506831 
L 514.472239 110.480625 
L 514.775598 110.381014 
L 515.077596 110.403712 
L 515.378245 110.317666 
L 515.677557 110.329162 
L 515.975543 110.254417 
L 516.272216 110.25561 
L 516.567586 110.190168 
L 516.959408 110.147571 
L 517.445998 110.108604 
L 518.217297 110.012036 
L 534.034231 108.747187 
L 534.261196 108.774342 
L 534.487398 108.725803 
L 534.787823 108.71024 
L 535.161479 108.702446 
L 535.902622 108.643483 
L 536.562743 108.623926 
L 536.926698 108.587613 
L 537.504962 108.570954 
L 538.99968 108.48391 
L 539.210527 108.542167 
L 539.420715 108.456949 
L 539.490632 108.541777 
L 539.560476 108.44728 
L 539.630248 108.540462 
L 539.699948 108.437489 
L 539.769575 108.538002 
L 539.839131 108.429476 
L 539.908615 108.533813 
L 539.978027 108.421975 
L 540.047368 108.528455 
L 540.116637 108.414961 
L 540.185835 108.52222 
L 540.254962 108.409213 
L 540.324018 108.51657 
L 540.393004 108.403149 
L 540.461918 108.509872 
L 540.530762 108.39745 
L 540.599536 108.504197 
L 540.66824 108.392043 
L 540.736873 108.497256 
L 540.805437 108.386003 
L 540.87393 108.490266 
L 540.942355 108.38006 
L 541.010709 108.482594 
L 541.078994 108.373557 
L 541.147211 108.4739 
L 541.215358 108.366543 
L 541.283436 108.465254 
L 541.487257 108.353513 
L 541.555061 108.444869 
L 541.758063 108.341384 
L 541.960455 108.412817 
L 541.960455 108.412817 
" clip-path="url(#p42e7029817)" style="fill: none; stroke: #1f77b4; stroke-width: 1.5; stroke-linecap: square"/>
    <defs>
     <path id="m022008b802" d="M -0 3 
L 3 -3 
L -3 -3 
z
" style="stroke: #1f77b4; stroke-linejoin: miter"/>
    </defs>
    <g clip-path="url(#p42e7029817)">
     <use xlink:href="#m022008b802" x="-1" y="299.144788" style="fill: #1f77b4; stroke: #1f77b4; stroke-linejoin: miter"/>
     <use xlink:href="#m022008b802" x="77.169545" y="299.143527" style="fill: #1f77b4; stroke: #1f77b4; stroke-linejoin: miter"/>
     <use xlink:href="#m022008b802" x="151.100794" y="290.669491" style="fill: #1f77b4; stroke: #1f77b4; stroke-linejoin: miter"/>
     <use xlink:href="#m022008b802" x="197.746218" y="280.128866" style="fill: #1f77b4; stroke: #1f77b4; stroke-linejoin: miter"/>
     <use xlink:href="#m022008b802" x="249.778127" y="261.261212" style="fill: #1f77b4; stroke: #1f77b4; stroke-linejoin: miter"/>
     <use xlink:href="#m022008b802" x="303.772131" y="232.841037" style="fill: #1f77b4; stroke: #1f77b4; stroke-linejoin: miter"/>
     <use xlink:href="#m022008b802" x="351.567927" y="200.580039" style="fill: #1f77b4; stroke: #1f77b4; stroke-linejoin: miter"/>
     <use xlink:href="#m022008b802" x="398.213352" y="165.186629" style="fill: #1f77b4; stroke: #1f77b4; stroke-linejoin: miter"/>
     <use xlink:href="#m022008b802" x="446.548282" y="132.446764" style="fill: #1f77b4; stroke: #1f77b4; stroke-linejoin: miter"/>
     <use xlink:href="#m022008b802" x="499.935456" y="112.793493" style="fill: #1f77b4; stroke: #1f77b4; stroke-linejoin: miter"/>
    </g>
   </g>
   <g id="line2d_4">
    <path d="M -1 299.144788 
L 77.169545 299.143527 
L 123.81497 296.778564 
L 151.100794 275.251618 
L 170.460394 271.374432 
L 185.476867 264.093132 
L 197.746218 259.435858 
L 208.119807 254.36265 
L 217.105819 248.015946 
L 225.032043 241.652388 
L 232.122291 235.652207 
L 249.778127 221.965142 
L 254.765232 218.673011 
L 259.408116 215.096146 
L 267.830985 207.818596 
L 271.677467 204.445169 
L 275.315927 200.486881 
L 282.051056 193.519419 
L 296.423551 177.791166 
L 301.410656 172.907951 
L 314.476409 158.538777 
L 320.166709 152.590642 
L 321.961352 150.933117 
L 325.41314 148.063544 
L 327.074833 146.936666 
L 328.69648 146.002532 
L 330.279968 144.939487 
L 331.827051 143.727 
L 333.339364 142.82107 
L 336.2657 141.656611 
L 337.682492 141.065029 
L 339.070069 140.646904 
L 340.429613 140.095702 
L 345.608716 137.329468 
L 348.056081 135.686094 
L 352.698964 132.303484 
L 357.042092 128.907893 
L 360.12485 126.83916 
L 364.02711 124.538811 
L 366.812133 123.138816 
L 368.606776 122.443506 
L 370.3548 122.008844 
L 372.058565 121.849465 
L 402.627729 120.965648 
L 428.109286 119.969628 
L 448.467214 118.964135 
L 471.763324 117.568036 
L 493.747579 116.029412 
L 541.960455 112.300037 
L 541.960455 112.300037 
" clip-path="url(#p42e7029817)" style="fill: none; stroke: #ff7f0e; stroke-width: 1.5; stroke-linecap: square"/>
    <defs>
     <path id="m050e544016" d="M -0 3 
L 3 -3 
L -3 -3 
z
" style="stroke: #ff7f0e; stroke-linejoin: miter"/>
    </defs>
    <g clip-path="url(#p42e7029817)">
     <use xlink:href="#m050e544016" x="-1" y="299.144788" style="fill: #ff7f0e; stroke: #ff7f0e; stroke-linejoin: miter"/>
     <use xlink:href="#m050e544016" x="77.169545" y="299.143527" style="fill: #ff7f0e; stroke: #ff7f0e; stroke-linejoin: miter"/>
     <use xlink:href="#m050e544016" x="123.81497" y="296.778564" style="fill: #ff7f0e; stroke: #ff7f0e; stroke-linejoin: miter"/>
     <use xlink:href="#m050e544016" x="185.476867" y="264.093132" style="fill: #ff7f0e; stroke: #ff7f0e; stroke-linejoin: miter"/>
     <use xlink:href="#m050e544016" x="238.536202" y="230.652794" style="fill: #ff7f0e; stroke: #ff7f0e; stroke-linejoin: miter"/>
     <use xlink:href="#m050e544016" x="282.051056" y="193.519419" style="fill: #ff7f0e; stroke: #ff7f0e; stroke-linejoin: miter"/>
     <use xlink:href="#m050e544016" x="321.961352" y="150.933117" style="fill: #ff7f0e; stroke: #ff7f0e; stroke-linejoin: miter"/>
     <use xlink:href="#m050e544016" x="372.058565" y="121.849465" style="fill: #ff7f0e; stroke: #ff7f0e; stroke-linejoin: miter"/>
     <use xlink:href="#m050e544016" x="430.268673" y="119.872915" style="fill: #ff7f0e; stroke: #ff7f0e; stroke-linejoin: miter"/>
     <use xlink:href="#m050e544016" x="488.887646" y="116.385725" style="fill: #ff7f0e; stroke: #ff7f0e; stroke-linejoin: miter"/>
    </g>
   </g>
   <g id="line2d_5">
    <path d="M -1 299.144788 
L 77.169545 299.143527 
L 123.81497 296.778564 
L 151.100794 275.251618 
L 170.460394 271.374432 
L 185.476867 264.046882 
L 197.746218 259.697089 
L 208.119807 254.520031 
L 217.105819 248.222841 
L 225.032043 242.066422 
L 232.122291 236.222137 
L 244.391643 227.188742 
L 249.778127 223.259364 
L 254.765232 219.965893 
L 259.408116 216.451962 
L 263.751243 212.496134 
L 267.830985 209.093748 
L 271.677467 205.445085 
L 291.037067 184.816228 
L 293.784188 181.782308 
L 298.963291 176.684501 
L 310.396668 164.36448 
L 316.427129 157.726929 
L 320.166709 153.950817 
L 325.41314 149.72253 
L 331.827051 145.069835 
L 334.818437 143.779802 
L 336.2657 143.350741 
L 337.682492 142.580248 
L 339.070069 142.403455 
L 340.429613 141.594676 
L 341.762233 141.135902 
L 343.068976 140.298823 
L 344.350826 139.623314 
L 348.056081 136.972473 
L 351.567927 134.161352 
L 360.12485 126.988529 
L 363.072553 124.913707 
L 366.812133 122.435347 
L 370.3548 120.350662 
L 372.89454 119.048451 
L 375.341905 118.072281 
L 377.703379 117.3693 
L 379.984789 116.943454 
L 382.191384 116.809258 
L 417.000224 116.291179 
L 447.651506 115.619153 
L 474.571595 114.806843 
L 507.539458 113.490239 
L 536.562743 112.094871 
L 541.960455 111.825238 
L 541.960455 111.825238 
" clip-path="url(#p42e7029817)" style="fill: none; stroke: #2ca02c; stroke-width: 1.5; stroke-linecap: square"/>
    <defs>
     <path id="me8df398222" d="M -0 3 
L 3 -3 
L -3 -3 
z
" style="stroke: #2ca02c; stroke-linejoin: miter"/>
    </defs>
    <g clip-path="url(#p42e7029817)">
     <use xlink:href="#me8df398222" x="-1" y="299.144788" style="fill: #2ca02c; stroke: #2ca02c; stroke-linejoin: miter"/>
     <use xlink:href="#me8df398222" x="77.169545" y="299.143527" style="fill: #2ca02c; stroke: #2ca02c; stroke-linejoin: miter"/>
     <use xlink:href="#me8df398222" x="123.81497" y="296.778564" style="fill: #2ca02c; stroke: #2ca02c; stroke-linejoin: miter"/>
     <use xlink:href="#me8df398222" x="185.476867" y="264.046882" style="fill: #2ca02c; stroke: #2ca02c; stroke-linejoin: miter"/>
     <use xlink:href="#me8df398222" x="238.536202" y="231.461622" style="fill: #2ca02c; stroke: #2ca02c; stroke-linejoin: miter"/>
     <use xlink:href="#me8df398222" x="282.051056" y="194.419285" style="fill: #2ca02c; stroke: #2ca02c; stroke-linejoin: miter"/>
     <use xlink:href="#me8df398222" x="321.961352" y="152.488034" style="fill: #2ca02c; stroke: #2ca02c; stroke-linejoin: miter"/>
     <use xlink:href="#me8df398222" x="370.3548" y="120.350662" style="fill: #2ca02c; stroke: #2ca02c; stroke-linejoin: miter"/>
     <use xlink:href="#me8df398222" x="428.836808" y="116.060002" style="fill: #2ca02c; stroke: #2ca02c; stroke-linejoin: miter"/>
     <use xlink:href="#me8df398222" x="487.540201" y="114.330679" style="fill: #2ca02c; stroke: #2ca02c; stroke-linejoin: miter"/>
    </g>
   </g>
   <g id="line2d_6">
    <path d="M -1 299.144788 
L 77.169545 299.143527 
L 123.81497 296.778564 
L 151.100794 275.251618 
L 170.460394 271.374432 
L 185.476867 264.046882 
L 197.746218 259.717182 
L 208.119807 254.679581 
L 217.105819 249.217741 
L 225.032043 242.807592 
L 232.122291 236.910359 
L 244.391643 227.667901 
L 254.765232 220.039883 
L 259.408116 216.756739 
L 263.751243 212.403366 
L 267.830985 209.382013 
L 271.677467 205.365201 
L 275.315927 202.139048 
L 278.767716 198.107915 
L 282.051056 194.979741 
L 285.181626 191.693163 
L 288.173013 188.320977 
L 291.037067 185.497022 
L 293.784188 182.085186 
L 296.423551 179.634665 
L 306.05354 169.64093 
L 308.260135 167.208017 
L 310.396668 165.134632 
L 312.46745 162.806689 
L 314.476409 160.783621 
L 316.427129 158.629182 
L 321.961352 153.41172 
L 325.41314 150.717844 
L 331.827051 146.402221 
L 333.339364 145.167742 
L 334.818437 144.875117 
L 336.2657 143.896389 
L 337.682492 143.874689 
L 339.070069 142.794182 
L 340.429613 142.900174 
L 341.762233 142.038326 
L 343.068976 141.665403 
L 344.350826 140.789575 
L 345.608716 140.119741 
L 348.056081 138.3156 
L 350.417555 136.356537 
L 353.811306 133.335062 
L 360.12485 127.695528 
L 364.02711 124.819307 
L 368.606776 121.720725 
L 372.89454 119.187859 
L 375.341905 118.007959 
L 379.23288 116.420455 
L 382.191384 115.450836 
L 385.025281 114.804505 
L 387.744646 114.458518 
L 390.358377 114.372472 
L 427.373813 114.042341 
L 468.029206 113.445694 
L 500.810242 112.70562 
L 531.721456 111.769684 
L 541.960455 111.418632 
L 541.960455 111.418632 
" clip-path="url(#p42e7029817)" style="fill: none; stroke: #d62728; stroke-width: 1.5; stroke-linecap: square"/>
    <defs>
     <path id="m8a9b3f48a2" d="M -0 3 
L 3 -3 
L -3 -3 
z
" style="stroke: #d62728; stroke-linejoin: miter"/>
    </defs>
    <g clip-path="url(#p42e7029817)">
     <use xlink:href="#m8a9b3f48a2" x="-1" y="299.144788" style="fill: #d62728; stroke: #d62728; stroke-linejoin: miter"/>
     <use xlink:href="#m8a9b3f48a2" x="77.169545" y="299.143527" style="fill: #d62728; stroke: #d62728; stroke-linejoin: miter"/>
     <use xlink:href="#m8a9b3f48a2" x="123.81497" y="296.778564" style="fill: #d62728; stroke: #d62728; stroke-linejoin: miter"/>
     <use xlink:href="#m8a9b3f48a2" x="185.476867" y="264.046882" style="fill: #d62728; stroke: #d62728; stroke-linejoin: miter"/>
     <use xlink:href="#m8a9b3f48a2" x="238.536202" y="232.046774" style="fill: #d62728; stroke: #d62728; stroke-linejoin: miter"/>
     <use xlink:href="#m8a9b3f48a2" x="282.051056" y="194.979741" style="fill: #d62728; stroke: #d62728; stroke-linejoin: miter"/>
     <use xlink:href="#m8a9b3f48a2" x="321.961352" y="153.41172" style="fill: #d62728; stroke: #d62728; stroke-linejoin: miter"/>
     <use xlink:href="#m8a9b3f48a2" x="370.3548" y="120.664816" style="fill: #d62728; stroke: #d62728; stroke-linejoin: miter"/>
     <use xlink:href="#m8a9b3f48a2" x="428.109286" y="114.033841" style="fill: #d62728; stroke: #d62728; stroke-linejoin: miter"/>
     <use xlink:href="#m8a9b3f48a2" x="486.626679" y="113.058109" style="fill: #d62728; stroke: #d62728; stroke-linejoin: miter"/>
    </g>
   </g>
   <g id="line2d_7">
    <path d="M -1 288.732045 
L 77.169545 288.725528 
L 123.81497 278.350979 
L 151.100794 269.689411 
L 170.460394 228.467084 
L 185.476867 224.063661 
L 197.746218 219.591022 
L 208.119807 200.455536 
L 217.105819 197.561049 
L 225.032043 194.633633 
L 232.122291 183.023874 
L 238.536202 181.769497 
L 244.391643 178.405154 
L 249.778127 185.347677 
L 254.765232 182.929962 
L 259.408116 181.478553 
L 263.751243 179.818496 
L 267.830985 178.675762 
L 271.677467 176.424464 
L 275.315927 175.160734 
L 278.767716 165.887979 
L 282.051056 165.305603 
L 285.181626 157.344021 
L 288.173013 157.913464 
L 291.037067 144.086552 
L 293.784188 144.239039 
L 296.423551 140.281141 
L 298.963291 136.756493 
L 303.772131 127.840757 
L 306.05354 124.624613 
L 308.260135 119.304568 
L 310.396668 119.137493 
L 312.46745 118.17859 
L 314.476409 113.925632 
L 316.427129 112.285424 
L 318.322891 109.249288 
L 320.166709 108.826949 
L 321.961352 105.905914 
L 323.709375 107.787602 
L 325.41314 103.153732 
L 327.074833 100.367186 
L 330.279968 100.80275 
L 331.827051 100.43499 
L 334.818437 100.299138 
L 336.2657 99.636537 
L 337.682492 98.842177 
L 339.070069 98.231696 
L 340.429613 98.572129 
L 343.068976 97.466171 
L 344.350826 98.050154 
L 345.608716 95.632828 
L 346.843523 95.025952 
L 348.056081 89.314766 
L 349.247176 91.238465 
L 350.417555 90.075906 
L 352.698964 88.895033 
L 354.90556 88.285574 
L 355.982305 87.664816 
L 357.042092 87.393161 
L 358.085448 88.281629 
L 359.112875 88.864735 
L 361.121833 88.725717 
L 362.104261 88.168476 
L 363.072553 88.371401 
L 365.896539 88.099892 
L 366.812133 87.72882 
L 367.715437 88.329024 
L 368.606776 86.411461 
L 369.486464 85.43361 
L 370.3548 84.106461 
L 371.212074 84.048642 
L 372.058565 84.303346 
L 374.535966 83.420333 
L 375.341905 82.982918 
L 376.138306 83.039812 
L 376.925393 82.822419 
L 377.703379 83.057347 
L 378.472475 83.001623 
L 379.23288 82.23113 
L 379.984789 82.59207 
L 380.728389 83.287014 
L 381.463862 82.617789 
L 382.191384 82.634984 
L 382.911125 81.349871 
L 383.623249 80.881623 
L 384.327916 78.984908 
L 385.025281 78.525282 
L 385.715494 79.733238 
L 386.398699 79.77094 
L 387.744646 79.053394 
L 389.064201 78.186358 
L 389.7144 78.676185 
L 390.358377 78.337408 
L 390.996251 78.512714 
L 391.628134 79.118519 
L 392.25414 78.461472 
L 392.874376 76.164118 
L 393.488948 75.988227 
L 394.097957 77.909248 
L 395.8926 77.862437 
L 396.480334 77.767258 
L 397.06298 77.378018 
L 397.640624 77.520835 
L 398.213352 78.248561 
L 398.781246 79.354762 
L 399.344389 77.386639 
L 399.902858 77.483377 
L 400.45673 77.06642 
L 401.550984 77.017711 
L 402.09151 76.52652 
L 402.627729 75.695286 
L 403.159709 75.511308 
L 404.211217 72.846683 
L 404.730873 72.32159 
L 405.246547 72.435279 
L 405.758299 71.503848 
L 406.266189 69.931883 
L 406.770275 69.646492 
L 407.270613 65.577657 
L 407.767258 65.110286 
L 408.260265 63.009233 
L 409.235573 62.910839 
L 409.717978 60.181576 
L 412.079452 59.797254 
L 418.703989 58.826807 
L 419.954089 58.387006 
L 420.365682 58.493339 
L 421.18139 58.240048 
L 421.987329 57.647736 
L 422.386708 57.740966 
L 422.783731 57.953049 
L 423.570817 57.792599 
L 423.960935 58.007215 
L 424.348804 58.02514 
L 424.73445 57.853876 
L 425.117899 57.824553 
L 426.255309 57.24773 
L 426.630213 57.01816 
L 428.47403 56.685082 
L 428.836808 56.818401 
L 429.556549 56.532231 
L 429.913553 56.50432 
L 430.268673 56.344551 
L 430.621929 56.427845 
L 432.703388 56.044304 
L 433.383142 55.825791 
L 434.056099 55.813224 
L 440.439566 54.964844 
L 442.242222 54.814671 
L 442.538025 54.987786 
L 443.125759 54.760262 
L 443.708404 54.635565 
L 444.286048 54.598692 
L 444.573022 54.849937 
L 445.426671 54.711552 
L 445.708831 54.748815 
L 446.269627 54.505169 
L 446.548282 54.218852 
L 446.825788 54.3794 
L 447.924509 53.639789 
L 448.196408 53.886845 
L 448.467214 53.746268 
L 448.736934 53.751968 
L 449.805133 53.223709 
L 450.069555 53.238127 
L 450.5953 53.099206 
L 451.116971 52.956827 
L 451.891971 52.863499 
L 452.148334 52.735684 
L 452.403724 52.811136 
L 452.911614 52.649127 
L 454.659637 52.004159 
L 454.905689 52.294129 
L 455.150845 52.198463 
L 455.39511 52.244689 
L 456.122632 51.932604 
L 456.363402 51.993881 
L 457.317959 51.849992 
L 458.259165 51.717404 
L 458.492424 51.810537 
L 460.102982 51.425437 
L 463.429613 50.900832 
L 464.502923 50.582269 
L 464.715546 50.989435 
L 464.927499 50.669557 
L 465.768699 50.410177 
L 465.977366 50.835755 
L 466.185389 50.476763 
L 468.230991 50.173349 
L 469.626791 49.92264 
L 470.606359 49.435102 
L 470.994228 49.409189 
L 473.834106 48.968754 
L 474.203861 48.914345 
L 474.387979 49.243137 
L 474.571595 48.950877 
L 475.843065 48.809083 
L 477.090958 48.633922 
L 477.267354 48.541324 
L 477.618765 48.560126 
L 478.834452 48.332846 
L 479.177795 48.39841 
L 479.519396 48.233186 
L 480.365886 48.078045 
L 480.533914 48.007854 
L 480.701523 48.107125 
L 481.698506 47.878285 
L 482.027579 47.923147 
L 482.843287 47.599665 
L 483.328008 47.559187 
L 483.488809 47.683446 
L 484.2871 47.522898 
L 485.855821 47.234536 
L 486.319395 47.099025 
L 486.779796 47.08636 
L 487.388806 46.917629 
L 487.540201 47.266343 
L 487.841974 46.973012 
L 488.441489 46.644367 
L 488.739255 46.818602 
L 488.887646 46.65518 
L 489.771183 46.621083 
L 492.072095 46.132328 
L 492.635238 46.017957 
L 497.371522 45.215072 
L 498.408847 45.023204 
L 498.793758 44.922667 
L 498.921574 44.931288 
L 499.049148 45.133337 
L 499.557038 44.904936 
L 500.061124 44.631479 
L 500.561462 44.553787 
L 502.040535 44.41209 
L 502.526422 44.310481 
L 503.128889 44.200835 
L 503.726011 44.063522 
L 504.31788 43.998056 
L 504.787656 43.918561 
L 506.634636 43.747005 
L 507.088568 43.661568 
L 511.254743 43.112851 
L 511.784212 43.046264 
L 512.204807 42.998626 
L 516.567586 42.469637 
L 517.154466 42.332616 
L 517.639653 42.35624 
L 518.025299 42.28074 
L 519.074571 42.128375 
L 519.169153 42.095301 
L 519.35792 42.181566 
L 519.921062 42.060961 
L 522.48849 41.808887 
L 522.936827 41.802847 
L 523.382196 41.739768 
L 523.912778 41.689012 
L 524.526549 41.603185 
L 525.048219 41.523204 
L 525.479876 41.498215 
L 526.24995 41.448336 
L 526.589396 41.604257 
L 527.430596 41.319937 
L 528.178789 41.245655 
L 528.508668 41.215211 
L 529.326359 41.157003 
L 532.190413 40.86752 
L 532.346009 40.925923 
L 536.416608 40.465663 
L 541.960455 39.964 
L 541.960455 39.964 
" clip-path="url(#p42e7029817)" style="fill: none; stroke: #ff0000; stroke-width: 1.5; stroke-linecap: square"/>
   </g>
   <g id="matplotlib.axis_1">
    <g id="xtick_1">
     <g id="line2d_8">
      <path d="M 77.169545 314.728 
L 77.169545 26.88 
" clip-path="url(#p42e7029817)" style="fill: none; stroke: #b0b0b0; stroke-opacity: 0.3; stroke-width: 0.8; stroke-linecap: square"/>
     </g>
     <g id="line2d_9">
      <defs>
       <path id="m5029edc0c5" d="M 0 0 
L 0 3.5 
" style="stroke: #000000; stroke-width: 0.8"/>
      </defs>
      <g>
       <use xlink:href="#m5029edc0c5" x="77.169545" y="314.728" style="stroke: #000000; stroke-width: 0.8"/>
      </g>
     </g>
     <g id="text_1">
      <!-- $\mathdefault{10^{0}}$ -->
      <g transform="translate(68.369545 329.326437) scale(0.1 -0.1)">
       <defs>
        <path id="DejaVuSans-31" d="M 794 531 
L 1825 531 
L 1825 4091 
L 703 3866 
L 703 4441 
L 1819 4666 
L 2450 4666 
L 2450 531 
L 3481 531 
L 3481 0 
L 794 0 
L 794 531 
z
" transform="scale(0.015625)"/>
        <path id="DejaVuSans-30" d="M 2034 4250 
Q 1547 4250 1301 3770 
Q 1056 3291 1056 2328 
Q 1056 1369 1301 889 
Q 1547 409 2034 409 
Q 2525 409 2770 889 
Q 3016 1369 3016 2328 
Q 3016 3291 2770 3770 
Q 2525 4250 2034 4250 
z
M 2034 4750 
Q 2819 4750 3233 4129 
Q 3647 3509 3647 2328 
Q 3647 1150 3233 529 
Q 2819 -91 2034 -91 
Q 1250 -91 836 529 
Q 422 1150 422 2328 
Q 422 3509 836 4129 
Q 1250 4750 2034 4750 
z
" transform="scale(0.015625)"/>
       </defs>
       <use xlink:href="#DejaVuSans-31" transform="translate(0 0.765625)"/>
       <use xlink:href="#DejaVuSans-30" transform="translate(63.623047 0.765625)"/>
       <use xlink:href="#DejaVuSans-30" transform="translate(128.203125 39.046875) scale(0.7)"/>
      </g>
     </g>
    </g>
    <g id="xtick_2">
     <g id="line2d_10">
      <path d="M 232.122291 314.728 
L 232.122291 26.88 
" clip-path="url(#p42e7029817)" style="fill: none; stroke: #b0b0b0; stroke-opacity: 0.3; stroke-width: 0.8; stroke-linecap: square"/>
     </g>
     <g id="line2d_11">
      <g>
       <use xlink:href="#m5029edc0c5" x="232.122291" y="314.728" style="stroke: #000000; stroke-width: 0.8"/>
      </g>
     </g>
     <g id="text_2">
      <!-- $\mathdefault{10^{1}}$ -->
      <g transform="translate(223.322291 329.326437) scale(0.1 -0.1)">
       <use xlink:href="#DejaVuSans-31" transform="translate(0 0.684375)"/>
       <use xlink:href="#DejaVuSans-30" transform="translate(63.623047 0.684375)"/>
       <use xlink:href="#DejaVuSans-31" transform="translate(128.203125 38.965625) scale(0.7)"/>
      </g>
     </g>
    </g>
    <g id="xtick_3">
     <g id="line2d_12">
      <path d="M 387.075037 314.728 
L 387.075037 26.88 
" clip-path="url(#p42e7029817)" style="fill: none; stroke: #b0b0b0; stroke-opacity: 0.3; stroke-width: 0.8; stroke-linecap: square"/>
     </g>
     <g id="line2d_13">
      <g>
       <use xlink:href="#m5029edc0c5" x="387.075037" y="314.728" style="stroke: #000000; stroke-width: 0.8"/>
      </g>
     </g>
     <g id="text_3">
      <!-- $\mathdefault{10^{2}}$ -->
      <g transform="translate(378.275037 329.326437) scale(0.1 -0.1)">
       <defs>
        <path id="DejaVuSans-32" d="M 1228 531 
L 3431 531 
L 3431 0 
L 469 0 
L 469 531 
Q 828 903 1448 1529 
Q 2069 2156 2228 2338 
Q 2531 2678 2651 2914 
Q 2772 3150 2772 3378 
Q 2772 3750 2511 3984 
Q 2250 4219 1831 4219 
Q 1534 4219 1204 4116 
Q 875 4013 500 3803 
L 500 4441 
Q 881 4594 1212 4672 
Q 1544 4750 1819 4750 
Q 2544 4750 2975 4387 
Q 3406 4025 3406 3419 
Q 3406 3131 3298 2873 
Q 3191 2616 2906 2266 
Q 2828 2175 2409 1742 
Q 1991 1309 1228 531 
z
" transform="scale(0.015625)"/>
       </defs>
       <use xlink:href="#DejaVuSans-31" transform="translate(0 0.765625)"/>
       <use xlink:href="#DejaVuSans-30" transform="translate(63.623047 0.765625)"/>
       <use xlink:href="#DejaVuSans-32" transform="translate(128.203125 39.046875) scale(0.7)"/>
      </g>
     </g>
    </g>
    <g id="xtick_4">
     <g id="line2d_14">
      <path d="M 542.027783 314.728 
L 542.027783 26.88 
" clip-path="url(#p42e7029817)" style="fill: none; stroke: #b0b0b0; stroke-opacity: 0.3; stroke-width: 0.8; stroke-linecap: square"/>
     </g>
     <g id="line2d_15">
      <g>
       <use xlink:href="#m5029edc0c5" x="542.027783" y="314.728" style="stroke: #000000; stroke-width: 0.8"/>
      </g>
     </g>
     <g id="text_4">
      <!-- $\mathdefault{10^{3}}$ -->
      <g transform="translate(533.227783 329.326437) scale(0.1 -0.1)">
       <defs>
        <path id="DejaVuSans-33" d="M 2597 2516 
Q 3050 2419 3304 2112 
Q 3559 1806 3559 1356 
Q 3559 666 3084 287 
Q 2609 -91 1734 -91 
Q 1441 -91 1130 -33 
Q 819 25 488 141 
L 488 750 
Q 750 597 1062 519 
Q 1375 441 1716 441 
Q 2309 441 2620 675 
Q 2931 909 2931 1356 
Q 2931 1769 2642 2001 
Q 2353 2234 1838 2234 
L 1294 2234 
L 1294 2753 
L 1863 2753 
Q 2328 2753 2575 2939 
Q 2822 3125 2822 3475 
Q 2822 3834 2567 4026 
Q 2313 4219 1838 4219 
Q 1578 4219 1281 4162 
Q 984 4106 628 3988 
L 628 4550 
Q 988 4650 1302 4700 
Q 1616 4750 1894 4750 
Q 2613 4750 3031 4423 
Q 3450 4097 3450 3541 
Q 3450 3153 3228 2886 
Q 3006 2619 2597 2516 
z
" transform="scale(0.015625)"/>
       </defs>
       <use xlink:href="#DejaVuSans-31" transform="translate(0 0.765625)"/>
       <use xlink:href="#DejaVuSans-30" transform="translate(63.623047 0.765625)"/>
       <use xlink:href="#DejaVuSans-33" transform="translate(128.203125 39.046875) scale(0.7)"/>
      </g>
     </g>
    </g>
    <g id="xtick_5">
     <g id="line2d_16">
      <path d="M 62.153073 314.728 
L 62.153073 26.88 
" clip-path="url(#p42e7029817)" style="fill: none; stroke: #b0b0b0; stroke-opacity: 0.3; stroke-width: 0.8; stroke-linecap: square"/>
     </g>
     <g id="line2d_17">
      <defs>
       <path id="me083a421dc" d="M 0 0 
L 0 2 
" style="stroke: #000000; stroke-width: 0.6"/>
      </defs>
      <g>
       <use xlink:href="#me083a421dc" x="62.153073" y="314.728" style="stroke: #000000; stroke-width: 0.6"/>
      </g>
     </g>
    </g>
    <g id="xtick_6">
     <g id="line2d_18">
      <path d="M 70.079297 314.728 
L 70.079297 26.88 
" clip-path="url(#p42e7029817)" style="fill: none; stroke: #b0b0b0; stroke-opacity: 0.3; stroke-width: 0.8; stroke-linecap: square"/>
     </g>
     <g id="line2d_19">
      <g>
       <use xlink:href="#me083a421dc" x="70.079297" y="314.728" style="stroke: #000000; stroke-width: 0.6"/>
      </g>
     </g>
    </g>
    <g id="xtick_7">
     <g id="line2d_20">
      <path d="M 123.81497 314.728 
L 123.81497 26.88 
" clip-path="url(#p42e7029817)" style="fill: none; stroke: #b0b0b0; stroke-opacity: 0.3; stroke-width: 0.8; stroke-linecap: square"/>
     </g>
     <g id="line2d_21">
      <g>
       <use xlink:href="#me083a421dc" x="123.81497" y="314.728" style="stroke: #000000; stroke-width: 0.6"/>
      </g>
     </g>
    </g>
    <g id="xtick_8">
     <g id="line2d_22">
      <path d="M 151.100794 314.728 
L 151.100794 26.88 
" clip-path="url(#p42e7029817)" style="fill: none; stroke: #b0b0b0; stroke-opacity: 0.3; stroke-width: 0.8; stroke-linecap: square"/>
     </g>
     <g id="line2d_23">
      <g>
       <use xlink:href="#me083a421dc" x="151.100794" y="314.728" style="stroke: #000000; stroke-width: 0.6"/>
      </g>
     </g>
    </g>
    <g id="xtick_9">
     <g id="line2d_24">
      <path d="M 170.460394 314.728 
L 170.460394 26.88 
" clip-path="url(#p42e7029817)" style="fill: none; stroke: #b0b0b0; stroke-opacity: 0.3; stroke-width: 0.8; stroke-linecap: square"/>
     </g>
     <g id="line2d_25">
      <g>
       <use xlink:href="#me083a421dc" x="170.460394" y="314.728" style="stroke: #000000; stroke-width: 0.6"/>
      </g>
     </g>
    </g>
    <g id="xtick_10">
     <g id="line2d_26">
      <path d="M 185.476867 314.728 
L 185.476867 26.88 
" clip-path="url(#p42e7029817)" style="fill: none; stroke: #b0b0b0; stroke-opacity: 0.3; stroke-width: 0.8; stroke-linecap: square"/>
     </g>
     <g id="line2d_27">
      <g>
       <use xlink:href="#me083a421dc" x="185.476867" y="314.728" style="stroke: #000000; stroke-width: 0.6"/>
      </g>
     </g>
    </g>
    <g id="xtick_11">
     <g id="line2d_28">
      <path d="M 197.746218 314.728 
L 197.746218 26.88 
" clip-path="url(#p42e7029817)" style="fill: none; stroke: #b0b0b0; stroke-opacity: 0.3; stroke-width: 0.8; stroke-linecap: square"/>
     </g>
     <g id="line2d_29">
      <g>
       <use xlink:href="#me083a421dc" x="197.746218" y="314.728" style="stroke: #000000; stroke-width: 0.6"/>
      </g>
     </g>
    </g>
    <g id="xtick_12">
     <g id="line2d_30">
      <path d="M 208.119807 314.728 
L 208.119807 26.88 
" clip-path="url(#p42e7029817)" style="fill: none; stroke: #b0b0b0; stroke-opacity: 0.3; stroke-width: 0.8; stroke-linecap: square"/>
     </g>
     <g id="line2d_31">
      <g>
       <use xlink:href="#me083a421dc" x="208.119807" y="314.728" style="stroke: #000000; stroke-width: 0.6"/>
      </g>
     </g>
    </g>
    <g id="xtick_13">
     <g id="line2d_32">
      <path d="M 217.105819 314.728 
L 217.105819 26.88 
" clip-path="url(#p42e7029817)" style="fill: none; stroke: #b0b0b0; stroke-opacity: 0.3; stroke-width: 0.8; stroke-linecap: square"/>
     </g>
     <g id="line2d_33">
      <g>
       <use xlink:href="#me083a421dc" x="217.105819" y="314.728" style="stroke: #000000; stroke-width: 0.6"/>
      </g>
     </g>
    </g>
    <g id="xtick_14">
     <g id="line2d_34">
      <path d="M 225.032043 314.728 
L 225.032043 26.88 
" clip-path="url(#p42e7029817)" style="fill: none; stroke: #b0b0b0; stroke-opacity: 0.3; stroke-width: 0.8; stroke-linecap: square"/>
     </g>
     <g id="line2d_35">
      <g>
       <use xlink:href="#me083a421dc" x="225.032043" y="314.728" style="stroke: #000000; stroke-width: 0.6"/>
      </g>
     </g>
    </g>
    <g id="xtick_15">
     <g id="line2d_36">
      <path d="M 278.767716 314.728 
L 278.767716 26.88 
" clip-path="url(#p42e7029817)" style="fill: none; stroke: #b0b0b0; stroke-opacity: 0.3; stroke-width: 0.8; stroke-linecap: square"/>
     </g>
     <g id="line2d_37">
      <g>
       <use xlink:href="#me083a421dc" x="278.767716" y="314.728" style="stroke: #000000; stroke-width: 0.6"/>
      </g>
     </g>
    </g>
    <g id="xtick_16">
     <g id="line2d_38">
      <path d="M 306.05354 314.728 
L 306.05354 26.88 
" clip-path="url(#p42e7029817)" style="fill: none; stroke: #b0b0b0; stroke-opacity: 0.3; stroke-width: 0.8; stroke-linecap: square"/>
     </g>
     <g id="line2d_39">
      <g>
       <use xlink:href="#me083a421dc" x="306.05354" y="314.728" style="stroke: #000000; stroke-width: 0.6"/>
      </g>
     </g>
    </g>
    <g id="xtick_17">
     <g id="line2d_40">
      <path d="M 325.41314 314.728 
L 325.41314 26.88 
" clip-path="url(#p42e7029817)" style="fill: none; stroke: #b0b0b0; stroke-opacity: 0.3; stroke-width: 0.8; stroke-linecap: square"/>
     </g>
     <g id="line2d_41">
      <g>
       <use xlink:href="#me083a421dc" x="325.41314" y="314.728" style="stroke: #000000; stroke-width: 0.6"/>
      </g>
     </g>
    </g>
    <g id="xtick_18">
     <g id="line2d_42">
      <path d="M 340.429613 314.728 
L 340.429613 26.88 
" clip-path="url(#p42e7029817)" style="fill: none; stroke: #b0b0b0; stroke-opacity: 0.3; stroke-width: 0.8; stroke-linecap: square"/>
     </g>
     <g id="line2d_43">
      <g>
       <use xlink:href="#me083a421dc" x="340.429613" y="314.728" style="stroke: #000000; stroke-width: 0.6"/>
      </g>
     </g>
    </g>
    <g id="xtick_19">
     <g id="line2d_44">
      <path d="M 352.698964 314.728 
L 352.698964 26.88 
" clip-path="url(#p42e7029817)" style="fill: none; stroke: #b0b0b0; stroke-opacity: 0.3; stroke-width: 0.8; stroke-linecap: square"/>
     </g>
     <g id="line2d_45">
      <g>
       <use xlink:href="#me083a421dc" x="352.698964" y="314.728" style="stroke: #000000; stroke-width: 0.6"/>
      </g>
     </g>
    </g>
    <g id="xtick_20">
     <g id="line2d_46">
      <path d="M 363.072553 314.728 
L 363.072553 26.88 
" clip-path="url(#p42e7029817)" style="fill: none; stroke: #b0b0b0; stroke-opacity: 0.3; stroke-width: 0.8; stroke-linecap: square"/>
     </g>
     <g id="line2d_47">
      <g>
       <use xlink:href="#me083a421dc" x="363.072553" y="314.728" style="stroke: #000000; stroke-width: 0.6"/>
      </g>
     </g>
    </g>
    <g id="xtick_21">
     <g id="line2d_48">
      <path d="M 372.058565 314.728 
L 372.058565 26.88 
" clip-path="url(#p42e7029817)" style="fill: none; stroke: #b0b0b0; stroke-opacity: 0.3; stroke-width: 0.8; stroke-linecap: square"/>
     </g>
     <g id="line2d_49">
      <g>
       <use xlink:href="#me083a421dc" x="372.058565" y="314.728" style="stroke: #000000; stroke-width: 0.6"/>
      </g>
     </g>
    </g>
    <g id="xtick_22">
     <g id="line2d_50">
      <path d="M 379.984789 314.728 
L 379.984789 26.88 
" clip-path="url(#p42e7029817)" style="fill: none; stroke: #b0b0b0; stroke-opacity: 0.3; stroke-width: 0.8; stroke-linecap: square"/>
     </g>
     <g id="line2d_51">
      <g>
       <use xlink:href="#me083a421dc" x="379.984789" y="314.728" style="stroke: #000000; stroke-width: 0.6"/>
      </g>
     </g>
    </g>
    <g id="xtick_23">
     <g id="line2d_52">
      <path d="M 433.720462 314.728 
L 433.720462 26.88 
" clip-path="url(#p42e7029817)" style="fill: none; stroke: #b0b0b0; stroke-opacity: 0.3; stroke-width: 0.8; stroke-linecap: square"/>
     </g>
     <g id="line2d_53">
      <g>
       <use xlink:href="#me083a421dc" x="433.720462" y="314.728" style="stroke: #000000; stroke-width: 0.6"/>
      </g>
     </g>
    </g>
    <g id="xtick_24">
     <g id="line2d_54">
      <path d="M 461.006286 314.728 
L 461.006286 26.88 
" clip-path="url(#p42e7029817)" style="fill: none; stroke: #b0b0b0; stroke-opacity: 0.3; stroke-width: 0.8; stroke-linecap: square"/>
     </g>
     <g id="line2d_55">
      <g>
       <use xlink:href="#me083a421dc" x="461.006286" y="314.728" style="stroke: #000000; stroke-width: 0.6"/>
      </g>
     </g>
    </g>
    <g id="xtick_25">
     <g id="line2d_56">
      <path d="M 480.365886 314.728 
L 480.365886 26.88 
" clip-path="url(#p42e7029817)" style="fill: none; stroke: #b0b0b0; stroke-opacity: 0.3; stroke-width: 0.8; stroke-linecap: square"/>
     </g>
     <g id="line2d_57">
      <g>
       <use xlink:href="#me083a421dc" x="480.365886" y="314.728" style="stroke: #000000; stroke-width: 0.6"/>
      </g>
     </g>
    </g>
    <g id="xtick_26">
     <g id="line2d_58">
      <path d="M 495.382359 314.728 
L 495.382359 26.88 
" clip-path="url(#p42e7029817)" style="fill: none; stroke: #b0b0b0; stroke-opacity: 0.3; stroke-width: 0.8; stroke-linecap: square"/>
     </g>
     <g id="line2d_59">
      <g>
       <use xlink:href="#me083a421dc" x="495.382359" y="314.728" style="stroke: #000000; stroke-width: 0.6"/>
      </g>
     </g>
    </g>
    <g id="xtick_27">
     <g id="line2d_60">
      <path d="M 507.65171 314.728 
L 507.65171 26.88 
" clip-path="url(#p42e7029817)" style="fill: none; stroke: #b0b0b0; stroke-opacity: 0.3; stroke-width: 0.8; stroke-linecap: square"/>
     </g>
     <g id="line2d_61">
      <g>
       <use xlink:href="#me083a421dc" x="507.65171" y="314.728" style="stroke: #000000; stroke-width: 0.6"/>
      </g>
     </g>
    </g>
    <g id="xtick_28">
     <g id="line2d_62">
      <path d="M 518.025299 314.728 
L 518.025299 26.88 
" clip-path="url(#p42e7029817)" style="fill: none; stroke: #b0b0b0; stroke-opacity: 0.3; stroke-width: 0.8; stroke-linecap: square"/>
     </g>
     <g id="line2d_63">
      <g>
       <use xlink:href="#me083a421dc" x="518.025299" y="314.728" style="stroke: #000000; stroke-width: 0.6"/>
      </g>
     </g>
    </g>
    <g id="xtick_29">
     <g id="line2d_64">
      <path d="M 527.011311 314.728 
L 527.011311 26.88 
" clip-path="url(#p42e7029817)" style="fill: none; stroke: #b0b0b0; stroke-opacity: 0.3; stroke-width: 0.8; stroke-linecap: square"/>
     </g>
     <g id="line2d_65">
      <g>
       <use xlink:href="#me083a421dc" x="527.011311" y="314.728" style="stroke: #000000; stroke-width: 0.6"/>
      </g>
     </g>
    </g>
    <g id="xtick_30">
     <g id="line2d_66">
      <path d="M 534.937535 314.728 
L 534.937535 26.88 
" clip-path="url(#p42e7029817)" style="fill: none; stroke: #b0b0b0; stroke-opacity: 0.3; stroke-width: 0.8; stroke-linecap: square"/>
     </g>
     <g id="line2d_67">
      <g>
       <use xlink:href="#me083a421dc" x="534.937535" y="314.728" style="stroke: #000000; stroke-width: 0.6"/>
      </g>
     </g>
    </g>
    <g id="text_5">
     <!-- Iteration (Log Scale) -->
     <g transform="translate(258.891562 343.004562) scale(0.1 -0.1)">
      <defs>
       <path id="DejaVuSans-49" d="M 628 4666 
L 1259 4666 
L 1259 0 
L 628 0 
L 628 4666 
z
" transform="scale(0.015625)"/>
       <path id="DejaVuSans-74" d="M 1172 4494 
L 1172 3500 
L 2356 3500 
L 2356 3053 
L 1172 3053 
L 1172 1153 
Q 1172 725 1289 603 
Q 1406 481 1766 481 
L 2356 481 
L 2356 0 
L 1766 0 
Q 1100 0 847 248 
Q 594 497 594 1153 
L 594 3053 
L 172 3053 
L 172 3500 
L 594 3500 
L 594 4494 
L 1172 4494 
z
" transform="scale(0.015625)"/>
       <path id="DejaVuSans-65" d="M 3597 1894 
L 3597 1613 
L 953 1613 
Q 991 1019 1311 708 
Q 1631 397 2203 397 
Q 2534 397 2845 478 
Q 3156 559 3463 722 
L 3463 178 
Q 3153 47 2828 -22 
Q 2503 -91 2169 -91 
Q 1331 -91 842 396 
Q 353 884 353 1716 
Q 353 2575 817 3079 
Q 1281 3584 2069 3584 
Q 2775 3584 3186 3129 
Q 3597 2675 3597 1894 
z
M 3022 2063 
Q 3016 2534 2758 2815 
Q 2500 3097 2075 3097 
Q 1594 3097 1305 2825 
Q 1016 2553 972 2059 
L 3022 2063 
z
" transform="scale(0.015625)"/>
       <path id="DejaVuSans-72" d="M 2631 2963 
Q 2534 3019 2420 3045 
Q 2306 3072 2169 3072 
Q 1681 3072 1420 2755 
Q 1159 2438 1159 1844 
L 1159 0 
L 581 0 
L 581 3500 
L 1159 3500 
L 1159 2956 
Q 1341 3275 1631 3429 
Q 1922 3584 2338 3584 
Q 2397 3584 2469 3576 
Q 2541 3569 2628 3553 
L 2631 2963 
z
" transform="scale(0.015625)"/>
       <path id="DejaVuSans-61" d="M 2194 1759 
Q 1497 1759 1228 1600 
Q 959 1441 959 1056 
Q 959 750 1161 570 
Q 1363 391 1709 391 
Q 2188 391 2477 730 
Q 2766 1069 2766 1631 
L 2766 1759 
L 2194 1759 
z
M 3341 1997 
L 3341 0 
L 2766 0 
L 2766 531 
Q 2569 213 2275 61 
Q 1981 -91 1556 -91 
Q 1019 -91 701 211 
Q 384 513 384 1019 
Q 384 1609 779 1909 
Q 1175 2209 1959 2209 
L 2766 2209 
L 2766 2266 
Q 2766 2663 2505 2880 
Q 2244 3097 1772 3097 
Q 1472 3097 1187 3025 
Q 903 2953 641 2809 
L 641 3341 
Q 956 3463 1253 3523 
Q 1550 3584 1831 3584 
Q 2591 3584 2966 3190 
Q 3341 2797 3341 1997 
z
" transform="scale(0.015625)"/>
       <path id="DejaVuSans-69" d="M 603 3500 
L 1178 3500 
L 1178 0 
L 603 0 
L 603 3500 
z
M 603 4863 
L 1178 4863 
L 1178 4134 
L 603 4134 
L 603 4863 
z
" transform="scale(0.015625)"/>
       <path id="DejaVuSans-6f" d="M 1959 3097 
Q 1497 3097 1228 2736 
Q 959 2375 959 1747 
Q 959 1119 1226 758 
Q 1494 397 1959 397 
Q 2419 397 2687 759 
Q 2956 1122 2956 1747 
Q 2956 2369 2687 2733 
Q 2419 3097 1959 3097 
z
M 1959 3584 
Q 2709 3584 3137 3096 
Q 3566 2609 3566 1747 
Q 3566 888 3137 398 
Q 2709 -91 1959 -91 
Q 1206 -91 779 398 
Q 353 888 353 1747 
Q 353 2609 779 3096 
Q 1206 3584 1959 3584 
z
" transform="scale(0.015625)"/>
       <path id="DejaVuSans-6e" d="M 3513 2113 
L 3513 0 
L 2938 0 
L 2938 2094 
Q 2938 2591 2744 2837 
Q 2550 3084 2163 3084 
Q 1697 3084 1428 2787 
Q 1159 2491 1159 1978 
L 1159 0 
L 581 0 
L 581 3500 
L 1159 3500 
L 1159 2956 
Q 1366 3272 1645 3428 
Q 1925 3584 2291 3584 
Q 2894 3584 3203 3211 
Q 3513 2838 3513 2113 
z
" transform="scale(0.015625)"/>
       <path id="DejaVuSans-20" transform="scale(0.015625)"/>
       <path id="DejaVuSans-28" d="M 1984 4856 
Q 1566 4138 1362 3434 
Q 1159 2731 1159 2009 
Q 1159 1288 1364 580 
Q 1569 -128 1984 -844 
L 1484 -844 
Q 1016 -109 783 600 
Q 550 1309 550 2009 
Q 550 2706 781 3412 
Q 1013 4119 1484 4856 
L 1984 4856 
z
" transform="scale(0.015625)"/>
       <path id="DejaVuSans-4c" d="M 628 4666 
L 1259 4666 
L 1259 531 
L 3531 531 
L 3531 0 
L 628 0 
L 628 4666 
z
" transform="scale(0.015625)"/>
       <path id="DejaVuSans-67" d="M 2906 1791 
Q 2906 2416 2648 2759 
Q 2391 3103 1925 3103 
Q 1463 3103 1205 2759 
Q 947 2416 947 1791 
Q 947 1169 1205 825 
Q 1463 481 1925 481 
Q 2391 481 2648 825 
Q 2906 1169 2906 1791 
z
M 3481 434 
Q 3481 -459 3084 -895 
Q 2688 -1331 1869 -1331 
Q 1566 -1331 1297 -1286 
Q 1028 -1241 775 -1147 
L 775 -588 
Q 1028 -725 1275 -790 
Q 1522 -856 1778 -856 
Q 2344 -856 2625 -561 
Q 2906 -266 2906 331 
L 2906 616 
Q 2728 306 2450 153 
Q 2172 0 1784 0 
Q 1141 0 747 490 
Q 353 981 353 1791 
Q 353 2603 747 3093 
Q 1141 3584 1784 3584 
Q 2172 3584 2450 3431 
Q 2728 3278 2906 2969 
L 2906 3500 
L 3481 3500 
L 3481 434 
z
" transform="scale(0.015625)"/>
       <path id="DejaVuSans-53" d="M 3425 4513 
L 3425 3897 
Q 3066 4069 2747 4153 
Q 2428 4238 2131 4238 
Q 1616 4238 1336 4038 
Q 1056 3838 1056 3469 
Q 1056 3159 1242 3001 
Q 1428 2844 1947 2747 
L 2328 2669 
Q 3034 2534 3370 2195 
Q 3706 1856 3706 1288 
Q 3706 609 3251 259 
Q 2797 -91 1919 -91 
Q 1588 -91 1214 -16 
Q 841 59 441 206 
L 441 856 
Q 825 641 1194 531 
Q 1563 422 1919 422 
Q 2459 422 2753 634 
Q 3047 847 3047 1241 
Q 3047 1584 2836 1778 
Q 2625 1972 2144 2069 
L 1759 2144 
Q 1053 2284 737 2584 
Q 422 2884 422 3419 
Q 422 4038 858 4394 
Q 1294 4750 2059 4750 
Q 2388 4750 2728 4690 
Q 3069 4631 3425 4513 
z
" transform="scale(0.015625)"/>
       <path id="DejaVuSans-63" d="M 3122 3366 
L 3122 2828 
Q 2878 2963 2633 3030 
Q 2388 3097 2138 3097 
Q 1578 3097 1268 2742 
Q 959 2388 959 1747 
Q 959 1106 1268 751 
Q 1578 397 2138 397 
Q 2388 397 2633 464 
Q 2878 531 3122 666 
L 3122 134 
Q 2881 22 2623 -34 
Q 2366 -91 2075 -91 
Q 1284 -91 818 406 
Q 353 903 353 1747 
Q 353 2603 823 3093 
Q 1294 3584 2113 3584 
Q 2378 3584 2631 3529 
Q 2884 3475 3122 3366 
z
" transform="scale(0.015625)"/>
       <path id="DejaVuSans-6c" d="M 603 4863 
L 1178 4863 
L 1178 0 
L 603 0 
L 603 4863 
z
" transform="scale(0.015625)"/>
       <path id="DejaVuSans-29" d="M 513 4856 
L 1013 4856 
Q 1481 4119 1714 3412 
Q 1947 2706 1947 2009 
Q 1947 1309 1714 600 
Q 1481 -109 1013 -844 
L 513 -844 
Q 928 -128 1133 580 
Q 1338 1288 1338 2009 
Q 1338 2731 1133 3434 
Q 928 4138 513 4856 
z
" transform="scale(0.015625)"/>
      </defs>
      <use xlink:href="#DejaVuSans-49"/>
      <use xlink:href="#DejaVuSans-74" transform="translate(29.492188 0)"/>
      <use xlink:href="#DejaVuSans-65" transform="translate(68.701172 0)"/>
      <use xlink:href="#DejaVuSans-72" transform="translate(130.224609 0)"/>
      <use xlink:href="#DejaVuSans-61" transform="translate(171.337891 0)"/>
      <use xlink:href="#DejaVuSans-74" transform="translate(232.617188 0)"/>
      <use xlink:href="#DejaVuSans-69" transform="translate(271.826172 0)"/>
      <use xlink:href="#DejaVuSans-6f" transform="translate(299.609375 0)"/>
      <use xlink:href="#DejaVuSans-6e" transform="translate(360.791016 0)"/>
      <use xlink:href="#DejaVuSans-20" transform="translate(424.169922 0)"/>
      <use xlink:href="#DejaVuSans-28" transform="translate(455.957031 0)"/>
      <use xlink:href="#DejaVuSans-4c" transform="translate(494.970703 0)"/>
      <use xlink:href="#DejaVuSans-6f" transform="translate(548.933594 0)"/>
      <use xlink:href="#DejaVuSans-67" transform="translate(610.115234 0)"/>
      <use xlink:href="#DejaVuSans-20" transform="translate(673.591797 0)"/>
      <use xlink:href="#DejaVuSans-53" transform="translate(705.378906 0)"/>
      <use xlink:href="#DejaVuSans-63" transform="translate(768.855469 0)"/>
      <use xlink:href="#DejaVuSans-61" transform="translate(823.835938 0)"/>
      <use xlink:href="#DejaVuSans-6c" transform="translate(885.115234 0)"/>
      <use xlink:href="#DejaVuSans-65" transform="translate(912.898438 0)"/>
      <use xlink:href="#DejaVuSans-29" transform="translate(974.421875 0)"/>
     </g>
    </g>
   </g>
   <g id="matplotlib.axis_2">
    <g id="ytick_1">
     <g id="line2d_68">
      <path d="M 53.93 306.77622 
L 565.2 306.77622 
" clip-path="url(#p42e7029817)" style="fill: none; stroke: #b0b0b0; stroke-opacity: 0.3; stroke-width: 0.8; stroke-linecap: square"/>
     </g>
     <g id="line2d_69">
      <defs>
       <path id="md40d718e73" d="M 0 0 
L -3.5 0 
" style="stroke: #000000; stroke-width: 0.8"/>
      </defs>
      <g>
       <use xlink:href="#md40d718e73" x="53.93" y="306.77622" style="stroke: #000000; stroke-width: 0.8"/>
      </g>
     </g>
     <g id="text_6">
      <!-- 0.25 -->
      <g transform="translate(24.664375 310.575439) scale(0.1 -0.1)">
       <defs>
        <path id="DejaVuSans-2e" d="M 684 794 
L 1344 794 
L 1344 0 
L 684 0 
L 684 794 
z
" transform="scale(0.015625)"/>
        <path id="DejaVuSans-35" d="M 691 4666 
L 3169 4666 
L 3169 4134 
L 1269 4134 
L 1269 2991 
Q 1406 3038 1543 3061 
Q 1681 3084 1819 3084 
Q 2600 3084 3056 2656 
Q 3513 2228 3513 1497 
Q 3513 744 3044 326 
Q 2575 -91 1722 -91 
Q 1428 -91 1123 -41 
Q 819 9 494 109 
L 494 744 
Q 775 591 1075 516 
Q 1375 441 1709 441 
Q 2250 441 2565 725 
Q 2881 1009 2881 1497 
Q 2881 1984 2565 2268 
Q 2250 2553 1709 2553 
Q 1456 2553 1204 2497 
Q 953 2441 691 2322 
L 691 4666 
z
" transform="scale(0.015625)"/>
       </defs>
       <use xlink:href="#DejaVuSans-30"/>
       <use xlink:href="#DejaVuSans-2e" transform="translate(63.623047 0)"/>
       <use xlink:href="#DejaVuSans-32" transform="translate(95.410156 0)"/>
       <use xlink:href="#DejaVuSans-35" transform="translate(159.033203 0)"/>
      </g>
     </g>
    </g>
    <g id="ytick_2">
     <g id="line2d_70">
      <path d="M 53.93 265.915403 
L 565.2 265.915403 
" clip-path="url(#p42e7029817)" style="fill: none; stroke: #b0b0b0; stroke-opacity: 0.3; stroke-width: 0.8; stroke-linecap: square"/>
     </g>
     <g id="line2d_71">
      <g>
       <use xlink:href="#md40d718e73" x="53.93" y="265.915403" style="stroke: #000000; stroke-width: 0.8"/>
      </g>
     </g>
     <g id="text_7">
      <!-- 0.30 -->
      <g transform="translate(24.664375 269.714622) scale(0.1 -0.1)">
       <use xlink:href="#DejaVuSans-30"/>
       <use xlink:href="#DejaVuSans-2e" transform="translate(63.623047 0)"/>
       <use xlink:href="#DejaVuSans-33" transform="translate(95.410156 0)"/>
       <use xlink:href="#DejaVuSans-30" transform="translate(159.033203 0)"/>
      </g>
     </g>
    </g>
    <g id="ytick_3">
     <g id="line2d_72">
      <path d="M 53.93 225.054586 
L 565.2 225.054586 
" clip-path="url(#p42e7029817)" style="fill: none; stroke: #b0b0b0; stroke-opacity: 0.3; stroke-width: 0.8; stroke-linecap: square"/>
     </g>
     <g id="line2d_73">
      <g>
       <use xlink:href="#md40d718e73" x="53.93" y="225.054586" style="stroke: #000000; stroke-width: 0.8"/>
      </g>
     </g>
     <g id="text_8">
      <!-- 0.35 -->
      <g transform="translate(24.664375 228.853805) scale(0.1 -0.1)">
       <use xlink:href="#DejaVuSans-30"/>
       <use xlink:href="#DejaVuSans-2e" transform="translate(63.623047 0)"/>
       <use xlink:href="#DejaVuSans-33" transform="translate(95.410156 0)"/>
       <use xlink:href="#DejaVuSans-35" transform="translate(159.033203 0)"/>
      </g>
     </g>
    </g>
    <g id="ytick_4">
     <g id="line2d_74">
      <path d="M 53.93 184.193769 
L 565.2 184.193769 
" clip-path="url(#p42e7029817)" style="fill: none; stroke: #b0b0b0; stroke-opacity: 0.3; stroke-width: 0.8; stroke-linecap: square"/>
     </g>
     <g id="line2d_75">
      <g>
       <use xlink:href="#md40d718e73" x="53.93" y="184.193769" style="stroke: #000000; stroke-width: 0.8"/>
      </g>
     </g>
     <g id="text_9">
      <!-- 0.40 -->
      <g transform="translate(24.664375 187.992988) scale(0.1 -0.1)">
       <defs>
        <path id="DejaVuSans-34" d="M 2419 4116 
L 825 1625 
L 2419 1625 
L 2419 4116 
z
M 2253 4666 
L 3047 4666 
L 3047 1625 
L 3713 1625 
L 3713 1100 
L 3047 1100 
L 3047 0 
L 2419 0 
L 2419 1100 
L 313 1100 
L 313 1709 
L 2253 4666 
z
" transform="scale(0.015625)"/>
       </defs>
       <use xlink:href="#DejaVuSans-30"/>
       <use xlink:href="#DejaVuSans-2e" transform="translate(63.623047 0)"/>
       <use xlink:href="#DejaVuSans-34" transform="translate(95.410156 0)"/>
       <use xlink:href="#DejaVuSans-30" transform="translate(159.033203 0)"/>
      </g>
     </g>
    </g>
    <g id="ytick_5">
     <g id="line2d_76">
      <path d="M 53.93 143.332952 
L 565.2 143.332952 
" clip-path="url(#p42e7029817)" style="fill: none; stroke: #b0b0b0; stroke-opacity: 0.3; stroke-width: 0.8; stroke-linecap: square"/>
     </g>
     <g id="line2d_77">
      <g>
       <use xlink:href="#md40d718e73" x="53.93" y="143.332952" style="stroke: #000000; stroke-width: 0.8"/>
      </g>
     </g>
     <g id="text_10">
      <!-- 0.45 -->
      <g transform="translate(24.664375 147.132171) scale(0.1 -0.1)">
       <use xlink:href="#DejaVuSans-30"/>
       <use xlink:href="#DejaVuSans-2e" transform="translate(63.623047 0)"/>
       <use xlink:href="#DejaVuSans-34" transform="translate(95.410156 0)"/>
       <use xlink:href="#DejaVuSans-35" transform="translate(159.033203 0)"/>
      </g>
     </g>
    </g>
    <g id="ytick_6">
     <g id="line2d_78">
      <path d="M 53.93 102.472135 
L 565.2 102.472135 
" clip-path="url(#p42e7029817)" style="fill: none; stroke: #b0b0b0; stroke-opacity: 0.3; stroke-width: 0.8; stroke-linecap: square"/>
     </g>
     <g id="line2d_79">
      <g>
       <use xlink:href="#md40d718e73" x="53.93" y="102.472135" style="stroke: #000000; stroke-width: 0.8"/>
      </g>
     </g>
     <g id="text_11">
      <!-- 0.50 -->
      <g transform="translate(24.664375 106.271354) scale(0.1 -0.1)">
       <use xlink:href="#DejaVuSans-30"/>
       <use xlink:href="#DejaVuSans-2e" transform="translate(63.623047 0)"/>
       <use xlink:href="#DejaVuSans-35" transform="translate(95.410156 0)"/>
       <use xlink:href="#DejaVuSans-30" transform="translate(159.033203 0)"/>
      </g>
     </g>
    </g>
    <g id="ytick_7">
     <g id="line2d_80">
      <path d="M 53.93 61.611318 
L 565.2 61.611318 
" clip-path="url(#p42e7029817)" style="fill: none; stroke: #b0b0b0; stroke-opacity: 0.3; stroke-width: 0.8; stroke-linecap: square"/>
     </g>
     <g id="line2d_81">
      <g>
       <use xlink:href="#md40d718e73" x="53.93" y="61.611318" style="stroke: #000000; stroke-width: 0.8"/>
      </g>
     </g>
     <g id="text_12">
      <!-- 0.55 -->
      <g transform="translate(24.664375 65.410537) scale(0.1 -0.1)">
       <use xlink:href="#DejaVuSans-30"/>
       <use xlink:href="#DejaVuSans-2e" transform="translate(63.623047 0)"/>
       <use xlink:href="#DejaVuSans-35" transform="translate(95.410156 0)"/>
       <use xlink:href="#DejaVuSans-35" transform="translate(159.033203 0)"/>
      </g>
     </g>
    </g>
    <g id="text_13">
     <!-- SSIM Index -->
     <g transform="translate(18.584688 198.296969) rotate(-90) scale(0.1 -0.1)">
      <defs>
       <path id="DejaVuSans-4d" d="M 628 4666 
L 1569 4666 
L 2759 1491 
L 3956 4666 
L 4897 4666 
L 4897 0 
L 4281 0 
L 4281 4097 
L 3078 897 
L 2444 897 
L 1241 4097 
L 1241 0 
L 628 0 
L 628 4666 
z
" transform="scale(0.015625)"/>
       <path id="DejaVuSans-64" d="M 2906 2969 
L 2906 4863 
L 3481 4863 
L 3481 0 
L 2906 0 
L 2906 525 
Q 2725 213 2448 61 
Q 2172 -91 1784 -91 
Q 1150 -91 751 415 
Q 353 922 353 1747 
Q 353 2572 751 3078 
Q 1150 3584 1784 3584 
Q 2172 3584 2448 3432 
Q 2725 3281 2906 2969 
z
M 947 1747 
Q 947 1113 1208 752 
Q 1469 391 1925 391 
Q 2381 391 2643 752 
Q 2906 1113 2906 1747 
Q 2906 2381 2643 2742 
Q 2381 3103 1925 3103 
Q 1469 3103 1208 2742 
Q 947 2381 947 1747 
z
" transform="scale(0.015625)"/>
       <path id="DejaVuSans-78" d="M 3513 3500 
L 2247 1797 
L 3578 0 
L 2900 0 
L 1881 1375 
L 863 0 
L 184 0 
L 1544 1831 
L 300 3500 
L 978 3500 
L 1906 2253 
L 2834 3500 
L 3513 3500 
z
" transform="scale(0.015625)"/>
      </defs>
      <use xlink:href="#DejaVuSans-53"/>
      <use xlink:href="#DejaVuSans-53" transform="translate(63.476562 0)"/>
      <use xlink:href="#DejaVuSans-49" transform="translate(126.953125 0)"/>
      <use xlink:href="#DejaVuSans-4d" transform="translate(156.445312 0)"/>
      <use xlink:href="#DejaVuSans-20" transform="translate(242.724609 0)"/>
      <use xlink:href="#DejaVuSans-49" transform="translate(274.511719 0)"/>
      <use xlink:href="#DejaVuSans-6e" transform="translate(304.003906 0)"/>
      <use xlink:href="#DejaVuSans-64" transform="translate(367.382812 0)"/>
      <use xlink:href="#DejaVuSans-65" transform="translate(430.859375 0)"/>
      <use xlink:href="#DejaVuSans-78" transform="translate(490.632812 0)"/>
     </g>
    </g>
   </g>
   <g id="patch_3">
    <path d="M 53.93 314.728 
L 53.93 26.88 
" style="fill: none; stroke: #000000; stroke-width: 0.8; stroke-linejoin: miter; stroke-linecap: square"/>
   </g>
   <g id="patch_4">
    <path d="M 565.2 314.728 
L 565.2 26.88 
" style="fill: none; stroke: #000000; stroke-width: 0.8; stroke-linejoin: miter; stroke-linecap: square"/>
   </g>
   <g id="patch_5">
    <path d="M 53.93 314.728 
L 565.2 314.728 
" style="fill: none; stroke: #000000; stroke-width: 0.8; stroke-linejoin: miter; stroke-linecap: square"/>
   </g>
   <g id="patch_6">
    <path d="M 53.93 26.88 
L 565.2 26.88 
" style="fill: none; stroke: #000000; stroke-width: 0.8; stroke-linejoin: miter; stroke-linecap: square"/>
   </g>
   <g id="text_14">
    <!-- SSIM Convergence - Image 2 -->
    <g transform="translate(223.035625 20.88) scale(0.12 -0.12)">
     <defs>
      <path id="DejaVuSans-43" d="M 4122 4306 
L 4122 3641 
Q 3803 3938 3442 4084 
Q 3081 4231 2675 4231 
Q 1875 4231 1450 3742 
Q 1025 3253 1025 2328 
Q 1025 1406 1450 917 
Q 1875 428 2675 428 
Q 3081 428 3442 575 
Q 3803 722 4122 1019 
L 4122 359 
Q 3791 134 3420 21 
Q 3050 -91 2638 -91 
Q 1578 -91 968 557 
Q 359 1206 359 2328 
Q 359 3453 968 4101 
Q 1578 4750 2638 4750 
Q 3056 4750 3426 4639 
Q 3797 4528 4122 4306 
z
" transform="scale(0.015625)"/>
      <path id="DejaVuSans-76" d="M 191 3500 
L 800 3500 
L 1894 563 
L 2988 3500 
L 3597 3500 
L 2284 0 
L 1503 0 
L 191 3500 
z
" transform="scale(0.015625)"/>
      <path id="DejaVuSans-2d" d="M 313 2009 
L 1997 2009 
L 1997 1497 
L 313 1497 
L 313 2009 
z
" transform="scale(0.015625)"/>
      <path id="DejaVuSans-6d" d="M 3328 2828 
Q 3544 3216 3844 3400 
Q 4144 3584 4550 3584 
Q 5097 3584 5394 3201 
Q 5691 2819 5691 2113 
L 5691 0 
L 5113 0 
L 5113 2094 
Q 5113 2597 4934 2840 
Q 4756 3084 4391 3084 
Q 3944 3084 3684 2787 
Q 3425 2491 3425 1978 
L 3425 0 
L 2847 0 
L 2847 2094 
Q 2847 2600 2669 2842 
Q 2491 3084 2119 3084 
Q 1678 3084 1418 2786 
Q 1159 2488 1159 1978 
L 1159 0 
L 581 0 
L 581 3500 
L 1159 3500 
L 1159 2956 
Q 1356 3278 1631 3431 
Q 1906 3584 2284 3584 
Q 2666 3584 2933 3390 
Q 3200 3197 3328 2828 
z
" transform="scale(0.015625)"/>
     </defs>
     <use xlink:href="#DejaVuSans-53"/>
     <use xlink:href="#DejaVuSans-53" transform="translate(63.476562 0)"/>
     <use xlink:href="#DejaVuSans-49" transform="translate(126.953125 0)"/>
     <use xlink:href="#DejaVuSans-4d" transform="translate(156.445312 0)"/>
     <use xlink:href="#DejaVuSans-20" transform="translate(242.724609 0)"/>
     <use xlink:href="#DejaVuSans-43" transform="translate(274.511719 0)"/>
     <use xlink:href="#DejaVuSans-6f" transform="translate(344.335938 0)"/>
     <use xlink:href="#DejaVuSans-6e" transform="translate(405.517578 0)"/>
     <use xlink:href="#DejaVuSans-76" transform="translate(468.896484 0)"/>
     <use xlink:href="#DejaVuSans-65" transform="translate(528.076172 0)"/>
     <use xlink:href="#DejaVuSans-72" transform="translate(589.599609 0)"/>
     <use xlink:href="#DejaVuSans-67" transform="translate(628.962891 0)"/>
     <use xlink:href="#DejaVuSans-65" transform="translate(692.439453 0)"/>
     <use xlink:href="#DejaVuSans-6e" transform="translate(753.962891 0)"/>
     <use xlink:href="#DejaVuSans-63" transform="translate(817.341797 0)"/>
     <use xlink:href="#DejaVuSans-65" transform="translate(872.322266 0)"/>
     <use xlink:href="#DejaVuSans-20" transform="translate(933.845703 0)"/>
     <use xlink:href="#DejaVuSans-2d" transform="translate(965.632812 0)"/>
     <use xlink:href="#DejaVuSans-20" transform="translate(1001.716797 0)"/>
     <use xlink:href="#DejaVuSans-49" transform="translate(1033.503906 0)"/>
     <use xlink:href="#DejaVuSans-6d" transform="translate(1062.996094 0)"/>
     <use xlink:href="#DejaVuSans-61" transform="translate(1160.408203 0)"/>
     <use xlink:href="#DejaVuSans-67" transform="translate(1221.6875 0)"/>
     <use xlink:href="#DejaVuSans-65" transform="translate(1285.164062 0)"/>
     <use xlink:href="#DejaVuSans-20" transform="translate(1346.6875 0)"/>
     <use xlink:href="#DejaVuSans-32" transform="translate(1378.474609 0)"/>
    </g>
   </g>
   <g id="legend_1">
    <g id="patch_7">
     <path d="M 483.914317 312.563 
L 561.369 312.563 
Q 563.035 312.563 563.035 310.897 
L 563.035 225.446819 
Q 563.035 223.780819 561.369 223.780819 
L 483.914317 223.780819 
Q 482.248317 223.780819 482.248317 225.446819 
L 482.248317 310.897 
Q 482.248317 312.563 483.914317 312.563 
z
" style="fill: #4d4d4d; opacity: 0.5; stroke: #4d4d4d; stroke-linejoin: miter"/>
    </g>
    <g id="patch_8">
     <path d="M 481.914317 310.563 
L 559.369 310.563 
Q 561.035 310.563 561.035 308.897 
L 561.035 223.446819 
Q 561.035 221.780819 559.369 221.780819 
L 481.914317 221.780819 
Q 480.248317 221.780819 480.248317 223.446819 
L 480.248317 308.897 
Q 480.248317 310.563 481.914317 310.563 
z
" style="fill: #ffffff; stroke: #cccccc; stroke-linejoin: miter"/>
    </g>
    <g id="line2d_82">
     <path d="M 483.580317 228.526817 
L 491.910317 228.526817 
L 500.240317 228.526817 
" style="fill: none; stroke: #000000; stroke-width: 1.5; stroke-linecap: square"/>
     <g>
      <use xlink:href="#m6bd11eb4ad" x="491.910317" y="228.526817" style="stroke: #000000"/>
     </g>
    </g>
    <g id="text_15">
     <!-- PGD -->
     <g transform="translate(506.904317 231.442317) scale(0.0833 -0.0833)">
      <defs>
       <path id="DejaVuSans-50" d="M 1259 4147 
L 1259 2394 
L 2053 2394 
Q 2494 2394 2734 2622 
Q 2975 2850 2975 3272 
Q 2975 3691 2734 3919 
Q 2494 4147 2053 4147 
L 1259 4147 
z
M 628 4666 
L 2053 4666 
Q 2838 4666 3239 4311 
Q 3641 3956 3641 3272 
Q 3641 2581 3239 2228 
Q 2838 1875 2053 1875 
L 1259 1875 
L 1259 0 
L 628 0 
L 628 4666 
z
" transform="scale(0.015625)"/>
       <path id="DejaVuSans-47" d="M 3809 666 
L 3809 1919 
L 2778 1919 
L 2778 2438 
L 4434 2438 
L 4434 434 
Q 4069 175 3628 42 
Q 3188 -91 2688 -91 
Q 1594 -91 976 548 
Q 359 1188 359 2328 
Q 359 3472 976 4111 
Q 1594 4750 2688 4750 
Q 3144 4750 3555 4637 
Q 3966 4525 4313 4306 
L 4313 3634 
Q 3963 3931 3569 4081 
Q 3175 4231 2741 4231 
Q 1884 4231 1454 3753 
Q 1025 3275 1025 2328 
Q 1025 1384 1454 906 
Q 1884 428 2741 428 
Q 3075 428 3337 486 
Q 3600 544 3809 666 
z
" transform="scale(0.015625)"/>
       <path id="DejaVuSans-44" d="M 1259 4147 
L 1259 519 
L 2022 519 
Q 2988 519 3436 956 
Q 3884 1394 3884 2338 
Q 3884 3275 3436 3711 
Q 2988 4147 2022 4147 
L 1259 4147 
z
M 628 4666 
L 1925 4666 
Q 3281 4666 3915 4102 
Q 4550 3538 4550 2338 
Q 4550 1131 3912 565 
Q 3275 0 1925 0 
L 628 0 
L 628 4666 
z
" transform="scale(0.015625)"/>
      </defs>
      <use xlink:href="#DejaVuSans-50"/>
      <use xlink:href="#DejaVuSans-47" transform="translate(60.302734 0)"/>
      <use xlink:href="#DejaVuSans-44" transform="translate(137.792969 0)"/>
     </g>
    </g>
    <g id="line2d_83">
     <path d="M 483.580317 240.753695 
L 491.910317 240.753695 
L 500.240317 240.753695 
" style="fill: none; stroke: #4b0082; stroke-width: 1.5; stroke-linecap: square"/>
     <g>
      <use xlink:href="#m289b03f2d8" x="491.910317" y="240.753695" style="fill: #4b0082; stroke: #4b0082; stroke-linejoin: miter"/>
     </g>
    </g>
    <g id="text_16">
     <!-- FISTA -->
     <g transform="translate(506.904317 243.669195) scale(0.0833 -0.0833)">
      <defs>
       <path id="DejaVuSans-46" d="M 628 4666 
L 3309 4666 
L 3309 4134 
L 1259 4134 
L 1259 2759 
L 3109 2759 
L 3109 2228 
L 1259 2228 
L 1259 0 
L 628 0 
L 628 4666 
z
" transform="scale(0.015625)"/>
       <path id="DejaVuSans-54" d="M -19 4666 
L 3928 4666 
L 3928 4134 
L 2272 4134 
L 2272 0 
L 1638 0 
L 1638 4134 
L -19 4134 
L -19 4666 
z
" transform="scale(0.015625)"/>
       <path id="DejaVuSans-41" d="M 2188 4044 
L 1331 1722 
L 3047 1722 
L 2188 4044 
z
M 1831 4666 
L 2547 4666 
L 4325 0 
L 3669 0 
L 3244 1197 
L 1141 1197 
L 716 0 
L 50 0 
L 1831 4666 
z
" transform="scale(0.015625)"/>
      </defs>
      <use xlink:href="#DejaVuSans-46"/>
      <use xlink:href="#DejaVuSans-49" transform="translate(57.519531 0)"/>
      <use xlink:href="#DejaVuSans-53" transform="translate(87.011719 0)"/>
      <use xlink:href="#DejaVuSans-54" transform="translate(150.488281 0)"/>
      <use xlink:href="#DejaVuSans-41" transform="translate(203.822266 0)"/>
     </g>
    </g>
    <g id="line2d_84">
     <path d="M 483.580317 252.980573 
L 491.910317 252.980573 
L 500.240317 252.980573 
" style="fill: none; stroke: #1f77b4; stroke-width: 1.5; stroke-linecap: square"/>
     <g>
      <use xlink:href="#m022008b802" x="491.910317" y="252.980573" style="fill: #1f77b4; stroke: #1f77b4; stroke-linejoin: miter"/>
     </g>
    </g>
    <g id="text_17">
     <!-- MOMENTUM -->
     <g transform="translate(506.904317 255.896073) scale(0.0833 -0.0833)">
      <defs>
       <path id="DejaVuSans-4f" d="M 2522 4238 
Q 1834 4238 1429 3725 
Q 1025 3213 1025 2328 
Q 1025 1447 1429 934 
Q 1834 422 2522 422 
Q 3209 422 3611 934 
Q 4013 1447 4013 2328 
Q 4013 3213 3611 3725 
Q 3209 4238 2522 4238 
z
M 2522 4750 
Q 3503 4750 4090 4092 
Q 4678 3434 4678 2328 
Q 4678 1225 4090 567 
Q 3503 -91 2522 -91 
Q 1538 -91 948 565 
Q 359 1222 359 2328 
Q 359 3434 948 4092 
Q 1538 4750 2522 4750 
z
" transform="scale(0.015625)"/>
       <path id="DejaVuSans-45" d="M 628 4666 
L 3578 4666 
L 3578 4134 
L 1259 4134 
L 1259 2753 
L 3481 2753 
L 3481 2222 
L 1259 2222 
L 1259 531 
L 3634 531 
L 3634 0 
L 628 0 
L 628 4666 
z
" transform="scale(0.015625)"/>
       <path id="DejaVuSans-4e" d="M 628 4666 
L 1478 4666 
L 3547 763 
L 3547 4666 
L 4159 4666 
L 4159 0 
L 3309 0 
L 1241 3903 
L 1241 0 
L 628 0 
L 628 4666 
z
" transform="scale(0.015625)"/>
       <path id="DejaVuSans-55" d="M 556 4666 
L 1191 4666 
L 1191 1831 
Q 1191 1081 1462 751 
Q 1734 422 2344 422 
Q 2950 422 3222 751 
Q 3494 1081 3494 1831 
L 3494 4666 
L 4128 4666 
L 4128 1753 
Q 4128 841 3676 375 
Q 3225 -91 2344 -91 
Q 1459 -91 1007 375 
Q 556 841 556 1753 
L 556 4666 
z
" transform="scale(0.015625)"/>
      </defs>
      <use xlink:href="#DejaVuSans-4d"/>
      <use xlink:href="#DejaVuSans-4f" transform="translate(86.279297 0)"/>
      <use xlink:href="#DejaVuSans-4d" transform="translate(164.990234 0)"/>
      <use xlink:href="#DejaVuSans-45" transform="translate(251.269531 0)"/>
      <use xlink:href="#DejaVuSans-4e" transform="translate(314.453125 0)"/>
      <use xlink:href="#DejaVuSans-54" transform="translate(389.257812 0)"/>
      <use xlink:href="#DejaVuSans-55" transform="translate(450.341797 0)"/>
      <use xlink:href="#DejaVuSans-4d" transform="translate(523.535156 0)"/>
     </g>
    </g>
    <g id="line2d_85">
     <path d="M 483.580317 265.207452 
L 491.910317 265.207452 
L 500.240317 265.207452 
" style="fill: none; stroke: #ff7f0e; stroke-width: 1.5; stroke-linecap: square"/>
     <g>
      <use xlink:href="#m050e544016" x="491.910317" y="265.207452" style="fill: #ff7f0e; stroke: #ff7f0e; stroke-linejoin: miter"/>
     </g>
    </g>
    <g id="text_18">
     <!-- AA_M3 -->
     <g transform="translate(506.904317 268.122952) scale(0.0833 -0.0833)">
      <defs>
       <path id="DejaVuSans-5f" d="M 3263 -1063 
L 3263 -1509 
L -63 -1509 
L -63 -1063 
L 3263 -1063 
z
" transform="scale(0.015625)"/>
      </defs>
      <use xlink:href="#DejaVuSans-41"/>
      <use xlink:href="#DejaVuSans-41" transform="translate(71.158203 0)"/>
      <use xlink:href="#DejaVuSans-5f" transform="translate(139.566406 0)"/>
      <use xlink:href="#DejaVuSans-4d" transform="translate(189.566406 0)"/>
      <use xlink:href="#DejaVuSans-33" transform="translate(275.845703 0)"/>
     </g>
    </g>
    <g id="line2d_86">
     <path d="M 483.580317 277.666008 
L 491.910317 277.666008 
L 500.240317 277.666008 
" style="fill: none; stroke: #2ca02c; stroke-width: 1.5; stroke-linecap: square"/>
     <g>
      <use xlink:href="#me8df398222" x="491.910317" y="277.666008" style="fill: #2ca02c; stroke: #2ca02c; stroke-linejoin: miter"/>
     </g>
    </g>
    <g id="text_19">
     <!-- AA_M4 -->
     <g transform="translate(506.904317 280.581508) scale(0.0833 -0.0833)">
      <use xlink:href="#DejaVuSans-41"/>
      <use xlink:href="#DejaVuSans-41" transform="translate(71.158203 0)"/>
      <use xlink:href="#DejaVuSans-5f" transform="translate(139.566406 0)"/>
      <use xlink:href="#DejaVuSans-4d" transform="translate(189.566406 0)"/>
      <use xlink:href="#DejaVuSans-34" transform="translate(275.845703 0)"/>
     </g>
    </g>
    <g id="line2d_87">
     <path d="M 483.580317 290.124564 
L 491.910317 290.124564 
L 500.240317 290.124564 
" style="fill: none; stroke: #d62728; stroke-width: 1.5; stroke-linecap: square"/>
     <g>
      <use xlink:href="#m8a9b3f48a2" x="491.910317" y="290.124564" style="fill: #d62728; stroke: #d62728; stroke-linejoin: miter"/>
     </g>
    </g>
    <g id="text_20">
     <!-- AA_M5 -->
     <g transform="translate(506.904317 293.040064) scale(0.0833 -0.0833)">
      <use xlink:href="#DejaVuSans-41"/>
      <use xlink:href="#DejaVuSans-41" transform="translate(71.158203 0)"/>
      <use xlink:href="#DejaVuSans-5f" transform="translate(139.566406 0)"/>
      <use xlink:href="#DejaVuSans-4d" transform="translate(189.566406 0)"/>
      <use xlink:href="#DejaVuSans-35" transform="translate(275.845703 0)"/>
     </g>
    </g>
    <g id="line2d_88">
     <path d="M 483.580317 302.58312 
L 491.910317 302.58312 
L 500.240317 302.58312 
" style="fill: none; stroke: #ff0000; stroke-width: 1.5; stroke-linecap: square"/>
    </g>
    <g id="text_21">
     <!-- RL AGENT -->
     <g transform="translate(506.904317 305.49862) scale(0.0833 -0.0833)">
      <defs>
       <path id="DejaVuSans-52" d="M 2841 2188 
Q 3044 2119 3236 1894 
Q 3428 1669 3622 1275 
L 4263 0 
L 3584 0 
L 2988 1197 
Q 2756 1666 2539 1819 
Q 2322 1972 1947 1972 
L 1259 1972 
L 1259 0 
L 628 0 
L 628 4666 
L 2053 4666 
Q 2853 4666 3247 4331 
Q 3641 3997 3641 3322 
Q 3641 2881 3436 2590 
Q 3231 2300 2841 2188 
z
M 1259 4147 
L 1259 2491 
L 2053 2491 
Q 2509 2491 2742 2702 
Q 2975 2913 2975 3322 
Q 2975 3731 2742 3939 
Q 2509 4147 2053 4147 
L 1259 4147 
z
" transform="scale(0.015625)"/>
      </defs>
      <use xlink:href="#DejaVuSans-52"/>
      <use xlink:href="#DejaVuSans-4c" transform="translate(69.482422 0)"/>
      <use xlink:href="#DejaVuSans-20" transform="translate(125.195312 0)"/>
      <use xlink:href="#DejaVuSans-41" transform="translate(156.982422 0)"/>
      <use xlink:href="#DejaVuSans-47" transform="translate(223.640625 0)"/>
      <use xlink:href="#DejaVuSans-45" transform="translate(301.130859 0)"/>
      <use xlink:href="#DejaVuSans-4e" transform="translate(364.314453 0)"/>
      <use xlink:href="#DejaVuSans-54" transform="translate(439.119141 0)"/>
     </g>
    </g>
   </g>
  </g>
 </g>
 <defs>
  <clipPath id="p42e7029817">
   <rect x="53.93" y="26.88" width="511.27" height="287.848"/>
  </clipPath>
 </defs>
</svg>
