<?xml version="1.0" encoding="utf-8" standalone="no"?>
<!DOCTYPE svg PUBLIC "-//W3C//DTD SVG 1.1//EN"
  "http://www.w3.org/Graphics/SVG/1.1/DTD/svg11.dtd">
<svg xmlns:xlink="http://www.w3.org/1999/xlink" width="576pt" height="360pt" viewBox="0 0 576 360" xmlns="http://www.w3.org/2000/svg" version="1.1">
 <metadata>
  <rdf:RDF xmlns:dc="http://purl.org/dc/elements/1.1/" xmlns:cc="http://creativecommons.org/ns#" xmlns:rdf="http://www.w3.org/1999/02/22-rdf-syntax-ns#">
   <cc:Work>
    <dc:type rdf:resource="http://purl.org/dc/dcmitype/StillImage"/>
    <dc:date>2026-04-14T21:15:33.945218</dc:date>
    <dc:format>image/svg+xml</dc:format>
    <dc:creator>
     <cc:Agent>
      <dc:title>Matplotlib v3.10.3, https://matplotlib.org/</dc:title>
     </cc:Agent>
    </dc:creator>
   </cc:Work>
  </rdf:RDF>
 </metadata>
 <defs>
  <style type="text/css">*{stroke-linejoin: round; stroke-linecap: butt}</style>
 </defs>
 <g id="figure_1">
  <g id="patch_1">
   <path d="M 0 360 
L 576 360 
L 576 0 
L 0 0 
z
" style="fill: #ffffff"/>
  </g>
  <g id="axes_1">
   <g id="patch_2">
    <path d="M 54.02 314.728 
L 565.2 314.728 
L 565.2 26.88 
L 54.02 26.88 
z
" style="fill: #ffffff"/>
   </g>
   <g id="line2d_1">
    <path d="M -1 296.324955 
L 77.255455 296.322267 
L 123.892668 291.345919 
L 151.173689 286.676457 
L 170.529881 282.287312 
L 185.54371 278.155894 
L 197.810902 274.261202 
L 208.182665 270.583191 
L 217.167095 267.105156 
L 225.091923 263.811031 
L 232.180924 260.685541 
L 244.448116 254.89115 
L 254.819878 249.634167 
L 263.804308 244.845228 
L 275.366956 238.405249 
L 288.221779 230.963954 
L 306.099158 220.302511 
L 337.722542 201.353095 
L 351.605533 193.321575 
L 363.108134 186.913573 
L 375.375326 180.333594 
L 387.775884 173.939592 
L 399.373585 168.213292 
L 410.224234 163.101559 
L 419.979657 158.7393 
L 429.580427 154.69729 
L 438.609578 151.137802 
L 447.945153 147.707336 
L 456.861448 144.678254 
L 465.366991 142.032581 
L 473.664581 139.687111 
L 481.548093 137.6848 
L 489.196831 135.952623 
L 497.774266 134.249083 
L 505.612445 132.918451 
L 514.074622 131.711273 
L 522.135239 130.776617 
L 530.700104 129.99787 
L 538.722182 129.434849 
L 541.964545 129.245372 
L 541.964545 129.245372 
" clip-path="url(#p0bac2aa5b2)" style="fill: none; stroke: #000000; stroke-width: 1.5; stroke-linecap: square"/>
    <defs>
     <path id="mbd1d8dbfaa" d="M 0 3 
C 0.795609 3 1.55874 2.683901 2.12132 2.12132 
C 2.683901 1.55874 3 0.795609 3 0 
C 3 -0.795609 2.683901 -1.55874 2.12132 -2.12132 
C 1.55874 -2.683901 0.795609 -3 0 -3 
C -0.795609 -3 -1.55874 -2.683901 -2.12132 -2.12132 
C -2.683901 -1.55874 -3 -0.795609 -3 0 
C -3 0.795609 -2.683901 1.55874 -2.12132 2.12132 
C -1.55874 2.683901 -0.795609 3 0 3 
z
" style="stroke: #000000"/>
    </defs>
    <g clip-path="url(#p0bac2aa5b2)">
     <use xlink:href="#mbd1d8dbfaa" x="-1" y="296.324955" style="stroke: #000000"/>
     <use xlink:href="#mbd1d8dbfaa" x="77.255455" y="296.322267" style="stroke: #000000"/>
     <use xlink:href="#mbd1d8dbfaa" x="151.173689" y="286.676457" style="stroke: #000000"/>
     <use xlink:href="#mbd1d8dbfaa" x="197.810902" y="274.261202" style="stroke: #000000"/>
     <use xlink:href="#mbd1d8dbfaa" x="254.819878" y="249.634167" style="stroke: #000000"/>
     <use xlink:href="#mbd1d8dbfaa" x="306.099158" y="220.302511" style="stroke: #000000"/>
     <use xlink:href="#mbd1d8dbfaa" x="357.078735" y="190.24254" style="stroke: #000000"/>
     <use xlink:href="#mbd1d8dbfaa" x="408.777226" y="163.767989" style="stroke: #000000"/>
     <use xlink:href="#mbd1d8dbfaa" x="463.447528" y="142.608329" style="stroke: #000000"/>
     <use xlink:href="#mbd1d8dbfaa" x="520.949198" y="130.901185" style="stroke: #000000"/>
    </g>
   </g>
   <g id="line2d_2">
    <path d="M -1 296.324955 
L 77.255455 296.322267 
L 123.892668 291.345919 
L 151.173689 285.382734 
L 170.529881 279.232617 
L 185.54371 273.216614 
L 197.810902 267.471383 
L 208.182665 262.052445 
L 217.167095 256.969666 
L 225.091923 252.217477 
L 238.593705 243.643777 
L 249.833651 236.166529 
L 271.729136 221.190713 
L 291.085329 208.012301 
L 303.818151 199.630941 
L 314.520544 192.8521 
L 325.455351 186.235053 
L 336.306 179.990436 
L 343.108078 176.198994 
L 361.157758 166.704479 
L 364.062523 165.293984 
L 366.847056 163.86217 
L 367.750201 163.48433 
L 368.641383 162.980491 
L 369.520915 162.625879 
L 370.389099 162.127767 
L 371.246222 161.795268 
L 372.092564 161.30336 
L 372.928392 160.990588 
L 373.753964 160.506317 
L 374.569529 160.211682 
L 375.375326 159.736001 
L 376.171587 159.45823 
L 376.958535 158.990027 
L 377.736385 158.731187 
L 378.505345 158.265847 
L 379.265616 158.030234 
L 380.017392 157.562827 
L 380.760862 157.355055 
L 381.496205 156.882556 
L 382.223599 156.702466 
L 382.943213 156.223126 
L 383.655212 156.071354 
L 384.359756 155.585015 
L 385.056998 155.45997 
L 385.747089 154.968699 
L 386.430174 154.867676 
L 387.106393 154.372428 
L 387.775884 154.292564 
L 388.438779 153.79493 
L 389.095206 153.732725 
L 389.745291 153.234613 
L 390.389155 153.187682 
L 391.026916 152.689729 
L 391.658689 152.656797 
L 392.284584 152.160117 
L 392.904711 152.139435 
L 393.519174 151.644664 
L 394.128077 151.635278 
L 394.731518 151.142575 
L 395.329596 151.142893 
L 395.922404 150.654167 
L 396.510035 150.661803 
L 397.092577 150.179759 
L 397.67012 150.192487 
L 398.242747 149.719352 
L 398.810542 149.734306 
L 399.373585 149.271194 
L 399.931955 149.287581 
L 400.48573 148.835764 
L 401.034985 148.852946 
L 401.579792 148.412901 
L 402.120222 148.431038 
L 402.656347 148.003085 
L 403.188233 148.021221 
L 403.715948 147.60504 
L 404.239556 147.625086 
L 404.75912 147.219564 
L 405.274704 147.242951 
L 405.786366 146.847452 
L 406.294167 146.874497 
L 406.798164 146.488226 
L 407.298413 146.518453 
L 407.794971 146.140136 
L 408.287891 146.173227 
L 408.777226 145.804137 
L 409.263028 145.838023 
L 409.745348 145.479275 
L 410.224234 145.513002 
L 410.699736 145.16523 
L 411.171902 145.197048 
L 411.640777 144.861208 
L 412.106407 144.889526 
L 412.568836 144.565459 
L 413.02811 144.587732 
L 413.484269 144.276233 
L 413.937357 144.291665 
L 414.387414 143.992098 
L 414.834481 144.000052 
L 415.278596 143.711621 
L 415.7198 143.712258 
L 416.158129 143.43544 
L 416.593621 143.427963 
L 417.026312 143.16435 
L 417.456239 143.1486 
L 417.883436 142.897556 
L 418.307937 142.874647 
L 418.729777 142.634579 
L 419.148989 142.605784 
L 419.565605 142.375262 
L 419.979657 142.340421 
L 420.391177 142.119285 
L 420.800195 142.078558 
L 421.206742 141.866173 
L 421.610847 141.8194 
L 422.012539 141.617037 
L 422.411848 141.56406 
L 422.8088 141.370606 
L 423.203425 141.312538 
L 423.985797 141.065311 
L 425.142558 140.656449 
L 426.279768 140.353382 
L 427.398075 139.97777 
L 428.498099 139.693952 
L 429.580427 139.342044 
L 430.645619 139.076841 
L 431.694211 138.733524 
L 432.726711 138.495842 
L 433.743606 138.160798 
L 434.079185 138.126116 
L 435.075992 137.802367 
L 436.058247 137.596186 
L 437.026369 137.290574 
L 437.980757 137.090756 
L 438.921797 136.812666 
L 440.156388 136.513258 
L 446.846626 134.946218 
L 447.122944 135.001263 
L 447.398131 134.836445 
L 447.672198 134.895309 
L 447.945153 134.732559 
L 448.217005 134.793491 
L 448.487763 134.633764 
L 448.757436 134.694218 
L 449.026032 134.538628 
L 449.29356 134.597332 
L 449.560029 134.446037 
L 449.825447 134.501878 
L 450.089821 134.357265 
L 450.353161 134.408651 
L 450.615475 134.271992 
L 450.876769 134.316856 
L 451.137053 134.187674 
L 451.396334 134.22522 
L 451.654619 134.104311 
L 451.911917 134.134856 
L 452.168235 134.022061 
L 452.423579 134.045448 
L 452.677959 133.939493 
L 452.93138 133.95763 
L 453.685967 133.774039 
L 454.432185 133.699108 
L 455.170217 133.525699 
L 455.900242 133.455859 
L 456.62243 133.286427 
L 457.33695 133.220087 
L 458.043961 133.06036 
L 458.74362 132.991633 
L 459.436078 132.835406 
L 460.121483 132.769861 
L 460.799975 132.61093 
L 461.471694 132.543475 
L 462.136773 132.380408 
L 462.795342 132.309612 
L 463.447528 132.145749 
L 464.093452 132.074954 
L 464.733234 131.915545 
L 465.366991 131.854455 
L 465.994833 131.698546 
L 466.616871 131.65416 
L 467.23321 131.509388 
L 467.843955 131.47916 
L 468.449206 131.34632 
L 469.049061 131.31832 
L 469.643615 131.188025 
L 470.232962 131.160821 
L 470.817191 131.028298 
L 471.39639 131.00523 
L 471.970646 130.865231 
L 472.160981 130.898321 
L 472.350779 130.808754 
L 472.540043 130.844231 
L 472.728776 130.753549 
L 472.916981 130.790299 
L 473.104661 130.699458 
L 473.291819 130.73764 
L 473.478458 130.647277 
L 473.664581 130.687049 
L 473.85019 130.597641 
L 474.035288 130.639163 
L 474.219879 130.548959 
L 474.403965 130.594141 
L 474.587548 130.501868 
L 474.770632 130.551186 
L 474.953219 130.457005 
L 475.135312 130.5103 
L 475.316913 130.413096 
L 475.498026 130.469732 
L 475.678652 130.370937 
L 475.858795 130.430118 
L 476.038457 130.330528 
L 476.21764 130.390823 
L 476.396347 130.292505 
L 476.574581 130.352641 
L 476.752344 130.256392 
L 476.929639 130.313982 
L 477.106468 130.22171 
L 477.282833 130.276437 
L 477.458737 130.188778 
L 477.634182 130.239051 
L 477.809171 130.158074 
L 477.983707 130.202778 
L 478.504612 130.105097 
L 479.021515 130.09746 
L 479.874293 130.010756 
L 482.695461 129.794234 
L 483.82359 129.649462 
L 484.301343 129.652325 
L 484.459843 129.569121 
L 484.617971 129.620985 
L 484.775727 129.529667 
L 484.933115 129.589326 
L 485.090136 129.490371 
L 485.246791 129.558144 
L 485.403082 129.451394 
L 485.559011 129.527121 
L 485.714579 129.413213 
L 485.869789 129.49578 
L 486.024641 129.375031 
L 486.179138 129.463485 
L 486.33328 129.33669 
L 486.487071 129.430235 
L 486.64051 129.298508 
L 486.793601 129.39619 
L 486.946344 129.261281 
L 487.098741 129.360554 
L 487.250794 129.225327 
L 487.402504 129.323486 
L 487.553872 129.191281 
L 487.704901 129.286736 
L 487.855591 129.158509 
L 488.005945 129.251259 
L 488.155964 129.127645 
L 488.305648 129.2196 
L 488.455001 129.099645 
L 488.604023 129.192077 
L 488.752715 129.073555 
L 488.901079 129.1671 
L 489.049118 129.050009 
L 489.196831 129.145145 
L 489.34422 129.029327 
L 489.491287 129.1251 
L 489.638034 129.011191 
L 489.784461 129.106168 
L 489.93057 128.997191 
L 490.076363 129.088986 
L 490.22184 128.986055 
L 490.367004 129.073714 
L 490.511855 128.977305 
L 490.656395 129.059236 
L 490.800625 128.969828 
L 490.944546 129.045555 
L 491.088161 128.963464 
L 491.231469 129.032987 
L 491.374473 128.958691 
L 491.517174 129.021691 
L 491.659572 128.95535 
L 491.943468 128.954396 
L 492.367079 128.997509 
L 492.788039 128.955191 
L 493.206382 128.978259 
L 493.897892 128.948032 
L 494.989733 128.93801 
L 495.663245 128.898555 
L 496.06414 128.92401 
L 496.46266 128.875964 
L 496.858834 128.907464 
L 497.252688 128.861646 
L 497.64425 128.883282 
L 498.162814 128.858464 
L 498.933241 128.808192 
L 510.084741 128.089103 
L 510.837719 128.019422 
L 511.582364 127.979013 
L 512.527812 127.906149 
L 513.254084 127.902013 
L 513.56296 127.845377 
L 513.870424 127.877831 
L 514.176489 127.802581 
L 514.481169 127.845695 
L 514.784475 127.766627 
L 515.08642 127.80799 
L 515.387016 127.7294 
L 515.686274 127.765036 
L 515.984208 127.693764 
L 516.280829 127.730195 
L 516.576147 127.657014 
L 516.870175 127.697582 
L 517.162924 127.6174 
L 517.260224 127.677059 
L 517.551284 127.597832 
L 517.648025 127.661627 
L 517.937416 127.586059 
L 518.225567 127.646196 
L 518.51249 127.575718 
L 518.798194 127.636968 
L 519.082691 127.572855 
L 519.365989 127.638241 
L 519.6481 127.569832 
L 519.741874 127.642696 
L 519.835519 127.569832 
L 519.929032 127.643968 
L 520.022417 127.569673 
L 520.115671 127.64365 
L 520.208797 127.567923 
L 520.301794 127.642377 
L 520.394663 127.565537 
L 520.487403 127.638877 
L 520.580016 127.563309 
L 520.672502 127.633946 
L 520.857092 127.626946 
L 521.133032 127.554559 
L 521.407845 127.596559 
L 521.68154 127.541037 
L 521.954127 127.567923 
L 522.225613 127.52831 
L 522.67567 127.527832 
L 523.655325 127.479469 
L 528.185306 127.382742 
L 528.267913 127.176879 
L 528.350419 127.380355 
L 528.432823 127.166379 
L 528.515127 127.378924 
L 528.59733 127.154606 
L 528.679433 127.376219 
L 528.761436 127.142197 
L 528.843339 127.373515 
L 528.925142 127.129629 
L 529.006846 127.370651 
L 529.088451 127.116424 
L 529.169957 127.367469 
L 529.251365 127.102743 
L 529.332674 127.363651 
L 529.413885 127.089061 
L 529.494998 127.358878 
L 529.576013 127.076175 
L 529.656931 127.354106 
L 529.737752 127.063925 
L 529.818476 127.348537 
L 529.899103 127.051038 
L 529.979633 127.342651 
L 530.060068 127.037357 
L 530.140406 127.336924 
L 530.220648 127.023993 
L 530.300795 127.331037 
L 530.380847 127.010788 
L 530.460803 127.324197 
L 530.540665 126.997425 
L 530.620431 127.316401 
L 530.700104 126.985016 
L 530.779682 127.307174 
L 530.859166 126.972925 
L 530.938556 127.298106 
L 531.017853 126.962107 
L 531.097056 127.289197 
L 531.176167 126.953039 
L 531.255184 127.279651 
L 531.334109 126.946198 
L 531.412941 127.27106 
L 531.491681 126.943016 
L 531.570329 127.262629 
L 531.648885 126.942061 
L 531.727349 127.253083 
L 531.805722 126.943016 
L 531.884004 127.24481 
L 531.962195 126.946039 
L 532.040295 127.238447 
L 532.118305 126.951448 
L 532.196224 127.233833 
L 532.274053 126.95797 
L 532.351792 127.23081 
L 532.429442 126.965289 
L 532.507002 127.228742 
L 532.584473 126.973084 
L 532.661854 127.227788 
L 532.739147 126.981675 
L 532.816351 127.227788 
L 532.893466 126.990743 
L 532.970494 127.228742 
L 533.047433 127.000607 
L 533.124284 127.230333 
L 533.201048 127.012379 
L 533.277724 127.232242 
L 533.354313 127.025425 
L 533.430814 127.23622 
L 533.507229 127.038788 
L 533.583557 127.240356 
L 533.659799 127.050243 
L 533.735954 127.243697 
L 533.812024 127.060106 
L 533.888007 127.246242 
L 533.963905 127.06822 
L 534.039717 127.24831 
L 534.115444 127.075538 
L 534.191085 127.249583 
L 534.266642 127.081902 
L 534.342114 127.248151 
L 534.417502 127.087311 
L 534.492805 127.244015 
L 534.568024 127.091288 
L 534.643158 127.23797 
L 534.718209 127.094152 
L 534.793177 127.231606 
L 534.868061 127.096061 
L 534.942862 127.224129 
L 535.017579 127.095425 
L 535.092214 127.216651 
L 535.166766 127.093197 
L 535.241236 127.210129 
L 535.315623 127.089061 
L 535.389928 127.203288 
L 535.464151 127.082697 
L 535.538293 127.196447 
L 535.612353 127.073947 
L 535.686331 127.189606 
L 535.760228 127.062175 
L 535.834044 127.185152 
L 535.907779 127.048016 
L 535.981433 127.182288 
L 536.055007 127.03322 
L 536.128501 127.179583 
L 536.201914 127.018425 
L 536.275247 127.176879 
L 536.348501 127.003311 
L 536.421675 127.173061 
L 536.494769 126.988675 
L 536.567784 127.168447 
L 536.64072 126.974198 
L 536.713576 127.163515 
L 536.786354 126.960834 
L 536.859054 127.158106 
L 536.931675 126.94938 
L 537.004217 127.152856 
L 537.076682 126.939675 
L 537.149068 127.148879 
L 537.221377 126.931243 
L 537.293608 127.146652 
L 537.365762 126.924243 
L 537.437838 127.146652 
L 537.509838 126.919471 
L 537.58176 127.148083 
L 537.653605 126.916448 
L 537.725374 127.151106 
L 537.797066 126.915016 
L 537.868683 127.155879 
L 537.940222 126.914698 
L 538.011686 127.160015 
L 538.083074 126.915016 
L 538.154387 127.163833 
L 538.225624 126.915493 
L 538.296785 127.167333 
L 538.367872 126.916925 
L 538.438883 127.170833 
L 538.50982 126.918516 
L 538.580681 127.174811 
L 538.651469 126.921061 
L 538.722182 127.179583 
L 538.79282 126.924561 
L 538.863385 127.184356 
L 538.933875 126.928221 
L 539.004292 127.188015 
L 539.074635 126.930289 
L 539.144905 127.191197 
L 539.215102 126.931243 
L 539.285225 127.194061 
L 539.355275 126.93188 
L 539.425253 127.196606 
L 539.495157 126.933789 
L 539.564989 127.198833 
L 539.634749 126.936016 
L 539.704437 127.200742 
L 539.774052 126.939198 
L 539.843595 127.202015 
L 539.913067 126.941902 
L 539.982467 127.20297 
L 540.051796 126.94413 
L 540.121053 127.204401 
L 540.190239 126.944289 
L 540.259353 127.205515 
L 540.328397 126.943016 
L 540.39737 127.205197 
L 540.466273 126.941107 
L 540.535105 127.204242 
L 540.603867 126.939357 
L 540.672558 127.20297 
L 540.741179 126.937766 
L 540.809731 127.201061 
L 540.878213 126.93538 
L 540.946625 127.198038 
L 541.014967 126.933789 
L 541.083241 127.194856 
L 541.151445 126.932993 
L 541.21958 127.191515 
L 541.287646 126.933311 
L 541.355643 127.189447 
L 541.423571 126.935061 
L 541.491432 127.18897 
L 541.559223 126.937925 
L 541.626947 127.189606 
L 541.694602 126.941266 
L 541.76219 127.190879 
L 541.829709 126.945084 
L 541.897161 127.191197 
L 541.964545 126.949061 
L 541.964545 126.949061 
" clip-path="url(#p0bac2aa5b2)" style="fill: none; stroke: #4b0082; stroke-width: 1.5; stroke-linecap: square"/>
    <defs>
     <path id="m0b30dccc77" d="M -3 3 
L 3 3 
L 3 -3 
L -3 -3 
z
" style="stroke: #4b0082; stroke-linejoin: miter"/>
    </defs>
    <g clip-path="url(#p0bac2aa5b2)">
     <use xlink:href="#m0b30dccc77" x="-1" y="296.324955" style="fill: #4b0082; stroke: #4b0082; stroke-linejoin: miter"/>
     <use xlink:href="#m0b30dccc77" x="77.255455" y="296.322267" style="fill: #4b0082; stroke: #4b0082; stroke-linejoin: miter"/>
     <use xlink:href="#m0b30dccc77" x="151.173689" y="285.382734" style="fill: #4b0082; stroke: #4b0082; stroke-linejoin: miter"/>
     <use xlink:href="#m0b30dccc77" x="197.810902" y="267.471383" style="fill: #4b0082; stroke: #4b0082; stroke-linejoin: miter"/>
     <use xlink:href="#m0b30dccc77" x="249.833651" y="236.166529" style="fill: #4b0082; stroke: #4b0082; stroke-linejoin: miter"/>
     <use xlink:href="#m0b30dccc77" x="299.010157" y="202.76025" style="fill: #4b0082; stroke: #4b0082; stroke-linejoin: miter"/>
     <use xlink:href="#m0b30dccc77" x="348.094305" y="173.502889" style="fill: #4b0082; stroke: #4b0082; stroke-linejoin: miter"/>
     <use xlink:href="#m0b30dccc77" x="401.034985" y="148.852946" style="fill: #4b0082; stroke: #4b0082; stroke-linejoin: miter"/>
     <use xlink:href="#m0b30dccc77" x="455.41444" y="133.534767" style="fill: #4b0082; stroke: #4b0082; stroke-linejoin: miter"/>
     <use xlink:href="#m0b30dccc77" x="510.300739" y="128.074149" style="fill: #4b0082; stroke: #4b0082; stroke-linejoin: miter"/>
     <use xlink:href="#m0b30dccc77" x="539.495157" y="126.933789" style="fill: #4b0082; stroke: #4b0082; stroke-linejoin: miter"/>
    </g>
   </g>
   <g id="line2d_3">
    <path d="M -1 296.324955 
L 77.255455 296.322267 
L 123.892668 286.986206 
L 151.173689 278.706824 
L 170.529881 271.337279 
L 185.54371 264.729937 
L 197.810902 258.775501 
L 208.182665 253.372473 
L 217.167095 248.452921 
L 232.180924 239.816699 
L 249.833651 229.197256 
L 299.010157 199.168147 
L 308.305365 193.742529 
L 316.470921 189.106475 
L 325.455351 184.138082 
L 343.108078 174.84943 
L 354.942578 168.967222 
L 362.140013 165.525142 
L 375.375326 159.532525 
L 394.731518 151.527732 
L 408.777226 146.383226 
L 422.411848 141.878422 
L 422.8088 141.823377 
L 423.203425 141.637082 
L 423.595748 141.589514 
L 423.985797 141.400674 
L 424.373598 141.360265 
L 424.759177 141.168879 
L 425.142558 141.135152 
L 425.523768 140.942812 
L 425.902829 140.914971 
L 426.279768 140.721835 
L 426.654606 140.699404 
L 427.027367 140.506745 
L 427.398075 140.488291 
L 427.766751 140.297064 
L 428.133419 140.282109 
L 428.498099 140.092474 
L 428.860812 140.080542 
L 429.221582 139.89202 
L 429.580427 139.882474 
L 429.937368 139.695543 
L 430.292426 139.687111 
L 430.645619 139.503044 
L 430.996969 139.494294 
L 431.346493 139.314522 
L 431.694211 139.30434 
L 432.040141 139.129977 
L 432.384302 139.11725 
L 432.726711 138.948455 
L 433.067387 138.932705 
L 433.406346 138.770273 
L 433.743606 138.750705 
L 434.079185 138.596228 
L 434.413097 138.571251 
L 435.075992 138.394661 
L 436.058247 138.099866 
L 437.026369 137.882708 
L 439.541924 137.245233 
L 440.461528 137.055279 
L 441.368732 136.797075 
L 442.263866 136.639258 
L 443.147248 136.373417 
L 443.43915 136.375327 
L 443.729791 136.238191 
L 444.019182 136.248213 
L 444.307333 136.106146 
L 444.594256 136.123805 
L 444.87996 135.977282 
L 445.164456 136.001623 
L 445.447755 135.851442 
L 445.729865 135.881351 
L 446.010798 135.728465 
L 446.290563 135.761715 
L 446.569169 135.607556 
L 446.846626 135.64192 
L 447.122944 135.489352 
L 447.398131 135.522602 
L 447.672198 135.373534 
L 447.945153 135.404398 
L 448.217005 135.260103 
L 448.487763 135.287148 
L 448.757436 135.148899 
L 449.026032 135.171171 
L 449.29356 135.039604 
L 449.560029 135.056467 
L 449.825447 134.932058 
L 450.089821 134.942718 
L 450.615475 134.829604 
L 451.396334 134.623582 
L 452.168235 134.502355 
L 453.435377 134.238583 
L 464.520649 132.178045 
L 465.156401 132.126817 
L 465.786202 131.973295 
L 466.410163 131.928591 
L 467.02839 131.787637 
L 467.640989 131.741023 
L 468.24806 131.616137 
L 468.849703 131.55791 
L 469.840638 131.400411 
L 473.664581 130.933639 
L 473.85019 130.846776 
L 474.035288 130.891003 
L 474.219879 130.79889 
L 474.403965 130.848526 
L 474.587548 130.750686 
L 474.770632 130.806049 
L 474.953219 130.703595 
L 475.135312 130.763731 
L 475.316913 130.656186 
L 475.498026 130.721095 
L 475.678652 130.609095 
L 475.858795 130.678458 
L 476.038457 130.562959 
L 476.21764 130.635186 
L 476.396347 130.517777 
L 476.574581 130.590481 
L 476.752344 130.474346 
L 476.929639 130.544823 
L 477.106468 130.43155 
L 477.282833 130.499005 
L 477.458737 130.389232 
L 477.634182 130.452232 
L 477.809171 130.34755 
L 477.983707 130.4053 
L 478.15779 130.306823 
L 478.331425 130.359164 
L 478.504612 130.266733 
L 478.677355 130.313823 
L 478.849655 130.226642 
L 479.021515 130.269437 
L 479.363925 130.225528 
L 479.874293 130.110188 
L 480.38082 130.102869 
L 480.883561 130.001211 
L 481.382574 129.994847 
L 481.877914 129.899234 
L 482.369633 129.890484 
L 482.857785 129.800598 
L 483.34242 129.787393 
L 483.82359 129.702598 
L 484.301343 129.697348 
L 484.775727 129.610007 
L 485.246791 129.613666 
L 485.714579 129.517735 
L 486.179138 129.529508 
L 486.33328 129.454735 
L 486.487071 129.504371 
L 486.64051 129.423076 
L 486.793601 129.479871 
L 486.946344 129.391417 
L 487.098741 129.454894 
L 487.250794 129.360235 
L 487.402504 129.429917 
L 487.553872 129.330486 
L 487.704901 129.404463 
L 487.855591 129.302327 
L 488.005945 129.379167 
L 488.155964 129.274804 
L 488.305648 129.353554 
L 488.455001 129.248077 
L 488.604023 129.327781 
L 488.752715 129.221827 
L 488.901079 129.302327 
L 489.049118 129.196372 
L 489.196831 129.276872 
L 489.34422 129.171872 
L 489.491287 129.251099 
L 489.638034 129.148645 
L 489.784461 129.225009 
L 489.93057 129.125736 
L 490.076363 129.199554 
L 490.22184 129.103145 
L 490.367004 129.174895 
L 490.511855 129.080873 
L 490.656395 129.151191 
L 490.800625 129.059236 
L 490.944546 129.127009 
L 491.088161 129.037918 
L 491.231469 129.103145 
L 491.374473 129.017237 
L 491.517174 129.079282 
L 491.659572 128.997509 
L 491.80167 129.055736 
L 491.943468 128.978418 
L 492.084968 129.033305 
L 492.367079 129.011827 
L 492.788039 128.924169 
L 493.206382 128.950578 
L 493.62214 128.866419 
L 494.035345 128.891873 
L 494.446027 128.800555 
L 494.582366 128.851464 
L 494.71843 128.775737 
L 494.854218 128.830464 
L 494.989733 128.750919 
L 495.124976 128.809464 
L 495.259948 128.726737 
L 495.394649 128.789737 
L 495.529081 128.702397 
L 495.663245 128.770487 
L 495.797142 128.678215 
L 495.930774 128.751874 
L 496.06414 128.653874 
L 496.197242 128.734215 
L 496.330082 128.629851 
L 496.46266 128.717351 
L 496.594977 128.606783 
L 496.727035 128.701442 
L 496.858834 128.58467 
L 496.990375 128.686169 
L 497.121659 128.56367 
L 497.252688 128.672329 
L 497.383462 128.544102 
L 497.513983 128.659601 
L 497.64425 128.526284 
L 497.774266 128.647829 
L 497.904032 128.50942 
L 498.033547 128.636215 
L 498.162814 128.492875 
L 498.291833 128.625556 
L 498.420604 128.47617 
L 498.54913 128.615533 
L 498.677411 128.459466 
L 498.805448 128.605988 
L 498.933241 128.442761 
L 499.060793 128.59692 
L 499.188103 128.425738 
L 499.315172 128.588488 
L 499.442002 128.409352 
L 499.568593 128.580693 
L 499.694947 128.393761 
L 499.821064 128.573693 
L 499.946945 128.380239 
L 500.07259 128.566693 
L 500.198002 128.368307 
L 500.32318 128.559693 
L 500.448126 128.357648 
L 500.57284 128.552056 
L 500.697323 128.348102 
L 500.821577 128.544579 
L 500.945602 128.339511 
L 501.069398 128.536465 
L 501.192967 128.331716 
L 501.316309 128.528511 
L 501.439426 128.324239 
L 501.562318 128.519443 
L 501.684986 128.317239 
L 501.80743 128.509738 
L 501.929652 128.310716 
L 502.051653 128.499397 
L 502.173433 128.304671 
L 502.294992 128.488897 
L 502.416333 128.29958 
L 502.537455 128.477284 
L 502.658359 128.295125 
L 502.779047 128.465511 
L 502.899518 128.291148 
L 503.019774 128.45342 
L 503.139816 128.288762 
L 503.259644 128.441329 
L 503.379258 128.286693 
L 503.498661 128.428284 
L 503.617852 128.283671 
L 503.736832 128.415079 
L 503.855602 128.28033 
L 503.974163 128.401875 
L 504.092515 128.275875 
L 504.21066 128.389148 
L 504.328597 128.270466 
L 504.446328 128.375784 
L 504.563854 128.26458 
L 504.681174 128.361625 
L 504.79829 128.257739 
L 504.915203 128.346511 
L 505.031913 128.250103 
L 505.148421 128.330284 
L 505.264728 128.240875 
L 505.380833 128.314693 
L 505.496739 128.231012 
L 505.612445 128.299102 
L 505.727953 128.219398 
L 505.843263 128.28383 
L 505.958376 128.207307 
L 506.073292 128.269353 
L 506.188012 128.195057 
L 506.302536 128.255194 
L 506.531003 128.24183 
L 506.872254 128.162762 
L 507.211784 128.208103 
L 507.549608 128.139376 
L 507.885745 128.181217 
L 508.220211 128.118058 
L 508.553023 128.156717 
L 508.884196 128.097376 
L 509.213748 128.134126 
L 509.541693 128.066194 
L 509.868047 128.10883 
L 510.192827 128.027853 
L 510.300739 128.08958 
L 510.408478 128.014967 
L 510.516046 128.077967 
L 510.623441 128.003035 
L 510.730665 128.066512 
L 510.837719 127.991899 
L 510.944603 128.054103 
L 511.157862 128.04074 
L 511.476489 127.958967 
L 511.793614 127.999058 
L 512.109252 127.929376 
L 512.423416 127.956104 
L 512.736119 127.902808 
L 513.047376 127.918717 
L 513.56296 127.875604 
L 514.278202 127.871786 
L 515.486916 127.841718 
L 517.937416 127.746104 
L 519.271689 127.633786 
L 519.554194 127.65415 
L 519.835519 127.591787 
L 520.115671 127.629173 
L 520.394663 127.560605 
L 520.672502 127.608332 
L 520.949198 127.535787 
L 521.224761 127.590355 
L 521.499201 127.51765 
L 521.772525 127.563468 
L 522.044744 127.498082 
L 522.315866 127.532287 
L 522.585899 127.480582 
L 522.854853 127.505878 
L 523.122737 127.462923 
L 523.389558 127.48456 
L 523.655325 127.441287 
L 523.920046 127.468492 
L 524.18373 127.423787 
L 524.446385 127.451787 
L 524.708018 127.409628 
L 524.968638 127.440492 
L 525.228252 127.400083 
L 525.486868 127.431423 
L 525.744495 127.39006 
L 526.001138 127.422355 
L 526.256806 127.378605 
L 526.511507 127.421401 
L 526.765247 127.366196 
L 527.018033 127.429833 
L 527.102085 127.355696 
L 527.186031 127.433333 
L 527.269874 127.351242 
L 527.353611 127.436514 
L 527.437245 127.347583 
L 527.520775 127.43906 
L 527.604201 127.345196 
L 527.687524 127.440969 
L 527.770744 127.342969 
L 527.853861 127.441446 
L 527.936876 127.341378 
L 528.019788 127.441446 
L 528.102598 127.340106 
L 528.185306 127.439855 
L 528.267913 127.337401 
L 528.350419 127.43731 
L 528.432823 127.334378 
L 528.515127 127.433333 
L 528.59733 127.330878 
L 528.679433 127.42856 
L 528.761436 127.327378 
L 528.843339 127.423151 
L 528.925142 127.324356 
L 529.006846 127.417105 
L 529.088451 127.321492 
L 529.169957 127.409787 
L 529.251365 127.318947 
L 529.332674 127.401833 
L 529.413885 127.317356 
L 529.494998 127.393878 
L 529.656931 127.385924 
L 529.899103 127.319742 
L 530.140406 127.361901 
L 530.380847 127.329447 
L 530.859166 127.335333 
L 531.570329 127.286174 
L 531.805722 127.335651 
L 532.040295 127.262629 
L 532.274053 127.325787 
L 532.507002 127.24656 
L 532.739147 127.310356 
L 532.970494 127.240515 
L 533.201048 127.288878 
L 533.430814 127.244174 
L 533.735954 127.255788 
L 536.128501 127.331515 
L 536.201914 127.214424 
L 536.275247 127.328015 
L 536.348501 127.215061 
L 536.421675 127.324674 
L 536.494769 127.215061 
L 536.567784 127.320378 
L 536.64072 127.214106 
L 536.713576 127.315606 
L 536.786354 127.213151 
L 536.859054 127.310356 
L 536.931675 127.21172 
L 537.004217 127.305265 
L 537.076682 127.210288 
L 537.149068 127.299219 
L 537.365762 127.204879 
L 537.437838 127.28331 
L 537.509838 127.200106 
L 537.725374 127.264697 
L 537.940222 127.179106 
L 538.154387 127.23797 
L 538.367872 127.159856 
L 538.580681 127.217924 
L 538.79282 127.148083 
L 539.004292 127.208379 
L 539.215102 127.138697 
L 539.425253 127.205197 
L 539.634749 127.126606 
L 539.843595 127.204561 
L 540.051796 127.111334 
L 540.121053 127.205197 
L 540.190239 127.105606 
L 540.259353 127.20647 
L 540.328397 127.099561 
L 540.39737 127.208379 
L 540.466273 127.093038 
L 540.535105 127.210288 
L 540.603867 127.086197 
L 540.672558 127.213311 
L 540.741179 127.07872 
L 540.809731 127.216333 
L 540.878213 127.072197 
L 540.946625 127.219197 
L 541.014967 127.066629 
L 541.083241 127.221424 
L 541.151445 127.062652 
L 541.21958 127.222697 
L 541.287646 127.059152 
L 541.355643 127.222856 
L 541.423571 127.05597 
L 541.491432 127.222061 
L 541.559223 127.053266 
L 541.626947 127.220788 
L 541.694602 127.051038 
L 541.76219 127.219197 
L 541.829709 127.050243 
L 541.897161 127.217129 
L 541.964545 127.051038 
L 541.964545 127.051038 
" clip-path="url(#p0bac2aa5b2)" style="fill: none; stroke: #1f77b4; stroke-width: 1.5; stroke-linecap: square"/>
    <defs>
     <path id="mb643c388b9" d="M -0 3 
L 3 -3 
L -3 -3 
z
" style="stroke: #1f77b4; stroke-linejoin: miter"/>
    </defs>
    <g clip-path="url(#p0bac2aa5b2)">
     <use xlink:href="#mb643c388b9" x="-1" y="296.324955" style="fill: #1f77b4; stroke: #1f77b4; stroke-linejoin: miter"/>
     <use xlink:href="#mb643c388b9" x="77.255455" y="296.322267" style="fill: #1f77b4; stroke: #1f77b4; stroke-linejoin: miter"/>
     <use xlink:href="#mb643c388b9" x="151.173689" y="278.706824" style="fill: #1f77b4; stroke: #1f77b4; stroke-linejoin: miter"/>
     <use xlink:href="#mb643c388b9" x="197.810902" y="258.775501" style="fill: #1f77b4; stroke: #1f77b4; stroke-linejoin: miter"/>
     <use xlink:href="#mb643c388b9" x="249.833651" y="229.197256" style="fill: #1f77b4; stroke: #1f77b4; stroke-linejoin: miter"/>
     <use xlink:href="#mb643c388b9" x="299.010157" y="199.168147" style="fill: #1f77b4; stroke: #1f77b4; stroke-linejoin: miter"/>
     <use xlink:href="#mb643c388b9" x="350.455364" y="171.16601" style="fill: #1f77b4; stroke: #1f77b4; stroke-linejoin: miter"/>
     <use xlink:href="#mb643c388b9" x="404.239556" y="147.99863" style="fill: #1f77b4; stroke: #1f77b4; stroke-linejoin: miter"/>
     <use xlink:href="#mb643c388b9" x="460.121483" y="132.969042" style="fill: #1f77b4; stroke: #1f77b4; stroke-linejoin: miter"/>
     <use xlink:href="#mb643c388b9" x="510.192827" y="128.027853" style="fill: #1f77b4; stroke: #1f77b4; stroke-linejoin: miter"/>
    </g>
   </g>
   <g id="line2d_4">
    <path d="M -1 296.324955 
L 77.255455 296.322267 
L 123.892668 291.345919 
L 151.173689 265.582184 
L 170.529881 256.540281 
L 185.54371 238.80727 
L 197.810902 230.667728 
L 217.167095 216.689568 
L 225.091923 211.039632 
L 232.180924 204.939788 
L 238.593705 199.707623 
L 244.448116 195.645886 
L 249.833651 191.475331 
L 254.819878 187.908047 
L 263.804308 181.737885 
L 271.729136 176.034495 
L 299.010157 158.052825 
L 306.099158 153.744339 
L 312.511939 150.07301 
L 320.209843 146.787634 
L 325.455351 144.722322 
L 328.738113 143.587531 
L 333.380179 142.245603 
L 336.306 141.564378 
L 339.109875 141.114789 
L 341.801565 140.91688 
L 397.092577 139.205704 
L 419.979657 138.190071 
L 444.307333 136.875029 
L 469.049061 135.310216 
L 541.964545 130.424391 
L 541.964545 130.424391 
" clip-path="url(#p0bac2aa5b2)" style="fill: none; stroke: #ff7f0e; stroke-width: 1.5; stroke-linecap: square"/>
    <defs>
     <path id="mb9cb716663" d="M -0 3 
L 3 -3 
L -3 -3 
z
" style="stroke: #ff7f0e; stroke-linejoin: miter"/>
    </defs>
    <g clip-path="url(#p0bac2aa5b2)">
     <use xlink:href="#mb9cb716663" x="-1" y="296.324955" style="fill: #ff7f0e; stroke: #ff7f0e; stroke-linejoin: miter"/>
     <use xlink:href="#mb9cb716663" x="77.255455" y="296.322267" style="fill: #ff7f0e; stroke: #ff7f0e; stroke-linejoin: miter"/>
     <use xlink:href="#mb9cb716663" x="151.173689" y="265.582184" style="fill: #ff7f0e; stroke: #ff7f0e; stroke-linejoin: miter"/>
     <use xlink:href="#mb9cb716663" x="185.54371" y="238.80727" style="fill: #ff7f0e; stroke: #ff7f0e; stroke-linejoin: miter"/>
     <use xlink:href="#mb9cb716663" x="232.180924" y="204.939788" style="fill: #ff7f0e; stroke: #ff7f0e; stroke-linejoin: miter"/>
     <use xlink:href="#mb9cb716663" x="278.818137" y="171.316351" style="fill: #ff7f0e; stroke: #ff7f0e; stroke-linejoin: miter"/>
     <use xlink:href="#mb9cb716663" x="330.321322" y="143.101669" style="fill: #ff7f0e; stroke: #ff7f0e; stroke-linejoin: miter"/>
     <use xlink:href="#mb9cb716663" x="388.438779" y="139.536294" style="fill: #ff7f0e; stroke: #ff7f0e; stroke-linejoin: miter"/>
     <use xlink:href="#mb9cb716663" x="446.846626" y="136.724371" style="fill: #ff7f0e; stroke: #ff7f0e; stroke-linejoin: miter"/>
     <use xlink:href="#mb9cb716663" x="505.496739" y="132.767952" style="fill: #ff7f0e; stroke: #ff7f0e; stroke-linejoin: miter"/>
    </g>
   </g>
   <g id="line2d_5">
    <path d="M -1 296.324955 
L 77.255455 296.322267 
L 123.892668 291.345919 
L 151.173689 265.582184 
L 170.529881 256.540281 
L 185.54371 238.803929 
L 197.810902 231.049863 
L 208.182665 223.362615 
L 217.167095 216.999636 
L 225.091923 211.864516 
L 232.180924 205.488014 
L 244.448116 196.383906 
L 254.819878 188.813272 
L 263.804308 182.711041 
L 271.729136 177.048378 
L 278.818137 172.386711 
L 285.230918 168.258633 
L 301.457092 157.385918 
L 310.441521 151.994663 
L 312.511939 150.863212 
L 320.209843 147.490177 
L 330.321322 143.677576 
L 336.306 141.761173 
L 341.801565 140.2522 
L 345.647371 139.492067 
L 348.094305 139.213499 
L 351.605533 139.074613 
L 382.223599 138.412479 
L 411.171902 137.568664 
L 436.382505 136.621917 
L 462.136773 135.433034 
L 496.06414 133.557358 
L 541.964545 130.868094 
L 541.964545 130.868094 
" clip-path="url(#p0bac2aa5b2)" style="fill: none; stroke: #2ca02c; stroke-width: 1.5; stroke-linecap: square"/>
    <defs>
     <path id="mbd15c1f89e" d="M -0 3 
L 3 -3 
L -3 -3 
z
" style="stroke: #2ca02c; stroke-linejoin: miter"/>
    </defs>
    <g clip-path="url(#p0bac2aa5b2)">
     <use xlink:href="#mbd15c1f89e" x="-1" y="296.324955" style="fill: #2ca02c; stroke: #2ca02c; stroke-linejoin: miter"/>
     <use xlink:href="#mbd15c1f89e" x="77.255455" y="296.322267" style="fill: #2ca02c; stroke: #2ca02c; stroke-linejoin: miter"/>
     <use xlink:href="#mbd15c1f89e" x="151.173689" y="265.582184" style="fill: #2ca02c; stroke: #2ca02c; stroke-linejoin: miter"/>
     <use xlink:href="#mbd15c1f89e" x="185.54371" y="238.803929" style="fill: #2ca02c; stroke: #2ca02c; stroke-linejoin: miter"/>
     <use xlink:href="#mbd15c1f89e" x="232.180924" y="205.488014" style="fill: #2ca02c; stroke: #2ca02c; stroke-linejoin: miter"/>
     <use xlink:href="#mbd15c1f89e" x="278.818137" y="172.386711" style="fill: #2ca02c; stroke: #2ca02c; stroke-linejoin: miter"/>
     <use xlink:href="#mbd15c1f89e" x="330.321322" y="143.677576" style="fill: #2ca02c; stroke: #2ca02c; stroke-linejoin: miter"/>
     <use xlink:href="#mbd15c1f89e" x="388.438779" y="138.251161" style="fill: #2ca02c; stroke: #2ca02c; stroke-linejoin: miter"/>
     <use xlink:href="#mbd15c1f89e" x="447.122944" y="136.153714" style="fill: #2ca02c; stroke: #2ca02c; stroke-linejoin: miter"/>
     <use xlink:href="#mbd15c1f89e" x="505.612445" y="132.991156" style="fill: #2ca02c; stroke: #2ca02c; stroke-linejoin: miter"/>
    </g>
   </g>
   <g id="line2d_6">
    <path d="M -1 296.324955 
L 77.255455 296.322267 
L 123.892668 291.345919 
L 151.173689 265.582184 
L 170.529881 256.540281 
L 185.54371 238.803929 
L 197.810902 230.999272 
L 208.182665 223.35307 
L 217.167095 217.605134 
L 225.091923 211.910652 
L 232.180924 205.206424 
L 238.593705 200.429893 
L 244.448116 195.852545 
L 249.833651 192.045989 
L 254.819878 188.338864 
L 263.804308 182.358497 
L 271.729136 176.952605 
L 275.366956 174.577227 
L 285.230918 168.511428 
L 293.831966 163.018195 
L 301.457092 158.334256 
L 308.305365 154.391519 
L 314.520544 151.123484 
L 320.209843 148.499128 
L 327.11675 145.692933 
L 331.868132 143.983188 
L 339.109875 141.676378 
L 345.647371 139.876429 
L 349.285191 139.117886 
L 352.736371 138.625024 
L 356.019134 138.39482 
L 366.847056 138.20073 
L 400.48573 137.499141 
L 428.133419 136.716894 
L 455.170217 135.734033 
L 478.677355 134.688968 
L 509.432555 133.101087 
L 541.964545 131.31307 
L 541.964545 131.31307 
" clip-path="url(#p0bac2aa5b2)" style="fill: none; stroke: #d62728; stroke-width: 1.5; stroke-linecap: square"/>
    <defs>
     <path id="m1ce7ae2886" d="M -0 3 
L 3 -3 
L -3 -3 
z
" style="stroke: #d62728; stroke-linejoin: miter"/>
    </defs>
    <g clip-path="url(#p0bac2aa5b2)">
     <use xlink:href="#m1ce7ae2886" x="-1" y="296.324955" style="fill: #d62728; stroke: #d62728; stroke-linejoin: miter"/>
     <use xlink:href="#m1ce7ae2886" x="77.255455" y="296.322267" style="fill: #d62728; stroke: #d62728; stroke-linejoin: miter"/>
     <use xlink:href="#m1ce7ae2886" x="151.173689" y="265.582184" style="fill: #d62728; stroke: #d62728; stroke-linejoin: miter"/>
     <use xlink:href="#m1ce7ae2886" x="185.54371" y="238.803929" style="fill: #d62728; stroke: #d62728; stroke-linejoin: miter"/>
     <use xlink:href="#m1ce7ae2886" x="232.180924" y="205.206424" style="fill: #d62728; stroke: #d62728; stroke-linejoin: miter"/>
     <use xlink:href="#m1ce7ae2886" x="278.818137" y="172.467211" style="fill: #d62728; stroke: #d62728; stroke-linejoin: miter"/>
     <use xlink:href="#m1ce7ae2886" x="330.321322" y="144.514232" style="fill: #d62728; stroke: #d62728; stroke-linejoin: miter"/>
     <use xlink:href="#m1ce7ae2886" x="388.438779" y="137.778504" style="fill: #d62728; stroke: #d62728; stroke-linejoin: miter"/>
     <use xlink:href="#m1ce7ae2886" x="447.122944" y="136.050782" style="fill: #d62728; stroke: #d62728; stroke-linejoin: miter"/>
     <use xlink:href="#m1ce7ae2886" x="505.843263" y="133.295496" style="fill: #d62728; stroke: #d62728; stroke-linejoin: miter"/>
    </g>
   </g>
   <g id="line2d_7">
    <path d="M -1 272.154793 
L 77.255455 272.13989 
L 123.892668 250.536687 
L 151.173689 229.47455 
L 170.529881 211.75363 
L 185.54371 163.569762 
L 197.810902 153.615953 
L 208.182665 141.458106 
L 217.167095 137.145006 
L 225.091923 118.068476 
L 232.180924 113.735649 
L 238.593705 105.687425 
L 244.448116 98.116154 
L 254.819878 95.183163 
L 259.461945 88.474321 
L 263.804308 86.149692 
L 267.883331 82.859703 
L 275.366956 78.661148 
L 278.818137 75.919225 
L 282.100899 75.289386 
L 285.230918 71.066173 
L 288.221779 69.770222 
L 291.085329 67.444639 
L 293.831966 67.064254 
L 296.470865 64.491603 
L 299.010157 63.628538 
L 301.457092 62.281201 
L 303.818151 61.112682 
L 306.099158 60.967273 
L 308.305365 59.536255 
L 312.511939 59.088257 
L 314.520544 58.480531 
L 318.36635 56.956286 
L 323.751885 55.108292 
L 327.11675 53.971432 
L 328.738113 53.506729 
L 330.321322 53.384866 
L 331.868132 52.433983 
L 333.380179 52.058847 
L 336.306 51.752598 
L 341.801565 51.454145 
L 349.285191 51.199759 
L 352.736371 50.987851 
L 357.078735 50.932806 
L 359.149153 50.78517 
L 365.003563 50.466194 
L 366.847056 50.371853 
L 372.092564 50.101717 
L 373.753964 50.01549 
L 392.904711 49.164039 
L 394.731518 49.016403 
L 416.593621 47.819088 
L 417.456239 47.770089 
L 429.221582 47.059591 
L 432.040141 46.821751 
L 432.726711 46.782774 
L 460.57457 44.501258 
L 462.357013 44.284418 
L 463.878832 44.202327 
L 464.94515 44.1301 
L 475.678652 43.422148 
L 476.396347 43.386194 
L 477.983707 43.288989 
L 478.849655 43.23633 
L 485.403082 42.848468 
L 486.33328 42.795809 
L 489.93057 42.607923 
L 495.124976 42.263652 
L 518.51249 40.968497 
L 529.494998 40.440158 
L 531.017853 40.374612 
L 541.964545 39.964 
L 541.964545 39.964 
" clip-path="url(#p0bac2aa5b2)" style="fill: none; stroke: #ff0000; stroke-width: 1.5; stroke-linecap: square"/>
   </g>
   <g id="matplotlib.axis_1">
    <g id="xtick_1">
     <g id="line2d_8">
      <path d="M 77.255455 314.728 
L 77.255455 26.88 
" clip-path="url(#p0bac2aa5b2)" style="fill: none; stroke: #b0b0b0; stroke-opacity: 0.3; stroke-width: 0.8; stroke-linecap: square"/>
     </g>
     <g id="line2d_9">
      <defs>
       <path id="m979c9d0a42" d="M 0 0 
L 0 3.5 
" style="stroke: #000000; stroke-width: 0.8"/>
      </defs>
      <g>
       <use xlink:href="#m979c9d0a42" x="77.255455" y="314.728" style="stroke: #000000; stroke-width: 0.8"/>
      </g>
     </g>
     <g id="text_1">
      <!-- $\mathdefault{10^{0}}$ -->
      <g transform="translate(68.455455 329.326437) scale(0.1 -0.1)">
       <defs>
        <path id="DejaVuSans-31" d="M 794 531 
L 1825 531 
L 1825 4091 
L 703 3866 
L 703 4441 
L 1819 4666 
L 2450 4666 
L 2450 531 
L 3481 531 
L 3481 0 
L 794 0 
L 794 531 
z
" transform="scale(0.015625)"/>
        <path id="DejaVuSans-30" d="M 2034 4250 
Q 1547 4250 1301 3770 
Q 1056 3291 1056 2328 
Q 1056 1369 1301 889 
Q 1547 409 2034 409 
Q 2525 409 2770 889 
Q 3016 1369 3016 2328 
Q 3016 3291 2770 3770 
Q 2525 4250 2034 4250 
z
M 2034 4750 
Q 2819 4750 3233 4129 
Q 3647 3509 3647 2328 
Q 3647 1150 3233 529 
Q 2819 -91 2034 -91 
Q 1250 -91 836 529 
Q 422 1150 422 2328 
Q 422 3509 836 4129 
Q 1250 4750 2034 4750 
z
" transform="scale(0.015625)"/>
       </defs>
       <use xlink:href="#DejaVuSans-31" transform="translate(0 0.765625)"/>
       <use xlink:href="#DejaVuSans-30" transform="translate(63.623047 0.765625)"/>
       <use xlink:href="#DejaVuSans-30" transform="translate(128.203125 39.046875) scale(0.7)"/>
      </g>
     </g>
    </g>
    <g id="xtick_2">
     <g id="line2d_10">
      <path d="M 232.180924 314.728 
L 232.180924 26.88 
" clip-path="url(#p0bac2aa5b2)" style="fill: none; stroke: #b0b0b0; stroke-opacity: 0.3; stroke-width: 0.8; stroke-linecap: square"/>
     </g>
     <g id="line2d_11">
      <g>
       <use xlink:href="#m979c9d0a42" x="232.180924" y="314.728" style="stroke: #000000; stroke-width: 0.8"/>
      </g>
     </g>
     <g id="text_2">
      <!-- $\mathdefault{10^{1}}$ -->
      <g transform="translate(223.380924 329.326437) scale(0.1 -0.1)">
       <use xlink:href="#DejaVuSans-31" transform="translate(0 0.684375)"/>
       <use xlink:href="#DejaVuSans-30" transform="translate(63.623047 0.684375)"/>
       <use xlink:href="#DejaVuSans-31" transform="translate(128.203125 38.965625) scale(0.7)"/>
      </g>
     </g>
    </g>
    <g id="xtick_3">
     <g id="line2d_12">
      <path d="M 387.106393 314.728 
L 387.106393 26.88 
" clip-path="url(#p0bac2aa5b2)" style="fill: none; stroke: #b0b0b0; stroke-opacity: 0.3; stroke-width: 0.8; stroke-linecap: square"/>
     </g>
     <g id="line2d_13">
      <g>
       <use xlink:href="#m979c9d0a42" x="387.106393" y="314.728" style="stroke: #000000; stroke-width: 0.8"/>
      </g>
     </g>
     <g id="text_3">
      <!-- $\mathdefault{10^{2}}$ -->
      <g transform="translate(378.306393 329.326437) scale(0.1 -0.1)">
       <defs>
        <path id="DejaVuSans-32" d="M 1228 531 
L 3431 531 
L 3431 0 
L 469 0 
L 469 531 
Q 828 903 1448 1529 
Q 2069 2156 2228 2338 
Q 2531 2678 2651 2914 
Q 2772 3150 2772 3378 
Q 2772 3750 2511 3984 
Q 2250 4219 1831 4219 
Q 1534 4219 1204 4116 
Q 875 4013 500 3803 
L 500 4441 
Q 881 4594 1212 4672 
Q 1544 4750 1819 4750 
Q 2544 4750 2975 4387 
Q 3406 4025 3406 3419 
Q 3406 3131 3298 2873 
Q 3191 2616 2906 2266 
Q 2828 2175 2409 1742 
Q 1991 1309 1228 531 
z
" transform="scale(0.015625)"/>
       </defs>
       <use xlink:href="#DejaVuSans-31" transform="translate(0 0.765625)"/>
       <use xlink:href="#DejaVuSans-30" transform="translate(63.623047 0.765625)"/>
       <use xlink:href="#DejaVuSans-32" transform="translate(128.203125 39.046875) scale(0.7)"/>
      </g>
     </g>
    </g>
    <g id="xtick_4">
     <g id="line2d_14">
      <path d="M 542.031862 314.728 
L 542.031862 26.88 
" clip-path="url(#p0bac2aa5b2)" style="fill: none; stroke: #b0b0b0; stroke-opacity: 0.3; stroke-width: 0.8; stroke-linecap: square"/>
     </g>
     <g id="line2d_15">
      <g>
       <use xlink:href="#m979c9d0a42" x="542.031862" y="314.728" style="stroke: #000000; stroke-width: 0.8"/>
      </g>
     </g>
     <g id="text_4">
      <!-- $\mathdefault{10^{3}}$ -->
      <g transform="translate(533.231862 329.326437) scale(0.1 -0.1)">
       <defs>
        <path id="DejaVuSans-33" d="M 2597 2516 
Q 3050 2419 3304 2112 
Q 3559 1806 3559 1356 
Q 3559 666 3084 287 
Q 2609 -91 1734 -91 
Q 1441 -91 1130 -33 
Q 819 25 488 141 
L 488 750 
Q 750 597 1062 519 
Q 1375 441 1716 441 
Q 2309 441 2620 675 
Q 2931 909 2931 1356 
Q 2931 1769 2642 2001 
Q 2353 2234 1838 2234 
L 1294 2234 
L 1294 2753 
L 1863 2753 
Q 2328 2753 2575 2939 
Q 2822 3125 2822 3475 
Q 2822 3834 2567 4026 
Q 2313 4219 1838 4219 
Q 1578 4219 1281 4162 
Q 984 4106 628 3988 
L 628 4550 
Q 988 4650 1302 4700 
Q 1616 4750 1894 4750 
Q 2613 4750 3031 4423 
Q 3450 4097 3450 3541 
Q 3450 3153 3228 2886 
Q 3006 2619 2597 2516 
z
" transform="scale(0.015625)"/>
       </defs>
       <use xlink:href="#DejaVuSans-31" transform="translate(0 0.765625)"/>
       <use xlink:href="#DejaVuSans-30" transform="translate(63.623047 0.765625)"/>
       <use xlink:href="#DejaVuSans-33" transform="translate(128.203125 39.046875) scale(0.7)"/>
      </g>
     </g>
    </g>
    <g id="xtick_5">
     <g id="line2d_16">
      <path d="M 62.241625 314.728 
L 62.241625 26.88 
" clip-path="url(#p0bac2aa5b2)" style="fill: none; stroke: #b0b0b0; stroke-opacity: 0.3; stroke-width: 0.8; stroke-linecap: square"/>
     </g>
     <g id="line2d_17">
      <defs>
       <path id="m60745ca22c" d="M 0 0 
L 0 2 
" style="stroke: #000000; stroke-width: 0.6"/>
      </defs>
      <g>
       <use xlink:href="#m60745ca22c" x="62.241625" y="314.728" style="stroke: #000000; stroke-width: 0.6"/>
      </g>
     </g>
    </g>
    <g id="xtick_6">
     <g id="line2d_18">
      <path d="M 70.166454 314.728 
L 70.166454 26.88 
" clip-path="url(#p0bac2aa5b2)" style="fill: none; stroke: #b0b0b0; stroke-opacity: 0.3; stroke-width: 0.8; stroke-linecap: square"/>
     </g>
     <g id="line2d_19">
      <g>
       <use xlink:href="#m60745ca22c" x="70.166454" y="314.728" style="stroke: #000000; stroke-width: 0.6"/>
      </g>
     </g>
    </g>
    <g id="xtick_7">
     <g id="line2d_20">
      <path d="M 123.892668 314.728 
L 123.892668 26.88 
" clip-path="url(#p0bac2aa5b2)" style="fill: none; stroke: #b0b0b0; stroke-opacity: 0.3; stroke-width: 0.8; stroke-linecap: square"/>
     </g>
     <g id="line2d_21">
      <g>
       <use xlink:href="#m60745ca22c" x="123.892668" y="314.728" style="stroke: #000000; stroke-width: 0.6"/>
      </g>
     </g>
    </g>
    <g id="xtick_8">
     <g id="line2d_22">
      <path d="M 151.173689 314.728 
L 151.173689 26.88 
" clip-path="url(#p0bac2aa5b2)" style="fill: none; stroke: #b0b0b0; stroke-opacity: 0.3; stroke-width: 0.8; stroke-linecap: square"/>
     </g>
     <g id="line2d_23">
      <g>
       <use xlink:href="#m60745ca22c" x="151.173689" y="314.728" style="stroke: #000000; stroke-width: 0.6"/>
      </g>
     </g>
    </g>
    <g id="xtick_9">
     <g id="line2d_24">
      <path d="M 170.529881 314.728 
L 170.529881 26.88 
" clip-path="url(#p0bac2aa5b2)" style="fill: none; stroke: #b0b0b0; stroke-opacity: 0.3; stroke-width: 0.8; stroke-linecap: square"/>
     </g>
     <g id="line2d_25">
      <g>
       <use xlink:href="#m60745ca22c" x="170.529881" y="314.728" style="stroke: #000000; stroke-width: 0.6"/>
      </g>
     </g>
    </g>
    <g id="xtick_10">
     <g id="line2d_26">
      <path d="M 185.54371 314.728 
L 185.54371 26.88 
" clip-path="url(#p0bac2aa5b2)" style="fill: none; stroke: #b0b0b0; stroke-opacity: 0.3; stroke-width: 0.8; stroke-linecap: square"/>
     </g>
     <g id="line2d_27">
      <g>
       <use xlink:href="#m60745ca22c" x="185.54371" y="314.728" style="stroke: #000000; stroke-width: 0.6"/>
      </g>
     </g>
    </g>
    <g id="xtick_11">
     <g id="line2d_28">
      <path d="M 197.810902 314.728 
L 197.810902 26.88 
" clip-path="url(#p0bac2aa5b2)" style="fill: none; stroke: #b0b0b0; stroke-opacity: 0.3; stroke-width: 0.8; stroke-linecap: square"/>
     </g>
     <g id="line2d_29">
      <g>
       <use xlink:href="#m60745ca22c" x="197.810902" y="314.728" style="stroke: #000000; stroke-width: 0.6"/>
      </g>
     </g>
    </g>
    <g id="xtick_12">
     <g id="line2d_30">
      <path d="M 208.182665 314.728 
L 208.182665 26.88 
" clip-path="url(#p0bac2aa5b2)" style="fill: none; stroke: #b0b0b0; stroke-opacity: 0.3; stroke-width: 0.8; stroke-linecap: square"/>
     </g>
     <g id="line2d_31">
      <g>
       <use xlink:href="#m60745ca22c" x="208.182665" y="314.728" style="stroke: #000000; stroke-width: 0.6"/>
      </g>
     </g>
    </g>
    <g id="xtick_13">
     <g id="line2d_32">
      <path d="M 217.167095 314.728 
L 217.167095 26.88 
" clip-path="url(#p0bac2aa5b2)" style="fill: none; stroke: #b0b0b0; stroke-opacity: 0.3; stroke-width: 0.8; stroke-linecap: square"/>
     </g>
     <g id="line2d_33">
      <g>
       <use xlink:href="#m60745ca22c" x="217.167095" y="314.728" style="stroke: #000000; stroke-width: 0.6"/>
      </g>
     </g>
    </g>
    <g id="xtick_14">
     <g id="line2d_34">
      <path d="M 225.091923 314.728 
L 225.091923 26.88 
" clip-path="url(#p0bac2aa5b2)" style="fill: none; stroke: #b0b0b0; stroke-opacity: 0.3; stroke-width: 0.8; stroke-linecap: square"/>
     </g>
     <g id="line2d_35">
      <g>
       <use xlink:href="#m60745ca22c" x="225.091923" y="314.728" style="stroke: #000000; stroke-width: 0.6"/>
      </g>
     </g>
    </g>
    <g id="xtick_15">
     <g id="line2d_36">
      <path d="M 278.818137 314.728 
L 278.818137 26.88 
" clip-path="url(#p0bac2aa5b2)" style="fill: none; stroke: #b0b0b0; stroke-opacity: 0.3; stroke-width: 0.8; stroke-linecap: square"/>
     </g>
     <g id="line2d_37">
      <g>
       <use xlink:href="#m60745ca22c" x="278.818137" y="314.728" style="stroke: #000000; stroke-width: 0.6"/>
      </g>
     </g>
    </g>
    <g id="xtick_16">
     <g id="line2d_38">
      <path d="M 306.099158 314.728 
L 306.099158 26.88 
" clip-path="url(#p0bac2aa5b2)" style="fill: none; stroke: #b0b0b0; stroke-opacity: 0.3; stroke-width: 0.8; stroke-linecap: square"/>
     </g>
     <g id="line2d_39">
      <g>
       <use xlink:href="#m60745ca22c" x="306.099158" y="314.728" style="stroke: #000000; stroke-width: 0.6"/>
      </g>
     </g>
    </g>
    <g id="xtick_17">
     <g id="line2d_40">
      <path d="M 325.455351 314.728 
L 325.455351 26.88 
" clip-path="url(#p0bac2aa5b2)" style="fill: none; stroke: #b0b0b0; stroke-opacity: 0.3; stroke-width: 0.8; stroke-linecap: square"/>
     </g>
     <g id="line2d_41">
      <g>
       <use xlink:href="#m60745ca22c" x="325.455351" y="314.728" style="stroke: #000000; stroke-width: 0.6"/>
      </g>
     </g>
    </g>
    <g id="xtick_18">
     <g id="line2d_42">
      <path d="M 340.46918 314.728 
L 340.46918 26.88 
" clip-path="url(#p0bac2aa5b2)" style="fill: none; stroke: #b0b0b0; stroke-opacity: 0.3; stroke-width: 0.8; stroke-linecap: square"/>
     </g>
     <g id="line2d_43">
      <g>
       <use xlink:href="#m60745ca22c" x="340.46918" y="314.728" style="stroke: #000000; stroke-width: 0.6"/>
      </g>
     </g>
    </g>
    <g id="xtick_19">
     <g id="line2d_44">
      <path d="M 352.736371 314.728 
L 352.736371 26.88 
" clip-path="url(#p0bac2aa5b2)" style="fill: none; stroke: #b0b0b0; stroke-opacity: 0.3; stroke-width: 0.8; stroke-linecap: square"/>
     </g>
     <g id="line2d_45">
      <g>
       <use xlink:href="#m60745ca22c" x="352.736371" y="314.728" style="stroke: #000000; stroke-width: 0.6"/>
      </g>
     </g>
    </g>
    <g id="xtick_20">
     <g id="line2d_46">
      <path d="M 363.108134 314.728 
L 363.108134 26.88 
" clip-path="url(#p0bac2aa5b2)" style="fill: none; stroke: #b0b0b0; stroke-opacity: 0.3; stroke-width: 0.8; stroke-linecap: square"/>
     </g>
     <g id="line2d_47">
      <g>
       <use xlink:href="#m60745ca22c" x="363.108134" y="314.728" style="stroke: #000000; stroke-width: 0.6"/>
      </g>
     </g>
    </g>
    <g id="xtick_21">
     <g id="line2d_48">
      <path d="M 372.092564 314.728 
L 372.092564 26.88 
" clip-path="url(#p0bac2aa5b2)" style="fill: none; stroke: #b0b0b0; stroke-opacity: 0.3; stroke-width: 0.8; stroke-linecap: square"/>
     </g>
     <g id="line2d_49">
      <g>
       <use xlink:href="#m60745ca22c" x="372.092564" y="314.728" style="stroke: #000000; stroke-width: 0.6"/>
      </g>
     </g>
    </g>
    <g id="xtick_22">
     <g id="line2d_50">
      <path d="M 380.017392 314.728 
L 380.017392 26.88 
" clip-path="url(#p0bac2aa5b2)" style="fill: none; stroke: #b0b0b0; stroke-opacity: 0.3; stroke-width: 0.8; stroke-linecap: square"/>
     </g>
     <g id="line2d_51">
      <g>
       <use xlink:href="#m60745ca22c" x="380.017392" y="314.728" style="stroke: #000000; stroke-width: 0.6"/>
      </g>
     </g>
    </g>
    <g id="xtick_23">
     <g id="line2d_52">
      <path d="M 433.743606 314.728 
L 433.743606 26.88 
" clip-path="url(#p0bac2aa5b2)" style="fill: none; stroke: #b0b0b0; stroke-opacity: 0.3; stroke-width: 0.8; stroke-linecap: square"/>
     </g>
     <g id="line2d_53">
      <g>
       <use xlink:href="#m60745ca22c" x="433.743606" y="314.728" style="stroke: #000000; stroke-width: 0.6"/>
      </g>
     </g>
    </g>
    <g id="xtick_24">
     <g id="line2d_54">
      <path d="M 461.024627 314.728 
L 461.024627 26.88 
" clip-path="url(#p0bac2aa5b2)" style="fill: none; stroke: #b0b0b0; stroke-opacity: 0.3; stroke-width: 0.8; stroke-linecap: square"/>
     </g>
     <g id="line2d_55">
      <g>
       <use xlink:href="#m60745ca22c" x="461.024627" y="314.728" style="stroke: #000000; stroke-width: 0.6"/>
      </g>
     </g>
    </g>
    <g id="xtick_25">
     <g id="line2d_56">
      <path d="M 480.38082 314.728 
L 480.38082 26.88 
" clip-path="url(#p0bac2aa5b2)" style="fill: none; stroke: #b0b0b0; stroke-opacity: 0.3; stroke-width: 0.8; stroke-linecap: square"/>
     </g>
     <g id="line2d_57">
      <g>
       <use xlink:href="#m60745ca22c" x="480.38082" y="314.728" style="stroke: #000000; stroke-width: 0.6"/>
      </g>
     </g>
    </g>
    <g id="xtick_26">
     <g id="line2d_58">
      <path d="M 495.394649 314.728 
L 495.394649 26.88 
" clip-path="url(#p0bac2aa5b2)" style="fill: none; stroke: #b0b0b0; stroke-opacity: 0.3; stroke-width: 0.8; stroke-linecap: square"/>
     </g>
     <g id="line2d_59">
      <g>
       <use xlink:href="#m60745ca22c" x="495.394649" y="314.728" style="stroke: #000000; stroke-width: 0.6"/>
      </g>
     </g>
    </g>
    <g id="xtick_27">
     <g id="line2d_60">
      <path d="M 507.661841 314.728 
L 507.661841 26.88 
" clip-path="url(#p0bac2aa5b2)" style="fill: none; stroke: #b0b0b0; stroke-opacity: 0.3; stroke-width: 0.8; stroke-linecap: square"/>
     </g>
     <g id="line2d_61">
      <g>
       <use xlink:href="#m60745ca22c" x="507.661841" y="314.728" style="stroke: #000000; stroke-width: 0.6"/>
      </g>
     </g>
    </g>
    <g id="xtick_28">
     <g id="line2d_62">
      <path d="M 518.033604 314.728 
L 518.033604 26.88 
" clip-path="url(#p0bac2aa5b2)" style="fill: none; stroke: #b0b0b0; stroke-opacity: 0.3; stroke-width: 0.8; stroke-linecap: square"/>
     </g>
     <g id="line2d_63">
      <g>
       <use xlink:href="#m60745ca22c" x="518.033604" y="314.728" style="stroke: #000000; stroke-width: 0.6"/>
      </g>
     </g>
    </g>
    <g id="xtick_29">
     <g id="line2d_64">
      <path d="M 527.018033 314.728 
L 527.018033 26.88 
" clip-path="url(#p0bac2aa5b2)" style="fill: none; stroke: #b0b0b0; stroke-opacity: 0.3; stroke-width: 0.8; stroke-linecap: square"/>
     </g>
     <g id="line2d_65">
      <g>
       <use xlink:href="#m60745ca22c" x="527.018033" y="314.728" style="stroke: #000000; stroke-width: 0.6"/>
      </g>
     </g>
    </g>
    <g id="xtick_30">
     <g id="line2d_66">
      <path d="M 534.942862 314.728 
L 534.942862 26.88 
" clip-path="url(#p0bac2aa5b2)" style="fill: none; stroke: #b0b0b0; stroke-opacity: 0.3; stroke-width: 0.8; stroke-linecap: square"/>
     </g>
     <g id="line2d_67">
      <g>
       <use xlink:href="#m60745ca22c" x="534.942862" y="314.728" style="stroke: #000000; stroke-width: 0.6"/>
      </g>
     </g>
    </g>
    <g id="text_5">
     <!-- Iteration (Log Scale) -->
     <g transform="translate(258.936563 343.004562) scale(0.1 -0.1)">
      <defs>
       <path id="DejaVuSans-49" d="M 628 4666 
L 1259 4666 
L 1259 0 
L 628 0 
L 628 4666 
z
" transform="scale(0.015625)"/>
       <path id="DejaVuSans-74" d="M 1172 4494 
L 1172 3500 
L 2356 3500 
L 2356 3053 
L 1172 3053 
L 1172 1153 
Q 1172 725 1289 603 
Q 1406 481 1766 481 
L 2356 481 
L 2356 0 
L 1766 0 
Q 1100 0 847 248 
Q 594 497 594 1153 
L 594 3053 
L 172 3053 
L 172 3500 
L 594 3500 
L 594 4494 
L 1172 4494 
z
" transform="scale(0.015625)"/>
       <path id="DejaVuSans-65" d="M 3597 1894 
L 3597 1613 
L 953 1613 
Q 991 1019 1311 708 
Q 1631 397 2203 397 
Q 2534 397 2845 478 
Q 3156 559 3463 722 
L 3463 178 
Q 3153 47 2828 -22 
Q 2503 -91 2169 -91 
Q 1331 -91 842 396 
Q 353 884 353 1716 
Q 353 2575 817 3079 
Q 1281 3584 2069 3584 
Q 2775 3584 3186 3129 
Q 3597 2675 3597 1894 
z
M 3022 2063 
Q 3016 2534 2758 2815 
Q 2500 3097 2075 3097 
Q 1594 3097 1305 2825 
Q 1016 2553 972 2059 
L 3022 2063 
z
" transform="scale(0.015625)"/>
       <path id="DejaVuSans-72" d="M 2631 2963 
Q 2534 3019 2420 3045 
Q 2306 3072 2169 3072 
Q 1681 3072 1420 2755 
Q 1159 2438 1159 1844 
L 1159 0 
L 581 0 
L 581 3500 
L 1159 3500 
L 1159 2956 
Q 1341 3275 1631 3429 
Q 1922 3584 2338 3584 
Q 2397 3584 2469 3576 
Q 2541 3569 2628 3553 
L 2631 2963 
z
" transform="scale(0.015625)"/>
       <path id="DejaVuSans-61" d="M 2194 1759 
Q 1497 1759 1228 1600 
Q 959 1441 959 1056 
Q 959 750 1161 570 
Q 1363 391 1709 391 
Q 2188 391 2477 730 
Q 2766 1069 2766 1631 
L 2766 1759 
L 2194 1759 
z
M 3341 1997 
L 3341 0 
L 2766 0 
L 2766 531 
Q 2569 213 2275 61 
Q 1981 -91 1556 -91 
Q 1019 -91 701 211 
Q 384 513 384 1019 
Q 384 1609 779 1909 
Q 1175 2209 1959 2209 
L 2766 2209 
L 2766 2266 
Q 2766 2663 2505 2880 
Q 2244 3097 1772 3097 
Q 1472 3097 1187 3025 
Q 903 2953 641 2809 
L 641 3341 
Q 956 3463 1253 3523 
Q 1550 3584 1831 3584 
Q 2591 3584 2966 3190 
Q 3341 2797 3341 1997 
z
" transform="scale(0.015625)"/>
       <path id="DejaVuSans-69" d="M 603 3500 
L 1178 3500 
L 1178 0 
L 603 0 
L 603 3500 
z
M 603 4863 
L 1178 4863 
L 1178 4134 
L 603 4134 
L 603 4863 
z
" transform="scale(0.015625)"/>
       <path id="DejaVuSans-6f" d="M 1959 3097 
Q 1497 3097 1228 2736 
Q 959 2375 959 1747 
Q 959 1119 1226 758 
Q 1494 397 1959 397 
Q 2419 397 2687 759 
Q 2956 1122 2956 1747 
Q 2956 2369 2687 2733 
Q 2419 3097 1959 3097 
z
M 1959 3584 
Q 2709 3584 3137 3096 
Q 3566 2609 3566 1747 
Q 3566 888 3137 398 
Q 2709 -91 1959 -91 
Q 1206 -91 779 398 
Q 353 888 353 1747 
Q 353 2609 779 3096 
Q 1206 3584 1959 3584 
z
" transform="scale(0.015625)"/>
       <path id="DejaVuSans-6e" d="M 3513 2113 
L 3513 0 
L 2938 0 
L 2938 2094 
Q 2938 2591 2744 2837 
Q 2550 3084 2163 3084 
Q 1697 3084 1428 2787 
Q 1159 2491 1159 1978 
L 1159 0 
L 581 0 
L 581 3500 
L 1159 3500 
L 1159 2956 
Q 1366 3272 1645 3428 
Q 1925 3584 2291 3584 
Q 2894 3584 3203 3211 
Q 3513 2838 3513 2113 
z
" transform="scale(0.015625)"/>
       <path id="DejaVuSans-20" transform="scale(0.015625)"/>
       <path id="DejaVuSans-28" d="M 1984 4856 
Q 1566 4138 1362 3434 
Q 1159 2731 1159 2009 
Q 1159 1288 1364 580 
Q 1569 -128 1984 -844 
L 1484 -844 
Q 1016 -109 783 600 
Q 550 1309 550 2009 
Q 550 2706 781 3412 
Q 1013 4119 1484 4856 
L 1984 4856 
z
" transform="scale(0.015625)"/>
       <path id="DejaVuSans-4c" d="M 628 4666 
L 1259 4666 
L 1259 531 
L 3531 531 
L 3531 0 
L 628 0 
L 628 4666 
z
" transform="scale(0.015625)"/>
       <path id="DejaVuSans-67" d="M 2906 1791 
Q 2906 2416 2648 2759 
Q 2391 3103 1925 3103 
Q 1463 3103 1205 2759 
Q 947 2416 947 1791 
Q 947 1169 1205 825 
Q 1463 481 1925 481 
Q 2391 481 2648 825 
Q 2906 1169 2906 1791 
z
M 3481 434 
Q 3481 -459 3084 -895 
Q 2688 -1331 1869 -1331 
Q 1566 -1331 1297 -1286 
Q 1028 -1241 775 -1147 
L 775 -588 
Q 1028 -725 1275 -790 
Q 1522 -856 1778 -856 
Q 2344 -856 2625 -561 
Q 2906 -266 2906 331 
L 2906 616 
Q 2728 306 2450 153 
Q 2172 0 1784 0 
Q 1141 0 747 490 
Q 353 981 353 1791 
Q 353 2603 747 3093 
Q 1141 3584 1784 3584 
Q 2172 3584 2450 3431 
Q 2728 3278 2906 2969 
L 2906 3500 
L 3481 3500 
L 3481 434 
z
" transform="scale(0.015625)"/>
       <path id="DejaVuSans-53" d="M 3425 4513 
L 3425 3897 
Q 3066 4069 2747 4153 
Q 2428 4238 2131 4238 
Q 1616 4238 1336 4038 
Q 1056 3838 1056 3469 
Q 1056 3159 1242 3001 
Q 1428 2844 1947 2747 
L 2328 2669 
Q 3034 2534 3370 2195 
Q 3706 1856 3706 1288 
Q 3706 609 3251 259 
Q 2797 -91 1919 -91 
Q 1588 -91 1214 -16 
Q 841 59 441 206 
L 441 856 
Q 825 641 1194 531 
Q 1563 422 1919 422 
Q 2459 422 2753 634 
Q 3047 847 3047 1241 
Q 3047 1584 2836 1778 
Q 2625 1972 2144 2069 
L 1759 2144 
Q 1053 2284 737 2584 
Q 422 2884 422 3419 
Q 422 4038 858 4394 
Q 1294 4750 2059 4750 
Q 2388 4750 2728 4690 
Q 3069 4631 3425 4513 
z
" transform="scale(0.015625)"/>
       <path id="DejaVuSans-63" d="M 3122 3366 
L 3122 2828 
Q 2878 2963 2633 3030 
Q 2388 3097 2138 3097 
Q 1578 3097 1268 2742 
Q 959 2388 959 1747 
Q 959 1106 1268 751 
Q 1578 397 2138 397 
Q 2388 397 2633 464 
Q 2878 531 3122 666 
L 3122 134 
Q 2881 22 2623 -34 
Q 2366 -91 2075 -91 
Q 1284 -91 818 406 
Q 353 903 353 1747 
Q 353 2603 823 3093 
Q 1294 3584 2113 3584 
Q 2378 3584 2631 3529 
Q 2884 3475 3122 3366 
z
" transform="scale(0.015625)"/>
       <path id="DejaVuSans-6c" d="M 603 4863 
L 1178 4863 
L 1178 0 
L 603 0 
L 603 4863 
z
" transform="scale(0.015625)"/>
       <path id="DejaVuSans-29" d="M 513 4856 
L 1013 4856 
Q 1481 4119 1714 3412 
Q 1947 2706 1947 2009 
Q 1947 1309 1714 600 
Q 1481 -109 1013 -844 
L 513 -844 
Q 928 -128 1133 580 
Q 1338 1288 1338 2009 
Q 1338 2731 1133 3434 
Q 928 4138 513 4856 
z
" transform="scale(0.015625)"/>
      </defs>
      <use xlink:href="#DejaVuSans-49"/>
      <use xlink:href="#DejaVuSans-74" transform="translate(29.492188 0)"/>
      <use xlink:href="#DejaVuSans-65" transform="translate(68.701172 0)"/>
      <use xlink:href="#DejaVuSans-72" transform="translate(130.224609 0)"/>
      <use xlink:href="#DejaVuSans-61" transform="translate(171.337891 0)"/>
      <use xlink:href="#DejaVuSans-74" transform="translate(232.617188 0)"/>
      <use xlink:href="#DejaVuSans-69" transform="translate(271.826172 0)"/>
      <use xlink:href="#DejaVuSans-6f" transform="translate(299.609375 0)"/>
      <use xlink:href="#DejaVuSans-6e" transform="translate(360.791016 0)"/>
      <use xlink:href="#DejaVuSans-20" transform="translate(424.169922 0)"/>
      <use xlink:href="#DejaVuSans-28" transform="translate(455.957031 0)"/>
      <use xlink:href="#DejaVuSans-4c" transform="translate(494.970703 0)"/>
      <use xlink:href="#DejaVuSans-6f" transform="translate(548.933594 0)"/>
      <use xlink:href="#DejaVuSans-67" transform="translate(610.115234 0)"/>
      <use xlink:href="#DejaVuSans-20" transform="translate(673.591797 0)"/>
      <use xlink:href="#DejaVuSans-53" transform="translate(705.378906 0)"/>
      <use xlink:href="#DejaVuSans-63" transform="translate(768.855469 0)"/>
      <use xlink:href="#DejaVuSans-61" transform="translate(823.835938 0)"/>
      <use xlink:href="#DejaVuSans-6c" transform="translate(885.115234 0)"/>
      <use xlink:href="#DejaVuSans-65" transform="translate(912.898438 0)"/>
      <use xlink:href="#DejaVuSans-29" transform="translate(974.421875 0)"/>
     </g>
    </g>
   </g>
   <g id="matplotlib.axis_2">
    <g id="ytick_1">
     <g id="line2d_68">
      <path d="M 54.02 296.16429 
L 565.2 296.16429 
" clip-path="url(#p0bac2aa5b2)" style="fill: none; stroke: #b0b0b0; stroke-opacity: 0.3; stroke-width: 0.8; stroke-linecap: square"/>
     </g>
     <g id="line2d_69">
      <defs>
       <path id="m471eac3df0" d="M 0 0 
L -3.5 0 
" style="stroke: #000000; stroke-width: 0.8"/>
      </defs>
      <g>
       <use xlink:href="#m471eac3df0" x="54.02" y="296.16429" style="stroke: #000000; stroke-width: 0.8"/>
      </g>
     </g>
     <g id="text_6">
      <!-- 23.5 -->
      <g transform="translate(24.754375 299.963509) scale(0.1 -0.1)">
       <defs>
        <path id="DejaVuSans-2e" d="M 684 794 
L 1344 794 
L 1344 0 
L 684 0 
L 684 794 
z
" transform="scale(0.015625)"/>
        <path id="DejaVuSans-35" d="M 691 4666 
L 3169 4666 
L 3169 4134 
L 1269 4134 
L 1269 2991 
Q 1406 3038 1543 3061 
Q 1681 3084 1819 3084 
Q 2600 3084 3056 2656 
Q 3513 2228 3513 1497 
Q 3513 744 3044 326 
Q 2575 -91 1722 -91 
Q 1428 -91 1123 -41 
Q 819 9 494 109 
L 494 744 
Q 775 591 1075 516 
Q 1375 441 1709 441 
Q 2250 441 2565 725 
Q 2881 1009 2881 1497 
Q 2881 1984 2565 2268 
Q 2250 2553 1709 2553 
Q 1456 2553 1204 2497 
Q 953 2441 691 2322 
L 691 4666 
z
" transform="scale(0.015625)"/>
       </defs>
       <use xlink:href="#DejaVuSans-32"/>
       <use xlink:href="#DejaVuSans-33" transform="translate(63.623047 0)"/>
       <use xlink:href="#DejaVuSans-2e" transform="translate(127.246094 0)"/>
       <use xlink:href="#DejaVuSans-35" transform="translate(159.033203 0)"/>
      </g>
     </g>
    </g>
    <g id="ytick_2">
     <g id="line2d_70">
      <path d="M 54.02 254.459697 
L 565.2 254.459697 
" clip-path="url(#p0bac2aa5b2)" style="fill: none; stroke: #b0b0b0; stroke-opacity: 0.3; stroke-width: 0.8; stroke-linecap: square"/>
     </g>
     <g id="line2d_71">
      <g>
       <use xlink:href="#m471eac3df0" x="54.02" y="254.459697" style="stroke: #000000; stroke-width: 0.8"/>
      </g>
     </g>
     <g id="text_7">
      <!-- 24.0 -->
      <g transform="translate(24.754375 258.258916) scale(0.1 -0.1)">
       <defs>
        <path id="DejaVuSans-34" d="M 2419 4116 
L 825 1625 
L 2419 1625 
L 2419 4116 
z
M 2253 4666 
L 3047 4666 
L 3047 1625 
L 3713 1625 
L 3713 1100 
L 3047 1100 
L 3047 0 
L 2419 0 
L 2419 1100 
L 313 1100 
L 313 1709 
L 2253 4666 
z
" transform="scale(0.015625)"/>
       </defs>
       <use xlink:href="#DejaVuSans-32"/>
       <use xlink:href="#DejaVuSans-34" transform="translate(63.623047 0)"/>
       <use xlink:href="#DejaVuSans-2e" transform="translate(127.246094 0)"/>
       <use xlink:href="#DejaVuSans-30" transform="translate(159.033203 0)"/>
      </g>
     </g>
    </g>
    <g id="ytick_3">
     <g id="line2d_72">
      <path d="M 54.02 212.755104 
L 565.2 212.755104 
" clip-path="url(#p0bac2aa5b2)" style="fill: none; stroke: #b0b0b0; stroke-opacity: 0.3; stroke-width: 0.8; stroke-linecap: square"/>
     </g>
     <g id="line2d_73">
      <g>
       <use xlink:href="#m471eac3df0" x="54.02" y="212.755104" style="stroke: #000000; stroke-width: 0.8"/>
      </g>
     </g>
     <g id="text_8">
      <!-- 24.5 -->
      <g transform="translate(24.754375 216.554323) scale(0.1 -0.1)">
       <use xlink:href="#DejaVuSans-32"/>
       <use xlink:href="#DejaVuSans-34" transform="translate(63.623047 0)"/>
       <use xlink:href="#DejaVuSans-2e" transform="translate(127.246094 0)"/>
       <use xlink:href="#DejaVuSans-35" transform="translate(159.033203 0)"/>
      </g>
     </g>
    </g>
    <g id="ytick_4">
     <g id="line2d_74">
      <path d="M 54.02 171.050511 
L 565.2 171.050511 
" clip-path="url(#p0bac2aa5b2)" style="fill: none; stroke: #b0b0b0; stroke-opacity: 0.3; stroke-width: 0.8; stroke-linecap: square"/>
     </g>
     <g id="line2d_75">
      <g>
       <use xlink:href="#m471eac3df0" x="54.02" y="171.050511" style="stroke: #000000; stroke-width: 0.8"/>
      </g>
     </g>
     <g id="text_9">
      <!-- 25.0 -->
      <g transform="translate(24.754375 174.849729) scale(0.1 -0.1)">
       <use xlink:href="#DejaVuSans-32"/>
       <use xlink:href="#DejaVuSans-35" transform="translate(63.623047 0)"/>
       <use xlink:href="#DejaVuSans-2e" transform="translate(127.246094 0)"/>
       <use xlink:href="#DejaVuSans-30" transform="translate(159.033203 0)"/>
      </g>
     </g>
    </g>
    <g id="ytick_5">
     <g id="line2d_76">
      <path d="M 54.02 129.345917 
L 565.2 129.345917 
" clip-path="url(#p0bac2aa5b2)" style="fill: none; stroke: #b0b0b0; stroke-opacity: 0.3; stroke-width: 0.8; stroke-linecap: square"/>
     </g>
     <g id="line2d_77">
      <g>
       <use xlink:href="#m471eac3df0" x="54.02" y="129.345917" style="stroke: #000000; stroke-width: 0.8"/>
      </g>
     </g>
     <g id="text_10">
      <!-- 25.5 -->
      <g transform="translate(24.754375 133.145136) scale(0.1 -0.1)">
       <use xlink:href="#DejaVuSans-32"/>
       <use xlink:href="#DejaVuSans-35" transform="translate(63.623047 0)"/>
       <use xlink:href="#DejaVuSans-2e" transform="translate(127.246094 0)"/>
       <use xlink:href="#DejaVuSans-35" transform="translate(159.033203 0)"/>
      </g>
     </g>
    </g>
    <g id="ytick_6">
     <g id="line2d_78">
      <path d="M 54.02 87.641324 
L 565.2 87.641324 
" clip-path="url(#p0bac2aa5b2)" style="fill: none; stroke: #b0b0b0; stroke-opacity: 0.3; stroke-width: 0.8; stroke-linecap: square"/>
     </g>
     <g id="line2d_79">
      <g>
       <use xlink:href="#m471eac3df0" x="54.02" y="87.641324" style="stroke: #000000; stroke-width: 0.8"/>
      </g>
     </g>
     <g id="text_11">
      <!-- 26.0 -->
      <g transform="translate(24.754375 91.440543) scale(0.1 -0.1)">
       <defs>
        <path id="DejaVuSans-36" d="M 2113 2584 
Q 1688 2584 1439 2293 
Q 1191 2003 1191 1497 
Q 1191 994 1439 701 
Q 1688 409 2113 409 
Q 2538 409 2786 701 
Q 3034 994 3034 1497 
Q 3034 2003 2786 2293 
Q 2538 2584 2113 2584 
z
M 3366 4563 
L 3366 3988 
Q 3128 4100 2886 4159 
Q 2644 4219 2406 4219 
Q 1781 4219 1451 3797 
Q 1122 3375 1075 2522 
Q 1259 2794 1537 2939 
Q 1816 3084 2150 3084 
Q 2853 3084 3261 2657 
Q 3669 2231 3669 1497 
Q 3669 778 3244 343 
Q 2819 -91 2113 -91 
Q 1303 -91 875 529 
Q 447 1150 447 2328 
Q 447 3434 972 4092 
Q 1497 4750 2381 4750 
Q 2619 4750 2861 4703 
Q 3103 4656 3366 4563 
z
" transform="scale(0.015625)"/>
       </defs>
       <use xlink:href="#DejaVuSans-32"/>
       <use xlink:href="#DejaVuSans-36" transform="translate(63.623047 0)"/>
       <use xlink:href="#DejaVuSans-2e" transform="translate(127.246094 0)"/>
       <use xlink:href="#DejaVuSans-30" transform="translate(159.033203 0)"/>
      </g>
     </g>
    </g>
    <g id="ytick_7">
     <g id="line2d_80">
      <path d="M 54.02 45.936731 
L 565.2 45.936731 
" clip-path="url(#p0bac2aa5b2)" style="fill: none; stroke: #b0b0b0; stroke-opacity: 0.3; stroke-width: 0.8; stroke-linecap: square"/>
     </g>
     <g id="line2d_81">
      <g>
       <use xlink:href="#m471eac3df0" x="54.02" y="45.936731" style="stroke: #000000; stroke-width: 0.8"/>
      </g>
     </g>
     <g id="text_12">
      <!-- 26.5 -->
      <g transform="translate(24.754375 49.73595) scale(0.1 -0.1)">
       <use xlink:href="#DejaVuSans-32"/>
       <use xlink:href="#DejaVuSans-36" transform="translate(63.623047 0)"/>
       <use xlink:href="#DejaVuSans-2e" transform="translate(127.246094 0)"/>
       <use xlink:href="#DejaVuSans-35" transform="translate(159.033203 0)"/>
      </g>
     </g>
    </g>
    <g id="text_13">
     <!-- PSNR (dB) -->
     <g transform="translate(18.674688 196.303219) rotate(-90) scale(0.1 -0.1)">
      <defs>
       <path id="DejaVuSans-50" d="M 1259 4147 
L 1259 2394 
L 2053 2394 
Q 2494 2394 2734 2622 
Q 2975 2850 2975 3272 
Q 2975 3691 2734 3919 
Q 2494 4147 2053 4147 
L 1259 4147 
z
M 628 4666 
L 2053 4666 
Q 2838 4666 3239 4311 
Q 3641 3956 3641 3272 
Q 3641 2581 3239 2228 
Q 2838 1875 2053 1875 
L 1259 1875 
L 1259 0 
L 628 0 
L 628 4666 
z
" transform="scale(0.015625)"/>
       <path id="DejaVuSans-4e" d="M 628 4666 
L 1478 4666 
L 3547 763 
L 3547 4666 
L 4159 4666 
L 4159 0 
L 3309 0 
L 1241 3903 
L 1241 0 
L 628 0 
L 628 4666 
z
" transform="scale(0.015625)"/>
       <path id="DejaVuSans-52" d="M 2841 2188 
Q 3044 2119 3236 1894 
Q 3428 1669 3622 1275 
L 4263 0 
L 3584 0 
L 2988 1197 
Q 2756 1666 2539 1819 
Q 2322 1972 1947 1972 
L 1259 1972 
L 1259 0 
L 628 0 
L 628 4666 
L 2053 4666 
Q 2853 4666 3247 4331 
Q 3641 3997 3641 3322 
Q 3641 2881 3436 2590 
Q 3231 2300 2841 2188 
z
M 1259 4147 
L 1259 2491 
L 2053 2491 
Q 2509 2491 2742 2702 
Q 2975 2913 2975 3322 
Q 2975 3731 2742 3939 
Q 2509 4147 2053 4147 
L 1259 4147 
z
" transform="scale(0.015625)"/>
       <path id="DejaVuSans-64" d="M 2906 2969 
L 2906 4863 
L 3481 4863 
L 3481 0 
L 2906 0 
L 2906 525 
Q 2725 213 2448 61 
Q 2172 -91 1784 -91 
Q 1150 -91 751 415 
Q 353 922 353 1747 
Q 353 2572 751 3078 
Q 1150 3584 1784 3584 
Q 2172 3584 2448 3432 
Q 2725 3281 2906 2969 
z
M 947 1747 
Q 947 1113 1208 752 
Q 1469 391 1925 391 
Q 2381 391 2643 752 
Q 2906 1113 2906 1747 
Q 2906 2381 2643 2742 
Q 2381 3103 1925 3103 
Q 1469 3103 1208 2742 
Q 947 2381 947 1747 
z
" transform="scale(0.015625)"/>
       <path id="DejaVuSans-42" d="M 1259 2228 
L 1259 519 
L 2272 519 
Q 2781 519 3026 730 
Q 3272 941 3272 1375 
Q 3272 1813 3026 2020 
Q 2781 2228 2272 2228 
L 1259 2228 
z
M 1259 4147 
L 1259 2741 
L 2194 2741 
Q 2656 2741 2882 2914 
Q 3109 3088 3109 3444 
Q 3109 3797 2882 3972 
Q 2656 4147 2194 4147 
L 1259 4147 
z
M 628 4666 
L 2241 4666 
Q 2963 4666 3353 4366 
Q 3744 4066 3744 3513 
Q 3744 3084 3544 2831 
Q 3344 2578 2956 2516 
Q 3422 2416 3680 2098 
Q 3938 1781 3938 1306 
Q 3938 681 3513 340 
Q 3088 0 2303 0 
L 628 0 
L 628 4666 
z
" transform="scale(0.015625)"/>
      </defs>
      <use xlink:href="#DejaVuSans-50"/>
      <use xlink:href="#DejaVuSans-53" transform="translate(60.302734 0)"/>
      <use xlink:href="#DejaVuSans-4e" transform="translate(123.779297 0)"/>
      <use xlink:href="#DejaVuSans-52" transform="translate(198.583984 0)"/>
      <use xlink:href="#DejaVuSans-20" transform="translate(268.066406 0)"/>
      <use xlink:href="#DejaVuSans-28" transform="translate(299.853516 0)"/>
      <use xlink:href="#DejaVuSans-64" transform="translate(338.867188 0)"/>
      <use xlink:href="#DejaVuSans-42" transform="translate(402.34375 0)"/>
      <use xlink:href="#DejaVuSans-29" transform="translate(470.947266 0)"/>
     </g>
    </g>
   </g>
   <g id="patch_3">
    <path d="M 54.02 314.728 
L 54.02 26.88 
" style="fill: none; stroke: #000000; stroke-width: 0.8; stroke-linejoin: miter; stroke-linecap: square"/>
   </g>
   <g id="patch_4">
    <path d="M 565.2 314.728 
L 565.2 26.88 
" style="fill: none; stroke: #000000; stroke-width: 0.8; stroke-linejoin: miter; stroke-linecap: square"/>
   </g>
   <g id="patch_5">
    <path d="M 54.02 314.728 
L 565.2 314.728 
" style="fill: none; stroke: #000000; stroke-width: 0.8; stroke-linejoin: miter; stroke-linecap: square"/>
   </g>
   <g id="patch_6">
    <path d="M 54.02 26.88 
L 565.2 26.88 
" style="fill: none; stroke: #000000; stroke-width: 0.8; stroke-linejoin: miter; stroke-linecap: square"/>
   </g>
   <g id="text_14">
    <!-- PSNR Convergence - Image 5 -->
    <g transform="translate(221.560938 20.88) scale(0.12 -0.12)">
     <defs>
      <path id="DejaVuSans-43" d="M 4122 4306 
L 4122 3641 
Q 3803 3938 3442 4084 
Q 3081 4231 2675 4231 
Q 1875 4231 1450 3742 
Q 1025 3253 1025 2328 
Q 1025 1406 1450 917 
Q 1875 428 2675 428 
Q 3081 428 3442 575 
Q 3803 722 4122 1019 
L 4122 359 
Q 3791 134 3420 21 
Q 3050 -91 2638 -91 
Q 1578 -91 968 557 
Q 359 1206 359 2328 
Q 359 3453 968 4101 
Q 1578 4750 2638 4750 
Q 3056 4750 3426 4639 
Q 3797 4528 4122 4306 
z
" transform="scale(0.015625)"/>
      <path id="DejaVuSans-76" d="M 191 3500 
L 800 3500 
L 1894 563 
L 2988 3500 
L 3597 3500 
L 2284 0 
L 1503 0 
L 191 3500 
z
" transform="scale(0.015625)"/>
      <path id="DejaVuSans-2d" d="M 313 2009 
L 1997 2009 
L 1997 1497 
L 313 1497 
L 313 2009 
z
" transform="scale(0.015625)"/>
      <path id="DejaVuSans-6d" d="M 3328 2828 
Q 3544 3216 3844 3400 
Q 4144 3584 4550 3584 
Q 5097 3584 5394 3201 
Q 5691 2819 5691 2113 
L 5691 0 
L 5113 0 
L 5113 2094 
Q 5113 2597 4934 2840 
Q 4756 3084 4391 3084 
Q 3944 3084 3684 2787 
Q 3425 2491 3425 1978 
L 3425 0 
L 2847 0 
L 2847 2094 
Q 2847 2600 2669 2842 
Q 2491 3084 2119 3084 
Q 1678 3084 1418 2786 
Q 1159 2488 1159 1978 
L 1159 0 
L 581 0 
L 581 3500 
L 1159 3500 
L 1159 2956 
Q 1356 3278 1631 3431 
Q 1906 3584 2284 3584 
Q 2666 3584 2933 3390 
Q 3200 3197 3328 2828 
z
" transform="scale(0.015625)"/>
     </defs>
     <use xlink:href="#DejaVuSans-50"/>
     <use xlink:href="#DejaVuSans-53" transform="translate(60.302734 0)"/>
     <use xlink:href="#DejaVuSans-4e" transform="translate(123.779297 0)"/>
     <use xlink:href="#DejaVuSans-52" transform="translate(198.583984 0)"/>
     <use xlink:href="#DejaVuSans-20" transform="translate(268.066406 0)"/>
     <use xlink:href="#DejaVuSans-43" transform="translate(299.853516 0)"/>
     <use xlink:href="#DejaVuSans-6f" transform="translate(369.677734 0)"/>
     <use xlink:href="#DejaVuSans-6e" transform="translate(430.859375 0)"/>
     <use xlink:href="#DejaVuSans-76" transform="translate(494.238281 0)"/>
     <use xlink:href="#DejaVuSans-65" transform="translate(553.417969 0)"/>
     <use xlink:href="#DejaVuSans-72" transform="translate(614.941406 0)"/>
     <use xlink:href="#DejaVuSans-67" transform="translate(654.304688 0)"/>
     <use xlink:href="#DejaVuSans-65" transform="translate(717.78125 0)"/>
     <use xlink:href="#DejaVuSans-6e" transform="translate(779.304688 0)"/>
     <use xlink:href="#DejaVuSans-63" transform="translate(842.683594 0)"/>
     <use xlink:href="#DejaVuSans-65" transform="translate(897.664062 0)"/>
     <use xlink:href="#DejaVuSans-20" transform="translate(959.1875 0)"/>
     <use xlink:href="#DejaVuSans-2d" transform="translate(990.974609 0)"/>
     <use xlink:href="#DejaVuSans-20" transform="translate(1027.058594 0)"/>
     <use xlink:href="#DejaVuSans-49" transform="translate(1058.845703 0)"/>
     <use xlink:href="#DejaVuSans-6d" transform="translate(1088.337891 0)"/>
     <use xlink:href="#DejaVuSans-61" transform="translate(1185.75 0)"/>
     <use xlink:href="#DejaVuSans-67" transform="translate(1247.029297 0)"/>
     <use xlink:href="#DejaVuSans-65" transform="translate(1310.505859 0)"/>
     <use xlink:href="#DejaVuSans-20" transform="translate(1372.029297 0)"/>
     <use xlink:href="#DejaVuSans-35" transform="translate(1403.816406 0)"/>
    </g>
   </g>
   <g id="legend_1">
    <g id="patch_7">
     <path d="M 483.914317 312.563 
L 561.369 312.563 
Q 563.035 312.563 563.035 310.897 
L 563.035 225.446819 
Q 563.035 223.780819 561.369 223.780819 
L 483.914317 223.780819 
Q 482.248317 223.780819 482.248317 225.446819 
L 482.248317 310.897 
Q 482.248317 312.563 483.914317 312.563 
z
" style="fill: #4d4d4d; opacity: 0.5; stroke: #4d4d4d; stroke-linejoin: miter"/>
    </g>
    <g id="patch_8">
     <path d="M 481.914317 310.563 
L 559.369 310.563 
Q 561.035 310.563 561.035 308.897 
L 561.035 223.446819 
Q 561.035 221.780819 559.369 221.780819 
L 481.914317 221.780819 
Q 480.248317 221.780819 480.248317 223.446819 
L 480.248317 308.897 
Q 480.248317 310.563 481.914317 310.563 
z
" style="fill: #ffffff; stroke: #cccccc; stroke-linejoin: miter"/>
    </g>
    <g id="line2d_82">
     <path d="M 483.580317 228.526817 
L 491.910317 228.526817 
L 500.240317 228.526817 
" style="fill: none; stroke: #000000; stroke-width: 1.5; stroke-linecap: square"/>
     <g>
      <use xlink:href="#mbd1d8dbfaa" x="491.910317" y="228.526817" style="stroke: #000000"/>
     </g>
    </g>
    <g id="text_15">
     <!-- PGD -->
     <g transform="translate(506.904317 231.442317) scale(0.0833 -0.0833)">
      <defs>
       <path id="DejaVuSans-47" d="M 3809 666 
L 3809 1919 
L 2778 1919 
L 2778 2438 
L 4434 2438 
L 4434 434 
Q 4069 175 3628 42 
Q 3188 -91 2688 -91 
Q 1594 -91 976 548 
Q 359 1188 359 2328 
Q 359 3472 976 4111 
Q 1594 4750 2688 4750 
Q 3144 4750 3555 4637 
Q 3966 4525 4313 4306 
L 4313 3634 
Q 3963 3931 3569 4081 
Q 3175 4231 2741 4231 
Q 1884 4231 1454 3753 
Q 1025 3275 1025 2328 
Q 1025 1384 1454 906 
Q 1884 428 2741 428 
Q 3075 428 3337 486 
Q 3600 544 3809 666 
z
" transform="scale(0.015625)"/>
       <path id="DejaVuSans-44" d="M 1259 4147 
L 1259 519 
L 2022 519 
Q 2988 519 3436 956 
Q 3884 1394 3884 2338 
Q 3884 3275 3436 3711 
Q 2988 4147 2022 4147 
L 1259 4147 
z
M 628 4666 
L 1925 4666 
Q 3281 4666 3915 4102 
Q 4550 3538 4550 2338 
Q 4550 1131 3912 565 
Q 3275 0 1925 0 
L 628 0 
L 628 4666 
z
" transform="scale(0.015625)"/>
      </defs>
      <use xlink:href="#DejaVuSans-50"/>
      <use xlink:href="#DejaVuSans-47" transform="translate(60.302734 0)"/>
      <use xlink:href="#DejaVuSans-44" transform="translate(137.792969 0)"/>
     </g>
    </g>
    <g id="line2d_83">
     <path d="M 483.580317 240.753695 
L 491.910317 240.753695 
L 500.240317 240.753695 
" style="fill: none; stroke: #4b0082; stroke-width: 1.5; stroke-linecap: square"/>
     <g>
      <use xlink:href="#m0b30dccc77" x="491.910317" y="240.753695" style="fill: #4b0082; stroke: #4b0082; stroke-linejoin: miter"/>
     </g>
    </g>
    <g id="text_16">
     <!-- FISTA -->
     <g transform="translate(506.904317 243.669195) scale(0.0833 -0.0833)">
      <defs>
       <path id="DejaVuSans-46" d="M 628 4666 
L 3309 4666 
L 3309 4134 
L 1259 4134 
L 1259 2759 
L 3109 2759 
L 3109 2228 
L 1259 2228 
L 1259 0 
L 628 0 
L 628 4666 
z
" transform="scale(0.015625)"/>
       <path id="DejaVuSans-54" d="M -19 4666 
L 3928 4666 
L 3928 4134 
L 2272 4134 
L 2272 0 
L 1638 0 
L 1638 4134 
L -19 4134 
L -19 4666 
z
" transform="scale(0.015625)"/>
       <path id="DejaVuSans-41" d="M 2188 4044 
L 1331 1722 
L 3047 1722 
L 2188 4044 
z
M 1831 4666 
L 2547 4666 
L 4325 0 
L 3669 0 
L 3244 1197 
L 1141 1197 
L 716 0 
L 50 0 
L 1831 4666 
z
" transform="scale(0.015625)"/>
      </defs>
      <use xlink:href="#DejaVuSans-46"/>
      <use xlink:href="#DejaVuSans-49" transform="translate(57.519531 0)"/>
      <use xlink:href="#DejaVuSans-53" transform="translate(87.011719 0)"/>
      <use xlink:href="#DejaVuSans-54" transform="translate(150.488281 0)"/>
      <use xlink:href="#DejaVuSans-41" transform="translate(203.822266 0)"/>
     </g>
    </g>
    <g id="line2d_84">
     <path d="M 483.580317 252.980573 
L 491.910317 252.980573 
L 500.240317 252.980573 
" style="fill: none; stroke: #1f77b4; stroke-width: 1.5; stroke-linecap: square"/>
     <g>
      <use xlink:href="#mb643c388b9" x="491.910317" y="252.980573" style="fill: #1f77b4; stroke: #1f77b4; stroke-linejoin: miter"/>
     </g>
    </g>
    <g id="text_17">
     <!-- MOMENTUM -->
     <g transform="translate(506.904317 255.896073) scale(0.0833 -0.0833)">
      <defs>
       <path id="DejaVuSans-4d" d="M 628 4666 
L 1569 4666 
L 2759 1491 
L 3956 4666 
L 4897 4666 
L 4897 0 
L 4281 0 
L 4281 4097 
L 3078 897 
L 2444 897 
L 1241 4097 
L 1241 0 
L 628 0 
L 628 4666 
z
" transform="scale(0.015625)"/>
       <path id="DejaVuSans-4f" d="M 2522 4238 
Q 1834 4238 1429 3725 
Q 1025 3213 1025 2328 
Q 1025 1447 1429 934 
Q 1834 422 2522 422 
Q 3209 422 3611 934 
Q 4013 1447 4013 2328 
Q 4013 3213 3611 3725 
Q 3209 4238 2522 4238 
z
M 2522 4750 
Q 3503 4750 4090 4092 
Q 4678 3434 4678 2328 
Q 4678 1225 4090 567 
Q 3503 -91 2522 -91 
Q 1538 -91 948 565 
Q 359 1222 359 2328 
Q 359 3434 948 4092 
Q 1538 4750 2522 4750 
z
" transform="scale(0.015625)"/>
       <path id="DejaVuSans-45" d="M 628 4666 
L 3578 4666 
L 3578 4134 
L 1259 4134 
L 1259 2753 
L 3481 2753 
L 3481 2222 
L 1259 2222 
L 1259 531 
L 3634 531 
L 3634 0 
L 628 0 
L 628 4666 
z
" transform="scale(0.015625)"/>
       <path id="DejaVuSans-55" d="M 556 4666 
L 1191 4666 
L 1191 1831 
Q 1191 1081 1462 751 
Q 1734 422 2344 422 
Q 2950 422 3222 751 
Q 3494 1081 3494 1831 
L 3494 4666 
L 4128 4666 
L 4128 1753 
Q 4128 841 3676 375 
Q 3225 -91 2344 -91 
Q 1459 -91 1007 375 
Q 556 841 556 1753 
L 556 4666 
z
" transform="scale(0.015625)"/>
      </defs>
      <use xlink:href="#DejaVuSans-4d"/>
      <use xlink:href="#DejaVuSans-4f" transform="translate(86.279297 0)"/>
      <use xlink:href="#DejaVuSans-4d" transform="translate(164.990234 0)"/>
      <use xlink:href="#DejaVuSans-45" transform="translate(251.269531 0)"/>
      <use xlink:href="#DejaVuSans-4e" transform="translate(314.453125 0)"/>
      <use xlink:href="#DejaVuSans-54" transform="translate(389.257812 0)"/>
      <use xlink:href="#DejaVuSans-55" transform="translate(450.341797 0)"/>
      <use xlink:href="#DejaVuSans-4d" transform="translate(523.535156 0)"/>
     </g>
    </g>
    <g id="line2d_85">
     <path d="M 483.580317 265.207452 
L 491.910317 265.207452 
L 500.240317 265.207452 
" style="fill: none; stroke: #ff7f0e; stroke-width: 1.5; stroke-linecap: square"/>
     <g>
      <use xlink:href="#mb9cb716663" x="491.910317" y="265.207452" style="fill: #ff7f0e; stroke: #ff7f0e; stroke-linejoin: miter"/>
     </g>
    </g>
    <g id="text_18">
     <!-- AA_M3 -->
     <g transform="translate(506.904317 268.122952) scale(0.0833 -0.0833)">
      <defs>
       <path id="DejaVuSans-5f" d="M 3263 -1063 
L 3263 -1509 
L -63 -1509 
L -63 -1063 
L 3263 -1063 
z
" transform="scale(0.015625)"/>
      </defs>
      <use xlink:href="#DejaVuSans-41"/>
      <use xlink:href="#DejaVuSans-41" transform="translate(71.158203 0)"/>
      <use xlink:href="#DejaVuSans-5f" transform="translate(139.566406 0)"/>
      <use xlink:href="#DejaVuSans-4d" transform="translate(189.566406 0)"/>
      <use xlink:href="#DejaVuSans-33" transform="translate(275.845703 0)"/>
     </g>
    </g>
    <g id="line2d_86">
     <path d="M 483.580317 277.666008 
L 491.910317 277.666008 
L 500.240317 277.666008 
" style="fill: none; stroke: #2ca02c; stroke-width: 1.5; stroke-linecap: square"/>
     <g>
      <use xlink:href="#mbd15c1f89e" x="491.910317" y="277.666008" style="fill: #2ca02c; stroke: #2ca02c; stroke-linejoin: miter"/>
     </g>
    </g>
    <g id="text_19">
     <!-- AA_M4 -->
     <g transform="translate(506.904317 280.581508) scale(0.0833 -0.0833)">
      <use xlink:href="#DejaVuSans-41"/>
      <use xlink:href="#DejaVuSans-41" transform="translate(71.158203 0)"/>
      <use xlink:href="#DejaVuSans-5f" transform="translate(139.566406 0)"/>
      <use xlink:href="#DejaVuSans-4d" transform="translate(189.566406 0)"/>
      <use xlink:href="#DejaVuSans-34" transform="translate(275.845703 0)"/>
     </g>
    </g>
    <g id="line2d_87">
     <path d="M 483.580317 290.124564 
L 491.910317 290.124564 
L 500.240317 290.124564 
" style="fill: none; stroke: #d62728; stroke-width: 1.5; stroke-linecap: square"/>
     <g>
      <use xlink:href="#m1ce7ae2886" x="491.910317" y="290.124564" style="fill: #d62728; stroke: #d62728; stroke-linejoin: miter"/>
     </g>
    </g>
    <g id="text_20">
     <!-- AA_M5 -->
     <g transform="translate(506.904317 293.040064) scale(0.0833 -0.0833)">
      <use xlink:href="#DejaVuSans-41"/>
      <use xlink:href="#DejaVuSans-41" transform="translate(71.158203 0)"/>
      <use xlink:href="#DejaVuSans-5f" transform="translate(139.566406 0)"/>
      <use xlink:href="#DejaVuSans-4d" transform="translate(189.566406 0)"/>
      <use xlink:href="#DejaVuSans-35" transform="translate(275.845703 0)"/>
     </g>
    </g>
    <g id="line2d_88">
     <path d="M 483.580317 302.58312 
L 491.910317 302.58312 
L 500.240317 302.58312 
" style="fill: none; stroke: #ff0000; stroke-width: 1.5; stroke-linecap: square"/>
    </g>
    <g id="text_21">
     <!-- RL AGENT -->
     <g transform="translate(506.904317 305.49862) scale(0.0833 -0.0833)">
      <use xlink:href="#DejaVuSans-52"/>
      <use xlink:href="#DejaVuSans-4c" transform="translate(69.482422 0)"/>
      <use xlink:href="#DejaVuSans-20" transform="translate(125.195312 0)"/>
      <use xlink:href="#DejaVuSans-41" transform="translate(156.982422 0)"/>
      <use xlink:href="#DejaVuSans-47" transform="translate(223.640625 0)"/>
      <use xlink:href="#DejaVuSans-45" transform="translate(301.130859 0)"/>
      <use xlink:href="#DejaVuSans-4e" transform="translate(364.314453 0)"/>
      <use xlink:href="#DejaVuSans-54" transform="translate(439.119141 0)"/>
     </g>
    </g>
   </g>
  </g>
 </g>
 <defs>
  <clipPath id="p0bac2aa5b2">
   <rect x="54.02" y="26.88" width="511.18" height="287.848"/>
  </clipPath>
 </defs>
</svg>
